<svg xmlns="http://www.w3.org/2000/svg" viewBox="0 0 21 21.1"><path d="M7.7 20h0C5 19.7 2.5 18.7.3 17.1c-.1-.1-.2-.2-.2-.3h0c-.3-2.6-.4-9.6 1.4-13.6.1-.2.1-.2.3-.3h0c.6-.3 2.4-.9 6.3-.9h1.1c-.1.1-4 1.9-4.2 2h0c1.8-.4 3.7-.6 5.6-.7 1.8 0 3.7.3 5.5.8 0 0-.1 0-.1-.1-1.4-.6-2.7-1.2-3.9-2h1.3c1.5 0 4.4.1 5.9.9h0c.1 0 .1.1.1.2v.1c.6 1.5 1 3 1.1 4.6a33.21 33.21 0 0 1 .3 8.9v.1c0 .1 0 .3-.2.4-2.2 1.6-4.7 2.6-7.4 2.9h0c-.1 0-.3-.1-.3-.2s-1-2.9-1.1-3.1v-.3c0-.1.1-.1.2-.1 1.9-.2 3.7-1 5.1-2.3-2.2.8-4.4 1.2-6.7 1.1-2.9 0-5.4-.4-6.5-1.1 0 .1 1.6 1.8 5.1 2.3.1 0 .1 0 .2.1v.2c0 .2-1.2 3-1.3 3.2 0 .1 0 .1-.2.1.1.1 0 .1 0 0h0zm4.6-10.3c0 1.4 1.1 2.5 2.4 2.5 1.4 0 2.5-1.1 2.5-2.4s-1.1-2.5-2.4-2.5h0c-1.4-.1-2.5 1-2.5 2.4h0zm-8.6 0c0 1.4 1.1 2.5 2.4 2.5 1.4 0 2.5-1.1 2.5-2.4 0-1.4-1.1-2.5-2.4-2.5h0c-1.4-.1-2.5 1-2.5 2.4h0z"/></svg>