<svg viewBox="0 0 20 20" 
  xmlns="http://www.w3.org/2000/svg" fill="currentColor" fill-rule="evenodd">
  <path d="M16.875 17.5a.625.625 0 0 1-.442-.183L2.683 3.567a.628.628 0 0 1 .884-.884l13.75 13.75a.625.625 0 0 1-.442 1.067zM9.987 15c-1.621 0-3.184-.48-4.646-1.426-1.33-.859-2.528-2.09-3.464-3.554v-.004c.778-1.116 1.632-2.059 2.548-2.82a.078.078 0 0 0 .005-.115l-.778-.777a.078.078 0 0 0-.106-.005C2.573 7.12 1.67 8.126.848 9.304a1.25 1.25 0 0 0-.025 1.388c1.032 1.615 2.359 2.974 3.839 3.932 1.666 1.079 3.459 1.626 5.325 1.626a9.347 9.347 0 0 0 2.961-.491.08.08 0 0 0 .053-.074.083.083 0 0 0-.023-.056l-.843-.843a.16.16 0 0 0-.15-.039A8.017 8.017 0 0 1 9.987 15zM19.173 9.32c-1.033-1.598-2.374-2.956-3.877-3.927-1.663-1.075-3.499-1.643-5.309-1.643a8.886 8.886 0 0 0-2.926.501.079.079 0 0 0-.052.074c0 .021.008.041.023.055l.842.842c.04.039.098.054.151.039A7.515 7.515 0 0 1 9.987 5c1.589 0 3.147.486 4.631 1.445 1.355.875 2.568 2.105 3.506 3.555a.006.006 0 0 1 0 .006 12.126 12.126 0 0 1-2.505 2.841.078.078 0 0 0-.028.061c0 .02.008.04.022.055l.778.776a.078.078 0 0 0 .105.006 13.412 13.412 0 0 0 2.681-3.066 1.259 1.259 0 0 0-.004-1.359z" fill-rule="nonzero"/>
  <path d="M10 6.25c-.281 0-.561.031-.835.094a.077.077 0 0 0-.062.076c0 .021.008.041.023.056l4.398 4.397a.083.083 0 0 0 .056.023.077.077 0 0 0 .076-.062c.063-.274.094-.554.094-.834A3.768 3.768 0 0 0 10 6.25zM6.476 9.127a.083.083 0 0 0-.056-.023.077.077 0 0 0-.076.062 3.75 3.75 0 0 0-.095.837 3.768 3.768 0 0 0 3.75 3.75c.282 0 .562-.032.837-.094a.08.08 0 0 0 .062-.077.075.075 0 0 0-.023-.055l-4.399-4.4z" fill-rule="nonzero"/>
</svg>