<svg viewBox="0 0 20 20" 
  xmlns="http://www.w3.org/2000/svg" fill="currentColor" fill-rule="evenodd">
  <path d="M9.987 3.75c-3.218 0-6.54 1.829-9.139 5.554a1.253 1.253 0 0 0-.023 1.391c1.999 3.129 5.278 5.555 9.162 5.555 3.841 0 7.186-2.433 9.19-5.572a1.256 1.256 0 0 0-.001-1.357C17.167 6.218 13.797 3.75 9.987 3.75zm-8.112 6.266l.002.003C3.654 12.801 6.538 15 9.987 15c3.412 0 6.356-2.206 8.138-4.996l.001-.005C16.34 7.242 13.374 5 9.987 5c-2.871 0-5.795 1.696-8.112 5.016z"/>
  <path d="M10 6.25c-2.07 0-3.75 1.68-3.75 3.75 0 2.07 1.68 3.75 3.75 3.75 2.07 0 3.75-1.68 3.75-3.75 0-2.07-1.68-3.75-3.75-3.75zm0 1.25a2.5 2.5 0 0 1 0 5 2.5 2.5 0 0 1 0-5z"/>
</svg>