<svg xmlns="http://www.w3.org/2000/svg" viewBox="0 0 19 14" xmlns:v="https://vecta.io/nano"><path fill-rule="evenodd" d="M18.75.543C18.5.197 18.1 0 17.704 0a1.27 1.27 0 0 0-.316.041L.98 4.28c-.508.13-.89.562-.965 1.094S.18 6.433.63 6.7L4.1 8.847v4.69c0 .177.1.34.254.416a.44.44 0 0 0 .477-.05l3.254-2.6 2.673 1.646a1.28 1.28 0 0 0 .666.189c.435 0 .86-.224 1.104-.634l6.28-10.478a1.36 1.36 0 0 0-.058-1.483zm-7.404 10.934L7.277 8.97l4.127-3.65c.058-.05.07-.138.032-.205s-.12-.096-.19-.068L4.96 7.544 1.906 5.66 17.2 1.7l-5.854 9.767z"/></svg>
