<svg xmlns="http://www.w3.org/2000/svg" viewBox="0 0 21.2 21"><path d="M7.4 19.8l-.6-1.9-1.6.5-.3.1h-.1c-.2.1-.4.1-.5.1a1.97 1.97 0 0 1-1.9-1.9c0-.8.5-1.5 1.2-1.7l1.9-.6-1.3-3.9-1.8.6h-.2c0-.1-.2 0-.3 0C.8 11 0 10.2 0 9.1c0-.8.5-1.5 1.2-1.7l1.9-.6-.5-1.9c-.3-1 .2-2 1.1-2.4s2 .2 2.4 1.1v.1l.6 1.9 3.9-1.3-.6-1.9c-.3-1 .2-2 1.2-2.4s2 .2 2.4 1.2v.1l.6 1.9 1.9-.6c1-.3 2 .2 2.4 1.2s-.2 2-1.2 2.4h-.1l-1.9.6.7 2 .6 1.9 1.9-.6c1-.3 2 .2 2.4 1.2.3 1-.2 2-1.2 2.4h-.1l-1.9.6.6 1.9v.1c.1.5.1 1-.1 1.4-.2.5-.7.8-1.2.9-.9.3-1.9-.2-2.3-1.2l-.6-1.9-3.9 1.3.5 1.4.1.2.1.3c.1.5.1 1-.1 1.4-.2.5-.7.8-1.2.9-.9.2-1.9-.3-2.2-1.2h0zm3.4-11.5l-.3.1-2.6.8c.2.5.3 1 .5 1.5l.8 2.5 3.9-1.3L11.8 8l-1 .3z"/></svg>