<?xml version="1.0" encoding="UTF-8" standalone="no"?><!DOCTYPE svg PUBLIC "-//W3C//DTD SVG 1.1//EN" "http://www.w3.org/Graphics/SVG/1.1/DTD/svg11.dtd"><svg width="100%" height="100%" viewBox="0 0 320 352" version="1.1" xmlns="http://www.w3.org/2000/svg" xmlns:xlink="http://www.w3.org/1999/xlink" xml:space="preserve" xmlns:serif="http://www.serif.com/" style="fill-rule:evenodd;clip-rule:evenodd;stroke-linecap:round;stroke-linejoin:round;"><g id="Canvas"><path id="Bubbles" d="M19.3,329c-0.9,-10.5 6.9,-19.6 17.4,-20.5c10.5,-0.9 19.6,6.9 20.5,17.4c0.9,10.5 -6.9,19.6 -17.4,20.5c-0.5,0 -1.1,0.1 -1.6,0.1c-9.9,-0.1 -18.1,-7.6 -18.9,-17.5Zm218.5,-40.7c-0.3,-3 2,-5.7 5,-5.9c3,-0.3 5.7,2 5.9,5c0.3,3 -2,5.7 -5,5.9c-0.2,0 -0.3,0 -0.5,0c-2.8,0.1 -5.2,-2.1 -5.4,-5Zm-209.9,-229.3c-0.7,-8 5.3,-15 13.2,-15.7c7.9,-0.7 15,5.3 15.7,13.2c0.7,8 -5.3,15 -13.2,15.7c-0.4,0 -0.8,0.1 -1.2,0.1c-7.6,0 -13.8,-5.8 -14.5,-13.3Zm273.8,-51c-0.3,-3 2,-5.7 5,-5.9c3,-0.3 5.7,2 5.9,5c0.3,3 -2,5.7 -5,5.9c-0.2,0 -0.3,0 -0.5,0c-2.8,0.1 -5.2,-2.1 -5.4,-5Z" style="fill:#606b78;fill-rule:nonzero;"/><circle id="A-Circle" serif:id="A Circle" cx="207" cy="63" r="35" style="fill:#3e4049;"/><path id="A" d="M217.6,72.9l-6.9,-17.9l-4.8,0l-6.9,17.9l4.3,0l1.1,-3l7.7,0l1.1,3l4.4,0Zm-6.5,-6.4l-5.6,0l2.8,-7.7l2.8,7.7Z" style="fill:#727485;fill-rule:nonzero;"/><path id="Background" d="M154.6,259c-11.4,0 -22.6,-2.9 -32.6,-8.5c-10.2,-5.7 -18.8,-14.1 -24.7,-24.3l-5.3,-9.1c6.4,-4.9 11.6,-11.1 15.2,-18.3c13.2,-26.1 2.7,-58.1 -23.4,-71.3c-2.7,-1.4 -5.5,-2.5 -8.3,-3.4c2.8,-5 6.3,-9.6 10.4,-13.7c12.4,-12.5 29.4,-19.6 47.1,-19.6c11.4,0 22.6,2.9 32.6,8.5c10.2,5.7 18.8,14.1 24.7,24.3l21.5,37c2.5,4.2 4.4,8.7 5.9,13.4c1.4,4.5 2.3,9.2 2.7,13.9c-16,7.5 -22.8,26.6 -15.3,42.6c0.5,1 1,2.1 1.6,3c-5.2,6.7 -11.7,12.3 -19.1,16.5c-10.1,6 -21.4,9 -33,9Z" style="fill:#3e4049;fill-rule:nonzero;"/><path id="Shirt-background" serif:id="Shirt background" d="M155.6,259c-8.9,0.1 -17.8,-1.6 -26.2,-4.8c-6.9,-2.7 -13.2,-6.6 -18.7,-11.5c-8,-7 -14.4,-15.7 -18.7,-25.5c6.1,-4.7 11.2,-10.6 14.8,-17.4c3.7,-7 5.8,-14.8 6.1,-22.8c11.4,-9.9 26,-15.4 41.2,-15.2c6.5,0 13,0.9 19.3,2.6c5.7,1.6 11.1,3.9 16.1,7c9.1,5.6 16.8,13.3 22.3,22.5c-11.1,10.5 -13.1,27.4 -4.9,40.3c-5.4,7 -12.2,12.8 -19.9,17.1c-9.5,5.2 -20.4,7.8 -31.4,7.7Z" style="fill:#585a67;fill-rule:nonzero;"/><path id="Shirt-shadow" serif:id="Shirt shadow" d="M195.5,245.7l0,-14.7l9.8,0c0.5,1.1 1.1,2.1 1.7,3.1c-4.3,6.1 -11.5,11.6 -11.5,11.6Zm-81.1,0c-0.1,-0.1 -2.1,-1.6 -4.9,-4.1c-3.4,-3.1 -6.5,-6.5 -9.2,-10.2c1.4,0 13.8,-0.4 13.9,-0.4l0.2,14.7Z" style="fill:#3e4049;fill-rule:nonzero;"/><path id="Shirt-inner" serif:id="Shirt inner" d="M145.3,256.1l0,-54.5c-0.5,-2.1 -1.4,-4.1 -2.8,-5.8c-10.5,-5.5 -15.8,-17.6 -12.5,-29c0.1,-0.2 0.2,-0.6 0.2,-0.6c7.7,-2.8 15.8,-4.2 24,-4.4c8.1,0.1 16.1,1.4 23.7,3.9c0,0 0.4,0.9 0.5,1.1c2.7,9.8 -0.7,20.2 -8.7,26.5c0.1,0.1 -0.1,0.4 -0.7,0.9c-3,2.3 -4.4,7.4 -4.4,7.4l0,54.5c0,2.8 -0.3,2.9 -8.9,2.9c-9.9,0 -10.4,-0.1 -10.4,-2.9Z" style="fill:#3e4049;fill-rule:nonzero;"/><path id="Shirt-shadow1" serif:id="Shirt shadow" d="M155.6,225.1c-13.8,0 -25.1,-3.4 -33.5,-10.3c-3.3,-2.7 -6.2,-6 -8.5,-9.7c-1.9,-3.1 -3.5,-6.4 -4.6,-9.9c2.4,-5.8 3.8,-12 4,-18.3c11.4,-9.9 26,-15.4 41.2,-15.2c9.5,-0.1 18.9,1.8 27.7,5.6c7.7,3.3 14.6,8.1 20.5,14.1c0.2,0.2 0.7,0.7 0.7,0.7c0,3.5 -0.5,7 -1.3,10.4c-0.8,3.4 -2,6.7 -3.5,9.8c-1.8,3.7 -4.2,7.1 -7.1,10.1c-8.4,8.5 -20.4,12.7 -35.6,12.7Z" style="fill-opacity:0.15;fill-rule:nonzero;"/><path id="Neck" d="M154.9,145.6c9.4,0 17,7.6 17,16.9l0,11.8c0,9.4 -7.6,17 -17,17c-9.4,0 -17,-7.6 -17,-17l0,-11.8c0,-9.4 7.6,-16.9 17,-16.9Z" style="fill:#727485;fill-rule:nonzero;"/><path id="Neck-shadow" serif:id="Neck shadow" d="M151.1,148.5l7.4,0c7.3,0 13.3,5.9 13.3,13.3c0,7.3 -5.9,13.3 -13.3,13.3l-7.4,0c-7.3,0 -13.3,-5.9 -13.3,-13.3c0.1,-7.3 6,-13.3 13.3,-13.3Z" style="fill-opacity:0.2;fill-rule:nonzero;"/><path id="Head-shadow" serif:id="Head shadow" d="M155.6,39.5c28.5,0 51.7,23.1 51.7,51.6l-3,25c0,28.5 -20.2,32.4 -48.7,32.4c-28.5,0 -48.7,-3.9 -48.7,-32.4l-3,-25c0.1,-28.5 23.2,-51.6 51.7,-51.6Z" style="fill:#585a67;fill-rule:nonzero;"/><path id="Head" d="M155.5,50c24.5,-0.1 44.4,19.7 44.5,44.3l0,29.5c0,24.6 -19.9,44.5 -44.5,44.5c-24.6,0 -44.5,-19.9 -44.5,-44.5l0,-29.5c0.1,-24.6 20,-44.4 44.5,-44.3l0,0Z" style="fill:#727485;fill-rule:nonzero;"/><path id="Cheeks" d="M181.6,143.5c-3.6,-1.7 -4.9,-6.8 -3,-11.4c1.9,-4.6 6.4,-6.9 10.1,-5.2c3.6,1.7 4.9,6.8 3,11.4c-1.5,3.5 -4.6,5.7 -7.5,5.7c-1,0.1 -1.8,-0.1 -2.6,-0.5Zm-62,-5.1c-1.9,-4.6 -0.6,-9.7 3,-11.4c3.6,-1.7 8.1,0.6 10,5.2c1.9,4.6 0.6,9.7 -3,11.4c-0.8,0.4 -1.6,0.6 -2.5,0.6c-3,-0.1 -6,-2.3 -7.5,-5.8Z" style="fill:#797c8e;fill-rule:nonzero;"/><path id="Ears" d="M199.6,126.4l0,-31c8.1,0 14.7,6.6 14.7,14.7l0,1.6c0.1,8.1 -6.5,14.7 -14.7,14.7Zm-88.4,0c-8.1,0 -14.7,-6.6 -14.7,-14.7l0,-1.6c0,-8.1 6.6,-14.7 14.7,-14.7l0,31Z" style="fill:#676979;fill-rule:nonzero;"/><path id="Eyes" d="M170.4,117.6c0,-2.4 2,-4.4 4.4,-4.4c2.4,0 4.4,2 4.4,4.4c0,2.4 -2,4.4 -4.4,4.4c-2.4,0 -4.4,-2 -4.4,-4.4Zm-39.9,0c0,-2.4 2,-4.4 4.4,-4.4c2.4,0 4.4,2 4.4,4.4c0,2.4 -2,4.4 -4.4,4.4c-2.4,0 -4.4,-2 -4.4,-4.4Zm35.5,-14.7c0,-1.6 1.4,-2.9 3,-2.9l11.9,0c1.6,0 2.9,1.3 3,2.9c0,1.6 -1.4,2.9 -3,2.9l-11.9,0c-1.6,0 -3,-1.3 -3,-2.9l0,0Zm-25.3,2.9l-11.9,0c-1.6,0 -3,-1.3 -3,-2.9c0,-1.6 1.3,-2.9 2.9,-2.9l11.9,0c1.6,0 3,1.3 3,2.9c0.1,1.6 -1.2,2.9 -2.9,2.9c0.1,0 0.1,0 0,0Z" style="fill:#585a67;fill-rule:nonzero;"/><path id="Mouth" d="M147,140c2.8,1.4 5.9,2.1 9,2c5.6,0 8,-2 8,-2" style="fill:none;stroke:#585a67;stroke-width:5px;"/><path id="Hair" d="M103.8,97.1c0.4,1.5 7,-6.4 7.4,8.9c0.8,2.3 3.5,-12.8 2.4,-17.9c-1.1,-5.1 8.3,-23.5 12.5,-23.5c4.2,0 15.7,7.2 30.7,7.2c15,0 24,-8.2 27.1,-7.6c3.1,0.6 13.8,10.7 13.6,22.3c-0.2,11.6 2.2,21.1 2.2,19.3c0,-7.9 6.1,-6.3 9,-7.4c0,-40.2 -27.2,-58.9 -53,-58.9c-25.8,0 -53.8,19.4 -51.9,57.6Z" style="fill:#585a67;fill-rule:nonzero;"/><circle id="R-Circle" serif:id="R Circle" cx="58.5" cy="175.5" r="40.5" style="fill:#f8e0e6;"/><path id="R" d="M68.2,187l-4.7,-7.9c2.8,-0.7 4.7,-3.3 4.5,-6.1c0,-3.8 -2.6,-6.7 -6.9,-6.7l-9.7,0l0,20.7l4.4,0l0,-7.4l3.2,0l4.1,7.4l5.1,0Zm-7.7,-11.3l-4.6,0l0,-5.6l4.6,0c1.5,-0.2 2.9,1 3.1,2.5c0.2,1.5 -1,2.9 -2.5,3.1c-0.2,0.1 -0.4,0.1 -0.6,0Z" style="fill:#f03643;fill-rule:nonzero;"/><circle id="K-Circle" serif:id="K Circle" cx="233.5" cy="216.5" r="26.5" style="fill:#3e4049;"/><path id="K" d="M240.3,224.1l-6,-7.2l5.6,-6.4l-3.7,0l-5,6.1l0,-6.1l-3,0l0,13.6l3,0l0,-4.2l1.1,-1.3l4.3,5.5l3.7,0Z" style="fill:#727485;fill-rule:nonzero;"/></g></svg>