<?xml version="1.0" encoding="UTF-8" standalone="no"?><!DOCTYPE svg PUBLIC "-//W3C//DTD SVG 1.1//EN" "http://www.w3.org/Graphics/SVG/1.1/DTD/svg11.dtd"><svg width="100%" height="100%" viewBox="0 0 276 286" version="1.1" xmlns="http://www.w3.org/2000/svg" xmlns:xlink="http://www.w3.org/1999/xlink" xml:space="preserve" xmlns:serif="http://www.serif.com/" style="fill-rule:evenodd;clip-rule:evenodd;stroke-linejoin:round;stroke-miterlimit:1.41421;"><path id="Bubbles" d="M221,10.5c0,-4.1 -3.4,-7.5 -7.5,-7.5c-4.1,0 -7.5,3.4 -7.5,7.5c0,4.1 3.4,7.5 7.5,7.5c4.1,0 7.5,-3.4 7.5,-7.5Zm-190.5,36.5c-7.5,0 -13.5,6 -13.5,13.5c0,7.5 6,13.5 13.5,13.5c7.5,0 13.5,-6 13.5,-13.5c0,-7.5 -6,-13.5 -13.5,-13.5Zm-17.5,214c-5,0 -9,4 -9,9c0,5 4,9 9,9c5,0 9,-4 9,-9c0,-5 -4,-9 -9,-9Zm205,-49c-1.1,0 -2,0.9 -2,2c0,1.1 0.9,2 2,2c1.1,0 2,-0.9 2,-2c0,-1.1 -0.9,-2 -2,-2Z" style="fill:#404853;fill-rule:nonzero;"/><path id="Globe" d="M123.5,16c-61.7,0 -111.5,49.8 -111.5,111.5c0,61.7 49.8,111.5 111.5,111.5c61.7,0 111.5,-49.8 111.5,-111.5c0,-61.7 -49.8,-111.5 -111.5,-111.5Zm82,50.8c11.7,15.8 18.9,35 19.8,56l-34.6,0c-0.5,-7.9 -2.5,-15.4 -5.5,-22.4c-1.9,-11.5 -5,-22.8 -9.2,-33.6l29.5,0Zm-7.9,-9.5l-25.6,0c-4.2,-9.1 -9.3,-17.9 -15.1,-26.2c15.7,5.4 29.6,14.5 40.7,26.2Zm-27.2,21.6c-5.1,-4.9 -11,-9 -17.4,-12.2l12.9,0c1.6,4.1 3.1,8.1 4.5,12.2Zm-42.2,-53.3c4.7,0.2 9.4,0.8 14,1.6c7.6,9.3 14,19.4 19.3,30.1l-33.3,0l0,-31.7Zm-9.4,0l0,31.6l-33.4,0c5.3,-10.7 11.8,-20.8 19.4,-30.1c4.5,-0.7 9.2,-1.2 14,-1.5Zm-24.8,41.2c-6.5,3.1 -12.4,7.3 -17.5,12.3c1.3,-4.1 2.8,-8.2 4.5,-12.3l13,0Zm-4.2,-35.6c-5.9,8.3 -10.9,17 -15.1,26.1l-25.3,0c11.1,-11.7 24.9,-20.7 40.4,-26.1Zm-48.3,35.6l29.3,0c-4.2,10.9 -7.3,22.2 -9.1,33.8c-3,6.9 -4.9,14.3 -5.4,22.2l-34.7,0c1,-21 8.2,-40.3 19.9,-56Zm0,121.4c-11.7,-15.8 -18.9,-35.1 -19.8,-56l34.6,0c0.5,7.9 2.5,15.4 5.5,22.4c1.9,11.5 5,22.8 9.2,33.6l-29.5,0Zm7.9,9.5l25.6,0c4.2,9.1 9.3,17.9 15,26.2c-15.6,-5.4 -29.5,-14.5 -40.6,-26.2Zm27.3,-21.6c5.1,4.9 10.9,9 17.4,12.2l-13,0c-1.6,-4.1 -3.1,-8.1 -4.4,-12.2Zm42.1,53.3c-4.7,-0.2 -9.4,-0.8 -14,-1.6c-7.6,-9.3 -14,-19.4 -19.3,-30.1l33.3,0l0,31.7Zm-55.8,-101.9c0,-33.4 27.1,-60.5 60.5,-60.5c33.4,0 60.5,27.1 60.5,60.5c0,33.4 -27.1,60.5 -60.5,60.5c-33.4,0 -60.5,-27.1 -60.5,-60.5Zm107.4,48.5c-1.3,4.1 -2.8,8.2 -4.5,12.3l-13,0c6.5,-3.2 12.4,-7.4 17.5,-12.3Zm-42.2,53.4l0,-31.6l33.4,0c-5.3,10.7 -11.8,20.8 -19.4,30.1c-4.5,0.7 -9.2,1.2 -14,1.5Zm28.7,-5.5c5.8,-8.3 10.8,-17.1 15,-26.2l25.7,0c-11.1,11.7 -25,20.8 -40.7,26.2Zm19,-35.7c4.1,-10.6 7.1,-21.6 9.1,-32.9c3.2,-7.1 5.3,-14.9 5.8,-23.1l34.6,0c-1,20.9 -8.2,40.2 -19.8,56l-29.7,0Z" style="fill:#555f6a;fill-rule:nonzero;"/><path id="Grey-circle-inverted" serif:id="Grey circle inverted" d="M33.8,214.3c0,-0.1 -0.1,-0.2 -0.1,-0.2c0,0 2.1,-6.5 1.7,-6.9c-0.4,-0.4 -6.5,1.7 -6.5,1.7l-0.1,-0.1c-2.6,-1.8 -5.8,-2.8 -9.3,-2.8c-9.1,0 -16.5,7.4 -16.5,16.5c0,9.1 7.4,16.5 16.5,16.5c9.1,0 16.5,-7.4 16.5,-16.5c0,-3 -0.8,-5.8 -2.2,-8.2Zm-7.5,9.9l-5.1,5.1c-0.9,0.9 -2.5,0.9 -3.4,0l-5.1,-5.1c-0.9,-0.9 -0.9,-2.5 0,-3.4l5.1,-5.1c0.9,-0.9 2.5,-0.9 3.4,0l5.1,5.1c0.9,0.9 0.9,2.5 0,3.4Zm-5.8,-5.8c-0.6,-0.6 -1.5,-0.6 -2,0l-3.1,3.1c-0.6,0.6 -0.6,1.5 0,2l3.1,3.1c0.6,0.6 1.5,0.6 2,0l3.1,-3.1c0.6,-0.6 0.6,-1.5 0,-2l-3.1,-3.1Z" style="fill:#606b78;fill-rule:nonzero;"/><path id="Grey-circle" serif:id="Grey circle" d="M237,26c-18.8,0 -34,15.2 -34,34c0,7.1 2.2,13.6 5.9,19.1c0.1,0.1 0.2,0.3 0.2,0.3c0,0 -4.3,12.6 -3.5,13.4c0.8,0.8 14.2,-3.5 14.2,-3.5c0,0 0.3,0.2 0.4,0.2c5,2.9 10.8,4.5 16.9,4.5c18.8,0 34,-15.2 34,-34c0,-18.8 -15.3,-34 -34.1,-34Z" style="fill:#606b78;fill-rule:nonzero;"/><path id="Black-circle" serif:id="Black circle" d="M237,33c-14.9,0 -27,12.1 -27,27c0,5.6 1.7,10.8 4.6,15.1c0.1,0.1 0.2,0.2 0.2,0.2c0,0 -3.4,10 -2.8,10.6c0.6,0.6 11.2,-2.8 11.2,-2.8c0,0 0.2,0.1 0.3,0.2c4,2.3 8.5,3.6 13.4,3.6c14.9,0 27,-12.1 27,-27c0,-14.9 -12,-26.9 -26.9,-26.9Z" style="fill:#2d2f38;fill-rule:nonzero;"/><circle id="Red-circle" serif:id="Red circle" cx="123.5" cy="127.5" r="39.5" style="fill:#c9292c;"/><path id="Repeat" d="M115.1,132.8c-1.9,-1.9 -2.8,-4.3 -2.8,-6.7l6.8,0.1l-8.1,-8.2l-8,8l5.5,0c0,3.4 1.4,6.8 4,9.4c4.8,4.8 12.2,5.2 17.4,1.4l-2.7,-2.7c-3.8,2.4 -8.8,2 -12.1,-1.3Zm25.4,-0.8c0,-3.4 -1.4,-6.8 -4,-9.4c-4.8,-4.8 -12.2,-5.2 -17.4,-1.4l2.7,2.7c3.7,-2.4 8.7,-2 12,1.3c1.9,1.9 2.8,4.3 2.8,6.7l-6.8,-0.1l8.1,8.1l8,-8l-5.4,0.1Z" style="fill:#fff;fill-rule:nonzero;"/><path id="Square-1" serif:id="Square 1" d="M248.8,57.7l-8.5,-8.5c-1.6,-1.6 -4.1,-1.6 -5.7,0l-8.5,8.5c-1.6,1.6 -1.6,4.1 0,5.7l8.5,8.5c1.6,1.6 4.1,1.6 5.7,0l8.5,-8.5c1.6,-1.6 1.6,-4.2 0,-5.7Zm-4.5,4.5l-5.1,5.1c-0.9,0.9 -2.5,0.9 -3.4,0l-5.1,-5.1c-0.9,-0.9 -0.9,-2.5 0,-3.4l5.1,-5.1c0.9,-0.9 2.5,-0.9 3.4,0l5.1,5.1c0.9,0.9 0.9,2.5 0,3.4Z" style="fill:#cc3839;fill-rule:nonzero;"/></svg>