<?xml version="1.0" encoding="utf-8"?>
<!-- Generator: Adobe Illustrator 24.2.0, SVG Export Plug-In . SVG Version: 6.00 Build 0)  -->
<svg version="1.1" id="Слой_1" xmlns="http://www.w3.org/2000/svg" xmlns:xlink="http://www.w3.org/1999/xlink" x="0px" y="0px"
	 viewBox="0 0 1200 45" style="enable-background:new 0 0 1200 45;" xml:space="preserve">
<style type="text/css">
	.st0{clip-path:url(#SVGID_2_);}
	.st1{fill:#DBDEE5;}
</style>
<g>
	<defs>
		<rect id="SVGID_1_" width="1200" height="45"/>
	</defs>
	<clipPath id="SVGID_2_">
		<use xlink:href="#SVGID_1_"  style="overflow:visible;"/>
	</clipPath>
	<g id="Repeat_Grid_2" class="st0">
		<g transform="translate(-80 -735)">
			<circle id="Ellipse_1" class="st1" cx="102.4" cy="757.4" r="21.9"/>
			<path id="Rectangle_13" class="st1" d="M144,756h92c1.1,0,2,0.9,2,2l0,0c0,1.1-0.9,2-2,2h-92c-1.1,0-2-0.9-2-2l0,0
				C142,756.9,142.9,756,144,756z"/>
			<path id="Rectangle_14" class="st1" d="M315,756h28c1.1,0,2,0.9,2,2l0,0c0,1.1-0.9,2-2,2h-28c-1.1,0-2-0.9-2-2l0,0
				C313,756.9,313.9,756,315,756z"/>
			<path id="Rectangle_15" class="st1" d="M422,756h42c1.1,0,2,0.9,2,2l0,0c0,1.1-0.9,2-2,2h-42c-1.1,0-2-0.9-2-2l0,0
				C420,756.9,420.9,756,422,756z"/>
			<path id="Rectangle_16" class="st1" d="M537,756h28c1.1,0,2,0.9,2,2l0,0c0,1.1-0.9,2-2,2h-28c-1.1,0-2-0.9-2-2l0,0
				C535,756.9,535.9,756,537,756z"/>
			<path id="Rectangle_17" class="st1" d="M633,756h28c1.1,0,2,0.9,2,2l0,0c0,1.1-0.9,2-2,2h-28c-1.1,0-2-0.9-2-2l0,0
				C631,756.9,631.9,756,633,756z"/>
			<path id="Rectangle_18" class="st1" d="M751,756h28c1.1,0,2,0.9,2,2l0,0c0,1.1-0.9,2-2,2h-28c-1.1,0-2-0.9-2-2l0,0
				C749,756.9,749.9,756,751,756z"/>
			<path id="Rectangle_19" class="st1" d="M861,756h28c1.1,0,2,0.9,2,2l0,0c0,1.1-0.9,2-2,2h-28c-1.1,0-2-0.9-2-2l0,0
				C859,756.9,859.9,756,861,756z"/>
			<path id="Rectangle_20" class="st1" d="M1001,756h110c1.1,0,2,0.9,2,2l0,0c0,1.1-0.9,2-2,2h-110c-1.1,0-2-0.9-2-2l0,0
				C999,756.9,999.9,756,1001,756z"/>
			<path id="Rectangle_21" class="st1" d="M1197,735h79c2.2,0,4,1.8,4,4v37c0,2.2-1.8,4-4,4h-79c-2.2,0-4-1.8-4-4v-37
				C1193,736.8,1194.8,735,1197,735z"/>
		</g>
	</g>
</g>
</svg>
