<svg xmlns="http://www.w3.org/2000/svg" viewBox="0 0 1200 45"><g transform="translate(-80 -735)" fill="#dbdee5"><circle cx="102.4" cy="757.4" r="21.9"/><path d="M144 756h92c1.1 0 2 .9 2 2s-.9 2-2 2h-92c-1.1 0-2-.9-2-2s.9-2 2-2zm171 0h28c1.1 0 2 .9 2 2s-.9 2-2 2h-28c-1.1 0-2-.9-2-2s.9-2 2-2zm107 0h42c1.1 0 2 .9 2 2s-.9 2-2 2h-42c-1.1 0-2-.9-2-2s.9-2 2-2zm115 0h28c1.1 0 2 .9 2 2s-.9 2-2 2h-28c-1.1 0-2-.9-2-2s.9-2 2-2zm96 0h28c1.1 0 2 .9 2 2s-.9 2-2 2h-28c-1.1 0-2-.9-2-2s.9-2 2-2zm118 0h28c1.1 0 2 .9 2 2s-.9 2-2 2h-28c-1.1 0-2-.9-2-2s.9-2 2-2zm110 0h28c1.1 0 2 .9 2 2s-.9 2-2 2h-28c-1.1 0-2-.9-2-2s.9-2 2-2zm140 0h110c1.1 0 2 .9 2 2s-.9 2-2 2h-110c-1.1 0-2-.9-2-2s.9-2 2-2zm196-21h79c2.2 0 4 1.8 4 4v37c0 2.2-1.8 4-4 4h-79c-2.2 0-4-1.8-4-4v-37c0-2.2 1.8-4 4-4z"/></g></svg>