<svg version="1.1" id="Слой_1" xmlns="http://www.w3.org/2000/svg" xmlns:xlink="http://www.w3.org/1999/xlink" x="0" y="0" viewBox="0 0 1200 45" xml:space="preserve"><style>.st1{fill:#dbdee5}</style><defs><path id="SVGID_1_" d="M0 0h1200v45H0z"/></defs><clipPath id="SVGID_2_"><use xlink:href="#SVGID_1_" overflow="visible"/></clipPath><g transform="translate(-80 -735)" id="Repeat_Grid_2"><circle id="Ellipse_1" class="st1" cx="102.4" cy="757.4" r="21.9"/><path id="Rectangle_13" class="st1" d="M144 756h92c1.1 0 2 .9 2 2s-.9 2-2 2h-92c-1.1 0-2-.9-2-2s.9-2 2-2z"/><path id="Rectangle_14" class="st1" d="M315 756h28c1.1 0 2 .9 2 2s-.9 2-2 2h-28c-1.1 0-2-.9-2-2s.9-2 2-2z"/><path id="Rectangle_15" class="st1" d="M422 756h42c1.1 0 2 .9 2 2s-.9 2-2 2h-42c-1.1 0-2-.9-2-2s.9-2 2-2z"/><path id="Rectangle_16" class="st1" d="M537 756h28c1.1 0 2 .9 2 2s-.9 2-2 2h-28c-1.1 0-2-.9-2-2s.9-2 2-2z"/><path id="Rectangle_17" class="st1" d="M633 756h28c1.1 0 2 .9 2 2s-.9 2-2 2h-28c-1.1 0-2-.9-2-2s.9-2 2-2z"/><path id="Rectangle_18" class="st1" d="M751 756h28c1.1 0 2 .9 2 2s-.9 2-2 2h-28c-1.1 0-2-.9-2-2s.9-2 2-2z"/><path id="Rectangle_19" class="st1" d="M861 756h28c1.1 0 2 .9 2 2s-.9 2-2 2h-28c-1.1 0-2-.9-2-2s.9-2 2-2z"/><path id="Rectangle_20" class="st1" d="M1001 756h110c1.1 0 2 .9 2 2s-.9 2-2 2h-110c-1.1 0-2-.9-2-2s.9-2 2-2z"/><path id="Rectangle_21" class="st1" d="M1197 735h79c2.2 0 4 1.8 4 4v37c0 2.2-1.8 4-4 4h-79c-2.2 0-4-1.8-4-4v-37c0-2.2 1.8-4 4-4z"/></g></svg>