<?xml version="1.0" encoding="UTF-8" standalone="no"?>
<svg
   xmlns:dc="http://purl.org/dc/elements/1.1/"
   xmlns:cc="http://creativecommons.org/ns#"
   xmlns:rdf="http://www.w3.org/1999/02/22-rdf-syntax-ns#"
   xmlns:svg="http://www.w3.org/2000/svg"
   xmlns="http://www.w3.org/2000/svg"
   id="svg8"
   version="1.1"
   viewBox="0 0 156.4422 160.57977"
   height="160.57977mm"
   width="156.4422mm">
  <defs
     id="defs2" />
  <metadata
     id="metadata5">
    <rdf:RDF>
      <cc:Work
         rdf:about="">
        <dc:format>image/svg+xml</dc:format>
        <dc:type
           rdf:resource="http://purl.org/dc/dcmitype/StillImage" />
        <dc:title></dc:title>
      </cc:Work>
    </rdf:RDF>
  </metadata>
  <g
     transform="translate(-21.489322,-15.487322)"
     id="layer1">
    <path
       id="path131"
       d="m 55.597153,175.96264 c -2.038192,-0.22393 -4.761002,-0.75923 -6.722418,-1.32159 -3.35635,-0.96233 -7.032025,-2.59651 -9.812851,-4.36273 -3.02943,-1.92411 -6.402099,-4.90228 -8.812314,-7.78154 -2.443427,-2.91894 -4.727363,-6.7829 -6.130409,-10.37143 -3.390915,-8.67286 -3.503496,-17.72668 -0.332805,-26.76622 0.670532,-1.91167 2.349017,-5.36018 3.479745,-7.14927 2.877095,-4.55227 6.578469,-8.35724 11.019564,-11.32799 2.415913,-1.61606 6.246298,-3.50372 8.86419,-4.36838 2.172611,-0.7176 4.952017,-1.37103 7.217104,-1.69673 0.852376,-0.12256 2.96656,-0.21075 5.002773,-0.20869 2.593821,0.003 4.003752,0.0813 5.330821,0.29734 4.173348,0.67947 7.755297,1.80276 11.317743,3.54922 1.262995,0.61918 2.99756,1.58241 3.854595,2.14053 3.588841,2.33711 6.959252,5.47671 9.493886,8.84374 3.87959,5.15369 6.269001,10.74642 7.34925,17.20191 0.225186,1.34568 0.292567,2.66292 0.290959,5.68786 -0.0019,3.35585 -0.05656,4.24105 -0.371252,6.00025 -0.20304,1.13499 -0.560901,2.75884 -0.795252,3.60855 -0.234355,0.8497 -0.435345,1.68923 -0.446653,1.86561 -0.01632,0.25466 0.131429,0.35025 0.717563,0.46424 0.40596,0.0789 2.509589,0.14928 4.674718,0.15627 4.19543,0.0135 6.32397,-0.18509 10.16957,-0.94901 13.18915,-2.61996 24.9312,-10.01942 33.0641,-20.83591 0.88698,-1.17966 2.13638,-2.98804 2.77645,-4.01862 1.32533,-2.13397 2.92392,-5.2181 3.93921,-7.59989 0.66768,-1.56633 1.96467,-5.21218 1.96467,-5.52271 0,-0.083 -0.0674,-0.15093 -0.1499,-0.15093 -0.0824,0 -2.61258,1.54019 -5.62253,3.42265 -3.00995,1.88247 -5.8027,3.59639 -6.20609,3.80872 -0.56437,0.29706 -0.99813,0.38693 -1.88162,0.38982 -0.96664,0.003 -1.28564,-0.0722 -2.01761,-0.47679 -1.03532,-0.57222 -1.75767,-1.49347 -2.10415,-2.68348 -0.52126,-1.79029 0.20421,-3.63816 1.86613,-4.75329 0.51889,-0.34817 5.44592,-3.44159 10.94897,-6.87428 5.50304,-3.43268 10.29309,-6.333807 10.64455,-6.446967 0.83346,-0.26834 2.32311,-0.12862 3.14544,0.295 0.35432,0.18253 0.87315,0.57823 1.15293,0.87933 0.55825,0.60077 13.22121,20.812917 13.70208,21.870737 0.4322,0.95077 0.39803,2.41874 -0.0802,3.44572 -0.42481,0.91224 -1.27863,1.74667 -2.20383,2.15376 -0.35057,0.15426 -1.0614,0.27091 -1.67515,0.27492 -0.8381,0.005 -1.2458,-0.0853 -1.90593,-0.42426 -0.46188,-0.23719 -1.02733,-0.65414 -1.25656,-0.92657 -0.22923,-0.27243 -1.9483,-2.95172 -3.82014,-5.95398 -1.87183,-3.00226 -3.51529,-5.58957 -3.65211,-5.74957 -0.13684,-0.16001 -0.30039,-0.23382 -0.36345,-0.16403 -0.063,0.0698 -0.39234,0.97573 -0.73173,2.01319 -4.04659,12.37009 -11.76399,23.13221 -22.31008,31.11202 -2.9049,2.19801 -7.61769,5.04669 -10.7389,6.49118 -4.01304,1.85723 -8.11961,3.31292 -12.11002,4.29274 -2.76347,0.67856 -5.52523,1.15571 -8.72118,1.50678 -3.14802,0.34579 -9.441629,0.34381 -12.629945,-0.004 -1.308105,-0.1427 -2.462938,-0.25959 -2.566303,-0.25976 -0.103363,-1.7e-4 -0.435512,0.38642 -0.738113,0.8591 -0.719418,1.12381 -2.205567,3.00397 -3.646389,4.61316 -1.574351,1.7583 -4.379341,4.13901 -6.726738,5.70924 -2.220874,1.4856 -5.326145,3.089 -7.727755,3.9902 -1.99539,0.74877 -5.325728,1.60607 -7.636947,1.96594 -2.041471,0.31786 -7.378371,0.45436 -9.339667,0.23887 z m 9.247505,-9.00274 c 0.981402,-0.19626 2.568346,-0.61087 3.526551,-0.92135 2.277478,-0.73797 5.956121,-2.5837 7.811113,-3.91919 4.660197,-3.35507 8.197163,-7.92112 10.297121,-13.29307 0.699323,-1.78895 1.527089,-5.07453 1.755205,-6.96677 0.245392,-2.03557 0.2045,-5.69508 -0.08596,-7.69244 -0.880524,-6.055 -3.59456,-11.60188 -7.865739,-16.0758 -3.21586,-3.36851 -7.248197,-5.92023 -11.693221,-7.39964 -3.175187,-1.05678 -4.779995,-1.32976 -8.399872,-1.42885 -2.492779,-0.0683 -3.607585,-0.0274 -5.052596,0.18491 -1.019753,0.14986 -2.552856,0.45403 -3.40689,0.67593 -3.231552,0.83962 -6.677278,2.47707 -9.583291,4.55409 -1.8554,1.32611 -5.235015,4.74047 -6.606409,6.67433 -1.38955,1.95947 -3.225352,5.61719 -3.965229,7.90049 -0.311804,0.96223 -0.736405,2.58608 -0.943552,3.60855 -0.32509,1.60458 -0.376638,2.35293 -0.376638,5.46758 0,3.12239 0.05116,3.86106 0.379528,5.4827 1.274886,6.29545 4.616695,12.14841 9.297955,16.28475 2.924005,2.58364 6.544659,4.66017 10.242994,5.87459 1.699666,0.55812 4.367276,1.15931 6.077525,1.36965 0.315747,0.0388 1.976502,0.0495 3.690567,0.0235 2.396831,-0.0362 3.528522,-0.12952 4.900835,-0.40396 z m -12.979082,-8.31647 c -0.150611,-0.0624 -0.205034,-0.71258 -0.205034,-2.44967 0,-1.30058 -0.01845,-2.37972 -0.041,-2.39808 -0.02256,-0.0184 -1.775569,-0.0737 -3.895594,-0.12301 -3.854598,-0.0897 -3.854598,-0.0897 -3.902546,-1.7299 -0.02636,-0.90214 -0.009,-1.79679 0.03884,-1.98811 0.07733,-0.31002 0.230808,-0.35619 1.41106,-0.42452 1.080711,-0.0626 1.390356,-0.14271 1.683451,-0.43574 0.359162,-0.35908 0.359162,-0.35908 0.403854,-10.34672 0.04466,-9.98763 0.04466,-9.98763 -0.349288,-10.44565 -0.351709,-0.40889 -0.523642,-0.46506 -1.602926,-0.52376 -0.664924,-0.0361 -1.30122,-0.14038 -1.413988,-0.2316 -0.296411,-0.23976 -0.285103,-3.62761 0.01292,-3.87496 0.140812,-0.11687 1.519637,-0.19655 3.895593,-0.22512 3.677632,-0.0442 3.677632,-0.0442 3.759644,-2.42258 0.08201,-2.37837 0.08201,-2.37837 2.542393,-2.37837 2.460373,0 2.460373,0 2.542385,2.37837 0.08202,2.37836 0.08202,2.37836 1.676842,2.42525 1.59483,0.0469 1.59483,0.0469 1.640254,-2.37836 0.04541,-2.42526 0.04541,-2.42526 2.505804,-2.42526 2.46038,0 2.46038,0 2.505939,2.44906 0.02577,1.38508 0.119765,2.53848 0.21637,2.65487 0.09394,0.1132 0.405586,0.25401 0.69255,0.31294 0.286963,0.0589 1.120869,0.39317 1.853122,0.74278 0.983777,0.46969 1.548137,0.87281 2.161609,1.54404 0.456625,0.49962 1.038486,1.33265 1.293025,1.85117 0.418653,0.85283 0.462801,1.10738 0.462801,2.66847 0,1.61734 -0.03366,1.79408 -0.535869,2.81422 -0.296319,0.60192 -0.924992,1.48389 -1.406327,1.97298 -0.478747,0.48646 -1.362939,1.13916 -1.964858,1.45044 -0.601919,0.31128 -1.074027,0.62795 -1.049135,0.70371 0.02487,0.0758 0.539676,0.31065 1.143978,0.52197 2.201349,0.7698 3.837695,2.27375 4.580081,4.2095 0.186996,0.48759 0.372149,1.45933 0.420211,2.20536 0.06878,1.06774 0.01646,1.5623 -0.262284,2.48007 -0.41818,1.37676 -1.408317,2.91331 -2.452393,3.80576 -0.952273,0.81398 -2.489514,1.6039 -3.839421,1.97291 -1.030971,0.28184 -1.030971,0.28184 -1.112983,2.80785 -0.04511,1.38931 -0.141723,2.61828 -0.214713,2.73106 -0.183031,0.28279 -4.555251,0.29021 -4.837263,0.008 -0.133925,-0.13393 -0.196833,-0.91464 -0.196833,-2.44283 0,-1.89675 -0.04033,-2.26148 -0.259449,-2.34556 -0.142701,-0.0548 -0.797968,-0.0996 -1.45614,-0.0996 -0.789737,0 -1.257663,0.0735 -1.375979,0.21603 -0.105359,0.12695 -0.198185,1.15837 -0.225117,2.50139 -0.04586,2.28536 -0.04586,2.28536 -2.342184,2.31566 -1.262995,0.0166 -2.388615,-0.008 -2.501382,-0.0547 z m 9.396121,-9.91408 c 0.532439,-0.0984 1.238216,-0.31678 1.568392,-0.48522 0.800686,-0.40848 1.848932,-1.62394 2.087634,-2.42062 0.288113,-0.96165 0.233444,-2.46893 -0.117577,-3.24178 -0.396594,-0.87321 -1.302632,-1.60334 -2.453338,-1.97703 -0.767847,-0.24937 -1.475207,-0.30156 -4.125251,-0.30435 -3.198495,-0.003 -3.198495,-0.003 -3.24241,3.97133 -0.04197,3.79875 -0.02928,3.98936 0.287045,4.30567 0.301109,0.3011 0.542776,0.33095 2.679201,0.33095 1.291533,0 2.783873,-0.0805 3.316304,-0.17895 z m 0.650427,-13.34286 c 1.079196,-0.38165 1.819723,-0.95627 2.192179,-1.70104 0.442189,-0.8842 0.531311,-1.57424 0.327846,-2.5386 -0.140222,-0.66464 -0.33465,-1.00442 -0.871817,-1.52355 -1.019828,-0.98557 -1.722467,-1.13263 -5.420794,-1.13454 -3.116476,-0.001 -3.116476,-0.001 -3.160922,3.43869 -0.02442,1.89216 -0.0052,3.54254 0.04272,3.66751 0.07133,0.18587 0.631584,0.21397 3.07891,0.15439 2.298634,-0.0559 3.181721,-0.14002 3.811848,-0.36286 z M 39.532536,93.358763 c -0.412016,-0.15114 -1.046827,-0.59503 -1.461883,-1.02222 -0.9771,-1.00565 -13.213392,-21.893012 -13.482439,-23.014531 -0.106172,-0.44257 -0.135942,-1.078456 -0.06923,-1.478441 0.168841,-1.012172 0.79283,-2.149928 1.497769,-2.731002 1.691809,-1.394537 4.173117,-1.304732 5.698923,0.206258 0.440539,0.436267 1.867984,2.716327 4.039123,6.451713 1.846789,3.177345 3.441731,5.779202 3.544304,5.781883 0.102572,0.003 0.556853,-1.083826 1.009506,-2.414479 1.991021,-5.852894 4.887706,-11.468682 8.59625,-16.665481 2.406614,-3.3724 5.703971,-7.059161 8.801044,-9.84042 4.551457,-4.087332 8.945157,-7.104685 14.125266,-9.700437 4.202119,-2.105687 8.259987,-3.633298 12.552405,-4.725434 4.545939,-1.156641 7.860979,-1.666253 12.493054,-1.920521 2.858564,-0.156915 7.591362,-0.004 10.060412,0.32506 1.42565,0.189999 1.05946,0.468715 3.22775,-2.456699 2.34539,-3.164357 6.381,-6.852234 9.85862,-9.009121 1.80663,-1.120506 4.89617,-2.644129 6.8427,-3.37452 2.0314,-0.762231 5.35313,-1.611939 7.81419,-1.998884 1.40159,-0.220368 2.7778,-0.290667 5.55387,-0.2837 3.02433,0.0076 4.07377,0.0746 5.81328,0.371192 1.1675,0.199062 2.68503,0.505503 3.3723,0.680978 2.32164,0.592767 5.15509,1.651156 7.46298,2.787671 3.96949,1.954763 7.16887,4.298129 10.34622,7.578 2.75821,2.847226 4.81091,5.68989 6.53053,9.043791 2.98213,5.816256 4.39169,12.129664 4.14431,18.562342 -0.1474,3.832705 -0.67367,6.88505 -1.76752,10.251584 -1.91342,5.888872 -4.95971,10.889659 -9.24479,15.176237 -1.9233,1.923981 -4.62755,4.080981 -6.84428,5.459261 -1.61936,1.00684 -4.73689,2.53126 -6.60899,3.23169 -2.02252,0.7567 -5.36077,1.61209 -7.63696,1.95689 -3.92536,0.59463 -8.62761,0.49874 -12.62016,-0.25734 -4.57547,-0.86647 -9.48053,-2.7837 -13.25476,-5.18087 -2.96923,-1.88587 -6.51533,-5.011326 -8.79979,-7.755922 -3.54718,-4.261656 -6.25768,-9.605801 -7.69526,-15.17234 -0.88324,-3.420044 -1.28028,-8.614626 -0.93401,-12.21988 0.23352,-2.431349 0.83467,-5.638687 1.39838,-7.460825 0.22289,-0.720432 0.34751,-1.367605 0.27694,-1.438167 -0.0706,-0.07056 -1.41497,-0.17359 -2.98758,-0.228952 -3.288884,-0.115788 -6.502167,0.10514 -9.928539,0.68263 -3.895241,0.656515 -7.110465,1.542461 -10.798764,2.975563 -7.345471,2.854113 -13.700736,7.067034 -19.295786,12.791211 -2.528344,2.586699 -4.439601,4.963132 -6.549305,8.143329 -1.646004,2.481195 -3.756185,6.424244 -4.846987,9.056983 -0.711654,1.71765 -1.877678,5.087101 -1.877678,5.425933 0,0.128115 0.03846,0.232943 0.08545,0.232943 0.04698,0 2.606764,-1.481711 5.68837,-3.292696 3.081613,-1.810977 5.974466,-3.480963 6.428568,-3.711068 0.617177,-0.312752 1.07865,-0.41838 1.827789,-0.41838 1.696693,0 3.071493,0.84679 3.89212,2.397317 0.277023,0.523424 0.358923,0.958847 0.358923,1.908344 0,0.943051 -0.0819,1.383329 -0.350887,1.886289 -0.192979,0.360865 -0.597236,0.886941 -0.898337,1.169072 -0.301094,0.282131 -5.197568,3.242896 -10.881045,6.579476 -5.683478,3.33659 -10.663569,6.23409 -11.066877,6.4389 -0.953179,0.48404 -2.457162,0.58015 -3.439498,0.21979 z M 144.28914,82.069693 c 6.09921,-0.867078 11.6095,-3.543612 16.00668,-7.774991 2.56377,-2.46711 4.38209,-4.942906 5.98783,-8.153 1.07767,-2.154383 1.90299,-4.550001 2.44939,-7.109672 0.40131,-1.879942 0.44024,-2.382286 0.44566,-5.750457 0.005,-3.21546 -0.0426,-3.929889 -0.3707,-5.549596 -0.73512,-3.628418 -2.19401,-7.278917 -4.05631,-10.149845 -1.27242,-1.961586 -3.14519,-4.246429 -4.56117,-5.56481 -1.98693,-1.849979 -4.6909,-3.746689 -6.96645,-4.886647 -2.55596,-1.280431 -5.96917,-2.34443 -8.97127,-2.796608 -2.07676,-0.312804 -6.05412,-0.315041 -8.23759,-0.0046 -5.23113,0.743668 -10.12313,2.885985 -14.31588,6.269231 -1.42844,1.152644 -3.52168,3.297862 -4.63776,4.752907 -1.6294,2.124265 -3.16435,4.882075 -4.13942,7.437176 -0.74119,1.94226 -1.48927,4.99136 -1.72763,7.041749 -0.11901,1.023651 -0.1644,2.779562 -0.11426,4.419997 0.0943,3.085222 0.46551,5.270309 1.3646,8.032555 0.69302,2.129129 2.18752,5.201665 3.44034,7.073003 2.72542,4.070954 6.41713,7.415482 10.57594,9.581356 2.9299,1.525866 6.14185,2.604561 9.02497,3.030942 0.67184,0.0994 1.40606,0.20773 1.63159,0.24083 1.10796,0.16264 5.67046,0.0739 7.17144,-0.13949 z m -6.92701,-7.173386 c -0.0422,-0.115187 -0.096,-1.205884 -0.11955,-2.423777 -0.0429,-2.214338 -0.0429,-2.214338 -1.19104,-2.355045 -2.90055,-0.355457 -7.19686,-1.616265 -7.41123,-2.174926 -0.10088,-0.26287 1.23207,-5.766825 1.42557,-5.886411 0.0688,-0.0425 0.68297,0.180462 1.36485,0.49551 1.96071,0.905902 4.0037,1.396716 6.26106,1.504167 2.28121,0.108585 3.49682,-0.08723 4.47367,-0.720627 0.3646,-0.23641 0.81733,-0.704595 1.00606,-1.040412 0.40397,-0.718758 0.45408,-1.925963 0.10775,-2.595691 -0.34503,-0.667213 -1.42542,-1.583976 -2.50715,-2.127442 -0.5214,-0.261955 -1.72302,-0.751634 -2.67026,-1.088187 -3.55487,-1.263013 -5.64423,-2.445817 -7.14128,-4.042733 -1.6118,-1.719319 -2.11983,-3.031135 -2.11999,-5.47413 -7e-5,-1.276372 0.0824,-1.880728 0.37158,-2.724223 0.46915,-1.368261 1.13897,-2.42768 2.16952,-3.431469 1.12667,-1.097411 2.59697,-1.948336 4.42381,-2.560229 1.55825,-0.52193 1.55825,-0.52193 1.64025,-2.87408 0.082,-2.352148 0.082,-2.352148 2.5834,-2.397427 2.50139,-0.04527 2.50139,-0.04527 2.50139,2.095381 0,2.070075 0.0122,2.14517 0.36905,2.277421 0.20298,0.07522 0.92841,0.186033 1.61206,0.246263 1.80484,0.159 5.19781,1.11727 5.46041,1.542177 0.10702,0.173154 -1.17959,5.297285 -1.39536,5.557273 -0.12561,0.151347 -0.34257,0.120539 -0.93162,-0.132297 -0.42233,-0.181277 -1.39527,-0.514913 -2.16208,-0.741411 -1.02303,-0.302173 -1.94143,-0.43582 -3.44952,-0.501992 -1.65492,-0.07261 -2.24384,-0.03538 -3.02305,0.191157 -2.30056,0.668784 -3.00767,2.84075 -1.41803,4.355591 0.79885,0.761264 2.06466,1.411971 4.93814,2.53853 3.11304,1.220485 5.04795,2.25105 6.22322,3.314616 1.76657,1.598651 2.59367,3.369184 2.74434,5.874665 0.14753,2.45315 -0.5114,4.501903 -2.07029,6.436919 -1.28871,1.599655 -3.68743,2.976389 -6.36005,3.650335 -0.69297,0.174741 -0.69297,0.174741 -0.73812,2.75293 -0.0452,2.578189 -0.0452,2.578189 -2.46797,2.623598 -1.84923,0.03465 -2.44099,-0.0045 -2.49954,-0.164024 z"
       style="stroke-width:0.16402526" />
  </g>
</svg>
