<?xml version="1.0" encoding="utf-8"?>
<!-- Generator: Adobe Illustrator 22.1.0, SVG Export Plug-In . SVG Version: 6.00 Build 0)  -->
<svg version="1.1" id="Layer_1" xmlns="http://www.w3.org/2000/svg" xmlns:xlink="http://www.w3.org/1999/xlink" x="0px" y="0px"
	 viewBox="0 0 154 161" style="enable-background:new 0 0 154 161;" xml:space="preserve">
<style type="text/css">
	.st0{fill:#F2AE75;}
	.st1{fill:#F6CCB8;}
	.st2{fill:#7CCCEC;}
	.st3{fill:#43414D;}
	.st4{fill:#67BEE1;}
	.st5{opacity:0.8;fill:#F7CDB9;}
	.st6{fill:#F7CDB9;}
	.st7{fill:#3C2417;}
	.st8{fill:#FFFFFF;}
	.st9{fill:#F05D44;}
	.st10{fill:#3C2415;}
</style>
<g>
	<polygon class="st0" points="94.9,101 90.8,99.1 90.8,86 64.4,86 64.4,99.1 60.3,100.9 61.4,138 64.4,138 64.4,143.7 90.8,143.7 
		90.8,138 93.8,138 	"/>
	<polygon class="st1" points="64.4,93 90.9,98.3 90.8,86 64.4,86 	"/>
</g>
<g>
	<path class="st2" d="M144.1,162.4c-1.3-14.5-5-28.2-7.2-40.9c-2.1-12.3-20.2-12.3-41.6-20.4l-1,3.7c-1.7,4.9-6,12.8-16.4,12.8
		c-11.7,0-16.1-10.1-17.5-14.5l-0.5-2c-21.5,8.1-39.5,8.1-41.6,20.4c-2.2,12.6-5.8,26.4-7.2,40.9H144.1z"/>
	<g>
		<polygon class="st3" points="82.7,162.4 81.4,121.8 73.7,121.8 72.5,162.4 		"/>
		<polygon class="st3" points="83.9,115.8 81.4,120.6 73.7,120.6 71.2,115.8 77.6,110.6 		"/>
		<path class="st4" d="M64.3,98.3c0,0-8.6,4.3-8.7,4.3l13.9,16.6l8.1-8.5l-10.1-9.3L64.3,98.3z"/>
		<polygon class="st4" points="90.9,98.3 77.6,110.6 85.7,119.1 99.6,102.6 		"/>
	</g>
</g>
<g>
	<g>
		<path class="st0" d="M106.4,48.5l0.9-11.6c0-15.2-14.5-27.5-29.7-27.5c-15.2,0-29.7,12.3-29.7,27.5l0.9,11.6
			c-0.8,0.2-1.6,0.6-2.3,1.1c-1.2,1-1.9,2.5-1.9,4.2v5.7c0,3,2.4,5.5,5.5,5.5C50.1,79.4,67.3,93,77.6,93c10.3,0,27.5-13.6,27.5-27.9
			c3,0,5.5-2.5,5.5-5.5v-5.7C110.6,51.2,108.8,49.1,106.4,48.5z"/>
		<path class="st5" d="M106.4,48.5l0.9-11.6c0-15.2-14.5-27.5-29.7-27.5c0,0,0,39,0,39C73.6,57,71,69.3,71,69.3h6.6V93
			c10.3,0,27.5-13.6,27.5-27.9c3,0,5.5-2.5,5.5-5.5v-5.7C110.6,51.2,108.8,49.1,106.4,48.5z"/>
		<g>
			<g>
				<path class="st6" d="M69.3,51.6c0.1,2.4-1.8,4.4-4.2,4.5c-2.4,0.1-4.4-1.8-4.5-4.2c-0.1-2.4,1.8-4.4,4.2-4.5
					C67.2,47.3,69.2,49.2,69.3,51.6z"/>
				<path class="st7" d="M69.3,50.5c0.1,2.4-1.8,4.4-4.2,4.5c-2.4,0.1-4.4-1.8-4.5-4.2c-0.1-2.4,1.8-4.4,4.2-4.5
					C67.2,46.2,69.2,48.1,69.3,50.5z"/>
				<path class="st8" d="M67.5,49.3c0,0.6-0.4,1.1-1,1.1c-0.6,0-1.1-0.4-1.1-1c0-0.6,0.4-1.1,1-1.1C67,48.2,67.5,48.7,67.5,49.3z"/>
			</g>
			<g>
				<path class="st6" d="M94.6,51.6c0.1,2.4-1.8,4.4-4.2,4.5c-2.4,0.1-4.4-1.8-4.5-4.2c-0.1-2.4,1.8-4.4,4.2-4.5
					C92.5,47.3,94.5,49.2,94.6,51.6z"/>
				<path class="st7" d="M94.6,50.5c0.1,2.4-1.8,4.4-4.2,4.5c-2.4,0.1-4.4-1.8-4.5-4.2c-0.1-2.4,1.8-4.4,4.2-4.5
					C92.5,46.2,94.5,48.1,94.6,50.5z"/>
				<path class="st8" d="M92.8,49.3c0,0.6-0.4,1.1-1,1.1c-0.6,0-1.1-0.4-1.1-1c0-0.6,0.4-1.1,1-1.1C92.3,48.2,92.8,48.7,92.8,49.3z"
					/>
			</g>
		</g>
	</g>
	<g>
		<path class="st9" d="M87.5,74.3c0,4.9-4.4,8.8-9.9,8.8s-9.9-3.9-9.9-8.8H87.5z"/>
		<path class="st8" d="M84.6,77.6H70.3c-0.6,0-1.1-0.5-1.1-1.1v-2.2h16.5v2.2C85.7,77.1,85.2,77.6,84.6,77.6z"/>
	</g>
	<path class="st10" d="M77.6-0.7C28.9,0.1,49,56,49,56s-2.5-30.6,10.4-28.8c7.9,1.2,13.8,1.5,18.2,1.5c4.4,0,10.3-0.4,18.2-1.5
		c12.9-1.9,10.4,28.8,10.4,28.8S126.3,0.1,77.6-0.7z"/>
	<path class="st3" d="M108.4,41.2h-6c-1.9-1-4.5-1.6-8.2-1.6c-6.1,0-10.3,1.2-12.4,3.5c-1-0.6-2.5-1.2-4.2-1.2s-3.2,0.6-4.2,1.2
		c-2.1-2.3-6.3-3.5-12.4-3.5c-3.7,0-6.3,0.6-8.2,1.6h-6v4.3l2,0.7c-0.2,0.8-0.3,1.6-0.3,2.4C48.5,53.9,49.8,61,61,61
		c10,0,12.6-6.2,13.9-12.2c0.2-0.9,0.2-1.8,0.1-2.6c0.5-0.3,1.3-0.6,2.6-0.6s2.1,0.3,2.6,0.6c-0.1,0.8-0.1,1.7,0.1,2.6
		c1.2,6,3.9,12.2,13.9,12.2c11.2,0,12.5-7.1,12.5-12.4c0-0.8-0.1-1.6-0.3-2.4l2-0.7V41.2z M72.7,48.3c-1.3,6.3-3.8,10.4-11.7,10.4
		c-9.1,0-10.3-4.9-10.3-10.2c0-1.7,0-5.7,10.3-5.7c7.1,0,9.5,1.1,10.6,2.4C72.4,46.2,73,46.9,72.7,48.3z M94.2,58.8
		c-7.9,0-10.4-4.2-11.7-10.4c-0.3-1.4,0.3-2.1,1.1-3.1c1.1-1.4,3.5-2.4,10.6-2.4c10.3,0,10.3,4,10.3,5.7
		C104.5,53.9,103.3,58.8,94.2,58.8z"/>
</g>
</svg>
