<?xml version="1.0" encoding="utf-8"?>
<!-- Generator: Adobe Illustrator 22.1.0, SVG Export Plug-In . SVG Version: 6.00 Build 0)  -->
<svg version="1.1" id="Layer_1" xmlns="http://www.w3.org/2000/svg" xmlns:xlink="http://www.w3.org/1999/xlink" x="0px" y="0px"
	 viewBox="0 0 156.7 183.5" style="enable-background:new 0 0 156.7 183.5;" xml:space="preserve">
<style type="text/css">
	.st0{fill:#3C2417;}
	.st1{fill:#F080B1;}
	.st2{fill:#F2AE75;}
	.st3{fill:#F6CCB8;}
	.st4{fill:#C85889;}
	.st5{opacity:0.8;fill:#F6CCB8;}
	.st6{fill:#3C2415;}
	.st7{fill:#FFFFFF;}
	.st8{fill:#F05D44;}
</style>
<path class="st0" d="M34.4,59.8c0.2-0.3,0.3-0.6,0.4-0.9c3.5-7.4,2.4-14.6,4.6-22.3c4.8-16.7,13.4-26.9,22.6-22.3
	c13.3-14.1,32.4-0.9,35.8,1.5c3.6,2.6,5.9,4.4,9.1,10.1c4,7.3,5.4,15.5,7,23.7c1.7,8.9,9.4,15.9,10.3,24.9
	c0.9,9.5-4.8,13.6,0.8,23.2c2.2,3.7,5.9,7.3,7,11.4c1.2,4.6-0.6,9.6,0.5,14.2c1.6,6.8,9.1,10,9.9,16.7c0.9,6.6-5,11.6-10.3,14.4
	c-8.4,4.5-18.4,4-27.9,3.3c-27-1.9-54.1,1.8-81-0.8C8.1,155.5,7.5,146.9,8,143.5c0.7-4.7,6.1-8.1,8.4-12.3
	c3.1-5.6-0.2-13.6,0.9-19.9c1.2-6.3,6.7-8.8,8.3-15.1c1.4-5.3-1.4-11-0.8-16.5C25.6,72.4,31.2,66.3,34.4,59.8z"/>
<polygon class="st1" points="62.1,107.2 88.4,107.2 88.1,117.1 62.4,117.1 "/>
<g>
	<polygon class="st2" points="86.2,153.7 64.2,153.7 58.7,111 64.2,109 64.2,96.1 86.2,96.1 86.2,109 91.7,111.2 	"/>
	<polygon class="st3" points="64.2,96.2 64.2,102.4 86.2,109 86.2,96.2 	"/>
</g>
<g>
	<path class="st1" d="M126.3,173.5c-0.3-11.2-0.7-20.4-1.1-23.9l-0.1-0.5c-1.2-10.4-2.6-23.3-11.8-32.1c-7.9-7.6-17-7.7-25-7.8
		c0,0-2.3,8.5-2.3,8.5l-10.9,24.6l-10.9-24.7l-1.5-8.5c-8,0.1-17.9,0.2-25.8,7.8c-9.1,8.8-10.6,21.7-11.8,32.1l-0.1,0.5
		c-0.4,3.5-0.7,12.7-1.1,23.9H126.3z"/>
	<g>
		<polygon class="st4" points="76.4,173.5 76.4,141.5 75.3,142.5 74.1,141.5 74.1,173.5 		"/>
		<polygon class="st4" points="49.2,116 61.6,120.6 56.7,127.2 75.3,142.5 62.1,107.2 		"/>
		<polygon class="st4" points="101.3,116 88.4,107.2 75.3,142.5 93.8,127.2 88.9,120.6 		"/>
	</g>
</g>
<g id="woman_41_">
	<g>
		<path class="st2" d="M100.5,57.8V46.4c0-12.2-14.1-27.5-25.2-27.5c-11.1,0-25.2,15.3-25.2,27.5v11.4c-3.1,0-5.6,2.5-5.6,5.5V69
			c0,3,2.5,5.5,5.6,5.5c0,12.2,14.1,27.9,25.2,27.9c11.1,0,25.2-15.8,25.2-27.9c3.1,0,5.6-2.5,5.6-5.5v-5.7
			C106.1,60.3,103.5,57.8,100.5,57.8z"/>
		<path class="st5" d="M75.3,82.1v20.3c11.1,0,25.2-15.8,25.2-27.9c3.1,0,5.6-2.5,5.6-5.5v-5.7c0-3-2.5-5.5-5.6-5.5V46.4
			c0-12.2-14.1-27.5-25.2-27.5v44.5C71.2,71.9,69.7,81,69.7,81L75.3,82.1z"/>
		<g>
			<g>
				
					<ellipse transform="matrix(0.8077 -0.5896 0.5896 0.8077 -26.6165 48.8589)" class="st3" cx="61.6" cy="65.2" rx="4.3" ry="4.3"/>
				
					<ellipse transform="matrix(0.8077 -0.5896 0.5896 0.8077 -25.9679 48.6473)" class="st6" cx="61.6" cy="64.1" rx="4.3" ry="4.3"/>
				<path class="st7" d="M64.1,64.9c0,0.6-0.4,1.1-1,1.1c-0.6,0-1.1-0.4-1.1-1c0-0.6,0.4-1.1,1-1.1C63.6,63.9,64.1,64.3,64.1,64.9z"
					/>
				<path class="st6" d="M66.9,60.7c-0.8-1.9-2.9-3.3-5.1-3.5c-1.4-0.2-4,0.1-6.2,2.9c-0.1,0-0.2,0-0.3,0c-0.2,0-0.6-0.1-0.9-0.2
					c-0.7-0.3-1.3-0.9-1.3-0.9c0,0-0.1-0.1-0.2,0c-0.1,0-0.1,0.1-0.1,0.2c0,0,0.1,0.2,0.2,0.5c0.2,0.3,0.4,0.6,0.7,0.9
					c0.3,0.3,0.7,0.6,1,0.7c0.2,0.1,0.3,0.1,0.4,0.2c0.1,0,0.2,0.1,0.2,0.1c0.3,0,0.6-0.1,0.7-0.4c1.5-2,3.4-3,5.5-2.8
					c1.8,0.2,3.6,1.4,4.2,2.9c0.1,0.3,0.4,0.4,0.7,0.3C66.9,61.3,67,60.9,66.9,60.7z"/>
			</g>
			<g>
				<path class="st3" d="M93.4,65.1c0.1,2.4-1.8,4.4-4.2,4.5c-2.4,0.1-4.4-1.8-4.5-4.2c-0.1-2.4,1.8-4.4,4.2-4.5
					C91.3,60.8,93.3,62.7,93.4,65.1z"/>
				<path class="st6" d="M93.4,64c0.1,2.4-1.8,4.4-4.2,4.5c-2.4,0.1-4.4-1.8-4.5-4.2c-0.1-2.4,1.8-4.4,4.2-4.5
					C91.3,59.7,93.3,61.6,93.4,64z"/>
				<path class="st7" d="M91.6,64.9c0,0.6-0.4,1.1-1,1.1c-0.6,0-1.1-0.4-1.1-1c0-0.6,0.4-1.1,1-1.1C91.1,63.9,91.6,64.3,91.6,64.9z"
					/>
				<path class="st6" d="M83.8,60.7c0.8-1.9,2.9-3.3,5.1-3.5c1.4-0.2,4,0.1,6.2,2.9c0.1,0,0.2,0,0.3,0c0.2,0,0.6-0.1,0.9-0.2
					c0.7-0.3,1.3-0.9,1.3-0.9c0,0,0.1-0.1,0.2,0c0.1,0,0.1,0.1,0.1,0.2c0,0-0.1,0.2-0.2,0.5c-0.2,0.3-0.4,0.6-0.7,0.9
					c-0.3,0.3-0.7,0.6-1,0.7c-0.2,0.1-0.3,0.1-0.4,0.2c-0.1,0-0.2,0.1-0.2,0.1c-0.3,0-0.6-0.1-0.7-0.4c-1.5-2-3.4-3-5.5-2.8
					c-1.8,0.2-3.6,1.4-4.2,2.9c-0.1,0.3-0.4,0.4-0.7,0.3C83.8,61.3,83.7,60.9,83.8,60.7z"/>
			</g>
		</g>
	</g>
	<g>
		<path class="st8" d="M84.1,86.2c0,4.3-3.9,7.8-8.8,7.8s-8.8-3.5-8.8-7.8H84.1z"/>
		<path class="st7" d="M81.4,89.1H68.9c-0.6,0-1.1-0.5-1.1-1.1v-1.8h14.7V88C82.5,88.6,82,89.1,81.4,89.1z"/>
	</g>
	<g>
		<circle class="st1" cx="103.3" cy="74.2" r="2.8"/>
		<circle class="st1" cx="47.2" cy="74.2" r="2.8"/>
	</g>
	<path class="st0" d="M110.5,62.8c-5.4-6.3-3.9-12.3-4.5-14.3c-1.8-5.9-1.4-11.5-3.8-17.2C94.8,13.7,58.5,7,47.8,39.7
		c-1.7,5.1,0.6,14.2,2.8,19.2c1.5-0.5,9.9-13.3,13.7-22.2C73.6,52.7,99.8,60.9,110.5,62.8z"/>
	<path class="st6" d="M104.1,56h-3.9c-2.2-1.5-6.3-1.5-9.9-1.5c-6.2,0-10.3,1.2-12.3,3.6c-0.7-0.4-1.7-0.5-2.8-0.5
		c-1.1,0-2.1,0.1-2.8,0.5c-2-2.4-6.1-3.6-12.3-3.6c-3.7,0-7.7,0-9.9,1.5h-3.9v4.2l1.7,0.9C48.1,65.2,51.8,73,60.1,73
		c6,0,11.7-1.2,13.5-9.6c0.1-0.6,0.2-1.1,0.2-1.6c0.1-0.4,0.7-0.9,1.5-0.9c0.8,0,1.4,0.4,1.5,0.9c0,0.5,0,1.1,0.2,1.6
		c1.7,8.4,7.5,9.6,13.5,9.6c8.4,0,12-7.8,12.1-11.9l1.7-0.9V56z M71.7,63c-1.8,5.8-4.2,8-11.5,8C52.5,71,50,63.6,50,61
		c0-3.1,7-3.4,10.1-3.4C67.1,57.6,72.4,60.5,71.7,63z M90.4,71c-7.3,0-9.7-2.2-11.5-8c-0.8-2.5,4.6-5.4,11.5-5.4
		c3.2,0,10.1,0.3,10.1,3.4C100.5,63.6,98,71,90.4,71z"/>
</g>
</svg>
