<svg xmlns="http://www.w3.org/2000/svg" viewBox="0 0 104 161">
  <defs>
    <style>
      .cls-1 {
        fill: #ffb1b1;
      }

      .cls-2 {
        clip-path: url(#clip-Canvas);
      }

      .cls-3 {
        fill: #e297ac;
      }

      .cls-4 {
        fill: #e42951;
      }

      .cls-5 {
        fill: rgba(156,34,60,0.55);
        opacity: 0.42;
      }

      .cls-6 {
        fill: #eb3b61;
      }

      .cls-7 {
        fill: #e2c7cd;
      }

      .cls-8 {
        clip-path: url(#clip-path);
      }

      .cls-9 {
        fill: rgba(142,81,81,0.53);
        opacity: 0.38;
      }

      .cls-10 {
        fill: #3f3137;
      }

      .cls-11 {
        fill: #904e68;
      }

      .cls-12 {
        fill: #ffd4cb;
      }

      .cls-13 {
        fill: #fabcbc;
      }

      .cls-14 {
        fill: rgba(169,124,114,0.68);
        opacity: 0.239;
      }

      .cls-15 {
        fill: #fff;
      }

      .cls-15, .cls-16, .cls-19 {
        stroke-linejoin: round;
      }

      .cls-16, .cls-17, .cls-19 {
        fill: none;
      }

      .cls-17 {
        stroke: #b74860;
        stroke-width: 2px;
      }

      .cls-18 {
        fill: #3e001e;
      }

      .cls-19 {
        stroke: #ff235d;
        stroke-linecap: round;
        stroke-width: 3px;
      }

      .cls-20 {
        fill: rgba(69,29,45,0.28);
        opacity: 0.51;
      }

      .cls-21 {
        fill: #6d344b;
      }

      .cls-22 {
        fill: #c32043;
      }

      .cls-23, .cls-24 {
        stroke: none;
      }

      .cls-24 {
        fill: #b74860;
      }
    </style>
    <clipPath id="clip-path">
      <rect class="cls-1" width="23" height="31" rx="11.5" transform="translate(48 84)"/>
    </clipPath>
    <clipPath id="clip-Canvas">
      <rect width="104" height="161"/>
    </clipPath>
  </defs>
  <g class="cls-2">
    <g>
      <path class="cls-3" d="M22.358,52.96a44.86,44.86,0,0,1,61.082,16.27l14.57,25.087A44.308,44.308,0,0,1,81.643,155.04a44.86,44.86,0,0,1-61.082-16.27L5.991,113.682A44.309,44.309,0,0,1,22.358,52.96Z"/>
      <path class="cls-4" d="M59.031,95c35.136,0,44.023,30.926,43.975,31.292a12.815,12.815,0,0,1-.314,1.293A44.355,44.355,0,0,1,81.706,155.04a44.96,44.96,0,0,1-61.17-16.27l-4.26-7.324c-.086-.148-.141-.27-.261-.448S22.434,95,59.031,95Z"/>
      <path class="cls-5" d="M59.031,95c16.337,0,27,6.686,33.727,13.878C98.236,114.733,83.158,138,60,138s-40.905-19.461-33-29.231C33.493,101.38,43.585,95,59.031,95Z"/>
      <path class="cls-6" d="M59.088,95c10.752,0,15.769.354,20.2,5.037C84.321,105.621,76.879,124,59.726,124s-24.921-17.672-19.72-24.034C44.281,95.155,48.923,95,59.088,95Z"/>
      <path class="cls-7" d="M59.119,95c7.86,0,11.528.146,14.765,2.084,6.48,3.68-1.759,22.916-14.3,22.916S38.409,101.536,45.169,97.055C48.295,95.064,51.688,95,59.119,95Z"/>
      <g>
        <rect class="cls-1" width="23" height="31" rx="11.5" transform="translate(48 84)"/>
        <g class="cls-8">
          <path class="cls-9" d="M57,86h5a9,9,0,0,1,0,18H57a9,9,0,0,1,0-18Z"/>
        </g>
      </g>
      <path class="cls-10" d="M60,5C80.435,5,97,22.788,97,44.73l-4.114,19.3C92.886,85.969,80.435,89,60,89S27.114,85.969,27.114,64.027L23,44.73C23,22.788,39.565,5,60,5Z"/>
      <path class="cls-11" d="M35,0h0A35,35,0,0,1,70,35V45.96A28.04,28.04,0,0,1,41.96,74H28.04A28.04,28.04,0,0,1,0,45.96V35A35,35,0,0,1,35,0Z" transform="translate(25 12)"/>
      <rect class="cls-12" width="60" height="80" rx="30" transform="translate(30 19)"/>
      <path class="cls-13" d="M77.612,82.617c-2.442-1.165-3.352-4.623-2.032-7.726s4.368-4.673,6.809-3.509,3.352,4.623,2.032,7.726A5.906,5.906,0,0,1,79.316,83,3.933,3.933,0,0,1,77.612,82.617Zm-42-3.509c-1.311-3.1-.407-6.561,2.02-7.726s5.456.408,6.767,3.509.407,6.561-2.02,7.726A3.89,3.89,0,0,1,40.68,83,5.873,5.873,0,0,1,35.607,79.108Z"/>
      <path class="cls-1" d="M9,0h1a0,0,0,0,1,0,0V21a0,0,0,0,1,0,0H9a9,9,0,0,1-9-9V9A9,9,0,0,1,9,0Z" transform="translate(20 50)"/>
      <path class="cls-1" d="M0,0H1a9,9,0,0,1,9,9v3a9,9,0,0,1-9,9H0a0,0,0,0,1,0,0V0A0,0,0,0,1,0,0Z" transform="translate(90 50)"/>
      <path class="cls-14" d="M61,67A11,11,0,1,1,72,78,11,11,0,0,1,61,67ZM34,67A11,11,0,1,1,45,78,11,11,0,0,1,34,67Z"/>
      <g>
        <g class="cls-15">
          <path class="cls-23" d="M 72.99990081787109 74.99960327148438 C 67.48599243164062 74.99960327148438 63.00009918212891 70.51371002197266 63.00009918212891 64.99980163574219 C 63.00009918212891 59.48589324951172 67.48599243164062 55 72.99990081787109 55 C 78.51380920410156 55 82.99970245361328 59.48589324951172 82.99970245361328 64.99980163574219 C 82.99970245361328 70.51371002197266 78.51380920410156 74.99960327148438 72.99990081787109 74.99960327148438 Z M 45.99990081787109 74.99960327148438 C 40.48599243164062 74.99960327148438 36.00009918212891 70.51371002197266 36.00009918212891 64.99980163574219 C 36.00009918212891 59.48589324951172 40.48599243164062 55 45.99990081787109 55 C 51.51380920410156 55 55.99970245361328 59.48589324951172 55.99970245361328 64.99980163574219 C 55.99970245361328 70.51371002197266 51.51380920410156 74.99960327148438 45.99990081787109 74.99960327148438 Z"/>
          <path class="cls-24" d="M 45.99990081787109 56 C 41.03739166259766 56 37.00009918212891 60.03729248046875 37.00009918212891 64.99980163574219 C 37.00009918212891 69.96231079101562 41.03739166259766 73.99960327148438 45.99990081787109 73.99960327148438 C 50.96240997314453 73.99960327148438 54.99970245361328 69.96231079101562 54.99970245361328 64.99980163574219 C 54.99970245361328 60.03729248046875 50.96240997314453 56 45.99990081787109 56 M 72.99990081787109 56 C 68.03739166259766 56 64.00009918212891 60.03729248046875 64.00009918212891 64.99980163574219 C 64.00009918212891 69.96231079101562 68.03739166259766 73.99960327148438 72.99990081787109 73.99960327148438 C 77.96240997314453 73.99960327148438 81.99970245361328 69.96231079101562 81.99970245361328 64.99980163574219 C 81.99970245361328 60.03729248046875 77.96240997314453 56 72.99990081787109 56 M 45.99990081787109 54 C 52.07489776611328 54 56.99970245361328 58.9248046875 56.99970245361328 64.99980163574219 C 56.99970245361328 71.07479858398438 52.07489776611328 75.99960327148438 45.99990081787109 75.99960327148438 C 39.92488861083984 75.99960327148438 35.00009918212891 71.07479858398438 35.00009918212891 64.99980163574219 C 35.00009918212891 58.9248046875 39.92488861083984 54 45.99990081787109 54 Z M 72.99990081787109 54 C 79.07490539550781 54 83.99970245361328 58.9248046875 83.99970245361328 64.99980163574219 C 83.99970245361328 71.07479858398438 79.07490539550781 75.99960327148438 72.99990081787109 75.99960327148438 C 66.92489624023438 75.99960327148438 62.00009918212891 71.07479858398438 62.00009918212891 64.99980163574219 C 62.00009918212891 58.9248046875 66.92489624023438 54 72.99990081787109 54 Z"/>
        </g>
        <g class="cls-16">
          <path class="cls-23" d="M62,65A11,11,0,1,1,73,76,11,11,0,0,1,62,65ZM35,65A11,11,0,1,1,46,76,11,11,0,0,1,35,65Z"/>
          <path class="cls-24" d="M 45.99990081787109 56 C 41.03739166259766 56 37.00009918212891 60.03729248046875 37.00009918212891 64.99980163574219 C 37.00009918212891 69.96231079101562 41.03739166259766 73.99960327148438 45.99990081787109 73.99960327148438 C 50.96240997314453 73.99960327148438 54.99970245361328 69.96231079101562 54.99970245361328 64.99980163574219 C 54.99970245361328 60.03729248046875 50.96240997314453 56 45.99990081787109 56 M 72.99990081787109 56 C 68.03739166259766 56 64.00009918212891 60.03729248046875 64.00009918212891 64.99980163574219 C 64.00009918212891 69.96231079101562 68.03739166259766 73.99960327148438 72.99990081787109 73.99960327148438 C 77.96240997314453 73.99960327148438 81.99970245361328 69.96231079101562 81.99970245361328 64.99980163574219 C 81.99970245361328 60.03729248046875 77.96240997314453 56 72.99990081787109 56 M 45.99990081787109 54 C 52.07489776611328 54 56.99970245361328 58.9248046875 56.99970245361328 64.99980163574219 C 56.99970245361328 71.07479858398438 52.07489776611328 75.99960327148438 45.99990081787109 75.99960327148438 C 39.92488861083984 75.99960327148438 35.00009918212891 71.07479858398438 35.00009918212891 64.99980163574219 C 35.00009918212891 58.9248046875 39.92488861083984 54 45.99990081787109 54 Z M 72.99990081787109 54 C 79.07490539550781 54 83.99970245361328 58.9248046875 83.99970245361328 64.99980163574219 C 83.99970245361328 71.07479858398438 79.07490539550781 75.99960327148438 72.99990081787109 75.99960327148438 C 66.92489624023438 75.99960327148438 62.00009918212891 71.07479858398438 62.00009918212891 64.99980163574219 C 62.00009918212891 58.9248046875 66.92489624023438 54 72.99990081787109 54 Z"/>
        </g>
      </g>
      <path class="cls-17" d="M56,64c1.653-2.27,5.432-2.909,7,0"/>
      <path class="cls-18" d="M70,65a3,3,0,1,1,3,3A3,3,0,0,1,70,65ZM43,65a3,3,0,1,1,3,3A3,3,0,0,1,43,65Z"/>
      <path class="cls-18" d="M67.2,53.553A2,2,0,0,1,68.619,51.1l7.727-2.071A2,2,0,1,1,77.381,52.9l-7.727,2.071A2,2,0,0,1,67.2,53.553ZM49.346,54.968,41.619,52.9a2,2,0,0,1,1.035-3.864L50.381,51.1a2,2,0,1,1-1.035,3.864Z"/>
      <path class="cls-19" d="M54,80s.9.848,4.554.991C58.7,81,59.85,81,60,81c.213,0,1.42,0,1.622-.018C64.482,80.759,65,80,65,80"/>
      <path class="cls-20" d="M79,20.4S70,34.05,56.062,34.05s-17.273-4.121-18.956,1.891c-2.591-9.3,3.808-8.337,7.986-8.715s-11.455-.763-11.967,1.95c-.965-2.481,3.191-8.375,7.978-9.749S79,20.4,79,20.4Z"/>
      <path class="cls-11" d="M29.369,56.831c.551,1.576,2.927-8.4,2.185-11.881s7.165-12.492,6.554-15.121,9.5,1.08,19.661,1.08,14.277-2.6,16.385-2.16,14.372,7.261,14.2,15.121,2.185,14.17,2.185,12.961c0-5.335,3.518-4.72,5.462-5.48,0-27.3-22.664-36.563-34.954-36.563-7.8,0-11.266,2.441-12.015,2.08s-6.416-4.555-4.369-7.561c-2.007-1.4-5.01,3.882-4.369,6.481C39.215,16.875,36,9.417,39.2,6.068c-1.76-.822-8.918,9.877-4.369,16.361-1.1.542-9.831,6-9.831,27.522C25.3,50.939,29.13,46.466,29.369,56.831Z"/>
      <path class="cls-21" d="M38.108,29.829a1.345,1.345,0,0,1,.032.24c.135,2.9-7.306,11.5-6.586,14.881.742,3.476-1.634,13.456-2.185,11.881-.239-10.366-4.1-5.006-4.408-5.995-.769-21.7,7.976-27.322,9.668-28.3.083-.048.084-.105.2-.109C34.539,25.256,37.5,27.2,38.108,29.829Z"/>
      <path class="cls-11" d="M59,91c5.1,0,7,2,7,2s10.229-1.938,16-8c5.484-5.76,8-14,8-14s.7,12.453-4,17-16.108,12-28,12S37.57,91.111,34,87s-4-16-4-16,2.495,8.574,7,13,15,9,15,9S53.9,91,59,91Z"/>
      <path class="cls-22" d="M32.1,151.878l-.141-.108a44.69,44.69,0,0,1-9.225-9.588l-.123-.174L32.077,142Z" transform="translate(-0.023 -0.024)"/>
      <path class="cls-22" d="M87.03,151.477l.134-.109a42.419,42.419,0,0,0,8.754-9.192l.116-.176h-9Z"/>
    </g>
  </g>
</svg>
