<?xml version="1.0" encoding="utf-8"?>
<!-- Generator: Adobe Illustrator 22.1.0, SVG Export Plug-In . SVG Version: 6.00 Build 0)  -->
<svg version="1.1" id="Layer_1" xmlns="http://www.w3.org/2000/svg" xmlns:xlink="http://www.w3.org/1999/xlink" x="0px" y="0px"
	 viewBox="0 0 158 161" style="enable-background:new 0 0 158 161;" xml:space="preserve">
<style type="text/css">
	.st0{fill:#E6E6E6;}
	.st1{fill:#F2AE75;}
	.st2{fill:#F6CCB8;}
	.st3{fill:#F05D44;}
	.st4{fill:#FFFFFF;}
	.st5{opacity:0.8;fill:#F7CDB9;}
	.st6{fill:#F7CDB9;}
	.st7{fill:#3C2417;}
	.st8{fill:#2D1C12;}
</style>
<rect x="63.1" y="99.5" class="st0" width="31.6" height="13.6"/>
<g>
	<rect x="65.7" y="89" class="st1" width="26.4" height="55.4"/>
	<polygon class="st2" points="92.1,89.1 92.1,101.9 91.4,101.7 65.7,95.2 65.7,89.1 	"/>
</g>
<g>
	<polygon class="st0" points="86.2,121.9 78.9,129 71.7,121.9 67.3,124.4 74.8,132.6 78.9,132.6 83.1,132.6 90.6,124.4 	"/>
	<path class="st3" d="M145.7,163.4c-1.5-13.6-5.4-26.8-7.4-38c-2.1-12.3-22.1-13.4-43.6-21.5c0,0,1.9,25.1-15.8,25.1
		c-17.7,0-15.8-25.1-15.8-25.1c-21.5,8.1-41.4,9.2-43.6,21.5c-2,11.8-5.6,24.5-6.9,38H145.7z"/>
	<polygon class="st4" points="94.7,99.5 78.9,129 63.1,99.5 51.6,108.2 62,129.2 70.7,124.5 78.9,129 87.1,124.5 95.8,129.2 
		106.3,108.2 	"/>
</g>
<g>
	<g>
		<path class="st1" d="M107.7,50.5l0.9-11.6c0-15.2-14.5-27.5-29.7-27.5c-15.2,0-29.7,12.3-29.7,27.5l0.9,11.6
			c-0.8,0.2-1.6,0.6-2.3,1.1c-1.2,1-1.9,2.5-1.9,4.2v5.7c0,3,2.4,5.5,5.5,5.5C51.4,81.4,68.6,95,78.9,95c10.3,0,27.5-13.6,27.5-27.9
			c3,0,5.5-2.5,5.5-5.5v-5.7C111.9,53.2,110.1,51.1,107.7,50.5z"/>
		<path class="st5" d="M107.7,50.5l0.9-11.6c0-15.2-14.5-27.5-29.7-27.5c0,0,0,39,0,39c-4,8.5-6.6,20.9-6.6,20.9h6.6V95
			c10.3,0,27.5-13.6,27.5-27.9c3,0,5.5-2.5,5.5-5.5v-5.7C111.9,53.2,110.1,51.1,107.7,50.5z"/>
		<g>
			<g>
				<path class="st6" d="M70.6,53.6c0.1,2.4-1.8,4.4-4.2,4.5c-2.4,0.1-4.4-1.8-4.5-4.2c-0.1-2.4,1.8-4.4,4.2-4.5
					C68.5,49.3,70.5,51.2,70.6,53.6z"/>
				<path class="st7" d="M70.6,52.5c0.1,2.4-1.8,4.4-4.2,4.5c-2.4,0.1-4.4-1.8-4.5-4.2c-0.1-2.4,1.8-4.4,4.2-4.5
					C68.5,48.2,70.5,50.1,70.6,52.5z"/>
				<path class="st4" d="M68.8,51.3c0,0.6-0.4,1.1-1,1.1c-0.6,0-1.1-0.4-1.1-1c0-0.6,0.4-1.1,1-1.1C68.3,50.2,68.8,50.7,68.8,51.3z"
					/>
			</g>
			<g>
				<path class="st6" d="M95.9,53.6c0.1,2.4-1.8,4.4-4.2,4.5c-2.4,0.1-4.4-1.8-4.5-4.2c-0.1-2.4,1.8-4.4,4.2-4.5
					C93.8,49.3,95.8,51.2,95.9,53.6z"/>
				<path class="st7" d="M95.9,52.5c0.1,2.4-1.8,4.4-4.2,4.5c-2.4,0.1-4.4-1.8-4.5-4.2c-0.1-2.4,1.8-4.4,4.2-4.5
					C93.8,48.2,95.8,50.1,95.9,52.5z"/>
				<path class="st4" d="M94.1,51.3c0,0.6-0.4,1.1-1,1.1c-0.6,0-1.1-0.4-1.1-1c0-0.6,0.4-1.1,1-1.1C93.6,50.2,94.1,50.7,94.1,51.3z"
					/>
			</g>
		</g>
	</g>
	<path class="st8" d="M92.2,77.5c-3.9-4.1-12.1-4.6-13-4.6c-0.1,0-0.1,0-0.2,0c-0.9,0-9.1,0.5-13,4.6c-0.4,0.4-0.6,1-0.6,1.5
		c0.1,5.7,1,11.1,1.1,11.3c0.1,0.4,0.4,0.7,0.7,0.9c0.2,0.1,5.7,3.6,12,3.6c6.3,0,11.8-3.5,12-3.6c0.3-0.2,0.5-0.6,0.7-0.9
		c0.1-0.2,1-5.6,1.1-11.3C92.8,78.5,92.6,77.9,92.2,77.5z M87.8,88.2c-0.8,0.5-3.7,1.5-6,2v-2.9c0-1.5-1.2-2.8-2.8-2.8
		c-1.5,0-2.8,1.2-2.8,2.8v2.9c-2.3-0.5-5.2-1.5-6-2c-0.4-1.3-0.4-4.7-0.6-8.2c2.6-1.9,7.4-2.6,9.3-2.7c1.9,0.1,6.8,0.7,9.3,2.7
		C88.2,83.5,88.3,86.8,87.8,88.2z"/>
	<path class="st8" d="M93.8,5.6C86.7,0.3,75.9-2.2,65.4,4c-10.6,6.2-11.8,8-17,7.6c-1.7-0.1-3.3-0.4-3.5,1.3
		c-0.7,5.4,0.3,10,2.5,13.7c-3.6,14.7,3,31.4,3,31.4s-1.3-16.5,2.6-25.4c9.9,6.9,27.4,6.3,44.5-5.4c10.2,7.2,10.1,30.8,10.1,30.8
		S126.8,13.2,93.8,5.6z"/>
</g>
</svg>
