<svg xmlns="http://www.w3.org/2000/svg" viewBox="0 0 110 165">
  <defs>
    <style>
      .cls-1 {
        fill: #684675;
      }

      .cls-2 {
        clip-path: url(#clip-Canvas);
      }

      .cls-3 {
        fill: #e297ac;
      }

      .cls-4 {
        fill: #be5673;
      }

      .cls-5 {
        fill: rgba(125,50,71,0.55);
        opacity: 0.42;
      }

      .cls-6 {
        fill: #af4e69;
      }

      .cls-7 {
        fill: #d36281;
      }

      .cls-8 {
        fill: #fcc6bb;
      }

      .cls-9 {
        fill: #ffb1b1;
      }

      .cls-10 {
        fill: rgba(142,81,81,0.53);
        opacity: 0.38;
      }

      .cls-11 {
        clip-path: url(#clip-path);
      }

      .cls-12 {
        fill: #503558;
      }

      .cls-13 {
        clip-path: url(#clip-path-2);
      }

      .cls-14 {
        fill: #ffd4cb;
      }

      .cls-15 {
        fill: #f0baae;
      }

      .cls-16 {
        fill: #fabcbc;
      }

      .cls-17 {
        fill: #3e001e;
      }

      .cls-18 {
        fill: rgba(149,77,48,0.68);
        opacity: 0.239;
      }

      .cls-19 {
        fill: rgba(248,53,104,0.28);
      }

      .cls-19, .cls-20, .cls-22 {
        stroke-linejoin: round;
      }

      .cls-20, .cls-21, .cls-22 {
        fill: none;
      }

      .cls-21 {
        stroke: #f83568;
        stroke-width: 2px;
      }

      .cls-22 {
        stroke: #ff235d;
        stroke-linecap: round;
        stroke-width: 3px;
      }

      .cls-23, .cls-24 {
        stroke: none;
      }

      .cls-24 {
        fill: #f83568;
      }
    </style>
    <clipPath id="clip-path">
      <ellipse class="cls-1" cx="16.19" cy="16.45" rx="16.19" ry="16.45" transform="translate(73.62 10)"/>
    </clipPath>
    <clipPath id="clip-path-2">
      <ellipse class="cls-1" cx="16.61" cy="16.45" rx="16.61" ry="16.45" transform="translate(13 10)"/>
    </clipPath>
    <clipPath id="clip-Canvas">
      <rect width="110" height="165"/>
    </clipPath>
  </defs>
  <g class="cls-2">
    <g id="_2" data-name="2">
      <path class="cls-3" d="M22.358,56.96a44.86,44.86,0,0,1,61.082,16.27l14.57,25.087A44.308,44.308,0,0,1,81.643,159.04a44.86,44.86,0,0,1-61.082-16.27L5.991,117.682A44.309,44.309,0,0,1,22.358,56.96Z"/>
      <path class="cls-4" d="M59.031,99c35.136,0,44.023,30.926,43.975,31.292a12.785,12.785,0,0,1-.314,1.293A44.355,44.355,0,0,1,81.706,159.04a44.96,44.96,0,0,1-61.17-16.27l-4.26-7.324c-.086-.148-.141-.27-.261-.448S22.434,99,59.031,99Z"/>
      <path class="cls-5" d="M59.031,99c16.337,0,27,6.686,33.727,13.878C98.236,118.734,83.158,142,60,142s-40.905-19.461-33-29.231C33.493,105.38,43.585,99,59.031,99Z"/>
      <path class="cls-6" d="M31.881,155.69a44.374,44.374,0,0,1-9.15-9.51l-.122-.173L32,146l.021,9.8ZM87.03,146h9.006a36.588,36.588,0,0,1-3.825,4.852A51.833,51.833,0,0,1,87,155.5Z"/>
      <path class="cls-7" d="M49.306,130.062a4.781,4.781,0,0,0-1.916-1.861,3.455,3.455,0,0,1-.42-.24c-11.5-6.215-15.825-20.077-11.049-25.955,5.139-5.819,10.718-6,22.936-6,12.922,0,18.952.427,24.274,6.09,4.8,5.354.171,20.433-12.225,26.452q-.063.052-.137.109a6.768,6.768,0,0,0-.964.926C68.25,135.242,64.861,145,59.951,145,55.177,145,51.27,135.78,49.306,130.062Z"/>
      <path class="cls-8" d="M50.985,127.2l0,0a4.638,4.638,0,0,0-1.191-1.461c-10.013-4.975-13.842-16.81-9.787-21.77C44.281,99.155,48.923,99,59.089,99c10.751,0,15.769.354,20.2,5.036,3.992,4.427.143,16.9-10.171,21.873q-.053.044-.114.091a5.394,5.394,0,0,0-.642.588C67.148,131.853,64.263,142,60,142,55.9,142,52.562,132.6,50.985,127.2Z"/>
      <path class="cls-9" d="M59.5,88A11.5,11.5,0,0,1,71,99.5v8a11.5,11.5,0,0,1-23,0v-8A11.5,11.5,0,0,1,59.5,88Z"/>
      <rect class="cls-10" width="23" height="18" rx="9" transform="translate(48 90)"/>
      <g>
        <ellipse class="cls-1" cx="16.19" cy="16.45" rx="16.19" ry="16.45" transform="translate(73.62 10)"/>
        <g class="cls-11">
          <path class="cls-12" d="M95.507,19.335c10.483-2.729,17.017,8.754,8.771,17.817-8.516,7.546-14.539,4.246-17.541,0s-8.657-26.082-6.747-26.04c10.132.222,8.966,13.138,11.469,14.391,1.785.893,3.173-1.713,2.024-2.741,1.691.035,2.7,4.112,2.7,4.112S98.785,22.451,95.507,19.335Z"/>
        </g>
      </g>
      <g>
        <ellipse class="cls-1" cx="16.61" cy="16.45" rx="16.61" ry="16.45" transform="translate(13 10)"/>
        <g class="cls-13">
          <path class="cls-12" d="M22.839,18.335c-10.752-2.729-17.454,8.754-9,17.817,9.4,8.709,14.912,4.246,17.991,0s8.879-26.082,6.92-26.04c-10.392.222-9.2,13.138-11.763,14.391-1.831.893-3.255-1.713-2.076-2.741-1.734.035-2.768,4.112-2.768,4.112S19.477,21.451,22.839,18.335Z"/>
        </g>
      </g>
      <path class="cls-12" d="M60,24c18.778,0,34,12.592,34,28.125v18.75C94,86.408,71.6,99,60,99S26,86.408,26,70.875V52.125C26,36.592,41.222,24,60,24Z"/>
      <path class="cls-14" d="M60,23A30,30,0,0,1,90,53V73c0,16.568-19.764,30-30,30S30,89.568,30,73V53A30,30,0,0,1,60,23Z"/>
      <path class="cls-15" d="M30,59c2.061-3.818,1.281-8.874,6-11,.923.935,2.639,5,10,5S64,43,64,43s7.526,14.364,13,15a33.79,33.79,0,0,0,9,0,6.149,6.149,0,0,0,3,4c2.429,1.17,5.182-13.454,0-17S63.5,21.994,56,25,31.909,38.436,30,47,27.939,62.818,30,59Z"/>
      <path class="cls-16" d="M77.612,86.617c-2.442-1.164-3.352-4.622-2.032-7.725s4.368-4.674,6.809-3.509,3.352,4.622,2.032,7.725A5.906,5.906,0,0,1,79.316,87,3.933,3.933,0,0,1,77.612,86.617Zm-42-3.509c-1.311-3.1-.407-6.561,2.02-7.725s5.456.407,6.767,3.509.407,6.561-2.02,7.725A3.89,3.89,0,0,1,40.68,87,5.873,5.873,0,0,1,35.607,83.108Z"/>
      <path class="cls-9" d="M90,73V54h.25A8.75,8.75,0,0,1,99,62.75v1.5A8.75,8.75,0,0,1,90.25,73ZM29.75,73A8.75,8.75,0,0,1,21,64.25v-1.5A8.75,8.75,0,0,1,29.75,54H30V73Z"/>
      <path class="cls-17" d="M70,69a3,3,0,0,1,5.271-1.96c.555-.008,1.1-.024,1.656-.04a3.845,3.845,0,0,1-1.265,3.385A3,3,0,0,1,70,69ZM43.338,70.384A3.847,3.847,0,0,1,42.073,67c.554.016,1.1.033,1.656.04a3,3,0,1,1-.391,3.344Z"/>
      <path class="cls-18" d="M61,76.58c0-3.546,4.925-6.42,11-6.42s11,2.874,11,6.42S78.075,83,72,83,61,80.126,61,76.58Zm-27,0c0-3.546,4.925-6.42,11-6.42s11,2.874,11,6.42S51.075,83,45,83,34,80.126,34,76.58Z"/>
      <g>
        <g class="cls-19">
          <path class="cls-23" d="M 72.99990081787109 80.83969879150391 C 70.23606109619141 80.83969879150391 67.65277099609375 80.22040557861328 65.72591400146484 79.09591674804688 C 63.9681396484375 78.07010650634766 63.00009918212891 76.76464080810547 63.00009918212891 75.41999816894531 C 63.00009918212891 74.07535552978516 63.9681396484375 72.7698974609375 65.72591400146484 71.74408721923828 C 67.65277862548828 70.61959838867188 70.23606109619141 70.00030517578125 72.99990081787109 70.00030517578125 C 75.76374053955078 70.00030517578125 78.34703063964844 70.61959838867188 80.27388763427734 71.74408721923828 C 82.03166198730469 72.7698974609375 82.99970245361328 74.07535552978516 82.99970245361328 75.41999816894531 C 82.99970245361328 76.7646484375 82.03166198730469 78.07010650634766 80.27388763427734 79.09591674804688 C 78.34703063964844 80.22040557861328 75.76374053955078 80.83969879150391 72.99990081787109 80.83969879150391 Z M 45.99990081787109 80.83969879150391 C 43.23606109619141 80.83969879150391 40.65277099609375 80.22040557861328 38.72591018676758 79.09591674804688 C 36.9681396484375 78.07010650634766 36.00009918212891 76.76464080810547 36.00009918212891 75.41999816894531 C 36.00009918212891 74.07535552978516 36.9681396484375 72.7698974609375 38.72591018676758 71.74408721923828 C 40.65278244018555 70.61959838867188 43.23606109619141 70.00030517578125 45.99990081787109 70.00030517578125 C 48.76374053955078 70.00030517578125 51.34701919555664 70.61959838867188 53.27389144897461 71.74408721923828 C 55.03166198730469 72.7698974609375 55.99970245361328 74.07535552978516 55.99970245361328 75.41999816894531 C 55.99970245361328 76.76464080810547 55.03166198730469 78.07010650634766 53.27389144897461 79.09591674804688 C 51.34703063964844 80.22040557861328 48.76374053955078 80.83969879150391 45.99990081787109 80.83969879150391 Z"/>
          <path class="cls-24" d="M 45.99990081787109 71.00030517578125 C 43.44799041748047 71.00030517578125 40.98043060302734 71.58620452880859 39.22994232177734 72.60776519775391 C 37.81285095214844 73.43476867675781 37.00009918212891 74.45978546142578 37.00009918212891 75.41999816894531 C 37.00009918212891 76.38021850585938 37.81285095214844 77.40523529052734 39.22994232177734 78.23223876953125 C 40.98043060302734 79.25379943847656 43.44799041748047 79.83969879150391 45.99990081787109 79.83969879150391 C 48.55181121826172 79.83969879150391 51.01936340332031 79.25379943847656 52.76985931396484 78.23223876953125 C 54.18695068359375 77.40523529052734 54.99970245361328 76.38021850585938 54.99970245361328 75.41999816894531 C 54.99970245361328 74.45978546142578 54.18695068359375 73.43476867675781 52.76985931396484 72.60776519775391 C 51.01936340332031 71.58620452880859 48.55181121826172 71.00030517578125 45.99990081787109 71.00030517578125 M 72.99990081787109 71.00030517578125 C 70.44799041748047 71.00030517578125 67.98043823242188 71.58620452880859 66.22994232177734 72.60776519775391 C 64.81285095214844 73.43476867675781 64.00009918212891 74.45978546142578 64.00009918212891 75.41999816894531 C 64.00009918212891 76.38021850585938 64.81285095214844 77.40523529052734 66.22994232177734 78.23223876953125 C 67.98043823242188 79.25379943847656 70.44799041748047 79.83969879150391 72.99990081787109 79.83969879150391 C 75.55181121826172 79.83969879150391 78.01936340332031 79.25379943847656 79.76985931396484 78.23223876953125 C 81.18695068359375 77.40523529052734 81.99970245361328 76.38021850585938 81.99970245361328 75.41999816894531 C 81.99970245361328 74.45978546142578 81.18695068359375 73.43476867675781 79.76985931396484 72.60776519775391 C 78.01936340332031 71.58620452880859 75.55181121826172 71.00030517578125 72.99990081787109 71.00030517578125 M 45.99990081787109 69.00030517578125 C 52.07489776611328 69.00030517578125 56.99970245361328 71.87400054931641 56.99970245361328 75.41999816894531 C 56.99970245361328 78.96601104736328 52.07489776611328 81.83969879150391 45.99990081787109 81.83969879150391 C 39.92488861083984 81.83969879150391 35.00009918212891 78.96601104736328 35.00009918212891 75.41999816894531 C 35.00009918212891 71.87400054931641 39.92488861083984 69.00030517578125 45.99990081787109 69.00030517578125 Z M 72.99990081787109 69.00030517578125 C 79.07490539550781 69.00030517578125 83.99970245361328 71.87400054931641 83.99970245361328 75.41999816894531 C 83.99970245361328 78.96601104736328 79.07490539550781 81.83969879150391 72.99990081787109 81.83969879150391 C 66.92489624023438 81.83969879150391 62.00009918212891 78.96601104736328 62.00009918212891 75.41999816894531 C 62.00009918212891 71.87400054931641 66.92489624023438 69.00030517578125 72.99990081787109 69.00030517578125 Z"/>
        </g>
        <g class="cls-20">
          <path class="cls-23" d="M62,75.42C62,71.874,66.925,69,73,69s11,2.874,11,6.42-4.925,6.42-11,6.42S62,78.966,62,75.42Zm-27,0C35,71.874,39.925,69,46,69s11,2.874,11,6.42-4.925,6.42-11,6.42S35,78.966,35,75.42Z"/>
          <path class="cls-24" d="M 45.99990081787109 71.00030517578125 C 43.44799041748047 71.00030517578125 40.98043060302734 71.58620452880859 39.22994232177734 72.60776519775391 C 37.81285095214844 73.43476867675781 37.00009918212891 74.45978546142578 37.00009918212891 75.41999816894531 C 37.00009918212891 76.38021850585938 37.81285095214844 77.40523529052734 39.22994232177734 78.23223876953125 C 40.98043060302734 79.25379943847656 43.44799041748047 79.83969879150391 45.99990081787109 79.83969879150391 C 48.55181121826172 79.83969879150391 51.01936340332031 79.25379943847656 52.76985931396484 78.23223876953125 C 54.18695068359375 77.40523529052734 54.99970245361328 76.38021850585938 54.99970245361328 75.41999816894531 C 54.99970245361328 74.45978546142578 54.18695068359375 73.43476867675781 52.76985931396484 72.60776519775391 C 51.01936340332031 71.58620452880859 48.55181121826172 71.00030517578125 45.99990081787109 71.00030517578125 M 72.99990081787109 71.00030517578125 C 70.44799041748047 71.00030517578125 67.98043823242188 71.58620452880859 66.22994232177734 72.60776519775391 C 64.81285095214844 73.43476867675781 64.00009918212891 74.45978546142578 64.00009918212891 75.41999816894531 C 64.00009918212891 76.38021850585938 64.81285095214844 77.40523529052734 66.22994232177734 78.23223876953125 C 67.98043823242188 79.25379943847656 70.44799041748047 79.83969879150391 72.99990081787109 79.83969879150391 C 75.55181121826172 79.83969879150391 78.01936340332031 79.25379943847656 79.76985931396484 78.23223876953125 C 81.18695068359375 77.40523529052734 81.99970245361328 76.38021850585938 81.99970245361328 75.41999816894531 C 81.99970245361328 74.45978546142578 81.18695068359375 73.43476867675781 79.76985931396484 72.60776519775391 C 78.01936340332031 71.58620452880859 75.55181121826172 71.00030517578125 72.99990081787109 71.00030517578125 M 45.99990081787109 69.00030517578125 C 52.07489776611328 69.00030517578125 56.99970245361328 71.87400054931641 56.99970245361328 75.41999816894531 C 56.99970245361328 78.96601104736328 52.07489776611328 81.83969879150391 45.99990081787109 81.83969879150391 C 39.92488861083984 81.83969879150391 35.00009918212891 78.96601104736328 35.00009918212891 75.41999816894531 C 35.00009918212891 71.87400054931641 39.92488861083984 69.00030517578125 45.99990081787109 69.00030517578125 Z M 72.99990081787109 69.00030517578125 C 79.07490539550781 69.00030517578125 83.99970245361328 71.87400054931641 83.99970245361328 75.41999816894531 C 83.99970245361328 78.96601104736328 79.07490539550781 81.83969879150391 72.99990081787109 81.83969879150391 C 66.92489624023438 81.83969879150391 62.00009918212891 78.96601104736328 62.00009918212891 75.41999816894531 C 62.00009918212891 71.87400054931641 66.92489624023438 69.00030517578125 72.99990081787109 69.00030517578125 Z"/>
        </g>
      </g>
      <path class="cls-21" d="M56,74c1.653-2.27,5.432-2.909,7,0"/>
      <path class="cls-1" d="M19,47.587A24.751,24.751,0,0,1,29,31.078S26.658,1,59.333,1C88.025,1,89.667,28.764,89.667,28.764S99,42.566,99,50.744c0,13-6.054,5.125-9,14.256-.929-.528-1.918-1.563-3.833-9.629-1.622.2-1.578.56-5.833-1.157s-12.87-8.552-15.167-15.039c-9.053,7.935-16.929,9.255-21,9.255a16.272,16.272,0,0,1-9.333-3.471c-4.721,11.493-2.418,16.655-4.279,19.272s-3.6-9.04-8.494-5.577C20.788,59.794,18.382,51.676,19,47.587Z"/>
      <path class="cls-12" d="M65.3,39.866a30.844,30.844,0,0,1-21.131,8.8c-10.606,0-11.667-8.331-11.667-8.331s1.166,7.231,11.667,3.47S65.47,39.787,74.5,25.294a38.038,38.038,0,0,1-8.512,13.889C76.421,52.108,82.14,50.483,85,50.744c2.938.269,6.952-8.132,3.5-15.039,7.09,3.852,7.956,20.259-3.5,20.823q-.281.014-.561.014C74.918,56.542,66.831,44.656,65.3,39.866Z"/>
      <path class="cls-17" d="M73.153,60.918c-3.016.013-6.141,1.85-6.1,1.109s3.179-2.995,6.195-3.007,5.912,2.216,5.869,2.957S76.169,60.905,73.153,60.918Z"/>
      <path class="cls-17" d="M73.153,60.918c-3.016.013-6.141,1.85-6.1,1.109s3.179-2.995,6.195-3.007,5.912,2.216,5.869,2.957S76.169,60.905,73.153,60.918Z" transform="translate(-27)"/>
      <path class="cls-22" d="M55,84a15.5,15.5,0,0,0,5,1,15.5,15.5,0,0,0,5-1"/>
    </g>
  </g>
</svg>
