<?xml version="1.0" encoding="utf-8"?>
<!-- Generator: Adobe Illustrator 22.1.0, SVG Export Plug-In . SVG Version: 6.00 Build 0)  -->
<svg version="1.1" id="Layer_1" xmlns="http://www.w3.org/2000/svg" xmlns:xlink="http://www.w3.org/1999/xlink" x="0px" y="0px"
	 viewBox="0 0 110 178.6" style="enable-background:new 0 0 110 178.6;" xml:space="preserve">
<style type="text/css">
	.st0{fill:#F6CCB8;}
	.st1{fill:#32303A;}
	.st2{fill:#FFFFFF;}
	.st3{opacity:0.8;fill:#F6CCB8;}
	.st4{fill:#3C2415;}
	.st5{fill:#F05D44;}
	.st6{fill:#2D1B10;}
	.st7{fill:#3C2417;}
</style>
<g>
	<polygon class="st0" points="66.3,118 66.3,104 44.3,104 44.3,118 38.8,118.5 44.3,153.9 66.3,153.9 71.8,118.5 	"/>
	<polygon class="st0" points="44.3,104.1 44.3,111.2 66.3,118 66.3,104.1 	"/>
</g>
<g>
	<polygon class="st1" points="77.9,179.8 37.3,170.5 34.8,179.8 	"/>
	<polygon class="st1" points="75.8,179.8 73.3,170.5 32.7,179.8 	"/>
	<path class="st1" d="M105.8,179.8l-0.7-26.1c-1.2-9.4-3.4-20-11.3-27.6c-7.9-7.6-17.4-7.3-25.7-7.9c0,0,0,0.1,0,0.4l-12.8,35
		l-12.8-35.1c0-0.2,0-0.3,0-0.3c-8.3,0.6-17.8,0.4-25.7,7.9c-7.9,7.5-10,18.2-11.3,27.6l-0.7,26.1H105.8z"/>
	<g>
		<polygon class="st2" points="29.9,127.1 42,131.7 37.2,138.3 55.3,153.5 42.5,118.2 		"/>
		<polygon class="st2" points="80.7,127.1 68.1,118.2 55.3,153.5 73.4,138.3 68.7,131.7 		"/>
	</g>
</g>
<g>
	<g>
		<path class="st0" d="M80.4,66.7V55.2c0-12.2-14.1-27.5-25.2-27.5C44.1,27.7,30,43.1,30,55.2v11.4c-3.1,0-5.6,2.5-5.6,5.5v5.7
			c0,3,2.5,5.5,5.6,5.5c0,12.2,14.1,27.9,25.2,27.9c11.1,0,25.2-15.8,25.2-27.9c3.1,0,5.6-2.5,5.6-5.5v-5.7
			C86,69.1,83.5,66.7,80.4,66.7z"/>
		<path class="st3" d="M55.2,91v20.3c11.1,0,25.2-15.8,25.2-27.9c3.1,0,5.6-2.5,5.6-5.5v-5.7c0-3-2.5-5.5-5.6-5.5V55.2
			c0-12.2-14.1-27.5-25.2-27.5v44.6c-4.1,8.5-5.6,17.6-5.6,17.6L55.2,91z"/>
		<g>
			<g>
				<path class="st0" d="M45.9,74c0.1,2.4-1.8,4.4-4.2,4.5c-2.4,0.1-4.4-1.8-4.5-4.2c-0.1-2.4,1.8-4.4,4.2-4.5
					C43.8,69.7,45.8,71.6,45.9,74z"/>
				<path class="st4" d="M45.9,72.9c0.1,2.4-1.8,4.4-4.2,4.5c-2.4,0.1-4.4-1.8-4.5-4.2c-0.1-2.4,1.8-4.4,4.2-4.5
					C43.8,68.6,45.8,70.5,45.9,72.9z"/>
				<path class="st2" d="M44.1,73.8c0,0.6-0.4,1.1-1,1.1c-0.6,0-1.1-0.4-1.1-1c0-0.6,0.4-1.1,1-1.1C43.6,72.8,44.1,73.2,44.1,73.8z"
					/>
				<path class="st4" d="M46.8,69.5C46,67.7,44,66.3,41.7,66c-1.4-0.2-4,0.1-6.2,2.9c-0.1,0-0.2,0-0.3,0c-0.2,0-0.6-0.1-0.9-0.2
					c-0.7-0.3-1.3-0.9-1.3-0.9c0,0-0.1-0.1-0.2,0c-0.1,0-0.1,0.1-0.1,0.2c0,0,0.1,0.2,0.2,0.5c0.2,0.3,0.4,0.6,0.7,0.9
					c0.3,0.3,0.7,0.6,1,0.7c0.2,0.1,0.3,0.1,0.4,0.2c0.1,0,0.2,0.1,0.2,0.1c0.3,0,0.6-0.1,0.7-0.4c1.5-2,3.4-3,5.5-2.8
					c1.8,0.2,3.6,1.4,4.2,2.9c0.1,0.3,0.4,0.4,0.7,0.3C46.8,70.2,46.9,69.8,46.8,69.5z"/>
			</g>
			<g>
				<circle class="st0" cx="69" cy="74.1" r="4.3"/>
				<circle class="st4" cx="69" cy="73" r="4.3"/>
				<path class="st2" d="M71.6,73.8c0,0.6-0.4,1.1-1,1.1c-0.6,0-1.1-0.4-1.1-1c0-0.6,0.4-1.1,1-1.1C71.1,72.8,71.6,73.2,71.6,73.8z"
					/>
				<path class="st4" d="M63.7,69.5c0.8-1.9,2.9-3.3,5.1-3.5c1.4-0.2,4,0.1,6.2,2.9c0.1,0,0.2,0,0.3,0c0.2,0,0.6-0.1,0.9-0.2
					c0.7-0.3,1.3-0.9,1.3-0.9c0,0,0.1-0.1,0.2,0c0.1,0,0.1,0.1,0.1,0.2c0,0-0.1,0.2-0.2,0.5c-0.2,0.3-0.4,0.6-0.7,0.9
					c-0.3,0.3-0.7,0.6-1,0.7c-0.2,0.1-0.3,0.1-0.4,0.2c-0.1,0-0.2,0.1-0.2,0.1c-0.3,0-0.6-0.1-0.7-0.4c-1.5-2-3.4-3-5.5-2.8
					c-1.8,0.2-3.6,1.4-4.2,2.9c-0.1,0.3-0.4,0.4-0.7,0.3C63.7,70.2,63.6,69.8,63.7,69.5z"/>
			</g>
		</g>
	</g>
	<g>
		<path class="st5" d="M64,95.1c0,4.3-3.9,7.8-8.8,7.8s-8.8-3.5-8.8-7.8H64z"/>
		<path class="st2" d="M61.3,98H48.9c-0.6,0-1.1-0.5-1.1-1.1v-1.8h14.7v1.8C62.4,97.5,61.9,98,61.3,98z"/>
	</g>
	<g>
		<path class="st5" d="M86,83.1c0,1.5-1.2,2.8-2.7,2.8c-1.5,0-2.8-1.2-2.8-2.8c0-1.5,1.2-2.8,2.8-2.8C84.8,80.3,86,81.6,86,83.1z"/>
		<circle class="st5" cx="27.1" cy="83.1" r="2.8"/>
	</g>
	<circle class="st6" cx="73.6" cy="27.7" r="15.4"/>
	<path class="st2" d="M80.2,65.3c-2.2-1.5-6.3-1.5-9.9-1.5C64.1,63.8,60,65,58,67.4c-0.7-0.4-1.7-0.5-2.8-0.5
		c-1.1,0-2.1,0.1-2.8,0.5c-2-2.4-6.1-3.6-12.3-3.6c-3.7,0-7.7,0-9.9,1.5h-3.9v4.2l1.7,0.9c0,6.5,3.2,14.1,12.1,14.1
		c7.3,0,11.8-4,13.5-11.8c0.1-0.6,0.2-1.1,0.2-1.6c0.1-0.4,0.7-0.9,1.5-0.9c0.8,0,1.4,0.4,1.5,0.9c0,0.5,0,1.1,0.2,1.6
		c1.6,7.8,6.2,11.8,13.5,11.8c8.9,0,12.1-7.6,12.1-14.1l1.7-0.9v-4.2H80.2z M51.6,72.3c-1.4,6.9-5.2,10.2-11.5,10.2
		c-9.6,0-10.1-10.2-10.1-12.2c0-1.4,0.3-2.5,1-3.1c1.3-1.3,6-1.4,9.1-1.4c7,0,9.7,1.6,10.8,2.9C51.7,69.6,51.9,70.8,51.6,72.3z
		 M70.3,82.5c-6.3,0-10.1-3.3-11.5-10.2c-0.3-1.4-0.1-2.6,0.7-3.6c1.1-1.3,3.8-2.9,10.8-2.9c3.6,0,7.7,0,9.1,1.4
		c0.7,0.7,1,1.7,1,3.1C80.4,72.3,79.9,82.5,70.3,82.5z"/>
	<path class="st7" d="M43.9,55.7c-0.7,2.7-2.2,6.2-4.8,8.3c7.5-1.9,13.8-6.3,18.5-11.6c-0.5,2.7-2.2,5.7-4.8,8.3c2-0.9,4-2,5.8-3.4
		c4.2-2.9,6.8-6.7,9.5-10.6c2.7,9.8,7,19.2,17.4,24.3c7.5-15.1,5.9-49.9-26.9-50.9C18.1,19,19.5,62.4,22.3,73
		C30.8,70.3,42.2,58.3,43.9,55.7z"/>
</g>
</svg>
