<?xml version="1.0" encoding="utf-8"?>
<!-- Generator: Adobe Illustrator 22.1.0, SVG Export Plug-In . SVG Version: 6.00 Build 0)  -->
<svg version="1.1" id="Layer_1" xmlns="http://www.w3.org/2000/svg" xmlns:xlink="http://www.w3.org/1999/xlink" x="0px" y="0px"
	 viewBox="0 0 148 170.9" style="enable-background:new 0 0 148 170.9;" xml:space="preserve">
<style type="text/css">
	.st0{fill:#F6CCB8;}
	.st1{fill:#FFFFFF;}
	.st2{fill:#4F3C30;}
	.st3{fill:#F7CDB9;}
	.st4{opacity:0.8;fill:#F7CDB9;}
	.st5{fill:#3C2417;}
	.st6{fill:#F05D44;}
</style>
<g>
	<polygon class="st0" points="91.1,111.8 88.1,109.9 88.1,96.8 61.7,96.8 61.7,109.9 58.6,111.7 58.6,148.8 61.7,148.8 61.7,154.4 
		88.1,154.4 88.1,148.8 91.1,148.8 	"/>
	<polygon class="st0" points="88.1,98.1 88.1,109.9 61.7,107.4 61.7,98.1 	"/>
</g>
<g>
	<path class="st1" d="M104.7,173.4v-54.8H89.5c0,7.1-6.7,12.9-14.7,12.9S60,125.7,60,118.6H45v54.8H104.7z"/>
	<g>
		<path class="st2" d="M60.2,173.4v-62.6c-21.5,8.1-42.5,9.2-44.7,21.5C13.4,145,9,158.8,8,173.4H60.2z"/>
	</g>
	<g>
		<path class="st2" d="M141.7,173.4c-1-14.6-5.3-28.4-7.5-41.1c-2.1-12.3-23.2-13.4-44.7-21.5v62.6H141.7z"/>
	</g>
</g>
<g id="man_63_">
	<g>
		<path class="st3" d="M103.3,58.5l0.9-11.6c0-15.2-14.5-27.5-29.7-27.5c-15.2,0-29.7,12.3-29.7,27.5l0.9,11.6
			c-0.8,0.2-1.6,0.6-2.3,1.1c-1.2,1-1.9,2.5-1.9,4.2v5.7c0,3,2.4,5.5,5.5,5.5C47,89.4,64.2,103,74.5,103c10.3,0,27.5-13.6,27.5-27.9
			c3,0,5.5-2.5,5.5-5.5v-5.7C107.5,61.2,105.8,59.1,103.3,58.5z"/>
		<path class="st4" d="M103.3,58.5l0.9-11.6c0-15.2-14.5-27.5-29.7-27.5c0,0,0,39,0,39c-4,8.5-6.6,20.9-6.6,20.9h6.6V103
			c10.3,0,27.5-13.6,27.5-27.9c3,0,5.5-2.5,5.5-5.5v-5.7C107.5,61.2,105.8,59.1,103.3,58.5z"/>
		<g>
			<g>
				<path class="st3" d="M66.2,61.6c0.1,2.4-1.8,4.4-4.2,4.5c-2.4,0.1-4.4-1.8-4.5-4.2c-0.1-2.4,1.8-4.4,4.2-4.5
					C64.1,57.3,66.1,59.2,66.2,61.6z"/>
				<path class="st5" d="M66.2,60.5c0.1,2.4-1.8,4.4-4.2,4.5c-2.4,0.1-4.4-1.8-4.5-4.2c-0.1-2.4,1.8-4.4,4.2-4.5
					C64.1,56.2,66.1,58.1,66.2,60.5z"/>
				<path class="st1" d="M64.4,59.2c0,0.6-0.4,1.1-1,1.1c-0.6,0-1.1-0.4-1.1-1c0-0.6,0.4-1.1,1-1.1C63.9,58.2,64.4,58.6,64.4,59.2z"
					/>
			</g>
			<g>
				<path class="st3" d="M91.5,61.6c0.1,2.4-1.8,4.4-4.2,4.5c-2.4,0.1-4.4-1.8-4.5-4.2c-0.1-2.4,1.8-4.4,4.2-4.5
					C89.4,57.3,91.4,59.2,91.5,61.6z"/>
				<path class="st5" d="M91.5,60.5c0.1,2.4-1.8,4.4-4.2,4.5c-2.4,0.1-4.4-1.8-4.5-4.2c-0.1-2.4,1.8-4.4,4.2-4.5
					C89.4,56.2,91.4,58.1,91.5,60.5z"/>
				<path class="st1" d="M89.7,59.2c0,0.6-0.4,1.1-1,1.1c-0.6,0-1.1-0.4-1.1-1c0-0.6,0.4-1.1,1-1.1C89.2,58.2,89.7,58.6,89.7,59.2z"
					/>
			</g>
		</g>
	</g>
	<path class="st5" d="M105.5,26.6C100.4,17.1,91,7.7,74.9,7.7c-16.1,0-25.5,9.3-30.6,18.8c-6.9,12.9-5.8,30.2-2.7,40
		c0.6,1.8,1.2,3.3,1.8,4.5c0.9,1.8,1.9,2.8,2.9,3c0,0.3,0,0.5,0,0.5s-4.2,31.6,28.6,31.6s28.5-31.6,28.5-31.6s0-0.2,0-0.5
		c1-0.1,2-1.2,3-3c0.7-1.2,1.3-2.8,1.8-4.5C111.3,56.7,112.4,39.5,105.5,26.6z M102.7,34.7v0.2C102.6,34.8,102.6,34.7,102.7,34.7
		L102.7,34.7z M92.7,83.4H57.1c-4.9,0-8.9-8.4-8.9-13.3v-6.9v-2.8c0.5-0.7,0.9-1.5,1.4-2.3c3-5.4,5.1-12.8,6.7-17.5
		c0.1-0.2,0.2-0.5,0.2-0.7c0.1,0.1,0.1,0.3,0.2,0.4c2.4,6,6.5,10.6,12.9,11.6c-0.9-1.4-1.4-4-1.3-5.7c1.1,2.2,3.6,4,6.6,5.5
		c5.6,2.8,13,4.3,16.1,4c-0.3-0.7-1-1.7-1-3.8c2.8,3.3,4.4,4.8,8.5,6c-0.6-1.7-0.9-4-0.5-6.7c0,0,0.9,3.4,2.3,6.8
		c0.4,1,0.8,2,1.2,2.8v2.3v6.9C101.5,75,97.6,83.4,92.7,83.4z"/>
	<g>
		<path class="st6" d="M84.4,85.3c0,4.9-4.4,8.8-9.9,8.8c-5.5,0-9.9-3.9-9.9-8.8H84.4z"/>
		<path class="st1" d="M81.6,88.6H67.3c-0.6,0-1.1-0.5-1.1-1.1v-2.2h16.5v2.2C82.7,88.1,82.2,88.6,81.6,88.6z"/>
	</g>
</g>
</svg>
