<svg xmlns="http://www.w3.org/2000/svg" viewBox="0 0 104 161">
  <defs>
    <style>
      .cls-1 {
        fill: #ffb1b1;
      }

      .cls-2 {
        clip-path: url(#clip-Canvas);
      }

      .cls-3 {
        fill: #e297ac;
      }

      .cls-4 {
        fill: #1f5edf;
      }

      .cls-5 {
        fill: rgba(22,51,110,0.55);
        opacity: 0.42;
      }

      .cls-6 {
        fill: #2862d8;
      }

      .cls-7 {
        fill: rgba(28,60,124,0.77);
        opacity: 0.529;
      }

      .cls-8 {
        fill: #6193fa;
      }

      .cls-9 {
        fill: #1a2d55;
      }

      .cls-10 {
        fill: rgba(142,81,81,0.53);
        opacity: 0.38;
      }

      .cls-11 {
        fill: #d6a1b6;
      }

      .cls-12 {
        fill: #ffd4cb;
      }

      .cls-13 {
        fill: #fabcbc;
      }

      .cls-14 {
        fill: #dda99e;
      }

      .cls-15 {
        fill: #3e001e;
      }

      .cls-16 {
        fill: #ff235d;
      }
    </style>
    <clipPath id="clip-Canvas">
      <rect width="104" height="161"/>
    </clipPath>
  </defs>
  <g class="cls-2">
    <g>
      <path class="cls-3" d="M22.358,52.96a44.86,44.86,0,0,1,61.082,16.27l14.57,25.087A44.308,44.308,0,0,1,81.643,155.04a44.86,44.86,0,0,1-61.082-16.27L5.991,113.682A44.309,44.309,0,0,1,22.358,52.96Z"/>
      <path class="cls-4" d="M59.031,95c35.136,0,44.023,30.926,43.975,31.292a12.815,12.815,0,0,1-.314,1.293A44.355,44.355,0,0,1,81.706,155.04a44.96,44.96,0,0,1-61.17-16.27l-4.26-7.324c-.086-.148-.141-.27-.261-.448S22.434,95,59.031,95Z"/>
      <path class="cls-5" d="M59.031,95c16.337,0,27,6.686,33.727,13.878C98.236,114.733,83.158,138,60,138s-40.905-19.461-33-29.231C33.493,101.38,43.585,95,59.031,95Z"/>
      <path class="cls-6" d="M59.088,95c10.752,0,15.769.354,20.2,5.037C84.321,105.621,76.879,124,59.726,124s-24.921-17.672-19.72-24.034C44.281,95.155,48.923,95,59.088,95Z"/>
      <path class="cls-7" d="M77,129c-.265-1.3-11-6-11-6l-3-6,5-21s7.491-.916,10,1,5.179,8.462,5,15c-.171,6.2-5.178,17.1-5.918,17.1C77.042,129.1,77.014,129.066,77,129ZM36.032,112.067c-.18-6.468,2.49-12.965,4.994-14.862s9.988-.989,9.988-.989L56,116.993l-2.994,5.946s-10.724,4.687-10.988,5.968c-.014.066-.041.1-.081.1C41.2,129.006,36.2,118.2,36.032,112.067Z"/>
      <path class="cls-8" d="M75,125c-.264-1.3-9-3-9-3l-3-5,5-21s7.491-.916,10,1,3.18,6.462,3,13c-.169,6.14-5.078,15.118-5.9,15.117C75.052,125.117,75.016,125.079,75,125ZM38.031,110.067c-.18-6.468.491-10.966,2.994-12.862s9.988-.989,9.988-.989L56,116.993l-2.994,4.946s-8.725,1.687-8.988,2.968c-.016.078-.052.116-.1.116C43.1,125.024,38.2,116.141,38.031,110.067Z"/>
      <path class="cls-9" d="M53,159V122a9.466,9.466,0,0,0-1.884-3.936,17.028,17.028,0,0,1-8.474-19.709c.037-.131.116-.39.116-.39A50.491,50.491,0,0,1,59,95a50.5,50.5,0,0,1,16.242,2.965s.092.305.135.46A17.03,17.03,0,0,1,69.466,116.4c.065.1-.057.288-.466.6-2.03,1.565-3,5-3,5v37c0,1.89-.183,2-6,2C53.342,161,53,160.928,53,159Z"/>
      <rect class="cls-1" width="23" height="31" rx="11.5" transform="translate(48 84)"/>
      <path class="cls-10" d="M57,86h5a9,9,0,0,1,0,18H57a9,9,0,0,1,0-18Z"/>
      <path class="cls-11" d="M35,0h0A35,35,0,0,1,70,35V45.96A28.04,28.04,0,0,1,41.96,74H28.04A28.04,28.04,0,0,1,0,45.96V35A35,35,0,0,1,35,0Z" transform="translate(25 12)"/>
      <rect class="cls-12" width="60" height="80" rx="30" transform="translate(30 19)"/>
      <path class="cls-13" d="M77.612,82.617c-2.442-1.165-3.352-4.623-2.032-7.726s4.368-4.673,6.809-3.509,3.352,4.623,2.032,7.726A5.906,5.906,0,0,1,79.316,83,3.933,3.933,0,0,1,77.612,82.617Zm-42-3.509c-1.311-3.1-.407-6.561,2.02-7.726s5.456.408,6.767,3.509.407,6.561-2.02,7.726A3.89,3.89,0,0,1,40.68,83,5.873,5.873,0,0,1,35.607,79.108Z"/>
      <path class="cls-1" d="M9,0h1a0,0,0,0,1,0,0V21a0,0,0,0,1,0,0H9a9,9,0,0,1-9-9V9A9,9,0,0,1,9,0Z" transform="translate(20 50)"/>
      <path class="cls-1" d="M0,0H1a9,9,0,0,1,9,9v3a9,9,0,0,1-9,9H0a0,0,0,0,1,0,0V0A0,0,0,0,1,0,0Z" transform="translate(90 50)"/>
      <path class="cls-14" d="M49,52l-3,4v2L45,68l-6,7,8-4-1-3,2-11,4-5-2-6Z"/>
      <path class="cls-15" d="M70,65a3,3,0,1,1,3,3A3,3,0,0,1,70,65ZM43,65a3,3,0,1,1,3,3A3,3,0,0,1,43,65Z"/>
      <path class="cls-15" d="M76.455,57.937l-7.778-2.049a1.976,1.976,0,0,1-1.423-2.425,2.017,2.017,0,0,1,2.465-1.4L77.5,54.113a1.976,1.976,0,0,1,1.423,2.425A2.009,2.009,0,0,1,76.977,58,2.048,2.048,0,0,1,76.455,57.937Zm-36.375-1.4A1.978,1.978,0,0,1,41.5,54.113l7.777-2.049a2.017,2.017,0,0,1,2.465,1.4,1.976,1.976,0,0,1-1.423,2.425l-7.778,2.049a2.049,2.049,0,0,1-.522.068A2.009,2.009,0,0,1,40.08,56.537Z"/>
      <path class="cls-16" d="M53,80c.41-1,13.573-.693,14,0s-2.059,4-7,4S52.59,81,53,80Z"/>
      <path class="cls-11" d="M25,49.95c.3.989,4.13-3.485,4.369,6.881.55,1.576,2.926-8.4,2.185-11.881S37.146,29,40,29s10.6,4.909,20.769,4.909,16.277-5.6,18.385-5.16,9.372,7.261,9.2,15.121,2.185,14.17,2.185,12.961c0-5.335,3.518-4.72,5.462-5.48C96,24.05,77.526,12,60,12S25,23.442,25,49.95Z"/>
      <path class="cls-9" d="M32.1,151.878l-.141-.108a44.69,44.69,0,0,1-9.225-9.588l-.123-.174L32.077,142Z" transform="translate(-0.023 -0.024)"/>
      <path class="cls-9" d="M87.03,151.477l.134-.109a42.419,42.419,0,0,0,8.754-9.192l.116-.176h-9Z"/>
    </g>
  </g>
</svg>
