<?xml version="1.0" encoding="utf-8"?>
<!-- Generator: Adobe Illustrator 22.1.0, SVG Export Plug-In . SVG Version: 6.00 Build 0)  -->
<svg version="1.1" id="Layer_1" xmlns="http://www.w3.org/2000/svg" xmlns:xlink="http://www.w3.org/1999/xlink" x="0px" y="0px"
	 viewBox="0 0 110 169.7" style="enable-background:new 0 0 110 169.7;" xml:space="preserve">
<style type="text/css">
	.st0{fill:#8F6642;}
	.st1{fill:#F6CCB8;}
	.st2{fill:#7FA1CC;}
	.st3{opacity:0.8;fill:#F7CDB9;}
	.st4{fill:#F7CDB9;}
	.st5{fill:#3C2417;}
	.st6{fill:#FFFFFF;}
	.st7{fill:#F05D44;}
</style>
<path class="st0" d="M91.2,109c0,0.3-0.1,0.5-0.2,0.7c-0.6,2.4-1.2,4.6-1.9,6.7c-1.2,3.5-2.4,6.4-4,8.6c-0.7,1-1.6,1.9-2.5,2.6
	c-1.8,1.3-3.9,2-6.7,2H34.9c-2.9,0-5.1-0.8-6.9-2.2c-0.8-0.7-1.6-1.5-2.3-2.4c-1.6-2.2-2.8-5.1-4-8.6c-0.7-2-1.3-4.3-1.9-6.7
	c-0.1-0.2-0.1-0.5-0.2-0.7c-6.4-28.3-4.5-78.5,10.1-93.7c6-6.2,13.4-11.7,25.7-11.7c9.7,0,16.4,3.4,21.7,8c1.4,1.2,2.7,2.4,3.9,3.7
	c0.5,0.5,1,1.1,1.4,1.7C95.9,33.9,97.4,81.7,91.2,109z"/>
<g>
	<path class="st1" d="M75,106.7l-8.5-0.7c0,0,0-5.5,0-9.6l0-4.4c0,0-22,0-22,0l0,4.4c0,4.1,0,9.6,0,9.6l-8.5,0.7L30.2,142
		c0,0,50.6,0,50.6,0C80.8,142,75,106.7,75,106.7z"/>
	<polygon class="st1" points="44.5,93.2 44.5,98.3 66.5,106.1 66.5,93.2 	"/>
</g>
<path class="st2" d="M106.5,170.2H4.4c0.3-11,0.7-20.1,1-23.6l0.1-0.5c1.2-10.4,2.6-23.3,11.8-32.1c5.2-5,11.8-6.7,18-7.4
	c0.5-0.1,1.1-0.1,1.6-0.1c-0.2,4.6-0.1,24.1,18.5,24.1c18.6,0,18.7-19.6,18.5-24.1c0.5,0,1,0.1,1.6,0.1c6.3,0.6,13,2.3,18.2,7.4
	c9.2,8.8,10.6,21.7,11.8,32.1l0,0.5C105.9,150.1,106.2,159.2,106.5,170.2z"/>
<g id="woman_17_">
	<g>
		<path class="st1" d="M80.8,54.1V42.7c0-12.2-14.1-27.5-25.2-27.5c-11.1,0-25.2,15.3-25.2,27.5v11.4c-3.1,0-5.6,2.5-5.6,5.5v5.7
			c0,3,2.5,5.5,5.6,5.5c0,12.2,14.1,27.9,25.2,27.9c11.1,0,25.2-15.8,25.2-27.9c3.1,0,5.6-2.5,5.6-5.5v-5.7
			C86.4,56.6,83.9,54.1,80.8,54.1z"/>
		<path class="st3" d="M55.6,78.4v20.3c11.1,0,25.2-15.8,25.2-27.9c3.1,0,5.6-2.5,5.6-5.5v-5.7c0-3-2.5-5.5-5.6-5.5V42.7
			c0-12.2-14.1-27.5-25.2-27.5v44.6C51.5,68.3,50,77.3,50,77.3L55.6,78.4z"/>
		<g>
			<g>
				<path class="st4" d="M46.2,61.4c0.1,2.4-1.8,4.4-4.2,4.5c-2.4,0.1-4.4-1.8-4.5-4.2c-0.1-2.4,1.8-4.4,4.2-4.5
					C44.1,57.1,46.1,59,46.2,61.4z"/>
				<path class="st5" d="M46.2,60.3c0.1,2.4-1.8,4.4-4.2,4.5c-2.4,0.1-4.4-1.8-4.5-4.2c-0.1-2.4,1.8-4.4,4.2-4.5
					C44.1,56,46.1,57.9,46.2,60.3z"/>
				<path class="st6" d="M44.4,59.1c0,0.6-0.4,1.1-1,1.1c-0.6,0-1.1-0.4-1.1-1c0-0.6,0.4-1.1,1-1.1C43.9,58,44.4,58.5,44.4,59.1z"/>
				<path class="st5" d="M47.1,57c-0.8-1.9-2.9-3.3-5.1-3.5c-1.4-0.2-4,0.1-6.2,2.9c-0.1,0-0.2,0-0.3,0c-0.2,0-0.6-0.1-0.9-0.2
					c-0.7-0.3-1.3-0.9-1.3-0.9c0,0-0.1-0.1-0.2,0c-0.1,0-0.1,0.1-0.1,0.2c0,0,0.1,0.2,0.2,0.5c0.2,0.3,0.4,0.6,0.7,0.9
					c0.3,0.3,0.7,0.6,1,0.7c0.2,0.1,0.3,0.1,0.4,0.2c0.1,0,0.2,0.1,0.2,0.1c0.3,0,0.6-0.1,0.7-0.4c1.5-2,3.4-3,5.5-2.8
					c1.8,0.2,3.6,1.4,4.2,2.9c0.1,0.3,0.4,0.4,0.7,0.3C47.1,57.6,47.3,57.3,47.1,57z"/>
			</g>
			<g>
				<path class="st4" d="M73.7,61.4c0.1,2.4-1.8,4.4-4.2,4.5c-2.4,0.1-4.4-1.8-4.5-4.2c-0.1-2.4,1.8-4.4,4.2-4.5
					C71.6,57.1,73.6,59,73.7,61.4z"/>
				<path class="st5" d="M73.7,60.3c0.1,2.4-1.8,4.4-4.2,4.5c-2.4,0.1-4.4-1.8-4.5-4.2c-0.1-2.4,1.8-4.4,4.2-4.5
					C71.6,56,73.6,57.9,73.7,60.3z"/>
				<path class="st6" d="M71.9,59.1c0,0.6-0.4,1.1-1,1.1c-0.6,0-1.1-0.4-1.1-1c0-0.6,0.4-1.1,1-1.1C71.4,58,71.9,58.5,71.9,59.1z"/>
				<path class="st5" d="M64.1,57c0.8-1.9,2.9-3.3,5.1-3.5c1.4-0.2,4,0.1,6.2,2.9c0.1,0,0.2,0,0.3,0c0.2,0,0.6-0.1,0.9-0.2
					c0.7-0.3,1.3-0.9,1.3-0.9c0,0,0.1-0.1,0.2,0c0.1,0,0.1,0.1,0.1,0.2c0,0-0.1,0.2-0.2,0.5c-0.2,0.3-0.4,0.6-0.7,0.9
					c-0.3,0.3-0.7,0.6-1,0.7c-0.2,0.1-0.3,0.1-0.4,0.2c-0.1,0-0.2,0.1-0.2,0.1c-0.3,0-0.6-0.1-0.7-0.4c-1.5-2-3.4-3-5.5-2.8
					c-1.8,0.2-3.6,1.4-4.2,2.9c-0.1,0.3-0.4,0.4-0.7,0.3C64.1,57.6,63.9,57.3,64.1,57z"/>
			</g>
		</g>
	</g>
	<g>
		<path class="st7" d="M64.4,82.5c0,4.3-3.9,7.8-8.8,7.8s-8.8-3.5-8.8-7.8H64.4z"/>
		<path class="st6" d="M61.7,85.4H49.3c-0.6,0-1.1-0.5-1.1-1.1v-1.8h14.7v1.8C62.8,84.9,62.3,85.4,61.7,85.4z"/>
	</g>
	<g>
		<path class="st2" d="M29.3,76.6c-0.6,0-1.1-0.5-1.1-1.1v-4.6c0-0.6,0.5-1.1,1.1-1.1c0.6,0,1.1,0.5,1.1,1.1v4.6
			C30.4,76.1,29.9,76.6,29.3,76.6z"/>
		<path class="st2" d="M81.9,76.6c-0.6,0-1.1-0.5-1.1-1.1v-4.6c0-0.6,0.5-1.1,1.1-1.1s1.1,0.5,1.1,1.1v4.6
			C83,76.1,82.5,76.6,81.9,76.6z"/>
	</g>
	<path class="st0" d="M86.6,55.7l-19.6-4.4l-0.8-5.5l-2.2,5.5H46.9l-1.6-12.1L43,51.3l-18.9,3.3C22.6,33.3,23,6.2,54.8,6.2
		C86.6,6.2,89.1,34.4,86.6,55.7z"/>
</g>
</svg>
