<?xml version="1.0" encoding="utf-8"?>
<!-- Generator: Adobe Illustrator 22.1.0, SVG Export Plug-In . SVG Version: 6.00 Build 0)  -->
<svg version="1.1" id="Layer_1" xmlns="http://www.w3.org/2000/svg" xmlns:xlink="http://www.w3.org/1999/xlink" x="0px" y="0px"
	 viewBox="0 0 140.7 166.6" style="enable-background:new 0 0 140.7 166.6;" xml:space="preserve">
<style type="text/css">
	.st0{fill:#E6E6E6;}
	.st1{fill:#F2AE75;}
	.st2{fill:#F6CCB8;}
	.st3{fill:#F4B350;}
	.st4{fill:#FFFFFF;}
	.st5{opacity:0.8;fill:#F7CDB9;}
	.st6{fill:#F7CDB9;}
	.st7{fill:#3C2417;}
	.st8{fill:#3C2415;}
	.st9{fill:#F05D44;}
	.st10{fill:#43414D;}
</style>
<rect x="56" y="102.8" class="st0" width="31.6" height="13.6"/>
<g>
	<rect x="58.6" y="92.2" class="st1" width="26.4" height="55.4"/>
	<polygon class="st2" points="85,92.3 85,105.2 84.4,104.9 58.6,100.6 58.6,92.3 	"/>
</g>
<g>
	<polygon class="st0" points="79.1,125.1 71.8,132.2 64.6,125.1 60.2,127.7 67.7,135.9 71.8,135.9 76,135.9 83.5,127.7 	"/>
	<path class="st3" d="M138.6,166.6c-1.5-13.6-5.4-26.8-7.4-38c-2.1-12.3-22.1-13.4-43.6-21.5c0,0,1.9,25.1-15.8,25.1
		c-17.7,0-15.8-25.1-15.8-25.1c-21.5,8.1-41.4,9.2-43.6,21.5c-2,11.8-5.6,24.5-6.9,38H138.6z"/>
	<polygon class="st4" points="87.6,102.8 71.8,132.2 56,102.8 44.5,111.5 54.9,132.4 63.6,127.7 71.8,132.2 80.1,127.7 88.8,132.4 
		99.2,111.5 	"/>
</g>
<g id="man_79_">
	<g>
		<path class="st1" d="M100.9,50.9l0.9-11.6c0-15.2-14.5-27.5-29.7-27.5c-15.2,0-29.7,12.3-29.7,27.5l0.9,11.6
			c-0.8,0.2-1.6,0.6-2.3,1.1c-1.2,1-1.9,2.5-1.9,4.2v5.7c0,3,2.4,5.5,5.5,5.5c0,14.3,17.2,27.9,27.5,27.9s27.5-13.6,27.5-27.9
			c3,0,5.5-2.5,5.5-5.5v-5.7C105.1,53.6,103.3,51.5,100.9,50.9z"/>
		<path class="st5" d="M100.9,50.9l0.9-11.6c0-15.2-14.5-27.5-29.7-27.5c0,0,0,39,0,39c-4,8.5-6.6,20.9-6.6,20.9h6.6v23.6
			c10.3,0,27.5-13.6,27.5-27.9c3,0,5.5-2.5,5.5-5.5v-5.7C105.1,53.6,103.3,51.5,100.9,50.9z"/>
		<g>
			<g>
				<path class="st6" d="M63.8,54c0.1,2.4-1.8,4.4-4.2,4.5c-2.4,0.1-4.4-1.8-4.5-4.2c-0.1-2.4,1.8-4.4,4.2-4.5
					C61.7,49.7,63.7,51.6,63.8,54z"/>
				<path class="st7" d="M63.8,52.9c0.1,2.4-1.8,4.4-4.2,4.5c-2.4,0.1-4.4-1.8-4.5-4.2c-0.1-2.4,1.8-4.4,4.2-4.5
					C61.7,48.6,63.7,50.5,63.8,52.9z"/>
				<path class="st4" d="M62,51.7c0,0.6-0.4,1.1-1,1.1c-0.6,0-1.1-0.4-1.1-1c0-0.6,0.4-1.1,1-1.1C61.5,50.6,62,51.1,62,51.7z"/>
			</g>
			<g>
				<path class="st6" d="M89.1,54c0.1,2.4-1.8,4.4-4.2,4.5c-2.4,0.1-4.4-1.8-4.5-4.2c-0.1-2.4,1.8-4.4,4.2-4.5
					C87,49.7,89,51.6,89.1,54z"/>
				<path class="st7" d="M89.1,52.9c0.1,2.4-1.8,4.4-4.2,4.5c-2.4,0.1-4.4-1.8-4.5-4.2c-0.1-2.4,1.8-4.4,4.2-4.5
					C87,48.6,89,50.5,89.1,52.9z"/>
				<path class="st4" d="M87.3,51.7c0,0.6-0.4,1.1-1,1.1c-0.6,0-1.1-0.4-1.1-1c0-0.6,0.4-1.1,1-1.1C86.8,50.6,87.3,51.1,87.3,51.7z"
					/>
			</g>
		</g>
	</g>
	<path class="st8" d="M61,4.6c-29.8-9.9-24.1,47-21.1,56.5c0.5,1.7,2.9,4.4,2.9,4.4c0.9,1.7-2.4,34,29.4,34s28.5-32.3,29.4-34
		c0,0,2.3-2.7,2.9-4.4C107.4,51.6,116.4-12.5,61,4.6z M98,64.5c0,3.6-2.2,8.9-5.4,11.3c-1.4,1-3.2,1.2-4.7,0.5
		c-2.6-1.1-8.5-2.1-15.7-2.1c-7.3,0-13.1,1-15.7,2.1c-1.6,0.7-3.4,0.5-4.7-0.5c-3.1-2.4-5.4-7.7-5.4-11.3c0,0-4.4-15.8-1.1-27.4
		c1.6-5.7,8.7-9,14.5-7.5c4.2,1.1,8.6,1.4,12.4,1.4c3.9,0,8.2-0.4,12.4-1.4c5.8-1.5,12.8,1.8,14.5,7.5C102.4,48.7,98,64.5,98,64.5z"
		/>
	<g>
		<path class="st9" d="M82,77.7c0,4.9-4.4,8.8-9.9,8.8s-9.9-3.9-9.9-8.8H82z"/>
		<path class="st4" d="M79.1,81H64.8c-0.6,0-1.1-0.5-1.1-1.1v-2.2h16.5v2.2C80.2,80.5,79.8,81,79.1,81z"/>
	</g>
	<path class="st10" d="M102,45.7h-6c-1.9-1-4.5-1.6-8.2-1.6c-6.1,0-10.3,1.2-12.4,3.5c-1-0.6-2.5-1.2-4.2-1.2
		c-1.7,0-3.2,0.6-4.2,1.2c-2.1-2.3-6.3-3.5-12.4-3.5c-3.7,0-6.3,0.6-8.2,1.6h-6V50l2,0.7c-0.2,0.8-0.3,1.6-0.3,2.4
		c0,6.5,2,10.2,12.5,10.2c8.8,0,12.3-2.5,13.9-10c0.2-0.9,0.2-1.8,0.1-2.6c0.5-0.3,1.3-0.6,2.6-0.6c1.4,0,2.2,0.3,2.7,0.6
		c-0.1,0.8-0.1,1.7,0.1,2.6c1.5,7.5,5.1,10,13.9,10c10.5,0,12.5-3.7,12.5-10.2c0-0.8-0.1-1.6-0.3-2.4L102,50V45.7z M66.3,52.9
		c-1.3,6.5-3.9,8.2-11.7,8.2c-9.6,0-10.3-3.2-10.3-8c0-1.7,0-6.8,10.3-6.8c7.1,0,9.9,1.6,11,3C66.4,50.2,66.6,51.5,66.3,52.9z
		 M87.8,61.1c-7.9,0-10.4-1.8-11.7-8.2c-0.3-1.4-0.1-2.7,0.7-3.6c1.1-1.4,3.9-3,11-3c10.3,0,10.3,5.1,10.3,6.8
		C98.1,58,97.4,61.1,87.8,61.1z"/>
</g>
</svg>
