<svg xmlns="http://www.w3.org/2000/svg" xmlns:xlink="http://www.w3.org/1999/xlink" viewBox="0 0 104 160">
  <defs>
	<style>
	  .cls-1 {
		clip-path: url(#clip-Canvas);
	  }

	  .cls-2 {
		fill: #f4cda7;
	  }

	  .cls-3 {
		fill: #212631;
	  }

	  .cls-4 {
		fill: #3065dd;
	  }

	  .cls-5 {
		fill: rgba(38,34,35,0.42);
		opacity: 0.259;
	  }

	  .cls-6 {
		fill: #69bffc;
	  }

	  .cls-7 {
		fill: #ffcec3;
	  }

	  .cls-8 {
		fill: #ffb1b1;
	  }

	  .cls-9 {
		fill: rgba(142,81,81,0.53);
		opacity: 0.38;
	  }

	  .cls-10 {
		fill: #ffd4cb;
	  }

	  .cls-11 {
		fill: #fabcbc;
	  }

	  .cls-12 {
		fill: rgba(169,124,114,0.68);
		opacity: 0.239;
	  }

	  .cls-13 {
		fill: rgba(255,251,250,0.79);
	  }

	  .cls-13, .cls-14, .cls-18 {
		stroke-linejoin: round;
	  }

	  .cls-14, .cls-15, .cls-17, .cls-18 {
		fill: none;
	  }

	  .cls-15 {
		stroke: #b74860;
		stroke-width: 2px;
	  }

	  .cls-16 {
		fill: #3e001e;
	  }

	  .cls-17 {
		stroke: #3e001e;
	  }

	  .cls-17, .cls-18 {
		stroke-linecap: round;
		stroke-width: 3px;
	  }

	  .cls-18 {
		stroke: #ff235d;
	  }

	  .cls-19 {
		fill: rgba(33,38,49,0.45);
		opacity: 0.549;
	  }

	  .cls-20 {
		fill: #3e4758;
	  }

	  .cls-21 {
		fill: #636e83;
	  }

	  .cls-22 {
		fill: #282e3b;
	  }

	  .cls-23, .cls-24 {
		stroke: none;
	  }

	  .cls-24 {
		fill: #b74860;
	  }
	</style>
	<clipPath id="clip-Canvas">
	  <rect width="104" height="160"/>
	</clipPath>
  </defs>
  <g class="cls-1">
	<g>
	  <path class="cls-2" d="M22.358,51.96a44.86,44.86,0,0,1,61.082,16.27l14.57,25.087A44.308,44.308,0,0,1,81.643,154.04a44.86,44.86,0,0,1-61.082-16.27L5.991,112.682A44.309,44.309,0,0,1,22.358,51.96Z"/>
	  <path class="cls-3" d="M58.05,94.7a17.5,17.5,0,1,1,.9-23.393,17.48,17.48,0,0,1,8.156-4.748A17.5,17.5,0,1,1,88.893,85.444,17.5,17.5,0,0,1,58.05,94.7Z"/>
	  <path class="cls-4" d="M59.031,94c35.136,0,43.968,30.687,43.92,31.052s-.148,1.1-.259,1.533A44.355,44.355,0,0,1,81.706,154.04a44.96,44.96,0,0,1-61.17-16.27l-4.26-7.324c-.086-.148-.141-.27-.261-.448S22.434,94,59.031,94Z"/>
	  <path class="cls-5" d="M59.031,94c16.337,0,27,6.686,33.727,13.878C98.236,113.733,83.158,157,60,157s-40.905-39.461-33-49.231C33.493,100.38,43.585,94,59.031,94Z"/>
	  <path class="cls-6" d="M45.543,112.315c-5.418-5.281-7.038-12.923-4.073-16.558,3.929-4.433,8.2-6.773,17.538-6.773,9.882,0,14.494,2.524,18.563,6.839,2.9,3.225,1.3,11.081-4.19,16.5C72.816,120.5,72.208,139,59.519,139,46.8,139,46.029,120.5,45.543,112.315Z"/>
	  <path class="cls-7" d="M46.947,112.983c-4.866-4.753-6.321-11.63-3.658-14.9,3.529-3.99,7.361-6.1,15.753-6.1,8.876,0,13.018,2.272,16.673,6.155,2.606,2.9,1.165,9.973-3.763,14.846C71.443,120.347,70.9,137,59.5,137,48.074,137,47.384,120.353,46.947,112.983Z"/>
	  <path class="cls-8" d="M57.987,136.864a9.194,9.194,0,0,0,4.053-.161c.254-.285-1.992-4.4-2.189-4.407S57.462,136.556,57.987,136.864Z"/>
	  <rect class="cls-8" width="23" height="31" rx="11.5" transform="translate(48 83)"/>
	  <rect class="cls-9" width="23" height="18" rx="9" transform="translate(48 85)"/>
	  <path class="cls-10" d="M60,18A30,30,0,0,1,90,48V68c0,16.568-19.764,30-30,30S30,84.568,30,68V48A30,30,0,0,1,60,18Z"/>
	  <path class="cls-11" d="M77.612,81.617c-2.442-1.165-3.352-4.623-2.032-7.726s4.368-4.673,6.809-3.509,3.352,4.623,2.032,7.726A5.906,5.906,0,0,1,79.316,82,3.933,3.933,0,0,1,77.612,81.617Zm-42-3.509c-1.311-3.1-.407-6.561,2.02-7.726s5.456.407,6.767,3.509.407,6.561-2.02,7.726A3.89,3.89,0,0,1,40.68,82,5.873,5.873,0,0,1,35.607,78.108Z"/>
	  <path class="cls-8" d="M90,68V49h.25A8.75,8.75,0,0,1,99,57.75v1.5A8.75,8.75,0,0,1,90.25,68ZM29.75,68A8.751,8.751,0,0,1,21,59.25v-1.5A8.751,8.751,0,0,1,29.75,49H30V68Z"/>
	  <g>
		<path class="cls-12" d="M61,65A11,11,0,1,1,72,76,11,11,0,0,1,61,65ZM34,65A11,11,0,1,1,45,76,11,11,0,0,1,34,65Z"/>
		<g>
		  <g class="cls-13">
			<path class="cls-23" d="M 72.99990081787109 72.99980163574219 C 67.48599243164062 72.99980163574219 63.00009918212891 68.51390838623047 63.00009918212891 63 C 63.00009918212891 57.48609161376953 67.48599243164062 53.00019836425781 72.99990081787109 53.00019836425781 C 78.51380920410156 53.00019836425781 82.99970245361328 57.48609161376953 82.99970245361328 63 C 82.99970245361328 68.51390838623047 78.51380920410156 72.99980163574219 72.99990081787109 72.99980163574219 Z M 45.99990081787109 72.99980163574219 C 40.48599243164062 72.99980163574219 36.00009918212891 68.51390838623047 36.00009918212891 63 C 36.00009918212891 57.48609161376953 40.48599243164062 53.00019836425781 45.99990081787109 53.00019836425781 C 51.51380920410156 53.00019836425781 55.99970245361328 57.48609161376953 55.99970245361328 63 C 55.99970245361328 68.51390838623047 51.51380920410156 72.99980163574219 45.99990081787109 72.99980163574219 Z"/>
			<path class="cls-24" d="M 45.99990081787109 54.00019836425781 C 41.03739166259766 54.00019836425781 37.00009918212891 58.03749084472656 37.00009918212891 63 C 37.00009918212891 67.96250915527344 41.03739166259766 71.99980163574219 45.99990081787109 71.99980163574219 C 50.96240997314453 71.99980163574219 54.99970245361328 67.96250915527344 54.99970245361328 63 C 54.99970245361328 58.03749084472656 50.96240997314453 54.00019836425781 45.99990081787109 54.00019836425781 M 72.99990081787109 54.00019836425781 C 68.03739166259766 54.00019836425781 64.00009918212891 58.03749084472656 64.00009918212891 63 C 64.00009918212891 67.96250915527344 68.03739166259766 71.99980163574219 72.99990081787109 71.99980163574219 C 77.96240997314453 71.99980163574219 81.99970245361328 67.96250915527344 81.99970245361328 63 C 81.99970245361328 58.03749084472656 77.96240997314453 54.00019836425781 72.99990081787109 54.00019836425781 M 45.99990081787109 52.00019836425781 C 52.07489776611328 52.00019836425781 56.99970245361328 56.92500305175781 56.99970245361328 63 C 56.99970245361328 69.07499694824219 52.07489776611328 73.99980163574219 45.99990081787109 73.99980163574219 C 39.92488861083984 73.99980163574219 35.00009918212891 69.07499694824219 35.00009918212891 63 C 35.00009918212891 56.92500305175781 39.92488861083984 52.00019836425781 45.99990081787109 52.00019836425781 Z M 72.99990081787109 52.00019836425781 C 79.07490539550781 52.00019836425781 83.99970245361328 56.92500305175781 83.99970245361328 63 C 83.99970245361328 69.07499694824219 79.07490539550781 73.99980163574219 72.99990081787109 73.99980163574219 C 66.92489624023438 73.99980163574219 62.00009918212891 69.07499694824219 62.00009918212891 63 C 62.00009918212891 56.92500305175781 66.92489624023438 52.00019836425781 72.99990081787109 52.00019836425781 Z"/>
		  </g>
		  <g class="cls-14">
			<path class="cls-23" d="M62,63A11,11,0,1,1,73,74,11,11,0,0,1,62,63ZM35,63A11,11,0,1,1,46,74,11,11,0,0,1,35,63Z"/>
			<path class="cls-24" d="M 45.99990081787109 54.00019836425781 C 41.03739166259766 54.00019836425781 37.00009918212891 58.03749084472656 37.00009918212891 63 C 37.00009918212891 67.96250915527344 41.03739166259766 71.99980163574219 45.99990081787109 71.99980163574219 C 50.96240997314453 71.99980163574219 54.99970245361328 67.96250915527344 54.99970245361328 63 C 54.99970245361328 58.03749084472656 50.96240997314453 54.00019836425781 45.99990081787109 54.00019836425781 M 72.99990081787109 54.00019836425781 C 68.03739166259766 54.00019836425781 64.00009918212891 58.03749084472656 64.00009918212891 63 C 64.00009918212891 67.96250915527344 68.03739166259766 71.99980163574219 72.99990081787109 71.99980163574219 C 77.96240997314453 71.99980163574219 81.99970245361328 67.96250915527344 81.99970245361328 63 C 81.99970245361328 58.03749084472656 77.96240997314453 54.00019836425781 72.99990081787109 54.00019836425781 M 45.99990081787109 52.00019836425781 C 52.07489776611328 52.00019836425781 56.99970245361328 56.92500305175781 56.99970245361328 63 C 56.99970245361328 69.07499694824219 52.07489776611328 73.99980163574219 45.99990081787109 73.99980163574219 C 39.92488861083984 73.99980163574219 35.00009918212891 69.07499694824219 35.00009918212891 63 C 35.00009918212891 56.92500305175781 39.92488861083984 52.00019836425781 45.99990081787109 52.00019836425781 Z M 72.99990081787109 52.00019836425781 C 79.07490539550781 52.00019836425781 83.99970245361328 56.92500305175781 83.99970245361328 63 C 83.99970245361328 69.07499694824219 79.07490539550781 73.99980163574219 72.99990081787109 73.99980163574219 C 66.92489624023438 73.99980163574219 62.00009918212891 69.07499694824219 62.00009918212891 63 C 62.00009918212891 56.92500305175781 66.92489624023438 52.00019836425781 72.99990081787109 52.00019836425781 Z"/>
		  </g>
		</g>
		<path class="cls-15" d="M56,62c1.653-2.27,5.432-2.909,7,0"/>
	  </g>
	  <path class="cls-16" d="M69,63a3,3,0,0,1,5.271-1.96c.555-.008,1.1-.024,1.656-.04a3.845,3.845,0,0,1-1.266,3.386A3,3,0,0,1,69,63ZM44.338,64.385A3.845,3.845,0,0,1,43.074,61c.554.016,1.1.032,1.655.04a3,3,0,1,1-.391,3.345Z"/>
	  <path class="cls-17" d="M68,52c4.944-4.208,9.579-.1,12-1" transform="translate(0 3)"/>
	  <path class="cls-17" d="M49.453,54.109c-5.093-4.58-9.867-.114-12.361-1.088" transform="translate(2 1)"/>
	  <path class="cls-18" d="M56,82a19.183,19.183,0,0,0,4.014.632A18.758,18.758,0,0,0,64,82"/>
	  <path class="cls-19" d="M45,92C35.931,63.934,56.943,33.209,65,40s15.3,9.481,21,9,9,1,9,1L62,30S38.333,39.936,35,58s-1.063,18.7-1,23S43.187,91.781,45,92Z"/>
	  <path class="cls-20" d="M60,33.567C70.9,47.815,90.234,41.978,99,60c.506.1.938-.722,1-3,0-16.73-2.524-57-40-57S20,39.111,20,57h.875C20.875,47.527,55.17,45.977,60,33.567Z"/>
	  <path class="cls-20" d="M61,35C49.591,41.139,36.987,63.146,37,81a155.239,155.239,0,0,0,3,31S20.377,90.847,17,74c-4.714-23.519.091-44.944,12-59S55,4,55,4,65.6,31.4,61,35Z"/>
	  <path class="cls-21" d="M61.957,35.741S50.964,30.079,41,56c2.337-11,6.415-20.964,13-23S61.957,35.741,61.957,35.741Z"/>
	  <path class="cls-22" d="M63.993,36.8S52.073,37.91,51.082,60.008c-.694-11.472,3.146-22.929,7.134-24.53S63.993,36.8,63.993,36.8Z" transform="translate(-1)"/>
	  <path class="cls-22" d="M61.248,35.383C49.839,41.522,36.987,63.146,37,81s2.642,29.4,3,31C27.132,70.816,44.755,29.864,61.248,35.383Z"/>
	</g>
  </g>
</svg>
