<?xml version="1.0" encoding="utf-8"?>
<!-- Generator: Adobe Illustrator 22.1.0, SVG Export Plug-In . SVG Version: 6.00 Build 0)  -->
<svg version="1.1" id="Layer_1" xmlns="http://www.w3.org/2000/svg" xmlns:xlink="http://www.w3.org/1999/xlink" x="0px" y="0px"
	 viewBox="0 0 104 165.4" style="enable-background:new 0 0 104 165.4;" xml:space="preserve">
<style type="text/css">
	.st0{fill:#F6CCB8;}
	.st1{fill:#8CC56E;}
	.st2{fill:#4F3C30;}
	.st3{opacity:0.8;fill:#F7CDB9;}
	.st4{fill:#F7CDB9;}
	.st5{fill:#3C2417;}
	.st6{fill:#FFFFFF;}
	.st7{fill:#F05D44;}
</style>
<g>
	<path class="st0" d="M71.7,103.9l-8.5-0.7c0,0,0-5.5,0-9.6l0-4.4c0,0-22,0-22,0c0,0,0,4.4,0,4.4c0,4.1,0,9.6,0,9.6l-8.5,0.7
		l-5.8,35.2c0,0,50.6,0,50.6,0C77.5,139.1,71.7,103.9,71.7,103.9z"/>
	<polygon class="st0" points="41.2,90.4 41.2,96.6 63.2,103.2 63.2,90.4 	"/>
</g>
<path class="st1" d="M103.2,167.7H1.1c0.3-11.2,0.7-20.4,1-23.9l0.1-0.5C3.3,133,4.8,120.1,14,111.3c5.2-5,11.8-6.8,18-7.4
	c0.5-0.1,1.1-0.1,1.6-0.1c-0.2,4.6-0.1,24.1,18.5,24.1s18.7-19.5,18.5-24.1c0.5,0,1.1,0.1,1.6,0.1c6.2,0.6,12.9,2.3,18.1,7.4
	c9.1,8.8,10.6,21.7,11.8,32.1l0.1,0.5C102.5,147.3,102.9,156.6,103.2,167.7z"/>
<g>
	<path class="st2" d="M38,92.1c4.5,0,15.4,0.9,24.9,0c6.6-0.6,13.4-3.1,17.2-8.1c24.7-32-9.6-78.4-44.9-77.4C9,7.4,2.4,92.4,38,92.1
		z"/>
	<g>
		<path class="st0" d="M77.3,51.2V39.8c0-12.2-14.1-27.5-25.2-27.5c-11.1,0-25.2,15.3-25.2,27.5v11.4c-3.1,0-5.6,2.5-5.6,5.5v5.7
			c0,3,2.5,5.5,5.6,5.5c0,12.2,14.1,27.9,25.2,27.9c11.1,0,25.2-15.8,25.2-27.9c3.1,0,5.6-2.5,5.6-5.5v-5.7
			C82.9,53.7,80.4,51.2,77.3,51.2z"/>
		<path class="st3" d="M52.1,75.6v20.4c11.1,0,25.2-15.8,25.2-27.9c3.1,0,5.6-2.5,5.6-5.5v-5.7c0-3-2.5-5.5-5.6-5.5V39.8
			c0-12.2-14.1-27.5-25.2-27.5v44.5c-4.1,8.5-5.6,17.6-5.6,17.6L52.1,75.6z"/>
		<g>
			<g>
				<path class="st4" d="M42.7,58.5c0.1,2.4-1.8,4.4-4.2,4.5c-2.4,0.1-4.4-1.8-4.5-4.2c-0.1-2.4,1.8-4.4,4.2-4.5
					C40.6,54.3,42.6,56.1,42.7,58.5z"/>
				<path class="st5" d="M42.7,57.4c0.1,2.4-1.8,4.4-4.2,4.5c-2.4,0.1-4.4-1.8-4.5-4.2c-0.1-2.4,1.8-4.4,4.2-4.5
					C40.6,53.2,42.6,55,42.7,57.4z"/>
				<path class="st6" d="M40.9,56.2c0,0.6-0.4,1.1-1,1.1c-0.6,0-1.1-0.4-1.1-1c0-0.6,0.4-1.1,1-1.1C40.4,55.1,40.9,55.6,40.9,56.2z"
					/>
				<path class="st5" d="M43.7,54.1c-0.8-1.9-2.9-3.3-5.1-3.5c-1.4-0.2-4,0.1-6.2,2.9c-0.1,0-0.2,0-0.3,0c-0.2,0-0.6-0.1-0.9-0.2
					c-0.7-0.3-1.3-0.9-1.3-0.9c0,0-0.1-0.1-0.2,0c-0.1,0-0.1,0.1-0.1,0.2c0,0,0.1,0.2,0.2,0.5c0.2,0.3,0.4,0.6,0.7,0.9
					c0.3,0.3,0.7,0.6,1,0.7c0.2,0.1,0.3,0.1,0.4,0.2c0.1,0,0.2,0.1,0.2,0.1c0.3,0,0.6-0.1,0.7-0.4c1.5-2,3.4-3,5.5-2.8
					c1.8,0.2,3.6,1.4,4.2,2.9c0.1,0.3,0.4,0.4,0.7,0.3C43.6,54.7,43.8,54.4,43.7,54.1z"/>
			</g>
			<g>
				<path class="st4" d="M70.2,58.5c0.1,2.4-1.8,4.4-4.2,4.5c-2.4,0.1-4.4-1.8-4.5-4.2c-0.1-2.4,1.8-4.4,4.2-4.5
					C68.1,54.3,70.1,56.1,70.2,58.5z"/>
				<path class="st5" d="M70.2,57.4c0.1,2.4-1.8,4.4-4.2,4.5c-2.4,0.1-4.4-1.8-4.5-4.2c-0.1-2.4,1.8-4.4,4.2-4.5
					C68.1,53.2,70.1,55,70.2,57.4z"/>
				<path class="st6" d="M68.4,56.2c0,0.6-0.4,1.1-1,1.1c-0.6,0-1.1-0.4-1.1-1c0-0.6,0.4-1.1,1-1.1C67.9,55.1,68.4,55.6,68.4,56.2z"
					/>
				<path class="st5" d="M60.6,54.1c0.8-1.9,2.9-3.3,5.1-3.5c1.4-0.2,4,0.1,6.2,2.9c0.1,0,0.2,0,0.3,0c0.2,0,0.6-0.1,0.9-0.2
					c0.7-0.3,1.3-0.9,1.3-0.9c0,0,0.1-0.1,0.2,0c0.1,0,0.1,0.1,0.1,0.2c0,0-0.1,0.2-0.2,0.5c-0.2,0.3-0.4,0.6-0.7,0.9
					c-0.3,0.3-0.7,0.6-1,0.7c-0.2,0.1-0.3,0.1-0.4,0.2c-0.1,0-0.2,0.1-0.2,0.1c-0.3,0-0.6-0.1-0.7-0.4c-1.5-2-3.4-3-5.5-2.8
					c-1.8,0.2-3.6,1.4-4.2,2.9c-0.1,0.3-0.4,0.4-0.7,0.3C60.6,54.7,60.5,54.4,60.6,54.1z"/>
			</g>
		</g>
	</g>
	<g>
		<path class="st7" d="M60.9,79.6c0,4.3-3.9,7.8-8.8,7.8s-8.8-3.5-8.8-7.8H60.9z"/>
		<path class="st6" d="M58.3,82.6H45.8c-0.6,0-1.1-0.5-1.1-1.1v-1.8h14.7v1.8C59.4,82.1,58.9,82.6,58.3,82.6z"/>
	</g>
	<g>
		<path class="st1" d="M25.8,73.7c-0.6,0-1.1-0.5-1.1-1.1V68c0-0.6,0.5-1.1,1.1-1.1c0.6,0,1.1,0.5,1.1,1.1v4.6
			C26.9,73.2,26.4,73.7,25.8,73.7z"/>
		<path class="st1" d="M78.4,73.7c-0.6,0-1.1-0.5-1.1-1.1V68c0-0.6,0.5-1.1,1.1-1.1c0.6,0,1.1,0.5,1.1,1.1v4.6
			C79.5,73.2,79,73.7,78.4,73.7z"/>
	</g>
	<path class="st2" d="M65.4,40.2c0.7,2.7,2.2,6.2,4.8,8.3c-7.5-1.9-13.8-6.3-18.5-11.6c0.5,2.7,2.2,5.7,4.8,8.3c-2-0.9-4-2-5.8-3.4
		c-4.2-2.9-7.9-6.7-10.6-10.6c-4.4,8.8-11.4,21.2-16.9,21.3C15.7,37.6,17.9,5.7,50.6,4.7C91.2,3.5,89.8,46.9,87,57.5
		C78.5,54.8,67.1,42.8,65.4,40.2z"/>
</g>
</svg>
