<svg xmlns="http://www.w3.org/2000/svg" viewBox="0 0 110 165">
  <defs>
    <style>
      .cls-1 {
        clip-path: url(#clip-Canvas);
      }

      .cls-2 {
        fill: #f3be1d;
      }

      .cls-3 {
        fill: #8342a9;
      }

      .cls-4 {
        fill: rgba(74,34,98,0.55);
        opacity: 0.42;
      }

      .cls-5 {
        fill: #bd8cda;
      }

      .cls-6 {
        fill: #702a98;
      }

      .cls-7 {
        fill: #fdbdbd;
      }

      .cls-8 {
        fill: rgba(142,81,81,0.53);
        opacity: 0.38;
      }

      .cls-9 {
        fill: #fdc8c8;
      }

      .cls-10 {
        fill: #fab2b2;
      }

      .cls-11 {
        fill: #55449e;
      }

      .cls-12 {
        fill: #e18888;
      }

      .cls-13 {
        fill: #3e001e;
      }

      .cls-14 {
        fill: none;
        stroke: #ff235d;
        stroke-linecap: round;
        stroke-linejoin: round;
        stroke-width: 3px;
      }

      .cls-15 {
        fill: #e79c9c;
      }

      .cls-16 {
        fill: #6f65bb;
      }

      .cls-17 {
        fill: #56459f;
      }

      .cls-18 {
        fill: #e3dfff;
      }

      .cls-19 {
        fill: rgba(0,0,0,0);
      }

      .cls-20 {
        filter: url(#filter_20);
      }

      .cls-21 {
        filter: url(#filter_21);
      }

      .cls-22 {
        filter: url(#filter_22);
      }

      .cls-23 {
        filter: url(#filter_23);
      }

      .cls-24 {
        filter: url(#filter_24);
      }

      .cls-25 {
        filter: url(#filter_25);
      }

      .cls-26 {
        filter: url(#filter_26);
      }

      .cls-27 {
        filter: url(#filter_27);
      }

      .cls-28 {
        filter: url(#filter_28);
      }
    </style>
    <filter id="filter_28" x="56.162" y="126.88" width="6.028" height="6.902" filterUnits="userSpaceOnUse">
      <feOffset dx="-0.908" dy="1.782" input="SourceAlpha"/>
      <feGaussianBlur result="blur"/>
      <feFlood flood-color="#110c14" flood-opacity="0.188"/>
      <feComposite operator="in" in2="blur"/>
      <feComposite in="SourceGraphic"/>
    </filter>
    <filter id="filter_27" x="64.212" y="124.69" width="6.008" height="6.902" filterUnits="userSpaceOnUse">
      <feOffset dx="-0.908" dy="1.782" input="SourceAlpha"/>
      <feGaussianBlur result="blur-2"/>
      <feFlood flood-color="#110c14" flood-opacity="0.188"/>
      <feComposite operator="in" in2="blur-2"/>
      <feComposite in="SourceGraphic"/>
    </filter>
    <filter id="filter_26" x="71.062" y="119.57" width="6.008" height="6.902" filterUnits="userSpaceOnUse">
      <feOffset dx="-0.908" dy="1.782" input="SourceAlpha"/>
      <feGaussianBlur result="blur-3"/>
      <feFlood flood-color="#110c14" flood-opacity="0.188"/>
      <feComposite operator="in" in2="blur-3"/>
      <feComposite in="SourceGraphic"/>
    </filter>
    <filter id="filter_25" x="75.972" y="113" width="6.028" height="6.902" filterUnits="userSpaceOnUse">
      <feOffset dx="-0.908" dy="1.782" input="SourceAlpha"/>
      <feGaussianBlur result="blur-4"/>
      <feFlood flood-color="#110c14" flood-opacity="0.188"/>
      <feComposite operator="in" in2="blur-4"/>
      <feComposite in="SourceGraphic"/>
    </filter>
    <filter id="filter_24" x="48.402" y="124.43" width="6.028" height="6.882" filterUnits="userSpaceOnUse">
      <feOffset dx="-0.908" dy="1.782" input="SourceAlpha"/>
      <feGaussianBlur result="blur-5"/>
      <feFlood flood-color="#110c14" flood-opacity="0.188"/>
      <feComposite operator="in" in2="blur-5"/>
      <feComposite in="SourceGraphic"/>
    </filter>
    <filter id="filter_23" x="41.282" y="119.57" width="6.028" height="6.902" filterUnits="userSpaceOnUse">
      <feOffset dx="-0.908" dy="1.782" input="SourceAlpha"/>
      <feGaussianBlur result="blur-6"/>
      <feFlood flood-color="#110c14" flood-opacity="0.188"/>
      <feComposite operator="in" in2="blur-6"/>
      <feComposite in="SourceGraphic"/>
    </filter>
    <filter id="filter_22" x="36.092" y="113" width="6.028" height="6.902" filterUnits="userSpaceOnUse">
      <feOffset dx="-0.908" dy="1.782" input="SourceAlpha"/>
      <feGaussianBlur result="blur-7"/>
      <feFlood flood-color="#110c14" flood-opacity="0.188"/>
      <feComposite operator="in" in2="blur-7"/>
      <feComposite in="SourceGraphic"/>
    </filter>
    <filter id="filter_21" x="35.092" y="105" width="6.028" height="6.902" filterUnits="userSpaceOnUse">
      <feOffset dx="-0.908" dy="1.782" input="SourceAlpha"/>
      <feGaussianBlur result="blur-8"/>
      <feFlood flood-color="#110c14" flood-opacity="0.188"/>
      <feComposite operator="in" in2="blur-8"/>
      <feComposite in="SourceGraphic"/>
    </filter>
    <filter id="filter_20" x="78.092" y="105" width="6.028" height="6.902" filterUnits="userSpaceOnUse">
      <feOffset dx="-0.908" dy="1.782" input="SourceAlpha"/>
      <feGaussianBlur result="blur-9"/>
      <feFlood flood-color="#110c14" flood-opacity="0.188"/>
      <feComposite operator="in" in2="blur-9"/>
      <feComposite in="SourceGraphic"/>
    </filter>
    <clipPath id="clip-Canvas">
      <rect width="110" height="165"/>
    </clipPath>
  </defs>
  <g class="cls-1">
    <path class="cls-2" d="M22.358,56.96a44.86,44.86,0,0,1,61.082,16.27l14.57,25.087A44.308,44.308,0,0,1,81.643,159.04a44.86,44.86,0,0,1-61.082-16.27L5.991,117.682A44.309,44.309,0,0,1,22.358,56.96Z"/>
    <path class="cls-3" d="M59.031,99c35.136,0,44.023,30.926,43.975,31.292a12.785,12.785,0,0,1-.314,1.293A44.355,44.355,0,0,1,81.706,159.04a44.96,44.96,0,0,1-61.17-16.27l-4.26-7.324c-.086-.148-.141-.27-.261-.448S22.434,99,59.031,99Z"/>
    <path class="cls-4" d="M59.031,99c16.337,0,27,6.686,33.727,13.878C98.236,118.734,83.158,142,60,142s-40.905-19.461-33-29.231C33.493,105.38,43.585,99,59.031,99Z"/>
    <path class="cls-5" d="M59.088,99c10.752,0,15.769.354,20.2,5.037C84.321,109.621,76.879,128,59.726,128s-24.921-17.672-19.72-24.034C44.281,99.155,48.923,99,59.088,99Z"/>
    <path class="cls-6" d="M31.881,155.69a44.374,44.374,0,0,1-9.15-9.51l-.122-.173L32,146l.021,9.8ZM87.03,146h9.019a28.757,28.757,0,0,1-4.549,5.529c-3.488,3.554-4.682,4.1-4.682,4.1Z"/>
    <path class="cls-7" d="M59.5,88A11.5,11.5,0,0,1,71,99.5v8a11.5,11.5,0,0,1-23,0v-8A11.5,11.5,0,0,1,59.5,88Z"/>
    <rect class="cls-8" width="23" height="18" rx="9" transform="translate(48 90)"/>
    <path class="cls-9" d="M60,23A30,30,0,0,1,90,53V73c0,16.568-19.764,30-30,30S30,89.568,30,73V53A30,30,0,0,1,60,23Z"/>
    <path class="cls-10" d="M77.612,86.617c-2.442-1.164-3.352-4.622-2.032-7.725s4.368-4.674,6.809-3.509,3.352,4.622,2.032,7.725A5.906,5.906,0,0,1,79.316,87,3.933,3.933,0,0,1,77.612,86.617Zm-42-3.509c-1.311-3.1-.407-6.561,2.02-7.725s5.456.407,6.767,3.509.407,6.561-2.02,7.725A3.89,3.89,0,0,1,40.68,87,5.873,5.873,0,0,1,35.607,83.108Z"/>
    <path class="cls-11" d="M78.008,94.844a17.03,17.03,0,0,0,13.142-3C94.529,89.117,96,82.886,96,82.886s2.449-.1,5-2.989,1-7.975,1-7.975,3-2.858,3-6.5-1.6-4.744-1.6-4.744,4-3.532,4-6.642-3.2-5.693-3.2-5.693S109,45.575,109,41.7s-5.3-10.181-5.6-9.642C100.925,45.832,92.1,56.8,89,57.974s.593,1.067,1,4.982,3.214,10.423,1,11.958C87.266,74.141,91.895,83.1,78.008,94.844Z"/>
    <path class="cls-11" d="M42.811,95.481c-.095.83-8.359-.28-12.811-3.43s-5-9.171-5-9.171-2.449-.1-5-2.991-1-7.979-1-7.979-3-2.86-3-6.5,1.6-4.747,1.6-4.747-3.8-3.56-4-6.645,3.2-5.7,3.2-5.7S12,45.55,12,41.675s5.3-10.186,5.6-9.647C20.075,45.808,28.9,56.784,32,57.956s-.593,1.067-1,4.985S27.786,73.369,30,74.9C32.954,76.953,31.972,87.142,42.811,95.481Z"/>
    <path class="cls-12" d="M90,54h1c4.971,0,9,4.826,9,9.8v.159C100,68.926,95.971,75,91,75l-1.249.3ZM29,75c-4.971,0-9-6.052-9-11.022S24.029,54,29,54h1V75Z"/>
    <path class="cls-13" d="M70,69a3,3,0,0,1,5.271-1.96c.555-.008,1.1-.024,1.656-.04a3.845,3.845,0,0,1-1.265,3.385A3,3,0,0,1,70,69ZM43.338,70.384A3.847,3.847,0,0,1,42.073,67c.554.016,1.1.033,1.656.04a3,3,0,1,1-.391,3.344Z"/>
    <path class="cls-13" d="M73.153,60.918c-3.016.013-6.141,1.85-6.1,1.109s3.179-2.995,6.195-3.007,5.912,2.216,5.869,2.957S76.169,60.905,73.153,60.918Z"/>
    <path class="cls-14" d="M55,84a15.5,15.5,0,0,0,5,1,15.5,15.5,0,0,0,5-1"/>
    <path class="cls-15" d="M31,62c4.677-1.386,7.757-.571,10-10,12.015,1.709,17.6-5.267,18-10,2.042,6.981,8.925,11.146,14,12s9.27-3.162,10-3c-2.485,11.126,7,12,7,12L88,44,60,32,34,45S26.323,63.386,31,62Z"/>
    <path class="cls-16" d="M30.1,67.8c-2.775.575.183-8.561-6.1-12.8-10.309-6.956-8.724-21.652-7.614-24.612s7.135-5.945,7.135-5.945S21.951,18.776,24,15.9s6.487-3.8,8.686-3.609,3.666-5.143,8.248-6.546,10.081.935,10.081.935,4.631-4.467,9.443-4.467,9.8,4.467,9.8,4.467,7.5-2.064,11.18,0,4.4,6.546,4.4,6.546,7.409-.682,10.043,3.75,1.871,7.472,1.871,7.472,6.468,1.447,7.157,5.945a9.107,9.107,0,0,1-1.658,7.148S105.663,51.506,97,58c-5.281,3.959-7,7-7,7s-7.918-3.787-6-12c1.36-5.821-8.432-1.6-14-7a46.785,46.785,0,0,0-10.07-7.692S54.034,44.465,49,47s-10.038,2.311-12,1C41.68,57.607,32.873,67.224,30.1,67.8Z"/>
    <path class="cls-17" d="M76,50.939C63.665,50.12,59.927,38.292,59.927,38.292l.028-.032-.016-.043.044.01.009-.01.02.017a16.146,16.146,0,0,0,8.266-.919c5.039-1.746,8.342-5.89,9.913-11.1-.154,6.582-5.328,13.823-10.957,15.3a8.893,8.893,0,0,1-1.17.228,30.871,30.871,0,0,0,12.219,2.555c11.039,0,18.276-5.2,21.721-13.288C99.68,41.86,89.23,50.989,77.492,50.989Q76.748,50.989,76,50.939ZM42.419,50.1c-6.512-.565-12.8-6.272-13.315-12.056,2.065,4.391,6.054,7.613,11.906,8.492S57.005,40.51,57.005,40.51s-7.642,9.608-14.053,9.609C42.773,50.119,42.6,50.111,42.419,50.1ZM34.01,29.39c2.8,3.964,7.287,6.444,13.2,6.292s8.8-7.67,8.8-7.67-.277,10.358-6.789,10.933c-.376.033-.755.05-1.134.05C41.9,38.995,35.436,34.671,34.01,29.39Z"/>
    <path class="cls-18" d="M92.5,83c-1.379,0-2.5-2.467-2.5-5.5S91.122,72,92.5,72,95,74.467,95,77.5,93.879,83,92.5,83Zm0-9.34c-.965,0-1.751,1.723-1.751,3.84s.785,3.84,1.751,3.84,1.75-1.723,1.75-3.84S93.465,73.66,92.5,73.66ZM27.5,83c-1.379,0-2.5-2.467-2.5-5.5S26.122,72,27.5,72,30,74.467,30,77.5,28.879,83,27.5,83Zm0-9.34c-.965,0-1.75,1.723-1.75,3.84s.785,3.84,1.75,3.84,1.75-1.723,1.75-3.84S28.465,73.66,27.5,73.66Z"/>
    <g class="cls-28" transform="matrix(1, 0, 0, 1, 0, 0)">
      <circle class="cls-18" cx="2.56" cy="2.56" r="2.56" transform="translate(57.07 126.88)"/>
    </g>
    <g class="cls-27" transform="matrix(1, 0, 0, 1, 0, 0)">
      <ellipse class="cls-18" cx="2.55" cy="2.56" rx="2.55" ry="2.56" transform="translate(65.12 124.69)"/>
    </g>
    <g class="cls-26" transform="matrix(1, 0, 0, 1, 0, 0)">
      <ellipse class="cls-18" cx="2.55" cy="2.56" rx="2.55" ry="2.56" transform="translate(71.97 119.57)"/>
    </g>
    <g class="cls-25" transform="matrix(1, 0, 0, 1, 0, 0)">
      <circle class="cls-18" cx="2.56" cy="2.56" r="2.56" transform="translate(76.88 113)"/>
    </g>
    <g class="cls-24" transform="matrix(1, 0, 0, 1, 0, 0)">
      <ellipse class="cls-18" cx="2.56" cy="2.55" rx="2.56" ry="2.55" transform="translate(49.31 124.43)"/>
    </g>
    <g class="cls-23" transform="matrix(1, 0, 0, 1, 0, 0)">
      <circle class="cls-18" cx="2.56" cy="2.56" r="2.56" transform="translate(42.19 119.57)"/>
    </g>
    <g class="cls-22" transform="matrix(1, 0, 0, 1, 0, 0)">
      <circle class="cls-18" cx="2.56" cy="2.56" r="2.56" transform="translate(37 113)"/>
    </g>
    <g class="cls-21" transform="matrix(1, 0, 0, 1, 0, 0)">
      <circle class="cls-18" cx="2.56" cy="2.56" r="2.56" transform="translate(36 105)"/>
    </g>
    <g class="cls-20" transform="matrix(1, 0, 0, 1, 0, 0)">
      <circle class="cls-18" cx="2.56" cy="2.56" r="2.56" transform="translate(79 105)"/>
    </g>
    <path class="cls-13" d="M73.153,60.918c-3.016.013-6.141,1.85-6.1,1.109s3.179-2.995,6.195-3.007,5.912,2.216,5.869,2.957S76.169,60.905,73.153,60.918Z" transform="translate(-27)"/>
  </g>
</svg>
