<svg xmlns="http://www.w3.org/2000/svg" viewBox="0 0 110 165">
  <defs>
    <style>
      .cls-1 {
        clip-path: url(#clip-Canvas);
      }

      .cls-2 {
        fill: #ffe3d7;
      }

      .cls-3 {
        fill: #212733;
      }

      .cls-4 {
        fill: #37a6b3;
      }

      .cls-5 {
        fill: #ffb1b1;
      }

      .cls-6 {
        fill: #ffd4cb;
      }

      .cls-7 {
        fill: #ff4360;
      }

      .cls-8 {
        fill: #ff7b6f;
      }

      .cls-9 {
        fill: rgba(142,81,81,0.53);
        opacity: 0.38;
      }

      .cls-10 {
        fill: #fabcbc;
      }

      .cls-11 {
        fill: #ba7060;
        opacity: 0.316;
      }

      .cls-12 {
        fill: #3e001e;
      }

      .cls-13 {
        fill: #fc668d;
      }

      .cls-14 {
        fill: #3e4758;
      }

      .cls-15 {
        fill: #f8d148;
      }

      .cls-16 {
        fill: #67585f;
      }

      .cls-17 {
        fill: none;
        stroke: #ff235d;
        stroke-linecap: round;
        stroke-linejoin: round;
        stroke-width: 3px;
      }
    </style>
    <clipPath id="clip-Canvas">
      <rect width="110" height="165"/>
    </clipPath>
  </defs>
  <g class="cls-1">
    <g>
      <path class="cls-2" d="M22.358,56.96a44.86,44.86,0,0,1,61.082,16.27l14.57,25.087A44.308,44.308,0,0,1,81.643,159.04a44.86,44.86,0,0,1-61.082-16.27L5.991,117.682A44.309,44.309,0,0,1,22.358,56.96Z"/>
      <path class="cls-3" d="M20,62l-3,71,84-6-1-65Z"/>
      <path class="cls-4" d="M59.031,99c35.136,0,44.023,30.926,43.975,31.292a12.785,12.785,0,0,1-.314,1.293A44.355,44.355,0,0,1,81.706,159.04a44.96,44.96,0,0,1-61.17-16.27l-4.26-7.324c-.086-.148-.141-.27-.261-.448S22.434,99,59.031,99Z"/>
      <path class="cls-5" d="M32.021,155.8l-.14-.107a44.328,44.328,0,0,1-9.15-9.51l-.122-.172L32,146Z"/>
      <path class="cls-6" d="M59.031,100c8.876,0,13.028-.745,16.684,3.138,4.157,4.63-1.987,19.869-16.146,19.869S39,108.356,43.289,103.082C46.818,99.093,50.639,100,59.031,100Z"/>
      <path class="cls-7" d="M85.059,106.349q.523.346,1.027.7c13.018,9.19,16.951,23,16.92,23.24a12.785,12.785,0,0,1-.314,1.293A44.355,44.355,0,0,1,81.706,159.04a45.053,45.053,0,0,1-45.633-.492q-.416-.25-.826-.509C29.361,154.322,78.648,102.1,85.059,106.349Z"/>
      <path class="cls-8" d="M40.969,161.095a53.1,53.1,0,0,1-5.828-3.111C32.6,156.258,33.48,154.533,35,152s29.314-35.541,45-45c2.2-1.327,3.445-1.741,5.164-.614a48.668,48.668,0,0,1,4.039,3.085c.66.552,1.481,1.321,1.707,1.555C81.462,115.244,40.969,161.095,40.969,161.095Z"/>
      <path class="cls-5" d="M59.5,88A11.5,11.5,0,0,1,71,99.5v8a11.5,11.5,0,0,1-23,0v-8A11.5,11.5,0,0,1,59.5,88Z"/>
      <rect class="cls-9" width="23" height="18" rx="9" transform="translate(48 90)"/>
      <path class="cls-6" d="M60,23A30,30,0,0,1,90,53V73c0,16.568-19.764,30-30,30S30,89.568,30,73V53A30,30,0,0,1,60,23Z"/>
      <path class="cls-10" d="M77.612,86.617c-2.442-1.164-3.352-4.622-2.032-7.725s4.368-4.674,6.809-3.509,3.352,4.622,2.032,7.725A5.906,5.906,0,0,1,79.316,87,3.933,3.933,0,0,1,77.612,86.617Zm-42-3.509c-1.311-3.1-.407-6.561,2.02-7.725s5.456.407,6.767,3.509.407,6.561-2.02,7.725A3.89,3.89,0,0,1,40.68,87,5.873,5.873,0,0,1,35.607,83.108Z"/>
      <path class="cls-5" d="M90,73V54h.25A8.75,8.75,0,0,1,99,62.75v1.5A8.75,8.75,0,0,1,90.25,73ZM29.75,73A8.75,8.75,0,0,1,21,64.25v-1.5A8.75,8.75,0,0,1,29.75,54H30V73Z"/>
      <path class="cls-11" d="M24,57.937c10.517-4.725,28.877-2.421,36.054-17.946C69.279,57.334,85.5,52.052,96.64,57.618,97.9,57.376,75.9,37,60.054,37S22.815,56.839,24,57.937Z" transform="translate(-0.109)"/>
      <path class="cls-12" d="M70,69a3,3,0,0,1,5.271-1.96c.555-.008,1.1-.024,1.656-.04a3.845,3.845,0,0,1-1.265,3.385A3,3,0,0,1,70,69ZM43.338,70.384A3.847,3.847,0,0,1,42.073,67c.554.016,1.1.033,1.656.04a3,3,0,1,1-.391,3.344Z"/>
      <circle class="cls-13" cx="2.5" cy="2.5" r="2.5" transform="translate(58 53)"/>
      <path class="cls-14" d="M60,38.567C70.9,52.815,98.974,53.053,98.974,62.473,99.382,62.473,99,62,100,62c0-16.73-2.524-57-40-57S20,44.111,20,62c.784,0,.179.384,1.016.384C21.016,52.911,55.17,50.977,60,38.567Z"/>
      <circle class="cls-15" cx="5" cy="5" r="5" transform="translate(55 33)"/>
      <circle class="cls-15" cx="5" cy="5" r="5" transform="translate(37 32)"/>
      <circle class="cls-15" cx="5" cy="5" r="5" transform="translate(21 30)"/>
      <circle class="cls-15" cx="5" cy="5" r="5" transform="translate(89 30)"/>
      <circle class="cls-15" cx="5" cy="5" r="5" transform="translate(73 32)"/>
      <circle class="cls-15" cx="3.5" cy="3.5" r="3.5" transform="translate(90 69)"/>
      <circle class="cls-15" cx="3.5" cy="3.5" r="3.5" transform="translate(22 69)"/>
      <path class="cls-16" d="M73.153,60.918c-3.016.013-6.141,1.85-6.1,1.109s3.179-2.995,6.195-3.007,5.912,2.216,5.869,2.957S76.169,60.905,73.153,60.918Z"/>
      <path class="cls-16" d="M73.153,60.918c-3.016.013-6.141,1.85-6.1,1.109s3.179-2.995,6.195-3.007,5.912,2.216,5.869,2.957S76.169,60.905,73.153,60.918Z" transform="translate(-27)"/>
      <path class="cls-17" d="M55,84a15.5,15.5,0,0,0,5,1,15.5,15.5,0,0,0,5-1"/>
    </g>
  </g>
</svg>
