<svg xmlns="http://www.w3.org/2000/svg" viewBox="0 0 104 161">
  <defs>
    <style>
      .cls-1 {
        fill: #ffb1b1;
      }

      .cls-2 {
        clip-path: url(#clip-Canvas);
      }

      .cls-3 {
        fill: #e297ac;
      }

      .cls-4 {
        fill: #1f5edf;
      }

      .cls-5 {
        fill: rgba(22,51,110,0.55);
        opacity: 0.42;
      }

      .cls-6 {
        fill: #2862d8;
      }

      .cls-7 {
        fill: #c6d4e6;
      }

      .cls-8 {
        fill: rgba(142,81,81,0.53);
        opacity: 0.38;
      }

      .cls-9 {
        fill: #d6a1b6;
      }

      .cls-10 {
        fill: #ffd4cb;
      }

      .cls-11 {
        fill: #fabcbc;
      }

      .cls-12 {
        fill: #3e001e;
      }

      .cls-13 {
        fill: none;
        stroke: #ff235d;
        stroke-linecap: round;
        stroke-linejoin: round;
        stroke-width: 3px;
      }

      .cls-14 {
        fill: rgba(69,29,45,0.28);
        opacity: 0.51;
      }

      .cls-15 {
        fill: url(#linear-gradient);
      }

      .cls-16 {
        fill: #904e68;
      }
    </style>
    <linearGradient id="linear-gradient" x1="0.305" y1="1" x2="0.695" gradientUnits="objectBoundingBox">
      <stop offset="0" stop-color="#5f2f42"/>
      <stop offset="1" stop-color="#904e68"/>
    </linearGradient>
    <clipPath id="clip-Canvas">
      <rect width="104" height="161"/>
    </clipPath>
  </defs>
  <g class="cls-2">
    <g>
      <path class="cls-3" d="M22.358,52.96a44.86,44.86,0,0,1,61.082,16.27l14.57,25.087A44.308,44.308,0,0,1,81.643,155.04a44.86,44.86,0,0,1-61.082-16.27L5.991,113.682A44.309,44.309,0,0,1,22.358,52.96Z"/>
      <path class="cls-4" d="M59.031,95c35.136,0,44.023,30.926,43.975,31.292a12.815,12.815,0,0,1-.314,1.293A44.355,44.355,0,0,1,81.706,155.04a44.96,44.96,0,0,1-61.17-16.27l-4.26-7.324c-.086-.148-.141-.27-.261-.448S22.434,95,59.031,95Z"/>
      <path class="cls-5" d="M59.031,95c16.337,0,27,6.686,33.727,13.878C98.236,114.733,83.158,138,60,138s-40.905-19.461-33-29.231C33.493,101.38,43.585,95,59.031,95Z"/>
      <path class="cls-6" d="M59.088,95c10.752,0,15.769.354,20.2,5.037C84.321,105.621,76.879,124,59.726,124s-24.921-17.672-19.72-24.034C44.281,95.155,48.923,95,59.088,95Z"/>
      <path class="cls-7" d="M32.1,151.878l-.141-.108a44.69,44.69,0,0,1-9.225-9.588l-.123-.174L32.077,142Z" transform="translate(-0.023 -0.024)"/>
      <path class="cls-7" d="M87.03,151.477l.134-.109a42.419,42.419,0,0,0,8.754-9.192l.116-.176h-9Z"/>
      <rect class="cls-1" width="23" height="31" rx="11.5" transform="translate(48 84)"/>
      <path class="cls-8" d="M57,86h5a9,9,0,0,1,0,18H57a9,9,0,0,1,0-18Z"/>
      <path class="cls-9" d="M35,0h0A35,35,0,0,1,70,35V45.96A28.04,28.04,0,0,1,41.96,74H28.04A28.04,28.04,0,0,1,0,45.96V35A35,35,0,0,1,35,0Z" transform="translate(25 12)"/>
      <rect class="cls-10" width="60" height="80" rx="30" transform="translate(30 19)"/>
      <path class="cls-11" d="M77.612,82.617c-2.442-1.165-3.352-4.623-2.032-7.726s4.368-4.673,6.809-3.509,3.352,4.623,2.032,7.726A5.906,5.906,0,0,1,79.316,83,3.933,3.933,0,0,1,77.612,82.617Zm-42-3.509c-1.311-3.1-.407-6.561,2.02-7.726s5.456.408,6.767,3.509.407,6.561-2.02,7.726A3.89,3.89,0,0,1,40.68,83,5.873,5.873,0,0,1,35.607,79.108Z"/>
      <path class="cls-1" d="M9,0h1a0,0,0,0,1,0,0V21a0,0,0,0,1,0,0H9a9,9,0,0,1-9-9V9A9,9,0,0,1,9,0Z" transform="translate(20 50)"/>
      <path class="cls-1" d="M0,0H1a9,9,0,0,1,9,9v3a9,9,0,0,1-9,9H0a0,0,0,0,1,0,0V0A0,0,0,0,1,0,0Z" transform="translate(90 50)"/>
      <path class="cls-12" d="M70,65a3,3,0,1,1,3,3A3,3,0,0,1,70,65ZM43,65a3,3,0,1,1,3,3A3,3,0,0,1,43,65Z"/>
      <path class="cls-12" d="M69,59a2,2,0,1,1,0-4h8a2,2,0,0,1,0,4ZM42,59a2,2,0,1,1,0-4h8a2,2,0,0,1,0,4Z"/>
      <path class="cls-13" d="M53,79a14.488,14.488,0,0,0,7,2,9.194,9.194,0,0,0,6-2"/>
      <path class="cls-14" d="M37,22s9.025,14,23,14,17.313-4.167,19,2c1.316-6.525-3.811-8.612-8-9s11.486-.782,12,2c.968-2.545-3.2-8.591-8-10S37,22,37,22Z"/>
      <path class="cls-15" d="M60.915,33.091C51.5,33.091,36,26.945,36,20.091S45.1,0,72.83,0c-5.947,1.917-5.416,4.727-5.416,4.727S83.581-2.726,94.5,18.909c-5.032-5.673-9.749-3.545-9.749-3.545s13,.6,9.916,21.636C90.628,24.175,82.253,24.273,81.5,26S75,29.545,75,29.545s5.44,2.105,5.416,5.909C77.465,30.681,70.331,33.091,60.915,33.091Z"/>
      <rect class="cls-16" width="11" height="5" rx="2" transform="translate(54 96)"/>
    </g>
  </g>
</svg>
