<svg xmlns="http://www.w3.org/2000/svg" viewBox="0 0 104 161">
  <defs>
    <style>
      .cls-1 {
        fill: #c24f67;
      }

      .cls-2 {
        clip-path: url(#clip-Canvas);
      }

      .cls-3 {
        fill: #e297ac;
      }

      .cls-4 {
        fill: #f9b71a;
      }

      .cls-5 {
        fill: #faeac5;
      }

      .cls-6 {
        fill: rgba(187,87,33,0.55);
        opacity: 0.42;
      }

      .cls-7 {
        fill: #edc18d;
      }

      .cls-8 {
        clip-path: url(#clip-path);
      }

      .cls-9 {
        fill: rgba(111,47,57,0.53);
        opacity: 0.38;
      }

      .cls-10 {
        fill: #632743;
      }

      .cls-11 {
        fill: #c75667;
      }

      .cls-12 {
        fill: #af4555;
      }

      .cls-13 {
        fill: #b84758;
      }

      .cls-14 {
        fill: #3e001e;
      }

      .cls-15 {
        fill: none;
        stroke: #9f3347;
        stroke-linecap: round;
        stroke-linejoin: round;
        stroke-width: 3px;
      }

      .cls-16 {
        fill: rgba(113,40,51,0.55);
        opacity: 0.4;
      }

      .cls-17 {
        fill: #ca810e;
      }
    </style>
    <clipPath id="clip-path">
      <rect class="cls-1" width="23" height="31" rx="11.5" transform="translate(49 84)"/>
    </clipPath>
    <clipPath id="clip-Canvas">
      <rect width="104" height="161"/>
    </clipPath>
  </defs>
  <g class="cls-2">
    <g>
      <path class="cls-3" d="M22.358,52.96a44.86,44.86,0,0,1,61.082,16.27l14.57,25.087A44.308,44.308,0,0,1,81.643,155.04a44.86,44.86,0,0,1-61.082-16.27L5.991,113.682A44.309,44.309,0,0,1,22.358,52.96Z"/>
      <path class="cls-4" d="M59.031,95c35.136,0,44.023,30.926,43.975,31.292a12.815,12.815,0,0,1-.314,1.293A44.355,44.355,0,0,1,81.706,155.04a44.96,44.96,0,0,1-61.17-16.27l-4.26-7.324c-.086-.148-.141-.27-.261-.448S22.434,95,59.031,95Z"/>
      <path class="cls-5" d="M38.68,156a44.627,44.627,0,0,1-8.865-6h59a45,45,0,0,1-7.106,5.039q-.876.5-1.765.96ZM24.906,145a44.7,44.7,0,0,1-4.234-6h77.3a44.231,44.231,0,0,1-4.237,6Zm-7.143-11-1.486-2.555c-.086-.148-.142-.27-.261-.448a20.051,20.051,0,0,1,.678-3h85.889a44.48,44.48,0,0,1-2.082,6Zm.632-11a52.539,52.539,0,0,1,2.841-6h77.61a46.693,46.693,0,0,1,3.022,6Zm6.021-11a43.277,43.277,0,0,1,5.25-6H89.8a45.231,45.231,0,0,1,5.622,6Zm11.769-11c5.86-3.581,13.341-6,22.847-6a46.774,46.774,0,0,1,23.851,6Z"/>
      <path class="cls-6" d="M59.031,95c16.337,0,27,6.686,33.727,13.878C98.236,114.733,83.158,138,60,138s-40.905-19.461-33-29.231C33.493,101.38,43.585,95,59.031,95Z"/>
      <path class="cls-7" d="M59.088,95c10.752,0,15.769.354,20.2,5.037C84.321,105.621,76.879,124,59.726,124s-24.921-17.672-19.72-24.034C44.281,95.155,48.923,95,59.088,95Z"/>
      <g>
        <rect class="cls-1" width="23" height="31" rx="11.5" transform="translate(49 84)"/>
        <g class="cls-8">
          <path class="cls-9" d="M58,86h5a9,9,0,0,1,0,18H58a9,9,0,0,1,0-18Z"/>
        </g>
      </g>
      <path class="cls-10" d="M35,0h0A35,35,0,0,1,70,35V45.96A28.04,28.04,0,0,1,41.96,74H28.04A28.04,28.04,0,0,1,0,45.96V35A35,35,0,0,1,35,0Z" transform="translate(26 12)"/>
      <rect class="cls-11" width="60" height="80" rx="30" transform="translate(31 19)"/>
      <path class="cls-12" d="M78.611,82.617c-2.442-1.165-3.352-4.623-2.032-7.726s4.368-4.673,6.809-3.509,3.352,4.623,2.032,7.726A5.905,5.905,0,0,1,80.316,83,3.935,3.935,0,0,1,78.611,82.617Zm-42-3.509c-1.311-3.1-.407-6.561,2.02-7.726s5.456.408,6.767,3.509.408,6.561-2.02,7.726A3.89,3.89,0,0,1,41.68,83,5.873,5.873,0,0,1,36.607,79.108Z"/>
      <path class="cls-13" d="M91,71V50h1a9,9,0,0,1,9,9v3a9,9,0,0,1-9,9ZM30,71a9,9,0,0,1-9-9V59a9,9,0,0,1,9-9h1V71Z"/>
      <path class="cls-14" d="M71,65a3,3,0,1,1,3,3A3,3,0,0,1,71,65ZM44,65a3,3,0,1,1,3,3A3,3,0,0,1,44,65Z"/>
      <path class="cls-14" d="M70,59a2,2,0,0,1,0-4h8a2,2,0,0,1,0,4ZM43,59a2,2,0,0,1,0-4h8a2,2,0,0,1,0,4Z"/>
      <path class="cls-15" d="M54,79a14.488,14.488,0,0,0,7,2,9.194,9.194,0,0,0,6-2"/>
      <path class="cls-16" d="M42,25a23.552,23.552,0,0,0,18,8c11.853,0,18-10,18-10s-5.3-6-19-6S42,25,42,25Z"/>
      <path class="cls-17" d="M1,0h9a1,1,0,0,1,1,1V6.5A5.5,5.5,0,0,1,5.5,12h0A5.5,5.5,0,0,1,0,6.5V1A1,1,0,0,1,1,0Z" transform="translate(75 131)"/>
      <path class="cls-10" d="M31.551,60.887s-1-22.5,2.126-27.83,9.567-8.906,9.567-8.906,5.645,2.226,15.944,2.226,15.945-2.226,15.945-2.226S85.455,27.3,86.825,33.057,91.077,62,91.077,62s6.035-23.862,3.189-32.283S68.373,3,57.062,3,39.707,9.035,41.118,16.358C39.9,16.4,28.9,18.015,27.3,28.6S31.551,60.887,31.551,60.887Z"/>
      <path class="cls-10" d="M66,80.917A10.179,10.179,0,0,1,60.5,77.5,10.182,10.182,0,0,1,55,80.917c-2.816.431-11.489-1.161-12-2.639,3.477.484,6.043-.462,7-1.759A9.516,9.516,0,0,1,57,73a3.749,3.749,0,0,1,3.5,1.795A3.748,3.748,0,0,1,64,73a9.516,9.516,0,0,1,7,3.519c.957,1.3,3.523,2.244,7,1.759-.453,1.31-7.323,2.711-10.838,2.711A7.934,7.934,0,0,1,66,80.917Z"/>
      <path class="cls-1" d="M32.1,151.878l-.141-.108a44.69,44.69,0,0,1-9.225-9.588l-.123-.174L32.077,142Z" transform="translate(-0.023 -0.024)"/>
      <path class="cls-1" d="M87.03,151.477l.134-.109a42.419,42.419,0,0,0,8.754-9.192l.116-.176h-9Z"/>
    </g>
  </g>
</svg>
