<?xml version="1.0" encoding="utf-8"?>
<!-- Generator: Adobe Illustrator 22.0.1, SVG Export Plug-In . SVG Version: 6.00 Build 0)  -->
<svg version="1.1" id="Layer_1" xmlns="http://www.w3.org/2000/svg" xmlns:xlink="http://www.w3.org/1999/xlink" x="0px" y="0px"
	 viewBox="0 0 882 335" style="enable-background:new 0 0 882 335;" xml:space="preserve">
<style type="text/css">
	.st0{fill:#EEF3F5;}
	.st1{fill:none;stroke:#DBDEE5;stroke-width:2;}
	.st2{fill:none;}
	.st3{fill:none;stroke:#212225;stroke-width:2;stroke-linecap:round;}
	.st4{fill:#DBDEE5;}
	.st5{fill:#212225;}
	.st6{fill:none;stroke:#DBDEE5;stroke-width:2;stroke-linecap:round;}
	.st7{fill:#DE5846;}
	.st8{fill:none;stroke:#212225;stroke-width:2;}
	.st9{fill:#DCDFE6;}
</style>
<g id="images" transform="translate(-243 -169)">
	<g id="_1">
		<path id="Прямоугольник_скругл._углы_967" class="st0" d="M408.1,461H345c-13.4,0-23-11.1-23-21V288
			c0-5.5,4.5-10,10-10v6.8c0,0,0.4,141.9,0.4,148.3c0,11.1,12.3,18.5,18.1,18.5S400,451,400,451L408.1,461z M458.4,461H526
			c5.5,0,8.9-3.9,8.9-9.4h-10.9c0,0-24.1-0.6-51-0.6c-2.3,0-14,3-14,3S456.5,457.7,458.4,461L458.4,461z"/>
		<path id="Прямоугольник_скругл._углы_968" class="st1" d="M365,452h-13c-11,0-20-9-20-20V222
			c0-11,9-20,20-20h154c11,0,20,9,20,20v147"/>
		<g id="Эллипс_969" transform="translate(521 368)">
			<circle class="st2" cx="5" cy="5" r="5"/>
			<circle class="st1" cx="5" cy="5" r="4"/>
		</g>
		<g id="Группа_4">
			<path id="Фигура_16" class="st3" d="M660,452l-185.4,0.1"/>
			<line id="Фигура_16_копия" class="st3" x1="402" y1="452" x2="358" y2="452"/>
			<g id="Группа_5">
				<path id="Фигура_33" class="st4" d="M458,454c0,0,3.3-17.6,4-20.5s2-8.5,2-8.5c1.6,7.5,2.3,15.3,2,23
					c2-0.4,47.9-8.1,54-10s18.1-3.5,23-2s26.8,2.5,28,4s-5,0-5,0s-7.8,1.8-11,2.1c-1.5,0.1-4.6-0.4-8-1c-3.6-0.7-7.3-1.1-10.9-1
					C530,440.6,462,454,462,454H458z M436.6,317.4c-1.1-3.4-7.2-3.9-8.6-3.4c-17.8,6.4-27.1-0.4-27.1-0.4l1.6-1.5l2.8-2.8
					c-0.2-0.2,21.2-16.2,22.7-10.3s13.1,15,13.1,15s-3.6,3.5-4.3,3.5C436.7,317.5,436.7,317.4,436.6,317.4z M461,304
					c0.1-3.2,7-2,7-2l-4,5c0,0,0,0-0.1,0c-1.5,0.1-2.8-1-2.9-2.5C461,304.3,461,304.2,461,304z M465,278c2,0,4.7-4.9,2-8
					c-11.1,7.6-21,5-21,5l17-17c2.1,0.4,4.1,1,6,2c3,1.5,3,15,3,15s-0.3,3.2-5,3.2C466.3,278.2,465.7,278.1,465,278z"/>
				<path id="Фигура_34" class="st5" d="M384.1,452c0,0-1.1-20.1-3.1-33c-2-12.6-10.1-42.5-9.5-42s5.1,8.9,6.5,13
					s7.9,17.8,9.7,23.8S402,452,402,452H384.1z M433,434l15-14c0,0,3.5-0.9,1,1c-11.6,8.8-2,18.3-9,21c-0.9,0.3-1.8,0.5-2.7,0.6
					C432.2,442.6,431.1,435.7,433,434z M582,438c-2.9-2-5.1-2.2-9-3s-6-5-6-5c2.9,1,5.9,1.6,9,2c3.5,0.2,5,0.4,6,2s9,6,9,6
					S584.9,440,582,438z"/>
			</g>
			<g id="Группа_2">
				<path id="Фигура_12" class="st3" d="M547,441.4v3.6c0,0.7-1.1,5,8,5h84c1.8,0,2-1.1,2-2c0-2.7,0.5-2.8-1-5s-3.2-3.8-4-5
					s-2.8-1-6-1s-34.3,0.2-34.3,0.2"/>
				<line id="Фигура_13" class="st3" x1="641" y1="446" x2="547" y2="446"/>
				<path id="Фигура_14" class="st3" d="M641.8,448.2c0,0,4.2,0.2,5.2-3.2c0.8-2.8,21.6-73.8,22-75s0.2-2.9-2-3
					c-2.1-0.1-6.7,0-8,0s-2.9-0.5-4,3s-20,67-20,67"/>
				<path id="Фигура_15" class="st3" d="M641.2,445.6L666,367"/>
			</g>
			<path id="Фигура_1" class="st3" d="M396,351c-12.2,2.2-15.8,13.2-17,22c-1.8,13.3,3.2,26.2,6,33s9.8,30.9,16,43
				s14.5,18.8,23,20s15.1-4.2,29-6c4-0.5,4.2-3.6,4-6s6-27,6-30s0.3-7.3-3-7s-11.1,0.8-11.1,0.8"/>
			<path id="Фигура_2" class="st3" d="M428,372c0,0,7.7,18.1,11,22s9.5,8.2,10,15s1.4,11.1-3,15s-7.6,9.6-11,11"/>
			<path id="Фигура_3" class="st3" d="M367.9,451.5c-0.4-11.5-2.8-15.5-4.9-42.5s5.8-46.1,9.2-52.7s18.7-35.6,19.9-38
				s3.4-6.3,7.2-2.8s30.5,19,32.7,19.5s1.6,4.1,2,7s11.8,26.3,17,38s7.8,26.8,7,29s-2.3,4.1-8.3,6.6"/>
			<path id="Фигура_4" class="st3" d="M405,351c0,0,11,0,16,10"/>
			<path id="Фигура_5" class="st3" d="M380,397c-2.1-10.4-11.8-18.6-8-29"/>
			<path id="Фигура_6" class="st3" d="M434.2,343.9c-7-2.1-13.5-5.4-19.2-9.9"/>
			<path id="Фигура_7" class="st3" d="M462.4,420.9c0,0,46.1,3.6,53.6,3.1s18.4-5.7,28-5s27,2.4,31.3,2.4s7-1.2,9.6,3.6
				c2,3.9,4.8,7.2,8.2,10c2.6,2,3.8,4.9,1.9,6s-3,5.2-8,4s-9-2.4-15-4s-12.4,1.9-20,1s-15.1-2.4-23-1s-37,8.2-71.4,14.2"/>
			<path id="Фигура_8" class="st3" d="M456.5,412c0,0,15.8,2.3,20.5,4s50.1,4.1,55.1,4.3"/>
			<path id="Фигура_9" class="st3" d="M477.7,416.8l-4.5,4.8"/>
			<path id="Фигура_10" class="st3" d="M547.4,419.2c0,0,17.5-1.7,22.6-3.2s7.1-1.6,12,0s11.7,0.2,13,4s6.2,10.7,2,11
				s-7.4-4.5-8-6s-4-1-4-1"/>
			<path id="Фигура_11" class="st3" d="M598.1,427c1,1.9,2.3,3.5,3.9,5c2.1,1.6,1,4-2,4s-5-1.2-7-4s-7-4-7-4"/>
			<path id="Фигура_22" class="st3" d="M437.8,392c-4.7-10.8-8.7-33.1-12.8-39"/>
			<path id="Фигура_24" class="st3" d="M446,413c0,0-0.3,10-6,17"/>
			<path id="Фигура_25" class="st3" d="M434.2,467.8c7.1-3,12.2-9.3,13.8-16.8"/>
			<path id="Фигура_27" class="st3" d="M401,327c-1.8-1.2-3.4-2.5-5-4c-0.8-0.9-9.6,5.9-12,11"/>
			<path id="Фигура_35" class="st3" d="M571,425c8.1,1.7,12-0.1,18,6"/>
			<g id="Группа_3">
				<path id="Фигура_17" class="st3" d="M472,273c1.9,7.3-2.9,10.8-3,27c0,6.6-5.8,2.2-7.8,11c-3.6,10.2-8.3,9.1-17.2,5
					s-11-8.8-11-8.8"/>
				<path id="Фигура_18" class="st3" d="M442,315c0,0-4.4,0.7-7,6s-3.9,13.1-3.9,13.1"/>
				<path id="Фигура_20" class="st3" d="M408,304c0,0-3.1,7.4-9,11"/>
				<path id="Фигура_19" class="st5" d="M468,278c6.2-9.3-1-16-1-16s-2.9,16-23,14c-1.4,0.6-13.7,4.6-15,19
					c-0.4,5.9,1,11.9,4,17c0,0-25.9,2.8-36-7c-9.3-9.1-13.5-25.9-6-38c9.1-14.6,17.1-34.3,40-37s45.6,11.3,48,25
					C482.4,274.4,472,278.6,468,278z"/>
			</g>
		</g>
		<path id="Фигура_734" class="st5" d="M435,297c-4.8-0.5-6-9-6-9l6-10C435,278,428.8,294.6,435,297z"/>
	</g>
	<g id="images-2">
		<path id="a" class="st6" d="M683.1,358h-22.6 M603,294.6V247c0-11,9-20,20-20h212c11,0,21,11,21,22v3"/>
		<path id="Прямоугольник_скругл._углы_746" class="st1" d="M622,375h-35c-11,0-20-9-20-20v-40
			c0-11,9-20,20-20h40c11,0,20,9,20,20v35c0,2.7,1.8,8,8,8h6"/>
		<g id="Эллипс_742" transform="translate(621 370)">
			<circle class="st2" cx="4.5" cy="4.5" r="4.5"/>
			<circle class="st1" cx="4.5" cy="4.5" r="3.5"/>
		</g>
		<path id="Прямоугольник_скругл._углы_748_копия" class="st4" d="M604,343v-5h-5c-1.7,0-3-1.3-3-3
			s1.3-3,3-3h5v-5c0-1.7,1.3-3,3-3s3,1.3,3,3v5h5c1.7,0,3,1.3,3,3s-1.3,3-3,3h-5v5c0,1.7-1.3,3-3,3S604,344.7,604,343z"/>
		<path id="Your_wallet_address_" class="st4" d="M737.2,304.2c-0.4-0.2-0.6-0.7-0.7-1.1l1.4-0.1c0,0.2,0.1,0.3,0.3,0.5
			c0.4,0.2,0.8,0.2,1.2,0c0.1-0.1,0.2-0.2,0.2-0.4c0-0.2-0.2-0.4-0.6-0.5l-0.9-0.2c-1-0.2-1.4-0.7-1.4-1.4c0-0.4,0.2-0.9,0.6-1.1
			c0.5-0.3,1-0.4,1.5-0.4c0.5,0,1,0.1,1.5,0.4c0.4,0.2,0.6,0.6,0.6,1.1l-1.3,0.1c0-0.2-0.1-0.3-0.3-0.4c-0.2-0.1-0.4-0.2-0.6-0.2
			c-0.2,0-0.4,0-0.5,0.1c-0.1,0.1-0.2,0.2-0.2,0.4c0,0.1,0,0.2,0.1,0.3c0.1,0.1,0.3,0.2,0.5,0.2l0.9,0.2c1,0.2,1.4,0.6,1.4,1.3
			c0,0.3-0.1,0.6-0.3,0.8c-0.2,0.3-0.5,0.4-0.8,0.6c-0.4,0.1-0.7,0.2-1.1,0.2C738.2,304.6,737.7,304.5,737.2,304.2z M732.1,304.2
			c-0.4-0.3-0.6-0.7-0.7-1.1l1.4-0.1c0,0.2,0.1,0.3,0.3,0.5c0.2,0.1,0.4,0.2,0.6,0.2c0.2,0,0.4,0,0.6-0.1c0.1-0.1,0.2-0.2,0.2-0.4
			c0-0.2-0.2-0.4-0.6-0.5l-0.9-0.2c-1-0.2-1.4-0.7-1.4-1.4c0-0.4,0.2-0.9,0.6-1.1c0.5-0.3,1-0.4,1.5-0.4c0.5,0,1,0.1,1.5,0.4
			c0.4,0.2,0.6,0.6,0.6,1.1l-1.3,0.1c0-0.2-0.1-0.3-0.3-0.4c-0.2-0.1-0.4-0.2-0.6-0.2c-0.2,0-0.4,0-0.5,0.1
			c-0.1,0.1-0.2,0.2-0.2,0.4c0,0.1,0,0.2,0.1,0.3c0.1,0.1,0.3,0.2,0.5,0.2l0.9,0.2c1,0.2,1.4,0.6,1.4,1.3c0,0.3-0.1,0.6-0.3,0.8
			c-0.2,0.3-0.5,0.4-0.8,0.6c-0.4,0.1-0.7,0.2-1.1,0.2C733.1,304.6,732.6,304.5,732.1,304.2L732.1,304.2z M727.2,304.3
			c-0.4-0.2-0.7-0.5-0.8-0.9c-0.4-0.8-0.4-1.8,0-2.7c0.2-0.4,0.5-0.7,0.8-0.9c0.4-0.2,0.8-0.3,1.3-0.3c0.4,0,0.8,0.1,1.2,0.3
			c0.4,0.2,0.6,0.5,0.8,0.8c0.2,0.4,0.3,0.9,0.3,1.4v0.4h-3.4l0,0c0,0.3,0.1,0.6,0.3,0.9c0.2,0.2,0.5,0.3,0.8,0.3
			c0.2,0,0.4,0,0.6-0.1c0.2-0.1,0.3-0.2,0.4-0.4l1.3,0.1c-0.1,0.4-0.4,0.8-0.7,1.1c-0.4,0.3-1,0.4-1.5,0.4
			C728,304.6,727.6,304.5,727.2,304.3L727.2,304.3z M727.7,300.9c-0.2,0.2-0.3,0.4-0.3,0.7h2.1c0-0.5-0.4-1-0.9-1c0,0-0.1,0-0.1,0
			C728.2,300.6,727.9,300.7,727.7,300.9L727.7,300.9z M695.8,304.3c-0.4-0.2-0.7-0.5-0.8-0.9c-0.4-0.8-0.4-1.8,0-2.7
			c0.2-0.4,0.5-0.7,0.8-0.9c0.4-0.2,0.8-0.3,1.3-0.3c0.4,0,0.8,0.1,1.2,0.3c0.4,0.2,0.6,0.5,0.8,0.8c0.2,0.4,0.3,0.9,0.3,1.4v0.4
			H696l0,0c0,0.3,0.1,0.6,0.3,0.9c0.2,0.2,0.5,0.3,0.8,0.3c0.2,0,0.4,0,0.6-0.1c0.2-0.1,0.3-0.2,0.4-0.4l1.3,0.1
			c-0.1,0.4-0.4,0.8-0.7,1.1c-0.5,0.3-1,0.4-1.5,0.4C696.7,304.6,696.2,304.5,695.8,304.3L695.8,304.3z M696.4,300.9
			c-0.2,0.2-0.3,0.4-0.3,0.7h2.1c0-0.5-0.4-1-0.9-1c0,0,0,0-0.1,0C696.8,300.6,696.6,300.7,696.4,300.9L696.4,300.9z M660.9,304.3
			c-0.4-0.2-0.7-0.5-0.8-0.9c-0.4-0.8-0.4-1.8,0-2.6c0.2-0.4,0.5-0.7,0.8-0.9c0.8-0.4,1.8-0.4,2.6,0c0.4,0.2,0.7,0.5,0.8,0.9
			c0.4,0.8,0.4,1.8,0,2.6c-0.2,0.4-0.5,0.7-0.8,0.9C662.6,304.7,661.7,304.7,660.9,304.3z M661.4,301c-0.4,0.7-0.4,1.5,0,2.1
			c0.2,0.3,0.5,0.4,0.8,0.4c0.3,0,0.6-0.1,0.8-0.4c0.4-0.7,0.4-1.5,0-2.1c-0.2-0.3-0.5-0.4-0.8-0.4
			C661.8,300.6,661.5,300.7,661.4,301L661.4,301z M706.2,304.2c-0.5-0.5-0.6-1.3-0.2-1.9c0.2-0.2,0.4-0.4,0.7-0.5
			c0.3-0.1,0.6-0.2,0.9-0.2c0.3,0,0.6-0.1,0.9-0.1c0.2,0,0.3-0.1,0.3-0.3v0c0-0.2-0.1-0.3-0.2-0.5c-0.2-0.1-0.3-0.2-0.5-0.2
			c-0.2,0-0.4,0-0.6,0.2c-0.1,0.1-0.2,0.2-0.3,0.4l-1.3-0.1c0.1-0.4,0.3-0.8,0.7-1.1c0.4-0.3,0.9-0.4,1.5-0.4c0.4,0,0.7,0.1,1,0.2
			c0.3,0.1,0.6,0.3,0.8,0.5c0.2,0.3,0.3,0.6,0.3,0.9v3.3h-1.3v-0.7h0c-0.1,0.2-0.3,0.4-0.5,0.6c-0.3,0.2-0.6,0.2-0.9,0.2
			C706.9,304.6,706.5,304.5,706.2,304.2L706.2,304.2z M708.5,302.3c-0.1,0-0.2,0.1-0.4,0.1l-0.3,0.1c-0.2,0-0.4,0.1-0.6,0.2
			c-0.1,0.1-0.2,0.3-0.2,0.4c0,0.2,0.1,0.3,0.2,0.4c0.2,0.1,0.3,0.2,0.5,0.1c0.3,0,0.5-0.1,0.7-0.3c0.2-0.2,0.3-0.4,0.3-0.6v-0.5
			C708.7,302.3,708.6,302.3,708.5,302.3L708.5,302.3z M684.9,304.2c-0.5-0.5-0.6-1.3-0.2-1.9c0.2-0.2,0.4-0.4,0.7-0.5
			c0.3-0.1,0.6-0.2,0.9-0.2c0.3,0,0.6-0.1,0.9-0.1c0.2,0,0.3-0.1,0.3-0.3v0c0-0.2-0.1-0.3-0.2-0.5c-0.2-0.1-0.3-0.2-0.5-0.2
			c-0.2,0-0.4,0-0.6,0.2c-0.1,0.1-0.2,0.2-0.3,0.4l-1.3-0.1c0.1-0.4,0.3-0.8,0.7-1.1c0.4-0.3,0.9-0.4,1.5-0.4c0.4,0,0.7,0.1,1,0.2
			c0.3,0.1,0.6,0.3,0.8,0.5c0.2,0.3,0.3,0.6,0.3,0.9v3.3h-1.3v-0.7h0c-0.1,0.2-0.3,0.4-0.5,0.6c-0.3,0.2-0.6,0.2-0.9,0.2
			C685.7,304.6,685.2,304.5,684.9,304.2L684.9,304.2z M687.3,302.3c-0.1,0-0.2,0.1-0.4,0.1l-0.3,0.1c-0.2,0-0.4,0.1-0.6,0.2
			c-0.1,0.1-0.2,0.3-0.2,0.4c0,0.2,0.1,0.3,0.2,0.4c0.2,0.1,0.3,0.2,0.5,0.1c0.3,0,0.5-0.1,0.7-0.3c0.2-0.2,0.3-0.4,0.3-0.6v-0.5
			C687.4,302.3,687.3,302.3,687.3,302.3L687.3,302.3z M717.8,304.3c-0.3-0.2-0.6-0.5-0.7-0.8c-0.2-0.4-0.3-0.9-0.3-1.4
			c0-0.5,0.1-1,0.3-1.4c0.2-0.3,0.4-0.6,0.7-0.8c0.3-0.2,0.6-0.3,1-0.3c0.2,0,0.5,0,0.7,0.1c0.2,0.1,0.3,0.2,0.5,0.3
			c0.1,0.1,0.2,0.3,0.3,0.4h0V298h1.4v6.5h-1.4v-0.8h-0.1c-0.1,0.1-0.2,0.3-0.3,0.4c-0.1,0.1-0.3,0.3-0.5,0.3
			c-0.2,0.1-0.4,0.1-0.7,0.1C718.5,304.6,718.1,304.5,717.8,304.3L717.8,304.3z M718.5,301c-0.2,0.3-0.3,0.7-0.3,1
			c0,0.4,0.1,0.7,0.3,1c0.3,0.4,0.9,0.5,1.3,0.2c0.1-0.1,0.2-0.1,0.2-0.2c0.2-0.3,0.3-0.7,0.3-1c0-0.4-0.1-0.7-0.3-1
			c-0.2-0.3-0.5-0.4-0.8-0.4C718.9,300.6,718.6,300.8,718.5,301L718.5,301z M712,304.3c-0.3-0.2-0.6-0.5-0.7-0.8
			c-0.2-0.4-0.3-0.9-0.3-1.4c0-0.5,0.1-1,0.3-1.4c0.2-0.3,0.4-0.6,0.7-0.8c0.3-0.2,0.6-0.3,1-0.3c0.2,0,0.5,0,0.7,0.1
			c0.2,0.1,0.3,0.2,0.5,0.3c0.1,0.1,0.2,0.3,0.3,0.4h0V298h1.4v6.5h-1.4v-0.8h-0.1c-0.1,0.1-0.2,0.3-0.3,0.4
			c-0.1,0.1-0.3,0.3-0.5,0.3c-0.2,0.1-0.4,0.1-0.7,0.1C712.7,304.6,712.3,304.5,712,304.3L712,304.3z M712.7,301
			c-0.2,0.3-0.3,0.7-0.3,1c0,0.4,0.1,0.7,0.3,1c0.3,0.4,0.9,0.5,1.3,0.2c0.1-0.1,0.2-0.1,0.2-0.2c0.2-0.3,0.3-0.7,0.3-1
			c0-0.4-0.1-0.7-0.3-1c-0.2-0.3-0.5-0.4-0.8-0.4C713.2,300.6,712.9,300.8,712.7,301L712.7,301z M701.1,304.2
			c-0.3-0.3-0.5-0.7-0.5-1.1v-2.5H700v-1h0.7v-1.2h1.4v1.2h0.9v1H702v2.4c0,0.1,0,0.3,0.1,0.4c0.1,0.1,0.2,0.1,0.3,0.1
			c0.1,0,0.1,0,0.2,0l0.1,0l0.2,1c-0.1,0-0.2,0-0.3,0.1c-0.1,0-0.3,0-0.5,0.1h-0.1C701.8,304.6,701.4,304.5,701.1,304.2L701.1,304.2
			z M666,304.1c-0.3-0.4-0.5-0.9-0.5-1.3v-3.1h1.4v2.9c0,0.2,0.1,0.5,0.2,0.7c0.2,0.2,0.4,0.3,0.6,0.2c0.2,0,0.5-0.1,0.7-0.3
			c0.2-0.2,0.3-0.5,0.3-0.7v-2.8h1.4v4.9h-1.3v-0.9h-0.1c-0.1,0.3-0.3,0.5-0.6,0.7c-0.3,0.2-0.6,0.3-0.9,0.3
			C666.7,304.6,666.3,304.4,666,304.1L666,304.1z M722.8,304.5v-4.9h1.3v0.9h0.1c0.1-0.3,0.2-0.5,0.5-0.7c0.2-0.2,0.5-0.2,0.7-0.2
			c0.1,0,0.3,0,0.4,0v1.2c-0.1,0-0.2,0-0.3-0.1c-0.1,0-0.2,0-0.3,0c-0.3,0-0.5,0.1-0.8,0.3c-0.2,0.2-0.3,0.5-0.3,0.7v2.8
			L722.8,304.5z M692.4,304.5V298h1.4v6.5H692.4z M689.9,304.5V298h1.4v6.5H689.9z M681.1,304.5l-0.9-3.1h-0.1l-0.9,3.1h-1.5
			l-1.3-4.9h1.4l0.8,3.3h0l0.8-3.3h1.4l0.8,3.3h0l0.8-3.3h1.4l-1.3,4.9L681.1,304.5z M671.1,304.5v-4.9h1.3v0.9h0.1
			c0.1-0.3,0.2-0.5,0.5-0.7c0.2-0.2,0.5-0.2,0.7-0.2c0.1,0,0.3,0,0.4,0v1.2c-0.1,0-0.2,0-0.3-0.1c-0.1,0-0.2,0-0.3,0
			c-0.3,0-0.5,0.1-0.8,0.3c-0.2,0.2-0.3,0.5-0.3,0.7v2.8L671.1,304.5z M656.4,304.5v-2.3L654,298h1.6l1.5,2.8h0.1l1.5-2.8h1.6
			l-2.4,4.2v2.3H656.4z"/>
		<path id="_10_000.00" class="st4" d="M672,326c0.1-0.2,0.1-0.5,0.2-0.9c0.1-0.4,0.2-0.8,0.3-1.2c0.1-0.5,0.1-0.9,0.2-1.4l0-0.6
			h1.9l-0.1,0.6c0,0.5-0.1,0.9-0.3,1.4c-0.1,0.5-0.3,0.9-0.4,1.3c-0.1,0.4-0.3,0.7-0.3,0.9L672,326z M723.4,322.9
			c-0.7-0.5-1.2-1.1-1.5-1.9c-0.4-1-0.6-2-0.5-3c-0.1-1.5,0.3-2.9,1.2-4.1c0.8-1,2-1.5,3.3-1.5c0.8,0,1.7,0.2,2.4,0.7
			c0.7,0.5,1.2,1.1,1.5,1.9c0.4,1,0.6,2,0.5,3c0.1,1.5-0.3,2.9-1.2,4.2c-0.8,1-2,1.5-3.3,1.5C725,323.6,724.1,323.4,723.4,322.9
			L723.4,322.9z M724.3,315.2c-0.8,1.8-0.8,3.8,0,5.6c0.4,0.8,1.4,1.2,2.3,0.8c0.3-0.2,0.6-0.4,0.8-0.8c0.4-0.9,0.6-1.8,0.6-2.8
			c0.1-1-0.1-1.9-0.6-2.8c-0.4-0.8-1.4-1.2-2.3-0.7C724.7,314.6,724.5,314.9,724.3,315.2L724.3,315.2z M713,322.9
			c-0.7-0.5-1.2-1.1-1.5-1.9c-0.4-1-0.6-2-0.5-3c-0.1-1.5,0.3-2.9,1.2-4.1c0.8-1,2-1.5,3.3-1.5c0.8,0,1.7,0.2,2.4,0.7
			c0.7,0.5,1.2,1.1,1.5,1.9c0.4,1,0.6,2,0.5,3c0.1,1.5-0.3,2.9-1.2,4.2c-0.8,1-2,1.5-3.3,1.5C714.5,323.6,713.7,323.4,713,322.9z
			 M713.9,315.2c-0.8,1.8-0.8,3.8,0,5.6c0.4,0.8,1.4,1.2,2.3,0.8c0.3-0.2,0.6-0.4,0.8-0.8c0.4-0.9,0.6-1.8,0.6-2.8
			c0.1-1-0.1-1.9-0.6-2.8c-0.4-0.8-1.4-1.2-2.3-0.7C714.3,314.6,714,314.9,713.9,315.2L713.9,315.2z M699,322.9
			c-0.7-0.5-1.2-1.1-1.5-1.9c-0.4-1-0.6-2-0.5-3c-0.1-1.5,0.3-2.9,1.2-4.1c0.8-1,2-1.5,3.3-1.5c0.8,0,1.7,0.2,2.4,0.7
			c0.7,0.5,1.2,1.1,1.5,1.9c0.4,1,0.6,2,0.5,3c0.1,1.5-0.3,2.9-1.2,4.2c-0.8,1-2,1.5-3.3,1.5C700.5,323.6,699.7,323.4,699,322.9
			L699,322.9z M699.9,315.2c-0.8,1.8-0.8,3.8,0,5.6c0.4,0.8,1.4,1.2,2.3,0.8c0.3-0.2,0.6-0.4,0.8-0.8c0.4-0.9,0.6-1.8,0.6-2.8
			c0.1-1-0.1-1.9-0.6-2.8c-0.4-0.8-1.4-1.2-2.3-0.7C700.3,314.6,700,314.9,699.9,315.2L699.9,315.2z M688.6,322.9
			c-0.7-0.5-1.2-1.1-1.5-1.9c-0.4-1-0.6-2-0.5-3c-0.1-1.5,0.3-2.9,1.2-4.1c0.8-1,2-1.5,3.3-1.5c0.8,0,1.7,0.2,2.4,0.7
			c0.7,0.5,1.2,1.1,1.5,1.9c0.4,1,0.6,2,0.5,3c0.1,1.5-0.3,2.9-1.2,4.2c-0.8,1-2,1.5-3.3,1.5C690.1,323.6,689.3,323.4,688.6,322.9
			L688.6,322.9z M689.4,315.2c-0.8,1.8-0.8,3.8,0,5.6c0.4,0.8,1.4,1.2,2.3,0.8c0.3-0.2,0.6-0.4,0.8-0.8c0.4-0.9,0.6-1.8,0.6-2.8
			c0.1-1-0.1-1.9-0.6-2.8c-0.4-0.8-1.4-1.2-2.3-0.7C689.9,314.6,689.6,314.9,689.4,315.2L689.4,315.2z M678.1,322.9
			c-0.7-0.5-1.2-1.1-1.5-1.9c-0.4-1-0.6-2-0.5-3c-0.1-1.5,0.3-2.9,1.2-4.1c0.8-1,2-1.5,3.3-1.5c0.8,0,1.7,0.2,2.4,0.7
			c0.7,0.5,1.2,1.1,1.5,1.9c0.4,1,0.6,2,0.5,3c0.1,1.5-0.3,2.9-1.2,4.2c-0.8,1-2,1.5-3.3,1.5C679.7,323.6,678.9,323.4,678.1,322.9
			L678.1,322.9z M679,315.2c-0.8,1.8-0.8,3.8,0,5.6c0.4,0.8,1.4,1.2,2.3,0.8c0.3-0.2,0.6-0.4,0.8-0.8c0.4-0.9,0.6-1.8,0.6-2.8
			c0.1-1-0.1-1.9-0.6-2.8c-0.4-0.8-1.4-1.2-2.3-0.7C679.4,314.6,679.2,314.9,679,315.2L679,315.2z M664,322.9
			c-0.7-0.5-1.2-1.1-1.5-1.9c-0.4-1-0.6-2-0.5-3c-0.1-1.5,0.3-2.9,1.2-4.1c0.8-1,2-1.5,3.3-1.5c0.8,0,1.7,0.2,2.4,0.7
			c0.7,0.5,1.2,1.1,1.5,1.9c0.4,1,0.6,2,0.5,3c0.1,1.5-0.3,2.9-1.2,4.2c-0.8,1-2,1.5-3.3,1.5C665.6,323.6,664.8,323.4,664,322.9
			L664,322.9z M664.9,315.2c-0.8,1.8-0.8,3.8,0,5.6c0.4,0.8,1.4,1.2,2.3,0.8c0.3-0.2,0.6-0.4,0.8-0.8c0.4-0.9,0.6-1.8,0.6-2.8
			c0.1-1-0.1-1.9-0.6-2.8c-0.4-0.8-1.4-1.2-2.3-0.7C665.3,314.6,665.1,314.9,664.9,315.2L664.9,315.2z M707.5,323.1
			c-0.5-0.5-0.5-1.3,0-1.8c0,0,0,0,0,0c0.5-0.5,1.3-0.5,1.8,0c0.5,0.5,0.5,1.2,0.1,1.7c0,0,0,0-0.1,0.1
			C708.8,323.6,708,323.6,707.5,323.1z M657.2,323.4v-8.7h-0.1l-2.5,1.6v-2l2.7-1.7h2.2v10.8L657.2,323.4z"/>
		<path id="Фигура_732" class="st7" d="M658,283c0,0,9.3-9.2,10.5-9.3s8.5,7.3,8.5,7.3c-3.5,2.4-7.7,3.8-12,4
			C658.4,285,658,283,658,283z"/>
		<path id="Фигура_733" class="st7" d="M652,279l11-9c1.9-1.8,3-4.4,3-7v-16c0,0-19.2,0.8-20,18C645.5,275.8,652,279,652,279z
			"/>
		<g id="Эллипс_728_копия" transform="translate(645 246)">
			<circle class="st2" cx="20" cy="20" r="20"/>
			<circle class="st8" cx="20" cy="20" r="19"/>
		</g>
		<path id="Фигура_730" class="st8" d="M651,279c0,0,9.1-7.5,10.5-8.6s3.5-3.2,3.5-6.3V247"/>
		<path id="Фигура_731" class="st3" d="M656.9,282.7c0,0,8.4-7.3,9.3-8.1c1.3-1.2,3.2-1.2,4.5,0c1.3,1.2,6.9,5.7,6.9,5.7"/>
	</g>
	<g id="Группа_1">
		<path id="Эллипс_968_копия_3" class="st1" d="M975,422c34.2,0,62-27.8,62-62s-27.8-62-62-62c-34.2,0-61,27.8-61,62
			c0,0.1,0,0.9,0,1.1c-0.3,46.7-38.4,84.2-85.1,83.9s-84.2-38.4-83.9-85.1c0.3-46.4,38-83.9,84.5-83.9h0.5c14.3,0,26-11.6,26-25.9
			c0,0,0,0,0-0.1"/>
		<path id="_1_копия_5" class="st9" d="M973.3,422.6l3,3c0.3,0.5,1,0.6,1.4,0.3c0,0,0,0,0.1,0c0.5-0.4,0.5-1.1,0.1-1.6
			l-2.3-2.1l2-2.1c0.5-0.4,0.5-1.1,0.1-1.6c-0.3-0.5-1-0.6-1.4-0.3c0,0,0,0-0.1,0l-2.9,2.8c-0.2,0.2-0.4,0.5-0.4,0.8
			C973,422,973.1,422.3,973.3,422.6z"/>
		<g id="Эллипс_3_копия_4" transform="translate(934 319)">
			<circle class="st2" cx="42" cy="42" r="42"/>
			<circle class="st1" cx="42" cy="42" r="41"/>
		</g>
		<path id="_" class="st9" d="M983,365.6c0-7.2-9.7-5.7-9.7-9.3c0-1.2,1-2.1,2.6-2.1c1.5,0,2.8,0.6,3.9,1.7c0.1,0.2,0.4,0.2,0.5,0
			c0,0,0.1-0.1,0.1-0.1l1.6-2c0.2-0.1,0.2-0.4,0.1-0.5c0,0,0,0-0.1-0.1c-1.2-1.3-2.8-2.2-4.5-2.6v-2.2c0-0.2-0.2-0.4-0.4-0.4
			c0,0,0,0,0,0h-2.1c-0.2,0-0.4,0.2-0.4,0.4c0,0,0,0,0,0v2.1c-2.9,0.4-5,2.8-5,5.7c0,6.8,9.6,5.6,9.6,9.3c0,1.5-1.4,2.4-3.1,2.4
			c-1.7-0.1-3.3-0.8-4.5-2c-0.1-0.2-0.4-0.2-0.6-0.1c0,0-0.1,0.1-0.1,0.1l-1.7,1.9c-0.2,0.2-0.2,0.4,0,0.6c1.4,1.6,3.3,2.7,5.4,3.1
			v2c0,0.2,0.2,0.4,0.4,0.4c0,0,0,0,0,0h2.1c0.2,0,0.4-0.2,0.4-0.4c0,0,0,0,0,0v-2C980.4,371,983,368.9,983,365.6z"/>
		<g id="ARK">
			<path id="Эллипс_3" class="st0" d="M870.1,406.3c11.2-10.5,27.3-29.9,19.1-61.3c13.8,27.7,2.5,61.4-25.2,75.1
				c-16.1,8-35,7.8-51-0.5C829.2,428.1,858.9,416.9,870.1,406.3z"/>
			<g id="Эллипс_3_копия_2" transform="translate(768 299)">
				<circle class="st2" cx="62" cy="62" r="62"/>
				<circle class="st8" cx="62" cy="62" r="61"/>
			</g>
			<path id="Эллипс_3_копия_13" class="st3" d="M795.2,396.1c-19.1-19.2-18.9-50.2,0.3-69.3s50.2-18.9,69.3,0.3
				c19.1,19.2,18.9,50.2-0.3,69.3c-0.2,0.2-0.4,0.4-0.6,0.6"/>
			<path id="A-2" class="st7" d="M827.4,378v-8H824l-2.5,8H815l11.6-35h6.9l11.5,35h-6.5l-2.5-8h-3.5v8H827.4z M825.8,364.2h8.5
				l-4.1-13.2h-0.3L825.8,364.2z"/>
		</g>
	</g>
	<path id="Прямоугольник_1_копия_11" class="st4" d="M745,504v-26h-38v26h-2v-26h-22v-2h22v-38h-12v-2h12v-29h2
		v29h38v-9h2v9h4v2h-4v38h38v-9h2v9h11v2h-11v16h-2v-16h-38v26H745z M745,476v-38h-38v38H745z M305,504v-26h-39v26h-2v-26h-19v-2h19
		v-38h-19v-2h19v-54h2v54h19v2h-19v38h39v-4h2v4h38v-4h2v4h23v2h-23v6h-2v-6h-38v26H305z M1105,503v-24h-38v24h-2v-24h-38v15h-2v-15
		h-38v15h-2v-15h-38v15h-2v-15h-38v15h-2v-15h-24v-2h24v-39h-9v-2h9v-9h2v9h38v-9h2v9h7v2h-7v39h38v-20h2v20h38v-39h-9v-2h9v-9h2v9
		h38v-10h2v10h38v-37h-9v-2h9v-39h-9v-2h9v-10h2v10h16v2h-16v39h16v2h-16v37h16v2h-16v39h16v2h-16v24H1105z M1105,477v-39h-38v39
		H1105z M1065,477v-39h-38v39H1065z M945,477v-39h-38v39H945z M545,494v-16h-38v6h-2v-6h-20v-2h20v-4h2v4h38v-4h2v4h38v-9h2v9h13v2
		h-13v11h-2v-11h-38v16H545z M866,483v-4h-4v-2h4v-4h2v4h4v2h-4v4H866z M384,482v-4h-4v-2h4v-4h2v4h4v2h-4v4H384z M305,463v-4h-4v-2
		h4v-4h2v4h4v2h-4v4H305z M1080,403v-4h-4v-2h4v-4h2v4h4v2h-4v4H1080z M705,397v-4h-4v-2h4v-4h2v4h4v2h-4v4H705z M1065,327v-9h-15
		v-2h15v-38h-38v9h-2v-9h-16v-2h16v-38h-38v9h-2v-9h-38v9h-2v-9h-38v38h8v2h-8v9h-2v-9h-19v-2h19v-38h-10v-2h10v-39h-38v21h-2v-21
		h-23v-2h23v-24h2v24h38v-5h2v5h38v-5h2v5h38v-25h2v25h38v-25h2v25h38v-25h2v25h38v-7h2v7h18v2h-18v39h18v2h-18v38h10v2h-10v7h-2v-7
		h-38v38h10v2h-10v9H1065z M1105,276v-38h-38v38H1105z M1065,276v-38h-38v38H1065z M1105,236v-39h-38v39H1105z M1065,236v-39h-38v39
		H1065z M1025,236v-39h-38v39H1025z M985,236v-39h-38v39H985z M945,236v-39h-38v39H945z M265,321v-4h-4v-2h4v-4h2v4h4v2h-4v4H265z
		 M265,301v-23h-20v-2h20v-38h-10v-2h10v-38h-22v-2h22v-27h2v27h38v-27h2v27h6v2h-6v38h18v2h-18v3h-2v-3h-38v38h18v2h-18v23H265z
		 M305,236v-38h-38v38H305z M929,282v-4h-4v-2h4v-4h2v4h4v2h-4v4H929z M585,267v-4h-4v-2h4v-4h2v4h4v2h-4v4H585z M305,261v-4h-4v-2
		h4v-4h2v4h4v2h-4v4H305z M585,247v-8h-21v-2h21v-39h-38v9h-2v-9h-7v-2h7v-25h2v25h38v-25h2v25h38v-15h2v15h21v2h-21v9h-2v-9h-38v39
		h5v2h-5v8H585z M944,181v-4h-4v-2h4v-4h2v4h4v2h-4v4H944z"/>
</g>
</svg>
