<?xml version="1.0" encoding="utf-8"?>
<!-- Generator: Adobe Illustrator 23.0.6, SVG Export Plug-In . SVG Version: 6.00 Build 0)  -->
<svg version="1.1" id="Слой_1" xmlns="http://www.w3.org/2000/svg" xmlns:xlink="http://www.w3.org/1999/xlink" x="0px" y="0px"
	 viewBox="0 0 1046 146" style="enable-background:new 0 0 1046 146;" xml:space="preserve">
<style type="text/css">
	.st0{clip-path:url(#SVGID_2_);}
	.st1{fill:#E7F9FD;}
	.st2{fill:#A1CFF0;}
	.st3{fill:#FCFEFF;}
	.st4{clip-path:url(#SVGID_4_);}
	.st5{fill:#D7F0F6;}
	.st6{fill:#FEFFFF;}
	.st7{clip-path:url(#SVGID_6_);}
	.st8{fill:#6EADDB;}
	.st9{clip-path:url(#SVGID_8_);}
	.st10{fill:#BBE2FF;}
	.st11{fill:#608FB1;}
	.st12{clip-path:url(#SVGID_10_);}
	.st13{clip-path:url(#SVGID_12_);}
	.st14{fill:#B0CCE1;}
	.st15{fill:#7EA5C2;}
	.st16{fill:#A6C7E0;}
</style>
<g>
	<g>
		<defs>
			<rect id="SVGID_1_" width="1046" height="146"/>
		</defs>
		<clipPath id="SVGID_2_">
			<use xlink:href="#SVGID_1_"  style="overflow:visible;"/>
		</clipPath>
		<g id="Canvas" class="st0">
			<path id="Прямоугольник_скругл._углы_967" class="st1" d="M-3.9,0h1052.3c5.5,0-2.3,4.5-2.3,10v136l0,0H0
				l0,0V10C0,4.5-9.4,0-3.9,0z"/>
			<path id="Фигура_2201" class="st2" d="M52.6,48.2c13.8-0.4,24.7-0.6,23.7-6.4S65.8,36.3,60.9,36
				c-17.3-1.2-16.1-12.5-28.2-14.1S4.4,25.2-4.4,24.4S-25,2.2-48.5,2s-35.9,17.8-42.3,21.8s-24.5,10.6-32.7,11.6
				s-13.4,11.8,4.5,14.1s65.7-3.2,90.9-0.6S38.8,48.5,52.6,48.2z"/>
			<path id="Фигура_2202" class="st3" d="M293.1,32.8c-1.7,5.8,9,11,19.8,7.7s20.8-2.3,43.5,2.6s36.5-3.6,58.3,0
				s36.1-3.5,49.3,0s19.2-12.9,8.3-16s-26.9,0.6-33.9-9C420-7.1,403.6-15.1,382.7-4.4c-18.1,9.3-10.8,18.8-39.1,14.1
				c-12.4-2-13.4,8.1-21.8,13.5s-14.4,2.4-18.6,2.6S294.8,27,293.1,32.8z"/>
			<g id="Фигура_2196-2">
				<path id="Фигура_2196-3" class="st2" d="M344.2,200.2c0,0-13.8-15.3-16.3-30.7s2.2-13.9-0.9-21.4s-6.5-49.8-6.5-49.8
					l1.4-47l7,3.3c0,0,6.4,9.9,10.2,13.5s7.9,8.4,7.9,8.4s-5.1-16.9-6.1-19.1s0.1-2.4-2.8-5.6S326.5,36,326.5,36l1.9-12.1
					c0,0,1.7-3,2.3-3.7s3-2.3,5.1,0.5s6.7,7.5,8.8,9.8s2.7,2.9,4.2,4.7c2.3,2.8,4.8,5.4,7.5,7.9c2.3,2,2.7,5,3.7,7.5
					s15.1,31.6,16.8,34.9s2.1,5.1,3.3,10.2s16.5,60.6,17.2,65.2s1.4,10.2,1.4,10.2L344.2,200.2z"/>
				<g>
					<g>
						<defs>
							<path id="SVGID_3_" d="M344.2,200.2c0,0-13.8-15.3-16.3-30.7s2.2-13.9-0.9-21.4s-6.5-49.8-6.5-49.8l1.4-47l7,3.3
								c0,0,6.4,9.9,10.2,13.5s7.9,8.4,7.9,8.4s-5.1-16.9-6.1-19.1s0.1-2.4-2.8-5.6S326.5,36,326.5,36l1.9-12.1c0,0,1.7-3,2.3-3.7
								s3-2.3,5.1,0.5s6.7,7.5,8.8,9.8s2.7,2.9,4.2,4.7c2.3,2.8,4.8,5.4,7.5,7.9c2.3,2,2.7,5,3.7,7.5s15.1,31.6,16.8,34.9
								s2.1,5.1,3.3,10.2s16.5,60.6,17.2,65.2s1.4,10.2,1.4,10.2L344.2,200.2z"/>
						</defs>
						<clipPath id="SVGID_4_">
							<use xlink:href="#SVGID_3_"  style="overflow:visible;"/>
						</clipPath>
						<g id="Clip" class="st4">
							<path id="Фигура_2197" class="st5" d="M386.6,117.8c0,0-11.9-19.3-13-22.3s-2.9-3-5.1-7.4s-10.5-18.8-13-23.7
								s-1.2-7.6,0.9-8.8s5.8-1.9,9.8,4.2s14.8,22.8,16.3,30.3S386.6,117.8,386.6,117.8z"/>
						</g>
					</g>
				</g>
			</g>
			<g id="Фигура_2190-2">
				<path id="Фигура_2190-3" class="st6" d="M93.3,47.9c-1.7-2.1-3.7-3.8-6.1-5.1c-1.6-0.8-4.2-1.3-5.1,2.8
					s-8.3,26.9-9.3,28.9s-20,33.7-22.3,37.7s-4.8,9.3-5.1,14.9s-7.6,58.8-7.5,63.8s-0.5,4.7,3.3,4.7s45.9,14.4,47,16.3
					s5.1-4.7,5.1-4.7s12.8-25.3,11.6-45.6s-3.3-83.3-3.3-83.3c-1.2,0.6-2.3,1.4-3.3,2.3c-2.2,1.9-11.2,11.2-11.2,11.2
					s2.9-5.9,3.3-7.9c0.2-1.5,0.2-3.1,0-4.7c0,0,3.5-3.3,4.7-12.6S95.4,50.4,93.3,47.9z"/>
				<g>
					<g>
						<defs>
							<path id="SVGID_5_" d="M93.3,47.9c-1.7-2.1-3.7-3.8-6.1-5.1c-1.6-0.8-4.2-1.3-5.1,2.8s-8.3,26.9-9.3,28.9s-20,33.7-22.3,37.7
								s-4.8,9.3-5.1,14.9s-7.6,58.8-7.5,63.8s-0.5,4.7,3.3,4.7s45.9,14.4,47,16.3s5.1-4.7,5.1-4.7s12.8-25.3,11.6-45.6
								s-3.3-83.3-3.3-83.3c-1.2,0.6-2.3,1.4-3.3,2.3c-2.2,1.9-11.2,11.2-11.2,11.2s2.9-5.9,3.3-7.9c0.2-1.5,0.2-3.1,0-4.7
								c0,0,3.5-3.3,4.7-12.6S95.4,50.4,93.3,47.9z"/>
						</defs>
						<clipPath id="SVGID_6_">
							<use xlink:href="#SVGID_5_"  style="overflow:visible;"/>
						</clipPath>
						<g id="Clip-2" class="st7">
							<path id="Фигура_2192" class="st5" d="M68.1,168.1c0,0-0.9-45.6-0.9-46.6s-0.2-1.2-1.4-1.4c-1.6-0.5-3.2-1.1-4.7-1.9
								c1.5,0.3,3.1,0.4,4.7,0.5c1.3-0.1,1.8-0.4,2.3-1.9s14.7-29,15.4-30.3s0.8-2,0-2.8s-3.7-3.3-3.7-3.3s5.3-0.1,7,0
								s1.7-0.2,1.9-0.9S97.9,58.2,92,45s15.2,6.7,14.9,10.7s19,119.3,19,119.3l-18.2,35L90,215.1l-10.2-15.4
								c0,0,14.6-10.5,17.7-18.6s8.4-28.4,8.4-28.4l-33.1,12.6L68.1,168.1z"/>
							<path id="Фигура_2193" class="st2" d="M80.2,153.6C79,129.9,75.1,121,75.1,121s8.9-23.6,13-30.7S103,74.5,103,74.5
								l9.8,86.6l-8.4,38.2l-10.7,14l-6.1-1.4l-3.7-7.4l1.4-8.8l9.8-14.4l5.1-11.2l0.9-5.6C101.2,164.3,80.7,162.7,80.2,153.6z"/>
						</g>
					</g>
				</g>
			</g>
			<g id="Фигура_2187-2">
				<path id="Фигура_2187-3" class="st8" d="M113.7,156.9c-4.2,0.4-15.1-0.6-15.8-9.8s-6.5-124.2-6.5-129S95.7,6.3,105.8,6
					s201.8,0,209.1,0s14.6,2.8,14.9,16.8s4.7,107.1,4.7,113.1s-3,13.1-12.1,14S118,156.5,113.7,156.9z"/>
				<g>
					<g>
						<defs>
							<path id="SVGID_7_" d="M113.7,156.9c-4.2,0.4-15.1-0.6-15.8-9.8s-6.5-124.2-6.5-129S95.7,6.3,105.8,6s201.8,0,209.1,0
								s14.6,2.8,14.9,16.8s4.7,107.1,4.7,113.1s-3,13.1-12.1,14S118,156.5,113.7,156.9z"/>
						</defs>
						<clipPath id="SVGID_8_">
							<use xlink:href="#SVGID_7_"  style="overflow:visible;"/>
						</clipPath>
						<g id="Clip-3" class="st9">
							<path id="Фигура_2188" class="st10" d="M117,157.4c-4.9,0.2-14.9,0.2-15.8-12.1S94.7,22.2,94.7,16.7
								s6.1-12.2,12.6-12.1s206.4-0.2,211.9,0s11,4.1,11.6,13.5s5.5,113.5,5.6,120.6s-2.6,13.3-9.3,13.5S121.9,157.2,117,157.4z"/>
						</g>
					</g>
				</g>
			</g>
			<path id="Фигура_2189" class="st11" d="M105.4,139.7c0.2,7.6,4.7,11,10.2,11.2s197.3-5.8,203-6.1s11.1-2.4,11.2-13
				S325,30.3,324.7,24.2s-2.4-13.5-12.6-13.5S116.4,11,111.4,11.2s-10.3,3.1-10.2,10.7S105.2,134.2,105.4,139.7z"/>
			<g id="Фигура_2198-2">
				<path id="Фигура_2198-3" class="st5" d="M347,189.5c0,0-10.5-14-9.8-32.1c0.3-10.7,3.7-21,9.8-29.8l-7.9-26.1
					c0,0-8.1-2.1-12.6-6.1s-7.3-6.8-7.5-12.1s0.7-8.6,4.7-7.4s26.9,7.1,29.8,7.4c2.5,0.1,4.8,1.5,6.1,3.7c1.5,2.3,15.9,30.2,18.2,34
					c2.7,4.7,4.2,10,4.2,15.4c0.1,6.3,0,25.1,1.4,31.7S347,189.5,347,189.5z"/>
				<g>
					<g>
						<defs>
							<path id="SVGID_9_" d="M347,189.5c0,0-10.5-14-9.8-32.1c0.3-10.7,3.7-21,9.8-29.8l-7.9-26.1c0,0-8.1-2.1-12.6-6.1
								s-7.3-6.8-7.5-12.1s0.7-8.6,4.7-7.4s26.9,7.1,29.8,7.4c2.5,0.1,4.8,1.5,6.1,3.7c1.5,2.3,15.9,30.2,18.2,34
								c2.7,4.7,4.2,10,4.2,15.4c0.1,6.3,0,25.1,1.4,31.7S347,189.5,347,189.5z"/>
						</defs>
						<clipPath id="SVGID_10_">
							<use xlink:href="#SVGID_9_"  style="overflow:visible;"/>
						</clipPath>
						<g id="Clip-4" class="st12">
							<path id="Фигура_2199" class="st6" d="M349.3,185.8c0,0-5.1-37.8,14.9-53.1c1-0.7,2.1-2.8,1.4-3.7s-1.4-1.9-1.4-1.9
								c1.1-1.7,1.1-3.9,0-5.6c-1.9-3.3-11.2-22.5-15.8-29.8c-0.3-0.5-0.7-1,0-1.4s7.9-4.6,7.5-7.4s-32.3-8.1-33.5-8.4
								s-2.7,2.6-1.9,7s4.2,11.5,14.9,14c1.2,0.2,2.5,0.2,3.7,0c-0.2,2.9-0.2,5.9,0,8.8c0.4,4.5,6.5,23.7,6.5,23.7s-8.6,15.8-7,28.9
								s6.1,27,8.4,29.8S349.3,185.8,349.3,185.8z"/>
						</g>
					</g>
				</g>
			</g>
			<path id="Фигура_2200" class="st8" d="M344.2,204.8c-4.7-5.7-5.4-7.7-1.9-12.6s14.6-23,37.7-27s26.2,5.4,29.3,9.8
				s21.4,32.6,21.4,32.6l-81,5.1C349.8,212.8,348.9,210.6,344.2,204.8z"/>
			<g id="Фигура_2194-2">
				<path id="Фигура_2194-3" class="st5" d="M83.9,207.2c0,0,2.9-3.6,3.3-5.1c0.2-1.1,0.4-2.2,0.5-3.3
					c8.4-8.8,14.2-19.8,16.8-31.7c0.7-2.4,1.6-4.8,2.8-7c2.4-5,1.2-5.7,1.9-6.1s12.6-2.4,14.9-17.2c0.2-1.9,0.3-3.8,0.1-5.7
					c-0.2-0.7-1.6-1.6-3.4-1.3s-19.3,2.8-21.4,2.8s-5.2,0.2-7,2.8s-28.9,35.9-28.9,35.9l-7,20L83.9,207.2z"/>
				<g>
					<g>
						<defs>
							<path id="SVGID_11_" d="M83.9,207.2c0,0,2.9-3.6,3.3-5.1c0.2-1.1,0.4-2.2,0.5-3.3c8.4-8.8,14.2-19.8,16.8-31.7
								c0.7-2.4,1.6-4.8,2.8-7c2.4-5,1.2-5.7,1.9-6.1s12.6-2.4,14.9-17.2c0.2-1.9,0.3-3.8,0.1-5.7c-0.2-0.7-1.6-1.6-3.4-1.3
								s-19.3,2.8-21.4,2.8s-5.2,0.2-7,2.8s-28.9,35.9-28.9,35.9l-7,20L83.9,207.2z"/>
						</defs>
						<clipPath id="SVGID_12_">
							<use xlink:href="#SVGID_11_"  style="overflow:visible;"/>
						</clipPath>
						<g id="Clip-5" class="st13">
							<path id="Фигура_2195" class="st6" d="M78.8,199.7c0,0,21.1-25,27-53.1c0.7-3.5,0.1-4.5-0.9-5.6s-3.7-4.5-5.6-5.6
								s-5.7-3-7.4-0.9s-29.3,37.7-29.3,37.7l-14.4,27.5H78.8z"/>
						</g>
					</g>
				</g>
			</g>
			<path id="Фигура_2191" class="st8" d="M32.7,210.9c0,0,2.7-8.1,2.3-11.6s-0.3-11.4,15.8-10.2s30.9,3.9,39.1,22.8
				C92.5,217.5,32.7,210.9,32.7,210.9z"/>
			<path id="Прямоугольник_скругл._углы_968" class="st14" d="M125.8,26h1.6c4.6-0.1,8.6,3.4,8.9,8l0.9,21.5
				c0.1,4.5-3.5,8.1-7.9,8.2c-0.1,0-0.2,0-0.3,0h-1.6c-4.6,0.1-8.6-3.4-8.9-8l-0.9-21.6c-0.1-4.4,3.5-8.1,7.9-8.2
				C125.5,25.9,125.6,25.9,125.8,26z"/>
			<path id="Прямоугольник_скругл._углы_968_копия_2" class="st15" d="M145.2,116.8l-2.8-84.5
				c-0.1-3.5,2.8-6.5,6.3-6.5c0.1,0,0.2,0,0.3,0L298.3,25c3.6-0.1,6.7,2.7,6.9,6.3l2.7,83.2c0.1,3.5-2.7,6.4-6.2,6.5
				c-0.1,0-0.1,0-0.2,0l-149.3,2.1h-0.1C148.5,123.2,145.5,120.4,145.2,116.8z M120,97l-0.9-21.6c-0.1-4.5,3.5-8.1,8-8.2
				c0.1,0,0.2,0,0.3,0h1.6c4.6-0.1,8.6,3.4,8.9,8l0.9,21.5c0.1,4.5-3.5,8.2-8,8.2c-0.1,0-0.2,0-0.3,0h-1.6h-0.1
				C124.2,105.1,120.3,101.6,120,97z"/>
			<path id="Прямоугольник_скругл._углы_970_копия_5" class="st16" d="M158.3,98.9l-0.3-8.2
				c-0.2-1.6,1-3,2.6-3.2h0.1l7.5-0.1c1.7,0.1,3,1.5,3,3.1l0.3,8.2c0.2,1.6-1,3-2.6,3.2h-0.1l-7.5,0.1l0,0
				C159.6,101.9,158.3,100.5,158.3,98.9z M207.2,98.3l-0.3-8.2c-0.2-1.6,1-3,2.6-3.2h0.1l7.5-0.1c1.7,0.1,3,1.5,3,3.1l0.3,8.2
				c0.2,1.6-1,3-2.6,3.2h-0.1l-7.5,0.1l0,0C208.6,101.4,207.3,100,207.2,98.3L207.2,98.3z M256.8,97.8l-0.3-8.2
				c-0.2-1.6,1-3,2.6-3.2h0.1l7.5-0.1c1.7,0.1,3,1.5,3,3.1l0.3,8.2c0.2,1.6-1,3-2.6,3.2h-0.1l-7.5,0.1l0,0
				C258.1,100.8,256.8,99.4,256.8,97.8L256.8,97.8z M174.3,95.2c-0.1-0.8,0.5-1.5,1.3-1.6c0,0,0,0,0.1,0l10.9-0.1
				c0.8,0,1.5,0.7,1.5,1.6c0.1,0.8-0.5,1.5-1.3,1.6c0,0,0,0-0.1,0l-10.9,0.1l0,0C174.9,96.7,174.3,96,174.3,95.2L174.3,95.2z
				 M223.2,94.7c-0.1-0.8,0.5-1.5,1.3-1.6c0,0,0,0,0.1,0l10.9-0.1c0.8,0,1.5,0.7,1.5,1.6c0.1,0.8-0.5,1.5-1.3,1.6c0,0,0,0-0.1,0
				l-10.9,0.1l0,0C223.9,96.2,223.2,95.5,223.2,94.7L223.2,94.7z M272.7,94.1c-0.1-0.8,0.5-1.5,1.3-1.6c0,0,0,0,0.1,0l10.9-0.1
				c0.8,0,1.5,0.7,1.5,1.6c0.1,0.8-0.5,1.5-1.3,1.6c0,0,0,0-0.1,0l-10.9,0.1l0,0C273.4,95.6,272.7,94.9,272.7,94.1L272.7,94.1z
				 M174.1,90.8c-0.1-0.8,0.5-1.5,1.3-1.6c0,0,0,0,0.1,0l19.6-0.2c0.8,0,1.5,0.7,1.5,1.6c0.1,0.8-0.5,1.5-1.3,1.6c0,0,0,0-0.1,0
				l-19.6,0.2l0,0C174.8,92.3,174.1,91.6,174.1,90.8L174.1,90.8z M223,90.2c-0.1-0.8,0.5-1.5,1.3-1.6c0,0,0,0,0.1,0l19.6-0.2
				c0.8,0,1.5,0.7,1.5,1.6c0.1,0.8-0.5,1.5-1.3,1.6c0,0,0,0-0.1,0l-19.6,0.2l0,0C223.7,91.7,223,91.1,223,90.2L223,90.2z
				 M272.5,89.7c-0.1-0.8,0.5-1.5,1.3-1.6c0,0,0,0,0.1,0l19.6-0.2c0.8,0,1.5,0.7,1.5,1.6c0.1,0.8-0.5,1.5-1.3,1.6c0,0,0,0-0.1,0
				L274,91.2l0,0C273.2,91.2,272.5,90.5,272.5,89.7L272.5,89.7z M157.4,76l-0.3-8.2c-0.2-1.6,1-3,2.6-3.2h0.1l7.5-0.1
				c1.7,0.1,3,1.5,3,3.1l0.3,8.2c0.2,1.6-1,3-2.6,3.2h-0.1l-7.5,0.1l0,0C158.7,79.1,157.4,77.7,157.4,76z M206.3,75.5l-0.3-8.2
				c-0.2-1.6,1-3,2.6-3.2h0.1l7.5-0.1c1.7,0.1,3,1.5,3,3.1l0.3,8.2c0.2,1.6-1,3-2.6,3.2h-0.1l-7.5,0.1l0,0
				C207.6,78.5,206.3,77.2,206.3,75.5L206.3,75.5z M255.8,74.9l-0.3-8.2c-0.2-1.6,1-3,2.6-3.2h0.1l7.5-0.1c1.7,0.1,3,1.5,3,3.1
				l0.3,8.2c0.2,1.6-1,3-2.6,3.2h-0.1l-7.5,0.1l0,0C257.1,78,255.8,76.6,255.8,74.9L255.8,74.9z M173.3,72.4
				c-0.1-0.8,0.5-1.5,1.3-1.6c0,0,0,0,0.1,0l10.9-0.1c0.8,0,1.5,0.7,1.5,1.6c0.1,0.8-0.5,1.5-1.3,1.6c0,0,0,0-0.1,0L174.8,74l0,0
				C174,73.9,173.3,73.2,173.3,72.4L173.3,72.4z M222.3,71.8c-0.1-0.8,0.5-1.5,1.3-1.6c0,0,0,0,0.1,0l10.9-0.1
				c0.8,0,1.5,0.7,1.5,1.6c0.1,0.8-0.5,1.5-1.3,1.6c0,0,0,0-0.1,0l-10.9,0.1l0,0C222.9,73.4,222.3,72.7,222.3,71.8L222.3,71.8z
				 M271.8,71.3c-0.1-0.8,0.5-1.5,1.3-1.6c0,0,0,0,0.1,0l10.9-0.1c0.8,0,1.5,0.7,1.5,1.6c0.1,0.8-0.5,1.5-1.3,1.6c0,0,0,0-0.1,0
				l-10.9,0.1l0,0C272.4,72.8,271.8,72.1,271.8,71.3L271.8,71.3z M173.1,67.9c-0.1-0.8,0.5-1.5,1.3-1.6c0,0,0,0,0.1,0l19.6-0.2
				c0.8,0,1.5,0.7,1.5,1.6c0.1,0.8-0.5,1.5-1.3,1.6c0,0,0,0-0.1,0l-19.6,0.2l0,0C173.8,69.5,173.2,68.8,173.1,67.9z M222.1,67.4
				c-0.1-0.8,0.5-1.5,1.3-1.6c0,0,0,0,0.1,0l19.6-0.2c0.8,0,1.5,0.7,1.5,1.6c0.1,0.8-0.5,1.5-1.3,1.6c0,0,0,0-0.1,0L223.6,69l0,0
				C222.7,68.9,222.1,68.2,222.1,67.4L222.1,67.4z M271.6,66.8c-0.1-0.8,0.5-1.5,1.3-1.6c0,0,0,0,0.1,0l19.6-0.2
				c0.8,0,1.5,0.7,1.5,1.6c0.1,0.8-0.5,1.5-1.3,1.6c0,0,0,0-0.1,0l-19.6,0.2l0,0C272.2,68.4,271.6,67.7,271.6,66.8L271.6,66.8z
				 M156.3,51.6l-0.3-8.2c-0.2-1.6,1-3,2.6-3.2h0.1l7.5-0.1c1.7,0.1,3,1.5,3,3.1l0.3,8.2c0.2,1.6-1,3-2.6,3.2h-0.1l-7.5,0.1l0,0
				C157.7,54.7,156.3,53.3,156.3,51.6z M205.3,51.1l-0.3-8.2c-0.2-1.6,1-3,2.6-3.2h0.1l7.5-0.1c1.7,0.1,3,1.5,3,3.1l0.3,8.2
				c0.2,1.6-1,3-2.6,3.2h-0.1l-7.5,0.1l0,0C206.6,54.1,205.3,52.8,205.3,51.1L205.3,51.1z M254.8,50.5l-0.3-8.2
				c-0.2-1.6,1-3,2.6-3.2h0.1l7.5-0.1c1.7,0.1,3,1.5,3,3.1l0.3,8.2c0.2,1.6-1,3-2.6,3.2h-0.1l-7.5,0.1l0,0
				C256.1,53.6,254.8,52.2,254.8,50.5L254.8,50.5z M172.3,48c-0.1-0.8,0.5-1.5,1.3-1.6c0,0,0,0,0.1,0l10.9-0.1
				c0.8,0,1.5,0.7,1.5,1.6c0.1,0.8-0.5,1.5-1.3,1.6c0,0,0,0-0.1,0l-10.9,0.1l0,0C173,49.5,172.3,48.8,172.3,48L172.3,48z
				 M221.2,47.4c-0.1-0.8,0.5-1.5,1.3-1.6c0,0,0,0,0.1,0l10.9-0.1c0.8,0,1.5,0.7,1.5,1.6c0.1,0.8-0.5,1.5-1.3,1.6c0,0,0,0-0.1,0
				L222.7,49l0,0C221.9,48.9,221.2,48.3,221.2,47.4L221.2,47.4z M270.7,46.9c-0.1-0.8,0.5-1.5,1.3-1.6c0,0,0,0,0.1,0l10.9-0.1
				c0.8,0,1.5,0.7,1.5,1.6c0.1,0.8-0.5,1.5-1.3,1.6c0,0,0,0-0.1,0l-10.9,0.1l0,0C271.4,48.4,270.7,47.7,270.7,46.9L270.7,46.9z
				 M172.1,43.5c-0.1-0.8,0.5-1.5,1.3-1.6c0,0,0,0,0.1,0l19.6-0.2c0.8,0,1.5,0.7,1.5,1.6c0.1,0.8-0.5,1.5-1.3,1.6c0,0,0,0-0.1,0
				l-19.6,0.2l0,0C172.8,45.1,172.1,44.4,172.1,43.5L172.1,43.5z M221,43c-0.1-0.8,0.5-1.5,1.3-1.6c0,0,0,0,0.1,0l19.6-0.2
				c0.8,0,1.5,0.7,1.5,1.6c0.1,0.8-0.5,1.5-1.3,1.6c0,0,0,0-0.1,0l-19.6,0.2l0,0C221.7,44.5,221.1,43.8,221,43L221,43z M270.5,42.4
				c-0.1-0.8,0.5-1.5,1.3-1.6c0,0,0,0,0.1,0l19.6-0.2c0.8,0,1.5,0.7,1.5,1.6c0.1,0.8-0.5,1.5-1.3,1.6c0,0,0,0-0.1,0L272.1,44l0,0
				C271.2,44,270.6,43.3,270.5,42.4L270.5,42.4z"/>
			<path id="Фигура_2201_копия" class="st2" d="M460,151.8c8.7-0.2,15.6-0.4,14.9-4.1s-6.6-3.5-9.7-3.7
				c-10.9-0.8-10.1-7.9-17.7-9s-17.9,2.1-23.4,1.6s-13-14.1-27.8-14.2s-22.6,11.3-26.6,13.8s-15.4,6.7-20.6,7.3s-8.5,7.5,2.8,9
				s41.4-2,57.2-0.4S451.4,152.1,460,151.8z"/>
			<path id="Фигура_2202_копия" class="st3" d="M-33.9,117.6c-1,3.7,5.7,7,12.5,4.9S-8.3,121,6,124.1s23-2.3,36.7,0
				s22.7-2.2,31,0s12.1-8.2,5.2-10.2s-17,0.4-21.4-5.7C45.9,92.2,35.6,87.1,22.4,94c-11.4,5.9-6.8,11.9-24.6,9
				c-7.8-1.3-8.4,5.1-13.7,8.5s-9.1,1.5-11.7,1.6S-32.8,113.8-33.9,117.6z"/>
		</g>
	</g>
</g>
</svg>
