<?xml version="1.0" encoding="utf-8"?>
<!-- Generator: Adobe Illustrator 23.0.4, SVG Export Plug-In . SVG Version: 6.00 Build 0)  -->
<svg version="1.1" id="Слой_1" xmlns="http://www.w3.org/2000/svg" xmlns:xlink="http://www.w3.org/1999/xlink" x="0px" y="0px"
	 viewBox="0 0 429 279" style="enable-background:new 0 0 429 279;" xml:space="preserve">
<style type="text/css">
	.st0{clip-path:url(#SVGID_2_);}
	.st1{fill:#E9F0F9;}
	.st2{fill:#BBCEE9;}
	.st3{clip-path:url(#SVGID_4_);}
	.st4{fill:#9DB5D6;}
	.st5{fill:#D6E1F1;}
	.st6{clip-path:url(#SVGID_6_);}
	.st7{opacity:0.541;fill:#A8BDDA;enable-background:new    ;}
	.st8{clip-path:url(#SVGID_8_);}
	.st9{fill:#EDF2F9;}
	.st10{clip-path:url(#SVGID_10_);}
	.st11{fill:#FFFFFF;}
	.st12{fill:#9EB0CA;}
</style>
<g>
	<defs>
		<rect id="SVGID_1_" width="429" height="279"/>
	</defs>
	<clipPath id="SVGID_2_">
		<use xlink:href="#SVGID_1_"  style="overflow:visible;"/>
	</clipPath>
	<g id="Canvas" class="st0">
		<g id="Группа_221">
			<path id="Прямоугольник_скругл._углы1008" class="st1" d="M3,274h423c1.1,0,2,0.9,2,2l0,0
				c0,1.1-0.9,2-2,2H3c-1.1,0-2-0.9-2-2l0,0C1,274.9,1.9,274,3,274z"/>
			<g id="Фигура_1000-2">
				<path id="Фигура_1000-3" class="st2" d="M195.5,89c-0.3-3.2,6.4-9.5,8.1-11.2s2.9-1.7,3.7,0S214,98,214,98
					S195.8,92.3,195.5,89z M154.2,77.8c-1-2.7-0.9-3.5,3-2.2s13,13,11.1,12.7s-19.2,9-19.2,9S155.2,80.5,154.2,77.8L154.2,77.8z"/>
				<g>
					<defs>
						<path id="SVGID_3_" d="M195.5,89c-0.3-3.2,6.4-9.5,8.1-11.2s2.9-1.7,3.7,0S214,98,214,98S195.8,92.3,195.5,89z M154.2,77.8
							c-1-2.7-0.9-3.5,3-2.2s13,13,11.1,12.7s-19.2,9-19.2,9S155.2,80.5,154.2,77.8L154.2,77.8z"/>
					</defs>
					<clipPath id="SVGID_4_">
						<use xlink:href="#SVGID_3_"  style="overflow:visible;"/>
					</clipPath>
					<g id="Clip" class="st3">
						<path id="Фигура_1001" class="st4" d="M148,98.8l0.7-16.3l4.4-7.4c0,0,7.3,8.3,5.2,17c-1.4,5.9-5.7,6.9-8.3,6.9
							C149.4,99,148.7,98.9,148,98.8z M196.9,90.6c0,0-1.3-1.7-1.5-6.7s9-11.2,11.1-8.1s-4.4,16.3-4.4,16.3L196.9,90.6z"/>
					</g>
				</g>
			</g>
			<g id="Фигура_995-2">
				<path id="Фигура_995-3" class="st5" d="M265,278h17.7c2.9,0,71.4-38.2,71.4-102.6c0-43.3-27-52.4-35.3-52.4
					s-13.3,5.7-13.2,17c0.2,27.5,10.3,41.3,10.3,41.3s2.6,57.3-41.2,74.5C269.4,255.1,265,278,265,278z"/>
				<g>
					<defs>
						<path id="SVGID_5_" d="M265,278h17.7c2.9,0,71.4-38.2,71.4-102.6c0-43.3-27-52.4-35.3-52.4s-13.3,5.7-13.2,17
							c0.2,27.5,10.3,41.3,10.3,41.3s2.6,57.3-41.2,74.5C269.4,255.1,265,278,265,278z"/>
					</defs>
					<clipPath id="SVGID_6_">
						<use xlink:href="#SVGID_5_"  style="overflow:visible;"/>
					</clipPath>
					<g id="Clip-2" class="st6">
						<path id="Фигура_997" class="st2" d="M265,281v-3c0,0,83.4-30.7,83.4-105.1c0-19.5-21.5-47.7-23.6-49.6
							s33.2,4,33.2,46.6s-15.1,68.8-35.4,85.9S285.7,281,285.7,281H265z M314.4,181c0,0,9.4,0,16.2-5.2s-11.9,9.6-18.5,17.8
							c-1.1,1.3-1.8,1.9-2.1,1.9C308.3,195.5,314.4,181,314.4,181L314.4,181z"/>
						<path id="Фигура_997-2" class="st7" d="M281,246c0,0-1.9,23.4-13.4,35.6s-15.6-0.4-15.6-0.4l3.1-14.3L281,246z"/>
					</g>
				</g>
			</g>
			<g id="Фигура_991-2">
				<path id="Фигура_991-3" class="st5" d="M158,278h-22.8c0,0,0.2-4.9,4.5-5s6.8,1.5,7.3,2c-3-31.5-14.4-94.7-14.7-104.2
					c-2.1-62.1,10.5-84,47.1-85.7c30.5-1.4,48.4,19.7,55.3,45.1s8.1,30.6,9.6,39.9s2.3,15.2,13.3,21.4c10.9,6.3,26.5,12.3,26.5,34.7
					S267,278,267,278H160.2c0,0,0-3.1,1.5-4.4s0.7-1.5,0.7-1.5l-2.2-2.2L158,278z"/>
				<g>
					<defs>
						<path id="SVGID_7_" d="M158,278h-22.8c0,0,0.2-4.9,4.5-5s6.8,1.5,7.3,2c-3-31.5-14.4-94.7-14.7-104.2
							c-2.1-62.1,10.5-84,47.1-85.7c30.5-1.4,48.4,19.7,55.3,45.1s8.1,30.6,9.6,39.9s2.3,15.2,13.3,21.4
							c10.9,6.3,26.5,12.3,26.5,34.7S267,278,267,278H160.2c0,0,0-3.1,1.5-4.4s0.7-1.5,0.7-1.5l-2.2-2.2L158,278z"/>
					</defs>
					<clipPath id="SVGID_8_">
						<use xlink:href="#SVGID_7_"  style="overflow:visible;"/>
					</clipPath>
					<g id="Clip-3" class="st8">
						<path id="Фигура_994" class="st4" d="M157.6,279.3l4.4-11L133.6,194l-5.8,4.4l1.5,36.8L127,283L157.6,279.3z"/>
						<path id="Фигура_994-2" class="st2" d="M188,246.1c-0.1-1.6,10.6-9.4,12.5-21.4c1.8-11.3,11.3-23.9,30.9-29.4
							c-21.3,6.2-30.9,26-30.9,44.8c0,19.9,8.1,31,8.1,31c-3.3-1-6.8-1.5-10.3-1.5c-9.4,0.4-6.6,8.9-6.6,8.9l-7.3,1.5
							C184.3,280,188,247.7,188,246.1z M159.8,276l-0.6,2.5C159.3,278.5,159.5,277.3,159.8,276L159.8,276z M160.8,271.9
							c0,0-22-40.7-27.2-79.7c-0.4-3.1-3.6-26.9-2.2-19.9c9.3,45.7,33.8,67.9,33.8,67.9l8.8,33.9c0,0-4.8-2.2-8.1-2.2
							s-4.5,0.4-5.1,1.5c-0.4,0.8-0.7,1.7-0.9,2.7L160.8,271.9z M235,194.4c-1.2,0.3-2.5,0.6-3.6,0.9
							C232.5,195,233.7,194.7,235,194.4L235,194.4z"/>
					</g>
				</g>
			</g>
			<g id="Эллипс_1001_копия-2">
				<path id="Эллипс_1001_копия-3" class="st9" d="M178.4,116.1c0-8.2,6.4-14.9,14.3-14.9s14.3,6.7,14.3,14.9
					s-6.4,14.9-14.3,14.9S178.4,124.3,178.4,116.1z M141,113.9c0-8.2,6.4-14.9,14.3-14.9s14.3,6.7,14.3,14.9s-6.4,14.9-14.3,14.9
					S141,122.1,141,113.9z"/>
				<g>
					<defs>
						<path id="SVGID_9_" d="M178.4,116.1c0-8.2,6.4-14.9,14.3-14.9s14.3,6.7,14.3,14.9s-6.4,14.9-14.3,14.9
							S178.4,124.3,178.4,116.1z M141,113.9c0-8.2,6.4-14.9,14.3-14.9s14.3,6.7,14.3,14.9s-6.4,14.9-14.3,14.9S141,122.1,141,113.9z
							"/>
					</defs>
					<clipPath id="SVGID_10_">
						<use xlink:href="#SVGID_9_"  style="overflow:visible;"/>
					</clipPath>
					<g id="Clip-4" class="st10">
						<path id="Эллипс_1001_копия_2" class="st11" d="M177.4,112.1c0-8.2,6.4-14.9,14.3-14.9s14.3,6.7,14.3,14.9
							s-6.4,14.9-14.3,14.9S177.4,120.3,177.4,112.1z M140,109.9c0-8.2,6.4-14.9,14.3-14.9s14.3,6.7,14.3,14.9s-6.4,14.9-14.3,14.9
							S140,118.1,140,109.9z"/>
					</g>
				</g>
			</g>
			<path id="Фигура_1002_копия" class="st12" d="M170.9,135.6c1.3-0.7,4.3-2.8,5.2-3.2s1.9-3.1-1-3.2s-6.9,0-8.3,0
				c-1,0-1.8,0.8-1.8,1.8c0,0.6,0.3,1.1,0.7,1.4c1.5,1.4,2.3,2.7,3.1,3.2S169.6,136.3,170.9,135.6z"/>
			<path id="Эллипс_1003_копия" class="st4" d="M185.1,108c0-1.6,1.4-2.9,3-2.9c1.6,0,2.9,1.4,2.9,3c0,1.6-1.3,2.9-3,2.9
				C186.4,111,185.1,109.6,185.1,108z M149,105c0-1.6,1.4-2.9,3-2.9c1.6,0,2.9,1.4,2.9,3c0,1.6-1.3,2.9-3,2.9
				C150.3,108,149,106.6,149,105z"/>
			<path id="Прямоугольник_скругл._углы1005" class="st12" d="M183.9,90h11.3c1,0,1.9,0.8,1.9,1.8v0.3
				c0,1-0.8,1.8-1.9,1.8h-11.3c-1,0-1.9-0.8-1.9-1.8v-0.3C182,90.8,182.8,90,183.9,90z"/>
			<path id="Прямоугольник_скругл._углы1005_копия" class="st12" d="M147.9,98h11.3
				c1,0,1.9,0.8,1.9,1.8v0.3c0,1-0.8,1.8-1.9,1.8h-11.3c-1,0-1.9-0.8-1.9-1.8v-0.3C146,98.8,146.8,98,147.9,98z"/>
			<path id="_копия_2" class="st5" d="M101.2,85.8c-2.6-2.2-4.1-5.4-4-8.8c0-4.3,2.8-8.7,7.2-8.7c3.4,0,5.2,1.5,7.6,6.2
				l2.6,0.3c0.3,0.1,0.6,0.2,0.6,0.6l0,3.9c0,0.3-0.2,0.6-0.6,0.6l-5.1,0.4c-0.3,0.1-0.5-0.1-0.6-0.5c-1.2-4.2-2.3-4.9-3.5-4.9
				c-1.4,0-2.1,1.6-2.1,2.7c0.1,1.7,0.8,3.3,2.1,4.5c0.4,0.4,0.4,0.8,0,1.2l-3.1,2.6c-0.2,0.1-0.4,0.2-0.6,0.2
				C101.5,86,101.3,85.9,101.2,85.8z M117.4,77.3c0-1.8,1.4-3.2,3.2-3.3c1.8,0,3.2,1.4,3.2,3.2c0,0,0,0,0,0c0,1.8-1.4,3.2-3.2,3.3h0
				C118.8,80.5,117.4,79.1,117.4,77.3C117.4,77.3,117.4,77.3,117.4,77.3L117.4,77.3z M119.9,62.3c-3.4-3.4-3.4-8.9-0.1-12.3
				c3.4-3.4,8.8-3.3,12.2,0c0,0,0,0,0,0c3.4,3.4,3.4,8.9,0.1,12.3c-1.6,1.6-3.8,2.5-6.1,2.5C123.7,64.8,121.5,63.9,119.9,62.3
				L119.9,62.3z M109.8,49.4l-10.5-9.1c-0.8-0.5-0.7-1.3-0.3-2.1c5.5-10.3,4.7-13.8,2.6-15.9c-2.7-2.7-7-0.9-9,1.1
				c-3.6,3.6-4.2,8.1-4.5,12.5c-0.1,1.5-0.8,2.3-2.2,2.2l-10.6-1.1c-1.2,0-2.1-0.9-2.2-2.1c-1-9,2.3-18,8.8-24.3
				c8-8.1,21.6-11,30-2.5c6.4,6.4,7.1,12.7,2.9,26.4l4.4,5.5c0.5,0.8,0.6,1.5,0,2.1l-7.3,7.4c-0.3,0.3-0.6,0.5-1,0.5
				C110.5,49.8,110.1,49.7,109.8,49.4z M143.6,43.2c-0.8-3.1,1-6.3,4.1-7.2s6.3,1,7.2,4.1c0.8,3.1-1,6.3-4.1,7.2
				c-0.5,0.1-1,0.2-1.5,0.2C146.6,47.5,144.3,45.7,143.6,43.2z M142,32.4l-3-8.8c-0.3-0.5,0-1,0.6-1.3c6.8-4.2,7.5-6.4,7-8.4
				c-0.7-2.5-3.8-2.9-5.6-2.4c-3.3,0.9-5.3,3.3-6.9,5.7c-0.5,0.8-1.2,1.1-2,0.5l-5.8-4.2c-0.7-0.4-0.9-1.2-0.6-1.9
				c2.6-5.6,7.5-9.7,13.5-11.2c7.5-2,16.4,0.8,18.5,8.5c1.6,5.9-0.2,9.7-7.3,16.3l0.7,4.7c0,0.6-0.1,1.1-0.7,1.2l-6.8,1.8
				C142.8,33.3,142.2,33,142,32.4L142,32.4z"/>
		</g>
	</g>
</g>
</svg>
