<?xml version="1.0" encoding="utf-8"?>
<!-- Generator: Adobe Illustrator 25.2.0, SVG Export Plug-In . SVG Version: 6.00 Build 0)  -->
<svg version="1.1" id="Слой_1" xmlns="http://www.w3.org/2000/svg" xmlns:xlink="http://www.w3.org/1999/xlink" x="0px" y="0px"
	 viewBox="0 0 302.2 161.7" style="enable-background:new 0 0 302.2 161.7;" xml:space="preserve">
<style type="text/css">
	.st0{fill:none;stroke:#DF5E4C;stroke-width:2;}
	.st1{fill:none;stroke:#7E8A9C;stroke-width:2;stroke-linecap:round;}
	.st2{fill:none;stroke:#3C4249;stroke-width:2;}
	.st3{fill:#3C4249;}
	.st4{fill:#5B1B1B;}
</style>
<g id="Сгруппировать_1" transform="translate(-511.782 -201.695)">
	<path id="Прямоугольник_скругл._углы_2_копия" class="st0" d="M634,257l52.5-51.4
		c3.9-3.9,10.2-3.9,14.1,0l60.1,60.1c3.9,3.9,3.9,10.2,0,14.1l-60.1,60.1c-3.9,3.9-10.2,3.9-14.1,0L651,305c-3.9-3.9,1.1-8.9,5-5
		l30.3,29.4c3.9,3.9,10.2,3.9,14.1,0l49.6-49.6c3.9-3.9,3.9-10.2,0-14.1l-49.6-49.6c-3.9-3.9-10.2-3.9-14.1,0l-50.6,49.6L634,257z"
		/>
	<path id="Прямоугольник_скругл._углы_1" class="st1" d="M584.1,326H580c-3.3,0-6,2.7-6,6v5c0,3.3,2.7,6,6,6
		h78c3.3,0,6-2.7,6-6v-5c0-3.3-2.7-6-6-6h-64c-5,0-5.7-2.9-4.6-7.2s15.3-57,17.6-66.8c3.7-15.6,23-14.6,26,1s16,67,16,67"/>
	<path id="Фигура_1" class="st2" d="M638,309h-38c-1.2,0-2.2-1-2.2-2.2c0-0.3,0.1-0.5,0.2-0.8c0.6-1.9,1.8-6.1,2-7
		c0.4-1.3,1.7-2.1,3-2h33c1.3,0,1.9,1.5,2,2c0.3,0.8,1.7,5.4,2,7S639.8,309,638,309z"/>
	<path id="Фигура_1_копия" class="st2" d="M631,281h-23c-1.2,0-2.2-1-2.2-2.2c0-0.3,0.1-0.5,0.2-0.8c0.6-1.9,1.8-6.1,2-7
		c0.4-1.3,1.7-2.1,3-2h18c1.3,0,1.9,1.5,2,2c0.8,2.3,1.5,4.6,2,7C633.2,279.6,632.8,281,631,281z"/>
	<path id="Прямоугольник_1_копия_13" class="st3" d="M786,363.4v-19h-38v19h-2v-19h-28v-2h28v-16h2v16h38v-39h-4
		v-2h4v-38h-4v-2h4v-23h2v23h6v2h-6v38h26v2h-26v39h26v2h-26v19H786z M767,307.4v-4h-4v-2h4v-4h2v4h4v2h-4v4H767z M786,228.4v-4h-4
		v-2h4v-4h2v4h4v2h-4v4H786z"/>
	<path id="Прямоугольник_1_копия_13-2" class="st3" d="M539.8,218.4v19h38v-19h2v19h17v2h-17v39h-2v-39h-38v39h4
		v2h-4v38h4v2h-4v23h-2v-23h-6v-2h6v-38h-26v-2h26v-39h-26v-2h26v-19H539.8z M558.8,274.4v4h4v2h-4v4h-2v-4h-4v-2h4v-4H558.8z
		 M539.8,353.4v4h4v2h-4v4h-2v-4h-4v-2h4v-4H539.8z"/>
	<path id="Контур_643" class="st1" d="M627.9,343h48.3"/>
	<path id="Контур_644" class="st1" d="M552.9,343h48.3"/>
	<g id="Прямоугольник_332" transform="translate(685 240.819)">
		<path class="st4" d="M8,0L8,0c4.4,0,8,3.6,8,8v24c0,4.4-3.6,8-8,8l0,0c-4.4,0-8-3.6-8-8V8C0,3.6,3.6,0,8,0z"/>
		<path class="st0" d="M8,1L8,1c3.9,0,7,3.1,7,7v24c0,3.9-3.1,7-7,7l0,0c-3.9,0-7-3.1-7-7V8C1,4.1,4.1,1,8,1z"/>
	</g>
	<g id="Прямоугольник_333" transform="translate(685 284.819)">
		<path class="st4" d="M8,0L8,0c4.4,0,8,3.6,8,8l0,0c0,4.4-3.6,8-8,8l0,0c-4.4,0-8-3.6-8-8l0,0C0,3.6,3.6,0,8,0z"/>
		<path class="st0" d="M8,1L8,1c3.9,0,7,3.1,7,7l0,0c0,3.9-3.1,7-7,7l0,0c-3.9,0-7-3.1-7-7l0,0C1,4.1,4.1,1,8,1z"/>
	</g>
</g>
</svg>
