<?xml version="1.0" encoding="UTF-8" standalone="no"?><!DOCTYPE svg PUBLIC "-//W3C//DTD SVG 1.1//EN" "http://www.w3.org/Graphics/SVG/1.1/DTD/svg11.dtd"><svg width="100%" height="100%" viewBox="0 0 423 147" version="1.1" xmlns="http://www.w3.org/2000/svg" xmlns:xlink="http://www.w3.org/1999/xlink" xml:space="preserve" xmlns:serif="http://www.serif.com/" style="fill-rule:evenodd;clip-rule:evenodd;stroke-linejoin:round;stroke-miterlimit:2;"><g id="images"><path id="Прямоугольник_скругл._углы_5" d="M4.5,138l414,0c2.5,0 4.5,2 4.5,4.5c0,2.5 -2,4.5 -4.5,4.5l-414,0c-2.5,0 -4.5,-2 -4.5,-4.5c0,-2.5 2,-4.5 4.5,-4.5Z" style="fill:#f3f9fe;fill-rule:nonzero;"/><g id="Группа_220"><path id="Прямоугольник_скругл._углы_4" d="M114,0l194,0c3.9,0 7,3.1 7,7l0,119l-208,0l0,-119c0,-3.9 3.1,-7 7,-7Z" style="fill:#e7f0f9;fill-rule:nonzero;"/><path id="Прямоугольник_1" d="M115,6l192,0c2.8,0 5,2.2 5,5l0,110l-202,0l0,-110c0,-2.8 2.2,-5 5,-5Z" style="fill:#b4cde6;fill-rule:nonzero;"/><g id="Прямоугольник_скругл._углы_5_копия_2-2"><path id="Прямоугольник_скругл._углы_5_копия_2-3" d="M99.5,124l222,0c4.1,0 7.5,3.4 7.5,7.5c0,4.1 -3.4,7.5 -7.5,7.5l-222,0c-4.1,0 -7.5,-3.4 -7.5,-7.5c0,-4.1 3.4,-7.5 7.5,-7.5Z" style="fill:#d0e0ef;fill-rule:nonzero;"/><clipPath id="_clip1"><path id="Прямоугольник_скругл._углы_5_копия" d="M99.5,124l222,0c4.1,0 7.5,3.4 7.5,7.5c0,4.1 -3.4,7.5 -7.5,7.5l-222,0c-4.1,0 -7.5,-3.4 -7.5,-7.5c0,-4.1 3.4,-7.5 7.5,-7.5Z"/></clipPath><g clip-path="url(#_clip1)"><path d="M99.5,120l222,0c4.1,0 7.5,3.4 7.5,7.5c0,4.1 -3.4,7.5 -7.5,7.5l-222,0c-4.1,0 -7.5,-3.4 -7.5,-7.5c0,-4.1 3.4,-7.5 7.5,-7.5Z" style="fill:#d9e7f4;fill-rule:nonzero;"/></g></g><path id="Фигура_1" d="M181,124c0.5,0 2.6,2 2.6,3c0,1 -0.1,3 1.8,3l51.2,0c1.7,0 1.8,-2.2 1.8,-3c0,-0.8 2.4,-3 2.6,-3l-60,0Z" style="fill:#c7daeb;fill-rule:nonzero;"/><circle id="Эллипс_1" cx="211" cy="3" r="1" style="fill:#b3cae0;"/></g><path id="Прямоугольник_скругл._углы_505_копия" d="M122,22l14,0c1.7,0 3,1.3 3,3l0,12c0,1.7 -1.3,3 -3,3l-14,0c-1.7,0 -3,-1.3 -3,-3l0,-12c0,-1.7 1.3,-3 3,-3Z" style="fill:#feffff;fill-rule:nonzero;"/><path id="Прямоугольник_скругл._углы_505_копия_2" d="M264,113c-1.7,0 -3,-1.3 -3,-3l0,-66c0,-1.7 1.3,-3 3,-3l35,0c1.7,0 3,1.3 3,3l0,66c0,1.7 -1.3,3 -3,3l-35,0Zm-119,0c-1.7,0 -3,-1.3 -3,-3l0,-85c0,-1.7 1.3,-3 3,-3l110,0c1.7,0 3,1.3 3,3l0,85c0,1.7 -1.3,3 -3,3l-110,0Zm-23,0c-1.7,0 -3,-1.3 -3,-3l0,-65c0,-1.7 1.3,-3 3,-3l14,0c1.7,0 3,1.3 3,3l0,65c0,1.7 -1.3,3 -3,3l-14,0Z" style="fill:#d8e5f1;fill-rule:nonzero;"/><path id="Прямоугольник_скругл._углы_505_копия_3" d="M264,22l35,0c1.7,0 3,1.3 3,3l0,11c0,1.7 -1.3,3 -3,3l-35,0c-1.7,0 -3,-1.3 -3,-3l0,-11c0,-1.7 1.3,-3 3,-3Z" style="fill:#d8e5f1;fill-rule:nonzero;"/><path id="Эллипс_510_копия_2" d="M126,103.5c0,-1.9 1.6,-3.5 3.5,-3.5c1.9,0 3.5,1.6 3.5,3.5c0,1.9 -1.6,3.5 -3.5,3.5c-1.9,0 -3.5,-1.6 -3.5,-3.5Zm139,-3c0,-3 2.5,-5.5 5.5,-5.5c3,0 5.5,2.5 5.5,5.5l0,0.5c-1.4,-1.4 -3.6,-1.3 -4.9,0c-1.3,1.4 -1.3,3.5 0,4.9l-0.5,0c-3.1,0.1 -5.6,-2.4 -5.6,-5.4Zm-17.5,5.5c-0.8,0 -1.5,-0.7 -1.5,-1.5c0,-0.8 0.7,-1.5 1.5,-1.5l2,0c0.8,0 1.5,0.7 1.5,1.5c0,0.8 -0.7,1.5 -1.5,1.5l-2,0Zm-18,0c-0.8,0 -1.5,-0.7 -1.5,-1.5c0,-0.8 0.7,-1.5 1.5,-1.5l12,0c0.8,0 1.5,0.7 1.5,1.5c0,0.8 -0.7,1.5 -1.5,1.5l-12,0Zm-63,0c-0.8,0 -1.5,-0.7 -1.5,-1.5c0,-0.8 0.7,-1.5 1.5,-1.5l22,0c0.8,0 1.5,0.7 1.5,1.5c0,0.8 -0.7,1.5 -1.5,1.5l-22,0Zm-18,0c-0.8,0 -1.5,-0.7 -1.5,-1.5c0,-0.8 0.7,-1.5 1.5,-1.5l12,0c0.8,0 1.5,0.7 1.5,1.5c0,0.8 -0.7,1.5 -1.5,1.5l-12,0Zm131,-1c-0.8,0 -1.5,-0.7 -1.5,-1.5c0,-0.8 0.7,-1.5 1.5,-1.5l15,0c0.8,0 1.5,0.7 1.5,1.5c0,0.8 -0.7,1.5 -1.5,1.5l-15,0Zm-7.5,-1.5c0,-0.8 0.7,-1.5 1.5,-1.5c0.8,0 1.5,0.7 1.5,1.5c0,0.8 -0.7,1.5 -1.5,1.5c-0.8,0 -1.5,-0.7 -1.5,-1.5Zm7.5,-3.5c-0.8,0 -1.5,-0.7 -1.5,-1.5c0,-0.8 0.7,-1.5 1.5,-1.5l7,0c0.8,0 1.5,0.7 1.5,1.5c0,0.8 -0.7,1.5 -1.5,1.5l-7,0Zm-32,-1c-0.8,0 -1.5,-0.7 -1.5,-1.5c0,-0.8 0.7,-1.5 1.5,-1.5l2,0c0.8,0 1.5,0.7 1.5,1.5c0,0.8 -0.7,1.5 -1.5,1.5l-2,0Zm-18,0c-0.8,0 -1.5,-0.7 -1.5,-1.5c0,-0.8 0.7,-1.5 1.5,-1.5l12,0c0.8,0 1.5,0.7 1.5,1.5c0,0.8 -0.7,1.5 -1.5,1.5l-12,0Zm-63,0c-0.8,0 -1.5,-0.7 -1.5,-1.5c0,-0.8 0.7,-1.5 1.5,-1.5l22,0c0.8,0 1.5,0.7 1.5,1.5c0,0.8 -0.7,1.5 -1.5,1.5l-22,0Zm-18,0c-0.8,0 -1.5,-0.7 -1.5,-1.5c0,-0.8 0.7,-1.5 1.5,-1.5l12,0c0.8,0 1.5,0.7 1.5,1.5c0,0.8 -0.7,1.5 -1.5,1.5l-12,0Zm-22.5,-5.5c0,-1.9 1.6,-3.5 3.5,-3.5c1.9,0 3.5,1.6 3.5,3.5c0,1.9 -1.6,3.5 -3.5,3.5c-1.9,0 -3.5,-1.6 -3.5,-3.5Zm121.5,-1.5c-0.8,0 -1.5,-0.7 -1.5,-1.5c0,-0.8 0.7,-1.5 1.5,-1.5l2,0c0.8,0 1.5,0.7 1.5,1.5c0,0.8 -0.7,1.5 -1.5,1.5l-2,0Zm-18,0c-0.8,0 -1.5,-0.7 -1.5,-1.5c0,-0.8 0.7,-1.5 1.5,-1.5l12,0c0.8,0 1.5,0.7 1.5,1.5c0,0.8 -0.7,1.5 -1.5,1.5l-12,0Zm-63,0c-0.8,0 -1.5,-0.7 -1.5,-1.5c0,-0.8 0.7,-1.5 1.5,-1.5l22,0c0.8,0 1.5,0.7 1.5,1.5c0,0.8 -0.7,1.5 -1.5,1.5l-22,0Zm-18,0c-0.8,0 -1.5,-0.7 -1.5,-1.5c0,-0.8 0.7,-1.5 1.5,-1.5l12,0c0.8,0 1.5,0.7 1.5,1.5c0,0.8 -0.7,1.5 -1.5,1.5l-12,0Zm116.5,-11.5c0,-3 2.5,-5.5 5.5,-5.5c3,0 5.5,2.5 5.5,5.5l0,0.5c-1.3,-1.4 -3.6,-1.4 -4.9,-0.1c-1.4,1.3 -1.4,3.6 -0.1,4.9l0.1,0.1l-0.5,0c-3.1,0.1 -5.6,-2.4 -5.6,-5.4Zm14.5,4.5c-0.8,0 -1.5,-0.7 -1.5,-1.5c0,-0.8 0.7,-1.5 1.5,-1.5l15,0c0.8,0 1.5,0.7 1.5,1.5c0,0.8 -0.7,1.5 -1.5,1.5l-15,0Zm-7.5,-1.5c0,-0.8 0.7,-1.5 1.5,-1.5c0.8,0 1.5,0.7 1.5,1.5c0,0.8 -0.7,1.5 -1.5,1.5c-0.8,0 -1.5,-0.7 -1.5,-1.5Zm-24.5,1.5c-0.8,0 -1.5,-0.7 -1.5,-1.5c0,-0.8 0.7,-1.5 1.5,-1.5l2,0c0.8,0 1.5,0.7 1.5,1.5c0,0.8 -0.7,1.5 -1.5,1.5l-2,0Zm-18,0c-0.8,0 -1.5,-0.7 -1.5,-1.5c0,-0.8 0.7,-1.5 1.5,-1.5l12,0c0.8,0 1.5,0.7 1.5,1.5c0,0.8 -0.7,1.5 -1.5,1.5l-12,0Zm-63,0c-0.8,0 -1.5,-0.7 -1.5,-1.5c0,-0.8 0.7,-1.5 1.5,-1.5l22,0c0.8,0 1.5,0.7 1.5,1.5c0,0.8 -0.7,1.5 -1.5,1.5l-22,0Zm-18,0c-0.8,0 -1.5,-0.7 -1.5,-1.5c0,-0.8 0.7,-1.5 1.5,-1.5l12,0c0.8,0 1.5,0.7 1.5,1.5c0,0.8 -0.7,1.5 -1.5,1.5l-12,0Zm131,-5c-0.8,0 -1.5,-0.7 -1.5,-1.5c0,-0.8 0.7,-1.5 1.5,-1.5l7,0c0.8,0 1.5,0.7 1.5,1.5c0,0.8 -0.7,1.5 -1.5,1.5l-7,0Zm-32,-2c-0.8,0 -1.5,-0.7 -1.5,-1.5c0,-0.8 0.7,-1.5 1.5,-1.5l2,0c0.8,0 1.5,0.7 1.5,1.5c0,0.8 -0.7,1.5 -1.5,1.5l-2,0Zm-18,0c-0.8,0 -1.5,-0.7 -1.5,-1.5c0,-0.8 0.7,-1.5 1.5,-1.5l12,0c0.8,0 1.5,0.7 1.5,1.5c0,0.8 -0.7,1.5 -1.5,1.5l-12,0Zm-63,0c-0.8,0 -1.5,-0.7 -1.5,-1.5c0,-0.8 0.7,-1.5 1.5,-1.5l22,0c0.8,0 1.5,0.7 1.5,1.5c0,0.8 -0.7,1.5 -1.5,1.5l-22,0Zm-18,0c-0.8,0 -1.5,-0.7 -1.5,-1.5c0,-0.8 0.7,-1.5 1.5,-1.5l12,0c0.8,0 1.5,0.7 1.5,1.5c0,0.8 -0.7,1.5 -1.5,1.5l-12,0Zm99,-7c-0.8,0 -1.5,-0.7 -1.5,-1.5c0,-0.8 0.7,-1.5 1.5,-1.5l2,0c0.8,0 1.5,0.7 1.5,1.5c0,0.8 -0.7,1.5 -1.5,1.5l-2,0Zm-18,0c-0.8,0 -1.5,-0.7 -1.5,-1.5c0,-0.8 0.7,-1.5 1.5,-1.5l12,0c0.8,0 1.5,0.7 1.5,1.5c0,0.8 -0.7,1.5 -1.5,1.5l-12,0Zm-63,0c-0.8,0 -1.5,-0.7 -1.5,-1.5c0,-0.8 0.7,-1.5 1.5,-1.5l22,0c0.8,0 1.5,0.7 1.5,1.5c0,0.8 -0.7,1.5 -1.5,1.5l-22,0Zm-18,0c-0.8,0 -1.5,-0.7 -1.5,-1.5c0,-0.8 0.7,-1.5 1.5,-1.5l12,0c0.8,0 1.5,0.7 1.5,1.5c0,0.8 -0.7,1.5 -1.5,1.5l-12,0Zm116.5,-10.5c0,-3 2.5,-5.5 5.5,-5.5c3,0 5.5,2.5 5.5,5.5l0,0.5c-1.4,-1.4 -3.6,-1.3 -4.9,0c-1.3,1.4 -1.3,3.5 0,4.9l-0.5,0c-3.1,0.1 -5.6,-2.4 -5.6,-5.4Zm14.5,4.5c-0.8,0 -1.5,-0.7 -1.5,-1.5c0,-0.8 0.7,-1.5 1.5,-1.5l15,0c0.8,0 1.5,0.7 1.5,1.5c0,0.8 -0.7,1.5 -1.5,1.5l-15,0Zm-7.5,-1.5c0,-0.8 0.7,-1.5 1.5,-1.5c0.8,0 1.5,0.7 1.5,1.5c0,0.8 -0.7,1.5 -1.5,1.5c-0.8,0 -1.5,-0.7 -1.5,-1.5Zm-146,-2c0,-1.9 1.6,-3.5 3.5,-3.5c1.9,0 3.5,1.6 3.5,3.5c0,1.9 -1.6,3.5 -3.5,3.5c-1.9,0 -3.5,-1.6 -3.5,-3.5Zm121.5,2.5c-0.8,0 -1.5,-0.7 -1.5,-1.5c0,-0.8 0.7,-1.5 1.5,-1.5l2,0c0.8,0 1.5,0.7 1.5,1.5c0,0.8 -0.7,1.5 -1.5,1.5l-2,0Zm-18,0c-0.8,0 -1.5,-0.7 -1.5,-1.5c0,-0.8 0.7,-1.5 1.5,-1.5l12,0c0.8,0 1.5,0.7 1.5,1.5c0,0.8 -0.7,1.5 -1.5,1.5l-12,0Zm-63,0c-0.8,0 -1.5,-0.7 -1.5,-1.5c0,-0.8 0.7,-1.5 1.5,-1.5l22,0c0.8,0 1.5,0.7 1.5,1.5c0,0.8 -0.7,1.5 -1.5,1.5l-22,0Zm-18,0c-0.8,0 -1.5,-0.7 -1.5,-1.5c0,-0.8 0.7,-1.5 1.5,-1.5l12,0c0.8,0 1.5,0.7 1.5,1.5c0,0.8 -0.7,1.5 -1.5,1.5l-12,0Zm131,-4c-0.8,0 -1.5,-0.7 -1.5,-1.5c0,-0.8 0.7,-1.5 1.5,-1.5l7,0c0.8,0 1.5,0.7 1.5,1.5c0,0.8 -0.7,1.5 -1.5,1.5l-7,0Zm-32,-3c-0.8,0 -1.5,-0.7 -1.5,-1.5c0,-0.8 0.7,-1.5 1.5,-1.5l2,0c0.8,0 1.5,0.7 1.5,1.5c0,0.8 -0.7,1.5 -1.5,1.5l-2,0Zm-18,0c-0.8,0 -1.5,-0.7 -1.5,-1.5c0,-0.8 0.7,-1.5 1.5,-1.5l12,0c0.8,0 1.5,0.7 1.5,1.5c0,0.8 -0.7,1.5 -1.5,1.5l-12,0Zm-63,0c-0.8,0 -1.5,-0.7 -1.5,-1.5c0,-0.8 0.7,-1.5 1.5,-1.5l22,0c0.8,0 1.5,0.7 1.5,1.5c0,0.8 -0.7,1.5 -1.5,1.5l-22,0Zm-18,0c-0.8,0 -1.5,-0.7 -1.5,-1.5c0,-0.8 0.7,-1.5 1.5,-1.5l12,0c0.8,0 1.5,0.7 1.5,1.5c0,0.8 -0.7,1.5 -1.5,1.5l-12,0Zm-22.5,-5.5c0,-1.9 1.6,-3.5 3.5,-3.5c1.9,0 3.5,1.6 3.5,3.5c0,1.9 -1.6,3.5 -3.5,3.5c-1.9,0 -3.5,-1.6 -3.5,-3.5Zm159.5,-1.5c-0.8,0 -1.5,-0.7 -1.5,-1.5c0,-0.8 0.7,-1.5 1.5,-1.5l10,0c0.8,0 1.5,0.7 1.5,1.5c0,0.8 -0.7,1.5 -1.5,1.5l-10,0Zm-17,0c-0.8,0 -1.5,-0.7 -1.5,-1.5c0,-0.8 0.7,-1.5 1.5,-1.5l10,0c0.8,0 1.5,0.7 1.5,1.5c0,0.8 -0.7,1.5 -1.5,1.5l-10,0Zm-21,0c-0.8,0 -1.5,-0.7 -1.5,-1.5c0,-0.8 0.7,-1.5 1.5,-1.5l2,0c0.8,0 1.5,0.7 1.5,1.5c0,0.8 -0.7,1.5 -1.5,1.5l-2,0Zm-18,0c-0.8,0 -1.5,-0.7 -1.5,-1.5c0,-0.8 0.7,-1.5 1.5,-1.5l12,0c0.8,0 1.5,0.7 1.5,1.5c0,0.8 -0.7,1.5 -1.5,1.5l-12,0Zm-63,0c-0.8,0 -1.5,-0.7 -1.5,-1.5c0,-0.8 0.7,-1.5 1.5,-1.5l22,0c0.8,0 1.5,0.7 1.5,1.5c0,0.8 -0.7,1.5 -1.5,1.5l-22,0Zm-18,0c-0.8,0 -1.5,-0.7 -1.5,-1.5c0,-0.8 0.7,-1.5 1.5,-1.5l12,0c0.8,0 1.5,0.7 1.5,1.5c0,0.8 -0.7,1.5 -1.5,1.5l-12,0Zm99,-7c-0.8,0 -1.5,-0.7 -1.5,-1.5c0,-0.8 0.7,-1.5 1.5,-1.5l2,0c0.8,0 1.5,0.7 1.5,1.5c0,0.8 -0.7,1.5 -1.5,1.5l-2,0Zm-18,0c-0.8,0 -1.5,-0.7 -1.5,-1.5c0,-0.8 0.7,-1.5 1.5,-1.5l12,0c0.8,0 1.5,0.7 1.5,1.5c0,0.8 -0.7,1.5 -1.5,1.5l-12,0Zm-63,0c-0.8,0 -1.5,-0.7 -1.5,-1.5c0,-0.8 0.7,-1.5 1.5,-1.5l22,0c0.8,0 1.5,0.7 1.5,1.5c0,0.8 -0.7,1.5 -1.5,1.5l-22,0Zm-18,0c-0.8,0 -1.5,-0.7 -1.5,-1.5c0,-0.8 0.7,-1.5 1.5,-1.5l12,0c0.8,0 1.5,0.7 1.5,1.5c0,0.8 -0.7,1.5 -1.5,1.5l-12,0Zm99,-7c-0.8,0 -1.5,-0.7 -1.5,-1.5c0,-0.8 0.7,-1.5 1.5,-1.5l2,0c0.8,0 1.5,0.7 1.5,1.5c0,0.8 -0.7,1.5 -1.5,1.5l-2,0Zm-18,0c-0.8,0 -1.5,-0.7 -1.5,-1.5c0,-0.8 0.7,-1.5 1.5,-1.5l12,0c0.8,0 1.5,0.7 1.5,1.5c0,0.8 -0.7,1.5 -1.5,1.5l-12,0Zm-63,0c-0.8,0 -1.5,-0.7 -1.5,-1.5c0,-0.8 0.7,-1.5 1.5,-1.5l22,0c0.8,0 1.5,0.7 1.5,1.5c0,0.8 -0.7,1.5 -1.5,1.5l-22,0Zm-18,0c-0.8,0 -1.5,-0.7 -1.5,-1.5c0,-0.8 0.7,-1.5 1.5,-1.5l12,0c0.8,0 1.5,0.7 1.5,1.5c0,0.8 -0.7,1.5 -1.5,1.5l-12,0Zm119,-1c-0.8,0 -1.5,-0.7 -1.5,-1.5c0,-0.8 0.7,-1.5 1.5,-1.5l15,0c0.8,0 1.5,0.7 1.5,1.5c0,0.8 -0.7,1.5 -1.5,1.5l-15,0Zm0,-5c-0.8,0 -1.5,-0.7 -1.5,-1.5c0,-0.8 0.7,-1.5 1.5,-1.5l7,0c0.8,0 1.5,0.7 1.5,1.5c0,0.8 -0.7,1.5 -1.5,1.5l-7,0Zm-20,-1c-0.8,0 -1.5,-0.7 -1.5,-1.5c0,-0.8 0.7,-1.5 1.5,-1.5l2,0c0.8,0 1.5,0.7 1.5,1.5c0,0.8 -0.7,1.5 -1.5,1.5l-2,0Zm-8,0c-0.8,0 -1.5,-0.7 -1.5,-1.5c0,-0.8 0.7,-1.5 1.5,-1.5l2,0c0.8,0 1.5,0.7 1.5,1.5c0,0.8 -0.7,1.5 -1.5,1.5l-2,0Zm-73,0c-0.8,0 -1.5,-0.7 -1.5,-1.5c0,-0.8 0.7,-1.5 1.5,-1.5l2,0c0.8,0 1.5,0.7 1.5,1.5c0,0.8 -0.7,1.5 -1.5,1.5l-2,0Zm-18,0c-0.8,0 -1.5,-0.7 -1.5,-1.5c0,-0.8 0.7,-1.5 1.5,-1.5l2,0c0.8,0 1.5,0.7 1.5,1.5c0,0.8 -0.7,1.5 -1.5,1.5l-2,0Z" style="fill:#f0f5fa;fill-rule:nonzero;"/></g></svg>
