<?xml version="1.0" encoding="utf-8"?>
<!-- Generator: Adobe Illustrator 23.0.1, SVG Export Plug-In . SVG Version: 6.00 Build 0)  -->
<svg version="1.1" id="images_1_" xmlns="http://www.w3.org/2000/svg" xmlns:xlink="http://www.w3.org/1999/xlink" x="0px" y="0px"
	 viewBox="0 0 371 384" style="enable-background:new 0 0 371 384;" xml:space="preserve">
<style type="text/css">
	.st0{fill:#404853;}
	.st1{opacity:0.7608;enable-background:new    ;}
	.st2{fill:#545F6B;}
	.st3{fill:#A2B7CE;}
	.st4{fill:#D6E1ED;}
	.st5{opacity:0.1686;}
	.st6{fill:#576778;}
	.st7{opacity:0.4196;}
	.st8{fill:#191A20;}
	.st9{fill:#D52F2F;}
	.st10{fill:#FFFFFF;}
	.st11{opacity:0.2392;}
	.st12{fill:#2D2F38;}
	.st13{fill:#505B67;}
	.st14{fill:#C1D0E0;}
	.st15{fill:#8291A4;}
	.st16{fill:#606B77;}
	.st17{fill:#363C45;}
	.st18{fill:#56616F;}
	.st19{fill:#4B5460;}
	.st20{fill:#272D35;}
	.st21{opacity:0.3686;}
	.st22{fill:#2E353D;}
	.st23{fill:#9BADC1;}
</style>
<g id="Эллипс_539_копия">
	<g>
		<path class="st0" d="M314.5,53c4.1,0,7.5-3.4,7.5-7.5c0-4.1-3.4-7.5-7.5-7.5c-4.1,0-7.5,3.4-7.5,7.5C307,49.6,310.4,53,314.5,53z
			 M61.5,46C54,46,48,52,48,59.5C48,67,54,73,61.5,73C69,73,75,67,75,59.5C75,52,69,46,61.5,46z M114,296c-5,0-9,4-9,9c0,5,4,9,9,9
			c5,0,9-4,9-9C123,300,119,296,114,296z M349,297c-1.1,0-2,0.9-2,2s0.9,2,2,2s2-0.9,2-2S350.1,297,349,297z M18,324
			c-7.7,0-14,6.3-14,14c0,7.7,6.3,14,14,14s14-6.3,14-14C32,330.3,25.7,324,18,324z M308.5,197c-25.7,0-46.5,20.8-46.5,46.5
			c0,25.7,20.8,46.5,46.5,46.5c25.7,0,46.5-20.8,46.5-46.5C355,217.8,334.2,197,308.5,197z"/>
	</g>
</g>
<g id="_x31__копия_7_2_" class="st1">
	<defs>
		<path id="SVGID_1_" class="st1" d="M303.8,136H74.3c-6.9,0-10.9,3.7-10.2,11s8.6,93.6,9.4,103.1c0.7,8.2,6.5,11,12.6,11h209.8
			c6.7,0,10.6-5.5,11-11.7c0.3-6.2,6.6-94.9,7.1-103.1C314.4,138,309.4,136,303.8,136z"/>
	</defs>
	<clipPath id="SVGID_2_">
		<use xlink:href="#SVGID_1_"  style="overflow:visible;"/>
	</clipPath>
	
		<image style="overflow:visible;clip-path:url(#SVGID_2_);" width="371" height="384" id="_x31__копия_7_xA0_Изображение" xlink:href="AA62F4AF217ADDFC.png" >
	</image>
</g>
<g id="Фигура_645_копия_3">
	<g>
		<path class="st2" d="M304,78H169c-2.8,0-4.1-0.4-7.3-3.7c-3.5-3.6-10.1-10.3-13.5-13.2s-7.9-3.1-10.5-3.1H71.3
			c-6.9,0-10.9,3.7-10.2,10.9c0.7,7.2,9.4,142.7,10.2,152.2c0.7,8.2,6.5,10.9,12.6,10.9h212c6.7,0,10.6-5.5,11-11.7
			c0.3-6.2,6.6-124.5,7.1-132.7C314.4,79.5,309.6,78,304,78z"/>
	</g>
</g>
<g id="q">
	<g>
		<path class="st3" d="M287.8,82.1H88.3c-6.9,0-10.9,3.7-10.2,11s8.6,123.5,9.4,133c0.7,8.2,6.5,11,12.6,11h179.9
			c6.7,0,10.6-5.5,11-11.7c0.3-6.2,6.6-124.8,7.1-133C298.4,84.1,293.4,82.1,287.8,82.1z"/>
	</g>
</g>
<g id="q_копия">
	<g>
		<path class="st4" d="M287.8,84.1H88.3c-6.9,0-10.9,3.7-10.2,11s8.6,123.5,9.4,133c0.7,8.2,6.5,11,12.6,11h179.9
			c6.7,0,10.6-5.5,11-11.7c0.3-6.2,6.6-124.8,7.1-133C298.4,86.1,293.4,84.1,287.8,84.1z"/>
	</g>
</g>
<g id="q_копия_4" class="st5">
	<g>
		<path class="st6" d="M287.8,98.1H88.3c-6.9,0-10.9,3.7-10.2,11s8.6,111.5,9.4,121c0.7,8.2,6.5,11,12.6,11h179.9
			c6.7,0,10.6-5.5,11-11.7c0.3-6.2,6.6-112.8,7.1-121S293.4,98.1,287.8,98.1z"/>
	</g>
</g>
<g id="Прямоугольник_x2C__скругл._углы_665_копия_2" class="st7">
	<g>
		<path class="st8" d="M292.1,77.7H187.9c-2.2,0-4,1.8-4,4V111c0,2.2,1.8,4,4,4h104.3c2.2,0,4-1.8,4-4V81.7
			C296.1,79.5,294.4,77.7,292.1,77.7z"/>
	</g>
</g>
<g id="Прямоугольник_x2C__скругл._углы_665_копия_3">
	<g>
		<path class="st9" d="M294,74H186c-2.2,0-4,1.8-4,4v29.3c0,2.2,1.8,4,4,4h108c2.2,0,4-1.8,4-4V78C298,75.8,296.2,74,294,74z"/>
	</g>
</g>
<g id="Эллипс_667_копия_6">
	<g>
		<path class="st10" d="M204.3,88.9c-2.6,0-4.6,2.1-4.6,4.7c0,2.6,2.1,4.7,4.6,4.7c2.6,0,4.6-2.1,4.6-4.7
			C209,91,206.9,88.9,204.3,88.9z M218.3,88.9c-2.6,0-4.7,2.1-4.7,4.7c0,2.6,2.1,4.7,4.7,4.7c2.6,0,4.7-2.1,4.7-4.7
			C222.9,91,220.9,88.9,218.3,88.9z M232.2,88.9c-2.6,0-4.7,2.1-4.7,4.7c0,2.6,2.1,4.7,4.7,4.7s4.7-2.1,4.7-4.7
			C236.9,91,234.8,88.9,232.2,88.9z M246.2,88.9c-2.6,0-4.6,2.1-4.6,4.7c0,2.6,2.1,4.7,4.6,4.7c2.6,0,4.6-2.1,4.6-4.7
			C250.8,91,248.8,88.9,246.2,88.9z M260.1,88.9c-2.6,0-4.7,2.1-4.7,4.7c0,2.6,2.1,4.7,4.7,4.7c2.6,0,4.7-2.1,4.7-4.7
			C264.8,91,262.7,88.9,260.1,88.9z M274.1,88.9c-2.6,0-4.6,2.1-4.6,4.7c0,2.6,2.1,4.7,4.6,4.7s4.6-2.1,4.6-4.7
			C278.8,91,276.7,88.9,274.1,88.9z"/>
	</g>
</g>
<g id="Прямоугольник_x2C__скругл._углы_665_копия_4" class="st11">
	<g>
		<path class="st12" d="M294,94H186c-2.2,0-4,1.8-4,4v29.3c0,2.2,1.8,4,4,4h108c2.2,0,4-1.8,4-4V98C298,95.8,296.2,94,294,94z"/>
	</g>
</g>
<g id="Прямоугольник_x2C__скругл._углы_665_копия_5" class="st7">
	<g>
		<path class="st8" d="M194.1,93.7h-67.3c-2.2,0-4,1.8-4,4V114c0,2.2,1.8,4,4,4h67.3c2.2,0,4-1.8,4-4V97.7
			C198.1,95.5,196.4,93.7,194.1,93.7z"/>
	</g>
</g>
<g id="Прямоугольник_x2C__скругл._углы_665_копия_6">
	<g>
		<path class="st13" d="M196,90h-71c-2.2,0-4,1.8-4,4v16.3c0,2.2,1.8,4,4,4h71c2.2,0,4-1.8,4-4V94C200,91.8,198.2,90,196,90z"/>
	</g>
</g>
<g id="Эллипс_667_копия_7">
	<g>
		<path class="st10" d="M136.3,97c-1.8,0-3.3,1.6-3.3,3.5s1.5,3.5,3.3,3.5c1.8,0,3.3-1.6,3.3-3.5S138.2,97,136.3,97z M146.4,97
			c-1.9,0-3.4,1.6-3.4,3.5s1.5,3.5,3.4,3.5c1.9,0,3.4-1.6,3.4-3.5S148.3,97,146.4,97z M156.5,97c-1.8,0-3.3,1.6-3.3,3.5
			s1.5,3.5,3.3,3.5c1.8,0,3.3-1.6,3.3-3.5S158.3,97,156.5,97z M166.5,97c-1.9,0-3.4,1.6-3.4,3.5s1.5,3.5,3.4,3.5
			c1.9,0,3.4-1.6,3.4-3.5S168.4,97,166.5,97z M176.6,97c-1.9,0-3.4,1.6-3.4,3.5s1.5,3.5,3.4,3.5c1.9,0,3.4-1.6,3.4-3.5
			S178.4,97,176.6,97z M186.7,97c-1.8,0-3.3,1.6-3.3,3.5s1.5,3.5,3.3,3.5s3.3-1.6,3.3-3.5S188.5,97,186.7,97z"/>
	</g>
</g>
<g id="Прямоугольник_x2C__скругл._углы_665_копия_7" class="st11">
	<g>
		<path class="st12" d="M196,100h-71c-2.2,0-4,1.8-4,4v29.3c0,2.2,1.8,4,4,4h71c2.2,0,4-1.8,4-4V104C200,101.8,198.2,100,196,100z"
			/>
	</g>
</g>
<g id="q_копия_2">
	<g>
		<path class="st3" d="M297.8,102.1H78.3c-6.9,0-10.9,3.7-10.2,11c0.7,7.2,8.6,108.5,9.4,118c0.7,8.2,6.5,11,12.6,11h199.9
			c6.7,0,10.6-5.5,11-11.7c0.3-6.2,6.6-109.8,7.1-118S303.4,102.1,297.8,102.1z"/>
	</g>
</g>
<g id="q_копия_3">
	<g>
		<path class="st4" d="M297.8,104.1H78.3c-6.9,0-10.9,3.7-10.2,11c0.7,7.2,8.6,108.5,9.4,118c0.7,8.2,6.5,11,12.6,11h199.9
			c6.7,0,10.6-5.5,11-11.7c0.3-6.2,6.6-109.8,7.1-118S303.4,104.1,297.8,104.1z"/>
	</g>
</g>
<g id="q_копия_5">
	<g>
		<path class="st14" d="M297.8,118.1H78.3c-6.9,0-10.9,3.7-10.2,11c0.7,7.2,8.6,94.5,9.4,104c0.7,8.2,6.5,11,12.6,11h199.9
			c6.7,0,10.6-5.5,11-11.7c0.3-6.2,6.6-95.8,7.1-104S303.4,118.1,297.8,118.1z"/>
	</g>
</g>
<g id="_x31_">
	<g>
		<path class="st15" d="M307.8,124H68.3c-6.9,0-10.9,3.7-10.2,11c0.7,7.2,8.6,93.6,9.4,103.1c0.7,8.2,6.5,11,12.6,11h219.8
			c6.7,0,10.6-5.5,11-11.7c0.3-6.2,6.6-94.9,7.1-103.1C318.4,126,313.4,124,307.8,124z"/>
	</g>
</g>
<g id="_x31__1_">
	<g>
		<path class="st16" d="M307.8,127H68.3c-6.9,0-10.9,3.7-10.2,11c0.7,7.2,8.6,93.6,9.4,103.1c0.7,8.2,6.5,11,12.6,11h219.8
			c6.7,0,10.6-5.5,11-11.7c0.3-6.2,6.6-94.9,7.1-103.1C318.4,129,313.4,127,307.8,127z"/>
	</g>
</g>
<g id="Security">
	<g>
		<path class="st17" d="M80.7,67c0-0.4,0.3-0.7,1-0.7c0.9,0,1.9,0.3,2.7,1l1.3-1.7c-1-0.9-2.3-1.3-3.8-1.3c-2.4,0-3.7,1.4-3.7,3
			c0,3.6,5.3,2.6,5.3,3.9c0,0.4-0.5,0.8-1.3,0.8c-1.3,0-2.3-0.6-3-1.2l-1.3,1.8c0.9,0.9,2.3,1.5,4.1,1.5c2.5,0,3.9-1.2,3.9-3.1
			C86,67.4,80.7,68.2,80.7,67z M90.5,66.9c-2.1,0-3.6,1.6-3.6,3.5c0,2.2,1.6,3.6,3.7,3.6c1,0,2.2-0.3,2.8-0.9l-0.9-1.3
			c-0.4,0.4-1.2,0.6-1.7,0.6c-1,0-1.6-0.6-1.7-1.2h4.8v-0.5C93.9,68.3,92.5,66.9,90.5,66.9z M89.1,69.7c0.1-0.5,0.4-1.2,1.4-1.2
			c1,0,1.3,0.7,1.4,1.2H89.1z M98.6,68.8c0.6,0,1,0.3,1.3,0.6l1.4-1.3c-0.4-0.6-1.3-1.2-2.8-1.2c-2.1,0-3.7,1.4-3.7,3.5
			c0,2.1,1.6,3.6,3.7,3.6c1.5,0,2.4-0.7,2.8-1.2l-1.4-1.3c-0.3,0.4-0.7,0.7-1.3,0.7c-0.9,0-1.6-0.6-1.6-1.7
			C97,69.4,97.7,68.8,98.6,68.8z M107.1,71.4c-0.3,0.3-0.7,0.7-1.3,0.7c-0.7,0-1.1-0.3-1.1-1.1V67h-2.2v4.8c0,1.2,0.7,2.1,2.2,2.1
			c1.1,0,1.9-0.5,2.3-1v0.8h2.2V67h-2.2V71.4z M113.3,67h-2.2v6.8h2.2v-4.3c0.3-0.4,1-0.6,1.6-0.6c0.2,0,0.4,0,0.5,0.1v-2.1
			c-0.8,0-1.7,0.5-2.1,1V67z M116.6,73.8h2.2V67h-2.2V73.8z M117.7,63.9c-0.7,0-1.2,0.5-1.2,1.2c0,0.7,0.5,1.2,1.2,1.2
			c0.7,0,1.2-0.6,1.2-1.2C119,64.5,118.4,63.9,117.7,63.9z M123.8,72c-0.4,0-0.6-0.3-0.6-0.7v-2.5h1.4V67h-1.4v-1.8h-2.1V67H120v1.9
			h1.1V72c0,1.3,0.7,2,2.1,2c0.8,0,1.3-0.2,1.6-0.4l-0.4-1.6C124.3,72,124.1,72,123.8,72z M130.4,67l-1.5,4.3l-1.5-4.3H125l2.7,6.9
			l-0.2,0.4c-0.1,0.3-0.4,0.4-0.9,0.4c-0.2,0-0.4,0-0.5-0.1l-0.3,1.9c0.2,0.1,0.7,0.1,0.9,0.1c1.3,0,2.3-0.4,2.9-1.8l3.1-7.7H130.4z
			"/>
	</g>
</g>
<g id="ava__копия_2_1_">
	<g id="Эллипс_542">
		<g>
			<path class="st18" d="M188.1,155.5c-22.2,0-39.4,17.8-38.6,39c0.8,20.3,18,36.1,38.6,36.1s37.8-15.8,38.6-36.1
				C227.5,173.3,210.3,155.5,188.1,155.5z"/>
		</g>
	</g>
	<g id="Эллипс_542_копия_5">
		<g>
			<path class="st19" d="M188.1,159.3c-20,0-35.7,16.1-35,35.2c0.6,18.4,16.3,32.9,35,32.9s34.3-14.4,35-32.9
				C223.7,175.4,208.1,159.3,188.1,159.3z"/>
		</g>
	</g>
	<g id="Эллипс_542_копия_6">
		<g>
			<path class="st18" d="M187.8,167.8l-33.4,35c1.7,5.5,4.7,10.4,8.7,14.4h49.7c3.9-3.8,6.9-8.5,8.6-13.8L187.8,167.8z M171.6,207
				l16.2-16.2l16,16.2H171.6z"/>
		</g>
	</g>
	<g id="Эллипс_542_копия_7" class="st11">
		<g>
			<path class="st20" d="M165.3,167.5c0,0-0.3,0.3-0.5,0.4c-7.6,6.5-12.1,16.1-11.8,26.6c0.6,18.4,16.3,32.9,35,32.9
				c10,0,19-4.1,25.4-10.6c0.1-0.1,0.3-0.3,0.3-0.3L165.3,167.5z"/>
		</g>
	</g>
</g>
<g id="Фигура_672" class="st21">
	<g>
		<path class="st22" d="M219,116c-9.8,0-11,8-11,8h5c0,0,2-5,6-5s7,4.3,7,9v43c0,5.4-3.2,8-7,8c-3.8,0-6-2.8-6-7v-36
			c0-3.5-6-3.7-6,0v36c0,4.7,2.5,12,12,12s13-7.8,13-13v-43C232,122.5,228.8,116,219,116z"/>
	</g>
</g>
<g id="Фигура_672_копия">
	<g>
		<path class="st23" d="M219,115c-9.8,0-11,9-11,9h5c0,0,2-4,6-4s7,3.3,7,8v40c0,5.4-3.2,8-7,8c-3.8,0-6-2.8-6-7v-35
			c0-3.5-6-3.7-6,0v35c0,4.7,2.5,12,12,12s13-7.8,13-13v-40C232,122.5,228.8,115,219,115z"/>
	</g>
</g>
</svg>
