<?xml version="1.0" encoding="utf-8"?>
<!-- Generator: Adobe Illustrator 23.0.1, SVG Export Plug-In . SVG Version: 6.00 Build 0)  -->
<svg version="1.1" id="images_1_" xmlns="http://www.w3.org/2000/svg" xmlns:xlink="http://www.w3.org/1999/xlink" x="0px" y="0px"
	 viewBox="0 0 371 384" style="enable-background:new 0 0 371 384;" xml:space="preserve">
<style type="text/css">
	.st0{fill:#31343E;}
	.st1{fill:#3A3E4A;}
	.st2{fill:#262830;}
	.st3{opacity:0.4118;}
	.st4{fill:#E4B22D;}
	.st5{fill:#D4A527;}
	.st6{fill:#AD733B;}
	.st7{fill:#E84649;}
	.st8{fill:#C9292C;}
	.st9{fill:#505B67;}
	.st10{fill:#606B77;}
	.st11{fill:#636F7B;}
	.st12{opacity:0.6118;}
	.st13{fill:#363E46;}
	.st14{fill:#9AAABD;}
	.st15{fill:#D6E1EE;}
	.st16{opacity:0.6;enable-background:new    ;}
	.st17{fill:#768290;}
	.st18{fill:#606B78;}
	.st19{fill:#CCD8E5;}
	.st20{fill:#6A7786;}
	.st21{fill:#404853;}
</style>
<g id="Эллипс_543">
	<g>
		<circle class="st0" cx="177" cy="177" r="158"/>
	</g>
</g>
<g id="Эллипс_543_копия_2">
	<g>
		
			<ellipse transform="matrix(0.7071 -0.7071 0.7071 0.7071 -76.3513 178.6716)" class="st1" cx="177.5" cy="181.5" rx="117.5" ry="117.5"/>
	</g>
</g>
<g id="Эллипс_543_копия_4">
	<g>
		
			<ellipse transform="matrix(0.7071 -0.7071 0.7071 0.7071 -73.5229 177.5)" class="st2" cx="177.5" cy="177.5" rx="117.5" ry="117.5"/>
	</g>
</g>
<g id="Эллипс_543_копия_8" class="st3">
	<g>
		<ellipse class="st2" cx="143" cy="185" rx="78" ry="125"/>
	</g>
</g>
<g id="Эллипс_584_копия_3">
	<g>
		<ellipse transform="matrix(0.9239 -0.3827 0.3827 0.9239 -85.4154 90.5878)" class="st4" cx="185" cy="260" rx="34" ry="34"/>
	</g>
</g>
<g id="Эллипс_584_копия_2">
	<g>
		
			<ellipse transform="matrix(0.7071 -0.7071 0.7071 0.7071 -129.4109 207.0712)" class="st5" cx="185.3" cy="259.7" rx="28.3" ry="28.3"/>
	</g>
</g>
<g id="ark__копия_2">
	<g>
		<path class="st6" d="M186.9,248.5h-2.7l-10.3,23.4l3.9,0l1.9-3.9h3.5v3.9h4.6V268h3.5l1.9,3.9l3.9,0L186.9,248.5z M181.6,264.1
			l3.9-9.7l3.9,9.7H181.6z"/>
	</g>
</g>
<g id="Эллипс_584_копия_6">
	<g>
		<circle class="st4" cx="235.5" cy="245.5" r="30.5"/>
	</g>
</g>
<g id="Эллипс_584_копия_7">
	<g>
		<circle class="st5" cx="235.7" cy="245.3" r="25.4"/>
	</g>
</g>
<g id="ark__копия_4">
	<g>
		<path class="st6" d="M237.2,235.2h-2.4l-9.3,21l3.5,0l1.7-3.5h3.2v3.5h4.2v-3.5h3.2l1.7,3.5l3.5,0L237.2,235.2z M232.5,249.2
			l3.5-8.7l3.5,8.7H232.5z"/>
	</g>
</g>
<g id="Эллипс_584_копия_4">
	<g>
		<ellipse transform="matrix(0.9637 -0.2669 0.2669 0.9637 -66.37 67.7449)" class="st4" cx="216" cy="278" rx="28" ry="28"/>
	</g>
</g>
<g id="Эллипс_584_копия_5">
	<g>
		
			<ellipse transform="matrix(0.982 -0.1891 0.1891 0.982 -48.6317 45.8985)" class="st5" cx="216.2" cy="277.8" rx="23.3" ry="23.3"/>
	</g>
</g>
<g id="ark__копия_3">
	<g>
		<path class="st6" d="M217.5,268.5h-2.2l-8.5,19.3l3.2,0l1.6-3.2h2.9v3.2h3.8v-3.2h2.9l1.6,3.2l3.2,0L217.5,268.5z M213.2,281.4
			l3.2-8l3.2,8H213.2z"/>
	</g>
</g>
<g id="Прямоугольник_x2C__скругл._углы_505_копия">
	<g>
		<path class="st7" d="M69,152h-8c-2.2,0-4,1.8-4,4v29c0,2.2,1.8,4,4,4h8c2.2,0,4-1.8,4-4v-29C73,153.8,71.2,152,69,152z"/>
	</g>
</g>
<g id="Прямоугольник_x2C__скругл._углы_505_копия_2">
	<g>
		<path class="st8" d="M69,154h-8c-2.2,0-4,1.8-4,4v39c0,2.2,1.8,4,4,4h8c2.2,0,4-1.8,4-4v-39C73,155.8,71.2,154,69,154z"/>
	</g>
</g>
<g id="Эллипс_543_копия">
	<g>
		<path class="st9" d="M155,60c-0.1,0-23.2,0-23.2,0c0,0-0.1,0-0.1,0C95.4,60.4,66,112.8,66,177.5c0,64.6,29.3,117,65.4,117.5
			c0.1,0,23.1,0,23.2,0c0.1,0,0.2,0,0.3,0c36.5,0,66-52.6,66-117.5S191.5,60,155,60z"/>
	</g>
</g>
<g id="_x32_">
	<g>
		<ellipse class="st10" cx="131" cy="177.5" rx="66" ry="117.5"/>
	</g>
</g>
<g id="Эллипс_543_копия_10">
	<g>
		<path class="st11" d="M196.9,170.4c-0.2-7.2-0.8-14.2-1.8-21c0-0.2-0.1-0.5-0.1-0.5l-84.2,140.5c0,0,0.2,0.1,0.3,0.2
			c3.7,2.1,7.6,3.6,11.6,4.5c0.1,0,0.4,0.1,0.4,0.1l73.8-123.3C196.9,170.9,196.9,170.6,196.9,170.4z M187,115.3
			c-7.8-22.1-19.5-39.3-33.5-48.3c-0.1-0.1-0.3-0.2-0.3-0.2L68.7,216.3c0,0,0,0.2,0.1,0.4c4.8,24.1,13.9,44.6,25.6,58.6
			c0.1,0.1,0.2,0.2,0.2,0.2l92.6-159.7C187.2,115.7,187.1,115.5,187,115.3z M131,60c-35.9,0-65.1,51-66,114.6c0,0.2,0,0.5,0,0.5
			L131.8,60C131.8,60,131.3,60,131,60z"/>
	</g>
</g>
<g id="Эллипс_543_копия_7" class="st12">
	<g>
		<path class="st13" d="M133.9,151c-9.3,0-16.9,13.7-16.9,30.5s7.6,30.5,16.9,30.5c9.3,0,16.9-13.7,16.9-30.5S143.3,151,133.9,151z
			 M134,198c-5,0-9-7.2-9-16s4-16,9-16c5,0,9,7.2,9,16S139,198,134,198z"/>
	</g>
</g>
<g id="Эллипс_543_копия_5">
	<g>
		<path class="st14" d="M127.1,151c0,0-5.9,0-6,0c0,0,0,0,0,0c-9.3,0.1-16.8,13.7-16.8,30.5c0,16.8,7.5,30.4,16.8,30.5
			c0,0,5.9,0,6,0c0,0,0.1,0,0.1,0c9.3,0,16.9-13.7,16.9-30.5S136.4,151,127.1,151z M125.5,197c-4.1,0-7.5-6.9-7.5-15.5
			c0-8.6,3.4-15.5,7.5-15.5c4.1,0,7.5,6.9,7.5,15.5C133,190.1,129.6,197,125.5,197z"/>
	</g>
</g>
<g id="Эллипс_543_копия_6">
	<g>
		<path class="st15" d="M120.9,151c-9.3,0-16.9,13.7-16.9,30.5s7.6,30.5,16.9,30.5c9.3,0,16.9-13.7,16.9-30.5S130.3,151,120.9,151z
			 M121,198c-5,0-9-7.2-9-16s4-16,9-16c5,0,9,7.2,9,16S126,198,121,198z"/>
	</g>
</g>
<g id="_x35__2_" class="st16">
	<defs>
		<path id="SVGID_1_" class="st16" d="M354,152h-34c-5.5,0-10,4.5-10,10v53c0,5.5,4.5,10,10,10h34c5.5,0,10-4.5,10-10v-53
			C364,156.5,359.5,152,354,152z"/>
	</defs>
	<clipPath id="SVGID_2_">
		<use xlink:href="#SVGID_1_"  style="overflow:visible;"/>
	</clipPath>
	
		<image style="overflow:visible;clip-path:url(#SVGID_2_);" width="371" height="384" id="_x35__xA0_Изображение" xlink:href="7F71CA894A968B83.png" >
	</image>
</g>
<g id="Прямоугольник_x2C__скругл._углы_523_копия_2">
	<g>
		<path class="st17" d="M354,142h-34c-5.5,0-10,4.5-10,10v53c0,5.5,4.5,10,10,10h34c5.5,0,10-4.5,10-10v-53
			C364,146.5,359.5,142,354,142z"/>
	</g>
</g>
<g id="Прямоугольник_x2C__скругл._углы_523_копия">
	<g>
		<path class="st18" d="M354,144h-34c-5.5,0-10,4.5-10,10v53c0,5.5,4.5,10,10,10h34c5.5,0,10-4.5,10-10v-53
			C364,148.5,359.5,144,354,144z"/>
	</g>
</g>
<g id="Прямоугольник_x2C__скругл._углы_526">
	<g>
		<path class="st9" d="M355,149h-36c-2.2,0-4,1.8-4,4v6c0,2.2,1.8,4,4,4h36c2.2,0,4-1.8,4-4v-6C359,150.8,357.2,149,355,149z"/>
	</g>
</g>
<g id="Эллипс_527_копия_3">
	<g>
		<path class="st19" d="M327,154c-1.1,0-2,0.9-2,2s0.9,2,2,2c1.1,0,2-0.9,2-2S328.1,154,327,154z M334,154c-1.1,0-2,0.9-2,2
			s0.9,2,2,2c1.1,0,2-0.9,2-2S335.1,154,334,154z M341,154c-1.1,0-2,0.9-2,2s0.9,2,2,2s2-0.9,2-2S342.1,154,341,154z M348,154
			c-1.1,0-2,0.9-2,2s0.9,2,2,2c1.1,0,2-0.9,2-2S349.1,154,348,154z"/>
	</g>
</g>
<g id="Прямоугольник_x2C__скругл._углы_526_копия_5">
	<g>
		<path class="st20" d="M324,169h-4c-1.1,0-2,0.9-2,2v4c0,1.1,0.9,2,2,2h4c1.1,0,2-0.9,2-2v-4C326,169.9,325.1,169,324,169z
			 M334,169h-4c-1.1,0-2,0.9-2,2v4c0,1.1,0.9,2,2,2h4c1.1,0,2-0.9,2-2v-4C336,169.9,335.1,169,334,169z M344,169h-4
			c-1.1,0-2,0.9-2,2v4c0,1.1,0.9,2,2,2h4c1.1,0,2-0.9,2-2v-4C346,169.9,345.1,169,344,169z M354,169h-4c-1.1,0-2,0.9-2,2v4
			c0,1.1,0.9,2,2,2h4c1.1,0,2-0.9,2-2v-4C356,169.9,355.1,169,354,169z M324,179h-4c-1.1,0-2,0.9-2,2v4c0,1.1,0.9,2,2,2h4
			c1.1,0,2-0.9,2-2v-4C326,179.9,325.1,179,324,179z M334,179h-4c-1.1,0-2,0.9-2,2v4c0,1.1,0.9,2,2,2h4c1.1,0,2-0.9,2-2v-4
			C336,179.9,335.1,179,334,179z M344,179h-4c-1.1,0-2,0.9-2,2v4c0,1.1,0.9,2,2,2h4c1.1,0,2-0.9,2-2v-4C346,179.9,345.1,179,344,179
			z M354,179h-4c-1.1,0-2,0.9-2,2v4c0,1.1,0.9,2,2,2h4c1.1,0,2-0.9,2-2v-4C356,179.9,355.1,179,354,179z M324,189h-4
			c-1.1,0-2,0.9-2,2v4c0,1.1,0.9,2,2,2h4c1.1,0,2-0.9,2-2v-4C326,189.9,325.1,189,324,189z M334,189h-4c-1.1,0-2,0.9-2,2v4
			c0,1.1,0.9,2,2,2h4c1.1,0,2-0.9,2-2v-4C336,189.9,335.1,189,334,189z M344,189h-4c-1.1,0-2,0.9-2,2v4c0,1.1,0.9,2,2,2h4
			c1.1,0,2-0.9,2-2v-4C346,189.9,345.1,189,344,189z M354,189h-4c-1.1,0-2,0.9-2,2v4c0,1.1,0.9,2,2,2h4c1.1,0,2-0.9,2-2v-4
			C356,189.9,355.1,189,354,189z M324,199h-4c-1.1,0-2,0.9-2,2v4c0,1.1,0.9,2,2,2h4c1.1,0,2-0.9,2-2v-4C326,199.9,325.1,199,324,199
			z M334,199h-4c-1.1,0-2,0.9-2,2v4c0,1.1,0.9,2,2,2h4c1.1,0,2-0.9,2-2v-4C336,199.9,335.1,199,334,199z M344,199h-4
			c-1.1,0-2,0.9-2,2v4c0,1.1,0.9,2,2,2h4c1.1,0,2-0.9,2-2v-4C346,199.9,345.1,199,344,199z M354,199h-4c-1.1,0-2,0.9-2,2v4
			c0,1.1,0.9,2,2,2h4c1.1,0,2-0.9,2-2v-4C356,199.9,355.1,199,354,199z"/>
	</g>
</g>
<g id="Эллипс_539_копия_2">
	<g>
		<path class="st21" d="M318.5,19c4.1,0,7.5-3.4,7.5-7.5S322.6,4,318.5,4s-7.5,3.4-7.5,7.5S314.4,19,318.5,19z M65.5,12
			C58,12,52,18,52,25.5C52,33,58,39,65.5,39C73,39,79,33,79,25.5C79,18,73,12,65.5,12z M335,377c-1.1,0-2,0.9-2,2c0,1.1,0.9,2,2,2
			s2-0.9,2-2C337,377.9,336.1,377,335,377z M22,290c-7.7,0-14,6.3-14,14s6.3,14,14,14c7.7,0,14-6.3,14-14S29.7,290,22,290z
			 M294.5,277c-25.7,0-46.5,20.8-46.5,46.5c0,25.7,20.8,46.5,46.5,46.5s46.5-20.8,46.5-46.5C341,297.8,320.2,277,294.5,277z"/>
	</g>
</g>
</svg>
