<?xml version="1.0" encoding="utf-8"?>
<!-- Generator: Adobe Illustrator 23.0.1, SVG Export Plug-In . SVG Version: 6.00 Build 0)  -->
<svg version="1.1" id="images_1_" xmlns="http://www.w3.org/2000/svg" xmlns:xlink="http://www.w3.org/1999/xlink" x="0px" y="0px"
	 viewBox="0 0 371 384" style="enable-background:new 0 0 371 384;" xml:space="preserve">
<style type="text/css">
	.st0{fill:#404853;}
	.st1{opacity:0.4196;}
	.st2{fill:#191A20;}
	.st3{fill:#424B56;}
	.st4{fill:#55606D;}
	.st5{opacity:0.5216;}
	.st6{fill:#292F37;}
	.st7{fill:#25272F;}
	.st8{fill:#B6C4D4;}
	.st9{fill:#D6E1EE;}
	.st10{fill:#AAB6C5;}
	.st11{fill:#626D7A;}
	.st12{opacity:0.251;}
	.st13{fill:#363F48;}
	.st14{fill:#505B67;}
	.st15{fill:#788491;}
	.st16{fill:#566271;}
	.st17{fill:#5C6876;}
	.st18{fill:#E4B22D;}
	.st19{fill:#D4A527;}
	.st20{fill:#AD733B;}
	.st21{fill:#D52F2F;}
	.st22{fill:#FFFFFF;}
</style>
<g id="Эллипс_539_копия_3">
	<g>
		<path class="st0" d="M45.5,366c-4.1,0-7.5,3.4-7.5,7.5c0,4.1,3.4,7.5,7.5,7.5s7.5-3.4,7.5-7.5C53,369.4,49.6,366,45.5,366z
			 M290.5,250c-7.5,0-13.5,6-13.5,13.5c0,7.5,6,13.5,13.5,13.5c7.5,0,13.5-6,13.5-13.5C304,256,298,250,290.5,250z M29,8
			c1.1,0,2-0.9,2-2c0-1.1-0.9-2-2-2s-2,0.9-2,2C27,7.1,27.9,8,29,8z M342,67c-7.7,0-14,6.3-14,14s6.3,14,14,14c7.7,0,14-6.3,14-14
			S349.7,67,342,67z M69.5,15C43.8,15,23,35.8,23,61.5C23,87.2,43.8,108,69.5,108S116,87.2,116,61.5C116,35.8,95.2,15,69.5,15z"/>
	</g>
</g>
<g id="Прямоугольник_x2C__скругл._углы_665_копия_9" class="st1">
	<g>
		<path class="st2" d="M196.1,193.7H91.9c-2.2,0-4,1.8-4,4V227c0,2.2,1.8,4,4,4h104.3c2.2,0,4-1.8,4-4v-29.3
			C200.1,195.5,198.4,193.7,196.1,193.7z"/>
	</g>
</g>
<g id="Прямоугольник_x2C__скругл._углы_665_копия_10">
	<g>
		<path class="st3" d="M198,190H90c-2.2,0-4,1.8-4,4v29.3c0,2.2,1.8,4,4,4h108c2.2,0,4-1.8,4-4V194C202,191.8,200.2,190,198,190z"/>
	</g>
</g>
<g id="Эллипс_667_копия_9">
	<g>
		<path class="st4" d="M103.3,204.9c-2.6,0-4.6,2.1-4.6,4.7c0,2.6,2.1,4.7,4.6,4.7c2.6,0,4.6-2.1,4.6-4.7
			C108,207,105.9,204.9,103.3,204.9z M117.3,204.9c-2.6,0-4.7,2.1-4.7,4.7c0,2.6,2.1,4.7,4.7,4.7s4.7-2.1,4.7-4.7
			C121.9,207,119.9,204.9,117.3,204.9z M131.2,204.9c-2.6,0-4.7,2.1-4.7,4.7c0,2.6,2.1,4.7,4.7,4.7s4.7-2.1,4.7-4.7
			C135.9,207,133.8,204.9,131.2,204.9z M145.2,204.9c-2.6,0-4.6,2.1-4.6,4.7c0,2.6,2.1,4.7,4.6,4.7c2.6,0,4.6-2.1,4.6-4.7
			C149.8,207,147.8,204.9,145.2,204.9z M159.1,204.9c-2.6,0-4.7,2.1-4.7,4.7c0,2.6,2.1,4.7,4.7,4.7c2.6,0,4.7-2.1,4.7-4.7
			C163.8,207,161.7,204.9,159.1,204.9z M173.1,204.9c-2.6,0-4.6,2.1-4.6,4.7c0,2.6,2.1,4.7,4.6,4.7s4.6-2.1,4.6-4.7
			C177.8,207,175.7,204.9,173.1,204.9z"/>
	</g>
</g>
<g id="Прямоугольник_5" class="st5">
	<g>
		<rect x="143" y="190" class="st6" width="8" height="37"/>
	</g>
</g>
<g id="Фигура_1650_копия">
	<g>
		<path class="st7" d="M185,169c-16.6,0-39,5.5-39,14v76c0,22.2,18.5,37,37,37s39-10.9,39-37v-76C222,175.9,201.6,169,185,169z"/>
	</g>
</g>
<g id="Прямоугольник_x2C__скругл._углы_968">
	<g>
		<path class="st8" d="M206,110h-45c-2.2,0-4,1.8-4,4v46c0,2.2,1.8,4,4,4h45c2.2,0,4-1.8,4-4v-46C210,111.8,208.2,110,206,110z"/>
	</g>
</g>
<g id="Прямоугольник_x2C__скругл._углы_968_копия_2">
	<g>
		<path class="st9" d="M206,112h-45c-2.2,0-4,1.8-4,4v46c0,2.2,1.8,4,4,4h45c2.2,0,4-1.8,4-4v-46C210,113.8,208.2,112,206,112z"/>
	</g>
</g>
<g id="Прямоугольник_x2C__скругл._углы_968_копия_3">
	<g>
		<path class="st10" d="M171,128h-1c-2.2,0-4,1.8-4,4v1c0,2.2,1.8,4,4,4h1c2.2,0,4-1.8,4-4v-1C175,129.8,173.2,128,171,128z"/>
	</g>
</g>
<g id="Прямоугольник_x2C__скругл._углы_968_копия_4">
	<g>
		<path class="st10" d="M199,128h-1c-2.2,0-4,1.8-4,4v1c0,2.2,1.8,4,4,4h1c2.2,0,4-1.8,4-4v-1C203,129.8,201.2,128,199,128z"/>
	</g>
</g>
<g id="Прямоугольник_x2C__скругл._углы_968_копия">
	<g>
		<path class="st11" d="M211,152h-55c-2.2,0-4,1.8-4,4v16c0,2.2,1.8,4,4,4h55c2.2,0,4-1.8,4-4v-16C215,153.8,213.2,152,211,152z"/>
	</g>
</g>
<g id="Фигура_1651_копия_2" class="st12">
	<g>
		<path class="st13" d="M182.7,157c-24.7,0-30.7,5.1-30.7,7.8s0,5.2,0,5.2s5.7-5.7,30.7-5.7c25,0,32.3,5.7,32.3,5.7s0-2.1,0-5.2
			S207.4,157,182.7,157z"/>
	</g>
</g>
<g id="Фигура_1650">
	<g>
		<path class="st14" d="M185,162c-16.6,0-39,5.5-39,14v76c0,22.2,18.5,37,37,37s39-10.9,39-37v-76C222,168.9,201.6,162,185,162z"/>
	</g>
</g>
<g id="Фигура_1651">
	<g>
		<path class="st15" d="M183,161c-29.8,0-37,9.9-37,15s0,10,0,10s6.9-11,37-11s39,11,39,11s0-4,0-10S212.8,161,183,161z"/>
	</g>
</g>
<g id="Фигура_1651_копия">
	<g>
		<path class="st11" d="M183,164c-29.8,0-37,9.9-37,15s0,10,0,10s6.9-11,37-11s39,11,39,11s0-4,0-10S212.8,164,183,164z"/>
	</g>
</g>
<g id="Прямоугольник_x2C__скругл._углы_969">
	<g>
		<path class="st16" d="M196,197h-24c-5.5,0-10,4.5-10,10v33c0,5.5,4.5,10,10,10h24c5.5,0,10-4.5,10-10v-33
			C206,201.5,201.5,197,196,197z"/>
	</g>
</g>
<g id="Прямоугольник_x2C__скругл._углы_969_копия">
	<g>
		<path class="st3" d="M196,197h-24c-5.5,0-10,4.5-10,10v31c0,5.5,4.5,10,10,10h24c5.5,0,10-4.5,10-10v-31
			C206,201.5,201.5,197,196,197z"/>
	</g>
</g>
<g id="Forma_1">
	<g>
		<path class="st17" d="M188.5,262.8v4.5h1.1v2.3h-3.4v-9.1h2.3l-3.4-4.5l-3.4,4.5h2.3v9.1h-3.4v-2.4c0.8-0.3,1.4-1.2,1.4-2.2
			c0-1.4-1.1-2.5-2.5-2.5s-2.5,1.1-2.5,2.5c0,0.9,0.6,1.8,1.4,2.2v2.4c0,1.2,1,2.3,2.3,2.3h3.4v3.5c-0.8,0.5-1.4,1.2-1.4,2.2
			c0,1.4,1.1,2.5,2.5,2.5c1.4,0,2.5-1.1,2.5-2.5c0-1-0.6-1.8-1.4-2.2v-3.5h3.4c1.2,0,2.3-1,2.3-2.3v-2.3h1.1v-4.5H188.5z"/>
	</g>
</g>
<g id="_x31__копия_1_">
	<g id="Эллипс_584_копия_3">
		<g>
			<ellipse class="st18" cx="183.9" cy="222.1" rx="17.7" ry="17.7"/>
		</g>
	</g>
	<g id="Эллипс_584_копия_2">
		<g>
			<circle class="st19" cx="183.8" cy="222" r="14.7"/>
		</g>
	</g>
	<g id="ark__копия_2">
		<g>
			<path class="st20" d="M184.4,216.2H183l-5.4,12.2l2,0l1-2h1.8v2h2.4v-2h1.8l1,2l2,0L184.4,216.2z M181.6,224.3l2-5.1l2,5.1H181.6
				z"/>
		</g>
	</g>
</g>
<g id="Прямоугольник_x2C__скругл._углы_665_копия_8" class="st1">
	<g>
		<path class="st2" d="M304.1,156.7H199.9c-2.2,0-4,1.8-4,4V190c0,2.2,1.8,4,4,4h104.3c2.2,0,4-1.8,4-4v-29.3
			C308.1,158.5,306.4,156.7,304.1,156.7z"/>
	</g>
</g>
<g id="Прямоугольник_x2C__скругл._углы_665_копия_8_1_">
	<g>
		<path class="st21" d="M306,153H198c-2.2,0-4,1.8-4,4v29.3c0,2.2,1.8,4,4,4h108c2.2,0,4-1.8,4-4V157C310,154.8,308.2,153,306,153z"
			/>
	</g>
</g>
<g id="Эллипс_667_копия_8">
	<g>
		<path class="st22" d="M216.3,167.9c-2.6,0-4.6,2.1-4.6,4.7c0,2.6,2.1,4.7,4.6,4.7c2.6,0,4.6-2.1,4.6-4.7
			C221,170,218.9,167.9,216.3,167.9z M230.3,167.9c-2.6,0-4.7,2.1-4.7,4.7c0,2.6,2.1,4.7,4.7,4.7c2.6,0,4.7-2.1,4.7-4.7
			C234.9,170,232.9,167.9,230.3,167.9z M244.2,167.9c-2.6,0-4.7,2.1-4.7,4.7c0,2.6,2.1,4.7,4.7,4.7c2.6,0,4.7-2.1,4.7-4.7
			C248.9,170,246.8,167.9,244.2,167.9z M258.2,167.9c-2.6,0-4.6,2.1-4.6,4.7c0,2.6,2.1,4.7,4.6,4.7s4.6-2.1,4.6-4.7
			C262.8,170,260.8,167.9,258.2,167.9z M272.1,167.9c-2.6,0-4.7,2.1-4.7,4.7c0,2.6,2.1,4.7,4.7,4.7c2.6,0,4.7-2.1,4.7-4.7
			C276.8,170,274.7,167.9,272.1,167.9z M286.1,167.9c-2.6,0-4.6,2.1-4.6,4.7c0,2.6,2.1,4.7,4.6,4.7c2.6,0,4.6-2.1,4.6-4.7
			C290.8,170,288.7,167.9,286.1,167.9z"/>
	</g>
</g>
</svg>
