<?xml version="1.0" encoding="utf-8"?>
<!-- Generator: Adobe Illustrator 23.0.1, SVG Export Plug-In . SVG Version: 6.00 Build 0)  -->
<svg version="1.1" id="Слой_1" xmlns="http://www.w3.org/2000/svg" xmlns:xlink="http://www.w3.org/1999/xlink" x="0px" y="0px"
	 viewBox="0 0 371 384" style="enable-background:new 0 0 371 384;" xml:space="preserve">
<style type="text/css">
	.st0{fill:#404853;}
	.st1{opacity:0.71;enable-background:new    ;}
	.st2{fill:#606B78;}
	.st3{fill:#505B67;}
	.st4{fill:#4C5661;}
	.st5{fill:#E4B22D;}
	.st6{fill:#D4A527;}
	.st7{fill:#AD733B;}
	.st8{fill:#3F4853;}
	.st9{fill:#D6E1EE;}
	.st10{fill:#CB4F51;}
	.st11{fill:#BECEE2;}
	.st12{fill:#CAD9EA;}
	.st13{fill:#303740;}
	.st14{fill:#495463;}
	.st15{fill:#667483;}
	.st16{fill:#3E4853;}
	.st17{fill:#25272F;}
	.st18{fill:#B6C4D4;}
	.st19{fill:#AAB6C5;}
	.st20{fill:#626D7A;}
	.st21{opacity:0.251;fill:#363F48;enable-background:new    ;}
	.st22{fill:#788491;}
	.st23{fill:#566271;}
	.st24{fill:#424B56;}
	.st25{fill:#8898AC;}
	.st26{opacity:0.4;fill:#303740;enable-background:new    ;}
	.st27{fill:#B3C5DB;}
	.st28{fill:none;stroke:#D6E1EE;stroke-width:2;stroke-linecap:round;}
	.st29{fill:none;stroke:#D6E1EE;stroke-width:2;stroke-linecap:round;stroke-linejoin:round;}
</style>
<g>
	<g id="Canvas">
		<g id="images">
			<path id="Эллипс_539_копия_3" class="st0" d="M46,353.5c0-4.1,3.4-7.5,7.5-7.5s7.5,3.4,7.5,7.5s-3.4,7.5-7.5,7.5
				S46,357.6,46,353.5L46,353.5z M285,283.5c0-7.5,6-13.5,13.5-13.5s13.5,6,13.5,13.5s-6,13.5-13.5,13.5l0,0
				C291,297,285,291,285,283.5z M31,81.5C31,55.8,51.8,35,77.5,35S124,55.8,124,81.5S103.2,128,77.5,128S31,107.2,31,81.5z M336,101
				c0-7.7,6.3-14,14-14s14,6.3,14,14s-6.3,14-14,14S336,108.7,336,101z M35,26c0-1.1,0.9-2,2-2s2,0.9,2,2s-0.9,2-2,2S35,27.1,35,26z
				"/>
			<path id="Прямоугольник_скругл._углы_966" class="st1" d="M67.6,101.5h224.9c5.5,0,10,4.5,10,10v149.6
				c0,5.5-4.5,10-10,10H67.6c-5.5,0-10-4.5-10-10V111.5C57.6,106,62.1,101.5,67.6,101.5z"/>
			<path id="Прямоугольник_скругл._углы_966_копия_3" class="st2" d="M58.2,94h243.8
				c5.5,0,10,4.5,10,10v149.6c0,5.5-4.5,10-10,10H58.2c-5.5,0-10-4.5-10-10V104C48.2,98.4,52.6,94,58.2,94z"/>
			<path id="Прямоугольник_скругл._углы_966_копия_2" class="st2" d="M147.4,275.8h66.3
				c2.8,0,5,2.2,5,5v4.2c0,2.8-2.2,5-5,5h-66.3c-2.8,0-5-2.2-5-5v-4.2C142.4,278,144.6,275.8,147.4,275.8z"/>
			<path id="Прямоугольник_скругл._углы_966_копия" class="st3" d="M60,99h241c3.3,0,6,2.7,6,6v129l0,0
				H54l0,0V105C54,101.7,56.7,99,60,99z"/>
			<circle id="Эллипс_969" class="st4" cx="180.1" cy="248.5" r="6.6"/>
			<g id="_1_копия_2">
				<ellipse id="Эллипс_584_копия_3" class="st5" cx="178.9" cy="214.2" rx="17.7" ry="17.7"/>
				<circle id="Эллипс_584_копия_2" class="st6" cx="178.8" cy="214.1" r="14.7"/>
				<path id="ark_копия_2" class="st7" d="M177.4,220.4v-2h-1.8l-1,2h-2l5.4-12.2h1.4l5.4,12.2h-2l-1-2h-1.8v2H177.4z
					 M176.6,216.3h4l-2-5.1L176.6,216.3z"/>
			</g>
			<path id="Прямоугольник_скругл._углы_967_копия_6" class="st8" d="M229.2,214c-2.2,0-4-1.8-4-4
				v-53.3c0-0.4,0.1-0.9,0.2-1.3c-0.1-0.3-0.2-0.6-0.2-0.8v0c0-1,0.8-1.9,1.9-1.9h33.1c1,0,1.9,0.8,1.9,1.9c0,0.3-0.1,0.6-0.2,0.9
				c0.1,0.4,0.2,0.8,0.2,1.3V210c0,2.2-1.8,4-4,4H229.2z M140.4,214c-2.2,0-4-1.8-4-4v-75c0-2.2,1.8-4,4-4h72.3c2.2,0,4,1.8,4,4v75
				c0,2.2-1.8,4-4,4H140.4z M114,214c-2.2,0-4-1.8-4-4v-55.2c0-2.2,1.8-4,4-4h6.2c2.2,0,4,1.8,4,4V210c0,2.2-1.8,4-4,4H114z
				 M114,148c-2.2,0-4-1.8-4-4v-9c0-2.2,1.8-4,4-4h6.2c2.2,0,4,1.8,4,4v9c0,2.2-1.8,4-4,4H114z M229.2,148c-2.2,0-4-1.8-4-4v-9
				c0-2.2,1.8-4,4-4H258c2.2,0,4,1.8,4,4v9c0,2.2-1.8,4-4,4H229.2z"/>
			<path id="Прямоугольник_скругл._углы_967" class="st9" d="M112,147h10c2.2,0,4,1.8,4,4v56
				c0,2.2-1.8,4-4,4h-10c-2.2,0-4-1.8-4-4v-56C108,148.8,109.8,147,112,147z"/>
			<path id="Прямоугольник_скругл._углы_967_копия" class="st10" d="M112,127h10c2.2,0,4,1.8,4,4v9
				c0,2.2-1.8,4-4,4h-10c-2.2,0-4-1.8-4-4v-9C108,128.8,109.8,127,112,127z"/>
			<path id="Эллипс_969_копия_3" class="st11" d="M111.3,198.1c0-2.9,2.3-5.2,5.2-5.2c2.9,0,5.2,2.3,5.2,5.2
				c0,2.9-2.3,5.2-5.2,5.2c0,0,0,0,0,0C113.6,203.2,111.3,200.9,111.3,198.1z M113.2,185.8c0-1.8,1.5-3.3,3.3-3.3
				c1.8,0,3.3,1.5,3.3,3.3s-1.5,3.3-3.3,3.3S113.2,187.7,113.2,185.8L113.2,185.8z M113.2,167.9c0-1.8,1.5-3.3,3.3-3.3
				c1.8,0,3.3,1.5,3.3,3.3s-1.5,3.3-3.3,3.3S113.2,169.7,113.2,167.9L113.2,167.9z M113.2,156.6c0-1.8,1.5-3.3,3.3-3.3
				c1.8,0,3.3,1.5,3.3,3.3s-1.5,3.3-3.3,3.3S113.2,158.4,113.2,156.6L113.2,156.6z"/>
			<path id="Прямоугольник_скругл._углы_967_копия_2" class="st9" d="M139,128h76c2.2,0,4,1.8,4,4v75
				c0,2.2-1.8,4-4,4h-76c-2.2,0-4-1.8-4-4v-75C135,129.8,136.8,128,139,128z"/>
			<path id="Прямоугольник_скругл._углы_968_копия_10" class="st11" d="M210.2,202.3
				c-0.5,0-0.9-0.4-0.9-0.9c0-0.5,0.4-0.9,0.9-0.9c0,0,0,0,0,0h0c0.5,0,0.9,0.4,0.9,0.9C211.2,201.9,210.7,202.3,210.2,202.3
				C210.2,202.3,210.2,202.3,210.2,202.3L210.2,202.3z M200.8,202.3c-0.5,0-0.9-0.4-0.9-0.9c0-0.5,0.4-0.9,0.9-0.9c0,0,0,0,0,0h5.7
				c0.5,0,0.9,0.4,0.9,0.9c0,0.5-0.4,0.9-0.9,0.9c0,0,0,0,0,0H200.8z M186.7,202.3c-0.5,0-0.9-0.4-0.9-0.9c0-0.5,0.4-0.9,0.9-0.9
				h1.9c0.5,0,0.9,0.4,0.9,0.9c0,0.5-0.4,0.9-0.9,0.9c0,0,0,0,0,0H186.7z M165.9,202.3c-0.5,0-0.9-0.4-0.9-0.9
				c0-0.5,0.4-0.9,0.9-0.9c0,0,0,0,0,0h8.5c0.5,0,0.9,0.4,0.9,0.9c0,0.5-0.4,0.9-0.9,0.9H165.9z M153.7,202.3
				c-0.5,0-0.9-0.4-0.9-0.9c0-0.5,0.4-0.9,0.9-0.9h8.5c0.5,0,0.9,0.4,0.9,0.9c0,0.5-0.4,0.9-0.9,0.9c0,0,0,0,0,0H153.7z
				 M145.2,202.3c-0.5,0-0.9-0.4-0.9-0.9c0-0.5,0.4-0.9,0.9-0.9c0,0,0,0,0,0h4.7c0.5,0,0.9,0.4,0.9,0.9c0,0.5-0.4,0.9-0.9,0.9H145.2
				z M210.2,192.9c-0.5,0-0.9-0.4-0.9-0.9s0.4-0.9,0.9-0.9h0c0.5,0,0.9,0.4,0.9,0.9S210.7,192.9,210.2,192.9L210.2,192.9z
				 M200.8,192.9c-0.5,0-0.9-0.4-0.9-0.9s0.4-0.9,0.9-0.9h5.6c0.5,0,0.9,0.4,0.9,0.9s-0.4,0.9-0.9,0.9H200.8z M186.7,192.9
				c-0.5,0-0.9-0.4-0.9-0.9s0.4-0.9,0.9-0.9l0,0h1.9c0.5,0,0.9,0.4,0.9,0.9s-0.4,0.9-0.9,0.9H186.7z M165.9,192.9
				c-0.5,0-0.9-0.4-0.9-0.9s0.4-0.9,0.9-0.9l0,0h8.5c0.5,0,0.9,0.4,0.9,0.9s-0.4,0.9-0.9,0.9H165.9z M153.7,192.9
				c-0.5,0-0.9-0.4-0.9-0.9s0.4-0.9,0.9-0.9h8.5c0.5,0,0.9,0.4,0.9,0.9s-0.4,0.9-0.9,0.9H153.7z M145.2,192.9
				c-0.5,0-0.9-0.4-0.9-0.9s0.4-0.9,0.9-0.9h4.7c0.5,0,0.9,0.4,0.9,0.9s-0.4,0.9-0.9,0.9H145.2z M210.2,183.5
				c-0.5,0-0.9-0.4-0.9-0.9s0.4-0.9,0.9-0.9h0c0.5,0,0.9,0.4,0.9,0.9S210.7,183.5,210.2,183.5L210.2,183.5z M200.8,183.5
				c-0.5,0-0.9-0.4-0.9-0.9s0.4-0.9,0.9-0.9h5.6c0.5,0,0.9,0.4,0.9,0.9s-0.4,0.9-0.9,0.9H200.8z M186.7,183.5
				c-0.5,0-0.9-0.4-0.9-0.9s0.4-0.9,0.9-0.9l0,0h1.9c0.5,0,0.9,0.4,0.9,0.9s-0.4,0.9-0.9,0.9H186.7z M165.9,183.5
				c-0.5,0-0.9-0.4-0.9-0.9s0.4-0.9,0.9-0.9l0,0h8.5c0.5,0,0.9,0.4,0.9,0.9s-0.4,0.9-0.9,0.9H165.9z M153.7,183.5
				c-0.5,0-0.9-0.4-0.9-0.9s0.4-0.9,0.9-0.9h8.5c0.5,0,0.9,0.4,0.9,0.9s-0.4,0.9-0.9,0.9H153.7z M145.2,183.5
				c-0.5,0-0.9-0.4-0.9-0.9s0.4-0.9,0.9-0.9h4.7c0.5,0,0.9,0.4,0.9,0.9s-0.4,0.9-0.9,0.9H145.2z M210.2,174c-0.5,0-0.9-0.4-0.9-0.9
				s0.4-0.9,0.9-0.9h0c0.5,0,0.9,0.4,0.9,0.9S210.7,174,210.2,174L210.2,174z M200.8,174c-0.5,0-0.9-0.4-0.9-0.9s0.4-0.9,0.9-0.9
				h5.6c0.5,0,0.9,0.4,0.9,0.9s-0.4,0.9-0.9,0.9H200.8z M186.7,174c-0.5,0-0.9-0.4-0.9-0.9s0.4-0.9,0.9-0.9l0,0h1.9
				c0.5,0,0.9,0.4,0.9,0.9s-0.4,0.9-0.9,0.9H186.7z M165.9,174c-0.5,0-0.9-0.4-0.9-0.9s0.4-0.9,0.9-0.9l0,0h8.5
				c0.5,0,0.9,0.4,0.9,0.9s-0.4,0.9-0.9,0.9H165.9z M153.7,174c-0.5,0-0.9-0.4-0.9-0.9s0.4-0.9,0.9-0.9h8.5c0.5,0,0.9,0.4,0.9,0.9
				s-0.4,0.9-0.9,0.9H153.7z M145.2,174c-0.5,0-0.9-0.4-0.9-0.9s0.4-0.9,0.9-0.9h4.7c0.5,0,0.9,0.4,0.9,0.9s-0.4,0.9-0.9,0.9H145.2z
				 M210.2,164.6c-0.5,0-0.9-0.4-0.9-0.9s0.4-0.9,0.9-0.9h0c0.5,0,0.9,0.4,0.9,0.9S210.7,164.6,210.2,164.6L210.2,164.6z
				 M200.8,164.6c-0.5,0-0.9-0.4-0.9-0.9s0.4-0.9,0.9-0.9h5.6c0.5,0,0.9,0.4,0.9,0.9s-0.4,0.9-0.9,0.9H200.8z M186.7,164.6
				c-0.5,0-0.9-0.4-0.9-0.9s0.4-0.9,0.9-0.9l0,0h1.9c0.5,0,0.9,0.4,0.9,0.9s-0.4,0.9-0.9,0.9H186.7z M165.9,164.6
				c-0.5,0-0.9-0.4-0.9-0.9s0.4-0.9,0.9-0.9l0,0h8.5c0.5,0,0.9,0.4,0.9,0.9s-0.4,0.9-0.9,0.9H165.9z M153.7,164.6
				c-0.5,0-0.9-0.4-0.9-0.9s0.4-0.9,0.9-0.9h8.5c0.5,0,0.9,0.4,0.9,0.9s-0.4,0.9-0.9,0.9H153.7z M145.2,164.6
				c-0.5,0-0.9-0.4-0.9-0.9s0.4-0.9,0.9-0.9h4.7c0.5,0,0.9,0.4,0.9,0.9s-0.4,0.9-0.9,0.9H145.2z M210.2,155.2
				c-0.5,0-0.9-0.4-0.9-0.9s0.4-0.9,0.9-0.9h0c0.5,0,0.9,0.4,0.9,0.9S210.7,155.2,210.2,155.2L210.2,155.2z M200.8,155.2
				c-0.5,0-0.9-0.4-0.9-0.9s0.4-0.9,0.9-0.9h5.6c0.5,0,0.9,0.4,0.9,0.9s-0.4,0.9-0.9,0.9H200.8z M186.7,155.2
				c-0.5,0-0.9-0.4-0.9-0.9s0.4-0.9,0.9-0.9l0,0h1.9c0.5,0,0.9,0.4,0.9,0.9s-0.4,0.9-0.9,0.9H186.7z M165.9,155.2
				c-0.5,0-0.9-0.4-0.9-0.9s0.4-0.9,0.9-0.9l0,0h8.5c0.5,0,0.9,0.4,0.9,0.9s-0.4,0.9-0.9,0.9H165.9z M153.7,155.2
				c-0.5,0-0.9-0.4-0.9-0.9s0.4-0.9,0.9-0.9h8.5c0.5,0,0.9,0.4,0.9,0.9s-0.4,0.9-0.9,0.9H153.7z M145.2,155.2
				c-0.5,0-0.9-0.4-0.9-0.9s0.4-0.9,0.9-0.9h4.7c0.5,0,0.9,0.4,0.9,0.9s-0.4,0.9-0.9,0.9H145.2z M210.2,145.8
				c-0.5,0-0.9-0.4-0.9-0.9s0.4-0.9,0.9-0.9h0c0.5,0,0.9,0.4,0.9,0.9S210.7,145.8,210.2,145.8L210.2,145.8z M200.8,145.8
				c-0.5,0-0.9-0.4-0.9-0.9s0.4-0.9,0.9-0.9h5.6c0.5,0,0.9,0.4,0.9,0.9s-0.4,0.9-0.9,0.9H200.8z M186.7,145.8
				c-0.5,0-0.9-0.4-0.9-0.9s0.4-0.9,0.9-0.9l0,0h1.9c0.5,0,0.9,0.4,0.9,0.9s-0.4,0.9-0.9,0.9H186.7z M165.9,145.8
				c-0.5,0-0.9-0.4-0.9-0.9s0.4-0.9,0.9-0.9l0,0h8.5c0.5,0,0.9,0.4,0.9,0.9s-0.4,0.9-0.9,0.9H165.9z M153.7,145.8
				c-0.5,0-0.9-0.4-0.9-0.9s0.4-0.9,0.9-0.9h8.5c0.5,0,0.9,0.4,0.9,0.9s-0.4,0.9-0.9,0.9H153.7z M145.2,145.8
				c-0.5,0-0.9-0.4-0.9-0.9s0.4-0.9,0.9-0.9h4.7c0.5,0,0.9,0.4,0.9,0.9s-0.4,0.9-0.9,0.9H145.2z M210.2,136.4
				c-0.5,0-0.9-0.4-0.9-0.9l0,0v0c0-0.5,0.4-0.9,0.9-0.9l0,0h0c0.5,0,0.9,0.4,0.9,0.9l0,0v0C211.2,136,210.7,136.4,210.2,136.4
				C210.2,136.4,210.2,136.4,210.2,136.4L210.2,136.4z M200.8,136.4c-0.5,0-0.9-0.4-0.9-0.9c0,0,0,0,0,0v0c0-0.5,0.4-0.9,0.9-0.9
				h5.6c0.5,0,0.9,0.4,0.9,0.9l0,0v0c0,0.5-0.4,0.9-0.9,0.9l0,0H200.8z M186.7,136.4c-0.5,0-0.9-0.4-0.9-0.9c0,0,0,0,0,0v0
				c0-0.5,0.4-0.9,0.9-0.9l0,0h1.9c0.5,0,0.9,0.4,0.9,0.9l0,0v0c0,0.5-0.4,0.9-0.9,0.9c0,0,0,0,0,0H186.7z M165.9,136.4
				c-0.5,0-0.9-0.4-0.9-0.9l0,0v0c0-0.5,0.4-0.9,0.9-0.9l0,0h8.5c0.5,0,0.9,0.4,0.9,0.9l0,0v0c0,0.5-0.4,0.9-0.9,0.9c0,0,0,0,0,0
				H165.9z M153.7,136.4c-0.5,0-0.9-0.4-0.9-0.9l0,0v0c0-0.5,0.4-0.9,0.9-0.9l0,0h8.5c0.5,0,0.9,0.4,0.9,0.9l0,0v0
				c0,0.5-0.4,0.9-0.9,0.9c0,0,0,0,0,0H153.7z M145.2,136.4c-0.5,0-0.9-0.4-0.9-0.9c0,0,0,0,0,0v0c0-0.5,0.4-0.9,0.9-0.9l0,0h4.7
				c0.5,0,0.9,0.4,0.9,0.9l0,0v0c0,0.5-0.4,0.9-0.9,0.9l0,0H145.2z"/>
			<path id="Прямоугольник_скругл._углы_967_копия_3" class="st9" d="M227,149h33c2.2,0,4,1.8,4,4v53
				c0,2.2-1.8,4-4,4h-33c-2.2,0-4-1.8-4-4v-53C223,150.8,224.8,149,227,149z"/>
			<path id="Прямоугольник_скругл._углы_969_копия_2" class="st11" d="M235.6,198.5
				c0-1,0.8-1.9,1.9-1.9s1.9,0.8,1.9,1.9s-0.8,1.9-1.9,1.9l0,0C236.5,200.4,235.6,199.6,235.6,198.5z M242.2,199.5
				c-0.5,0-0.9-0.4-0.9-0.9s0.4-0.9,0.9-0.9l0,0h13.2c0.5,0,0.9,0.4,0.9,0.9s-0.4,0.9-0.9,0.9H242.2z M229,194.8
				c0-2.6,2.1-4.7,4.7-4.7s4.7,2.1,4.7,4.7c0,0.1,0,0.2,0,0.3c-1.6-0.8-3.6-0.1-4.4,1.6c-0.4,0.9-0.4,1.9,0,2.8c-0.1,0-0.2,0-0.3,0
				C231.2,199.5,229,197.4,229,194.8L229,194.8z M242.2,196.7c-0.5,0-0.9-0.4-0.9-0.9s0.4-0.9,0.9-0.9l0,0h5.6
				c0.5,0,0.9,0.4,0.9,0.9s-0.4,0.9-0.9,0.9H242.2z M235.6,180.6c0-1,0.8-1.9,1.9-1.9s1.9,0.8,1.9,1.9s-0.8,1.9-1.9,1.9l0,0
				C236.5,182.5,235.6,181.7,235.6,180.6z M242.2,181.6c-0.5,0-0.9-0.4-0.9-0.9v0c0-0.5,0.4-0.9,0.9-0.9l0,0h13.2
				c0.5,0,0.9,0.4,0.9,0.9v0c0,0.5-0.4,0.9-0.9,0.9H242.2z M229,176.9c0-2.6,2.1-4.7,4.7-4.7s4.7,2.1,4.7,4.7c0,0.1,0,0.2,0,0.3
				c-0.4-0.2-0.9-0.3-1.4-0.3c-1.8,0-3.3,1.5-3.3,3.3l0,0c0,0.5,0.1,1,0.3,1.4c-0.1,0-0.2,0-0.3,0C231.1,181.6,229,179.5,229,176.9
				L229,176.9z M242.2,178.8c-0.5,0-0.9-0.4-0.9-0.9s0.4-0.9,0.9-0.9l0,0h5.6c0.5,0,0.9,0.4,0.9,0.9s-0.4,0.9-0.9,0.9H242.2z"/>
			<path id="Прямоугольник_скругл._углы_969_копия_3" class="st11" d="M231.9,156.2h8.5
				c0.5,0,0.9,0.4,0.9,0.9l0,0c0,0.5-0.4,0.9-0.9,0.9h-8.5c-0.5,0-0.9-0.4-0.9-0.9l0,0C230.9,156.6,231.4,156.2,231.9,156.2z"/>
			<path id="Прямоугольник_скругл._углы_969_копия_4" class="st11" d="M248.8,156.2h8.5
				c0.5,0,0.9,0.4,0.9,0.9l0,0c0,0.5-0.4,0.9-0.9,0.9h-8.5c-0.5,0-0.9-0.4-0.9-0.9l0,0C247.9,156.6,248.3,156.2,248.8,156.2z"/>
			<path id="Фигура_1664" class="st12" d="M230,162.7v-0.9h30.2v0.9H230z M244.1,160.9v-7.5h0.9v7.5L244.1,160.9z"/>
			<path id="Прямоугольник_скругл._углы_967_копия_3-2" class="st13" d="M227.4,126.9h32.5
				c2.2,0,4,1.8,4,4v9c0,2.2-1.8,4-4,4h-32.5c-2.2,0-4-1.8-4-4v-9C223.4,128.7,225.2,126.9,227.4,126.9z"/>
			<path id="Прямоугольник_скругл._углы_969_копия_7" class="st14" d="M231.9,138.2
				c-0.5,0-0.9-0.4-0.9-0.9s0.4-0.9,0.9-0.9h17.9c0.5,0,0.9,0.4,0.9,0.9s-0.4,0.9-0.9,0.9H231.9z M231.9,134.5
				c-0.5,0-0.9-0.4-0.9-0.9s0.4-0.9,0.9-0.9h8.5c0.5,0,0.9,0.4,0.9,0.9s-0.4,0.9-0.9,0.9H231.9z"/>
			<path id="_2" class="st15" d="M223,204h41l0,0v10c0,2.2-1.8,4-4,4h-33c-2.2,0-4-1.8-4-4V204L223,204z"/>
			<path id="Прямоугольник_скругл._углы_968_копия_6" class="st16" d="M223,206h41l0,0v6
				c0,2.2-1.8,4-4,4h-33c-2.2,0-4-1.8-4-4V206L223,206z"/>
			<path id="Фигура_1650_копия" class="st17" d="M223,286.5c0,10.9,8.8,19.7,19.7,19.7c9.9,0,20.8-5.8,20.8-19.7v-40.5
				c0-3.8-10.9-7.5-19.7-7.5s-20.8,2.9-20.8,7.5V286.5z"/>
			<path id="Прямоугольник_скругл._углы_968" class="st18" d="M232.9,207h20.3c2.2,0,4,1.8,4,4v20.8
				c0,2.2-1.8,4-4,4h-20.3c-2.2,0-4-1.8-4-4V211C228.9,208.8,230.7,207,232.9,207z"/>
			<path id="Прямоугольник_скругл._углы_968_копия_2" class="st9" d="M232.9,208.1h20.3
				c2.2,0,4,1.8,4,4v20.8c0,2.2-1.8,4-4,4h-20.3c-2.2,0-4-1.8-4-4v-20.8C228.9,209.9,230.7,208.1,232.9,208.1z"/>
			<circle id="Прямоугольник_скругл._углы_968_копия_3" class="st19" cx="236.1" cy="219" r="2.4"/>
			<circle id="Прямоугольник_скругл._углы_968_копия_4" class="st19" cx="251" cy="219" r="2.4"/>
			<path id="Прямоугольник_скругл._углы_968_копия" class="st20" d="M230.2,229.4h25.6c2.2,0,4,1.8,4,4
				v4.8c0,2.2-1.8,4-4,4h-25.6c-2.2,0-4-1.8-4-4v-4.8C226.2,231.2,228,229.4,230.2,229.4z"/>
			<path id="Фигура_1651_копия_2" class="st21" d="M226.2,236.2c0-1.4,3.2-4.2,16.4-4.2s17.2,2.5,17.2,4.2v2.8
				c0,0-3.9-3.1-17.2-3.1s-16.4,3.1-16.4,3.1V236.2z"/>
			<path id="Фигура_1650" class="st3" d="M223,282.7c0,10.9,8.8,19.7,19.7,19.7c9.9,0,20.8-5.8,20.8-19.7v-40.5
				c0-3.8-10.9-7.5-19.7-7.5s-20.8,2.9-20.8,7.5V282.7z"/>
			<path id="Фигура_1651" class="st22" d="M223,242.2c0-2.7,3.8-8,19.7-8s20.8,4.8,20.8,8v5.3c0,0-4.7-5.9-20.8-5.9
				s-19.7,5.9-19.7,5.9V242.2z"/>
			<path id="Фигура_1651_копия" class="st20" d="M223,243.8c0-2.7,3.8-8,19.7-8s20.8,4.8,20.8,8v5.3
				c0,0-4.7-5.9-20.8-5.9s-19.7,5.9-19.7,5.9V243.8z"/>
			<path id="Прямоугольник_скругл._углы_969" class="st23" d="M242,253h4c5.5,0,10,4.5,10,10v8
				c0,5.5-4.5,10-10,10h-4c-5.5,0-10-4.5-10-10v-8C232,257.5,236.5,253,242,253z"/>
			<path id="Прямоугольник_скругл._углы_969_копия" class="st24" d="M242,253h4c5.5,0,10,4.5,10,10v6.9
				c0,5.5-4.5,10-10,10h-4c-5.5,0-10-4.5-10-10V263C232,257.5,236.5,253,242,253z"/>
			<path id="Прямоугольник_6_копия" class="st25" d="M247,274v-4h4v1.2c0,1.5-1.2,2.8-2.8,2.8l0,0H247z M242,274
				v-4h4v4H242z M239.8,274c-1.5,0-2.8-1.2-2.8-2.8l0,0V270h4v4H239.8z M237,269v-4h4v4H237z M242,269v-9h6.6c1.3,0,2.4,1.1,2.4,2.4
				v6.6H242z M237,264v-1.2c0-1.5,1.2-2.8,2.8-2.8l0,0h1.2v4H237z"/>
			<path id="Прямоугольник_скругл._углы_968_копия_7" class="st26" d="M223,208h41l0,0v3
				c0,2.2-1.8,4-4,4h-33c-2.2,0-4-1.8-4-4V208L223,208z"/>
			<path id="Прямоугольник_скругл._углы_968_копия_8" class="st27" d="M223,204h41l0,0v3
				c0,2.2-1.8,4-4,4h-33c-2.2,0-4-1.8-4-4V204L223,204z"/>
			<path id="Фигура_1665" class="st28" d="M235,275L235,275c-25.8,23.4-55.4-8.2-55.5-35.6"/>
			<path id="Фигура_1666" class="st29" d="M185.6,245.6c0,0-5.5-7.3-6.7-7.1s-3.1,9.1-3.1,9.1"/>
		</g>
	</g>
</g>
</svg>
