<?xml version="1.0" encoding="utf-8"?>
<!-- Generator: Adobe Illustrator 23.0.1, SVG Export Plug-In . SVG Version: 6.00 Build 0)  -->
<svg version="1.1" xmlns="http://www.w3.org/2000/svg" xmlns:xlink="http://www.w3.org/1999/xlink" x="0px" y="0px"
	 viewBox="0 0 595 620" style="enable-background:new 0 0 595 620;" xml:space="preserve">
<style type="text/css">
	.st0{enable-background:new    ;}
	.st1{fill:#D32E31;}
	.st2{fill:#FFFFFF;}
</style>
<g id="Эллипс_539_копия_4_1_" class="st0">
	<g id="Эллипс_539_копия_4">
		<g>
			<path class="st1" d="M561.5,48c-10.2,0-18.5,8.3-18.5,18.5S551.3,85,561.5,85c10.2,0,18.5-8.3,18.5-18.5S571.7,48,561.5,48z
				 M102,161.5C102,143,87,128,68.5,128C50,128,35,143,35,161.5C35,180,50,195,68.5,195C87,195,102,180,102,161.5z M490.4,505.1
				c-2.7,0-4.9,2.2-4.9,4.9s2.2,4.9,4.9,4.9c2.7,0,4.9-2.2,4.9-4.9S493.1,505.1,490.4,505.1z M99.5,538C80.4,538,65,553.4,65,572.5
				S80.4,607,99.5,607s34.5-15.4,34.5-34.5S118.6,538,99.5,538z M390.1,257.8c-63.6,0-115.1,51.5-115.1,115s51.5,115,115.1,115
				c63.6,0,115.1-51.5,115.1-115S453.7,257.8,390.1,257.8z"/>
		</g>
	</g>
</g>
<g id="Фигура_3_копия_2_1_" class="st0">
	<g id="Фигура_3_копия_2">
		<g>
			<path class="st2" d="M391,386l-93.2-152L204,386l93.8-98.9L391,386z M281.3,327.3h32.9l-16.4-17L281.3,327.3z M270.6,338.4
				l-15,15.9h84.3l-15-15.9H270.6z"/>
		</g>
	</g>
</g>
</svg>
