<svg xmlns="http://www.w3.org/2000/svg" viewBox="0 0 321 115"><path d="M278 112V98h-38v14h-2V98h-21v-2h21V85h2v11h38V58h-36v-2h36V18h-38v10h-2V18h-31v-2h31V1h2v15h38V1h2v15h41v2h-41v38h21v2h-21v38h11v2h-11v14h-2zm-200 0V98H40v14h-2V98h-8v-2h8V59H20v-2h18V18H0v-2h38V1h2v15h38V1h2v15h30v2H80v10h-2V18H40v39h35v2H40v37h38V85h2v11h20v2H80v14h-2zm227-10v-4h-4v-2h4v-4h2v4h4v2h-4v4h-2zM78 79v-4h-4v-2h4v-4h2v4h4v2h-4v4h-2zM4 63v-4H0v-2h4v-4h2v4h4v2H6v4H4zm234-15v-4h-4v-2h4v-4h2v4h4v2h-4v4h-2z" fill="#dbdee5"/><path d="M165.7 109.5c23.7-3.3 42.1-22.2 44.9-45.9.2-2 4.1-5.6 7.4-5.6h8M155.4 5.1c-25.4 1.6-46 21-49 46.3-.2 2-4.1 5.6-7.4 5.6h-8" fill="none" stroke="#dbdee5" stroke-width="2"/><g transform="translate(126 25)"><circle cx="32.5" cy="32.5" r="32.5" fill="#289548"/><circle cx="32.5" cy="32.5" r="31.5" fill="none" stroke="#212225" stroke-width="2"/></g><path d="M168.9 49l-12.2 12-5.7-5.6-4.1 4 9.8 9.6 16.2-16-4-4z" fill="#fff"/><g transform="translate(155)" fill="none"><circle cx="5" cy="5" r="5"/><circle cx="5" cy="5" r="4" stroke="#dbdee5" stroke-width="2"/></g><g transform="translate(156 105)" fill="none"><circle cx="5" cy="5" r="5"/><circle cx="5" cy="5" r="4" stroke="#dbdee5" stroke-width="2"/></g><g transform="translate(82 52)" fill="none"><circle cx="5" cy="5" r="5"/><circle cx="5" cy="5" r="4" stroke="#dbdee5" stroke-width="2"/></g><g transform="translate(224 53)" fill="none"><circle cx="5" cy="5" r="5"/><circle cx="5" cy="5" r="4" stroke="#dbdee5" stroke-width="2"/></g></svg>