<svg xmlns="http://www.w3.org/2000/svg" width="242" height="151.967" viewBox="0 0 242 151.967"><defs><style>.cls-1,.cls-2,.cls-5,.cls-8{fill:none}.cls-1,.cls-5{stroke:#212225}.cls-1{stroke-linecap:round}.cls-1,.cls-2,.cls-5{stroke-width:2px}.cls-2{stroke:#dbdde5}.cls-4{fill:#212225}.cls-9{stroke:none}</style></defs><g id="delete" transform="translate(0 -.033)"><g id="Группа_1" data-name="Группа 1"><path id="Прямоугольник_скругл._углы_7" data-name="Прямоугольник, скругл. углы 7" class="cls-1" d="M93 114v16a3 3 0 01-3 3h-5a3 3 0 01-3-3v-16" transform="translate(-7)"/><path id="Прямоугольник_скругл._углы_7_копия" data-name="Прямоугольник, скругл. углы 7 копия" class="cls-1" d="M102 114v10a3 3 0 01-3 3h-5a3 3 0 01-3-3v-10" transform="translate(-5)"/><path id="Прямоугольник_скругл._углы_7_копия_2" data-name="Прямоугольник, скругл. углы 7 копия 2" class="cls-1" d="M111 114v5a3 3 0 01-3 3h-5a3 3 0 01-3-3v-5" transform="translate(-3)"/><path id="Прямоугольник_скругл._углы_7_копия_3" data-name="Прямоугольник, скругл. углы 7 копия 3" class="cls-1" d="M120 114v10a3 3 0 01-3 3h-5a3 3 0 01-3-3v-10" transform="translate(-1)"/><path id="Прямоугольник_скругл._углы_7_копия_4" data-name="Прямоугольник, скругл. углы 7 копия 4" class="cls-1" d="M129 114v15a3 3 0 01-3 3h-5a3 3 0 01-3-3v-15" transform="translate(1)"/><path id="Прямоугольник_скругл._углы_7_копия_6" data-name="Прямоугольник, скругл. углы 7 копия 6" class="cls-1" d="M138 114v10a3 3 0 01-3 3h-5a3 3 0 01-3-3v-10" transform="translate(3)"/><path id="Прямоугольник_скругл._углы_7_копия_7" data-name="Прямоугольник, скругл. углы 7 копия 7" class="cls-1" d="M147 114v5a3 3 0 01-3 3h-5a3 3 0 01-3-3v-5" transform="translate(5)"/><path id="Прямоугольник_скругл._углы_7_копия_8" data-name="Прямоугольник, скругл. углы 7 копия 8" class="cls-1" d="M156 114v10a3 3 0 01-3 3h-5a3 3 0 01-3-3v-10" transform="translate(7)"/></g><path id="Прямоугольник_скругл._углы_3" data-name="Прямоугольник, скругл. углы 3" class="cls-2" d="M153.17 55H176a10 10 0 0110 10v39a5 5 0 01-5 5H56a5 5 0 01-5-5V65a10 10 0 0110-10h22.98"/><path id="Фигура_1" data-name="Фигура 1" stroke="#dbdde5" stroke-width="2" stroke-linecap="round" fill="none" d="M55 73h126"/><path id="Фигура_2_копия" data-name="Фигура 2 копия" class="cls-4" d="M76.374 68.731c-4.01 0-2.931-6.731-1.09-6.731H84v6.731zm76.67-.2v-5.752h8.718c1.841 0 2.921 5.752-1.09 5.752z"/><path id="Прямоугольник_скругл._углы_5" data-name="Прямоугольник, скругл. углы 5" class="cls-5" d="M153.149 62h7.351a3.5 3.5 0 010 7h-84a3.5 3.5 0 010-7h7.364"/><g id="Эллипс_1" data-name="Эллипс 1" transform="translate(164 85)" fill="#007dff" stroke-width="2" stroke="#212225"><circle class="cls-9" cx="6" cy="6" r="6"/><circle class="cls-8" cx="6" cy="6" r="5"/></g><g id="Эллипс_1_копия" data-name="Эллипс 1 копия" class="cls-2" transform="translate(144 85)"><circle class="cls-9" cx="6" cy="6" r="6"/><circle class="cls-8" cx="6" cy="6" r="5"/></g><g id="Эллипс_1_копия_2" data-name="Эллипс 1 копия 2" class="cls-2" transform="translate(124 85)"><circle class="cls-9" cx="6" cy="6" r="6"/><circle class="cls-8" cx="6" cy="6" r="5"/></g><g id="Прямоугольник_скругл._углы_6" data-name="Прямоугольник, скругл. углы 6" class="cls-2" transform="translate(63 85)"><rect class="cls-9" width="53" height="12" rx="4"/><rect class="cls-8" x="1" y="1" width="51" height="10" rx="3"/></g><path id="Прямоугольник_1_копия_5" data-name="Прямоугольник 1 копия 5" d="M180 152v-12h-7v-2h7v-11h2v11h16v2h-16v12zm-120 0v-12H44v-2h16v-11h2v11h7v2h-7v12zm160-32v-20h-10v-2h10v-3h2v3h5v2h-5v20zm-200 0v-20h-5v-2h5v-3h2v3h10v2H22v20zm200-48V60h-10v-2h10V20h-38v12h-2V20h-3v-2h3V7h2v11h38V7h2v11h10v2h-10v38h20v2h-20v12zM20 72V60H0v-2h20V20H10v-2h10V7h2v11h38V7h2v11h3v2h-3v12h-2V20H22v38h10v2H22v12z" fill="#dbdde5"/><path id="Прямоугольник_скругл._углы_4" data-name="Прямоугольник, скругл. углы 4" class="cls-5" d="M83 67V24a4 4 0 014-4h32c3.348 0 5-1.729 5-4m14.046 4H143l11 11v38"/><g id="_копия" data-name="? копия"><path id="Контур_13" data-name="Контур 13" class="cls-8" d="M117.271 55.991a6.75 6.75 0 10-6.75-6.75 6.75 6.75 0 006.75 6.75z"/><path id="Контур_14" data-name="Контур 14" class="cls-4" d="M117.271 55.991a6.75 6.75 0 100-13.5 6.75 6.75 0 100 13.5m0 2a8.87 8.87 0 01-6.366-2.65 8.552 8.552 0 01-2.49-6.137 8.439 8.439 0 012.464-6.054 9.024 9.024 0 016.392-2.657 8.83 8.83 0 016.153 2.527 8.7 8.7 0 012.7 6.155v.056a8.964 8.964 0 01-8.856 8.76z"/></g><path id="_копия_2" data-name="? копия 2" class="cls-1" d="M117.93 23.539q-.367.233-.714.468c-3.736 2.536-5.748 5.453-5.773 13.787v1.07h11.233v-1.07c0-4.621 1.925-6.84 5.907-9.19 5.063-2.95 8.411-6.736 8.411-12.976 0-9.477-7.884-14.6-18.748-14.6-9.914 0-18.089 4.882-18.247 15.848h12.13a5.816 5.816 0 016.012-5.822c3.111 0 5.859 1.834 5.859 4.941"/><path id="Фигура_999" data-name="Фигура 999" class="cls-5" d="M142 19.925V30c0 1.244.3 2 2 2h9"/></g></svg>