<svg version="1.1" id="Слой_1" xmlns="http://www.w3.org/2000/svg" x="0" y="0" viewBox="0 0 242 152" xml:space="preserve"><g id="images" transform="translate(0 -.034)"><g id="Группа_1" fill="none" stroke="#212225" stroke-width="2" stroke-linecap="round"><path id="Прямоугольник_скругл._углы_7" d="M86 114v16c0 1.7-1.3 3-3 3h-5c-1.7 0-3-1.3-3-3v-16"/><path id="Прямоугольник_скругл._углы_7_копия" d="M97 114v10c0 1.7-1.3 3-3 3h-5c-1.7 0-3-1.3-3-3v-10"/><path id="Прямоугольник_скругл._углы_7_копия_2" d="M108 114v5c0 1.7-1.3 3-3 3h-5c-1.7 0-3-1.3-3-3v-5"/><path id="Прямоугольник_скругл._углы_7_копия_3" d="M119 114v10c0 1.7-1.3 3-3 3h-5c-1.7 0-3-1.3-3-3v-10"/><path id="Прямоугольник_скругл._углы_7_копия_4" d="M130 114v15c0 1.7-1.3 3-3 3h-5c-1.7 0-3-1.3-3-3v-15"/><path id="Прямоугольник_скругл._углы_7_копия_6" d="M141 114v10c0 1.7-1.3 3-3 3h-5c-1.7 0-3-1.3-3-3v-10"/><path id="Прямоугольник_скругл._углы_7_копия_7" d="M152 114v5c0 1.7-1.3 3-3 3h-5c-1.7 0-3-1.3-3-3v-5"/><path id="Прямоугольник_скругл._углы_7_копия_8" d="M163 114v10c0 1.7-1.3 3-3 3h-5c-1.7 0-3-1.3-3-3v-10"/></g><path id="Прямоугольник_скругл._углы_3" fill="none" stroke="#DBDDE5" stroke-width="2" d="M153.2 55H176c5.5 0 10 4.5 10 10v39c0 2.8-2.2 5-5 5H56c-2.8 0-5-2.2-5-5V65c0-5.5 4.5-10 10-10h23"/><path id="Фигура_1" fill="none" stroke="#DBDDE5" stroke-width="2" stroke-linecap="round" d="M55 73h126"/><path id="Фигура_2_копия" fill="#212225" d="M76.4 68.7c-4 0-2.9-6.7-1.1-6.7H84v6.7h-7.6zm76.6-.2v-5.8h8.7c1.8 0 2.9 5.8-1.1 5.8H153z"/><path id="Прямоугольник_скругл._углы_5" fill="none" stroke="#212225" stroke-width="2" d="M153.1 62h7.4c1.9 0 3.5 1.6 3.5 3.5s-1.6 3.5-3.5 3.5h-84c-1.9 0-3.5-1.6-3.5-3.5s1.6-3.5 3.5-3.5h7.4"/><g id="Эллипс_1" transform="translate(164 85)"><circle fill="#C9292C" cx="6" cy="6" r="6"/><circle fill="none" stroke="#212225" stroke-width="2" cx="6" cy="6" r="5"/></g><g id="Эллипс_1_копия" transform="translate(144 85)" fill="none"><circle cx="6" cy="6" r="6"/><circle stroke="#DBDDE5" stroke-width="2" cx="6" cy="6" r="5"/></g><g id="Эллипс_1_копия_2" transform="translate(124 85)" fill="none"><circle cx="6" cy="6" r="6"/><circle stroke="#DBDDE5" stroke-width="2" cx="6" cy="6" r="5"/></g><g id="Прямоугольник_скругл._углы_6" fill="none"><path d="M4 0h45c2.2 0 4 1.8 4 4v4c0 2.2-1.8 4-4 4H4c-2.2 0-4-1.8-4-4V4c0-2.2 1.8-4 4-4z" transform="translate(63 85)"/><path stroke="#DBDDE5" stroke-width="2" d="M67 86h45c1.7 0 3 1.3 3 3v4c0 1.7-1.3 3-3 3H67c-1.7 0-3-1.3-3-3v-4c0-1.7 1.3-3 3-3z"/></g><path id="Прямоугольник_1_копия_5" fill="#DBDDE5" d="M180 152v-12h-7v-2h7v-11h2v11h16v2h-16v12h-2zm-120 0v-12H44v-2h16v-11h2v11h7v2h-7v12h-2zm160-32v-20h-10v-2h10v-3h2v3h5v2h-5v20h-2zm-200 0v-20h-5v-2h5v-3h2v3h10v2H22v20h-2zm200-48V60h-10v-2h10V20h-38v12h-2V20h-3v-2h3V7h2v11h38V7h2v11h10v2h-10v38h20v2h-20v12h-2zM20 72V60H0v-2h20V20H10v-2h10V7h2v11h38V7h2v11h3v2h-3v12h-2V20H22v38h10v2H22v12h-2z"/><path id="Прямоугольник_скругл._углы_4" fill="none" stroke="#212225" stroke-width="2" d="M83 67V24c0-2.2 1.8-4 4-4h32c3.3 0 5-1.7 5-4m14 4h5l11 11v38"/><g id="_копия"><path fill="none" d="M117.3 56c3.7 0 6.8-3 6.8-6.8s-3-6.8-6.8-6.8-6.8 3-6.8 6.8 3 6.8 6.8 6.8z"/><path fill="#212225" d="M117.3 56c3.6 0 6.8-3 6.9-6.8-.1-3.7-3.2-6.7-6.9-6.7-3.8 0-6.9 3-6.9 6.7 0 3.8 3.1 6.8 6.9 6.8m0 2c-2.4 0-4.7-.9-6.4-2.7-1.6-1.7-2.5-3.8-2.5-6.1s.8-4.4 2.5-6.1c1.7-1.7 4-2.7 6.4-2.7 2.3 0 4.5.9 6.2 2.5 1.7 1.7 2.7 3.8 2.7 6.2 0 2.3-1 4.5-2.7 6.2-1.8 1.8-3.9 2.7-6.2 2.7z"/></g><path id="_копия_2" fill="none" stroke="#212225" stroke-width="2" stroke-linecap="round" d="M117.9 23.5c-.2.2-.5.3-.7.5-3.7 2.5-5.7 5.5-5.8 13.8v1.1h11.2v-1.1c0-4.6 1.9-6.8 5.9-9.2 5.1-3 8.4-6.7 8.4-13C137 6.2 129.1 1 118.2 1c-9.9 0-18.1 4.9-18.2 15.8h12.1c0-3.2 2.6-5.8 5.8-5.8h.2c3.1 0 5.9 1.8 5.9 4.9"/><path id="Фигура_999" fill="none" stroke="#212225" stroke-width="2" d="M142 19.9V30c0 1.2.3 2 2 2h9"/></g></svg>