<svg xmlns="http://www.w3.org/2000/svg" width="242" height="151.967" viewBox="0 0 242 151.967">
  <g id="images" transform="translate(0 -0.034)">
    <g id="Группа_1" data-name="Группа 1">
      <path id="Прямоугольник_скругл._углы_7" data-name="Прямоугольник, скругл. углы 7" d="M93,114v16a3,3,0,0,1-3,3H85a3,3,0,0,1-3-3V114" transform="translate(-7)" fill="none" stroke="#7e8a9c" stroke-linecap="round" stroke-width="2"/>
      <path id="Прямоугольник_скругл._углы_7_копия" data-name="Прямоугольник, скругл. углы 7 копия" d="M102,114v10a3,3,0,0,1-3,3H94a3,3,0,0,1-3-3V114" transform="translate(-5)" fill="none" stroke="#7e8a9c" stroke-linecap="round" stroke-width="2"/>
      <path id="Прямоугольник_скругл._углы_7_копия_2" data-name="Прямоугольник, скругл. углы 7 копия 2" d="M111,114v5a3,3,0,0,1-3,3h-5a3,3,0,0,1-3-3v-5" transform="translate(-3)" fill="none" stroke="#7e8a9c" stroke-linecap="round" stroke-width="2"/>
      <path id="Прямоугольник_скругл._углы_7_копия_3" data-name="Прямоугольник, скругл. углы 7 копия 3" d="M120,114v10a3,3,0,0,1-3,3h-5a3,3,0,0,1-3-3V114" transform="translate(-1)" fill="none" stroke="#7e8a9c" stroke-linecap="round" stroke-width="2"/>
      <path id="Прямоугольник_скругл._углы_7_копия_4" data-name="Прямоугольник, скругл. углы 7 копия 4" d="M129,114v15a3,3,0,0,1-3,3h-5a3,3,0,0,1-3-3V114" transform="translate(1)" fill="none" stroke="#7e8a9c" stroke-linecap="round" stroke-width="2"/>
      <path id="Прямоугольник_скругл._углы_7_копия_6" data-name="Прямоугольник, скругл. углы 7 копия 6" d="M138,114v10a3,3,0,0,1-3,3h-5a3,3,0,0,1-3-3V114" transform="translate(3)" fill="none" stroke="#7e8a9c" stroke-linecap="round" stroke-width="2"/>
      <path id="Прямоугольник_скругл._углы_7_копия_7" data-name="Прямоугольник, скругл. углы 7 копия 7" d="M147,114v5a3,3,0,0,1-3,3h-5a3,3,0,0,1-3-3v-5" transform="translate(5)" fill="none" stroke="#7e8a9c" stroke-linecap="round" stroke-width="2"/>
      <path id="Прямоугольник_скругл._углы_7_копия_8" data-name="Прямоугольник, скругл. углы 7 копия 8" d="M156,114v10a3,3,0,0,1-3,3h-5a3,3,0,0,1-3-3V114" transform="translate(7)" fill="none" stroke="#7e8a9c" stroke-linecap="round" stroke-width="2"/>
    </g>
    <path id="Прямоугольник_скругл._углы_3" data-name="Прямоугольник, скругл. углы 3" d="M153.17,55H176a10,10,0,0,1,10,10v39a5,5,0,0,1-5,5H56a5,5,0,0,1-5-5V65A10,10,0,0,1,61,55H83.98" fill="none" stroke="#7e8a9c" stroke-width="2"/>
    <line id="Фигура_1" data-name="Фигура 1" x2="126" transform="translate(55 73)" fill="none" stroke="#7e8a9c" stroke-linecap="round" stroke-width="2"/>
    <path id="Фигура_2_копия" data-name="Фигура 2 копия" d="M76.374,68.731c-4.01,0-2.931-6.731-1.09-6.731H84v6.731Zm76.67-.2V62.779h8.718c1.841,0,2.921,5.752-1.09,5.752Z" fill="#7e8a9c"/>
    <path id="Прямоугольник_скругл._углы_5" data-name="Прямоугольник, скругл. углы 5" d="M153.149,62H160.5a3.5,3.5,0,0,1,0,7h-84a3.5,3.5,0,1,1,0-7h7.364" fill="none" stroke="#7e8a9c" stroke-width="2"/>
    <circle id="Эллипс_1" data-name="Эллипс 1" cx="6" cy="6" r="6" transform="translate(164 85)" fill="#289548"/>
    <g id="Эллипс_1_копия" data-name="Эллипс 1 копия" transform="translate(144 85)" fill="none" stroke="#7e8a9c" stroke-width="2">
      <circle cx="6" cy="6" r="6" stroke="none"/>
      <circle cx="6" cy="6" r="5" fill="none"/>
    </g>
    <g id="Эллипс_1_копия_2" data-name="Эллипс 1 копия 2" transform="translate(124 85)" fill="none" stroke="#7e8a9c" stroke-width="2">
      <circle cx="6" cy="6" r="6" stroke="none"/>
      <circle cx="6" cy="6" r="5" fill="none"/>
    </g>
    <g id="Прямоугольник_скругл._углы_6" data-name="Прямоугольник, скругл. углы 6" transform="translate(63 85)" fill="none" stroke="#7e8a9c" stroke-width="2">
      <rect width="53" height="12" rx="4" stroke="none"/>
      <rect x="1" y="1" width="51" height="10" rx="3" fill="none"/>
    </g>
    <path id="Прямоугольник_1_копия_5" data-name="Прямоугольник 1 копия 5" d="M180,152V140h-7v-2h7V127h2v11h16v2H182v12ZM60,152V140H44v-2H60V127h2v11h7v2H62v12Zm160-32V100H210V98h10V95h2v3h5v2h-5v20ZM20,120V100H15V98h5V95h2v3H32v2H22v20ZM220,72V60H210V58h10V20H182V32h-2V20h-3V18h3V7h2V18h38V7h2V18h10v2H222V58h20v2H222V72ZM20,72V60H0V58H20V20H10V18H20V7h2V18H60V7h2V18h3v2H62V32H60V20H22V58H32v2H22V72Z" fill="#3c4249"/>
    <path id="Прямоугольник_скругл._углы_4" data-name="Прямоугольник, скругл. углы 4" d="M83,67V24a4,4,0,0,1,4-4h32c3.348,0,5-1.729,5-4m14.046,4H143l11,11V69" fill="none" stroke="#7e8a9c" stroke-width="2"/>
    <g id="_копия" data-name="? копия" fill="none">
      <path d="M117.271,55.991a6.75,6.75,0,1,0,0-13.5,6.75,6.75,0,1,0,0,13.5Z" stroke="none"/>
      <path d="M 117.2707977294922 55.99140167236328 C 120.8832931518555 55.99140167236328 124.0738983154297 52.96280288696289 124.126594543457 49.20320129394531 C 124.0738983154297 45.49590301513672 120.8832931518555 42.49340057373047 117.2707977294922 42.49340057373047 C 113.4736938476562 42.49340057373047 110.3622970581055 45.49590301513672 110.4149932861328 49.20320129394531 C 110.3622970581055 52.96280288696289 113.4736938476562 55.99140167236328 117.2707977294922 55.99140167236328 M 117.2707977294922 57.99140167236328 C 114.8508987426758 57.99140167236328 112.5900421142578 57.05015182495117 110.9046936035156 55.34099960327148 C 109.2735443115234 53.68684387207031 108.3899917602539 51.50833511352539 108.4148406982422 49.20363235473633 C 108.3899612426758 46.93606185913086 109.2642211914062 44.78722763061523 110.8783950805664 43.14995193481445 C 112.5428466796875 41.46170043945312 114.8727951049805 40.49340057373047 117.2707977294922 40.49340057373047 C 119.5531463623047 40.49340057373047 121.7382965087891 41.39075088500977 123.4237442016602 43.02014923095703 C 125.1336441040039 44.67320251464844 126.0934982299805 46.85895156860352 126.1263961791992 49.17475128173828 L 126.1267929077148 49.2030029296875 L 126.1263961791992 49.23125076293945 C 126.0936431884766 51.56730270385742 125.1365432739258 53.77145004272461 123.431396484375 55.43760299682617 C 121.7460479736328 57.08444976806641 119.5581436157227 57.99140167236328 117.2707977294922 57.99140167236328 Z" stroke="none" fill="#7e8a9c"/>
    </g>
    <path id="_копия_2" data-name="? копия 2" d="M117.93,23.539q-.367.233-.714.468c-3.736,2.536-5.748,5.453-5.773,13.787v1.07h11.233v-1.07c0-4.621,1.925-6.84,5.907-9.19,5.063-2.95,8.411-6.736,8.411-12.976,0-9.477-7.884-14.595-18.748-14.595-9.914,0-18.089,4.882-18.247,15.848h12.13a5.816,5.816,0,0,1,6.012-5.822c3.111,0,5.859,1.834,5.859,4.941" fill="none" stroke="#7e8a9c" stroke-linecap="round" stroke-width="2"/>
    <path id="Фигура_999" data-name="Фигура 999" d="M142,19.925V30c0,1.244.3,2,2,2h9" fill="none" stroke="#7e8a9c" stroke-width="2"/>
  </g>
</svg>
