<svg version="1.1" id="Слой_1" xmlns="http://www.w3.org/2000/svg" xmlns:xlink="http://www.w3.org/1999/xlink" x="0" y="0" viewBox="0 0 242 156" xml:space="preserve"><style>.st1,.st2{fill:none;stroke:#212225;stroke-width:2}.st2{stroke:#dbdde5}.st4{fill:#212225}.st6,.st8{fill:none}.st8{stroke:#212225;stroke-width:2;stroke-linecap:round;stroke-linejoin:round}</style><defs><path id="SVGID_1_" d="M0 0h242v156H0z"/></defs><clipPath id="SVGID_2_"><use xlink:href="#SVGID_1_" overflow="visible"/></clipPath><g id="Canvas" clip-path="url(#SVGID_2_)"><g id="images" transform="translate(0 2)"><g id="Группа_1"><path id="Прямоугольник_скругл._углы_7" class="st1" d="M93 114v16c0 1.7-1.3 3-3 3h-5c-1.7 0-3-1.3-3-3v-16"/><path id="Прямоугольник_скругл._углы_7_копия" class="st1" d="M104 114v10c0 1.7-1.3 3-3 3h-5c-1.7 0-3-1.3-3-3v-10"/><path id="Прямоугольник_скругл._углы_7_копия_2" class="st1" d="M115 114v5c0 1.7-1.3 3-3 3h-5c-1.7 0-3-1.3-3-3v-5"/><path id="Прямоугольник_скругл._углы_7_копия_3" class="st1" d="M126 114v10c0 1.7-1.3 3-3 3h-5c-1.7 0-3-1.3-3-3v-10"/><path id="Прямоугольник_скругл._углы_7_копия_4" class="st1" d="M137 114v15c0 1.7-1.3 3-3 3h-5c-1.7 0-3-1.3-3-3v-15"/><path id="Прямоугольник_скругл._углы_7_копия_6" class="st1" d="M148 114v10c0 1.7-1.3 3-3 3h-5c-1.7 0-3-1.3-3-3v-10"/><path id="Прямоугольник_скругл._углы_7_копия_7" class="st1" d="M159 114v5c0 1.7-1.3 3-3 3h-5c-1.7 0-3-1.3-3-3v-5"/></g><path id="Прямоугольник_скругл._углы_3" class="st2" d="M153.2 55H176c5.5 0 10 4.5 10 10v39c0 2.8-2.2 5-5 5H56c-2.8 0-5-2.2-5-5V65c0-5.5 4.5-10 10-10h23"/><path id="Фигура_1" d="M51.7 73h133.9" fill="none" stroke="#dbdde5" stroke-width="2" stroke-linecap="round"/><path id="Фигура_2_копия" class="st4" d="M153.2 62.7h8.3c1.6 0 2.7 5.7-.7 5.7s-7.7.3-7.7.3l.1-6zm-77.6-.3c1.7 0 8.4.6 8.4.6v5c-2.6.3-5.3.5-7.9.5-3.7 0-2.2-6.1-.5-6.1z"/><path id="Прямоугольник_скругл._углы_5" class="st1" d="M153.1 62h7.4c1.9 0 3.5 1.6 3.5 3.5s-1.6 3.5-3.5 3.5h-84c-1.9 0-3.5-1.6-3.5-3.5s1.6-3.5 3.5-3.5h7.4"/><g id="Эллипс_1" transform="translate(164 85)"><circle cx="6" cy="6" r="6" fill="#c9292c"/><circle class="st1" cx="6" cy="6" r="5"/></g><g id="Эллипс_1_копия" transform="translate(144 85)"><circle class="st6" cx="6" cy="6" r="6"/><circle class="st2" cx="6" cy="6" r="5"/></g><g id="Эллипс_1_копия_2" transform="translate(124 85)"><circle class="st6" cx="6" cy="6" r="6"/><circle class="st2" cx="6" cy="6" r="5"/></g><g id="Прямоугольник_скругл._углы_6"><path class="st6" d="M4 0h45c2.2 0 4 1.8 4 4v4c0 2.2-1.8 4-4 4H4c-2.2 0-4-1.8-4-4V4c0-2.2 1.8-4 4-4z" transform="translate(63 85)"/><path class="st2" d="M4 1h45c1.7 0 3 1.3 3 3v4c0 1.7-1.3 3-3 3H4c-1.7 0-3-1.3-3-3V4c0-1.7 1.3-3 3-3z" transform="translate(63 85)"/></g><path id="Прямоугольник_1_копия_5" d="M180 152v-12h-7v-2h7v-11h2v11h16v2h-16v12h-2zm-120 0v-12H44v-2h16v-11h2v11h7v2h-7v12h-2zm160-32v-20h-10v-2h10v-3h2v3h5v2h-5v20h-2zm-200 0v-20h-5v-2h5v-3h2v3h10v2H22v20h-2zm200-48V60h-10v-2h10V20h-38v12h-2V20h-3v-2h3V7h2v11h38V7h2v11h10v2h-10v38h20v2h-20v12h-2zM20 72V60H0v-2h20V20H10v-2h10V7h2v11h38V7h2v11h3v2h-3v12h-2V20H22v38h10v2H22v12h-2z" fill="#dbdde5"/><path id="Прямоугольник_скругл._углы_4" class="st8" d="M83 67V24c0-2.2 1.8-4 4-4h33.3c2.1-.2 3.7-1.9 3.7-4m15.6 4h3.4l11 11v37.6"/><g id="_копия"><path class="st6" d="M117.3 56c3.7 0 6.8-3 6.8-6.8s-3-6.8-6.8-6.8-6.8 3-6.8 6.8 3 6.8 6.8 6.8z"/><path class="st4" d="M117.3 56c3.6 0 6.8-3 6.9-6.8-.1-3.7-3.2-6.7-6.9-6.7-3.8 0-6.9 3-6.9 6.7 0 3.8 3.1 6.8 6.9 6.8m0 2c-2.4 0-4.7-.9-6.4-2.7-1.6-1.7-2.5-3.8-2.5-6.1s.8-4.4 2.5-6.1c1.7-1.7 4-2.7 6.4-2.7 2.3 0 4.5.9 6.2 2.5 1.7 1.7 2.7 3.8 2.7 6.2 0 2.3-1 4.5-2.7 6.2-1.8 1.8-3.9 2.7-6.2 2.7z"/></g><path id="_копия_2" class="st8" d="M117.9 23.5c-.2.2-.5.3-.7.5-3.7 2.5-5.7 5.5-5.8 13.8v1.1h11.2v-1.1c0-4.6 1.9-6.8 5.9-9.2 5.1-3 8.4-6.7 8.4-13C137 6.2 129.1 1 118.2 1c-9.9 0-18.1 4.9-18.2 15.8h12.1c0-3.2 2.6-5.8 5.8-5.8h.2c3.1 0 5.9 1.8 5.9 4.9"/><path id="Фигура_999" class="st1" d="M142 21v9c0 1.2.3 2 2 2h9"/></g></g></svg>