<svg xmlns="http://www.w3.org/2000/svg" xmlns:xlink="http://www.w3.org/1999/xlink" viewBox="0 0 242 156"><defs><path id="a" d="M0 0h242v156H0z"/></defs><clipPath id="b"><use xlink:href="#a" overflow="visible"/></clipPath><g clip-path="url(#b)"><path d="M93 116v16c0 1.7-1.3 3-3 3h-5c-1.7 0-3-1.3-3-3v-16m22 0v10c0 1.7-1.3 3-3 3h-5c-1.7 0-3-1.3-3-3v-10m22 0v5c0 1.7-1.3 3-3 3h-5c-1.7 0-3-1.3-3-3v-5m22 0v10c0 1.7-1.3 3-3 3h-5c-1.7 0-3-1.3-3-3v-10m22 0v15c0 1.7-1.3 3-3 3h-5c-1.7 0-3-1.3-3-3v-15m22 0v10c0 1.7-1.3 3-3 3h-5c-1.7 0-3-1.3-3-3v-10m22 0v5c0 1.7-1.3 3-3 3h-5c-1.7 0-3-1.3-3-3v-5" fill="none" stroke="#212225" stroke-width="2"/><path d="M153.2 57H176c5.5 0 10 4.5 10 10v39c0 2.8-2.2 5-5 5H56c-2.8 0-5-2.2-5-5V67c0-5.5 4.5-10 10-10h23" fill="none" stroke="#dbdde5" stroke-width="2"/><path d="M51.7 75h133.9" fill="none" stroke="#dbdde5" stroke-width="2" stroke-linecap="round"/><path d="M153.2 64.7h8.3c1.6 0 2.7 5.7-.7 5.7s-7.7.3-7.7.3l.1-6zm-77.6-.3c1.7 0 8.4.6 8.4.6v5c-2.6.3-5.3.5-7.9.5-3.7 0-2.2-6.1-.5-6.1z" fill="#212225"/><path d="M153.1 64h7.4c1.9 0 3.5 1.6 3.5 3.5s-1.6 3.5-3.5 3.5h-84c-1.9 0-3.5-1.6-3.5-3.5s1.6-3.5 3.5-3.5h7.4" fill="none" stroke="#212225" stroke-width="2"/><g transform="translate(164 87)"><circle cx="6" cy="6" r="6" fill="#c9292c"/><circle cx="6" cy="6" r="5" fill="none" stroke="#212225" stroke-width="2"/></g><g transform="translate(144 87)" fill="none"><circle cx="6" cy="6" r="6"/><circle cx="6" cy="6" r="5" stroke="#dbdde5" stroke-width="2"/></g><g transform="translate(124 87)" fill="none"><circle cx="6" cy="6" r="6"/><circle cx="6" cy="6" r="5" stroke="#dbdde5" stroke-width="2"/></g><g fill="none"><path d="M67 87h45c2.2 0 4 1.8 4 4v4c0 2.2-1.8 4-4 4H67c-2.2 0-4-1.8-4-4v-4c0-2.2 1.8-4 4-4z"/><path d="M67 88h45c1.7 0 3 1.3 3 3v4c0 1.7-1.3 3-3 3H67c-1.7 0-3-1.3-3-3v-4c0-1.7 1.3-3 3-3z" stroke="#dbdde5" stroke-width="2"/></g><path d="M180 154v-12h-7v-2h7v-11h2v11h16v2h-16v12h-2zm-120 0v-12H44v-2h16v-11h2v11h7v2h-7v12h-2zm160-32v-20h-10v-2h10v-3h2v3h5v2h-5v20h-2zm-200 0v-20h-5v-2h5v-3h2v3h10v2H22v20h-2zm200-48V62h-10v-2h10V22h-38v12h-2V22h-3v-2h3V9h2v11h38V9h2v11h10v2h-10v38h20v2h-20v12h-2zM20 74V62H0v-2h20V22H10v-2h10V9h2v11h38V9h2v11h3v2h-3v12h-2V22H22v38h10v2H22v12h-2z" fill="#dbdde5"/><path d="M83 69V26c0-2.2 1.8-4 4-4h33.3c2.1-.2 3.7-1.9 3.7-4m15.6 4h3.4l11 11v37.6" fill="none" stroke="#212225" stroke-width="2" stroke-linecap="round" stroke-linejoin="round"/><path d="M117.3 58c3.7 0 6.8-3 6.8-6.8s-3-6.8-6.8-6.8-6.8 3-6.8 6.8 3 6.8 6.8 6.8z" fill="none"/><path d="M117.3 58c3.6 0 6.8-3 6.9-6.8-.1-3.7-3.2-6.7-6.9-6.7-3.8 0-6.9 3-6.9 6.7 0 3.8 3.1 6.8 6.9 6.8m0 2c-2.4 0-4.7-.9-6.4-2.7-1.6-1.7-2.5-3.8-2.5-6.1s.8-4.4 2.5-6.1c1.7-1.7 4-2.7 6.4-2.7 2.3 0 4.5.9 6.2 2.5 1.7 1.7 2.7 3.8 2.7 6.2 0 2.3-1 4.5-2.7 6.2-1.8 1.8-3.9 2.7-6.2 2.7z" fill="#212225"/><path d="M117.9 25.5c-.2.2-.5.3-.7.5-3.7 2.5-5.7 5.5-5.8 13.8v1.1h11.2v-1.1c0-4.6 1.9-6.8 5.9-9.2 5.1-3 8.4-6.7 8.4-13C137 8.2 129.1 3 118.2 3c-9.9 0-18.1 4.9-18.2 15.8h12.1c0-3.2 2.6-5.8 5.8-5.8h.2c3.1 0 5.9 1.8 5.9 4.9" fill="none" stroke="#212225" stroke-width="2" stroke-linecap="round" stroke-linejoin="round"/><path d="M142 23v9c0 1.2.3 2 2 2h9" fill="none" stroke="#212225" stroke-width="2"/></g></svg>