<svg viewBox="0 0 242 156" xmlns="http://www.w3.org/2000/svg" xmlns:xlink="http://www.w3.org/1999/xlink"><clipPath id="a"><path d="m0 0h242v156h-242z"/></clipPath><g clip-path="url(#a)"><g transform="translate(0 2)"><g fill="none"><path d="m93 114v16c0 1.7-1.3 3-3 3h-5c-1.7 0-3-1.3-3-3v-16" stroke="#212225" stroke-width="2"/><path d="m104 114v10c0 1.7-1.3 3-3 3h-5c-1.7 0-3-1.3-3-3v-10" stroke="#212225" stroke-width="2"/><path d="m115 114v5c0 1.7-1.3 3-3 3h-5c-1.7 0-3-1.3-3-3v-5" stroke="#212225" stroke-width="2"/><path d="m126 114v10c0 1.7-1.3 3-3 3h-5c-1.7 0-3-1.3-3-3v-10" stroke="#212225" stroke-width="2"/><path d="m137 114v15c0 1.7-1.3 3-3 3h-5c-1.7 0-3-1.3-3-3v-15" stroke="#212225" stroke-width="2"/><path d="m148 114v10c0 1.7-1.3 3-3 3h-5c-1.7 0-3-1.3-3-3v-10" stroke="#212225" stroke-width="2"/><path d="m159 114v5c0 1.7-1.3 3-3 3h-5c-1.7 0-3-1.3-3-3v-5" stroke="#212225" stroke-width="2"/><path d="m153.2 55h22.8c5.5 0 10 4.5 10 10v39c0 2.8-2.2 5-5 5h-125c-2.8 0-5-2.2-5-5v-39c0-5.5 4.5-10 10-10h23" stroke="#dbdde5" stroke-width="2"/><path d="m51.7 73h133.9" stroke="#dbdde5" stroke-linecap="round" stroke-width="2"/></g><path d="m153.2 62.7h8.3c1.6 0 2.7 5.7-.7 5.7s-7.7.3-7.7.3zm-77.6-.3c1.7 0 8.4.6 8.4.6v5c-2.6.3-5.3.5-7.9.5-3.7 0-2.2-6.1-.5-6.1z" fill="#212225"/><path d="m153.1 62h7.4c1.9 0 3.5 1.6 3.5 3.5s-1.6 3.5-3.5 3.5h-84c-1.9 0-3.5-1.6-3.5-3.5s1.6-3.5 3.5-3.5h7.4" fill="none" stroke="#212225" stroke-width="2"/><g transform="translate(164 85)"><circle cx="6" cy="6" fill="#c9292c" r="6"/><circle cx="6" cy="6" fill="none" r="5" stroke="#212225" stroke-width="2"/></g><g fill="none" transform="translate(144 85)"><circle cx="6" cy="6" r="6"/><circle cx="6" cy="6" r="5" stroke="#dbdde5" stroke-width="2"/></g><g fill="none" transform="translate(124 85)"><circle cx="6" cy="6" r="6"/><circle cx="6" cy="6" r="5" stroke="#dbdde5" stroke-width="2"/></g><path d="m4 0h45c2.2 0 4 1.8 4 4v4c0 2.2-1.8 4-4 4h-45c-2.2 0-4-1.8-4-4v-4c0-2.2 1.8-4 4-4z" fill="none" transform="translate(63 85)"/><path d="m4 1h45c1.7 0 3 1.3 3 3v4c0 1.7-1.3 3-3 3h-45c-1.7 0-3-1.3-3-3v-4c0-1.7 1.3-3 3-3z" fill="none" stroke="#dbdde5" stroke-width="2" transform="translate(63 85)"/><path d="m180 152v-12h-7v-2h7v-11h2v11h16v2h-16v12zm-120 0v-12h-16v-2h16v-11h2v11h7v2h-7v12zm160-32v-20h-10v-2h10v-3h2v3h5v2h-5v20zm-200 0v-20h-5v-2h5v-3h2v3h10v2h-10v20zm200-48v-12h-10v-2h10v-38h-38v12h-2v-12h-3v-2h3v-11h2v11h38v-11h2v11h10v2h-10v38h20v2h-20v12zm-200 0v-12h-20v-2h20v-38h-10v-2h10v-11h2v11h38v-11h2v11h3v2h-3v12h-2v-12h-38v38h10v2h-10v12z" fill="#dbdde5"/><path d="m83 67v-43c0-2.2 1.8-4 4-4h33.3c2.1-.2 3.7-1.9 3.7-4m15.6 4h3.4l11 11v37.6" fill="none" stroke="#212225" stroke-linecap="round" stroke-linejoin="round" stroke-width="2"/><path d="m117.3 56c3.7 0 6.8-3 6.8-6.8s-3-6.8-6.8-6.8-6.8 3-6.8 6.8 3 6.8 6.8 6.8z" fill="none"/><path d="m117.3 56c3.6 0 6.8-3 6.9-6.8-.1-3.7-3.2-6.7-6.9-6.7-3.8 0-6.9 3-6.9 6.7 0 3.8 3.1 6.8 6.9 6.8m0 2c-2.4 0-4.7-.9-6.4-2.7-1.6-1.7-2.5-3.8-2.5-6.1s.8-4.4 2.5-6.1 4-2.7 6.4-2.7c2.3 0 4.5.9 6.2 2.5 1.7 1.7 2.7 3.8 2.7 6.2 0 2.3-1 4.5-2.7 6.2-1.8 1.8-3.9 2.7-6.2 2.7z" fill="#212225"/><path d="m117.9 23.5c-.2.2-.5.3-.7.5-3.7 2.5-5.7 5.5-5.8 13.8v1.1h11.2v-1.1c0-4.6 1.9-6.8 5.9-9.2 5.1-3 8.4-6.7 8.4-13 .1-9.4-7.8-14.6-18.7-14.6-9.9 0-18.1 4.9-18.2 15.8h12.1c0-3.2 2.6-5.8 5.8-5.8h.2c3.1 0 5.9 1.8 5.9 4.9" fill="none" stroke="#212225" stroke-linecap="round" stroke-linejoin="round" stroke-width="2"/><path d="m142 21v9c0 1.2.3 2 2 2h9" fill="none" stroke="#212225" stroke-width="2"/></g></g></svg>
