<svg xmlns="http://www.w3.org/2000/svg" width="279" height="111" viewBox="0 0 279 111">
  <g id="images" transform="translate(-578 -684)">
    <path id="Прямоугольник_538_копия_4" d="M814,795V781H776v14h-2V781H763v-2h11V768h2v11h38V741H778v-2h36V701H776v10h-2V701H753v-2h21V684h2v15h38V684h2v15h41v2H816v38h21v2H816v38h11v2H816v14Zm-158,0V781H618v14h-2V781h-8v-2h8V742H598v-2h18V701H578v-2h38V684h2v15h38V684h2v15h30v2H658v10h-2V701H618v39h35v2H618v37h38V768h2v11h10v2H658v14Zm185-10v-4h-4v-2h4v-4h2v4h4v2h-4v4ZM656,762v-4h-4v-2h4v-4h2v4h4v2h-4v4Zm-74-16v-4h-4v-2h4v-4h2v4h4v2h-4v4Zm192-15v-4h-4v-2h4v-4h2v4h4v2h-4v4Z" fill="#dbdee5"/>
    <g id="Сгруппировать_739" transform="translate(476.833 512.976)">
      <path id="Прямоугольник_1_копия" d="M204,250.3s-4.1,1.7-6.7,3c-2.7,1.3-2.8,6.7,2.2,6.7h78.1c3.1,0,3.8-4.2.6-5.9s-4.3-2.2-5.9-3a12.939,12.939,0,0,0-6.7-1.5H210c-2,0-3-.7-3-3V222.1a29.7,29.7,0,0,1,29.7-29.7h1.5a16.2,16.2,0,0,1,2.2.1m27.4,29.6v20.8c0,3-5.2,3.3-5.2,0V224.4m-25-26.2a23.792,23.792,0,0,0-23.9,23.7v21" fill="none" stroke="#212225" stroke-linecap="round" stroke-width="2"/>
      <path id="Фигура_1" d="M231.5,192.4v-3c0-1.5.1-7.4,6.1-7.4s5.8,6.2,5.8,7.4" fill="none" stroke="#212225" stroke-linecap="round" stroke-width="2"/>
      <circle id="Эллипс_1" cx="17" cy="17" r="17" transform="translate(242 186.4)" fill="none" stroke="#dbdee5" stroke-width="2"/>
      <path id="Контур_665" d="M259,211.6a4.719,4.719,0,0,1-3-1,5.428,5.428,0,0,1-1.9-2.8,13.266,13.266,0,0,1-.7-4.5,13.082,13.082,0,0,1,.7-4.4,6.1,6.1,0,0,1,1.9-2.8,5,5,0,0,1,6,0,5.428,5.428,0,0,1,1.9,2.8,13.082,13.082,0,0,1,.7,4.4,14.083,14.083,0,0,1-.7,4.5,5.428,5.428,0,0,1-1.9,2.8A4.064,4.064,0,0,1,259,211.6Zm0-1.7a2.847,2.847,0,0,0,2.7-1.7,10.122,10.122,0,0,0,1-4.8,13.425,13.425,0,0,0-.4-3.5,4.963,4.963,0,0,0-1.3-2.2,2.792,2.792,0,0,0-2-.8,3.011,3.011,0,0,0-2.7,1.7,10.122,10.122,0,0,0-1,4.8,13.425,13.425,0,0,0,.4,3.5,4.962,4.962,0,0,0,1.3,2.2A2.709,2.709,0,0,0,259,209.9Z" fill="#289548"/>
      <path id="Эллипс_2" d="M249.3,260.6a10.4,10.4,0,0,1-20.8,0h0C234.3,260.8,249.3,260.6,249.3,260.6Z" fill="#eef3f5"/>
      <path id="Эллипс_2-2" d="M249.3,260.6a10.4,10.4,0,0,1-20.8,0h0" fill="none" stroke="#212225" stroke-linecap="round" stroke-width="2"/>
    </g>
  </g>
</svg>
