<?xml version="1.0" encoding="utf-8"?>
<!-- Generator: Adobe Illustrator 25.2.1, SVG Export Plug-In . SVG Version: 6.00 Build 0)  -->
<svg version="1.1" id="Слой_1" xmlns="http://www.w3.org/2000/svg" xmlns:xlink="http://www.w3.org/1999/xlink" x="0px" y="0px"
	 viewBox="0 0 279 111" style="enable-background:new 0 0 279 111;" xml:space="preserve">
<style type="text/css">
	.st0{fill:#DBDEE5;}
	.st1{fill:none;stroke:#212225;stroke-width:2;stroke-linecap:round;}
	.st2{fill:none;stroke:#DBDEE5;stroke-width:2;}
	.st3{fill:#DE5846;}
	.st4{fill:#EEF3F5;}
</style>
<g id="images" transform="translate(-578 -684)">
	<path id="Прямоугольник_538_копия_4" class="st0" d="M814,795v-14h-38v14h-2v-14h-11v-2h11v-11h2v11h38v-38h-36
		v-2h36v-38h-38v10h-2v-10h-21v-2h21v-15h2v15h38v-15h2v15h41v2h-41v38h21v2h-21v38h11v2h-11v14H814z M656,795v-14h-38v14h-2v-14h-8
		v-2h8v-37h-18v-2h18v-39h-38v-2h38v-15h2v15h38v-15h2v15h30v2h-30v10h-2v-10h-38v39h35v2h-35v37h38v-11h2v11h10v2h-10v14H656z
		 M841,785v-4h-4v-2h4v-4h2v4h4v2h-4v4H841z M656,762v-4h-4v-2h4v-4h2v4h4v2h-4v4H656z M582,746v-4h-4v-2h4v-4h2v4h4v2h-4v4H582z
		 M774,731v-4h-4v-2h4v-4h2v4h4v2h-4v4H774z"/>
	<g id="Сгруппировать_739" transform="translate(476.833 512.976)">
		<path id="Прямоугольник_1_копия" class="st1" d="M204,250.3c0,0-4.1,1.7-6.7,3c-2.7,1.3-2.8,6.7,2.2,6.7h78.1
			c3.1,0,3.8-4.2,0.6-5.9s-4.3-2.2-5.9-3c-2-1.1-4.4-1.6-6.7-1.5H210c-2,0-3-0.7-3-3v-24.5c0-16.4,13.3-29.7,29.7-29.7l0,0h1.5
			c0.7,0,1.5,0,2.2,0.1 M267.8,222.1v20.8c0,3-5.2,3.3-5.2,0v-18.5 M237.6,198.2c-13.1-0.1-23.8,10.5-23.9,23.7c0,0.1,0,0.2,0,0.2
			v20.8"/>
		<path id="Фигура_1" class="st1" d="M231.5,192.4v-3c0-1.5,0.1-7.4,6.1-7.4s5.8,6.2,5.8,7.4"/>
		<circle id="Эллипс_1" class="st2" cx="259" cy="203.4" r="17"/>
		<path id="Контур_665" class="st3" d="M259,211.6c-1.1,0-2.1-0.3-3-1c-0.9-0.7-1.6-1.7-1.9-2.8c-0.5-1.4-0.7-2.9-0.7-4.5
			c0-1.5,0.2-3,0.7-4.4c0.4-1.1,1-2.1,1.9-2.8c0.9-0.7,1.9-1,3-1c1.1,0,2.1,0.3,3,1c0.9,0.7,1.6,1.7,1.9,2.8
			c0.5,1.4,0.7,2.9,0.7,4.4c0,1.5-0.2,3-0.7,4.5c-0.3,1.1-1,2.1-1.9,2.8C261.2,211.3,260.1,211.7,259,211.6z M259,209.9
			c1.2,0,2.2-0.6,2.7-1.7c0.7-1.5,1.1-3.2,1-4.8c0-1.2-0.1-2.4-0.4-3.5c-0.2-0.8-0.7-1.6-1.3-2.2c-0.5-0.5-1.2-0.8-2-0.8
			c-1.2,0-2.2,0.7-2.7,1.7c-0.7,1.5-1.1,3.2-1,4.8c0,1.2,0.1,2.4,0.4,3.5c0.2,0.8,0.7,1.6,1.3,2.2
			C257.6,209.7,258.3,209.9,259,209.9z"/>
		<path id="Эллипс_2" class="st4" d="M249.3,260.6c0,5.7-4.6,10.4-10.4,10.4c-5.7,0-10.4-4.6-10.4-10.4l0,0
			C234.3,260.8,249.3,260.6,249.3,260.6z"/>
		<path id="Эллипс_2-2" class="st1" d="M249.3,260.6c0,5.7-4.6,10.4-10.4,10.4c-5.7,0-10.4-4.6-10.4-10.4l0,0"/>
	</g>
</g>
</svg>
