<svg version="1.1" id="Слой_1" xmlns="http://www.w3.org/2000/svg" xmlns:xlink="http://www.w3.org/1999/xlink" x="0" y="0" viewBox="0 0 200 200" xml:space="preserve"><style type="text/css">.st5,.st6{fill:none;stroke:#212225;stroke-width:2;stroke-linecap:round}.st6{stroke-linejoin:round}</style><defs><path id="SVGID_1_" d="M0 0h200v200H0z"/></defs><clipPath id="SVGID_2_"><use xlink:href="#SVGID_1_" overflow="visible"/></clipPath><g id="EX" clip-path="url(#SVGID_2_)"><path d="M0 0h200v200H0z"/><path id="Прямоугольник_1" fill="#eef3f5" d="M0 0h200v200H0z"/><g id="Сгруппировать_1" transform="translate(4 3.923)"><g id="Группа_1"><circle id="Эллипс_1" cx="117" cy="96" r="30" fill="#212225"/><g id="Эллипс_1_копия_2" transform="translate(47 66)" fill="none"><circle cx="30" cy="30" r="30"/><circle cx="30" cy="30" r="29" stroke="#212225" stroke-width="2"/></g></g><path id="Эллипс_1_копия_3" class="st5" d="M82.7 66.8c16.1-18.9 44.5-21.2 63.4-5.1s21.2 44.5 5.1 63.4c-8.5 10-21.1 15.8-34.2 15.8"/><path id="Эллипс_1_копия_4" class="st5" d="M110.2 124c-15.5 19.5-43.8 22.7-63.2 7.2S24.3 87.4 39.8 68C48.3 57.3 61.3 51 75 51"/><g id="Arrows-Diagrams_Diagrams_diagram-arrow-dash-right" transform="rotate(180 186.393 488.375)"><g id="Group_143" transform="translate(249.5 823.75)"><g id="Regular_143"><path id="Shape_401" class="st6" d="M6 6.4h1.7v-5c0-.4.3-.5.6-.3l9.8 7.1c.5.4.6 1.2.1 1.7 0 .1-.1.1-.1.1l-9.8 6.6c-.3.4-.6.3-.6-.1v-4.4H6"/></g></g></g><g id="Arrows-Diagrams_Diagrams_diagram-arrow-dash-right-2" transform="translate(74.787 40.153)"><g id="Group_143-2"><g id="Regular_143-2"><path id="Shape_401-2" class="st6" d="M0 10.8h1.7v5.1c0 .5.3.6.6.3l10.1-7.4c.5-.5.6-1.2.1-1.8l-.1-.1L2.3.2C2-.1 1.7 0 1.7.4V5H0"/></g></g></g></g></g></svg>