<?xml version="1.0" encoding="utf-8"?>
<!-- Generator: Adobe Illustrator 25.2.3, SVG Export Plug-In . SVG Version: 6.00 Build 0)  -->
<svg version="1.1" id="Слой_1" xmlns="http://www.w3.org/2000/svg" xmlns:xlink="http://www.w3.org/1999/xlink" x="0px" y="0px"
	 viewBox="0 0 200 200" style="enable-background:new 0 0 200 200;" xml:space="preserve">
<style type="text/css">
	.st0{clip-path:url(#SVGID_2_);}
	.st1{fill:#EEF3F5;}
	.st2{fill:#212225;}
	.st3{fill:none;}
	.st4{fill:none;stroke:#212225;stroke-width:2;}
	.st5{fill:none;stroke:#212225;stroke-width:2;stroke-linecap:round;}
	.st6{fill:none;stroke:#212225;stroke-width:2;stroke-linecap:round;stroke-linejoin:round;}
</style>
<g>
	<defs>
		<rect id="SVGID_1_" width="200" height="200"/>
	</defs>
	<clipPath id="SVGID_2_">
		<use xlink:href="#SVGID_1_"  style="overflow:visible;"/>
	</clipPath>
	<g id="EX" class="st0">
		<rect width="200" height="200"/>
		<rect id="Прямоугольник_1" class="st1" width="200" height="200"/>
		<g id="Сгруппировать_1" transform="translate(4 3.923)">
			<g id="Группа_1">
				<circle id="Эллипс_1" class="st2" cx="117" cy="96" r="30"/>
				<g id="Эллипс_1_копия_2" transform="translate(47 66)">
					<circle class="st3" cx="30" cy="30" r="30"/>
					<circle class="st4" cx="30" cy="30" r="29"/>
				</g>
			</g>
			<path id="Эллипс_1_копия_3" class="st5" d="M82.7,66.8c16.1-18.9,44.5-21.2,63.4-5.1s21.2,44.5,5.1,63.4
				c-8.5,10-21.1,15.8-34.2,15.8"/>
			<path id="Эллипс_1_копия_4" class="st5" d="M110.2,124c-15.5,19.5-43.8,22.7-63.2,7.2s-22.7-43.8-7.2-63.2
				c8.5-10.7,21.5-17,35.2-17"/>
			<g id="Arrows-Diagrams_Diagrams_diagram-arrow-dash-right" transform="translate(372.787 976.75) rotate(180)">
				<g id="Group_143" transform="translate(249.5 823.75)">
					<g id="Regular_143">
						<path id="Shape_401" class="st6" d="M6,6.4h1.7v-5c0-0.4,0.3-0.5,0.6-0.3l9.8,7.1c0.5,0.4,0.6,1.2,0.1,1.7
							c0,0.1-0.1,0.1-0.1,0.1l-9.8,6.6C8,17,7.7,16.9,7.7,16.5v-4.4H6"/>
					</g>
				</g>
			</g>
			<g id="Arrows-Diagrams_Diagrams_diagram-arrow-dash-right-2" transform="translate(74.787 40.153)">
				<g id="Group_143-2" transform="translate(0 0)">
					<g id="Regular_143-2">
						<path id="Shape_401-2" class="st6" d="M0,10.8h1.7v5.1c0,0.5,0.3,0.6,0.6,0.3l10.1-7.4c0.5-0.5,0.6-1.2,0.1-1.8
							c0,0-0.1-0.1-0.1-0.1L2.3,0.2C2-0.1,1.7,0,1.7,0.4V5H0"/>
					</g>
				</g>
			</g>
		</g>
	</g>
</g>
</svg>
