<svg xmlns="http://www.w3.org/2000/svg" width="302.219" height="161.693" viewBox="0 0 302.219 161.693">
  <g id="Warning_1" transform="translate(-511.781 -201.695)">
    <path id="Прямоугольник_скругл._углы_2_копия" data-name="Прямоугольник, скругл. углы 2 копия" d="M634,257l52.451-51.376a10,10,0,0,1,14.142,0l60.148,60.148a10,10,0,0,1,0,14.142l-60.148,60.149a10,10,0,0,1-14.142,0L651,305c-3.905-3.9,1.095-8.9,5-5l30.319,29.35a10,10,0,0,0,14.142,0l49.569-49.569a10,10,0,0,0,0-14.142L700.461,216.07a10,10,0,0,0-14.142,0L635.75,265.639Z" fill="none" stroke="#df5e4c" stroke-width="2"/>
    <path id="Прямоугольник_скругл._углы_1" data-name="Прямоугольник, скругл. углы 1" d="M584.055,326H580a6,6,0,0,0-6,6v5a6,6,0,0,0,6,6h78a6,6,0,0,0,6-6v-5a6,6,0,0,0-6-6H594.026c-4.95,0-5.656-2.919-4.626-7.229S604.7,261.815,607,252c3.659-15.584,23.048-14.65,26,1s16,67,16,67" fill="none" stroke="#7e8a9c" stroke-linecap="round" stroke-width="2"/>
    <path id="Фигура_1" data-name="Фигура 1" d="M638,309H600a2.18,2.18,0,0,1-2-3c.559-1.861,1.784-6.09,2-7a2.909,2.909,0,0,1,3-2h33c1.318,0,1.856,1.547,2,2,.255.8,1.664,5.386,2,7S639.786,309,638,309Z" fill="none" stroke="#3c4249" stroke-width="2"/>
    <path id="Фигура_1_копия" data-name="Фигура 1 копия" d="M631,281H608a2.18,2.18,0,0,1-2-3c.559-1.861,1.784-6.09,2-7a2.909,2.909,0,0,1,3-2h18c1.318,0,1.856,1.547,2,2a67.373,67.373,0,0,1,2,7C633.189,279.591,632.786,281,631,281Z" fill="none" stroke="#3c4249" stroke-width="2"/>
    <path id="Прямоугольник_1_копия_13" data-name="Прямоугольник 1 копия 13" d="M814,465V446H776v19h-2V446H746v-2h28V428h2v16h38V405h-4v-2h4V365h-4v-2h4V340h2v23h6v2h-6v38h26v2H816v39h26v2H816v19Zm-19-56v-4h-4v-2h4v-4h2v4h4v2h-4v4Zm19-79v-4h-4v-2h4v-4h2v4h4v2h-4v4Z" transform="translate(-28 -101.612)" fill="#3c4249"/>
    <path id="Прямоугольник_1_копия_13-2" data-name="Прямоугольник 1 копия 13" d="M94,145V126H56v19H54V126H37v-2H54V85h2v39H94V85H90V83h4V45H90V43h4V20h2V43h6v2H96V83h26v2H96v39h26v2H96v19ZM75,89V85H71V83h4V79h2v4h4v2H77v4ZM94,10V6H90V4h4V0h2V4h4V6H96v4Z" transform="translate(633.781 363.387) rotate(180)" fill="#3c4249"/>
    <path id="Контур_643" data-name="Контур 643" d="M627.883,343h48.266" fill="none" stroke="#7e8a9c" stroke-linecap="round" stroke-width="2"/>
    <path id="Контур_644" data-name="Контур 644" d="M627.883,343h48.266" transform="translate(-75)" fill="none" stroke="#7e8a9c" stroke-linecap="round" stroke-width="2"/>
    <g id="Прямоугольник_332" data-name="Прямоугольник 332" transform="translate(685 240.819)" fill="#5b1b1b" stroke="#df5e4c" stroke-width="2">
      <rect width="16" height="40" rx="8" stroke="none"/>
      <rect x="1" y="1" width="14" height="38" rx="7" fill="none"/>
    </g>
    <g id="Прямоугольник_333" data-name="Прямоугольник 333" transform="translate(685 284.819)" fill="#5b1b1b" stroke="#df5e4c" stroke-width="2">
      <rect width="16" height="16" rx="8" stroke="none"/>
      <rect x="1" y="1" width="14" height="14" rx="7" fill="none"/>
    </g>
  </g>
</svg>
