<svg xmlns="http://www.w3.org/2000/svg" width="302.219" height="161.693" viewBox="0 0 302.219 161.693"><defs><style>.cls-2,.cls-3,.cls-7{fill:none}.cls-5{stroke:#df5e4c}.cls-2,.cls-3,.cls-5{stroke-width:2px}.cls-2{stroke:#212225;stroke-linecap:round}.cls-3{stroke:#dde0e6}.cls-4{fill:#dbdee5}.cls-5{fill:#ffe7e2}.cls-6{stroke:none}</style></defs><g id="Warning_1" transform="translate(-511.781 -201.695)"><path id="Прямоугольник_скругл._углы_2_копия" data-name="Прямоугольник, скругл. углы 2 копия" d="M634 257l52.451-51.376a10 10 0 0114.142 0l60.148 60.148a10 10 0 010 14.142l-60.148 60.149a10 10 0 01-14.142 0L651 305c-3.905-3.9 1.095-8.9 5-5l30.319 29.35a10 10 0 0014.142 0l49.569-49.569a10 10 0 000-14.142l-49.569-49.569a10 10 0 00-14.142 0l-50.569 49.569z" stroke-width="2" stroke="#df5e4c" fill="none"/><path id="Прямоугольник_скругл._углы_1" data-name="Прямоугольник, скругл. углы 1" class="cls-2" d="M584.055 326H580a6 6 0 00-6 6v5a6 6 0 006 6h78a6 6 0 006-6v-5a6 6 0 00-6-6h-63.974c-4.95 0-5.656-2.919-4.626-7.229S604.7 261.815 607 252c3.659-15.584 23.048-14.65 26 1s16 67 16 67"/><path id="Фигура_1" data-name="Фигура 1" class="cls-3" d="M638 309h-38a2.18 2.18 0 01-2-3c.559-1.861 1.784-6.09 2-7a2.909 2.909 0 013-2h33c1.318 0 1.856 1.547 2 2 .255.8 1.664 5.386 2 7s-.214 3-2 3z"/><path id="Фигура_1_копия" data-name="Фигура 1 копия" class="cls-3" d="M631 281h-23a2.18 2.18 0 01-2-3c.559-1.861 1.784-6.09 2-7a2.909 2.909 0 013-2h18c1.318 0 1.856 1.547 2 2a67.373 67.373 0 012 7c.189 1.591-.214 3-2 3z"/><path id="Прямоугольник_1_копия_13" data-name="Прямоугольник 1 копия 13" class="cls-4" d="M814 465v-19h-38v19h-2v-19h-28v-2h28v-16h2v16h38v-39h-4v-2h4v-38h-4v-2h4v-23h2v23h6v2h-6v38h26v2h-26v39h26v2h-26v19zm-19-56v-4h-4v-2h4v-4h2v4h4v2h-4v4zm19-79v-4h-4v-2h4v-4h2v4h4v2h-4v4z" transform="translate(-28 -101.612)"/><path id="Прямоугольник_1_копия_13-2" data-name="Прямоугольник 1 копия 13" class="cls-4" d="M94 145v-19H56v19h-2v-19H37v-2h17V85h2v39h38V85h-4v-2h4V45h-4v-2h4V20h2v23h6v2h-6v38h26v2H96v39h26v2H96v19zM75 89v-4h-4v-2h4v-4h2v4h4v2h-4v4zm19-79V6h-4V4h4V0h2v4h4v2h-4v4z" transform="rotate(180 316.89 181.694)"/><path id="Контур_643" data-name="Контур 643" class="cls-2" d="M627.883 343h48.266"/><path id="Контур_644" data-name="Контур 644" class="cls-2" d="M627.883 343h48.266" transform="translate(-75)"/><g id="Прямоугольник_332" data-name="Прямоугольник 332" class="cls-5" transform="translate(685 240.819)"><rect class="cls-6" width="16" height="40" rx="8"/><rect class="cls-7" x="1" y="1" width="14" height="38" rx="7"/></g><g id="Прямоугольник_333" data-name="Прямоугольник 333" class="cls-5" transform="translate(685 284.819)"><rect class="cls-6" width="16" height="16" rx="8"/><rect class="cls-7" x="1" y="1" width="14" height="14" rx="7"/></g></g></svg>