<svg xmlns="http://www.w3.org/2000/svg" id="Слой_1" x="0" y="0" version="1.1" viewBox="0 0 385 135.2" xml:space="preserve"><style>.st0{fill:#dbdee5}.st2{fill:none;stroke-width:2;stroke-linecap:round}.st2,.st3{stroke:#dbdee5}.st3,.st4,.st5,.st6{fill:none;stroke-width:2}.st4{stroke:#212225}.st5,.st6{stroke-linecap:round}.st5{stroke:#e78375;stroke-dasharray:8,4}.st6{stroke:#212225}</style><g id="images" transform="translate(-256 -752.78)"><path id="Прямоугольник_1_копия_15" d="M534 888v-19h-3v-2h3v-4h2v4h38v-1h2v1h38v-38h-22v-2h22v-23h2v23h2v2h-2v38h16v2h-16v6h-2v-6h-38v10h-2v-10h-38v19h-2z" class="st0"/><path id="Прямоугольник_1_копия_17" d="M278 844v-23h-2v-2h2v-38h-16v-2h16v-6h2v6h38v-10h2v10h38v-19h2v19h3v2h-3v4h-2v-4h-38v23h-2v-23h-38v38h22v2h-22v23h-2z" class="st0"/><path id="Прямоугольник_1_копия" d="M377 785v-4h-4v-2h4v-4h2v4h4v2h-4v4h-2z" class="st0"/><path id="Прямоугольник_1_копия_2" d="M260 825v-4h-4v-2h4v-4h2v4h4v2h-4v4h-2z" class="st0"/><path id="Прямоугольник_1_копия_3" d="M614 794v-4h-4v-2h4v-4h2v4h4v2h-4v4h-2z" class="st0"/><path id="Прямоугольник_1_копия_4" d="M635 833v-4h-4v-2h4v-4h2v4h4v2h-4v4h-2z" class="st0"/><g id="Группа_88"><path id="Прямоугольник_скругл._углы_12" d="M607.5 754c4.1 0 7.5 3.4 7.5 7.5v82c0 4.1-3.4 7.5-7.5 7.5s-7.5-3.4-7.5-7.5v-82c0-4.1 3.4-7.5 7.5-7.5z" fill="none"/></g><g id="_1"><path id="Прямоугольник_скругл._углы_12_копия" d="M315 862v-44.3c.2-2.2 2.1-3.9 4.3-3.7 2 .1 3.6 1.7 3.7 3.7l.1 33.3" class="st2"/><path id="Прямоугольник_скругл._углы_13_копия_2" d="M307 840v-13.6c.1-1.4 1.3-2.4 2.7-2.3 1.2.1 2.2 1.1 2.3 2.3V840" class="st3"/><path id="Прямоугольник_скругл._углы_14_копия_2" d="M315 846c-1.6.1-2.9-1.1-3-2.7V839" class="st3"/><path id="Прямоугольник_скругл._углы_15_копия_2" d="M315 853c-4.4 0-8-3.6-8-8.1V836" class="st3"/><path id="Прямоугольник_скругл._углы_13_копия_2-2" d="M331 845v-7.6c0-1.4-1.2-2.5-2.5-2.4-1.3 0-2.4 1.1-2.4 2.4v7.6" class="st3"/><path id="Прямоугольник_скругл._углы_14_копия_2-2" d="M323 851c1.6.1 2.9-1.1 3-2.7V844" class="st3"/><path id="Прямоугольник_скругл._углы_15_копия_2-2" d="M323 857c4.4 0 8-3.6 8-8.1V840" class="st3"/><path id="Фигура_1268_копия" d="M305 863h27" class="st3"/><path id="Фигура_1267" d="M323 863v-6" class="st2"/></g><g id="_1_копия"><path id="Прямоугольник_скругл._углы_12_копия-2" d="M423 862v-44.3c.2-2.2 2.1-3.9 4.3-3.7 2 .1 3.6 1.7 3.7 3.7V851" class="st2"/><path id="Прямоугольник_скругл._углы_13_копия_2-3" d="M417 840v-8.5c.1-.8.8-1.4 1.6-1.4.7.1 1.3.6 1.4 1.4v8.5" class="st3"/><path id="Прямоугольник_скругл._углы_14_копия_2-3" d="M423 846c-1.6.1-2.9-1.1-3-2.7V839" class="st3"/><path id="Прямоугольник_скругл._углы_15_копия_2-3" d="M423 852.7c-3.6-.9-6-4.2-6-7.8V836" class="st3"/><path id="Прямоугольник_скругл._углы_13_копия_2-4" d="M437 845v-4.9c.1-.8-.6-1.5-1.4-1.6-.8-.1-1.5.6-1.6 1.4v5.1" class="st3"/><path id="Прямоугольник_скругл._углы_14_копия_2-4" d="M431 851c1.6.1 2.9-1.1 3-2.7V844" class="st3"/><path id="Прямоугольник_скругл._углы_15_копия_2-4" d="M429 857c4.4 0 8-3.6 8-8.1V840" class="st3"/><path id="Фигура_1268_копия-2" d="M413 863h27" class="st3"/><path id="Фигура_1267-2" d="M430 863v-5" class="st2"/></g><g id="Группа_83" transform="translate(-1)"><path id="Фигура_1" d="M442 863h137" class="st4"/><path id="Фигура_1_копия" d="M354 863h78" class="st3"/><path id="Фигура_1_копия_2" d="M326 863h18" class="st3"/><path id="Прямоугольник_скругл._углы_13" d="M392 863.5c0-5.2 4.3-9.5 9.5-9.5h4c5.2 0 9.5 4.3 9.5 9.5" class="st3"/><path id="Прямоугольник_скругл._углы_13_копия" d="M363 863c-.1-2.6 1.9-4.9 4.5-5h1.9c2.6.1 4.7 2.4 4.5 5" class="st3"/><path id="Прямоугольник_скругл._углы_13_копия_3" d="M411 856h5.7c3.5 0 6.3 3.1 6.3 7" class="st3"/><path id="Прямоугольник_скругл._углы_13_копия_4" d="M488.4 858.6c1.7-2.8 4.8-4.6 8.1-4.6h4c5.2 0 9.5 4.3 9.5 9.5" class="st4"/><path id="Прямоугольник_скругл._углы_13_копия_5" d="M480 864c-.1-3.3 2.5-5.9 5.8-6h2.4c3.3.1 5.8 2.6 5.8 5.9" class="st4"/></g><g id="Группа_84"><path id="Эллипс_3724" d="M332 859c0-14.9 12.1-27 27-27s27 10.1 27 25" class="st5"/><path id="Эллипс_3725" d="M385.9 853.3c.3-55.3 45.4-99.8 100.7-99.5 4.3 0 8.5.3 12.7.9 12.7 1.7 25 5.8 36.1 12.2" class="st5"/><path id="Эллипс_3725_копия" d="M386 853c0-3.6.3-7.3.8-10.9 6.3-46.2 49.1-78.5 95.6-72.3" class="st5"/><g id="Группа_86"><g id="Группа_85"><path id="Эллипс_3722" d="M497.1 835.7c-5.3-6.1-10.1-15.5-10.1-24.2 0-19.1 15.4-34.5 34.5-34.5 11.3 0 21.9 5.5 28.4 14.8" class="st6"/><path id="Эллипс_3723" d="M495.8 834.1c-11.6-8.1-14.8-17.4-14.8-28.6" class="st6"/><path id="Эллипс_3723_копия" d="M487.1 814.5c-2.3-8.9-1.1-18.4 3.2-26.5" class="st6"/><path id="Эллипс_3723_копия_2" d="M503.2 782c6.2-6.1 14.6-9.5 23.3-9.5" class="st6"/><path id="Эллипс_3723_копия_3" d="M537.2 788.2c-3.6-2.3-5.2-7.4-11.5-10.9" class="st6"/></g><g id="Группа_85_копия"><path id="Эллипс_3722-2" d="M559.2 808.4c3.8 18.7-8.3 37-27.1 40.8-18.7 3.8-37-8.3-40.8-27.1-.3-1.3-.5-2.7-.6-4" class="st6"/><path id="Эллипс_3723-2" d="M558.3 804.1c4 9.6 4.3 25.5-1.3 35.2" class="st6"/><path id="Эллипс_3723_копия-2" d="M556.3 830.6c-2.2 8.5-7.7 15.8-15.2 20.2" class="st6"/><path id="Эллипс_3723_копия_2-2" d="M526.3 850c-8.5 2.2-17.5 1-25-3.4" class="st6"/><path id="Эллипс_3723_копия_3-2" d="M497.4 825.1c1.3 2.5.5 4.9 1.2 8.8.3 1.6 2.8 5.2 3 6.6" class="st6"/></g><g id="Группа_85_копия_2"><path id="Эллипс_3722-3" d="M498.7 785.4c13-14 34.9-14.8 48.9-1.8s14.8 34.9 1.8 48.9c-.9 1-1.9 1.9-3 2.8" class="st6"/><path id="Эллипс_3723-3" d="M499 785.4c5.7-9.2 15.3-15.2 26.1-16.3" class="st6"/><path id="Эллипс_3723_копия-3" d="M523.1 773.6c8.2-3.2 17.3-3 25.3.6" class="st6"/><path id="Эллипс_3723_копия_2-3" d="M551.6 787.8c6.7 5.6 11 13.6 11.8 22.3" class="st6"/><path id="Эллипс_3723_копия_3-3" d="M551.3 821.8c1.9-3.8 5-.5 7.6-10.8" class="st6"/></g><g id="Группа_85_копия_3"><path id="Эллипс_3722-4" d="M542 830.4c-9.2 10-24.8 10.5-34.7 1.3S496.7 807 506 797c.7-.7 1.4-1.4 2.1-2" class="st6"/><path id="Эллипс_3723-4" d="M541.8 830.5c-4 6.5-10.9 10.8-18.5 11.5" class="st6"/><path id="Эллипс_3723_копия-4" d="M521.1 838.1c-5.7 2.1-8.3 2-13.7-.4" class="st6"/><path id="Эллипс_3723_копия_2-4" d="M504.4 828.7c-4.8-4-7.8-9.7-8.4-15.9" class="st6"/><path id="Эллипс_3723_копия_3-4" d="M506.8 801.8c-1.4 2.7-4.4 1.8-7 8.4" class="st6"/><path id="Эллипс_3722_копия" d="M540.6 791c3.5 3.4 5.7 8 6.2 12.8 1.2 11-6.7 21-17.8 22.2-6.5.6-12.9-2-17.1-7" class="st6"/><path id="Эллипс_3723_копия_4" d="M540.7 791.2c5.3 3.4 8.7 9 9.3 15.3" class="st6"/><path id="Эллипс_3723_копия_4-2" d="M546.9 804c1.8 5.1 1.6 10.6-.4 15.6" class="st6"/><path id="Эллипс_3723_копия_4-3" d="M539.3 822.1c-3.2 3.9-7.8 6.4-12.8 6.9" class="st6"/><path id="Эллипс_3723_копия_4-4" d="M517.5 820.1c2.2 1.1 2.8 4.1 11.1 5.8" class="st6"/></g></g></g></g></svg>