<svg version="1.1" id="Слой_1" xmlns="http://www.w3.org/2000/svg" x="0" y="0" viewBox="0 0 385 135.2" xml:space="preserve"><g id="images" transform="translate(0 1.013)"><path id="Прямоугольник_1_копия_15" fill="#DBDEE5" d="M278 134.2v-19h-3v-2h3v-4h2v4h38v-1h2v1h38v-38h-22v-2h22v-23h2v23h2v2h-2v38h16v2h-16v6h-2v-6h-38v10h-2v-10h-38v19h-2z"/><path id="Прямоугольник_1_копия_17" fill="#DBDEE5" d="M22 90.2v-23h-2v-2h2v-38H6v-2h16v-6h2v6h38v-10h2v10h38v-19h2v19h3v2h-3v4h-2v-4H64v23h-2v-23H24v38h22v2H24v23h-2z"/><path id="Прямоугольник_1_копия" fill="#DBDEE5" d="M121 31.2v-4h-4v-2h4v-4h2v4h4v2h-4v4h-2z"/><path id="Прямоугольник_1_копия_2" fill="#DBDEE5" d="M4 71.2v-4H0v-2h4v-4h2v4h4v2H6v4H4z"/><path id="Прямоугольник_1_копия_3" fill="#DBDEE5" d="M358 40.2v-4h-4v-2h4v-4h2v4h4v2h-4v4h-2z"/><path id="Прямоугольник_1_копия_4" fill="#DBDEE5" d="M379 79.2v-4h-4v-2h4v-4h2v4h4v2h-4v4h-2z"/><g id="Группа_88" transform="translate(344 .207)"><path id="Прямоугольник_скругл._углы_12" fill="none" d="M7.5 0C11.6 0 15 3.4 15 7.5v82c0 4.1-3.4 7.5-7.5 7.5S0 93.6 0 89.5v-82C0 3.4 3.4 0 7.5 0z"/></g><g id="_1" transform="translate(49 60.207)" fill="none" stroke="#DBDEE5" stroke-width="2"><path id="Прямоугольник_скругл._углы_12_копия" stroke-linecap="round" d="M10 48V3.7c.2-2.2 2.1-3.9 4.3-3.7 2 .1 3.6 1.7 3.7 3.7v34.6"/><path id="Прямоугольник_скругл._углы_13_копия_2" d="M2 26V12.4c.1-1.4 1.3-2.4 2.7-2.3 1.2.1 2.2 1.1 2.3 2.3V26"/><path id="Прямоугольник_скругл._углы_14_копия_2" d="M10 32c-1.6.1-2.9-1.1-3-2.7V25"/><path id="Прямоугольник_скругл._углы_15_копия_2" d="M10 39h0c-4.4 0-8-3.6-8-8.1V22"/><path id="Прямоугольник_скругл._углы_13_копия_2-2" d="M26 31v-7.6c0-1.4-1.2-2.5-2.5-2.4-1.3 0-2.4 1.1-2.4 2.4V31"/><path id="Прямоугольник_скругл._углы_14_копия_2-2" d="M18 37.1c1.6.1 2.9-1.1 3-2.7V30"/><path id="Прямоугольник_скругл._углы_15_копия_2-2" d="M18 43h0c4.4 0 8-3.6 8-8.1V26"/><path id="Фигура_1268_копия" d="M0 50h27"/><path id="Фигура_1267" d="M16 50v-5"/></g><g id="_1_копия" transform="translate(157 60.207)" fill="none" stroke="#DBDEE5" stroke-width="2"><path id="Прямоугольник_скругл._углы_12_копия-2" stroke-linecap="round" d="M10 48V3.7c.2-2.2 2.1-3.9 4.3-3.7 2 .1 3.6 1.7 3.7 3.7v34.6"/><path id="Прямоугольник_скругл._углы_13_копия_2-3" d="M2 26V12.4c.1-1.4 1.3-2.4 2.7-2.3 1.2.1 2.2 1.1 2.3 2.3V26"/><path id="Прямоугольник_скругл._углы_14_копия_2-3" d="M10 32c-1.6.1-2.9-1.1-3-2.7V25"/><path id="Прямоугольник_скругл._углы_15_копия_2-3" d="M10 39h0c-4.4 0-8-3.6-8-8.1V22"/><path id="Прямоугольник_скругл._углы_13_копия_2-4" d="M26 31v-7.6c0-1.4-1.2-2.5-2.5-2.4-1.3 0-2.4 1.1-2.4 2.4V31"/><path id="Прямоугольник_скругл._углы_14_копия_2-4" d="M18 37c1.6.1 2.9-1.1 3-2.7V30"/><path id="Прямоугольник_скругл._углы_15_копия_2-4" d="M18 43h0c4.4 0 8-3.6 8-8.1V26"/><path id="Фигура_1268_копия-2" d="M0 50h27"/><path id="Фигура_1267-2" d="M18 50v-5"/></g><g id="Группа_83" transform="translate(70 100.207)" fill="none" stroke-width="2"><path id="Фигура_1" stroke="#212225" d="M116 10h137"/><path id="Фигура_1_копия" stroke="#DBDEE5" d="M28 10h78"/><path id="Фигура_1_копия_2" stroke="#DBDEE5" d="M0 10h18"/><path id="Прямоугольник_скругл._углы_13" stroke="#DBDEE5" d="M66 9.5C66 4.3 70.3 0 75.5 0h4C84.7 0 89 4.3 89 9.5"/><path id="Прямоугольник_скругл._углы_13_копия" stroke="#DBDEE5" d="M37 9c-.1-2.6 1.9-4.9 4.5-5h1.9c2.6.1 4.7 2.4 4.5 5"/><path id="Прямоугольник_скругл._углы_13_копия_3" stroke="#DBDEE5" d="M85 2h5.7C94.2 2 97 5.1 97 9"/><path id="Прямоугольник_скругл._углы_13_копия_4" stroke="#212225" d="M162.4 4.6c1.7-2.8 4.8-4.6 8.1-4.6h4c5.2 0 9.5 4.3 9.5 9.5"/><path id="Прямоугольник_скругл._углы_13_копия_5" stroke="#212225" d="M154 10c-.1-3.3 2.5-5.9 5.8-6h2.4c3.3.1 5.8 2.7 5.8 6"/></g><g id="Группа_84" transform="translate(76)" fill="none" stroke-width="2" stroke-linecap="round"><path id="Эллипс_3724" stroke="#DE5A48" stroke-dasharray="8,4" d="M0 105.2c0-14.9 12.1-27 27-27s27 10.1 27 25"/><path id="Эллипс_3725" stroke="#DE5A48" stroke-dasharray="8,4" d="M53.9 99.5C54.2 44.2 99.3-.3 154.5 0c4.3 0 8.5.3 12.7.9 12.7 1.7 25 5.8 36.1 12.2"/><path id="Эллипс_3725_копия" stroke="#DE5A48" stroke-dasharray="8,4" d="M54 99.2c0-3.6.3-7.3.8-10.9 6.3-46.2 49.1-78.5 95.6-72.3"/><g id="Группа_86" transform="translate(149 15.333)" stroke="#212225"><g id="Группа_85" transform="translate(0 3.394)"><path id="Эллипс_3722" d="M16.1 63.2C10.8 57.2 6 47.7 6 39 6 19.9 21.4 4.5 40.5 4.5c11.3 0 21.9 5.5 28.4 14.8"/><path id="Эллипс_3723" d="M14.8 61.6C3.2 53.5 0 44.2 0 33"/><path id="Эллипс_3723_копия" d="M6.1 42C3.8 33.1 5 23.6 9.3 15.5"/><path id="Эллипс_3723_копия_2" d="M22.2 9.5C28.4 3.4 36.8 0 45.6 0"/><path id="Эллипс_3723_копия_3" d="M56.2 15.7C52.6 13.4 51 8.3 44.6 4.8"/></g><g id="Группа_85_копия" transform="translate(9.746 34.972)"><path id="Эллипс_3722-2" d="M68.4 4.3c3.8 18.7-8.3 37-27.1 40.8C22.6 48.8 4.3 36.7.6 18c-.3-1.3-.5-2.7-.6-4"/><path id="Эллипс_3723-2" d="M67.6 0c4 9.6 4.3 25.5-1.3 35.2"/><path id="Эллипс_3723_копия-2" d="M65.5 26.5c-2.2 8.5-7.7 15.8-15.2 20.2"/><path id="Эллипс_3723_копия_2-2" d="M35.6 45.9c-8.5 2.2-17.5 1-25-3.4"/><path id="Эллипс_3723_копия_3-2" d="M6.7 21c1.3 2.5.5 4.9 1.2 8.8.3 1.6 2.8 5.2 3 6.6"/></g><g id="Группа_85_копия_2" transform="translate(17.675)"><path id="Эллипс_3722-3" d="M0 16.3c13-14 34.9-14.8 48.9-1.8s14.8 34.9 1.8 48.9c-.9 1-1.9 1.9-3 2.8"/><path id="Эллипс_3723-3" d="M.3 16.3C6 7.1 15.6 1.1 26.4 0"/><path id="Эллипс_3723_копия-3" d="M24.4 4.5c8.2-3.2 17.3-3 25.3.6"/><path id="Эллипс_3723_копия_2-3" d="M53 18.7c6.7 5.6 11 13.6 11.8 22.3"/><path id="Эллипс_3723_копия_3-3" d="M52.6 52.6c1.9-3.8 5-.5 7.6-10.8"/></g><g id="Группа_85_копия_3" transform="translate(15 21.866)"><path id="Эллипс_3722-4" d="M46 39.4c-9.2 10-24.8 10.5-34.7 1.3S.7 16 10 6c.7-.7 1.4-1.4 2.1-2"/><path id="Эллипс_3723-4" d="M45.8 39.5C41.7 46 34.9 50.3 27.3 51"/><path id="Эллипс_3723_копия-4" d="M25.1 47.1c-5.7 2.1-8.3 2-13.7-.4"/><path id="Эллипс_3723_копия_2-4" d="M8.4 37.7C3.6 33.7.6 28 0 21.8"/><path id="Эллипс_3723_копия_3-4" d="M10.8 10.8c-1.4 2.7-4.4 1.8-7 8.4"/><path id="Эллипс_3722_копия" d="M44.6 0c3.5 3.4 5.7 8 6.2 12.8 1.2 11-6.7 21-17.8 22.2-6.5.6-12.9-2-17.1-7"/><path id="Эллипс_3723_копия_4" d="M44.7.2c5.3 3.4 8.7 9 9.3 15.3"/><path id="Эллипс_3723_копия_4-2" d="M50.9 13c1.8 5.1 1.6 10.6-.4 15.6"/><path id="Эллипс_3723_копия_4-3" d="M43.3 31.1c-3.2 3.9-7.8 6.4-12.8 6.9"/><path id="Эллипс_3723_копия_4-4" d="M21.5 29.1c2.2 1.1 2.8 4.1 11.1 5.8"/></g></g></g></g></svg>