<svg xmlns="http://www.w3.org/2000/svg" width="784" height="175"><path data-name="Прямоугольник 21" d="M770 175v-7h-38v7h-2v-7h-12v-2h12v-6h2v6h38v-38h-12v-2h12v-6h2v6h7v2h-7v38h12v2h-12v7zm-200 0v-7h-38v7h-2v-7h-38v7h-2v-7h-38v7h-2v-7h-38v7h-2v-7h-5v-2h5v-8h2v8h38v-38h-5v-2h5v-6h2v6h8v2h-8v38h38v-18h2v18h38v-28h2v28h38v-8h2v8h10v2h-10v7zm-320 0v-7h-38v7h-2v-7h-38v7h-2v-7h-38v7h-2v-7h-6v-2h6v-12h2v12h38v-38h-10v-2h10v-7h2v7h17v2h-17v38h38v-27h2v27h38v-4h2v4h7v2h-7v7zm-200 0v-7H12v7h-2v-7H0v-2h10v-12h2v12h38v-30h2v30h18v2H52v7zm652-3v-4h-4v-2h4v-4h2v4h4v2h-4v4zm-429 0v-4h-4v-2h4v-4h2v4h4v2h-4v4zm137-24v-4h-4v-2h4v-4h2v4h4v2h-4v4zm-400-4v-4H6v-2h4v-4h2v4h4v2h-4v4zm520-16v-4h-4v-2h4v-4h2v4h4v2h-4v4zm240-18v-4h-4v-2h4v-4h2v4h4v2h-4v4zM530 59V48h-10v-2h10V8h-38v11h-2V8h-11V6h11V0h2v6h38V0h2v6h38V0h2v6h8v2h-8v21h-2V8h-38v38h16v2h-16v11zm-320 0V48h-14v-2h14V8h-38v11h-2V8h-18V6h18V0h2v6h38V0h2v6h11v2h-11v38h9v2h-9v11zm200-33V8h-18V6h18V0h2v6h16v2h-16v18zm185-14V8h-4V6h4V2h2v4h4v2h-4v4zm-459 0V8h-4V6h4V2h2v4h4v2h-4v4z" fill="#dbdee5"/><g data-name="Группа 5" fill="none" stroke="#dbdee5" stroke-width="2"><path data-name="Эллипс 2047" d="M149.888 87.951a52.491 52.491 0 11-.1-8.148"/><path data-name="Фигура 1011" d="M153 83h89"/><path data-name="Эллипс 2047 копия 2" d="M349.89 87.933a52.51 52.51 0 01-101.84 14.244m-2.734-23.4C247.737 52.034 270.121 32 297.5 32a52.523 52.523 0 0150.7 38.823" stroke-linecap="round"/><g data-name="Эллипс 2048" transform="translate(345 78)"><circle cx="5" cy="5" r="5" stroke="none"/><circle cx="5" cy="5" r="4"/></g><g data-name="Эллипс 2048 копия" transform="translate(240 78)"><circle cx="5" cy="5" r="5" stroke="none"/><circle cx="5" cy="5" r="4"/></g><g data-name="Эллипс 2048 копия 2" transform="translate(145 78)"><circle cx="5" cy="5" r="5" stroke="none"/><circle cx="5" cy="5" r="4"/></g><g data-name="Эллипс 2048 копия 3" transform="translate(555 78)"><circle cx="5" cy="5" r="5" stroke="none"/><circle cx="5" cy="5" r="4"/></g><path data-name="Прямоугольник, скругл. углы 972" d="M560.146 78.915C562.579 52.178 585.129 32 612.5 32h73a52.5 52.5 0 010 105h-73c-27.669 0-50.646-22.1-52.663-49.251" stroke-linecap="round"/><path data-name="Фигура 1012" d="M354 83h17"/><path data-name="Фигура 1012 копия" d="M434 83h23"/><path data-name="Фигура 1012 копия 2" d="M519 83h38"/></g><path data-name="Эллипс 2049" d="M359.327 93.7a62.517 62.517 0 01-120.8 11.557m-2.242-33.447a62.52 62.52 0 01120.47-7.231" fill="none" stroke="#de5846" stroke-linecap="round" stroke-width="2"/><g data-name="Группа 4"><path data-name="Фигура 1010" d="M78 108s15.47-10.966 17-12 6.467-3.2 9.2-1.172 15.064 12.434 15.064 12.434S113.142 116 98 116s-20-8-20-8zM66 84c0-12.337 9.225-31 31-31 0 .5-.96 21.593-.96 24.514s-.28 6.241-2.128 7.807S72 102 72 102s-6-5.662-6-18z" fill="#de5846"/><g data-name="Эллипс 2047 копия" transform="translate(65 52)" fill="none" stroke="#212225" stroke-width="2"><circle cx="32.5" cy="32.5" r="32.5" stroke="none"/><circle cx="32.5" cy="32.5" r="31.5"/></g><path data-name="Фигура 1007" d="M71 102s17.041-12.613 19-14 6-4.6 6-9V53" fill="none" stroke="#212225" stroke-width="2"/><path data-name="Фигура 1008" d="M77 108s15.94-11.4 18-13 7.1-2.131 11 1 13 11 13 11" fill="none" stroke="#212225" stroke-width="2"/></g><g data-name="Эллипс 542 копия 3" transform="translate(265 52)" fill="none" stroke="#212225" stroke-width="2"><circle cx="32.5" cy="32.5" r="32.5" stroke="none"/><circle cx="32.5" cy="32.5" r="31.5"/></g><g data-name="icon"><g data-name="Эллипс 2046" transform="translate(293 74)" fill="none" stroke="#212225" stroke-width="2"><circle cx="4.5" cy="4.5" r="4.5" stroke="none"/><circle cx="4.5" cy="4.5" r="3.5"/></g><path data-name="Фигура 1006" d="M311 87s-7.118 6.132-7.91 6.681a1.59 1.59 0 01-1.955 0c-.228-.323-.751-1.019-.978-1.333-.2-.274-.773-.459-1.466 0S295 95 295 95" fill="none" stroke="#212225" stroke-width="2"/><path data-name="Forma 1" d="M288.546 93.93a.945.945 0 01-.481-1.2l.427-1.119c1.085-2.837 3.031-6.608 7.371-6.608h3.271a6.236 6.236 0 014.246 1.585c.666.543-.646 1.7-1.331 1.232a4.549 4.549 0 00-2.915-.967h-3.271c-2.57 0-4.292 1.631-5.755 5.453l-.427 1.119a.873.873 0 01-.808.577.827.827 0 01-.327-.072zm23.844-2.885l-.982-.017a.482.482 0 01-.482-.506l.034-1.426a.266.266 0 00-.452-.185l-2.97 1.9c-.215.209-.589-.235-.375-.444l2.006-2.935a.277.277 0 00-.167-.464l-1.408-.018a.481.481 0 01-.482-.5l.019-.994a.46.46 0 01.147-.353.425.425 0 01.318-.1l4.913.077a.538.538 0 01.347.148.458.458 0 01.134.357l-.1 4.973a.459.459 0 01-.147.352.449.449 0 01-.343.137z" fill="#212225"/></g><g data-name="icon"><g data-name="Эллипс 542 копия 3" transform="translate(370 52)" fill="none" stroke="#dbdee5" stroke-width="2"><circle cx="32.5" cy="32.5" r="32.5" stroke="none"/><circle cx="32.5" cy="32.5" r="31.5"/></g><g data-name="icon копия"><path data-name="Фигура 612 копия" d="M396.652 77.468s5.263-3.008 5.69-3.284a1.534 1.534 0 011.447 0c.4.208 8.2 4.534 8.684 4.839A1.192 1.192 0 01413 80.07v9.536a2.032 2.032 0 01-.7 1.214l-8.522 5.029a1.83 1.83 0 01-1.173.083c-.261-.153-7.742-4.5-9.088-5.285a2.3 2.3 0 01-.522-1.171v-9.069a.61.61 0 01.87-.511c1.788 1.018 7.441 4.21 8.839 5.006.187.107.2.341.2.717v5.375" fill="none" stroke="#dbdee5" stroke-linecap="round" stroke-width="2"/></g></g><g data-name="icon"><g data-name="Эллипс 542 копия 3" transform="translate(455 52)" fill="none" stroke="#dbdee5" stroke-width="2"><circle cx="32.5" cy="32.5" r="32.5" stroke="none"/><circle cx="32.5" cy="32.5" r="31.5"/></g><g data-name="icon копия 2"><path data-name="1 копия 3" d="M486.259 83.662L484.966 86a.682.682 0 01-1.116 0l-1.671-2.341c-.93.409-1.65 1.362-2.293 2.983l-1.553 3.913a.684.684 0 01-.9.389.712.712 0 01-.38-.92l1.553-3.914c.7-1.761 1.954-4.1 4.774-4.1h2.06a2.82 2.82 0 011.548.437c-.188.385-.729 1.215-.729 1.215zM484.506 80a3.5 3.5 0 10-3.492-3.5 3.5 3.5 0 003.492 3.5zm0-5a1.5 1.5 0 11-1.5 1.5A1.5 1.5 0 01484.5 75z" fill="#dbdee5"/><path data-name="Фигура 525" fill="none" stroke="#dbdee5" stroke-linecap="round" stroke-width="2" d="M497.23 72.55l-14.14 24.49"/><g data-name="Эллипс 2046 копия 3" transform="translate(489 87)" fill="none" stroke="#dbdee5" stroke-width="2"><circle cx="3.5" cy="3.5" r="3.5" stroke="none"/><circle cx="3.5" cy="3.5" r="2.5"/></g></g></g><g data-name="Группа 4 копия"><path data-name="Фигура 1010" d="M660 108s15.47-10.966 17-12 6.4-3.112 9.136-1.08 15.511 12.2 15.511 12.2S695.142 116 680 116s-20-8-20-8zm-12-24c0-12.337 9.224-31 31-31 0 .5-1.526 23.455-1.526 26.376 0 0 .153-.455.316-.91.185-.516.381-1.032.379-.883 0 2.641-.41 5.87-2.255 7.435S654 102 654 102s-6-5.662-6-18z" fill="#de5846"/><g data-name="Эллипс 2047 копия" transform="translate(647 52)" fill="none" stroke="#212225" stroke-width="2"><circle cx="32.5" cy="32.5" r="32.5" stroke="none"/><circle cx="32.5" cy="32.5" r="31.5"/></g><path data-name="Фигура 1007" d="M653 102s17.041-12.613 19-14 6-4.6 6-9V53" fill="none" stroke="#212225" stroke-width="2"/><path data-name="Фигура 1008" d="M659 108s15.94-11.4 18-13 7.1-2.131 11 1 13 11 13 11" fill="none" stroke="#212225" stroke-width="2"/></g><g data-name="icon копия 3"><path data-name="Эллипс 542 копия 3" d="M644.695 103.741a32.5 32.5 0 11-.236-38.8" fill="none" stroke="#212225" stroke-width="2"/><g data-name="icon"><g data-name="Эллипс 2046" transform="translate(614 74)" fill="none" stroke="#212225" stroke-width="2"><circle cx="4.5" cy="4.5" r="4.5" stroke="none"/><circle cx="4.5" cy="4.5" r="3.5"/></g><path data-name="Фигура 1006" d="M632 87s-7.118 6.132-7.91 6.681a1.59 1.59 0 01-1.955 0c-.227-.323-.751-1.019-.977-1.333-.2-.274-.773-.459-1.466 0S616 95 616 95" fill="none" stroke="#212225" stroke-width="2"/><path data-name="Forma 1" d="M609.546 93.93a.943.943 0 01-.48-1.2l.427-1.119c1.085-2.837 3.03-6.608 7.371-6.608h3.271a6.232 6.232 0 014.245 1.585c.667.543-.646 1.7-1.33 1.232a4.552 4.552 0 00-2.915-.967h-3.271c-2.571 0-4.292 1.631-5.755 5.453l-.428 1.119a.872.872 0 01-.808.577.829.829 0 01-.327-.072zm23.844-2.885l-.981-.017a.482.482 0 01-.482-.506l.033-1.426a.265.265 0 00-.451-.185l-2.971 1.9c-.214.209-.589-.235-.374-.444l2.006-2.935a.277.277 0 00-.167-.464l-1.409-.018a.48.48 0 01-.481-.5l.019-.994a.46.46 0 01.147-.353.422.422 0 01.318-.1l4.912.077a.538.538 0 01.348.148.457.457 0 01.133.357l-.1 4.973a.46.46 0 01-.148.352.449.449 0 01-.343.137z" fill="#212225"/></g></g></svg>