<svg xmlns="http://www.w3.org/2000/svg" width="321" height="115" viewBox="0 0 321 115">
  <defs>
    <style>
      .cls-1 {
        fill: #dbdee5;
      }

      .cls-2, .cls-3, .cls-5, .cls-7 {
        fill: none;
      }

      .cls-2 {
        stroke: #dbdee5;
      }

      .cls-2, .cls-3, .cls-4, .cls-5 {
        stroke-width: 2px;
      }

      .cls-3, .cls-4 {
        stroke: #007dff;
      }

      .cls-4 {
        fill: #edf7f0;
        stroke-linejoin: round;
      }

      .cls-5 {
        stroke: #dcdfe6;
      }

      .cls-6 {
        stroke: none;
      }
    </style>
  </defs>
  <g id="Success" transform="translate(-578 -683)">
    <path id="Прямоугольник_538_копия_4" data-name="Прямоугольник 538 копия 4" class="cls-1" d="M856,795V781H818v14h-2V781H795v-2h21V768h2v11h38V741H820v-2h36V701H818v10h-2V701H785v-2h31V684h2v15h38V684h2v15h41v2H858v38h21v2H858v38h11v2H858v14Zm-200,0V781H618v14h-2V781h-8v-2h8V742H598v-2h18V701H578v-2h38V684h2v15h38V684h2v15h30v2H658v10h-2V701H618v39h35v2H618v37h38V768h2v11h20v2H658v14Zm227-10v-4h-4v-2h4v-4h2v4h4v2h-4v4ZM656,762v-4h-4v-2h4v-4h2v4h4v2h-4v4Zm-74-16v-4h-4v-2h4v-4h2v4h4v2h-4v4Zm234-15v-4h-4v-2h4v-4h2v4h4v2h-4v4Z"/>
    <g id="Группа_4" data-name="Группа 4">
      <path id="Эллипс_2047_копия_5" data-name="Эллипс 2047 копия 5" class="cls-2" d="M743.707,792.51a52.528,52.528,0,0,0,44.94-45.895c.233-2.006,4.1-5.615,7.352-5.615h8"/>
      <path id="Эллипс_2047_копия_6" data-name="Эллипс 2047 копия 6" class="cls-2" d="M733.393,688.1a52.593,52.593,0,0,0-49,46.285c-.233,2.006-4.107,5.615-7.372,5.615H669"/>
      <g id="Эллипс_2047_копия_3" data-name="Эллипс 2047 копия 3" class="cls-3" transform="translate(704 708)">
        <circle class="cls-6" cx="32.5" cy="32.5" r="32.5"/>
        <circle class="cls-7" cx="32.5" cy="32.5" r="31.5"/>
      </g>
      <path id="check_копия_6" data-name="check  копия 6" class="cls-4" d="M746.937,732,734.75,744l-5.687-5.6-4.063,4,9.75,9.6L751,736Z"/>
      <g id="Эллипс_2050_копия" data-name="Эллипс 2050 копия" class="cls-2" transform="translate(733 683)">
        <circle class="cls-6" cx="5" cy="5" r="5"/>
        <circle class="cls-7" cx="5" cy="5" r="4"/>
      </g>
      <g id="Эллипс_2050_копия_2" data-name="Эллипс 2050 копия 2" class="cls-2" transform="translate(734 788)">
        <circle class="cls-6" cx="5" cy="5" r="5"/>
        <circle class="cls-7" cx="5" cy="5" r="4"/>
      </g>
      <g id="Эллипс_2050_копия_3" data-name="Эллипс 2050 копия 3" class="cls-2" transform="translate(660 735)">
        <circle class="cls-6" cx="5" cy="5" r="5"/>
        <circle class="cls-7" cx="5" cy="5" r="4"/>
      </g>
      <g id="Эллипс_2050_копия_4" data-name="Эллипс 2050 копия 4" class="cls-2" transform="translate(802 736)">
        <circle class="cls-6" cx="5" cy="5" r="5"/>
        <circle class="cls-7" cx="5" cy="5" r="4"/>
      </g>
      <path id="Эллипс_2047_копия_4" data-name="Эллипс 2047 копия 4" class="cls-5" d="M721.769,788.881a51.593,51.593,0,0,1-35.242-36.9m66.191-61.356a51.591,51.591,0,0,1,34.411,39.334"/>
      <g id="Эллипс_2047_копия_3-2" data-name="Эллипс 2047 копия 3" class="cls-3" transform="translate(708 712)">
        <circle class="cls-6" cx="28.5" cy="28.5" r="28.5"/>
        <circle class="cls-7" cx="28.5" cy="28.5" r="27.5"/>
      </g>
    </g>
  </g>
</svg>
