<svg xmlns="http://www.w3.org/2000/svg" width="551" height="143"><path stroke="#DBDEE5" stroke-width="2" fill="none" d="M50.184 136.897C22.734 135.186 1 112.381 1 84.5 1 55.505 24.505 32 53.5 32c27.362 0 49.835 20.932 52.28 47.656.145 1.595 1.488 4.344 7.22 4.344h97"/><path stroke="#DBDEE5" stroke-width="2" fill="none" d="M54 131a5 5 0 11-.001 10.001A5 5 0 0154 131zm-.5-79C71.449 52 86 66.551 86 84.5c0 17.949-14.551 32.5-32.5 32.5C35.551 117 21 102.449 21 84.5 21 66.551 35.551 52 53.5 52z"/><path stroke="#DBDEE5" stroke-width="2" fill="none" d="M80 67S62.959 79.613 61 81c-1.959 1.387-6 4.596-6 9v26m19-55S58.06 72.398 56 74c-2.06 1.602-7.103 2.131-11-1-3.897-3.131-13-11-13-11m467.816-29.897C527.266 33.814 549 56.619 549 84.5c0 28.995-23.505 52.5-52.5 52.5-27.362 0-49.835-20.932-52.279-47.656C444.075 87.749 442.732 85 437 85h-93"/><path stroke="#DBDEE5" stroke-width="2" fill="none" d="M496 28a5 5 0 11-.001 10.001A5 5 0 01496 28zm.5 24c17.949 0 32.5 14.551 32.5 32.5 0 17.949-14.551 32.5-32.5 32.5-17.949 0-32.5-14.551-32.5-32.5 0-17.949 14.551-32.5 32.5-32.5z"/><path stroke="#DBDEE5" stroke-width="2" fill="none" d="M470 102s17.041-12.613 19-14c1.959-1.387 6-4.596 6-9V53m-19 55s15.94-11.398 18-13c2.06-1.602 7.103-2.131 11 1 3.897 3.131 13 11 13 11m-290.821-4.468C234.534 122.644 253.84 137 276.5 137c26.927 0 49.118-20.271 52.148-46.385C328.88 88.609 332.744 85 336 85h8m-17.871-18.532C318.754 46.356 299.397 32 276.678 32c-26.998 0-49.248 20.271-52.285 46.385-.234 2.006-4.107 5.615-7.372 5.615H209"/><path fill-rule="evenodd" stroke="#212225" stroke-width="2" fill="#289548" d="M276.5 52c17.949 0 32.5 14.551 32.5 32.5 0 17.949-14.551 32.5-32.5 32.5-17.949 0-32.5-14.551-32.5-32.5 0-17.949 14.551-32.5 32.5-32.5z"/><path fill-rule="evenodd" fill="#FFF" d="M286.937 75.996l-12.188 12.001-5.687-5.604L265 86.395l9.749 9.602L291 79.999l-4.063-4.003z"/><path stroke="#DBDEE5" stroke-width="2" fill="none" d="M326 66a5 5 0 11-.001 10.001A5 5 0 01326 66zm-99 28a5 5 0 11-.001 10.001A5 5 0 01227 94z"/><path fill-rule="evenodd" fill="#DBDEE5" d="M478 8v4h-2V8h-4V6h4V2h2v4h4v2h-4zm-25 21h-2V8h-38v38h16v2h-16v11h-2V48h-10v-2h10V8h-38v11h-2V8h-11V6h11V0h2v6h38V0h2v6h38V0h2v6h8v2h-8v21zm-82 79h2v18h38v-8h2v8h10v2h-10v7h-2v-7h-38v7h-2v-7h-15v-2h15v-18zM248 12h-2V8h-4V6h4V2h2v4h4v2h-4v4zm-35 14h-2V8h-18V6h18V0h2v6h16v2h-16v18zm-40 109h-2v-7h-38v7h-2v-7h-10v-2h10v-12h2v12h38v-10h2v10h18v2h-18v7zm-42-31v-4h-4v-2h4v-4h2v4h4v2h-4v4h-2zm2-58h9v2h-9v11h-2V48h-14v-2h14V8H93v11h-2V8H73V6h18V0h2v6h38V0h2v6h11v2h-11v38z"/></svg>