<svg xmlns="http://www.w3.org/2000/svg" width="459.982" height="141.662" viewBox="0 0 459.982 141.662">
  <g id="Warning_2" transform="translate(-444.008 -478.363)">
    <g id="Группа_4_копия_3" data-name="Группа 4 копия 3" transform="translate(40 130)">
      <path id="Эллипс_2047_копия_4" data-name="Эллипс 2047 копия 4" d="M454.184,476.9a52.5,52.5,0,1,1,55.6-57.241c.146,1.595,1.488,4.344,7.22,4.344h47c4.123,0,8.065.481,11.865-6.053s21.629-32.144,34.907-53.156,41.077-20.131,53.283,0,28.008,46.545,28.008,46.545" fill="none" stroke="#3c4249" stroke-linecap="round" stroke-width="2"/>
      <g id="Эллипс_2050" data-name="Эллипс 2050" transform="translate(453 472)" fill="none" stroke="#3c4249" stroke-width="2">
        <circle cx="5" cy="5" r="5" stroke="none"/>
        <circle cx="5" cy="5" r="4" fill="none"/>
      </g>
      <g id="Эллипс_2047_копия" data-name="Эллипс 2047 копия" transform="translate(425 392)" fill="none" stroke="#3c4249" stroke-width="2">
        <circle cx="32.5" cy="32.5" r="32.5" stroke="none"/>
        <circle cx="32.5" cy="32.5" r="31.5" fill="none"/>
      </g>
      <path id="Фигура_1007" data-name="Фигура 1007" d="M484,407s-17.041,12.613-19,14-6,4.6-6,9v26" fill="none" stroke="#3c4249" stroke-width="2"/>
      <path id="Фигура_1008" data-name="Фигура 1008" d="M478,401s-15.94,11.4-18,13-7.1,2.131-11-1-13-11-13-11" fill="none" stroke="#3c4249" stroke-width="2"/>
    </g>
    <g id="Группа_4_копия_4" data-name="Группа 4 копия 4" transform="translate(-50 130)">
      <path id="Эллипс_2047_копия_4-2" data-name="Эллипс 2047 копия 4" d="M903.816,372.1a52.5,52.5,0,1,1-55,61.677c-.232-1.25-.1-8.78-7.818-8.78H804c-8.279,0-9,7.908-6.923,11.605a69.317,69.317,0,0,1,4.082,7.773c10.367,21.376-6.946,44.65-26.478,44.65H712.606" fill="none" stroke="#3c4249" stroke-linecap="round" stroke-width="2"/>
      <g id="Эллипс_2050-2" data-name="Эллипс 2050" transform="translate(895 367)" fill="none" stroke="#3c4249" stroke-width="2">
        <circle cx="5" cy="5" r="5" stroke="none"/>
        <circle cx="5" cy="5" r="4" fill="none"/>
      </g>
      <g id="Эллипс_2047_копия-2" data-name="Эллипс 2047 копия" transform="translate(868 392)" fill="none" stroke="#3c4249" stroke-width="2">
        <circle cx="32.5" cy="32.5" r="32.5" stroke="none"/>
        <circle cx="32.5" cy="32.5" r="31.5" fill="none"/>
      </g>
      <path id="Фигура_1007-2" data-name="Фигура 1007" d="M874,442s17.041-12.613,19-14,6-4.6,6-9V393" fill="none" stroke="#3c4249" stroke-width="2"/>
      <path id="Фигура_1008-2" data-name="Фигура 1008" d="M880,448s15.94-11.4,18-13,7.1-2.131,11,1,13,11,13,11" fill="none" stroke="#3c4249" stroke-width="2"/>
    </g>
    <g id="Сгруппировать_1" data-name="Сгруппировать 1" transform="translate(1 123)">
      <path id="Фигура_1" data-name="Фигура 1" d="M658,486h62c11.755,0,31.2-15.121,18-37s-36.877-61.063-44-73-25.344-14.5-35,0-30.623,48.194-45,72,6.276,38,16,38h5" fill="none" stroke="#fc9f0f" stroke-width="2"/>
      <path id="Фигура_2" data-name="Фигура 2" d="M658,475h63c7.155,0,14.6-9.67,9-19s-41.917-69.989-45-75-12.417-8.432-18,1-40.205,62.91-46,73-.2,20,9,20h5" fill="none" stroke="#fc9f0f" stroke-width="2"/>
      <path id="Эллипс_1" data-name="Эллипс 1" d="M659.061,485.561a5.5,5.5,0,0,1,0-11" transform="translate(-1 0.439)" fill="none" stroke="#fc9f0f" stroke-width="2"/>
      <path id="Эллипс_1_копия" data-name="Эллипс 1 копия" d="M634,475.014a5.518,5.518,0,0,1,0,11" transform="translate(0.985 -0.014)" fill="none" stroke="#fc9f0f" stroke-width="2"/>
    </g>
    <g id="Прямоугольник_336" data-name="Прямоугольник 336" transform="translate(669.109 521.277)" fill="#5b1b1b" stroke="#fc9f0f" stroke-width="2">
      <rect width="16" height="40" rx="8" stroke="none"/>
      <rect x="1" y="1" width="14" height="38" rx="7" fill="none"/>
    </g>
    <g id="Прямоугольник_337" data-name="Прямоугольник 337" transform="translate(669.109 565.277)" fill="#5b1b1b" stroke="#fc9f0f" stroke-width="2">
      <rect width="16" height="16" rx="8" stroke="none"/>
      <rect x="1" y="1" width="14" height="14" rx="7" fill="none"/>
    </g>
    <g id="Сгруппировать_711" data-name="Сгруппировать 711" transform="translate(-6 122)">
      <rect id="Op_component_13" data-name="Op component 13" width="2" height="59" transform="translate(577 357)" fill="#3c4249"/>
      <rect id="Op_component_14" data-name="Op component 14" width="2" height="19" transform="translate(537 357)" fill="#3c4249"/>
      <rect id="Op_component_15" data-name="Op component 15" width="71" height="2" transform="translate(519 363)" fill="#3c4249"/>
      <rect id="Op_component_16" data-name="Op component 16" width="25" height="2" transform="translate(563 403)" fill="#3c4249"/>
    </g>
    <g id="Сгруппировать_712" data-name="Сгруппировать 712" transform="translate(760 479)">
      <rect id="Op_component_13-2" data-name="Op component 13" width="2" height="59" transform="translate(11)" fill="#3c4249"/>
      <rect id="Op_component_14-2" data-name="Op component 14" width="2" height="19" transform="translate(51)" fill="#3c4249"/>
      <rect id="Op_component_15-2" data-name="Op component 15" width="71" height="2" transform="translate(0 6)" fill="#3c4249"/>
      <rect id="Op_component_16-2" data-name="Op component 16" width="25" height="2" transform="translate(2 46)" fill="#3c4249"/>
    </g>
    <g id="Сгруппировать_713" data-name="Сгруппировать 713" transform="translate(-6 122)">
      <rect id="Op_component_17" data-name="Op component 17" width="36" height="2" transform="translate(597 485) rotate(180)" fill="#3c4249"/>
      <rect id="Op_component_18" data-name="Op component 18" width="2" height="26" transform="translate(579 491) rotate(180)" fill="#3c4249"/>
      <rect id="Op_component_22" data-name="Op component 22" width="10" height="2" transform="translate(548 485) rotate(180)" fill="#3c4249"/>
      <rect id="Op_component_23" data-name="Op component 23" width="2" height="10" transform="translate(544 489) rotate(180)" fill="#3c4249"/>
    </g>
  </g>
</svg>
