<svg xmlns="http://www.w3.org/2000/svg" width="459.982" height="141.662" viewBox="0 0 459.982 141.662">
  <defs>
    <style>
      .cls-1, .cls-2, .cls-3, .cls-7 {
        fill: none;
      }

      .cls-1, .cls-2 {
        stroke: #dbdee5;
      }

      .cls-1 {
        stroke-linecap: round;
      }

      .cls-1, .cls-2, .cls-3, .cls-4 {
        stroke-width: 2px;
      }

      .cls-3, .cls-4 {
        stroke: #fc9f0f;
      }

      .cls-4 {
        fill: #ffe6b8;
      }

      .cls-5 {
        fill: #dbdee5;
      }

      .cls-6 {
        stroke: none;
      }
    </style>
  </defs>
  <g id="Warning_2" transform="translate(-444.008 -478.363)">
    <g id="Группа_4_копия_3" data-name="Группа 4 копия 3" transform="translate(40 130)">
      <path id="Эллипс_2047_копия_4" data-name="Эллипс 2047 копия 4" class="cls-1" d="M454.184,476.9a52.5,52.5,0,1,1,55.6-57.241c.146,1.595,1.488,4.344,7.22,4.344h47c4.123,0,8.065.481,11.865-6.053s21.629-32.144,34.907-53.156,41.077-20.131,53.283,0,28.008,46.545,28.008,46.545"/>
      <g id="Эллипс_2050" data-name="Эллипс 2050" class="cls-2" transform="translate(453 472)">
        <circle class="cls-6" cx="5" cy="5" r="5"/>
        <circle class="cls-7" cx="5" cy="5" r="4"/>
      </g>
      <g id="Эллипс_2047_копия" data-name="Эллипс 2047 копия" class="cls-2" transform="translate(425 392)">
        <circle class="cls-6" cx="32.5" cy="32.5" r="32.5"/>
        <circle class="cls-7" cx="32.5" cy="32.5" r="31.5"/>
      </g>
      <path id="Фигура_1007" data-name="Фигура 1007" class="cls-2" d="M484,407s-17.041,12.613-19,14-6,4.6-6,9v26"/>
      <path id="Фигура_1008" data-name="Фигура 1008" class="cls-2" d="M478,401s-15.94,11.4-18,13-7.1,2.131-11-1-13-11-13-11"/>
    </g>
    <g id="Группа_4_копия_4" data-name="Группа 4 копия 4" transform="translate(-50 130)">
      <path id="Эллипс_2047_копия_4-2" data-name="Эллипс 2047 копия 4" class="cls-1" d="M903.816,372.1a52.5,52.5,0,1,1-55,61.677c-.232-1.25-.1-8.78-7.818-8.78H804c-8.279,0-9,7.908-6.923,11.605a69.317,69.317,0,0,1,4.082,7.773c10.367,21.376-6.946,44.65-26.478,44.65H712.606"/>
      <g id="Эллипс_2050-2" data-name="Эллипс 2050" class="cls-2" transform="translate(895 367)">
        <circle class="cls-6" cx="5" cy="5" r="5"/>
        <circle class="cls-7" cx="5" cy="5" r="4"/>
      </g>
      <g id="Эллипс_2047_копия-2" data-name="Эллипс 2047 копия" class="cls-2" transform="translate(868 392)">
        <circle class="cls-6" cx="32.5" cy="32.5" r="32.5"/>
        <circle class="cls-7" cx="32.5" cy="32.5" r="31.5"/>
      </g>
      <path id="Фигура_1007-2" data-name="Фигура 1007" class="cls-2" d="M874,442s17.041-12.613,19-14,6-4.6,6-9V393"/>
      <path id="Фигура_1008-2" data-name="Фигура 1008" class="cls-2" d="M880,448s15.94-11.4,18-13,7.1-2.131,11,1,13,11,13,11"/>
    </g>
    <g id="Сгруппировать_1" data-name="Сгруппировать 1" transform="translate(1 123)">
      <path id="Фигура_1" data-name="Фигура 1" class="cls-3" d="M658,486h62c11.755,0,31.2-15.121,18-37s-36.877-61.063-44-73-25.344-14.5-35,0-30.623,48.194-45,72,6.276,38,16,38h5"/>
      <path id="Фигура_2" data-name="Фигура 2" class="cls-3" d="M658,475h63c7.155,0,14.6-9.67,9-19s-41.917-69.989-45-75-12.417-8.432-18,1-40.205,62.91-46,73-.2,20,9,20h5"/>
      <path id="Эллипс_1" data-name="Эллипс 1" class="cls-3" d="M659.061,485.561a5.5,5.5,0,0,1,0-11" transform="translate(-1 0.439)"/>
      <path id="Эллипс_1_копия" data-name="Эллипс 1 копия" class="cls-3" d="M634,475.014a5.518,5.518,0,0,1,0,11" transform="translate(0.985 -0.014)"/>
    </g>
    <g id="Прямоугольник_336" data-name="Прямоугольник 336" class="cls-4" transform="translate(669.109 521.277)">
      <rect class="cls-6" width="16" height="40" rx="8"/>
      <rect class="cls-7" x="1" y="1" width="14" height="38" rx="7"/>
    </g>
    <g id="Прямоугольник_337" data-name="Прямоугольник 337" class="cls-4" transform="translate(669.109 565.277)">
      <rect class="cls-6" width="16" height="16" rx="8"/>
      <rect class="cls-7" x="1" y="1" width="14" height="14" rx="7"/>
    </g>
    <g id="Сгруппировать_711" data-name="Сгруппировать 711" transform="translate(-6 122)">
      <rect id="Op_component_13" data-name="Op component 13" class="cls-5" width="2" height="59" transform="translate(577 357)"/>
      <rect id="Op_component_14" data-name="Op component 14" class="cls-5" width="2" height="19" transform="translate(537 357)"/>
      <rect id="Op_component_15" data-name="Op component 15" class="cls-5" width="71" height="2" transform="translate(519 363)"/>
      <rect id="Op_component_16" data-name="Op component 16" class="cls-5" width="25" height="2" transform="translate(563 403)"/>
    </g>
    <g id="Сгруппировать_712" data-name="Сгруппировать 712" transform="translate(760 479)">
      <rect id="Op_component_13-2" data-name="Op component 13" class="cls-5" width="2" height="59" transform="translate(11)"/>
      <rect id="Op_component_14-2" data-name="Op component 14" class="cls-5" width="2" height="19" transform="translate(51)"/>
      <rect id="Op_component_15-2" data-name="Op component 15" class="cls-5" width="71" height="2" transform="translate(0 6)"/>
      <rect id="Op_component_16-2" data-name="Op component 16" class="cls-5" width="25" height="2" transform="translate(2 46)"/>
    </g>
    <g id="Сгруппировать_713" data-name="Сгруппировать 713" transform="translate(-6 122)">
      <rect id="Op_component_17" data-name="Op component 17" class="cls-5" width="36" height="2" transform="translate(597 485) rotate(180)"/>
      <rect id="Op_component_18" data-name="Op component 18" class="cls-5" width="2" height="26" transform="translate(579 491) rotate(180)"/>
      <rect id="Op_component_22" data-name="Op component 22" class="cls-5" width="10" height="2" transform="translate(548 485) rotate(180)"/>
      <rect id="Op_component_23" data-name="Op component 23" class="cls-5" width="2" height="10" transform="translate(544 489) rotate(180)"/>
    </g>
  </g>
</svg>
