<svg xmlns="http://www.w3.org/2000/svg" width="383" height="231.921" viewBox="0 0 383 231.921">
  <g id="welcom" transform="translate(-502 -131.079)">
    <g id="Группа_2" data-name="Группа 2" transform="translate(-318 33.5)">
      <g id="Сгруппировать_598" data-name="Сгруппировать 598" transform="translate(1203 163.5) rotate(90)">
        <rect id="Op_component_8" data-name="Op component 8" width="2" height="76" transform="translate(47 20)" fill="#dbdee5"/>
        <rect id="Op_component_9" data-name="Op component 9" width="2" height="36" transform="translate(7 60)" fill="#dbdee5"/>
        <rect id="Op_component_10" data-name="Op component 10" width="2" height="26" transform="translate(87 60)" fill="#dbdee5"/>
        <rect id="Op_component_17" data-name="Op component 17" width="110" height="2" transform="translate(0 69)" fill="#dbdee5"/>
        <rect id="Op_component_18" data-name="Op component 18" width="28" height="2" transform="translate(26 28)" fill="#dbdee5"/>
        <rect id="Op_component_28" data-name="Op component 28" width="2" height="10" transform="translate(47)" fill="#dbdee5"/>
        <rect id="Op_component_29" data-name="Op component 29" width="10" height="2" transform="translate(43 4)" fill="#dbdee5"/>
      </g>
      <g id="Сгруппировать_599" data-name="Сгруппировать 599" transform="translate(820 273.5) rotate(-90)">
        <rect id="Op_component_8-2" data-name="Op component 8" width="2" height="76" transform="translate(61 20)" fill="#dbdee5"/>
        <rect id="Op_component_9-2" data-name="Op component 9" width="2" height="36" transform="translate(101 60)" fill="#dbdee5"/>
        <rect id="Op_component_10-2" data-name="Op component 10" width="2" height="26" transform="translate(21 60)" fill="#dbdee5"/>
        <rect id="Op_component_17-2" data-name="Op component 17" width="110" height="2" transform="translate(0 69)" fill="#dbdee5"/>
        <rect id="Op_component_18-2" data-name="Op component 18" width="28" height="2" transform="translate(56 28)" fill="#dbdee5"/>
        <rect id="Op_component_28-2" data-name="Op component 28" width="2" height="10" transform="translate(61)" fill="#dbdee5"/>
        <rect id="Op_component_29-2" data-name="Op component 29" width="10" height="2" transform="translate(57 4)" fill="#dbdee5"/>
      </g>
    </g>
    <g id="Сгруппировать_602" data-name="Сгруппировать 602" transform="translate(-291 -42)">
      <g id="Группа_4" data-name="Группа 4" transform="translate(0 30.079)">
        <path id="Прямоугольник_4" data-name="Прямоугольник 4" d="M1075.4,259V367.77c0,9.768-4.381,15.033-14.149,15.033h-152.1c-9.768,0-14.149-4.381-14.149-14.149V259" transform="translate(-0.694 -13.304)" fill="none" stroke="#eef3f5" stroke-width="10"/>
        <rect id="Фигура_5" data-name="Фигура 5" width="172" height="4" transform="translate(899 245.921)" fill="#eef3f5"/>
        <rect id="Фигура_5_копия" data-name="Фигура 5 копия" width="12" height="5" transform="translate(1059 216.921)" fill="#eef3f5"/>
        <rect id="Фигура_5_копия_2" data-name="Фигура 5 копия 2" width="12" height="5" transform="translate(898 216.921)" fill="#eef3f5"/>
        <path id="Прямоугольник_1" data-name="Прямоугольник 1" d="M1062.441,189a17.686,17.686,0,0,1,17.686,17.686V361.441a17.686,17.686,0,0,1-17.686,17.686H907.686A17.686,17.686,0,0,1,890,361.441V206.686A17.686,17.686,0,0,1,907.686,189" transform="translate(-0.116 -5.206)" fill="none" stroke="#dbdee5" stroke-linecap="round" stroke-width="2"/>
        <path id="Прямоугольник_5" data-name="Прямоугольник 5" d="M1072.325,228V366.837a8.843,8.843,0,0,1-8.843,8.843H907.843A8.843,8.843,0,0,1,899,366.837V228" transform="translate(-1.157 -9.718)" fill="none" stroke="#dbdee5" stroke-linecap="round" stroke-width="2" stroke-dasharray="7 4"/>
        <g id="Группа_6" data-name="Группа 6" transform="translate(889 245.696)">
          <line id="Фигура_3" data-name="Фигура 3" x2="190" transform="translate(0 0.225)" fill="none" stroke="#dbdee5" stroke-width="2"/>
          <line id="Фигура_3_копия" data-name="Фигура 3 копия" x2="174.209" transform="translate(8.843 4.864)" fill="none" stroke="#dbdee5" stroke-width="2"/>
        </g>
        <g id="Группа_6_копия" data-name="Группа 6 копия" transform="translate(889 217.398)">
          <path id="Фигура_3-2" data-name="Фигура 3" d="M889,227h22.18m147.968,0h19.979" transform="translate(-889 -227)" fill="none" stroke="#dbdee5" stroke-width="2"/>
          <path id="Фигура_3_копия-2" data-name="Фигура 3 копия" d="M899,232h13.275m147.579,0h13.356" transform="translate(-890.157 -227.578)" fill="none" stroke="#dbdee5" stroke-width="2"/>
        </g>
        <g id="Группа_7" data-name="Группа 7" transform="translate(911.108 144)">
          <rect id="Фигура_4" data-name="Фигура 4" width="131" height="5" transform="translate(9.892 14.921)" fill="#e2f0e6"/>
          <rect id="Фигура_4_копия" data-name="Фигура 4 копия" width="149" height="5" transform="translate(-0.108 95.921)" fill="#e2f0e6"/>
          <path id="Прямоугольник_2" data-name="Прямоугольник 2" d="M925,163.455V152.843A8.843,8.843,0,0,1,933.843,144h113.192a8.843,8.843,0,0,1,8.843,8.843v10.612" transform="translate(-915.273 -144)" fill="none" stroke="#289548" stroke-width="2"/>
          <path id="Прямоугольник_2_копия" data-name="Прямоугольник 2 копия" d="M914,247.357V174.843A8.843,8.843,0,0,1,922.843,166h129.994a8.843,8.843,0,0,1,8.843,8.843v72.514" transform="translate(-914 -146.545)" fill="none" stroke="#289548" stroke-width="2"/>
          <g id="Группа_8" data-name="Группа 8" transform="translate(16.351 32.72)">
            <ellipse id="Эллипс_1" data-name="Эллипс 1" cx="13.5" cy="13" rx="13.5" ry="13" transform="translate(91.541 24.201)" fill="none" stroke="#289548" stroke-width="2"/>
            <path id="Эллипс_1_копия" data-name="Эллипс 1 копия" d="M1040.545,204.261a13.265,13.265,0,1,1,17.493-.047" transform="translate(-944.465 -181)" fill="none" stroke="#289548" stroke-width="2"/>
            <path id="Прямоугольник_3" data-name="Прямоугольник 3" d="M951,232.521V190.074a7.074,7.074,0,1,1,14.149,0v42.447" transform="translate(-934.631 -181.231)" fill="none" stroke="#289548" stroke-width="2"/>
            <rect id="Прямоугольник_3_копия" data-name="Прямоугольник 3 копия" width="7.853" height="40.254" rx="3.926" transform="translate(0 1.318)" fill="none" stroke="#289548" stroke-width="2"/>
          </g>
        </g>
        <line id="Фигура_3_копия_2" data-name="Фигура 3 копия 2" x2="174" transform="translate(898 245.921)" fill="none" stroke="#212225" stroke-width="2"/>
        <line id="Фигура_3_копия_6" data-name="Фигура 3 копия 6" x2="103.464" transform="translate(933.216 250.56)" fill="none" stroke="#212225" stroke-width="2"/>
        <line id="Фигура_3_копия_3" data-name="Фигура 3 копия 3" x2="21" transform="translate(1060 216.921)" fill="none" stroke="#212225" stroke-width="2"/>
        <line id="Фигура_3_копия_4" data-name="Фигура 3 копия 4" x2="21" transform="translate(889 216.921)" fill="none" stroke="#212225" stroke-width="2"/>
        <line id="Фигура_3_копия_5" data-name="Фигура 3 копия 5" x2="12" transform="translate(1060 221.921)" fill="none" stroke="#212225" stroke-width="2"/>
        <line id="Фигура_3_копия_5-2" data-name="Фигура 3 копия 5" x2="12" transform="translate(898 221.921)" fill="none" stroke="#212225" stroke-width="2"/>
      </g>
      <g id="Сгруппировать_601" data-name="Сгруппировать 601" transform="translate(-15.43 96.57)">
        <g id="Эллипс_1_копия_7" data-name="Эллипс 1 копия 7" transform="translate(959.923 203.838)" fill="none" stroke="#e2f0e6" stroke-width="6">
          <circle cx="39.761" cy="39.761" r="39.761" stroke="none"/>
          <circle cx="39.761" cy="39.761" r="42.761" fill="none"/>
        </g>
        <circle id="Эллипс_1_копия_5" data-name="Эллипс 1 копия 5" cx="45.702" cy="45.702" r="45.702" transform="translate(954.43 197.43)" fill="none" stroke="#289548" stroke-width="2"/>
        <circle id="Эллипс_1_копия_6" data-name="Эллипс 1 копия 6" cx="40.218" cy="40.218" r="40.218" transform="translate(959.923 202.924)" fill="none" stroke="#289548" stroke-width="2"/>
        <g id="Группа_1_копия" data-name="Группа 1 копия" transform="translate(954.43 197.43)">
          <path id="Фигура_1" data-name="Фигура 1" d="M954,247h4.564m81.893,0h4.554" transform="translate(-954 -201.494)" fill="none" stroke="#289548" stroke-linecap="round" stroke-width="2"/>
          <path id="Фигура_1_копия_4" data-name="Фигура 1 копия 4" d="M1004,197v4.564m0,81.893v4.554" transform="translate(-958.494 -197)" fill="none" stroke="#289548" stroke-linecap="round" stroke-width="2"/>
          <path id="Фигура_1_копия_5" data-name="Фигура 1 копия 5" d="M960.7,222l3.953,2.282m70.921,40.946,3.944,2.277" transform="translate(-954.602 -199.247)" fill="none" stroke="#289548" stroke-linecap="round" stroke-width="2"/>
          <path id="Фигура_1_копия_5-2" data-name="Фигура 1 копия 5" d="M1024.505,203.7l-2.282,3.953m-40.946,70.921L979,282.517" transform="translate(-956.247 -197.602)" fill="none" stroke="#289548" stroke-linecap="round" stroke-width="2"/>
          <path id="Фигура_1_копия_6" data-name="Фигура 1 копия 6" d="M979,203.7l2.282,3.953m40.946,70.921,2.277,3.944" transform="translate(-956.247 -197.602)" fill="none" stroke="#289548" stroke-linecap="round" stroke-width="2"/>
          <path id="Фигура_1_копия_6-2" data-name="Фигура 1 копия 6" d="M1039.517,222l-3.953,2.282m-70.922,40.946-3.944,2.277" transform="translate(-954.602 -199.247)" fill="none" stroke="#289548" stroke-linecap="round" stroke-width="2"/>
        </g>
      </g>
      <g id="Группа_15_копия_6" data-name="Группа 15 копия 6" transform="translate(972 315)">
        <path id="Прямоугольник_8_копия" data-name="Прямоугольник 8 копия" d="M989.778,841.414c-.291-.162-12.084-7.2-12.329-7.367s-.451-.321-.451-.6v-5.263c0-.351.316-.474.6-.3s12.232,7.365,12.479,7.518.3.286.3.451v5.263c0,.263-.14.382-.321.382A.587.587,0,0,1,989.778,841.414Zm0-10.722c-.291-.162-12.084-7.2-12.329-7.367s-.451-.321-.451-.6V806.786a2.135,2.135,0,0,1,2.081-2.193h7.851c1.183,0,1.39.208,1.39,1.391v3.684c0,.094.09.226.172.178l11.148-6.523a.122.122,0,0,0,0-.212l-11.148-6.524a.123.123,0,0,0-.184.105s.011,2.258.011,2.648c0,1.183-.207,1.39-1.39,1.39h-7.851A2.026,2.026,0,0,1,977,798.667V793.1A2.079,2.079,0,0,1,979.1,791H994.89a12.33,12.33,0,0,1,0,24.658h-8.946a1.768,1.768,0,0,0-1.729,1.8v2.857a1.815,1.815,0,0,0,.934,1.6c.238.129,4.682,2.6,4.929,2.757s.3.286.3.451v5.262c0,.264-.141.382-.321.382A.587.587,0,0,1,989.778,830.693Z" transform="translate(-976.997 -790.999)" fill="#e2f0e6" stroke="#289548" stroke-width="2"/>
      </g>
    </g>
  </g>
</svg>
