<svg version="1.1" id="Слой_1" xmlns="http://www.w3.org/2000/svg" x="0" y="0" viewBox="0 0 318 253" xml:space="preserve"><g id="images" transform="translate(-524 -212)"><path id="Прямоугольник_1_копия_13" fill="#DBDEE5" d="M814 465v-19h-38v19h-2v-19h-54v-2h54v-39h2v39h38v-39h-4v-2h4v-38h-4v-2h4v-23h2v23h6v2h-6v38h26v2h-26v39h26v2h-26v19h-2zm-19-56v-4h-4v-2h4v-4h2v4h4v2h-4v4h-2zm19-79v-4h-4v-2h4v-4h2v4h4v2h-4v4h-2z"/><path id="Прямоугольник_1_копия_14" fill="#DBDEE5" d="M590 465v-19h-38v9h-2v-9h-26v-2h26v-39h-26v-2h26v-38h-6v-2h6v-23h2v23h4v2h-4v38h14v2h-14v39h38v-7h2v7h34v2h-34v19h-2zm-11-56v-4h-4v-2h4v-4h2v4h4v2h-4v4h-2z"/><g id="Группа_1_копия"><g id="Эллипс_3693" transform="translate(583 225)" fill="none"><circle cx="100" cy="100" r="100"/><circle stroke="#DBDEE5" stroke-width="2" cx="100" cy="100" r="99"/></g><g id="Эллипс_3693_копия" transform="translate(598 240)" fill="none"><circle cx="85" cy="85" r="85"/><circle stroke="#DBDEE5" stroke-width="2" cx="85" cy="85" r="84"/></g><g id="Группа_2" fill="none" stroke="#DBDEE5" stroke-width="2" stroke-linecap="round"><path id="Фигура_1141" d="M591 301.5l9.7 2.6m163.2 43.7l9.7 2.6"/><path id="Фигура_1141_копия" d="M709.6 229.8l-2.6 9.7m-46.1 171.8l-2.3 8.8"/><path id="Фигура_1141_копия_2" d="M634.4 243.7l4.9 8.4m84.6 146.6l5 8.7"/><path id="Фигура_1141_копия_2-2" d="M769 276.8l-8.7 5m-154.1 89l-7.9 4.5"/><path id="Фигура_1141_копия_3" d="M600.2 278.6l9.6 5.5m145.4 84l8.7 5"/><path id="Фигура_1141_копия_3-2" d="M733.3 240l-5 8.7m-89 154.1l-4.5 7.9"/><path id="Фигура_1141_копия_3-3" d="M657.1 234l2.6 9.7"/><path id="Фигура_1141_копия_3-4" d="M778.5 300.8l-9.7 2.6m-171.9 46.1l-8.8 2.3"/><path id="Фигура_1141_копия_4" d="M587.9 325.7H599m168.9 0h9.1"/><path id="Фигура_1141_копия_4-2" d="M683.9 226.4v9.5m0 177.8v10"/><path id="Фигура_1141_копия_4-3" d="M614.9 258.6l7.8 7.8m119.4 119.4l6.4 6.4"/><path id="Фигура_1141_копия_4-4" d="M753.5 255.8l-7.1 7.1M620.6 388.7l-6.2 6.2"/></g><g id="Фигура_11_копия_11"><path fill="none" d="M756 288.2c.2-2.7-1.2-5.3-3.7-6.6-2.7-1.7-61.7-35.4-65.1-37.2s-5.6-1.7-8.1-.2-62.8 36-64.9 37.2-4.2 2.8-4.2 7.1v74.2c0 2.8 1.5 5.4 3.9 6.8 2.7 1.6 63.4 36.4 65.9 37.7 2.1 1 4.5 1 6.6 0 1.2-.6 63.8-36.6 65.4-37.5s4.2-3 4.2-6.6v-74.9z"/><path fill="#DBDEE5" d="M682.7 243c-1.2 0-2.4.4-3.6 1.1-2.5 1.5-62.8 36-64.9 37.2-2.1 1.2-4.2 2.8-4.2 7.1v74.2c0 2.4 1.2 5.2 3.9 6.8 2.7 1.6 63.4 36.4 65.9 37.7 1 .6 2.1.8 3.2.8 1.4 0 2.7-.4 3.4-.8 1.2-.6 63.8-36.6 65.4-37.5 1.6-.9 4.2-3 4.2-6.6v-75c0-3.1-1-4.9-3.7-6.6s-61.7-35.4-65.1-37.2c-1.8-.8-3.2-1.2-4.5-1.2m0-2c1.6 0 3.4.5 5.4 1.6 1.8 1 18.2 10.3 32.9 18.7 14.6 8.3 30.9 17.7 32.3 18.6 3.3 2 4.6 4.5 4.6 8.3v75c0 2-.7 3.9-1.9 5.5-.8 1.1-1.9 2-3.2 2.8-.9.5-18 10.4-32.8 18.9-11.9 6.8-31.9 18.3-32.7 18.7-1.2.6-2.8 1-4.4 1-1.5 0-2.9-.3-4.1-1-2.6-1.4-63.3-36.2-65.9-37.8-1.6-.9-2.9-2.3-3.7-3.9-.8-1.5-1.2-3.1-1.2-4.7v-74.2c0-2.4.5-4.3 1.7-5.8 1-1.4 2.3-2.3 3.5-3 .4-.3 3.4-1.9 7.8-4.5 16.5-9.5 55.1-31.6 57.1-32.8 1.6-.9 3-1.4 4.6-1.4z"/></g><g id="Фигура_11_копия_12"><path fill="none" d="M743.2 295.4c.2-2.2-1-4.4-3-5.4-2.2-1.4-50.6-29-53.5-30.5s-4.6-1.4-6.7-.2-51.6 29.5-53.3 30.5c-2.2 1-3.6 3.3-3.4 5.8v60.9c0 2.3 1.3 4.4 3.2 5.6 2.2 1.3 52.1 29.9 54.1 30.9 1.7.8 3.7.8 5.5 0 1-.5 52.4-30 53.7-30.7 2-1.1 3.3-3.1 3.4-5.4v-61.5z"/><path fill="#DE5A48" d="M683 258.3c-1 0-2 .3-3 .9-2.1 1.2-51.6 29.5-53.3 30.5s-3.4 2.3-3.4 5.8v60.9c0 2 1 4.3 3.2 5.6 2.2 1.3 52.1 29.9 54.1 30.9.8.5 1.8.6 2.6.6 1.2 0 2.2-.3 2.8-.6 1-.5 52.4-30 53.7-30.7 1.3-.8 3.4-2.5 3.4-5.4v-61.5c0-2.5-.8-4-3-5.4s-50.6-29-53.5-30.5c-1.3-.7-2.5-1.1-3.6-1.1m0-2c1.4 0 2.9.4 4.6 1.3 3.3 1.7 51.7 29.4 53.6 30.6 1.4.9 2.4 1.8 3 3 .6 1.1.9 2.5.9 4.1v61.5c0 1.7-.6 3.3-1.7 4.7-.7.9-1.6 1.7-2.7 2.4-.7.4-14.8 8.5-27 15.5-9.7 5.6-26.2 15-26.8 15.3-1 .5-2.4.8-3.7.8s-2.5-.3-3.6-.9c-2.2-1.2-52-29.7-54.2-31-1.3-.8-2.4-1.9-3.2-3.3-.7-1.2-1-2.6-1-4v-60.9c0-4.4 2.2-6.3 4.4-7.5.4-.2 2.7-1.5 6.2-3.6 13.6-7.8 45.4-26 47-27 1.6-.6 2.9-1 4.2-1z"/></g><g id="Фигура_11_копия_13"><path fill="none" d="M734 299.5c.1-1.9-.9-3.7-2.6-4.6-1.9-1.2-43.1-24.7-45.5-26s-3.9-1.2-5.7-.2-43.9 25.1-45.3 26c-1.9.9-3.1 2.8-2.9 4.9v51.8c0 2 1.1 3.8 2.7 4.8 1.9 1.1 44.3 25.4 46 26.3 1.5.7 3.2.7 4.6 0 .9-.4 44.6-25.5 45.7-26.1 1.7-.9 2.8-2.6 2.9-4.6l.1-52.3z"/><path fill="#FFE0DA" d="M682.9 274.2c-3.7 2.2-28.7 16.4-39.7 22.8l-5.1 2.7-.2 51.4c1.7 1 40 23 45.3 25.9 5-2.8 42.9-24.5 44.9-25.1V300c-4-2.5-40.1-23.1-45.2-25.8m-.1-6.2c.9 0 1.9.3 3.1 1 2.4 1.3 43.6 24.8 45.5 26s2.6 2.5 2.6 4.6v52.3c0 2.5-1.8 3.9-2.9 4.6-1.1.6-44.8 25.7-45.7 26.1-.5.3-1.4.5-2.4.5-.7 0-1.5-.1-2.2-.5-1.7-.9-44.1-25.2-46-26.3-1.9-1.1-2.7-3.1-2.7-4.8v-51.8c0-3 1.4-4.1 2.9-4.9s43.6-24.9 45.3-26c.8-.5 1.6-.8 2.5-.8z"/></g><g id="Фигура_11_копия_14"><path fill="none" d="M734 299.5c.1-1.9-.9-3.7-2.6-4.6-1.9-1.2-43.1-24.7-45.5-26s-3.9-1.2-5.7-.2-43.9 25.1-45.3 26c-1.9.9-3.1 2.8-2.9 4.9v51.8c0 2 1.1 3.8 2.7 4.8 1.9 1.1 44.3 25.4 46 26.3 1.5.7 3.2.7 4.6 0 .9-.4 44.6-25.5 45.7-26.1 1.7-.9 2.8-2.6 2.9-4.6l.1-52.3z"/><path fill="#DE5A48" d="M682.8 268c-.9 0-1.7.3-2.5.8-1.8 1-43.8 25.1-45.3 26-1.5.8-2.9 2-2.9 4.9v51.8c0 1.7.9 3.6 2.7 4.8 1.9 1.1 44.3 25.4 46 26.3.7.4 1.5.5 2.2.5 1 0 1.9-.3 2.4-.5.9-.4 44.6-25.5 45.7-26.1 1.1-.6 2.9-2.1 2.9-4.6v-52.3c0-2.1-.7-3.4-2.6-4.6-1.9-1.2-43.1-24.7-45.5-26-1.2-.7-2.2-1-3.1-1m0-2c1.2 0 2.5.4 4.1 1.2 2.8 1.5 44 25 45.6 26 2.4 1.5 3.5 3.4 3.5 6.3v52.3c0 1.6-.5 3-1.5 4.2-.6.8-1.4 1.5-2.4 2.1-.3.2-44.7 25.7-45.8 26.2-.9.5-2.2.7-3.3.7-1.2 0-2.2-.3-3.2-.8-1.8-1-44.2-25.2-46.1-26.3-1.2-.7-2.2-1.7-2.8-2.9-.6-1.1-.9-2.3-.9-3.5v-51.8c0-1.8.4-3.2 1.3-4.4.8-1.1 1.8-1.7 2.6-2.2.3-.2 2.3-1.3 5.4-3.1 11.5-6.6 38.5-22 39.9-22.9 1.3-.8 2.4-1.1 3.6-1.1z"/></g><path id="Фигура_1150" fill="none" stroke="#DE5A48" stroke-width="2" d="M743 293l-8 4"/><path id="Фигура_1150_копия" fill="none" stroke="#DE5A48" stroke-width="2" d="M631.6 354.8l-8.4 5.5"/><path id="Фигура_1151" fill="none" stroke="#DE5A48" stroke-width="2" d="M743 360l-8-5"/><path id="Фигура_1151_копия" fill="none" stroke="#DE5A48" stroke-width="2" d="M632 297l-9-5"/><path id="Фигура_1152" fill="none" stroke="#DE5A48" stroke-width="2" d="M683 267v-10"/><path id="Фигура_1152_копия" fill="none" stroke="#DE5A48" stroke-width="2" stroke-linecap="round" d="M683 394v-10"/><g id="Эллипс_78" transform="translate(570 212)" fill="none"><circle cx="113" cy="113" r="113"/><circle stroke="#212225" stroke-width="2" cx="113" cy="113" r="112"/></g><g id="Logo_ARK.io_Symbol_Black" transform="translate(649.801 294.033)"><path id="ARK" fill="#FFE0DA" stroke="#DE5A48" stroke-width="2" stroke-linecap="round" stroke-linejoin="round" d="M34.2 19.3L0 54.7 34.2 0l34.2 54.7-34.2-35.4zM24.1 37.7h20.2l5.8 6H18.3l5.8-6zm4.2-4.4l5.9-6.1 6 6.1H28.3z"/></g></g></g></svg>