<svg version="1.1" id="Слой_1" xmlns="http://www.w3.org/2000/svg" x="0" y="0" viewBox="0 0 442 277.2" xml:space="preserve"><style type="text/css">.st0{fill:#dbdee5}.st1{fill:none;stroke:#212225;stroke-width:2}.st2{fill:#212225}.st3{stroke:#212225;stroke-width:2;stroke-linecap:round}.st3,.st4,.st5{fill:none}.st5{stroke:#dbdee5;stroke-width:2}</style><g id="images" transform="translate(0 -5.808)"><g id="images-2"><path id="Прямоугольник_1442_копия_12" class="st0" d="M52 283v-15H14v5h-2v-5H0v-2h12v-2h2v2h38v-2h2v2h16v2H54v15h-2z"/><path id="Прямоугольник_1442_копия_14" class="st0" d="M388 283v-15h-16v-2h16v-2h2v2h38v-2h2v2h12v2h-12v5h-2v-5h-38v15h-2z"/><path id="Прямоугольник_1442_копия_13" class="st0" d="M92 253v-4h-4v-2h4v-4h2v4h4v2h-4v4h-2zm-40-4v-21h-6v-2h6v-38H36v-2h16v-11h2v11h13v2H54v38h38v-20h2v20h6v2h-6v5h-2v-5H54v21h-2z"/><path id="Прямоугольник_1442_копия_15" class="st0" d="M388 235v-7h-6v-2h6v-38h-38v12h-2v-12h-22v-2h22v-8h2v8h38v-38h-12v-2h12v-24h2v24h8v2h-8v38h18v2h-18v38h10v2h-10v7h-2zm24-83v-4h-4v-2h4v-4h2v4h4v2h-4v4h-2z"/><g id="images-3"><g id="coin" transform="translate(0 1)"><path id="Прямоугольник_1440" class="st1" d="M142 236v-20h199v27H111v23h195v-18"/><path id="Прямоугольник_1441_копия_10" class="st2" d="M296 266v-18h2v18h-2zm-13 0v-18h2v18h-2zm-20 0v-18h2v18h-2zm-23 0v-18h2v18h-2zm-28 0v-18h2v18h-2zm-30 0v-18h2v18h-2zm-30 0v-18h2v18h-2zm-20 0v-18h2v18h-2zm-13 0v-18h2v18h-2zm210-32v-17h2v17h-2zm-13 0v-17h2v17h-2zm-20 0v-17h2v17h-2zm-30 0v-17h2v17h-2zm-21 0v-17h2v17h-2zm-30 0v-17h2v17h-2zm-50 0v-17h2v17h-2zm-13 0v-17h2v17h-2zm33-9v-8h2v8h-2z"/></g><path id="Прямоугольник_1441" class="st2" d="M75 266h292v2H75z"/></g><g id="Группа_1" transform="translate(0 -1)"><path id="Эллипс_3693_копия_3" class="st3" d="M182.2 44.2c38-22.5 87.1-10 109.6 28s10 87.1-28 109.6-87.1 10-109.6-28c-3.3-5.5-5.9-11.4-7.7-17.6"/><path id="Эллипс_3693_копия_5" class="st3" d="M224.9 218c-9.9.1-19.8-1.1-29.3-3.7-56-15-89.2-72.6-74.2-128.6S194-3.6 250 11.4c36.1 9.7 64.3 37.8 74.1 73.8"/><g id="Эллипс_3693" transform="translate(123 13)"><circle class="st4" cx="100" cy="100" r="100"/><circle class="st5" cx="100" cy="100" r="99"/></g><g id="Эллипс_3693_копия" transform="translate(138 28)"><circle class="st4" cx="85" cy="85" r="85"/><circle class="st5" cx="85" cy="85" r="84"/></g><g id="Группа_2"><path id="Фигура_1141" class="st5" d="M131 89.5l10.7 2.9m162.2 43.4l9.7 2.6"/><path id="Фигура_1141_копия" class="st5" d="M249.6 17.8l-2.6 9.7m-46.1 171.8l-2.6 9.7"/><path id="Фигура_1141_копия_2" class="st5" d="M174.4 31.7l5.5 9.6m84 145.4l5 8.7"/><path id="Фигура_1141_копия_2-2" class="st5" d="M309 64.8l-8.7 5m-154.1 89l-8.7 5"/><path id="Фигура_1141_копия_3" class="st5" d="M140.2 66.6l9.6 5.5m145.4 84l8.7 5"/><path id="Фигура_1141_копия_3-2" class="st5" d="M273.3 28l-5 8.7m-89 154.1l-5 8.7"/><path id="Фигура_1141_копия_3-3" class="st5" d="M197.1 22l2.9 10.7m43.4 162.2l2.6 9.7"/><path id="Фигура_1141_копия_3-4" class="st5" d="M318.5 88.8l-9.7 2.6m-171.9 46.1l-9.7 2.6"/><path id="Фигура_1141_копия_4" class="st5" d="M127.9 113.7H139m167.9 0h10"/><path id="Фигура_1141_копия_4-2" class="st5" d="M223.9 13.7v10.1m0 177.9v10"/><path id="Фигура_1141_копия_4-3" class="st5" d="M154.9 46.6l7.8 7.8m118.8 118.8l7.1 7.1"/><path id="Фигура_1141_копия_4-4" class="st5" d="M293.5 43.8l-7.1 7.1M160.6 176.7l-7.1 7.1"/></g><g id="Эллипс_3694" transform="translate(166 55)"><circle cx="56.5" cy="56.5" r="56.5" fill="#de5846"/><circle class="st1" cx="56.5" cy="56.5" r="55.5"/></g><path id="Прямоугольник_1442" d="M221 125v-7.1h-3.6l-2.3 7.1H209l10.8-31h8.5l10.7 31h-6.1l-2.3-7.1H227v7.1h-6zm-1.9-12.2h9.9l-4.8-12.7h-.2l-4.9 12.7z" fill="#fff"/></g></g></g></svg>