<svg version="1.1" id="Layer_1" xmlns="http://www.w3.org/2000/svg" x="0" y="0" viewBox="0 0 20.604 17.507" xml:space="preserve"><g id="Path_5"><path d="M925.838 1241.036h10.279l2.2-8.78h-4.175l-.893 4.021h-3.568l-1.164-5.6h10.767l1.18-4.152h-17.6l2.974 14.511z" fill="none" transform="translate(-921.36 -1225.028)"/><path d="M936.116 1241.036l2.201-8.78h-4.174l-.893 4.02h-3.568l-1.164-5.596h10.767l1.18-4.152H922.86l2.978 14.508h10.278m0 1.5h-10.278a1.5 1.5 0 01-1.47-1.199l-2.977-14.507a1.5 1.5 0 011.47-1.802h17.603a1.5 1.5 0 011.443 1.91l-1.179 4.152a1.5 1.5 0 01-.92.996c.02.177.009.358-.036.534l-2.2 8.78a1.5 1.5 0 01-1.456 1.136zm-5.214-7.76h1.144l.577-2.596h-2.261l.54 2.596z" fill="currentColor" transform="translate(-921.36 -1225.028)"/></g></svg>