<svg version="1.1" id="Слой_1" xmlns="http://www.w3.org/2000/svg" x="0" y="0" viewBox="0 0 24 21" xml:space="preserve"><path fill="currentColor" d="M9.304 19.527c.1 0 .1 0 .2-.1.4-.9 1.2-3 1.2-3.2v-.2s-.1-.1-.2-.1c-3.6-.5-5.1-2.2-5.1-2.3 1.1.7 3.6 1.1 6.5 1.1 2.7 0 5.2-.4 6.7-1.1-2 1.9-5.1 2.3-5.1 2.3-.1 0-.2 0-.2.1v.3c.1.2 1.1 2.9 1.1 3.1 0 .1.2.2.3.2 4.8-.7 7.3-2.9 7.4-2.9.1-.1.1-.3.2-.4v-.1c.3-3.5 0-6.8-.3-8.9-.4-2.6-.9-4.3-1.1-4.6v-.1c0-.1 0-.1-.1-.2-1.5-.7-4.4-.9-5.9-.9h-1.3c0 .1 2.5 1.3 3.9 2h.1c-.2 0-2.8-.8-5.5-.8-2.4 0-4.9.5-5.6.7.2-.1 4.1-1.9 4.2-2h-1.1c-3.9 0-5.7.6-6.2.8-.2.1-.2.1-.3.3-1.7 4-1.7 11-1.4 13.6 0 .1 0 .2.2.3 3.2 2.5 7.3 2.9 7.4 2.9v.2m7-12.8c1.4 0 2.5 1.1 2.5 2.5s-1.1 2.4-2.5 2.4-2.5-1.1-2.5-2.4c0-1.4 1.1-2.5 2.5-2.5m-8.6 0c1.4 0 2.5 1.1 2.5 2.5s-1.1 2.4-2.5 2.4-2.5-1.1-2.5-2.4c0-1.4 1.1-2.5 2.5-2.5m1.6 14.3h-.2s-4.6-.4-8.2-3.2c-.4-.3-.7-.8-.7-1.3-.3-2.8-.4-10.1 1.5-14.4.2-.4.4-.8 1.1-1.1.8-.4 2.8-1 6.8-1h1.1l2 .1h2c2 0 4.8.2 6.6 1 .4.2.7.5.9.9.5.9 1 3.3 1.3 5.1.3 2.2.7 5.6.3 9.3 0 .2-.1.8-.6 1.4-.1.1-.9.799-2.3 1.5-1.8.9-3.8 1.6-5.9 1.9h-.2c-.7 0-1.5-.4-1.8-1.201-.1-.2-.8-2.1-1-2.7-.2.4-.5 1.3-1.1 2.9-.3.4-.9.8-1.6.8zm7-12.8c-.5 0-1 .4-1 1 0 .5.4.9 1 .9s1-.4 1-.9c0-.6-.5-1-1-1zm-8.6 0c-.5 0-1 .4-1 1 0 .5.4.9 1 .9s1-.4 1-.9c0-.6-.5-1-1-1z"/></svg>