<svg version="1.1" id="Regular" xmlns="http://www.w3.org/2000/svg" x="0" y="0" viewBox="0 0 24 24" xml:space="preserve"><path d="M14.41 22.35a.5.5 0 00.64.48c5.97-1.723 9.412-7.96 7.689-13.929-1.723-5.97-7.96-9.412-13.929-7.688S-.602 9.172 1.121 15.14a11.25 11.25 0 007.689 7.69.5.5 0 00.64-.48V20A2.81 2.81 0 016 18.28 6.07 6.07 0 004.64 16c2.85.69 2.9 2.54 4.84 1.67a4 4 0 01.63-1.82c-2.2-.25-4.52-.6-4.52-4.4a3.84 3.84 0 011-2.66 3.56 3.56 0 01.1-2.62s.83-.27 2.73 1a9.39 9.39 0 015 0c1.89-1.28 2.72-1 2.72-1a3.56 3.56 0 01.1 2.62 3.83 3.83 0 011 2.66c0 3.81-2.32 4.15-4.53 4.39.473.682.712 1.5.68 2.33l.02 4.18z" fill="none" stroke="currentColor" stroke-width="1.5" stroke-linecap="round" stroke-linejoin="round"/></svg>