<svg version="1.1" id="Слой_1" xmlns="http://www.w3.org/2000/svg" x="0" y="0" viewBox="0 0 24 24" xml:space="preserve"><g id="Logos_Photos-Images_social-instagram" transform="translate(-511.993 -497.004)"><g id="Group_13"><g id="Regular_13" fill="none" stroke="currentColor" stroke-width="1.5" stroke-linecap="round" stroke-linejoin="round"><path id="Rectangle-path_5" d="M518.7 497.8h10.5c3.3 0 6 2.7 6 6v10.5c0 3.3-2.7 6-6 6h-10.5c-3.3 0-6-2.7-6-6v-10.5c0-3.4 2.7-6 6-6z"/><path id="Shape_266" d="M529.1 505l-.8 7.1c0 .4-.4.7-.8.7-.2 0-.3-.1-.4-.2l-1.5-1.5-3.7 3.7c-.3.3-.8.3-1.1 0l-2.1-2.1c-.3-.3-.3-.8 0-1.1l3.7-3.7-1.5-1.5c-.3-.3-.3-.8 0-1.1.1-.1.3-.2.4-.2l7.1-.8c.4 0 .8.3.8.7-.1-.1-.1-.1-.1 0z"/></g></g></g></svg>