<svg version="1.1" id="Regular" xmlns="http://www.w3.org/2000/svg" x="0" y="0" viewBox="0 0 24 24" xml:space="preserve"><path fill="none" stroke="currentColor" stroke-width="1.5" stroke-linecap="round" stroke-linejoin="round" d="M.74.75h22.5v22.5H.74z"/><path id="Shape" d="M8.56 18.36H3.92l2.28-3.09 2.36 3.09z" fill="none" stroke="currentColor" stroke-width="1.5" stroke-linecap="round" stroke-linejoin="round"/><path id="Shape-2" d="M12.75 14.41L8.88 5.64H4.17V6C7.44 9.95 6.42 8.28 11 18.36h.48l4-12.72h4.33V6L18.5 7.21a.37.37 0 00-.14.35v8.87a.37.37 0 00.14.35l1.32 1.57h-6.15l1.14-1.6c.13-.13.13-.16.13-.35V7.6" fill="none" stroke="currentColor" stroke-width="1.5" stroke-linecap="round" stroke-linejoin="round"/><path fill="none" stroke="currentColor" stroke-width="1.5" stroke-linecap="round" stroke-linejoin="round" d="M6.2 15.27V8.48"/></svg>