<svg version="1.1" id="Слой_1" xmlns="http://www.w3.org/2000/svg" x="0" y="0" viewBox="0 0 24.1 20.6" xml:space="preserve"><g id="Logos_Messaging_Video-Meetings_messaging-we-chat" transform="translate(-416.044 -1342.601)"><path id="path11-1" d="M424.1 1356.1c-.3-2.6 2.5-7.6 7.6-7.4-.4-1.8-1.6-3.4-3.3-4.3h0a8.83 8.83 0 00-7.1-.6c-1.5.5-2.8 1.6-3.7 2.9-.8 1.3-1 2.8-.7 4.2.4 1.6 1.4 2.9 2.8 3.8-.3.7-.5 1.5-.7 2.2.8-.4 1.7-.9 2.5-1.3.9.3 1.7.5 2.6.5m-2-8.8c.1 0 .3 0 .3.2 0 .1 0 .3-.2.3h-.2c-.1-.1-.1-.2 0-.4l.1-.1m4.2 0c.1 0 .3 0 .3.1s0 .3-.1.3h-.2c-.1-.1-.1-.2 0-.4-.1 0 0 0 0 0" fill="none" stroke="currentColor" stroke-width="1.5" stroke-linecap="round" stroke-linejoin="round"/><g id="Сгруппировать_15"><path id="path13-81" d="M438.9 1354.5c-.5-1.2-1.5-2.1-2.6-2.7-2.1-1-4.5-1-6.5 0-1.4.7-2.5 2-2.9 3.6-.3 1.2 0 2.4.6 3.4 1 1.5 2.5 2.5 4.3 2.8 1.2.2 2.5.1 3.7-.2.7.3 1.4.7 2.1 1.1l-.6-1.8c.8-.5 1.5-1.3 1.9-2.1.5-1.4.6-2.8 0-4.1h0zm-7.6-.1c.1 0 .3 0 .3.2v.2h0c0 .1-.2.2-.3.1-.1 0-.2-.2-.1-.3 0-.1 0-.1.1-.2m3.7 0c.1 0 .3.1.3.2v.1h0c-.1.1-.2.2-.3.1h-.1c0-.1-.1-.1-.1-.2-.1-.1 0-.2.2-.2" fill="none" stroke="currentColor" stroke-width="1.5" stroke-linecap="round" stroke-linejoin="round"/></g></g></svg>