<svg xmlns="http://www.w3.org/2000/svg" xmlns:xlink="http://www.w3.org/1999/xlink" viewBox="0 0 20 20">
  <defs>
    <style>
      .cls-1 {
        clip-path: url(#clip-Canvas);
      }

      .cls-2 {
        fill: #8c97da;
      }

      .cls-3 {
        fill: rgba(0,0,0,0);
      }
    </style>
    <clipPath id="clip-Canvas">
      <rect width="20" height="20"/>
    </clipPath>
  </defs>
  <g class="cls-1">
    <path d="M4,18V7H5V6a5.126,5.126,0,0,1,5-5,5.127,5.127,0,0,1,5,5V7h1V18Zm1.993-1.99h8.014V9H5.993ZM7,6V7h6V6a3.535,3.535,0,0,0-3-3A3.535,3.535,0,0,0,7,6Zm2.5,8a1.5,1.5,0,1,1,0-3h1a1.5,1.5,0,0,1,0,3Z"/>
  </g>
</svg>
