<?xml version="1.0" encoding="utf-8"?>
<!-- Generator: Adobe Illustrator 24.1.0, SVG Export Plug-In . SVG Version: 6.00 Build 0)  -->
<svg version="1.1" id="Слой_1" xmlns="http://www.w3.org/2000/svg" xmlns:xlink="http://www.w3.org/1999/xlink" x="0px" y="0px"
	 viewBox="0 0 15 15" style="enable-background:new 0 0 15 15;" xml:space="preserve">
<style type="text/css">
	.st0{clip-path:url(#SVGID_2_);}
	.st1{fill:none;stroke:#007CFF;stroke-width:2;}
	.st2{fill:#007CFF;}
</style>
<g>
	<defs>
		<rect id="SVGID_1_" width="15" height="15"/>
	</defs>
	<clipPath id="SVGID_2_">
		<use xlink:href="#SVGID_1_"  style="overflow:visible;"/>
	</clipPath>
	<g id="Canvas" class="st0">
		<circle id="Эллипс_821" class="st1" cx="7.5" cy="7.5" r="6.5"/>
		<path id="Shape_1" class="st2" d="M6.7,10.9c0.2,0.2,0.4,0.2,0.6,0l5.5-5.5c0.2-0.2,0.2-0.4,0-0.6c0,0,0,0,0,0l-1.1-1.1
			c-0.2-0.2-0.4-0.2-0.6,0L7,7.7L5.8,6.6c-0.2-0.2-0.4-0.2-0.6,0L4.1,7.7c-0.2,0.2-0.2,0.4,0,0.6c0,0,0,0,0,0L6.7,10.9z"/>
	</g>
</g>
</svg>
