<?xml version="1.0" encoding="UTF-8" standalone="no"?>
<svg width="100%" height="100%" viewBox="0 0 10 10" version="1.1" xmlns="http://www.w3.org/2000/svg" xmlns:xlink="http://www.w3.org/1999/xlink" xml:space="preserve" xmlns:serif="http://www.serif.com/" style="fill-rule:evenodd;clip-rule:evenodd;stroke-linejoin:round;stroke-miterlimit:1.41421;">
  <g transform="matrix(1.42676,0,0,1.42733,-0.00298729,-0.00128198)">
    <path d="M1.152,6.915C1.213,6.977 1.284,7.007 1.364,7.007C1.445,7.007 1.516,6.976 1.578,6.914L4.66,3.832L5.989,5.162C6.106,5.278 6.245,5.337 6.406,5.336C6.566,5.336 6.705,5.277 6.823,5.159C6.94,5.042 6.999,4.903 7,4.742L7.011,0.594C7.011,0.434 6.953,0.295 6.836,0.178C6.719,0.061 6.58,0.003 6.42,0.003L2.272,0.014C2.111,0.015 1.972,0.074 1.854,0.191C1.737,0.309 1.678,0.448 1.677,0.608C1.677,0.769 1.735,0.907 1.852,1.025L3.182,2.354L0.1,5.436C0.038,5.498 0.007,5.569 0.007,5.65C0.007,5.73 0.037,5.801 0.099,5.862L1.152,6.915Z"/>
  </g>
</svg>
