<svg id="Layer_1" data-name="Layer 1" xmlns="http://www.w3.org/2000/svg" viewBox="0 0 1167.9732 732.58809">
  <defs><style>.cls-1{fill-rule:evenodd;}</style></defs>
  <path class="cls-1" d="M511.84281,157.91218a25.21628,25.21628,0,0,0-18.54469-8.04444c-7.08551,0-13.2962,2.71063-18.71967,8.13188L204.98051,427.48817,88.72625,311.19363Q73.37438,295.848,52.24917,295.97916c-13.996,0-26.155,5.15893-36.47707,15.38935C5.53752,321.68636.3765,333.84045.289,347.91821L-.6732,710.61729c0,13.99031,5.07355,26.14439,15.30812,36.37482S37.02852,762.294,51.02452,762.294l362.93377-.96184q20.994-.13116,36.47706-15.4768,15.35187-15.47679,15.48308-36.46226c0-14.07778-5.07356-26.23186-15.30815-36.4623L334.26857,556.72375,603.86651,287.2352c5.42343-5.42125,8.13517-11.62945,8.13517-18.71205A25.19642,25.19642,0,0,0,603.954,249.986Z" transform="translate(0.6732 -29.70596)"/><path class="cls-1" d="M654.784,634.08782a25.21624,25.21624,0,0,0,18.54468,8.04444c7.08551,0,13.2962-2.71063,18.71967-8.13188L961.64628,364.51183l116.25426,116.29454q15.35187,15.34564,36.47708,15.21447c13.996,0,26.155-5.15893,36.47707-15.38935,10.23458-10.31785,15.3956-22.47194,15.48308-36.5497L1167.3,81.38271c0-13.99031-5.07355-26.14439-15.30812-36.37482s-22.3936-15.30193-36.3896-15.30193L752.6685,30.6678q-20.994.13116-36.47706,15.4768-15.35187,15.47679-15.48307,36.46226c0,14.07778,5.07355,26.23186,15.30814,36.4623L832.35823,235.27625,562.76028,504.7648c-5.42343,5.42125-8.13516,11.62945-8.13516,18.71205a25.19638,25.19638,0,0,0,8.0477,18.53717Z" transform="translate(0.6732 -29.70596)"/>
</svg>
