<svg xmlns="http://www.w3.org/2000/svg" xmlns:xlink="http://www.w3.org/1999/xlink" viewBox="0 0 7 10">
  <defs>
    <style>
      .cls-1 {
        clip-path: url(#clip-Canvas);
      }

      .cls-2 {
        fill: #a8bad5;
      }
    </style>
    <clipPath id="clip-Canvas">
      <rect width="7" height="10"/>
    </clipPath>
  </defs>
  <g class="cls-1">
    <path class="cls-2" d="M1.751,4.583v1.25H.438a.44.44,0,0,0-.391.231A.4.4,0,0,0,.088,6.5L2.713,9.833a.451.451,0,0,0,.7,0L6.038,6.5a.4.4,0,0,0,.041-.437.441.441,0,0,0-.391-.23H4.375V4.242A3.715,3.715,0,0,1,6.553.887l.206-.1A.415.415,0,0,0,7,.417a.4.4,0,0,0-.011-.1A.434.434,0,0,0,6.563,0,4.707,4.707,0,0,0,1.751,4.583Z"/>
  </g>
</svg>
