<svg xmlns="http://www.w3.org/2000/svg" xmlns:xlink="http://www.w3.org/1999/xlink" viewBox="0 0 7 10">
  <defs>
    <style>
      .cls-1 {
        clip-path: url(#clip-Canvas);
      }

      .cls-2 {
        fill: #a8bad5;
      }
    </style>
    <clipPath id="clip-Canvas">
      <rect width="7" height="10"/>
    </clipPath>
  </defs>
  <g class="cls-1">
    <path class="cls-2" d="M5.249,5.417v-1.25h1.313C6.725,4.168,6.876,4.08,6.953,3.936C7.027,3.795,7.011,3.624,6.912,3.5L4.287,0.167C4.13-0.026,3.846-0.056,3.653,0.101c-0.024,0.02-0.046,0.042-0.066,0.066L0.962,3.5c-0.1,0.124-0.116,0.296-0.041,0.437c0.078,0.143,0.228,0.231,0.391,0.23h1.313v1.591C2.614,7.205,1.764,8.514,0.447,9.113l-0.206,0.1C0.096,9.28,0.003,9.424,0,9.583c-0.001,0.034,0.003,0.067,0.011,0.1C0.064,9.873,0.239,10.004,0.437,10C3.03,10.059,5.181,8.009,5.249,5.417z" />
  </g>
</svg>
