<?xml version="1.0" encoding="UTF-8" standalone="no"?>
<svg width="100%" height="100%" viewBox="0 0 10 10" version="1.1" xmlns="http://www.w3.org/2000/svg" xmlns:xlink="http://www.w3.org/1999/xlink" xml:space="preserve" xmlns:serif="http://www.serif.com/" style="fill-rule:evenodd;clip-rule:evenodd;stroke-linejoin:round;stroke-miterlimit:1.41421;">
  <g transform="matrix(1.42933,0,0,1.42875,0.00472259,0.00300128)">
    <path d="M5.848,0.085C5.787,0.023 5.716,-0.007 5.636,-0.007C5.555,-0.007 5.484,0.024 5.422,0.086L2.34,3.168L1.011,1.838C0.894,1.721 0.755,1.663 0.594,1.664C0.434,1.664 0.295,1.723 0.177,1.84C0.06,1.958 0.001,2.097 0,2.258L-0.011,6.406C-0.011,6.566 0.047,6.705 0.164,6.822C0.281,6.939 0.42,6.997 0.58,6.997L4.729,6.986C4.889,6.985 5.028,6.926 5.146,6.809C5.263,6.691 5.322,6.552 5.323,6.392C5.323,6.231 5.265,6.092 5.148,5.975L3.818,4.646L6.9,1.564C6.962,1.502 6.993,1.431 6.993,1.35C6.993,1.27 6.963,1.199 6.901,1.138L5.848,0.085Z"/>
  </g>
</svg>
