<svg xmlns="http://www.w3.org/2000/svg" viewBox="0 0 23.348 23.92">
  <defs/>
  <g fill="none" stroke-linecap="round" data-name="Business Registration">
    <path stroke="currentColor" stroke-width="2" d="M16.649 3.42s2.571 1.473 4.114 2.406 1.08 2.882-.563 2.882h-7.033l-2.868.006s-4.8-.006-6.72-.006c-1.886 0-2.292-1.882-.809-2.863s3.952-2.426 3.952-2.426" data-name="Фигура 1006 копия"/>
    <g data-name="Forma 1 копия">
      <path d="M8.615 4.4v.772a.674.674 0 00.448.619l2.444.949a.8.8 0 00.575 0l2.444-.949a.674.674 0 00.448-.619v-4.5A.706.706 0 0014.238 0H9.403a.753.753 0 00-.618.307.638.638 0 00-.17.43V4.4z"/>
      <path fill="currentColor" d="M11.79 4.704l1.18-.458V2H10.61v2.246l1.18.458m0 2.088a.792.792 0 01-.288-.054L9.06 5.79a.674.674 0 01-.449-.619V.737c0-.159.062-.31.17-.43A.753.753 0 019.4 0h4.835c.406 0 .736.301.736.673V5.17c0 .27-.177.514-.448.62l-2.444.948a.793.793 0 01-.288.054z"/>
    </g>
    <path stroke="currentColor" stroke-width="2" d="M3.389 19.4h-.435a1.768 1.768 0 100 3.518h17.568a1.76 1.76 0 100-3.518s-8.731-.007-13.9-.007c-1.15 0-1.168-1.172-.538-1.47" data-name="Прямоугольник, скругл. углы 780"/>
    <path stroke="currentColor" stroke-width="2" d="M3.689 9.42v5" data-name="Фигура 1008"/>
    <path stroke="currentColor" stroke-width="2" d="M9.689 9.42v3" data-name="Фигура 1008 копия 2"/>
    <path stroke="currentColor" stroke-width="2" d="M16.689 9.42v1" data-name="Фигура 1008 копия 3"/>
    <path stroke="currentColor" stroke-width="2" d="M19.748 13.328s-5.905 3.287-6.511 3.615-1.081.392-1.478-.169-.254-.425-.513-.794a.9.9 0 00-1.25-.224l-3.86 2.134" data-name="Фигура 1006"/>
    <path stroke="currentColor" stroke-width="2.00028" d="M17.993 12.608c.58-.067 1.617-.164 2.004-.182s.544-.165.32.466a18.432 18.432 0 01-.88 1.838" data-name="Фигура 1007"/>
  </g>
</svg>
