<svg xmlns="http://www.w3.org/2000/svg" viewBox="0 0 15 15">
  <path fill="fillCurrent" d="M14.72852,2.84626l-1.31454-1.47171c-0.18289-0.2029-0.40293-0.30291-0.66013-0.30291s-0.47723,0.10002-0.65727,0.30291 L5.74967,8.48447L2.90341,5.29244c-0.18003-0.2029-0.40008-0.30291-0.66013-0.30291c-0.25719,0-0.47438,0.10002-0.65727,0.30291 L0.27148,6.76415C0.09145,6.96704,0,7.20994,0,7.49857c0,0.29148,0.09145,0.53439,0.27148,0.73728L3.775,12.15374l1.31454,1.47171 c0.18003,0.20004,0.40008,0.30291,0.66013,0.30291c0.25719,0,0.47723-0.10288,0.65727-0.30291l1.31454-1.47171l7.00705-7.83578 C14.90856,4.11507,15,3.87217,15,3.58068C15,3.29206,14.90855,3.04915,14.72852,2.84626L14.72852,2.84626z" />
</svg>
