<?xml version="1.0" encoding="UTF-8" standalone="no"?>
<svg width="100%" height="100%" viewBox="0 0 6 5" version="1.1"
  xmlns="http://www.w3.org/2000/svg"
  xmlns:xlink="http://www.w3.org/1999/xlink" xml:space="preserve"
  xmlns:serif="http://www.serif.com/" style="fill-rule:evenodd;clip-rule:evenodd;stroke-linejoin:round;stroke-miterlimit:1.41421;">
  <path d="M5.154,0.621l-0.46,-0.515c-0.064,-0.071 -0.141,-0.106 -0.231,-0.106c-0.09,0 -0.167,0.035 -0.23,0.106l-2.221,2.488l-0.996,-1.117c-0.063,-0.071 -0.14,-0.106 -0.231,-0.106c-0.09,0 -0.166,0.035 -0.23,0.106l-0.46,0.515c-0.063,0.071 -0.095,0.156 -0.095,0.257c0,0.102 0.032,0.187 0.095,0.258l1.226,1.371l0.46,0.515c0.063,0.07 0.14,0.106 0.231,0.106c0.09,0 0.167,-0.036 0.23,-0.106l0.46,-0.515l2.452,-2.742c0.063,-0.071 0.095,-0.156 0.095,-0.258c0,-0.101 -0.032,-0.186 -0.095,-0.257Z"/>
</svg>
