<?xml version="1.0" encoding="utf-8"?>
<svg version="1.1" xmlns="http://www.w3.org/2000/svg" xmlns:xlink="http://www.w3.org/1999/xlink" viewBox="0 0 23 15">
  <path fill-rule="evenodd"
    d="M18.592,5.625A7.176,7.176,0,0,0,11.5,0,7.03,7.03,0,0,0,5.175,3.75,5.723,5.723,0,0,0,0,9.375,5.705,5.705,0,0,0,5.75,15H18.208A4.694,4.694,0,0,0,23,10.313,4.816,4.816,0,0,0,18.592,5.625Zm-.383,7.5H5.75a3.8,3.8,0,0,1-3.833-3.75A3.8,3.8,0,0,1,5.75,5.625h.671A5.332,5.332,0,0,1,11.5,1.875a5.261,5.261,0,0,1,5.271,5.156V7.5h1.438a2.813,2.813,0,1,1,0,5.625Z"/>
</svg>
