<?xml version="1.0" encoding="utf-8"?>
<svg version="1.1" xmlns="http://www.w3.org/2000/svg" xmlns:xlink="http://www.w3.org/1999/xlink" x="0px" y="0px"
	 viewBox="0 0 18 14" style="enable-background:new 0 0 18 14;" xml:space="preserve">
  <path d="M17,0h-6c-0.6,0-1,0.4-1,1v12c0,0.6,0.4,1,1,1h6c0.6,0,1-0.4,1-1V1C18,0.4,17.6,0,17,0z M16,11.3
    c0,0.4-0.1,0.7-0.3,0.7h-3.3c-0.2,0-0.3-0.3-0.3-0.7V2.7C12,2.3,12.1,2,12.3,2h3.3C15.8,2,16,2.3,16,2.7V11.3z M5,4.1
    C4.9,4,4.9,4,4.8,4C4.7,4,4.6,4,4.6,4.1C4.5,4.1,4.5,4.2,4.5,4.3v1.6H2V1c0-0.6-0.4-1-1-1S0,0.4,0,1v5.2c0,0,0,0,0,0v1.6
    c0,0,0,0,0,0V13c0,0.6,0.4,1,1,1s1-0.4,1-1V8.1h2.5v1.6c0,0.1,0.1,0.2,0.2,0.3c0.1,0,0.2,0,0.3-0.1l2.9-2.7C8,7.1,8,7.1,8,7
    c0-0.1,0-0.1-0.1-0.2L5,4.1z"/>
</svg>
