<?xml version="1.0" encoding="utf-8"?>
<svg version="1.1" xmlns="http://www.w3.org/2000/svg" xmlns:xlink="http://www.w3.org/1999/xlink" x="0px" y="0px"
	 viewBox="0 0 18 14" style="enable-background:new 0 0 18 14;" xml:space="preserve">
  <path d="M17,14c0.6,0,1-0.4,1-1V1c0-0.6-0.4-1-1-1s-1,0.4-1,1v12C16,13.6,16.4,14,17,14z M1,14h6c0.6,0,1-0.4,1-1V8.1h2.5v1.6
  c0,0.1,0.1,0.2,0.2,0.3c0.1,0,0.2,0,0.3-0.1l2.9-2.7C14,7.1,14,7.1,14,7s0-0.1-0.1-0.2L11,4.1C10.9,4,10.9,4,10.8,4s-0.2,0-0.2,0.1
  c-0.1,0.1-0.1,0.1-0.1,0.2v1.6H8V1c0-0.6-0.4-1-1-1H1C0.4,0,0,0.4,0,1v12C0,13.6,0.4,14,1,14z M2,2.7C2,2.3,2.1,2,2.3,2h3.3
  c0.2,0,0.3,0.3,0.3,0.7v3.5l0,0v1.6l0,0v3.5C6,11.7,5.9,12,5.7,12H2.4C2.2,12,2,11.7,2,11.3V2.7z"/>
</svg>
