<?xml version="1.0" encoding="utf-8"?>
<svg version="1.1" xmlns="http://www.w3.org/2000/svg" xmlns:xlink="http://www.w3.org/1999/xlink" viewBox="0 0 30 15">
  <path fill-rule="evenodd"
    d="M29.873,3.795 L22.791,10.863 C22.706,10.948 22.600,10.990 22.484,10.990 L20.433,11.001 C20.317,11.001 20.211,10.958 20.127,10.874 C20.042,10.790 20.000,10.674 20.000,10.557 L20.011,8.500 C20.011,8.384 20.063,8.279 20.137,8.194 L25.803,2.551 L27.220,1.126 C27.399,0.958 27.674,0.958 27.843,1.126 L29.873,3.173 C30.042,3.352 30.042,3.627 29.873,3.795 ZM16.771,7.500 L16.771,7.031 C16.771,4.219 14.375,1.875 11.500,1.875 C9.104,1.875 7.092,3.469 6.421,5.625 L5.750,5.625 C3.642,5.625 1.917,7.312 1.917,9.375 C1.917,11.437 3.892,13.000 6.000,13.000 L12.000,13.000 L17.000,13.000 L18.000,13.000 L22.149,13.000 L26.000,13.000 C26.552,13.000 27.000,13.448 27.000,14.000 C27.000,14.552 26.552,15.000 26.000,15.000 L18.208,15.000 L12.000,15.000 L5.750,15.000 C2.587,15.000 0.000,12.469 0.000,9.375 C0.000,6.469 2.204,4.125 5.175,3.750 C6.325,1.500 8.721,0.000 11.500,0.000 C15.046,0.000 17.921,2.438 18.592,5.625 C18.663,5.631 18.731,5.653 18.802,5.662 C18.130,6.105 17.603,6.745 17.297,7.500 L16.771,7.500 Z"/>
</svg>

