<?xml version="1.0" encoding="utf-8"?>
<svg version="1.1" xmlns="http://www.w3.org/2000/svg" xmlns:xlink="http://www.w3.org/1999/xlink" viewBox="0 0 22 20">
  <path fill-rule="evenodd"
    d="M10,0 C6.144531000000001,0 3,3.1445309999999997 3,7 C3,9.394531 4.21875,11.519531 6.0625,12.78125 C2.484375,14.304687999999999 0,17.859375 0,22 L2,22 C2,17.535156 5.535156000000001,14 10,14 C14.464844,14 18,17.535156 18,22 L20,22 C20,17.859375 17.515625,14.304687999999999 13.9375,12.78125 C15.78125,11.519531 17,9.394531 17,7 C17,3.1445309999999997 13.855469,0 10,0 zM10,2 C12.773437999999999,2 15,4.2265630000000005 15,7 C15,9.773438 12.773437999999999,12 10,12 C7.2265630000000005,12 5,9.773438 5,7 C5,4.2265630000000005 7.2265630000000005,2 10,2 z"/>
</svg>
