<?xml version="1.0" encoding="utf-8"?>
<svg>
  <path
    fill-rule="evenodd"
    d="M6.849,4.608 L9.772,7.531 C10.144,7.903 10.144,8.507 9.772,8.880 C9.399,9.252 8.795,9.252 8.423,8.880 L5.500,5.957 L2.577,8.880 C2.205,9.252 1.601,9.252 1.228,8.880 C0.856,8.507 0.856,7.903 1.228,7.531 L4.151,4.608 L1.228,1.685 C0.856,1.313 0.856,0.709 1.228,0.337 C1.601,-0.036 2.205,-0.036 2.577,0.337 L5.500,3.259 L8.423,0.337 C8.795,-0.036 9.399,-0.036 9.772,0.337 C10.144,0.709 10.144,1.313 9.772,1.685 L6.849,4.608 Z"
  />
</svg>
