<?xml version="1.0" encoding="utf-8"?>
<!-- Generator: Adobe Illustrator 19.2.0, SVG Export Plug-In . SVG Version: 6.00 Build 0)  -->
<svg version="1.1" id="Layer_1" xmlns="http://www.w3.org/2000/svg" xmlns:xlink="http://www.w3.org/1999/xlink" x="0px" y="0px"
   viewBox="0 0 32 17" style="enable-background:new 0 0 32 17;" xml:space="preserve">
<path fill="currentColor" d="M6.1667,6.00008c-1.65686,0-3,1.34314-3,3c0,1.6568,1.34314,2.99994,3,2.99994c1.6568,0,3-1.34314,3-2.99994 C9.1667,7.34322,7.8235,6.00008,6.1667,6.00008z M16.00006,6.00008c-1.65686,0-3,1.34314-3,3c0,1.6568,1.34314,2.99994,3,2.99994 c1.6568,0,2.99994-1.34314,2.99994-2.99994C19,7.34322,17.65685,6.00008,16.00006,6.00008z M25.83336,6.00008 c-1.65686,0-3,1.34314-3,3c0,1.6568,1.34314,2.99994,3,2.99994c1.6568,0,2.99994-1.34314,2.99994-2.99994 C28.8333,7.34322,27.49015,6.00008,25.83336,6.00008z" />
</svg>
