<?xml version="1.0" encoding="utf-8"?>
<svg version="1.1" xmlns="http://www.w3.org/2000/svg" xmlns:xlink="http://www.w3.org/1999/xlink" x="0px" y="0px"
	 viewBox="0 0 251.7 254.5" style="enable-background:new 0 0 251.7 254.5;" xml:space="preserve">
<style type="text/css">
	.st0{fill:#9DA6BA;}
</style>
<path class="st0" d="M29.5,200.8l22.3,22l-12.3,13c-5.5,5.8-14.6,5.9-20.3,0.4l-2.4-2.3c-5.8-5.7-5.8-15,0-20.6L29.5,200.8z"/>
<path class="st0" d="M231.8,252.3l4-3.7c3.5-3.3,3.6-8.8,0.2-12.1l-40.6-39.9c-3.3-3.3-3.3-8.7,0-11.9l9.5-9.4
	c9.4-9.3,9.5-24.5,0.2-33.9l-1.1-1.1c-3.3-3.3-3.2-8.7,0.1-11.9l45-43.6c3.4-3.3,3.4-8.7,0.1-12l-12.2-12c-3.2-3.2-8.5-3.2-11.7,0
	l-44.9,43.6c-3.3,3.2-8.5,3.2-11.8-0.1L146.4,82c-3.3-3.3-3.3-8.7,0.1-12l44.9-43.4c3.5-3.3,3.4-8.9-0.1-12.2L178.2,2.3
	c-3.3-3.1-8.5-3-11.7,0.2l-43.6,44.1c-3.2,3.2-8.4,3.3-11.7,0.2l0,0c-9.3-8.7-23.7-8.7-33.1-0.1l-10.8,10c-3.3,3.1-8.5,3-11.7-0.2
	L17.3,18c-3.3-3.3-8.7-3.3-12,0.1l-2.9,3.1c-3.2,3.3-3.1,8.5,0.1,11.7L220.1,252C223.3,255.2,228.5,255.3,231.8,252.3z"/>
<path class="st0" d="M147.4,202.2c-12.4,15-31.1,24.6-52.1,24.6c-37.3,0-67.5-30.2-67.5-67.5c0-20.9,9.5-39.5,24.3-51.9
	C59.7,115.6,137.9,193,147.4,202.2z"/>
</svg>
