<svg xmlns="http://www.w3.org/2000/svg" xmlns:xlink="http://www.w3.org/1999/xlink" viewBox="0 0 15 15">
  <defs>
    <style>
      .cls-1 {
        clip-path: url(#clip-Canvas);
      }
      .cls-2 {
        fill: #abf4ff;
      }
    </style>
    <clipPath id="clip-Canvas">
      <rect width="15" height="15"/>
    </clipPath>
  </defs>
  <g id="Canvas" class="cls-1">
    <path class="cls-2" d="M2.5,15a.5.5,0,0,1-.5-.5v-1a.5.5,0,0,1,.5-.5h11a.5.5,0,0,1,.5.5v1a.5.5,0,0,1-.5.5Zm5.171-4.125L3.717,7.415a.5.5,0,0,1-.046-.707l.659-.749a.5.5,0,0,1,.7-.046L7,7.635V.5A.5.5,0,0,1,7.5,0h1A.5.5,0,0,1,9,.5V7.635l1.965-1.722a.5.5,0,0,1,.706.046l.659.75a.5.5,0,0,1-.046.707L8.33,10.876a.5.5,0,0,1-.66,0Z"/>
  </g>
</svg>
