<svg xmlns="http://www.w3.org/2000/svg" viewBox="0 0 11 14">
  <defs>
    <style>
      .cls-1 {
        clip-path: url(#clip-Canvas);
      }

      .cls-2 {
        fill: #c8d4e3;
      }
    </style>
    <clipPath id="clip-Canvas">
      <rect width="11" height="14"/>
    </clipPath>
  </defs>
  <g class="cls-1">
    <path class="cls-2" d="M.785,14a.919.919,0,0,1-.766-.99.9.9,0,0,1,.766-.989H7.215A.917.917,0,0,1,8,13.01a.905.905,0,0,1-.766.99ZM.14,10.864A.494.494,0,0,1,0,10.516L.012,8.252a.518.518,0,0,1,.139-.337l6.231-6.21L7.94.139a.492.492,0,0,1,.686,0L10.857,2.39a.489.489,0,0,1,0,.685L3.069,10.852a.469.469,0,0,1-.337.139L.477,11A.465.465,0,0,1,.14,10.864Z"/>
  </g>
</svg>
