<?xml version="1.0" encoding="utf-8"?>
<svg version="1.1" xmlns="http://www.w3.org/2000/svg" xmlns:xlink="http://www.w3.org/1999/xlink"
	 x="0px" y="0px" viewBox="0 0 18 14" style="enable-background:new 0 0 18 14;" xml:space="preserve">
  <path d="M1,14h6c0.6,0,1-0.4,1-1V1c0-0.6-0.4-1-1-1H1C0.4,0,0,0.4,0,1v12C0,13.6,0.4,14,1,14z M2,2.7C2,2.3,2.1,2,2.3,2h3.3
  c0.2,0,0.3,0.3,0.3,0.7v8.6C6,11.7,5.9,12,5.7,12H2.4C2.2,12,2,11.7,2,11.3V2.7z M13,9.9c0.1,0.1,0.1,0.1,0.2,0.1
  c0.1,0,0.2,0,0.2-0.1c0.1,0,0.1-0.1,0.1-0.2V8.1H16V13c0,0.6,0.4,1,1,1s1-0.4,1-1V7.8l0,0V6.2l0,0V1c0-0.6-0.4-1-1-1s-1,0.4-1,1v4.9
  h-2.5V4.3c0-0.1-0.1-0.2-0.2-0.3c-0.1,0-0.2,0-0.3,0.1l-2.9,2.7C10,6.9,10,6.9,10,7s0,0.1,0.1,0.2L13,9.9z"/>
</svg>
