<?xml version="1.0" encoding="utf-8"?>
<svg version="1.1" xmlns="http://www.w3.org/2000/svg" xmlns:xlink="http://www.w3.org/1999/xlink"
	 x="0px" y="0px" viewBox="0 0 18 14" style="enable-background:new 0 0 18 14;" xml:space="preserve">
  <path d="M1,0C0.4,0,0,0.4,0,1v12c0,0.6,0.4,1,1,1s1-0.4,1-1V1C2,0.4,1.6,0,1,0z M17,0h-6c-0.6,0-1,0.4-1,1v4.9H7.5
    V4.3c0-0.1-0.1-0.2-0.2-0.3C7.2,4,7.1,4,7,4.1L4.1,6.8C4,6.9,4,6.9,4,7c0,0.1,0,0.1,0.1,0.2L7,9.9C7.1,10,7.1,10,7.2,10
    c0.1,0,0.2,0,0.2-0.1c0.1-0.1,0.1-0.1,0.1-0.2V8.1H10V13c0,0.6,0.4,1,1,1h6c0.6,0,1-0.4,1-1V1C18,0.4,17.6,0,17,0z M16,11.3
    c0,0.4-0.1,0.7-0.3,0.7h-3.3c-0.2,0-0.3-0.3-0.3-0.7V7.8c0,0,0,0,0,0V6.2c0,0,0,0,0,0V2.7C12,2.3,12.1,2,12.3,2h3.3
    C15.8,2,16,2.3,16,2.7V11.3z"/>
</svg>
