<?xml version="1.0" encoding="utf-8"?>
<svg version="1.1" xmlns="http://www.w3.org/2000/svg" xmlns:xlink="http://www.w3.org/1999/xlink" x="0px" y="0px" viewBox="0 0 13 20"
	 style="enable-background:new 0 0 13 20;" xml:space="preserve">
  <path d="M10,3c0.6,0,1-0.4,1-1V1c0-0.6-0.4-1-1-1S9,0.4,9,1v1C9,2.6,9.4,3,10,3z M3,17c-0.6,0-1,0.4-1,1v1
    c0,0.6,0.4,1,1,1s1-0.4,1-1v-1C4,17.4,3.6,17,3,17z M13,8c0-1.7-1.3-3-3-3S7,6.3,7,8c0,1.3,0.9,2.4,2,2.8c0,0.1,0,0.1,0,0.2v8
    c0,0.6,0.4,1,1,1s1-0.4,1-1v-8c0-0.1,0-0.1,0-0.2C12.1,10.4,13,9.3,13,8z M10,9C9.4,9,9,8.6,9,8s0.4-1,1-1s1,0.4,1,1S10.6,9,10,9z
     M4,9.2C4,9.1,4,9.1,4,9V1c0-0.6-0.4-1-1-1S2,0.4,2,1v8c0,0.1,0,0.1,0,0.2C0.9,9.6,0,10.7,0,12c0,1.7,1.3,3,3,3s3-1.3,3-3
    C6,10.7,5.1,9.6,4,9.2z M3,13c-0.6,0-1-0.4-1-1s0.4-1,1-1s1,0.4,1,1S3.6,13,3,13z"/>
</svg>
