<svg xmlns="http://www.w3.org/2000/svg" xmlns:xlink="http://www.w3.org/1999/xlink" viewBox="0 0 20 20">
  <defs>
    <style>
      .cls-1 {
        fill: #a8bad5;
      }
    </style>
  </defs>
  <path class="cls-1" d="M16.702,0h-9.11v12.294h12.294v-9.11c0.004-1.755-1.415-3.18-3.17-3.184C16.711,0,16.707,0,16.702,0z M4.751,0 H3.184C1.429-0.004,0.004,1.415,0,3.17c0,0.005,0,0.009,0,0.014V4.75h4.751V0z M0,7.592h4.751v4.751H0V7.592z M15.184,19.886h1.567 c1.755,0.004,3.18-1.415,3.184-3.17c0-0.005,0-0.009,0-0.014v-1.518h-4.751V19.886z M7.592,15.184h4.751v4.751H7.592V15.184z M0,15.184v1.567c-0.004,1.755,1.415,3.18,3.17,3.184c0.005,0,0.009,0,0.014,0H4.75v-4.751H0z" />
</svg>
