<?xml version="1.0" encoding="UTF-8" standalone="no"?>
<svg width="100%" height="100%" viewBox="0 0 21 15" version="1.1" xmlns="http://www.w3.org/2000/svg" xmlns:xlink="http://www.w3.org/1999/xlink" style="fill-rule:evenodd;clip-rule:evenodd;stroke-linejoin:round;stroke-miterlimit:1.41421;">
    <path d="M14.3046,15H2.7069a2.39566,2.39566,0,0,1-.91379-0.17816,2.35643,2.35643,0,0,1-1.47126-2.2069V2.38506A2.34629,2.34629,0,0,1,.5,1.477,2.45493,2.45493,0,0,1,1.02874.7069,2.45493,2.45493,0,0,1,1.79885.17816,2.34629,2.34629,0,0,1,2.7069,0h3.408a2.39566,2.39566,0,0,1,.91379.17816A2.45493,2.45493,0,0,1,7.79885.7069a2.261,2.261,0,0,1,.51724.78736,2.66248,2.66248,0,0,1,.16667.92529V2.7069h2.29885L9.45977,4.08621H8.13793a0.92389,0.92389,0,0,1-.6954-0.28736,0.97959,0.97959,0,0,1-.22414-0.32759,1.03485,1.03485,0,0,1-.07471-0.39655V2.38506A1.05562,1.05562,0,0,0,7.069,1.98851a1.05643,1.05643,0,0,0-.55172-0.55172,1.03485,1.03485,0,0,0-.39655-0.07471H2.7069a1.03485,1.03485,0,0,0-.39655.07471,1.05643,1.05643,0,0,0-.55172.55172,1.03485,1.03485,0,0,0-.07471.39655v9.08621L4.41379,8.11494a3.32584,3.32584,0,0,1,.546-0.51724,4.46983,4.46983,0,0,1,.6954-0.41954,3.747,3.747,0,0,1,.73563-0.26437A3.02684,3.02684,0,0,1,7.1092,6.83333H12.454V5.62644H11.01724A0.33214,0.33214,0,0,1,10.83334,5.569a0.36982,0.36982,0,0,1-.12644-0.15517,0.35285,0.35285,0,0,1,.05747-0.37931l2.48851-2.84483a0.35439,0.35439,0,0,1,.5-0.03448l0.03448,0.03448,2.48851,2.84483a0.35285,0.35285,0,0,1,.05747.37931,0.36982,0.36982,0,0,1-.12644.15517,0.31584,0.31584,0,0,1-.18391.05747H14.58621v1.2069h4.1954a2.02581,2.02581,0,0,1,1.023.24138,1.74914,1.74914,0,0,1,.41954.31609,1.68182,1.68182,0,0,1,.2931.431,1.75075,1.75075,0,0,1,.16092.72414,1.78357,1.78357,0,0,1-.12069.64943,2.45746,2.45746,0,0,1-.36782.62644L17.046,13.68966a2.88061,2.88061,0,0,1-.54023.51724,4.30009,4.30009,0,0,1-.6954.41954,4.49224,4.49224,0,0,1-.76437.27586A3.021,3.021,0,0,1,14.3046,15ZM7.16667,8.16092a2.1287,2.1287,0,0,0-.91379.22989,2.30213,2.30213,0,0,0-.76437.55747L2.35058,12.81609a0.79849,0.79849,0,0,0-.18966.42529,0.31586,0.31586,0,0,0,.14368.28161,0.76625,0.76625,0,0,0,.42529.092H14.34483a2.44876,2.44876,0,0,0,1.67816-.79885l3.13793-3.86782a0.69312,0.69312,0,0,0,.18965-0.41379,0.31586,0.31586,0,0,0-.14368-0.28161,0.76625,0.76625,0,0,0-.42529-0.092H7.16667Z" style="fill-rule:nonzero;"/>
</svg>
