<svg version="1.1" id="Слой_1" xmlns="http://www.w3.org/2000/svg" xmlns:xlink="http://www.w3.org/1999/xlink" x="0px" y="0px"
     viewBox="0 0 22 22" style="enable-background:new 0 0 22 22;" xml:space="preserve">
<style type="text/css">
    .st0{clip-path:url(#SVGID_2_);}
    .st1{fill:#F1C0C1;}
</style>
<g>
    <defs>
        <rect id="SVGID_1_" width="22" height="22"/>
    </defs>
    <clipPath id="SVGID_2_">
        <use xlink:href="#SVGID_1_"  style="overflow:visible;"/>
    </clipPath>
    <g id="Canvas" class="st0">
        <path id="add_plugin" class="st1" d="M3,22c-1.7,0-3-1.3-3-3v-4c0-1.7,1.3-3,3-3h4c1.7,0,3,1.3,3,3v4c0,1.7-1.3,3-3,3H3z M2,16v2
            c0,1.1,0.9,2,2,2h2c1.1,0,2-0.9,2-2v-2c0-1.1-0.9-2-2-2H4C2.9,14,2,14.9,2,16z M16,20v-2h-2c-0.6,0-1-0.4-1-1s0.4-1,1-1h2v-2
            c0-0.6,0.4-1,1-1s1,0.4,1,1v2h2c0.6,0,1,0.4,1,1s-0.4,1-1,1h-2v2c0,0.6-0.4,1-1,1S16,20.6,16,20z M15,10c-1.7,0-3-1.3-3-3V3
            c0-1.7,1.3-3,3-3h4c1.7,0,3,1.3,3,3v4c0,1.7-1.3,3-3,3H15z M14,4v2c0,1.1,0.9,2,2,2h2c1.1,0,2-0.9,2-2V4c0-1.1-0.9-2-2-2h-2
            C14.9,2,14,2.9,14,4z M3,10c-1.7,0-3-1.3-3-3V3c0-1.7,1.3-3,3-3h4c1.7,0,3,1.3,3,3v4c0,1.7-1.3,3-3,3H3z M2,4v2c0,1.1,0.9,2,2,2h2
            c1.1,0,2-0.9,2-2V4c0-1.1-0.9-2-2-2H4C2.9,2,2,2.9,2,4z"/>
    </g>
</g>
</svg>
