<svg version="1.1" xmlns="http://www.w3.org/2000/svg" xmlns:xlink="http://www.w3.org/1999/xlink" viewBox="0 0 17 17">
	<path fill="fillCurrent" d="M1.5,12.50001h14c0.27616,0,0.49999,0.22386,0.49999,0.50001v0.99996
		c0,0.27615-0.22383,0.50001-0.49999,0.50001h-14c-0.27616,0-0.49999-0.22386-0.49999-0.50001v-0.99996
		C1.00001,12.72387,1.22384,12.50001,1.5,12.50001z"/>
	<path fill="fillCurrent" d="M1.5,2.50001h14c0.27616,0,0.49999,0.22386,0.49999,0.50001v0.99996
		c0,0.27615-0.22383,0.50001-0.49999,0.50001h-14c-0.27616,0-0.49999-0.22386-0.49999-0.50001V3.00002
		C1.00001,2.72387,1.22384,2.50001,1.5,2.50001z"/>
	<path fill="fillCurrent" d="M1.5,7.50001h14c0.27616,0,0.49999,0.22386,0.49999,0.50001v0.99996
		c0,0.27615-0.22383,0.50001-0.49999,0.50001h-14c-0.27616,0-0.49999-0.22386-0.49999-0.50001V8.00002
		C1.00001,7.72387,1.22384,7.50001,1.5,7.50001z"/>
</svg>
