<svg version="1.1" xmlns="http://www.w3.org/2000/svg" xmlns:xlink="http://www.w3.org/1999/xlink" viewBox="0 0 17 17">
  <path fill="fillCurrent" d="M4.25001,7.50005h-1.375h-0.9375h-0.4375c-0.27618,0-0.5,0.22382-0.5,0.5v0.99994
    c0,0.27618,0.22382,0.5,0.5,0.5h0.4375h0.9375h1.375c0.27612,0,0.5-0.22382,0.5-0.5V8.00005
    C4.75001,7.72387,4.52614,7.50005,4.25001,7.50005z"/>
  <path fill="fillCurrent" d="M8.00001,12.50003h-1.375h-1.875h-3.25c-0.27618,0-0.5,0.22382-0.5,0.5v0.99994c0,0.27618,0.22382,0.5,0.5,0.5
    h3.25h1.875h1.375c0.27612,0,0.5-0.22382,0.5-0.5v-0.99994C8.50001,12.72385,8.27614,12.50003,8.00001,12.50003z"/>
  <path fill="fillCurrent" d="M1.5,2.50003h14c0.27616,0,0.49999,0.22386,0.49999,0.50001V4c0,0.27615-0.22383,0.50001-0.49999,0.50001h-14
    C1.22384,4.50001,1.00001,4.27615,1.00001,4V3.00004C1.00001,2.72389,1.22384,2.50003,1.5,2.50003z"/>
</svg>
