<svg xmlns="http://www.w3.org/2000/svg" viewBox="0 0 24.343 24.219">
  <g fill="none" stroke="currentColor" stroke-linecap="round" stroke-linejoin="round" stroke-width="2">
    <path d="M16.257 8.357l-2.962-2.932a1.94 1.94 0 00.9-.512 2.035 2.035 0 00-2.876-2.876 1.955 1.955 0 00-.512.9L9.175 1.306a1.006 1.006 0 00-1.426-.013L6.305 2.737a.5.5 0 00-.141.405.518.518 0 00.227.372 2 2 0 11-2.5 3.077 2.092 2.092 0 01-.249-.316.523.523 0 00-.372-.228.5.5 0 00-.405.141L1.412 7.632a1.008 1.008 0 00.014 1.424l7.042 7.1"/>
    <path d="M19.832 14.263a2.159 2.159 0 11-3.048-3.048 2.262 2.262 0 01.749-.5.558.558 0 00.339-.4.537.537 0 00-.143-.5l-1.688-1.683a1.087 1.087 0 00-1.539.017l-1.763 1.775a2.1 2.1 0 00-.554-.97 2.2 2.2 0 00-3.111 3.112 2.115 2.115 0 00.97.554L8.28 14.384a1.089 1.089 0 00-.014 1.543l1.562 1.562a.539.539 0 00.438.152.561.561 0 00.4-.245 2.159 2.159 0 113.331 2.707 2.263 2.263 0 01-.345.269.566.566 0 00-.246.4.539.539 0 00.152.438l1.566 1.575a1.09 1.09 0 001.54-.015l6.223-6.223a1.089 1.089 0 00.015-1.54l-1.683-1.683a.534.534 0 00-.494-.142.563.563 0 00-.4.338 2.2 2.2 0 01-.493.743z"/>
  </g>
</svg>
