<?xml version="1.0" encoding="UTF-8" standalone="no"?>
<svg width="100%" height="100%" viewBox="0 0 5 20" version="1.1"
  style="fill-rule:evenodd;clip-rule:evenodd;stroke-linejoin:round;stroke-miterlimit:1.41421;">
  <path d="M4.79,2.395c0,-1.317 -1.078,-2.395 -2.395,-2.395c-1.317,0 -2.395,1.078 -2.395,2.395c0,1.317 1.078,2.395 2.395,2.395c1.317,0 2.395,-1.078 2.395,-2.395Zm0,14.368c0,-1.317 -1.078,-2.394 -2.395,-2.394c-1.317,0 -2.395,1.077 -2.395,2.394c0,1.318 1.078,2.395 2.395,2.395c1.317,0 2.395,-1.077 2.395,-2.395Zm0,-7.184c0,-1.317 -1.078,-2.395 -2.395,-2.395c-1.317,0 -2.395,1.078 -2.395,2.395c0,1.317 1.078,2.395 2.395,2.395c1.317,0 2.395,-1.078 2.395,-2.395Z" style="fill-rule:nonzero;"/>
</svg>
