<?xml version="1.0" encoding="UTF-8"?>
<svg viewBox="0 0 47 38" xmlns="http://www.w3.org/2000/svg">
<switch>
<g>
<g opacity=".471">
<path fill="currentColor" d="M32.3 9.1c1 1.8 2.9 3.1 5 3.1 3.1 0 5.8-2.8 5.8-6.1 0-3.2-2.7-6.1-5.8-6.1-2.4 0-4.6 1.7-5.4 4 .5.9.7 2 .7 3.1 0 .7-.1 1.4-.3 2zm-22.6 3c2.1 0 4-1.3 5-3.1-.2-.6-.3-1.3-.3-1.9 0-1.1.3-2.1.7-3.1-.8-2.3-3-4-5.4-4-3.1 0-5.8 2.8-5.8 6.1 0 3.2 2.7 6 5.8 6zm27.6 2.1c-2.6 0-5.1 1.5-6.9 3.9 4 2.4 6.9 7.6 6.9 13.6 0 .2 0 .4-.1.6 4.9 0 9.7-1.8 9.7-5.3.1-7.1-4.5-12.8-9.6-12.8zm-27.6-.1C4.6 14.1 0 19.9 0 27c0 3.6 4.9 5.3 9.7 5.3 0-.2-.1-.4-.1-.6 0-6 2.9-11.2 6.9-13.6-1.7-2.5-4.2-4-6.8-4z"/>
</g>
<path d="m23.5 17.8c3.1 0 5.8-2.8 5.8-6.1 0-3.2-2.7-6.1-5.8-6.1s-5.8 2.8-5.8 6.1c0 3.2 2.7 6.1 5.8 6.1zm0 2c-5.1 0-9.7 5.7-9.7 12.8s19.4 7.1 19.4 0-4.6-12.8-9.7-12.8z"/>
</g>
</switch>
</svg>
