<svg version="1.1" id="Слой_1" xmlns="http://www.w3.org/2000/svg" xmlns:xlink="http://www.w3.org/1999/xlink" x="0px" y="0px"
     viewBox="0 0 22 22" style="enable-background:new 0 0 22 22;" xml:space="preserve">
<style type="text/css">
    .st0{clip-path:url(#SVGID_2_);}
    .st1{fill:#CAD6E4;}
</style>
<g>
    <defs>
        <rect id="SVGID_1_" width="22" height="22"/>
    </defs>
    <clipPath id="SVGID_2_">
        <use xlink:href="#SVGID_1_"  style="overflow:visible;"/>
    </clipPath>
    <g id="Canvas" class="st0">
        <path id="my_plugin" class="st1" d="M7,22H3c-1.7,0-3-1.3-3-3v-4c0-1.7,1.3-3,3-3h4c1.7,0,3,1.3,3,3v4C10,20.7,8.7,22,7,22z M4,14
            c-1.1,0-2,0.9-2,2v2c0,1.1,0.9,2,2,2h2c1.1,0,2-0.9,2-2v-2c0-1.1-0.9-2-2-2H4z M17,22c-0.7,0-1.3-0.3-1.8-0.8l-2.4-2.4
            c-1-1-1-2.6,0-3.6c0,0,0,0,0,0l2.4-2.4c1-1,2.6-1,3.6,0c0,0,0,0,0,0l2.4,2.4c1,1,1,2.6,0,3.6l-2.4,2.4C18.4,21.7,17.7,22,17,22z
             M19,10h-4c-1.7,0-3-1.3-3-3V3c0-1.7,1.3-3,3-3h4c1.7,0,3,1.3,3,3v4C22,8.7,20.7,10,19,10z M16,2c-1.1,0-2,0.9-2,2v2
            c0,1.1,0.9,2,2,2h2c1.1,0,2-0.9,2-2V4c0-1.1-0.9-2-2-2H16z M7,10H3c-1.7,0-3-1.3-3-3V3c0-1.7,1.3-3,3-3h4c1.7,0,3,1.3,3,3v4
            C10,8.7,8.7,10,7,10z M4,2C2.9,2,2,2.9,2,4v2c0,1.1,0.9,2,2,2h2c1.1,0,2-0.9,2-2V4c0-1.1-0.9-2-2-2H4z"/>
    </g>
</g>
</svg>
