<svg xmlns="http://www.w3.org/2000/svg" xmlns:xlink="http://www.w3.org/1999/xlink" viewBox="0 0 20 20">
  <defs>
    <style>
      .cls-1 {
        clip-path: url(#clip-Canvas);
      }

      .cls-2 {
        fill: #8c97da;
      }

      .cls-3 {
        fill: rgba(0,0,0,0);
      }
    </style>
    <clipPath id="clip-Canvas">
      <rect width="20" height="20"/>
    </clipPath>
  </defs>
  <g class="cls-1">
    <path d="M8.529,17.806l-7.345-7.34a.623.623,0,0,1,0-.9L9.561,1.193A.582.582,0,0,1,10.012,1h7.344A.608.608,0,0,1,18,1.644v7.34a.585.585,0,0,1-.194.451L9.431,17.806a.623.623,0,0,1-.9,0ZM10.786,3.087,4.109,9.8a.344.344,0,0,0,0,.5l4.568,4.593a.339.339,0,0,0,.492,0l6.676-6.712c0-.07.07-.212.07-.283h.071V3.37a.333.333,0,0,0-.352-.353H11.066C10.926,3.017,10.856,3.017,10.786,3.087ZM11.99,6A1.01,1.01,0,1,1,13,7.01,1.011,1.011,0,0,1,11.99,6Z"/>
  </g>
</svg>
