<svg xmlns="http://www.w3.org/2000/svg" width="20" height="21" viewBox="0 0 20 21">
  <defs>
    <style>
      .cls-1 {
        fill: #a6add5;
        fill-rule: evenodd;
      }
    </style>
  </defs>
  <path id="icon" class="cls-1" d="M945.2,2228.32a2.776,2.776,0,0,0-2.167,1.05l-3.28-2.67a6.46,6.46,0,0,0,.107-6.2l3.5-2.52a2.792,2.792,0,0,0,1.838.7,2.831,2.831,0,1,0-2.632-1.87l-3.5,2.52a6.246,6.246,0,0,0-4.768-2.22,6.391,6.391,0,0,0,0,12.78,6.243,6.243,0,0,0,4.62-2.05l3.52,2.85a2.777,2.777,0,0,0-.04.47A2.8,2.8,0,1,0,945.2,2228.32Zm0-13.7a1.205,1.205,0,1,1-1.2,1.21A1.2,1.2,0,0,1,945.2,2214.62Zm0,17.76a1.205,1.205,0,1,1,1.2-1.21A1.2,1.2,0,0,1,945.2,2232.38ZM934.509,2219a4.5,4.5,0,1,1-4.5,4.5A4.5,4.5,0,0,1,934.509,2219Z" transform="translate(-928 -2213)"/>
</svg>
