<svg xmlns="http://www.w3.org/2000/svg" xmlns:xlink="http://www.w3.org/1999/xlink" viewBox="0 0 15 15">
  <defs>
    <style>
      .cls-1 {
        clip-path: url(#clip-Canvas);
      }
      .cls-2 {
        fill: #fff;
      }
    </style>
    <clipPath id="clip-Canvas">
      <rect width="15" height="15"/>
    </clipPath>
  </defs>
  <g class="cls-1">
    <path class="cls-2" d="M5.013,12.985h5A2.817,2.817,0,0,1,7.512,15,2.815,2.815,0,0,1,5.013,12.985ZM2.246,12a.271.271,0,0,1-.239-.145.293.293,0,0,1,0-.288l.947-1.635a5,5,0,0,0,.668-2.5V6A3.987,3.987,0,0,1,6.379,2.169V1.143a1.1,1.1,0,1,1,2.2,0V2.169A3.987,3.987,0,0,1,11.339,6V7.432a4.994,4.994,0,0,0,.669,2.5l.946,1.635a.3.3,0,0,1,0,.288.275.275,0,0,1-.24.144Z"/>
  </g>
</svg>
