<svg  xmlns="http://www.w3.org/2000/svg" xmlns:xlink="http://www.w3.org/1999/xlink" viewBox="0 0 14 15">
<path fill-rule="evenodd"  fill="#000"
  d="M12.680,12.681 C11.800,13.561 10.740,14.002 9.500,14.002 L4.500,14.002 C3.260,14.002 2.201,13.561 1.320,12.681 C0.440,11.801 -0.000,10.741 -0.000,9.501 L-0.000,4.499 C-0.000,3.260 0.440,2.200 1.320,1.319 C2.201,0.439 3.260,-0.001 4.500,-0.001 L5.500,-0.001 C5.646,-0.001 5.766,0.046 5.859,0.139 C5.953,0.233 6.000,0.353 6.000,0.499 L6.000,1.499 C6.000,1.645 5.953,1.764 5.859,1.858 C5.766,1.952 5.646,1.999 5.500,1.999 L4.500,1.999 C3.812,1.999 3.224,2.244 2.734,2.733 C2.245,3.223 2.000,3.811 2.000,4.499 L2.000,9.501 C2.000,10.189 2.245,10.777 2.734,11.267 C3.224,11.756 3.812,12.001 4.500,12.001 L9.500,12.001 C10.187,12.001 10.776,11.756 11.266,11.267 C11.755,10.777 12.000,10.189 12.000,9.501 L12.000,8.500 C12.000,8.354 12.047,8.234 12.141,8.141 C12.234,8.047 12.354,8.000 12.500,8.000 L13.500,8.000 C13.646,8.000 13.766,8.047 13.859,8.141 C13.953,8.235 14.000,8.355 14.000,8.500 L14.000,9.501 C14.000,10.741 13.560,11.801 12.680,12.681 ZM13.480,5.198 C13.339,5.198 13.217,5.147 13.115,5.044 L11.685,3.614 L6.389,8.911 C6.335,8.965 6.272,8.992 6.202,8.992 C6.132,8.992 6.069,8.965 6.015,8.911 L5.089,7.985 C5.035,7.931 5.008,7.869 5.008,7.798 C5.008,7.728 5.035,7.666 5.089,7.611 L10.385,2.315 L8.956,0.885 C8.853,0.782 8.801,0.660 8.801,0.519 C8.801,0.378 8.853,0.256 8.956,0.154 C9.058,0.051 9.180,-0.001 9.321,-0.001 L13.480,-0.001 C13.621,-0.001 13.743,0.051 13.846,0.154 C13.948,0.256 14.000,0.378 14.000,0.519 L14.000,4.679 C14.000,4.820 13.949,4.941 13.846,5.044 C13.743,5.147 13.621,5.198 13.480,5.198 Z"/>
</svg>
