<?xml version="1.0" encoding="UTF-8" standalone="no"?>
<svg width="100%" height="100%" viewBox="0 0 111 25" version="1.1" xmlns="http://www.w3.org/2000/svg" xmlns:xlink="http://www.w3.org/1999/xlink" style="fill-rule:evenodd;clip-rule:evenodd;stroke-linejoin:round;stroke-miterlimit:1.41421;">
  <path d="M109,25L30,25C28.895,25 28,24.105 28,23C28,21.895 28.895,21 30,21L109,21C110.105,21 111,21.895 111,23C111,24.105 110.105,25 109,25ZM67,4L2,4C0.895,4 0,3.105 0,2C0,0.895 0.895,0 2,0L67,0C68.105,0 69,0.895 69,2C69,3.105 68.105,4 67,4ZM2,21L21,21C22.105,21 23,21.895 23,23C23,24.105 22.105,25 21,25L2,25C0.895,25 0,24.105 0,23C0,21.895 0.895,21 2,21Z"/>
</svg>
