<?xml version="1.0" encoding="utf-8"?>
<svg version="1.1" xmlns="http://www.w3.org/2000/svg" xmlns:xlink="http://www.w3.org/1999/xlink"
	 x="0px" y="0px" viewBox="0 0 23 18" style="enable-background:new 0 0 23 18;" xml:space="preserve">
<style type="text/css">
	.st0{fill:#CAD6E4;}
</style>
<g>
	<g>
		<path class="st0" d="M19.5,11.2c-1.5,0-2.8,0.9-3.2,2.2h-0.8c-0.7,0-1.3-0.3-1.8-0.8c0,0-0.1-0.1-0.1-0.1c-0.3,1.2-1.2,2-1.1,2.1
			s0.1,0.1,0.1,0.1c0.8,0.6,1.8,1,2.9,1h0.8c0.5,1.3,1.7,2.2,3.2,2.2c1.9,0,3.5-1.5,3.5-3.4S21.5,11.2,19.5,11.2z M19.5,15.8
			c-0.6,0-1.1-0.5-1.1-1.1s0.5-1.1,1.1-1.1s1.2,0.5,1.2,1.1S20.2,15.8,19.5,15.8z M3.5,6.8c1.5,0,2.8-0.9,3.2-2.2h0.4
			c0.7,0,1.4,0.2,1.9,0.7c0,0,0.1,0.1,0.1,0.1s0.1-1.1,1.2-2c0,0-0.1-0.1-0.1-0.1c-0.9-0.6-2-1-3.1-1H6.7C6.2,0.9,4.9,0,3.5,0
			C1.5,0,0,1.5,0,3.4S1.5,6.8,3.5,6.8z M3.5,2.2c0.6,0,1.1,0.5,1.1,1.1S4.1,4.5,3.5,4.5S2.3,4,2.3,3.4S2.8,2.2,3.5,2.2z M16.3,4.6
			c0.5,1.3,1.7,2.2,3.2,2.2c1.9,0,3.5-1.5,3.5-3.4S21.5,0,19.5,0c-1.5,0-2.8,1-3.3,2.3c-3.4,0.5-5.9,3.3-5.9,6.7
			c0,2.2-1.6,4-3.7,4.4c-0.5-1.3-1.7-2.2-3.2-2.2c-1.9,0-3.5,1.5-3.5,3.4S1.5,18,3.5,18c1.5,0,2.8-1,3.3-2.3
			c3.4-0.5,5.9-3.3,5.9-6.7C12.7,6.8,14.2,5,16.3,4.6z M19.5,2.2c0.6,0,1.2,0.5,1.2,1.1s-0.5,1.1-1.2,1.1S18.4,4,18.4,3.4
			S18.9,2.2,19.5,2.2z M3.5,15.8c-0.6,0-1.2-0.5-1.2-1.1s0.5-1.1,1.2-1.1s1.1,0.5,1.1,1.1S4.1,15.8,3.5,15.8z"/>
	</g>
</g>
</svg>
