<svg version="1.1" id="Layer_1" xmlns="http://www.w3.org/2000/svg" x="0" y="0" viewBox="0 0 23.4 21" xml:space="preserve"><g id="Plugin_Registration" transform="translate(-361.25 -366.25)" fill="none" stroke="currentColor" stroke-width="1.5" stroke-linecap="round"><path id="Прямоугольник_скругл._углы_973" d="M375.5 373.1h7.2c.7 0 1.2.5 1.2 1.2v11c0 .7-.5 1.2-1.2 1.2h-19.5c-.7 0-1.2-.5-1.2-1.2v-11c0-.7.5-1.2 1.2-1.2h2.3"/><path id="Прямоугольник_скругл._углы_971_копия" d="M375.4 373.1v-5.2c0-.5.2-.9.5-.9h4.5c.3 0 .5.4.5.9v4.8"/><path id="Прямоугольник_скругл._углы_971_копия_2" d="M365.5 373v-5.2c0-.4.2-.7.6-.8h5.1c.4.1.6.4.6.8V378"/><path id="Path_326" d="M368.6 378h9.6"/></g></svg>
