<svg xmlns="http://www.w3.org/2000/svg" viewBox="0 0 20 20">
  <defs>
    <style>
      .cls-1 {
        clip-path: url(#clip-Canvas);
      }

      .cls-2 {
        fill: #8c96d9;
      }
    </style>
    <clipPath id="clip-Canvas">
      <rect width="20" height="20"/>
    </clipPath>
  </defs>
  <g class="cls-1">
    <path class="cls-2" d="M1,19V10.989H9.011V19Zm1.975-1.975h3.97v-3.97H2.973ZM16.99,19V17.01H19V19Zm-3,0V17.01H16V19ZM11,19l-.012-8.012L16,11v2h1V11h2l0-.011L19,16H14V14H13v5ZM4,16V14.17H5.83V16Zm6.988-6.988V1H19V9.012ZM13,7h4V3H13ZM1,9.012V1H9.011V9.012ZM2.973,6.943h3.97V2.973H2.973ZM13.99,6.01V4H16V6.01Zm-10-.06V3.99H5.95V5.95Z"/>
  </g>
</svg>
