<svg xmlns="http://www.w3.org/2000/svg" xmlns:xlink="http://www.w3.org/1999/xlink" viewBox="0 0 20 20">
  <defs>
    <style>
      .cls-1 {
        clip-path: url(#clip-Canvas);
      }

      .cls-2 {
        fill: #8c97da;
      }

      .cls-3 {
        fill: rgba(0,0,0,0);
      }
    </style>
    <clipPath id="clip-Canvas">
      <rect width="20" height="20"/>
    </clipPath>
  </defs>
  <g class="cls-1">
    <path class="cls-2" d="M13.431,9.881a5.167,5.167,0,0,0,1.6-3.745A5.089,5.089,0,0,0,10,1,5.089,5.089,0,0,0,4.971,6.136a5.168,5.168,0,0,0,1.6,3.745A8.781,8.781,0,0,0,3,17.247V18H17v-.752A8.78,8.78,0,0,0,13.431,9.881ZM7.006,6A2.994,2.994,0,1,1,10,8.989,3,3,0,0,1,7.006,6ZM5,15.995a6.5,6.5,0,0,1,2.774-4.907L7.879,11a5.279,5.279,0,0,0,4.242,0l.105.091A6.5,6.5,0,0,1,15,15.995Z"/>
  </g>
</svg>
