<?xml version="1.0" encoding="utf-8"?>
<!-- Generator: Adobe Illustrator 24.0.0, SVG Export Plug-In . SVG Version: 6.00 Build 0)  -->
<svg version="1.1" id="Shape_1_1_" xmlns="http://www.w3.org/2000/svg" xmlns:xlink="http://www.w3.org/1999/xlink" x="0px" y="0px"
	 viewBox="0 0 696 800" style="enable-background:new 0 0 696 800;" xml:space="preserve">
<style type="text/css">
	.st0{fill:#8794CE;}
</style>
<g id="Shape_1">
	<g>
		<path class="st0" d="M696,419.4C680.6,242,532.1,102.2,351.3,100.1V6c0-3.2-2.4-5.5-5.3-6h-2.7c-1,0.2-2,0.6-2.9,1.3L146.4,143.6
			c-3.3,2.5-3.3,7.2,0,9.6l193.9,142.3c4.4,3.3,11,0.3,11-4.7v-94c143.7,2.3,258.8,124.5,249,270.6
			C592,593.2,489.5,695.1,363.7,703.1c-133.2,8.5-246.6-86.6-266.8-212.4c-3.8-23.4-24.2-40.4-47.7-40.4c-29.3,0-52.2,26-47.6,54.9
			C30,684.5,195.6,819,387.4,797.6C548,779.6,676.7,651.3,695,490.9c0.4-3.5,0.7-6.9,1-10.4V419.4z"/>
	</g>
</g>
</svg>
