<?xml version="1.0" encoding="UTF-8" standalone="no"?>
<svg width="100%" height="100%" viewBox="0 0 16 16" version="1.1" xmlns="http://www.w3.org/2000/svg" xmlns:xlink="http://www.w3.org/1999/xlink" style="fill-rule:evenodd;clip-rule:evenodd;stroke-linejoin:round;stroke-miterlimit:1.41421;">
    <path id="icon" d="M0.987,16C0.445,15.997 0,15.549 0,15.007L0,0.994C-0.001,0.451 0.444,0.003 0.987,0L10.539,0C10.841,0.004 11.125,0.144 11.312,0.381L14.786,6.161C14.926,6.334 15.002,6.55 15,6.773L15,15.006C15,15.549 14.556,15.996 14.013,16L0.987,16ZM2,14L13.027,14.013L13.027,7.121L11,4L11,7C10.995,7.547 10.547,7.995 10,8L4,8C3.453,7.995 3.005,7.547 3,7L3,2L2,2L2,14ZM5,6L9,6L9,2L5,2L5,6ZM6.631,4.993C6.276,4.982 5.992,4.682 6,4.327L6,3.664C5.993,3.309 6.277,3.011 6.631,3L7.368,3C7.723,3.011 8.007,3.309 8,3.664L8,4.327C8.008,4.682 7.723,4.982 7.368,4.993L6.631,4.993Z" style="fill-rule:nonzero;"/>
</svg>
