<svg width="100%" height="100%" viewBox="0 0 17 16" version="1.1" xmlns="http://www.w3.org/2000/svg" xmlns:xlink="http://www.w3.org/1999/xlink" style="fill-rule:evenodd;clip-rule:evenodd;stroke-linejoin:round;stroke-miterlimit:1.41421;">
    <g transform="matrix(1,0,0,1,0.001,0)">
        <path d="M15.645,13.904L12.347,10.606C13.142,9.459 13.539,8.18 13.539,6.769C13.539,5.853 13.361,4.976 13.005,4.139C12.65,3.303 12.169,2.582 11.563,1.976C10.957,1.37 10.236,0.889 9.399,0.533C8.563,0.177 7.686,0 6.769,0C5.852,0 4.976,0.177 4.139,0.533C3.303,0.889 2.581,1.37 1.976,1.976C1.37,2.582 0.889,3.303 0.533,4.139C0.177,4.976 -0.001,5.853 -0.001,6.769C-0.001,7.686 0.177,8.563 0.533,9.399C0.889,10.236 1.37,10.957 1.976,11.563C2.581,12.169 3.303,12.649 4.139,13.005C4.976,13.361 5.852,13.539 6.769,13.539C8.18,13.539 9.459,13.141 10.606,12.346L13.904,15.635C14.135,15.879 14.423,16 14.77,16C15.103,16 15.392,15.879 15.635,15.635C15.879,15.392 16.001,15.103 16.001,14.77C16.001,14.43 15.882,14.142 15.645,13.904ZM10.087,10.087C9.191,10.982 8.114,11.43 6.854,11.43C5.594,11.43 4.516,10.982 3.621,10.087C2.725,9.191 2.278,8.114 2.278,6.854C2.278,5.594 2.725,4.516 3.621,3.621C4.516,2.725 5.594,2.278 6.854,2.278C8.114,2.278 9.191,2.725 10.087,3.621C10.983,4.516 11.43,5.594 11.43,6.854C11.43,8.114 10.982,9.191 10.087,10.087Z"/>
    </g>
</svg>
