<svg width="100%" height="100%" viewBox="0 0 30 30" version="1.1" xmlns="http://www.w3.org/2000/svg" xmlns:xlink="http://www.w3.org/1999/xlink" xml:space="preserve" xmlns:serif="http://www.serif.com/" style="fill-rule:evenodd;clip-rule:evenodd;stroke-linejoin:round;stroke-miterlimit:1.41421;">
  <g transform="matrix(2.73201,0,0,2.73183,-0.0138561,-0.0173183)">
    <path d="M10.76,0.236C10.61,0.085 10.431,0.01 10.225,0.01L4.898,0.01C4.691,0.01 4.513,0.085 4.363,0.236C4.212,0.387 4.137,0.565 4.137,0.771C4.137,0.977 4.212,1.156 4.363,1.306L6.075,3.018L0.127,8.966C0.048,9.046 0.008,9.137 0.008,9.24C0.008,9.343 0.047,9.434 0.127,9.513L1.482,10.869C1.562,10.948 1.653,10.988 1.756,10.988C1.859,10.988 1.95,10.948 2.029,10.869L7.977,4.921L9.689,6.633C9.84,6.784 10.019,6.859 10.225,6.859C10.431,6.859 10.609,6.784 10.76,6.633C10.91,6.483 10.986,6.304 10.986,6.098L10.986,0.771C10.986,0.565 10.911,0.386 10.76,0.236Z" style="fill:rgb(140,150,217);"/>
  </g>
</svg>
