<?xml version="1.0" encoding="utf-8"?>
<svg version="1.1" xmlns="http://www.w3.org/2000/svg" xmlns:xlink="http://www.w3.org/1999/xlink" viewBox="0 0 23 23">
  <path fill-rule="evenodd"
    d="M21.813,13.914 L20.199,14.183 C20.036,14.722 19.815,15.245 19.550,15.750 L20.502,17.085 C20.906,17.653 20.838,18.426 20.348,18.916 L18.916,20.348 C18.647,20.617 18.292,20.766 17.912,20.766 C17.614,20.766 17.326,20.674 17.086,20.502 L15.755,19.550 C15.255,19.815 14.731,20.031 14.188,20.199 L13.914,21.813 C13.799,22.500 13.208,23.000 12.511,23.000 L10.484,23.000 C9.787,23.000 9.196,22.500 9.081,21.813 L8.812,20.199 C8.288,20.036 7.779,19.829 7.293,19.574 L5.943,20.535 C5.703,20.708 5.420,20.800 5.122,20.800 C4.742,20.800 4.387,20.651 4.118,20.381 L2.686,18.950 C2.191,18.459 2.128,17.686 2.532,17.119 L3.479,15.803 C3.210,15.303 2.988,14.779 2.820,14.241 L1.187,13.962 C0.500,13.847 -0.000,13.256 -0.000,12.559 L-0.000,10.537 C-0.000,9.840 0.500,9.249 1.187,9.134 L2.782,8.865 C2.945,8.322 3.157,7.798 3.421,7.293 L2.460,5.944 C2.056,5.376 2.124,4.603 2.614,4.113 L4.050,2.681 C4.315,2.412 4.675,2.263 5.055,2.263 C5.352,2.263 5.641,2.354 5.881,2.527 L7.202,3.478 C7.702,3.210 8.226,2.988 8.764,2.820 L9.042,1.186 C9.158,0.500 9.749,0.000 10.445,0.000 L12.468,0.000 C13.165,0.000 13.756,0.500 13.871,1.186 L14.140,2.782 C14.702,2.950 15.245,3.176 15.764,3.450 L17.100,2.499 C17.340,2.325 17.624,2.234 17.922,2.234 C18.301,2.234 18.657,2.383 18.926,2.652 L20.358,4.084 C20.853,4.574 20.915,5.348 20.511,5.915 L19.560,7.245 C19.824,7.745 20.040,8.269 20.209,8.812 L21.823,9.086 C22.510,9.201 23.010,9.792 23.000,10.489 L23.000,12.511 C23.000,13.208 22.501,13.799 21.813,13.914 ZM20.999,10.560 C20.999,10.501 20.958,10.452 20.900,10.443 L19.021,10.126 C18.789,10.091 18.596,9.916 18.538,9.684 C18.368,9.027 18.109,8.398 17.760,7.813 C17.639,7.607 17.648,7.348 17.787,7.156 L18.892,5.606 C18.923,5.557 18.918,5.495 18.878,5.454 L17.545,4.123 C17.514,4.092 17.478,4.087 17.460,4.087 C17.438,4.087 17.415,4.096 17.393,4.110 L15.850,5.217 C15.653,5.356 15.398,5.365 15.192,5.244 C14.593,4.891 13.948,4.628 13.273,4.458 C13.040,4.400 12.866,4.208 12.825,3.971 L12.512,2.109 C12.503,2.051 12.454,2.010 12.396,2.010 L10.513,2.010 C10.454,2.010 10.405,2.051 10.396,2.109 L10.074,3.998 C10.034,4.230 9.859,4.418 9.631,4.481 C8.974,4.650 8.343,4.918 7.761,5.266 C7.555,5.387 7.296,5.378 7.099,5.240 L5.556,4.141 C5.538,4.128 5.515,4.119 5.489,4.119 C5.466,4.119 5.435,4.123 5.404,4.155 L4.071,5.486 C4.030,5.526 4.026,5.593 4.057,5.638 L5.171,7.201 C5.310,7.393 5.323,7.647 5.202,7.853 C4.858,8.438 4.603,9.072 4.437,9.729 C4.379,9.961 4.187,10.135 3.950,10.176 L2.084,10.488 C2.026,10.497 1.986,10.546 1.986,10.605 L1.986,12.485 C1.986,12.543 2.026,12.592 2.084,12.601 L3.976,12.923 C4.209,12.963 4.397,13.137 4.460,13.365 C4.630,14.021 4.898,14.651 5.247,15.232 C5.368,15.437 5.359,15.696 5.220,15.893 L4.120,17.434 C4.088,17.483 4.093,17.545 4.133,17.586 L5.466,18.917 C5.498,18.948 5.533,18.953 5.551,18.953 C5.574,18.953 5.596,18.944 5.618,18.930 L7.184,17.818 C7.287,17.742 7.412,17.706 7.533,17.706 C7.636,17.706 7.743,17.733 7.837,17.787 C8.414,18.117 9.032,18.372 9.672,18.537 C9.900,18.595 10.074,18.783 10.114,19.019 L10.427,20.896 C10.436,20.954 10.486,20.994 10.544,20.994 L12.427,20.994 C12.485,20.994 12.535,20.954 12.544,20.896 L12.861,19.019 C12.897,18.787 13.071,18.595 13.304,18.537 C13.962,18.368 14.593,18.108 15.178,17.760 C15.384,17.640 15.644,17.649 15.836,17.787 L17.388,18.890 C17.406,18.904 17.429,18.913 17.456,18.913 C17.478,18.913 17.509,18.908 17.541,18.877 L18.874,17.545 C18.914,17.506 18.918,17.438 18.887,17.394 L17.782,15.839 C17.644,15.643 17.635,15.388 17.755,15.183 C18.104,14.598 18.364,13.968 18.534,13.311 C18.592,13.083 18.780,12.909 19.017,12.869 L20.896,12.556 C20.954,12.547 20.994,12.498 20.994,12.440 L20.999,12.440 L20.999,10.560 ZM11.502,15.992 C9.022,15.992 7.007,13.978 7.007,11.498 C7.007,9.017 9.022,7.003 11.502,7.003 C13.983,7.003 15.997,9.017 15.997,11.498 C15.997,13.978 13.983,15.992 11.502,15.992 ZM11.502,9.011 C10.129,9.011 9.014,10.126 9.014,11.498 C9.014,12.871 10.129,13.986 11.502,13.986 C12.874,13.986 13.990,12.871 13.990,11.498 C13.990,10.126 12.874,9.011 11.502,9.011 Z"/>
</svg>
