<?xml version="1.0" encoding="utf-8"?>
<!-- Generator: Adobe Illustrator 22.0.1, SVG Export Plug-In . SVG Version: 6.00 Build 0)  -->
<svg version="1.1" id="Layer_1" xmlns="http://www.w3.org/2000/svg" xmlns:xlink="http://www.w3.org/1999/xlink" x="0px" y="0px"
	 viewBox="0 0 4 20" style="enable-background:new 0 0 4 20;" xml:space="preserve">
<style type="text/css">
	.st0{fill:#B7CCDE;}
</style>
<path id="setting" class="st0" d="M0,18c0-1.1,0.9-2,2-2s2,0.9,2,2s-0.9,2-2,2S0,19.1,0,18z M0,10c0-1.1,0.9-2,2-2s2,0.9,2,2
	s-0.9,2-2,2S0,11.1,0,10z M0,2c0-1.1,0.9-2,2-2s2,0.9,2,2S3.1,4,2,4S0,3.1,0,2z"/>
</svg>
