<?xml version="1.0" encoding="UTF-8" standalone="no"?><!DOCTYPE svg PUBLIC "-//W3C//DTD SVG 1.1//EN" "http://www.w3.org/Graphics/SVG/1.1/DTD/svg11.dtd"><svg width="100%" height="100%" viewBox="0 0 18 18" version="1.1" xmlns="http://www.w3.org/2000/svg" xmlns:xlink="http://www.w3.org/1999/xlink" xml:space="preserve" xmlns:serif="http://www.serif.com/" style="fill-rule:evenodd;clip-rule:evenodd;stroke-linejoin:round;stroke-miterlimit:1.41421;"><path d="M16.36,10.436l-1.211,0.201c-0.122,0.404 -0.288,0.797 -0.486,1.175l0.714,1.002c0.302,0.425 0.252,1.005 -0.116,1.373l-1.074,1.074c-0.202,0.202 -0.468,0.313 -0.753,0.313c-0.223,0 -0.439,-0.068 -0.62,-0.198l-0.998,-0.713c-0.375,0.198 -0.768,0.36 -1.175,0.486l-0.205,1.211c-0.087,0.515 -0.53,0.89 -1.053,0.89l-1.52,0c-0.523,0 -0.966,-0.375 -1.052,-0.89l-0.202,-1.211c-0.393,-0.122 -0.775,-0.277 -1.139,-0.469l-1.013,0.721c-0.18,0.13 -0.392,0.198 -0.615,0.198c-0.285,0 -0.552,-0.111 -0.753,-0.313l-1.074,-1.074c-0.372,-0.367 -0.419,-0.948 -0.116,-1.373l0.71,-0.987c-0.202,-0.375 -0.368,-0.768 -0.494,-1.171l-1.225,-0.21c-0.515,-0.086 -0.89,-0.529 -0.89,-1.052l0,-1.516c0,-0.523 0.375,-0.966 0.89,-1.053l1.197,-0.201c0.122,-0.408 0.281,-0.801 0.479,-1.179l-0.721,-1.013c-0.303,-0.425 -0.252,-1.005 0.116,-1.372l1.077,-1.074c0.198,-0.202 0.468,-0.314 0.753,-0.314c0.223,0 0.44,0.068 0.62,0.198l0.991,0.714c0.375,-0.202 0.768,-0.367 1.171,-0.494l0.208,-1.225c0.087,-0.515 0.531,-0.89 1.053,-0.89l1.517,0c0.523,0 0.966,0.375 1.052,0.89l0.202,1.196c0.422,0.126 0.829,0.296 1.218,0.501l1.002,-0.713c0.18,-0.13 0.393,-0.199 0.617,-0.199c0.284,0 0.551,0.112 0.752,0.314l1.074,1.074c0.372,0.367 0.418,0.948 0.115,1.373l-0.713,0.998c0.198,0.375 0.361,0.768 0.487,1.175l1.21,0.205c0.515,0.087 0.89,0.53 0.883,1.053l0,1.516c0,0.523 -0.374,0.966 -0.89,1.052Zm-0.611,-2.515c0,-0.044 -0.03,-0.08 -0.074,-0.087l-1.409,-0.238c-0.174,-0.027 -0.319,-0.157 -0.362,-0.332c-0.128,-0.492 -0.322,-0.965 -0.584,-1.403c-0.091,-0.155 -0.084,-0.349 0.02,-0.493l0.829,-1.163c0.023,-0.036 0.02,-0.083 -0.01,-0.114l-1,-0.998c-0.023,-0.023 -0.05,-0.026 -0.064,-0.026c-0.017,0 -0.034,0.006 -0.05,0.016l-1.157,0.831c-0.148,0.104 -0.339,0.111 -0.494,0.02c-0.45,-0.265 -0.933,-0.462 -1.439,-0.59c-0.175,-0.043 -0.305,-0.187 -0.336,-0.365l-0.235,-1.396c-0.007,-0.044 -0.043,-0.074 -0.087,-0.074l-1.412,0c-0.044,0 -0.081,0.03 -0.088,0.074l-0.241,1.416c-0.03,0.174 -0.162,0.315 -0.333,0.363c-0.492,0.126 -0.966,0.327 -1.402,0.589c-0.155,0.09 -0.349,0.083 -0.497,-0.02l-1.157,-0.824c-0.013,-0.01 -0.031,-0.017 -0.05,-0.017c-0.017,0 -0.041,0.003 -0.064,0.026l-1,0.999c-0.03,0.03 -0.033,0.081 -0.01,0.114l0.835,1.173c0.105,0.144 0.114,0.334 0.024,0.489c-0.258,0.438 -0.45,0.914 -0.574,1.407c-0.044,0.174 -0.188,0.304 -0.365,0.335l-1.4,0.234c-0.043,0.007 -0.073,0.043 -0.073,0.087l0,1.411c0,0.043 0.03,0.08 0.073,0.087l1.419,0.241c0.175,0.03 0.316,0.161 0.363,0.332c0.128,0.492 0.329,0.964 0.59,1.4c0.091,0.154 0.084,0.349 -0.02,0.496l-0.825,1.156c-0.024,0.036 -0.02,0.083 0.01,0.113l1,0.999c0.024,0.023 0.05,0.027 0.063,0.027c0.018,0 0.034,-0.007 0.051,-0.018l1.174,-0.833c0.077,-0.058 0.171,-0.084 0.262,-0.084c0.077,0 0.157,0.02 0.228,0.06c0.433,0.248 0.896,0.439 1.376,0.563c0.171,0.043 0.302,0.184 0.332,0.362l0.235,1.407c0.006,0.043 0.044,0.073 0.087,0.073l1.412,0c0.044,0 0.081,-0.03 0.088,-0.073l0.238,-1.407c0.027,-0.175 0.157,-0.319 0.332,-0.362c0.494,-0.127 0.966,-0.321 1.406,-0.583c0.154,-0.09 0.349,-0.083 0.493,0.02l1.165,0.827c0.013,0.011 0.03,0.018 0.05,0.018c0.017,0 0.04,-0.004 0.064,-0.027l1,-0.999c0.03,-0.03 0.033,-0.08 0.009,-0.114l-0.828,-1.166c-0.104,-0.147 -0.111,-0.338 -0.021,-0.492c0.262,-0.438 0.457,-0.911 0.585,-1.404c0.043,-0.171 0.184,-0.301 0.362,-0.331l1.409,-0.235c0.043,-0.006 0.073,-0.044 0.073,-0.087l0.004,0l0,-1.41Zm-7.123,4.075c-1.86,0 -3.371,-1.512 -3.371,-3.372c0,-1.86 1.511,-3.371 3.371,-3.371c1.861,0 3.372,1.511 3.372,3.371c0,1.86 -1.511,3.372 -3.372,3.372Z"/></svg>