<?xml version="1.0" encoding="UTF-8" standalone="no"?>
<svg width="100%" height="100%" viewBox="0 0 14 13" version="1.1" xmlns="http://www.w3.org/2000/svg" xmlns:xlink="http://www.w3.org/1999/xlink" style="fill-rule:evenodd;clip-rule:evenodd;stroke-linejoin:round;stroke-miterlimit:1.41421;">
  <path d="M12.5,3L1.5,3C0.672,3 0,2.328 0,1.5C0,0.672 0.672,0 1.5,0L12.5,0C13.328,0 14,0.672 14,1.5C14,2.328 13.328,3 12.5,3ZM3.5,5L10.5,5C11.328,5 12,5.672 12,6.5C12,7.328 11.328,8 10.5,8L3.5,8C2.672,8 2,7.328 2,6.5C2,5.672 2.672,5 3.5,5ZM5.5,10L8.5,10C9.328,10 10,10.672 10,11.5C10,12.328 9.328,13 8.5,13L5.5,13C4.672,13 4,12.328 4,11.5C4,10.672 4.672,10 5.5,10Z"/>
</svg>
