<?xml version="1.0" encoding="UTF-8" standalone="no"?>
<svg width="100%" height="100%" viewBox="0 0 23 23" version="1.1"
  xmlns="http://www.w3.org/2000/svg"
  xmlns:xlink="http://www.w3.org/1999/xlink" xml:space="preserve"
  xmlns:serif="http://www.serif.com/" style="fill-rule:evenodd;clip-rule:evenodd;stroke-linejoin:round;stroke-miterlimit:1.41421;">
  <path d="M21.75,12l-1.5,0c-0.414,0 -0.75,-0.336 -0.75,-0.75c0,-0.414 0.336,-0.75 0.75,-0.75l1.5,0c0.414,0 0.75,0.336 0.75,0.75c0,0.414 -0.336,0.75 -0.75,0.75Zm-4.136,6.674l-0.531,-0.53c-0.293,-0.292 -0.293,-0.768 0,-1.06c0.293,-0.294 0.768,-0.294 1.061,0l0.53,0.53c0.293,0.292 0.293,0.768 0,1.06c-0.292,0.294 -0.768,0.294 -1.06,0Zm0.53,-13.258c-0.293,0.293 -0.768,0.293 -1.061,0.001c-0.293,-0.294 -0.293,-0.768 0,-1.062l0.531,-0.53c0.292,-0.292 0.768,-0.292 1.06,0c0.293,0.293 0.293,0.768 0,1.061l-0.53,0.531Zm-6.894,12.583c-3.728,0 -6.75,-3.022 -6.75,-6.75c0,-3.728 3.022,-6.75 6.75,-6.75c3.728,0 6.75,3.022 6.75,6.75c0,3.728 -3.022,6.75 -6.75,6.75Zm0,-15c-0.414,0 -0.75,-0.336 -0.75,-0.75l0,-1.5c0,-0.414 0.336,-0.75 0.75,-0.75c0.414,0 0.75,0.336 0.75,0.75l0,1.5c0,0.414 -0.336,0.75 -0.75,0.75Zm-6.894,2.417l-0.531,-0.531c-0.293,-0.293 -0.293,-0.768 0,-1.061c0.293,-0.293 0.768,-0.293 1.061,0l0.531,0.53c0.292,0.293 0.292,0.768 0,1.061c-0.294,0.293 -0.768,0.293 -1.061,0Zm-2.106,6.584l-1.5,0c-0.414,0 -0.75,-0.336 -0.75,-0.75c0,-0.414 0.336,-0.75 0.75,-0.75l1.5,0c0.414,0 0.75,0.336 0.75,0.75c0,0.414 -0.336,0.75 -0.75,0.75Zm2.106,5.084c0.293,-0.294 0.767,-0.294 1.061,0c0.292,0.292 0.292,0.768 0,1.06l-0.531,0.53c-0.293,0.294 -0.768,0.294 -1.061,0c-0.292,-0.292 -0.292,-0.768 0,-1.06l0.531,-0.531Zm6.894,2.417c0.414,0 0.75,0.336 0.75,0.75l0,1.5c0,0.414 -0.336,0.75 -0.75,0.75c-0.414,0 -0.75,-0.336 -0.75,-0.75l0,-1.5c0,-0.414 0.336,-0.75 0.75,-0.75Z"/>
</svg>
