<svg xmlns="http://www.w3.org/2000/svg" xmlns:xlink="http://www.w3.org/1999/xlink" viewBox="0 0 16 16">
  <path fill="#c0cddf" d="M7,16a1,1,0,0,1-1-1V13a1,1,0,0,1,1-1h8a1,1,0,0,1,1,1v2a1,1,0,0,1-1,1ZM1,16a1,1,0,0,1-1-1V13a1,1,0,0,1,1-1H3a1,1,0,0,1,1,1v2a1,1,0,0,1-1,1Zm6-6A1,1,0,0,1,6,9V7A1,1,0,0,1,7,6h8a1,1,0,0,1,1,1V9a1,1,0,0,1-1,1ZM1,10A1,1,0,0,1,0,9V7A1,1,0,0,1,1,6H3A1,1,0,0,1,4,7V9a1,1,0,0,1-1,1ZM7,4A1,1,0,0,1,6,3V1A1,1,0,0,1,7,0h8a1,1,0,0,1,1,1V3a1,1,0,0,1-1,1ZM1,4A1,1,0,0,1,0,3V1A1,1,0,0,1,1,0H3A1,1,0,0,1,4,1V3A1,1,0,0,1,3,4Z" />
</svg>
