<svg xmlns="http://www.w3.org/2000/svg" xmlns:xlink="http://www.w3.org/1999/xlink" viewBox="0 0 12 13">
  <defs>
    <style>
      .cls-2 {
        fill: #e95c51;
      }
    </style>
  </defs>
  <g>
    <path class="cls-2" d="M5.975,13A5.993,5.993,0,0,1,4.332,1.25a.333.333,0,0,0,.2-.25V.5a.472.472,0,0,1,.5-.5H7.02a.472.472,0,0,1,.5.5V1a.254.254,0,0,0,.2.25A6.146,6.146,0,0,1,9.361,2a.312.312,0,0,0,.139.033.169.169,0,0,0,.16-.083l.248-.25a.479.479,0,0,1,.7,0l.7.7a.484.484,0,0,1,0,.7l-.248.25a.237.237,0,0,0-.05.3,5.827,5.827,0,0,1,1,3.3,6.164,6.164,0,0,1-1.8,4.282A5.93,5.93,0,0,1,5.975,13Zm0-10A4,4,0,1,0,9.958,7,4,4,0,0,0,5.975,3Zm.537,5.011H5.505a.475.475,0,0,1-.5-.5v-3a.475.475,0,0,1,.5-.5H6.512a.475.475,0,0,1,.5.5v3A.476.476,0,0,1,6.512,8.011Z"/>
  </g>
</svg>
