<svg xmlns="http://www.w3.org/2000/svg" viewBox="0 0 15 14">
  <path fill="#4375ba" d="M13.00337,1.99995h-2.0918c0.05585-0.1571,0.0918-0.32373,0.0918-0.5c0-0.82843-0.67163-1.49994-1.5-1.49994 H4.50331c-0.82837,0-1.49994,0.67151-1.49994,1.49994c0,0.17627,0.03595,0.3429,0.0918,0.5H1.00331 c-0.55225,0-1.00006,0.44775-1.00006,1.00006c0,0.55219,0.44781,0.99994,1.00006,0.99994h12.00006c0.55225,0,1-0.44775,1-0.99994 C14.00337,2.44771,13.55562,1.99995,13.00337,1.99995z M2.00337,13.00001c0,1.10455,0.89539,2,1.99994,2h6.00006 c1.10461,0,2-0.89545,2-2V4.99995h-10V13.00001z M8.00331,7.99995c0-0.55225,0.44775-1,1.00006-1c0.55225,0,1,0.44775,1,1v4.00006 c0,0.55225-0.44775,1-1,1c-0.55231,0-1.00006-0.44775-1.00006-1V7.99995z M4.00331,7.99995c0-0.55225,0.44769-1,1-1 c0.55237,0,1.00006,0.44775,1.00006,1v4.00006c0,0.55225-0.44769,1-1.00006,1c-0.55231,0-1-0.44775-1-1V7.99995z"/>
</svg>
