<svg xmlns="http://www.w3.org/2000/svg" viewBox="0 0 14 15">
  <path fill="currentColor" d="M13.00006,1.99994h-2.0918c0.05585-0.1571,0.0918-0.32373,0.0918-0.5c0-0.82843-0.67163-1.49994-1.5-1.49994 H4.5C3.67163,0,3.00006,0.67151,3.00006,1.49994c0,0.17627,0.03595,0.3429,0.0918,0.5H1C0.44775,1.99994-0.00006,2.44769-0.00006,3 c0,0.55219,0.44781,0.99994,1.00006,0.99994h12.00006c0.55225,0,1-0.44775,1-0.99994 C14.00006,2.4477,13.55231,1.99994,13.00006,1.99994z M2.00006,13c0,1.10455,0.89539,2,1.99994,2h6.00006c1.10461,0,2-0.89545,2-2 V4.99994h-10C2.00006,4.99994,2.00006,13,2.00006,13z M8,7.99994c0-0.55225,0.44775-1,1.00006-1c0.55225,0,1,0.44775,1,1V12 c0,0.55225-0.44775,1-1,1C8.44775,13,8,12.55225,8,12V7.99994z M4,7.99994c0-0.55225,0.44769-1,1-1 c0.55237,0,1.00006,0.44775,1.00006,1V12c0,0.55225-0.44769,1-1.00006,1c-0.55231,0-1-0.44775-1-1V7.99994z" />
</svg>
