<?xml version="1.0" encoding="utf-8"?>
<!-- Generator: Adobe Illustrator 19.2.0, SVG Export Plug-In . SVG Version: 6.00 Build 0)  -->
<svg version="1.1" id="Layer_1" xmlns="http://www.w3.org/2000/svg" xmlns:xlink="http://www.w3.org/1999/xlink" x="0px" y="0px"
	 viewBox="0 0 32 17" style="enable-background:new 0 0 32 17;" xml:space="preserve">
<path fill="currentColor" d="M6.1667,6.00008c-1.65686,0-3,1.34314-3,3c0,1.6568,1.34314,2.99994,3,2.99994c1.6568,0,3-1.34314,3-2.99994 C9.1667,7.34322,7.8235,6.00008,6.1667,6.00008z M16.00006,6.00008c-1.65686,0-3,1.34314-3,3c0,1.6568,1.34314,2.99994,3,2.99994 c1.6568,0,2.99994-1.34314,2.99994-2.99994C19,7.34322,17.65685,6.00008,16.00006,6.00008z M31.30563,13.06752l-0.94617-1.63544 c-0.43689-0.75488-0.66791-1.61945-0.66791-2.49933V7.50007c0-1.80853-1.16431-3.33826-2.75598-3.83136V2.64296 c0-0.63031-0.49445-1.14294-1.10248-1.14294c-0.60767,0-1.10211,0.51263-1.10211,1.14294v1.02576 C23.13894,4.16182,21.975,5.69155,21.975,7.50008v1.43268c0,0.87988-0.23096,1.7439-0.66754,2.49878l-0.94617,1.63544 c-0.05151,0.0885-0.05267,0.1983-0.00342,0.28796c0.04919,0.08972,0.13989,0.1452,0.23901,0.1452h10.47241 c0.09918,0,0.19067-0.05548,0.23981-0.14453C31.3583,13.26637,31.35641,13.15547,31.30563,13.06752z M25.86434,16.50008 c1.10449,0,2.05219-0.828,2.49969-2.01477h-4.99939C23.81259,15.67207,24.76034,16.50008,25.86434,16.50008z" />
</svg>
