<svg xmlns="http://www.w3.org/2000/svg" viewBox="0 0 15 14">
  <path fill="currentColor" d="M12.16547,5.99843l-2.8161,4H11.25v1c0,0.55078-0.42114,1-0.93756,1h-5.625 c-0.51654,0-0.93744-0.44922-0.93744-1v-1H1.875v1c0,1.6543,1.26129,3,2.81244,3h5.625c1.55096,0,2.81256-1.3457,2.81256-3v-1H15 L12.16547,5.99843z M5.65088,3.99843H3.75v-1c0-0.55103,0.4209-1,0.93744-1h5.625c0.51642,0,0.93756,0.44897,0.93756,1v1h1.875v-1 c0-1.6546-1.2616-3-2.81256-3h-5.625c-1.55115,0-2.81244,1.3454-2.81244,3v1H0l2.83447,4L5.65088,3.99843z" />
</svg>
