<?xml version="1.0" encoding="utf-8"?>
<!-- Generator: Adobe Illustrator 19.2.0, SVG Export Plug-In . SVG Version: 6.00 Build 0)  -->
<svg version="1.1" id="Layer_1" xmlns="http://www.w3.org/2000/svg" xmlns:xlink="http://www.w3.org/1999/xlink" x="0px" y="0px"
	 viewBox="0 0 32 17" style="enable-background:new 0 0 32 17;" xml:space="preserve">
<g id="Эллипс_685_копия_2_4_">
	<g>
		<path fill="currentColor" d="M3.50362,6.00008c-1.65686,0-3,1.34314-3,3c0,1.6568,1.34314,2.99994,3,2.99994c1.6568,0,3-1.34314,3-2.99994
			C6.50362,7.34322,5.16042,6.00008,3.50362,6.00008z M13.50362,6.00008c-1.65686,0-3,1.34314-3,3
			c0,1.6568,1.34314,2.99994,3,2.99994c1.6568,0,2.99994-1.34314,2.99994-2.99994
			C16.50356,7.34322,15.16041,6.00008,13.50362,6.00008z"/>
	</g>
</g>
<g id="Forma_1_12_">
	<g>
		<path fill="currentColor" d="M31.45717,12.56746L30.511,10.93202c-0.43689-0.75488-0.66791-1.61945-0.66791-2.49933V7.00001
			c0-1.80853-1.16431-3.33826-2.75598-3.83136V2.1429c0-0.63031-0.49445-1.14294-1.10248-1.14294
			c-0.60767,0-1.10211,0.51263-1.10211,1.14294v1.02576c-1.59204,0.4931-2.75598,2.02283-2.75598,3.83136v1.43268
			c0,0.87988-0.23096,1.7439-0.66754,2.49878l-0.94617,1.63544c-0.05151,0.0885-0.05267,0.1983-0.00342,0.28796
			c0.04919,0.08972,0.13989,0.1452,0.23901,0.1452h10.47241c0.09918,0,0.19067-0.05548,0.23981-0.14453
			C31.50984,12.76631,31.50795,12.65541,31.45717,12.56746z M26.01588,16.00002c1.10449,0,2.05219-0.828,2.49969-2.01477h-4.99939
			C23.96413,15.17201,24.91188,16.00002,26.01588,16.00002z"/>
	</g>
</g>
</svg>
