<svg xmlns="http://www.w3.org/2000/svg" xmlns:xlink="http://www.w3.org/1999/xlink" viewBox="0 0 19 23">
  <defs>
    <style>
      .cls-1 {
        clip-path: url(#clip-Canvas);
      }

      .cls-2 {
        fill: #944459;
      }

      .cls-3 {
        fill: rgba(0,0,0,0);
      }
    </style>
    <clipPath id="clip-Canvas">
      <rect width="19" height="23"/>
    </clipPath>
  </defs>
  <g id="Canvas" class="cls-1">
    <path d="M12.551,22.727,10.32,20.616a1.026,1.026,0,0,1-.07-1.417l.213-.244a.95.95,0,0,1,1.355-.087l1.217,1.083,4.032-4.619a.949.949,0,0,1,1.354-.089l.24.213a1.028,1.028,0,0,1,.1,1.417L13.952,22.65a.961.961,0,0,1-.684.348h-.049A.955.955,0,0,1,12.551,22.727ZM2.522,21c-1.459,0-2.4-1.105-2.4-2.816.029-.211.062-.419.1-.623a11.055,11.055,0,0,1,4.115-6.589A6.4,6.4,0,0,1,2.393,6.345,6.236,6.236,0,0,1,8.5,0a6.236,6.236,0,0,1,6.106,6.344,6.394,6.394,0,0,1-1.941,4.626l.024.021c.428.383.961.861,1.467,1.4.042.045.076.085.112.13a2.557,2.557,0,0,0,.212.23.341.341,0,0,1,.034.394,2.223,2.223,0,0,1-1.227.982.074.074,0,0,1-.062-.023c-.124-.155-.179-.217-.25-.3l-.05-.057a18.141,18.141,0,0,0-1.452-1.4l-.074-.066-.067-.06a7.162,7.162,0,0,1-2.826.615,7.1,7.1,0,0,1-2.84-.615l-.14.125A8.757,8.757,0,0,0,2.221,17.4a2.687,2.687,0,0,1-.093.388c-.086.3-.175.6,0,.832.19.254.691.377,1.531.377h3.4a.168.168,0,0,1,.154.091.488.488,0,0,1,.049.239c0,.556-.513,1.669-1.187,1.669ZM4.01,6.35A4.412,4.412,0,0,0,8.5,10.67a4.412,4.412,0,0,0,4.49-4.32A4.412,4.412,0,0,0,8.5,2.03,4.412,4.412,0,0,0,4.01,6.35Z"/>
  </g>
</svg>
