<?xml version="1.0" encoding="utf-8"?>
<svg version="1.1" xmlns="http://www.w3.org/2000/svg" xmlns:xlink="http://www.w3.org/1999/xlink" viewBox="0 0 23 20">
  <path fill-rule="evenodd"
    d="M21.8,8.489V7.583a3.557,3.557,0,0,0-2.618-3.447l0-1.493A2.622,2.622,0,0,0,16.587,0H16.45L4.313,3.838a2.52,2.52,0,0,0-.785.18H3.5A3.536,3.536,0,0,0,0,7.583v8.852A3.536,3.536,0,0,0,3.5,20H18.3a3.536,3.536,0,0,0,3.5-3.566V15.257A1.91,1.91,0,0,0,23,13.478V10.267A1.91,1.91,0,0,0,21.8,8.489Zm-.609,4.989a.064.064,0,0,1-.064.065h-4.9a.063.063,0,0,1-.063-.065V10.267a.064.064,0,0,1,.063-.064h4.9a.064.064,0,0,1,.064.064ZM16.7,1.852a.8.8,0,0,1,.673.793l0,1.373H9.85Zm1.605,16.3H3.5a1.706,1.706,0,0,1-1.688-1.722V7.583A1.705,1.705,0,0,1,3.5,5.861H18.3a1.705,1.705,0,0,1,1.689,1.722v.776h-3.76a1.893,1.893,0,0,0-1.872,1.908v3.211a1.893,1.893,0,0,0,1.872,1.909h3.76v1.048A1.705,1.705,0,0,1,18.3,18.156Z"/>
</svg>
