<?xml version="1.0" encoding="utf-8"?>
<svg version="1.1" xmlns="http://www.w3.org/2000/svg" xmlns:xlink="http://www.w3.org/1999/xlink" viewBox="0 0 23 23">
  <path fill-rule="evenodd"
    d="M4,21a4,4,0,0,1-4-4V1A1,1,0,0,1,1,0H15a1,1,0,0,1,1,1V12h3a1,1,0,0,1,1,1v4c0,2.209-.791,4-3,4Zm12-4c0,1.1-.1,2,1,2s1-.9,1-2V14H16ZM2,17a2,2,0,0,0,2,2H14.537a3.836,3.836,0,0,1-.21-.422c0-.009-.014-.018-.014-.028a4.044,4.044,0,0,1-.206-.663c-.013-.056-.023-.112-.033-.168A3.85,3.85,0,0,1,14,17V2H2Zm3-1a1,1,0,1,1,0-2h6a1,1,0,1,1,0,2Zm0-4a1,1,0,1,1,0-2h6a1,1,0,0,1,0,2ZM7,6A1,1,0,1,1,8,7,1,1,0,0,1,7,6Z"/>
</svg>
