<?xml version="1.0" encoding="utf-8"?>
<!-- Generator: Adobe Illustrator 22.0.1, SVG Export Plug-In . SVG Version: 6.00 Build 0)  -->
<svg version="1.1" id="Layer_1" xmlns="http://www.w3.org/2000/svg" xmlns:xlink="http://www.w3.org/1999/xlink" x="0px" y="0px"
	 viewBox="0 0 550 177" style="enable-background:new 0 0 550 177;" xml:space="preserve">
<style type="text/css">
	.st0{fill:#DBDEE5;}
	.st1{fill:none;stroke:#212225;stroke-width:2;stroke-linecap:round;}
	.st2{fill:none;}
	.st3{fill:none;stroke:#212225;stroke-width:2;}
	.st4{fill:none;stroke:#DBDEE5;stroke-width:2;}
	.st5{fill:#212225;}
</style>
<g id="images" transform="translate(-405 -322)">
	<path id="Прямоугольник_22_копия_11" class="st0" d="M860,499v-7h-38v7h-2v-7h-38v7h-2v-7h-38v7h-2v-7h-22v-2h22
		v-13h2v13h38v-23h2v23h38v-38h-14v-2h14v-7h2v7h38v-27h2v27h38v-38h-10v-2h10v-38h-20v-2h20v-38h-29v-2h29v-7h2v7h14v2h-14v38h38
		v-24h2v24h13v2h-13v38h13v2h-13v10h-2v-10h-38v38h19v2h-19v7h-2v-7h-38v38h11v2h-11v7H860z M860,490v-38h-38v38H860z M940,410v-38
		h-38v38H940z M460,498v-6h-4v-2h4v-38h-21v-2h21v-38h-38v16h-2v-16h-5v-2h5v-38h-15v-2h15v-8h2v8h38v-38h-15v-2h15v-8h2v8h8v2h-8
		v38h18v2h-18v38h18v2h-18v38h38v-13h2v13h12v2h-12v7h-2v-7h-38v38h12v2h-12v6H460z M460,410v-38h-38v38H460z M702,496v-4h-4v-2h4
		v-4h2v4h4v2h-4v4H702z M900,478v-4h-4v-2h4v-4h2v4h4v2h-4v4H900z M420,456v-4h-4v-2h4v-4h2v4h4v2h-4v4H420z M500,416v-4h-4v-2h4v-4
		h2v4h4v2h-4v4H500z M860,413v-4h-4v-2h4v-4h2v4h4v2h-4v4H860z M636,336v-4h-4v-2h4v-4h2v4h4v2h-4v4H636z"/>
	<g id="ledger">
		<path id="Прямоугольник_скругл._углы_973" class="st1" d="M805.9,364H821c5.5,0,10,4.5,10,10v44
			c0,5.5-4.5,10-10,10h-16.6 M534,428c-5.5,0-10-4.5-10-10v-44c0-5.5,4.5-10,10-10h228.7"/>
		<g id="Эллипс_2050" transform="translate(544 379)">
			<circle class="st2" cx="17" cy="17" r="17"/>
			<circle class="st3" cx="17" cy="17" r="16"/>
		</g>
		<path id="Прямоугольник_скругл._углы_973_копия" class="st4" d="M740.8,375l36.9-9.9
			c17-4.6,34.6,5.5,39.1,22.6s-5.5,34.6-22.6,39.1l0,0L548,492.6c-5.3,1.4-10.8-1.7-12.2-7.1l-11.4-42.4c-1.4-5.3,1.7-10.8,7.1-12.2
			c0,0,0,0,0,0l60.2-16.1"/>
		<g id="Эллипс_2050_копия_2" transform="translate(761 373)">
			<circle class="st2" cx="23" cy="23" r="23"/>
			<circle class="st4" cx="23" cy="23" r="22"/>
		</g>
		<g id="Эллипс_2050_копия" transform="translate(767 379)">
			<circle class="st2" cx="17" cy="17" r="17"/>
			<circle class="st3" cx="17" cy="17" r="16"/>
		</g>
		<path id="Ledger-2" class="st0" d="M548.4,464.2l-0.3-1l3.9-1l1,3.9l-1,0.3C550.5,466.7,548.8,465.8,548.4,464.2
			C548.4,464.2,548.4,464.2,548.4,464.2L548.4,464.2z M553.9,461.7l3.9-1l1,3.9l-3.9,1L553.9,461.7z M559.7,460.1l3.9-1l0.3,1
			c0.4,1.6-0.5,3.2-2.1,3.7c0,0,0,0,0,0l-1,0.3L559.7,460.1z M546.6,457.4l3.9-1l1,3.9l-3.9,1L546.6,457.4z M568.2,445.4l2.3-0.6
			l3.5,13l6.9-1.9l0.5,1.9l-9.2,2.5L568.2,445.4z M550.8,450.1l6.8-1.8c1.6-0.4,3.2,0.5,3.7,2.1l1.8,6.8l-9.7,2.6L550.8,450.1z
			 M585.8,456.2c-0.9-0.3-1.8-0.8-2.4-1.5c-0.7-0.8-1.2-1.8-1.5-2.9c-0.3-1-0.4-2.1-0.2-3.2c0.2-1,0.6-1.8,1.3-2.5
			c0.7-0.7,1.6-1.2,2.6-1.5c0.9-0.2,1.7-0.3,2.6-0.1c0.9,0.2,1.7,0.6,2.4,1.3c0.8,0.9,1.3,1.9,1.6,3.1l0.2,0.8l-8.1,2.2
			c0.2,0.9,0.8,1.7,1.6,2.2c0.8,0.4,1.7,0.5,2.6,0.3c0.6-0.1,1.1-0.4,1.5-0.8c0.4-0.4,0.6-0.9,0.7-1.5l2.2-0.2c0,1-0.4,1.9-1.1,2.6
			c-0.8,0.8-1.8,1.4-2.9,1.7c-0.6,0.2-1.1,0.2-1.7,0.2C586.7,456.4,586.2,456.3,585.8,456.2L585.8,456.2z M586.1,446.4
			c-0.6,0.1-1.1,0.4-1.5,0.8c-0.4,0.4-0.6,0.9-0.8,1.4c-0.1,0.5-0.2,1.1,0,1.6l6-1.6c-0.2-0.8-0.7-1.5-1.4-1.9
			c-0.4-0.3-0.9-0.4-1.4-0.4C586.7,446.3,586.4,446.3,586.1,446.4L586.1,446.4z M545.8,454.5c-0.4-1.6,0.5-3.2,2.1-3.7l1-0.3l1,3.9
			l-3.9,1L545.8,454.5z M611.9,453.6c-0.8-0.2-1.6-0.7-2.1-1.3l1.7-1.3c0.2,0.2,0.5,0.4,0.7,0.5c0.3,0.2,0.7,0.3,1.1,0.4
			c0.5,0.1,1.1,0,1.6-0.1c0.8-0.2,1.4-0.6,1.9-1.2c0.5-0.6,0.6-1.4,0.3-2.1l-0.6-2.2l-0.1,0c-0.1,0.3-0.2,0.6-0.4,0.9
			c-0.2,0.4-0.5,0.8-0.8,1c-0.5,0.4-1,0.6-1.6,0.8c-0.8,0.2-1.7,0.3-2.6,0c-0.9-0.2-1.6-0.7-2.2-1.4c-0.7-0.8-1.2-1.8-1.4-2.8
			c-0.3-1-0.4-2.2-0.2-3.2c0.2-0.9,0.6-1.7,1.2-2.4c0.6-0.7,1.4-1.1,2.3-1.3c0.6-0.2,1.2-0.2,1.8-0.1c0.4,0.1,0.9,0.3,1.2,0.5
			c0.3,0.2,0.5,0.4,0.8,0.7l0.2,0l-0.5-1.8l2.2-0.6l3.1,11.4c0.3,0.8,0.2,1.7-0.1,2.5c-0.3,0.8-0.8,1.4-1.5,1.9
			c-0.8,0.5-1.6,0.9-2.5,1.1c-0.7,0.2-1.4,0.3-2.1,0.3C612.8,453.8,612.3,453.8,611.9,453.6L611.9,453.6z M611.6,439.6
			c-0.6,0.1-1.1,0.5-1.5,1c-0.4,0.5-0.6,1-0.6,1.6c-0.1,0.7,0,1.4,0.2,2c0.2,1,0.7,1.8,1.5,2.5c1.4,1,3.4,0.6,4.3-0.9
			c0.1-0.1,0.1-0.2,0.2-0.3c0.3-0.9,0.4-2,0-2.9c-0.2-1-0.7-1.9-1.5-2.6c-0.5-0.4-1-0.6-1.6-0.6
			C612.2,439.5,611.9,439.5,611.6,439.6L611.6,439.6z M597.9,452.9c-0.9-0.3-1.7-0.8-2.2-1.5c-0.7-0.9-1.2-1.9-1.5-2.9
			c-0.3-1.1-0.4-2.2-0.2-3.3c0.2-0.9,0.6-1.8,1.2-2.4c0.6-0.7,1.4-1.1,2.3-1.3c0.6-0.2,1.2-0.2,1.8-0.1c0.4,0.1,0.9,0.3,1.2,0.5
			c0.3,0.2,0.5,0.4,0.8,0.7l0.1,0l-1.5-5.5l2.2-0.6l4,14.9l-2.2,0.6l-0.5-1.7l-0.2,0c-0.1,0.3-0.2,0.7-0.4,1
			c-0.2,0.4-0.5,0.8-0.8,1.1c-0.5,0.4-1,0.7-1.6,0.8c-0.4,0.1-0.9,0.2-1.3,0.2C598.8,453.2,598.3,453.1,597.9,452.9L597.9,452.9z
			 M598.5,443.1c-0.6,0.1-1.1,0.5-1.5,1c-0.4,0.5-0.6,1.1-0.6,1.7c-0.1,0.7,0,1.4,0.2,2.1c0.2,0.7,0.5,1.3,0.9,1.9
			c0.4,0.5,0.8,0.9,1.4,1.1c0.6,0.2,1.2,0.3,1.8,0.1c0.9-0.2,1.6-0.8,1.9-1.7c0.3-1,0.3-2.1,0-3.1c-0.2-1-0.8-1.9-1.5-2.6
			c-0.5-0.4-1-0.6-1.6-0.6C599,443,598.7,443.1,598.5,443.1L598.5,443.1z M624.2,445.9c-0.9-0.3-1.8-0.8-2.4-1.5
			c-0.7-0.8-1.2-1.8-1.5-2.9c-0.3-1-0.4-2.1-0.2-3.2c0.2-1,0.6-1.8,1.3-2.5c0.7-0.7,1.6-1.2,2.6-1.5c0.9-0.2,1.7-0.3,2.6-0.1
			c0.9,0.2,1.7,0.6,2.4,1.3c0.8,0.9,1.3,1.9,1.6,3.1l0.2,0.8l-8.1,2.2c0.2,0.9,0.8,1.7,1.6,2.2c0.8,0.4,1.7,0.5,2.6,0.3
			c0.6-0.1,1.1-0.4,1.5-0.8c0.4-0.4,0.6-0.9,0.7-1.5l2.2-0.2c0,1-0.4,1.9-1.1,2.6c-0.8,0.8-1.8,1.4-2.9,1.7
			c-0.6,0.2-1.1,0.2-1.7,0.2C625.1,446.1,624.7,446,624.2,445.9L624.2,445.9z M624.6,436.1c-0.6,0.1-1.1,0.4-1.5,0.8
			c-0.4,0.4-0.6,0.9-0.8,1.4c-0.1,0.5-0.2,1.1,0,1.6l6-1.6c-0.2-0.8-0.7-1.5-1.4-1.9c-0.4-0.3-0.9-0.4-1.4-0.4
			C625.1,436,624.8,436,624.6,436.1L624.6,436.1z M631.7,432.4l2.2-0.6l0.5,1.8l0.1,0c0-0.6,0.3-1.2,0.7-1.7c0.4-0.5,1-0.8,1.7-1
			c0.1,0,0.3-0.1,0.5-0.1c0.2,0,0.3-0.1,0.5-0.1l0.6,2.1c-0.2,0-0.3,0-0.5,0c-0.2,0-0.5,0.1-0.7,0.1c-0.7,0.2-1.4,0.6-1.8,1.2
			c-0.4,0.6-0.5,1.3-0.3,2l1.8,6.8l-2.2,0.6L631.7,432.4z"/>
		<g id="Прямоугольник_скругл._углы_974" transform="translate(601 379)">
			<path class="st2" d="M6,0h123c3.3,0,6,2.7,6,6v22c0,3.3-2.7,6-6,6H6c-3.3,0-6-2.7-6-6V6C0,2.7,2.7,0,6,0z"/>
			<path class="st1" d="M6,1h123c2.8,0,5,2.2,5,5v22c0,2.8-2.2,5-5,5H6c-2.8,0-5-2.2-5-5V6C1,3.2,3.2,1,6,1z"/>
		</g>
		<path id="Прямоугольник_скругл._углы_975_копия" class="st0" d="M620,401c-0.6,0-1-0.4-1-1s0.4-1,1-1
			h43c0.6,0,1,0.4,1,1s-0.4,1-1,1H620z M620,394c-0.6,0-1-0.4-1-1s0.4-1,1-1h63c0.6,0,1,0.4,1,1s-0.4,1-1,1H620z"/>
		<g id="Эллипс_1_копия_5" transform="translate(701 386)">
			<circle class="st2" cx="10" cy="10" r="10"/>
			<circle class="st4" cx="10" cy="10" r="9"/>
		</g>
		<path id="check_копия_5" class="st5" d="M714.6,393l-4.2,4.2l-2-2l-1.4,1.4l3.4,3.4l5.6-5.6L714.6,393z"/>
		<path id="Forma_1_копия_3" class="st5" d="M785.7,353.8l-4.5-4.5c-0.2-0.2-0.2-0.5,0-0.7c0,0,0,0,0,0l0.7-0.7
			c0.2-0.2,0.5-0.2,0.7,0c0,0,0,0,0,0l2,2c0.1,0.1,0.3,0.1,0.4,0c0,0,0.1-0.1,0.1-0.2v-14.2c0-0.3,0.2-0.5,0.4-0.5c0,0,0,0,0.1,0h1
			c0.3,0,0.5,0.2,0.5,0.4c0,0,0,0,0,0.1v14.2c0,0.2,0.1,0.3,0.3,0.3c0.1,0,0.1,0,0.2-0.1l2-2c0.2-0.2,0.5-0.2,0.7,0c0,0,0,0,0,0
			l0.7,0.7c0.1,0.1,0.2,0.2,0.2,0.4c0,0.1-0.1,0.2-0.2,0.3l-4.5,4.5c-0.1,0.1-0.2,0.2-0.3,0.2C785.9,354,785.7,353.9,785.7,353.8z
			 M560.7,353.8l-4.5-4.5c-0.2-0.2-0.2-0.5,0-0.7c0,0,0,0,0,0l0.7-0.7c0.2-0.2,0.5-0.2,0.7,0c0,0,0,0,0,0l2,2c0.1,0.1,0.3,0.1,0.4,0
			c0,0,0.1-0.1,0.1-0.2v-14.2c0-0.3,0.2-0.5,0.4-0.5c0,0,0,0,0.1,0h1c0.3,0,0.5,0.2,0.5,0.4c0,0,0,0,0,0.1v14.2
			c0,0.2,0.1,0.3,0.3,0.3c0.1,0,0.1,0,0.2-0.1l2-2c0.2-0.2,0.5-0.2,0.7,0c0,0,0,0,0,0l0.7,0.7c0.1,0.1,0.2,0.2,0.2,0.4
			c0,0.1-0.1,0.2-0.2,0.3l-4.5,4.5c-0.1,0.1-0.2,0.2-0.3,0.2C560.9,354,560.7,353.9,560.7,353.8z"/>
	</g>
</g>
</svg>
