<?xml version="1.0" encoding="utf-8"?>
<!-- Generator: Adobe Illustrator 24.2.3, SVG Export Plug-In . SVG Version: 6.00 Build 0)  -->
<svg version="1.1" id="Слой_1" xmlns="http://www.w3.org/2000/svg" xmlns:xlink="http://www.w3.org/1999/xlink" x="0px" y="0px"
	 viewBox="0 0 492 281.2" style="enable-background:new 0 0 492 281.2;" xml:space="preserve">
<style type="text/css">
	.st0{fill:#DBDEE5;}
	.st1{fill:none;stroke:#212225;stroke-width:2;}
	.st2{fill:#212225;}
	.st3{fill:none;stroke:#212225;stroke-width:2;stroke-linecap:round;}
	.st4{fill:none;}
	.st5{fill:none;stroke:#DBDEE5;stroke-width:2;}
	.st6{fill:#DE5846;}
	.st7{fill:#FFFFFF;}
</style>
<g id="images" transform="translate(-461 -203.808)">
	<g id="images-2">
		<path id="Прямоугольник_1442_копия_12" class="st0" d="M883,485v-15h-38v9h-2v-9h-38v5h-2v-5h-38v15h-2v-15h-38
			v12h-2v-12h-38v7h-2v-7h-38v15h-2v-15h-38v8h-2v-8h-38v5h-2v-5h-38v15h-2v-15h-38v5h-2v-5h-22v-2h22v-2h2v2h38v-2h2v2h38v-2h2v2
			h38v-2h2v2h38v-2h2v2h38v-2h2v2h38v-2h2v2h38v-2h2v2h38v-2h2v2h38v-2h2v2h38v-2h2v2h38v-2h2v2h28v2h-28v5h-2v-5h-38v15H883z
			 M852,456v-7h-6v-2h6v-38h-38v12h-2v-12h-22v-2h22v-38h-2v-2h2v-18h2v18h38v-24h2v24h8v2h-8v38h18v2h-18v38h10v2h-10v7H852z
			 M852,407v-38h-38v38H852z M515,413v-4h-4v-2h4v-4h2v4h4v2h-4v4H515z M555,409v-21h-38v5h-2v-5h-6v-2h6v-20h2v20h38v-38h-13v-2h13
			v-11h2v11h16v2h-16v38h6v2h-6v21H555z M876,373v-4h-4v-2h4v-4h2v4h4v2h-4v4H876z M794,373v-4h-4v-2h4v-4h2v4h4v2h-4v4H794z"/>
		<g id="images-3" transform="translate(0 1)">
			<g id="coin">
				<path id="Прямоугольник_1440" class="st1" d="M615,434v-20h199v27H584v23h195v-18"/>
				<path id="Прямоугольник_1441_копия_10" class="st2" d="M769,464v-18h2v18H769z M756,464v-18h2v18H756z
					 M736,464v-18h2v18H736z M713,464v-18h2v18H713z M685,464v-18h2v18H685z M655,464v-18h2v18H655z M625,464v-18h2v18H625z
					 M605,464v-18h2v18H605z M592,464v-18h2v18H592z M802,434v-18h2v18H802z M789,434v-18h2v18H789z M769,434v-18h2v18H769z
					 M739,434v-18h2v18H739z M718,434v-18h2v18H718z M688,434v-18h2v18H688z M638,434v-18h2v18H638z M625,434v-18h2v18H625z
					 M658,424v-8h2v8H658z"/>
			</g>
			<rect id="Прямоугольник_1441" x="548" y="463" class="st2" width="292" height="2"/>
		</g>
		<g id="Группа_1" transform="translate(0 -1)">
			<path id="Эллипс_3693_копия_3" class="st3" d="M651.2,242.2c38-22.5,87.1-10,109.6,28c22.5,38,10,87.1-28,109.6
				c-38,22.5-87.1,10-109.6-28c-3.3-5.5-5.9-11.4-7.7-17.6"/>
			<path id="Эллипс_3693_копия_5" class="st3" d="M693.6,415.9c-58,1-105.8-45.1-106.9-103.1s45.1-105.8,103.1-106.9
				c48-0.9,90.5,31,103.2,77.3"/>
			<g id="Эллипс_3693" transform="translate(592 211)">
				<circle class="st4" cx="100" cy="100" r="100"/>
				<circle class="st5" cx="100" cy="100" r="99"/>
			</g>
			<g id="Эллипс_3693_копия" transform="translate(607 226)">
				<circle class="st4" cx="85" cy="85" r="85"/>
				<circle class="st5" cx="85" cy="85" r="84"/>
			</g>
			<g id="Группа_2">
				<path id="Фигура_1141" class="st5" d="M600,287.5l10.7,2.9 M772.9,333.8l9.7,2.6"/>
				<path id="Фигура_1141_копия" class="st5" d="M718.6,215.8l-2.6,9.7 M669.9,397.3l-2.6,9.7"/>
				<path id="Фигура_1141_копия_2" class="st5" d="M643.4,229.7l5.5,9.6 M732.9,384.7l5,8.7"/>
				<path id="Фигура_1141_копия_2-2" class="st5" d="M778,262.8l-8.7,5 M615.2,356.8l-8.7,5"/>
				<path id="Фигура_1141_копия_3" class="st5" d="M609.2,264.6l9.6,5.5 M764.2,354.1l8.7,5"/>
				<path id="Фигура_1141_копия_3-2" class="st5" d="M742.3,226l-5,8.7 M648.3,388.8l-5,8.7"/>
				<path id="Фигура_1141_копия_3-3" class="st5" d="M666.1,220l2.9,10.7 M712.4,392.9l2.6,9.7"/>
				<path id="Фигура_1141_копия_3-4" class="st5" d="M787.5,286.8l-9.7,2.6 M605.9,335.5l-9.7,2.6"/>
				<path id="Фигура_1141_копия_4" class="st5" d="M596.9,311.7H608 M775.9,311.7h10"/>
				<path id="Фигура_1141_копия_4-2" class="st5" d="M692.9,211.7v10.1 M692.9,399.7v10"/>
				<path id="Фигура_1141_копия_4-3" class="st5" d="M623.9,244.6l7.8,7.8 M750.5,371.2l7.1,7.1"/>
				<path id="Фигура_1141_копия_4-4" class="st5" d="M762.5,241.8l-7.1,7.1 M629.6,374.7l-7.1,7.1"/>
			</g>
			<g id="Эллипс_3694" transform="translate(635 253)">
				<circle class="st6" cx="56.5" cy="56.5" r="56.5"/>
				<circle class="st1" cx="56.5" cy="56.5" r="55.5"/>
			</g>
			<path id="Прямоугольник_1442" class="st7" d="M690,323v-7.1h-3.6l-2.3,7.1H678l10.8-31h8.5l10.7,31h-6.1l-2.3-7.1
				H696v7.1H690z M688,310.8h9.9l-4.8-12.7h-0.2L688,310.8z"/>
		</g>
	</g>
</g>
</svg>
