<?xml version="1.0" encoding="UTF-8" standalone="no"?>
<svg width="100%" height="100%" viewBox="0 0 270 276" version="1.1"
  xmlns="http://www.w3.org/2000/svg"
  xmlns:xlink="http://www.w3.org/1999/xlink" xml:space="preserve"
  xmlns:serif="http://www.serif.com/" style="fill-rule:evenodd;clip-rule:evenodd;stroke-linejoin:round;stroke-miterlimit:1.41421;">
  <path id="Bubbles" d="M218.01,7.5c0,-4.14 -3.36,-7.5 -7.5,-7.5c-4.14,0 -7.5,3.36 -7.5,7.5c0,4.14 3.36,7.5 7.5,7.5c4.14,0 7.5,-3.36 7.5,-7.5Zm-190.5,36.5c-7.46,0 -13.5,6.04 -13.5,13.5c0,7.46 6.04,13.5 13.5,13.5c7.46,0 13.5,-6.04 13.5,-13.5c0,-7.46 -6.04,-13.5 -13.5,-13.5Zm-17.5,214c-4.97,0 -9,4.03 -9,9c0,4.97 4.03,9 9,9c4.97,0 9,-4.03 9,-9c0,-4.97 -4.03,-9 -9,-9Zm205,-49c-1.1,0 -2,0.9 -2,2c0,1.1 0.9,2 2,2c1.1,0 2,-0.9 2,-2c0,-1.1 -0.9,-2 -2,-2Z" style="fill:#404853;fill-rule:nonzero;"/>
  <path id="Globe" d="M120.51,13c-61.66,0 -111.5,49.84 -111.5,111.5c0,61.66 49.84,111.5 111.5,111.5c61.66,0 111.5,-49.84 111.5,-111.5c0,-61.66 -49.84,-111.5 -111.5,-111.5Zm-33.66,15.19c-5.88,8.25 -10.9,16.96 -15.09,26.09l-25.31,0c11.04,-11.68 24.85,-20.71 40.4,-26.09Zm-48.38,35.57l29.28,0c-6.89,17.74 -10.67,36.67 -11.22,56l-37.9,0c0.96,-20.93 8.17,-40.22 19.84,-56Zm0,121.48c-11.67,-15.78 -18.88,-35.07 -19.84,-56l37.9,0c0.55,19.34 4.47,38.26 11.4,56l-29.46,0Zm7.98,9.49l25.54,0c4.24,9.12 9.26,17.92 15.05,26.18c-15.6,-5.39 -29.51,-14.46 -40.59,-26.18Zm69.32,31.69c-4.74,-0.23 -9.44,-0.78 -14,-1.6c-7.57,-9.35 -14.05,-19.43 -19.29,-30.05l33.29,0l0,31.65Zm0,-41.18l-37.63,0c-7.34,-17.69 -11.54,-36.62 -12.13,-56l49.75,0l0,56l0.01,0Zm0,-65.48l-49.76,0c0.59,-19.34 4.74,-38.31 12.04,-56l37.71,0l0,56l0.01,0Zm0.04,-65.49l-33.42,0c5.29,-10.72 11.77,-20.8 19.38,-30.05c4.56,-0.87 9.26,-1.37 14.05,-1.6l0,31.65l-0.01,0Zm86.74,9.49c11.67,15.78 18.93,35.02 19.84,56l-37.9,0c-0.55,-19.34 -4.47,-38.26 -11.4,-56l29.46,0Zm-7.98,-9.49l-25.54,0c-4.24,-9.12 -9.26,-17.92 -15.09,-26.18c15.64,5.39 29.55,14.46 40.63,26.18Zm-69.32,-31.65c4.74,0.23 9.44,0.78 14,1.6c7.57,9.35 14.05,19.43 19.29,30.05l-33.29,0l0,-31.65Zm0,41.14l37.62,0c7.34,17.65 11.54,36.62 12.13,56l-49.75,0l0,-56Zm0,65.48l49.76,0c-0.59,19.34 -4.74,38.31 -12.04,56l-37.71,0l0,-56l-0.01,0Zm-0.04,97.14l0,-31.65l33.43,0c-5.29,10.72 -11.77,20.8 -19.38,30.05c-4.57,0.87 -9.26,1.37 -14.05,1.6Zm28.73,-5.47c5.79,-8.25 10.81,-17.06 15,-26.18l25.67,0c-11.12,11.72 -25.03,20.79 -40.67,26.18Zm19.01,-35.67c6.84,-17.74 10.72,-36.67 11.49,-56l37.99,0c-0.96,20.93 -8.16,40.22 -19.84,56l-29.64,0Z" style="fill:#555f6a;fill-rule:nonzero;"/>
  <circle id="Circle-double-shadow" serif:id="Circle double shadow" cx="120.51" cy="124.5" r="67.5" style="fill:#555f6a;"/>
  <circle id="Circle-shadow" serif:id="Circle shadow" cx="120.51" cy="124.5" r="59.5" style="fill:#2d2f38;"/>
  <path id="Circle" d="M110.225,98.246c15.043,-6.231 32.314,0.922 38.545,15.965c6.231,15.042 -0.923,32.314 -15.965,38.545c-15.043,6.231 -32.314,-0.923 -38.545,-15.966c-6.231,-15.042 0.923,-32.314 15.965,-38.544Z" style="fill:#c9292c;"/>
  <path id="ARK" d="M137.01,138l-15.94,-26l-16.06,26l16.06,-16.91l15.94,16.91Zm-18.78,-10.03l5.64,0l-2.8,-2.91l-2.84,2.91Zm-1.83,1.89l-2.57,2.71l14.43,0l-2.57,-2.71l-9.29,0Z" style="fill:#fff;fill-rule:nonzero;"/>
  <path id="Bubble-up-right-shadow" serif:id="Bubble up right shadow" d="M234.01,22c-19.33,0 -35,15.67 -35,35c0,7.28 2.22,14.04 6.02,19.64c0.07,0.1 0.21,0.31 0.21,0.31c0,0 -4.42,12.99 -3.64,13.76c0.78,0.77 14.58,-3.58 14.58,-3.58c0,0 0.28,0.17 0.42,0.25c5.13,2.94 11.07,4.63 17.41,4.63c19.33,0 35,-15.67 35,-35c0,-19.34 -15.67,-35.01 -35,-35.01Z" style="fill:#606b78;fill-rule:nonzero;"/>
  <path id="Bubble-up-right" serif:id="Bubble up right" d="M234.01,30c-14.91,0 -27,12.09 -27,27c0,5.61 1.71,10.83 4.65,15.15c0.05,0.08 0.16,0.24 0.16,0.24c0,0 -3.41,10.01 -2.81,10.61c0.6,0.6 11.25,-2.76 11.25,-2.76c0,0 0.22,0.13 0.33,0.19c3.95,2.27 8.53,3.57 13.42,3.57c14.91,0 27,-12.09 27,-27c0,-14.91 -12.09,-27 -27,-27Z" style="fill:#2d2f38;fill-rule:nonzero;"/>
  <path id="Bubble-down-left" serif:id="Bubble down left" d="M30.83,211.29c-0.04,-0.07 -0.12,-0.2 -0.12,-0.2c0,0 2.05,-6.51 1.69,-6.87c-0.36,-0.36 -6.49,1.72 -6.49,1.72c0,0 -0.1,-0.07 -0.15,-0.1c-2.64,-1.79 -5.83,-2.84 -9.26,-2.84c-9.11,0 -16.5,7.39 -16.5,16.5c0,9.11 7.39,16.5 16.5,16.5c9.11,0 16.51,-7.39 16.51,-16.5c0,-2.99 -0.79,-5.79 -2.18,-8.21Z" style="fill:#606b78;fill-rule:nonzero;"/>
</svg>
