<svg xmlns="http://www.w3.org/2000/svg" width="711" height="161"><style type="text/css">.st0{stroke:#3c4249;stroke-width:2}.st0,.st1{fill:none}.st2{fill:#3c4249}.st3{fill:none;stroke:#7e8a9c;stroke-width:2}.st4{fill:#c9292c}</style><g id="images" transform="translate(-340 -566)"><g id="Группа_2"><path id="Прямоугольник_скругл._углы_1_копия_4" class="st0" d="M396 605h69c5.5 0 10 4.5 10 10v74c0 5.5-4.5 10-10 10h-69"/><g id="Прямоугольник_скругл._углы_1_копия_2"><path class="st1" d="M10 0h169c5.5 0 10 4.5 10 10v74c0 5.5-4.5 10-10 10H10C4.5 94 0 89.5 0 84V10C0 4.5 4.5 0 10 0z" transform="translate(704 605)"/><path class="st0" d="M10 1h169c5 0 9 4 9 9v74c0 5-4 9-9 9H10c-5 0-9-4-9-9V10c0-5 4-9 9-9z" transform="translate(704 605)"/></g><path id="Прямоугольник_скругл._углы_1_копия_3" class="st0" d="M992 699h-69c-5.5 0-10-4.5-10-10v-74c0-5.5 4.5-10 10-10h69"/><path id="Прямоугольник_скругл._углы_1_копия" class="st2" d="M683 615h1c5.5 0 10 4.5 10 10v74c0 5.5-4.5 10-10 10H515c-5.5 0-10-4.5-10-10v-1h170c4.5 0 8-4.8 8-10v-73z"/><g id="Прямоугольник_скругл._углы_1_копия_5"><path class="st1" d="M10 0h169c5.5 0 10 4.5 10 10v74c0 5.5-4.5 10-10 10H10C4.5 94 0 89.5 0 84V10C0 4.5 4.5 0 10 0z" transform="translate(495 605)"/><path class="st3" d="M10 1h169c5 0 9 4 9 9v74c0 5-4 9-9 9H10c-5 0-9-4-9-9V10c0-5 4-9 9-9z" transform="translate(495 605)"/></g><g id="Прямоугольник_скругл._углы_1_копия_6"><path class="st4" d="M10 0h30c5.5 0 10 4.5 10 10v30c0 5.5-4.5 10-10 10H10C4.5 50 0 45.5 0 40V10C0 4.5 4.5 0 10 0z" transform="translate(515 628)"/><path class="st3" d="M10 1h30c5 0 9 4 9 9v30c0 5-4 9-9 9H10c-5 0-9-4-9-9V10c0-5 4-9 9-9z" transform="translate(515 628)"/></g><g id="Прямоугольник_скругл._углы_2"><path class="st4" d="M1.5 0h60c.8 0 1.5.7 1.5 1.5S62.3 3 61.5 3h-60C.7 3 0 2.3 0 1.5S.7 0 1.5 0z" transform="translate(579 646)"/><path class="st3" d="M1.5 1h60c.3 0 .5.2.5.5s-.2.5-.5.5h-60c-.3 0-.5-.2-.5-.5s.2-.5.5-.5z" transform="translate(579 646)"/></g><g id="Прямоугольник_скругл._углы_2_копия"><path class="st4" d="M1.5 0h30c.8 0 1.5.7 1.5 1.5S32.3 3 31.5 3h-30C.7 3 0 2.3 0 1.5S.7 0 1.5 0z" transform="translate(579 656)"/><path class="st3" d="M1.5 1h30c.3 0 .5.2.5.5s-.2.5-.5.5h-30c-.3 0-.5-.2-.5-.5s.2-.5.5-.5z" transform="translate(579 656)"/></g><g id="Прямоугольник_скругл._углы_1_копия_7"><path class="st1" d="M10 0h30c5.5 0 10 4.5 10 10v30c0 5.5-4.5 10-10 10H10C4.5 50 0 45.5 0 40V10C0 4.5 4.5 0 10 0z" transform="translate(731 628)"/><path class="st0" d="M10 1h30c5 0 9 4 9 9v30c0 5-4 9-9 9H10c-5 0-9-4-9-9V10c0-5 4-9 9-9z" transform="translate(731 628)"/></g><g id="Прямоугольник_скругл._углы_2_копия_2"><path class="st1" d="M1.5 0h60c.8 0 1.5.7 1.5 1.5S62.3 3 61.5 3h-60C.7 3 0 2.3 0 1.5S.7 0 1.5 0z" transform="translate(795 646)"/><path class="st0" d="M1.5 1h60c.3 0 .5.2.5.5s-.2.5-.5.5h-60c-.3 0-.5-.2-.5-.5s.2-.5.5-.5z" transform="translate(795 646)"/></g><g id="Прямоугольник_скругл._углы_2_копия_2-2"><path class="st1" d="M1.5 0h30c.8 0 1.5.7 1.5 1.5S32.3 3 31.5 3h-30C.7 3 0 2.3 0 1.5S.7 0 1.5 0z" transform="translate(795 656)"/><path class="st0" d="M1.5 1h30c.3 0 .5.2.5.5s-.2.5-.5.5h-30c-.3 0-.5-.2-.5-.5s.2-.5.5-.5z" transform="translate(795 656)"/></g><g id="Прямоугольник_скругл._углы_2_копия_3"><path class="st1" d="M1.5 0h40c.8 0 1.5.7 1.5 1.5S42.3 3 41.5 3h-40C.7 3 0 2.3 0 1.5S.7 0 1.5 0z" transform="translate(399 646)"/><path class="st0" d="M1.5 1h40c.3 0 .5.2.5.5s-.2.5-.5.5h-40c-.3 0-.5-.2-.5-.5s.2-.5.5-.5z" transform="translate(399 646)"/></g><g id="Прямоугольник_скругл._углы_2_копия_3-2"><path class="st1" d="M1.5 0h10c.8 0 1.5.7 1.5 1.5S12.3 3 11.5 3h-10C.7 3 0 2.3 0 1.5S.7 0 1.5 0z" transform="translate(399 656)"/><path class="st0" d="M1.5 1h10c.3 0 .5.2.5.5s-.2.5-.5.5h-10c-.3 0-.5-.2-.5-.5s.2-.5.5-.5z" transform="translate(399 656)"/></g><path id="Прямоугольник_скругл._углы_1_копия_8" class="st0" d="M974 678h-30c-5.5 0-10-4.5-10-10v-30c0-5.5 4.5-10 10-10h30"/></g><path id="Прямоугольник_2_копия_6" class="st2" d="M1015 726v-21h-7v-2h7v-9h2v9h13v2h-13v21h-2zm-642 0v-21h-13v-2h13v-9h2v9h7v2h-7v21h-2zm671-17v-4h-4v-2h4v-4h2v4h4v2h-4v4h-2zm-700 0v-4h-4v-2h4v-4h2v4h4v2h-4v4h-2zm670-105v-19h-38v3h-2v-3h-14v-2h14v-17h2v17h38v-17h2v17h6v2h-6v19h-2zm-640 0v-19h-6v-2h6v-17h2v17h38v-17h2v17h14v2h-14v3h-2v-3h-38v19h-2zm520-15v-4h-4v-2h4v-4h2v4h4v2h-4v4h-2zm-450 0v-4h-4v-2h4v-4h2v4h4v2h-4v4h-2z"/></g></svg>