<svg version="1.1" id="Layer_1" xmlns="http://www.w3.org/2000/svg" x="0" y="0" viewBox="0 0 711 161" xml:space="preserve"><g id="images" transform="translate(-340 -566)"><g id="Группа_2"><path id="Прямоугольник_скругл._углы_1_копия_4" d="M396 605h69c5.5 0 10 4.5 10 10v74c0 5.5-4.5 10-10 10h-69" fill="none" stroke="#3c4249" stroke-width="2"/><g id="Прямоугольник_скругл._углы_1_копия_2" fill="none"><path d="M714 605h169c5.5 0 10 4.5 10 10v74c0 5.5-4.5 10-10 10H714c-5.5 0-10-4.5-10-10v-74c0-5.5 4.5-10 10-10z"/><path d="M714 606h169c5 0 9 4 9 9v74c0 5-4 9-9 9H714c-5 0-9-4-9-9v-74c0-5 4-9 9-9z" stroke="#3c4249" stroke-width="2"/></g><path id="Прямоугольник_скругл._углы_1_копия_3" d="M992 699h-69c-5.5 0-10-4.5-10-10v-74c0-5.5 4.5-10 10-10h69" fill="none" stroke="#3c4249" stroke-width="2"/><path id="Прямоугольник_скругл._углы_1_копия" d="M683 615h1c5.5 0 10 4.5 10 10v74c0 5.5-4.5 10-10 10H515c-5.5 0-10-4.5-10-10v-1h170c4.5 0 8-4.8 8-10v-73z" fill="#3c4249"/><g id="Прямоугольник_скругл._углы_1_копия_5" fill="none"><path d="M505 605h169c5.5 0 10 4.5 10 10v74c0 5.5-4.5 10-10 10H505c-5.5 0-10-4.5-10-10v-74c0-5.5 4.5-10 10-10z"/><path d="M505 606h169c5 0 9 4 9 9v74c0 5-4 9-9 9H505c-5 0-9-4-9-9v-74c0-5 4-9 9-9z" stroke="#7e8a9c" stroke-width="2"/></g><g id="Прямоугольник_скругл._углы_1_копия_6"><path d="M525 628h30c5.5 0 10 4.5 10 10v30c0 5.5-4.5 10-10 10h-30c-5.5 0-10-4.5-10-10v-30c0-5.5 4.5-10 10-10z" fill="#c9292c"/><path d="M525 629h30c5 0 9 4 9 9v30c0 5-4 9-9 9h-30c-5 0-9-4-9-9v-30c0-5 4-9 9-9z" fill="none" stroke="#7e8a9c" stroke-width="2"/></g><g id="Прямоугольник_скругл._углы_2"><path d="M580.5 646h60c.8 0 1.5.7 1.5 1.5s-.7 1.5-1.5 1.5h-60c-.8 0-1.5-.7-1.5-1.5s.7-1.5 1.5-1.5z" fill="#c9292c"/><path d="M580.5 647h60c.3 0 .5.2.5.5s-.2.5-.5.5h-60c-.3 0-.5-.2-.5-.5s.2-.5.5-.5z" fill="none" stroke="#7e8a9c" stroke-width="2"/></g><g id="Прямоугольник_скругл._углы_2_копия"><path d="M580.5 656h30c.8 0 1.5.7 1.5 1.5s-.7 1.5-1.5 1.5h-30c-.8 0-1.5-.7-1.5-1.5s.7-1.5 1.5-1.5z" fill="#c9292c"/><path d="M580.5 657h30c.3 0 .5.2.5.5s-.2.5-.5.5h-30c-.3 0-.5-.2-.5-.5s.2-.5.5-.5z" fill="none" stroke="#7e8a9c" stroke-width="2"/></g><g id="Прямоугольник_скругл._углы_1_копия_7" fill="none"><path d="M741 628h30c5.5 0 10 4.5 10 10v30c0 5.5-4.5 10-10 10h-30c-5.5 0-10-4.5-10-10v-30c0-5.5 4.5-10 10-10z"/><path d="M741 629h30c5 0 9 4 9 9v30c0 5-4 9-9 9h-30c-5 0-9-4-9-9v-30c0-5 4-9 9-9z" stroke="#3c4249" stroke-width="2"/></g><g id="Прямоугольник_скругл._углы_2_копия_2" fill="none"><path d="M796.5 646h60c.8 0 1.5.7 1.5 1.5s-.7 1.5-1.5 1.5h-60c-.8 0-1.5-.7-1.5-1.5s.7-1.5 1.5-1.5z"/><path d="M796.5 647h60c.3 0 .5.2.5.5s-.2.5-.5.5h-60c-.3 0-.5-.2-.5-.5s.2-.5.5-.5z" stroke="#3c4249" stroke-width="2"/></g><g id="Прямоугольник_скругл._углы_2_копия_2-2" fill="none"><path d="M796.5 656h30c.8 0 1.5.7 1.5 1.5s-.7 1.5-1.5 1.5h-30c-.8 0-1.5-.7-1.5-1.5s.7-1.5 1.5-1.5z"/><path d="M796.5 657h30c.3 0 .5.2.5.5s-.2.5-.5.5h-30c-.3 0-.5-.2-.5-.5s.2-.5.5-.5z" stroke="#3c4249" stroke-width="2"/></g><g id="Прямоугольник_скругл._углы_2_копия_3" fill="none"><path d="M400.5 646h40c.8 0 1.5.7 1.5 1.5s-.7 1.5-1.5 1.5h-40c-.8 0-1.5-.7-1.5-1.5s.7-1.5 1.5-1.5z"/><path d="M400.5 647h40c.3 0 .5.2.5.5s-.2.5-.5.5h-40c-.3 0-.5-.2-.5-.5s.2-.5.5-.5z" stroke="#3c4249" stroke-width="2"/></g><g id="Прямоугольник_скругл._углы_2_копия_3-2" fill="none"><path d="M400.5 656h10c.8 0 1.5.7 1.5 1.5s-.7 1.5-1.5 1.5h-10c-.8 0-1.5-.7-1.5-1.5s.7-1.5 1.5-1.5z"/><path d="M400.5 657h10c.3 0 .5.2.5.5s-.2.5-.5.5h-10c-.3 0-.5-.2-.5-.5s.2-.5.5-.5z" stroke="#3c4249" stroke-width="2"/></g><path id="Прямоугольник_скругл._углы_1_копия_8" d="M974 678h-30c-5.5 0-10-4.5-10-10v-30c0-5.5 4.5-10 10-10h30" fill="none" stroke="#3c4249" stroke-width="2"/></g><path id="Прямоугольник_2_копия_6" d="M1015 726v-21h-7v-2h7v-9h2v9h13v2h-13v21h-2zm-642 0v-21h-13v-2h13v-9h2v9h7v2h-7v21h-2zm671-17v-4h-4v-2h4v-4h2v4h4v2h-4v4h-2zm-700 0v-4h-4v-2h4v-4h2v4h4v2h-4v4h-2zm670-105v-19h-38v3h-2v-3h-14v-2h14v-17h2v17h38v-17h2v17h6v2h-6v19h-2zm-640 0v-19h-6v-2h6v-17h2v17h38v-17h2v17h14v2h-14v3h-2v-3h-38v19h-2zm520-15v-4h-4v-2h4v-4h2v4h4v2h-4v4h-2zm-450 0v-4h-4v-2h4v-4h2v4h4v2h-4v4h-2z" fill="#3c4249"/></g></svg>