<?xml version="1.0" encoding="UTF-8" standalone="no"?>
<svg
   xmlns:dc="http://purl.org/dc/elements/1.1/"
   xmlns:cc="http://creativecommons.org/ns#"
   xmlns:rdf="http://www.w3.org/1999/02/22-rdf-syntax-ns#"
   xmlns:svg="http://www.w3.org/2000/svg"
   xmlns="http://www.w3.org/2000/svg"
   height="335.448"
   width="512.00098"
   xml:space="preserve"
   viewBox="0 0 512.001 335.44801"
   y="0px"
   x="0px"
   id="Layer_1"
   version="1.1"><metadata
   id="metadata213"><rdf:RDF><cc:Work
       rdf:about=""><dc:format>image/svg+xml</dc:format><dc:type
         rdf:resource="http://purl.org/dc/dcmitype/StillImage" /><dc:title></dc:title></cc:Work></rdf:RDF></metadata><defs
   id="defs211" />
<path
   id="path172"
   d="M 0,223.632 H 512 V 326.62 c 0,4.875 -3.953,8.828 -8.828,8.828 H 8.828 C 3.953,335.448 0,331.495 0,326.62 Z"
   style="fill:#ff4b55" />
<path
   id="path174"
   d="m 8.828,0 h 494.345 c 4.875,0 8.828,3.953 8.828,8.828 V 111.816 H 0 V 8.828 C 0,3.953 3.953,0 8.828,0 Z"
   style="fill:#f5f5f5" />
<rect
   x="0"
   id="rect176"
   height="111.81"
   width="512"
   style="fill:#73af00"
   y="111.814" />
<g
   transform="translate(0,-88.276)"
   id="g178">
</g>
<g
   transform="translate(0,-88.276)"
   id="g180">
</g>
<g
   transform="translate(0,-88.276)"
   id="g182">
</g>
<g
   transform="translate(0,-88.276)"
   id="g184">
</g>
<g
   transform="translate(0,-88.276)"
   id="g186">
</g>
<g
   transform="translate(0,-88.276)"
   id="g188">
</g>
<g
   transform="translate(0,-88.276)"
   id="g190">
</g>
<g
   transform="translate(0,-88.276)"
   id="g192">
</g>
<g
   transform="translate(0,-88.276)"
   id="g194">
</g>
<g
   transform="translate(0,-88.276)"
   id="g196">
</g>
<g
   transform="translate(0,-88.276)"
   id="g198">
</g>
<g
   transform="translate(0,-88.276)"
   id="g200">
</g>
<g
   transform="translate(0,-88.276)"
   id="g202">
</g>
<g
   transform="translate(0,-88.276)"
   id="g204">
</g>
<g
   transform="translate(0,-88.276)"
   id="g206">
</g>
</svg>
