<?xml version="1.0" encoding="UTF-8" standalone="no"?>
<svg
   xmlns:dc="http://purl.org/dc/elements/1.1/"
   xmlns:cc="http://creativecommons.org/ns#"
   xmlns:rdf="http://www.w3.org/1999/02/22-rdf-syntax-ns#"
   xmlns:svg="http://www.w3.org/2000/svg"
   xmlns="http://www.w3.org/2000/svg"
   height="335.448"
   width="512"
   xml:space="preserve"
   viewBox="0 0 512 335.448"
   y="0px"
   x="0px"
   id="Layer_1"
   version="1.1"><metadata
   id="metadata43"><rdf:RDF><cc:Work
       rdf:about=""><dc:format>image/svg+xml</dc:format><dc:type
         rdf:resource="http://purl.org/dc/dcmitype/StillImage" /><dc:title></dc:title></cc:Work></rdf:RDF></metadata><defs
   id="defs41" />
<path
   id="path2"
   d="M 3.256,333.314 256,167.724 3.256,2.134 C 1.311,3.753 0,6.099 0,8.827 V 326.62 c 0,2.729 1.311,5.075 3.256,6.694 z"
   style="fill:#41479b" />
<path
   id="path4"
   d="m 3.256,333.314 c 1.53,1.274 3.425,2.134 5.571,2.134 h 494.345 c 4.875,0 8.828,-3.953 8.828,-8.828 V 167.724 H 256 Z"
   style="fill:#ff4b55" />
<path
   id="path6"
   d="M 3.256,2.134 C 4.786,0.86 6.681,0 8.827,0 H 503.172 C 508.047,0 512,3.953 512,8.828 V 167.724 H 256 Z"
   style="fill:#f5f5f5" />
<g
   transform="translate(0,-88.276)"
   id="g8">
</g>
<g
   transform="translate(0,-88.276)"
   id="g10">
</g>
<g
   transform="translate(0,-88.276)"
   id="g12">
</g>
<g
   transform="translate(0,-88.276)"
   id="g14">
</g>
<g
   transform="translate(0,-88.276)"
   id="g16">
</g>
<g
   transform="translate(0,-88.276)"
   id="g18">
</g>
<g
   transform="translate(0,-88.276)"
   id="g20">
</g>
<g
   transform="translate(0,-88.276)"
   id="g22">
</g>
<g
   transform="translate(0,-88.276)"
   id="g24">
</g>
<g
   transform="translate(0,-88.276)"
   id="g26">
</g>
<g
   transform="translate(0,-88.276)"
   id="g28">
</g>
<g
   transform="translate(0,-88.276)"
   id="g30">
</g>
<g
   transform="translate(0,-88.276)"
   id="g32">
</g>
<g
   transform="translate(0,-88.276)"
   id="g34">
</g>
<g
   transform="translate(0,-88.276)"
   id="g36">
</g>
</svg>
