<?xml version="1.0" encoding="utf-8"?>
<!-- Generator: Adobe Illustrator 24.1.0, SVG Export Plug-In . SVG Version: 6.00 Build 0)  -->
<svg version="1.1" id="Слой_1" xmlns="http://www.w3.org/2000/svg" xmlns:xlink="http://www.w3.org/1999/xlink" x="0px" y="0px"
	 viewBox="0 0 512 335" style="enable-background:new 0 0 512 335;" xml:space="preserve">
<style type="text/css">
	.st0{clip-path:url(#SVGID_2_);}
	.st1{fill:#C9292C;}
	.st2{fill:#FFFFFF;}
</style>
<g>
	<defs>
		<rect id="SVGID_1_" width="512" height="335"/>
	</defs>
	<clipPath id="SVGID_2_">
		<use xlink:href="#SVGID_1_"  style="overflow:visible;"/>
	</clipPath>
	<g id="Canvas" class="st0">
		<path id="Прямоугольник_скругл._углы_1" class="st1" d="M4,0h504c2.2,0,4,1.8,4,4v327c0,2.2-1.8,4-4,4H4
			c-2.2,0-4-1.8-4-4V4C0,1.8,1.8,0,4,0z"/>
		<path id="Forma_1" class="st2" d="M359.1,282l-12.9-34.4h-54.4L278.9,282H256l51.5-137.4h22.9L382,282H359.1z M300.4,224.8h37.2
			L319,175.1L300.4,224.8z M148.2,231.4l58.2-57.5c-14-15.5-25.5-33.1-34.1-52.2h22.9c7.1,13.9,16,26.8,26.5,38.4
			c16.1-17.8,28.4-38.7,36.3-61.4H130V75.9h80.2V53h22.9v22.9h80.2v23h-33.6c-8.6,27.7-23.1,53.2-42.5,74.8l-0.3,0.3l29.1,28.7
			l-8.7,23.3l-35.6-35.6l-57.3,57.2L148.2,231.4z"/>
	</g>
</g>
</svg>
