<?xml version="1.0" encoding="utf-8"?>
<!-- Generator: Adobe Illustrator 24.0.1, SVG Export Plug-In . SVG Version: 6.00 Build 0)  -->
<svg version="1.1" id="Слой_1" xmlns="http://www.w3.org/2000/svg" xmlns:xlink="http://www.w3.org/1999/xlink" x="0px" y="0px"
	 viewBox="0 0 512 335" style="enable-background:new 0 0 512 335;" xml:space="preserve">
	<path id="Forma_1" fill="#C9292C" d="M390.9,317.4l-16.9-45h-71.2l-16.9,45h-30l67.4-179.8h30l67.5,179.8H390.9z M314.1,242.5h48.7
		l-24.3-65.1L314.1,242.5z M114.9,251.1l76.2-75.3c-18.3-20.3-33.4-43.3-44.6-68.3h30c9.3,18.2,20.9,35.1,34.7,50.3
		c21.1-23.3,37.2-50.7,47.5-80.4H91.1V47.6h105v-30h30v30h105v30.1h-44c-11.3,36.3-30.2,69.6-55.6,97.9L231,176l38.1,37.6
		l-11.4,30.5l-46.6-46.6l-75,74.9L114.9,251.1z"/>
</svg>
