<?xml version="1.0" encoding="UTF-8" standalone="no"?>
<svg
   xmlns:dc="http://purl.org/dc/elements/1.1/"
   xmlns:cc="http://creativecommons.org/ns#"
   xmlns:rdf="http://www.w3.org/1999/02/22-rdf-syntax-ns#"
   xmlns:svg="http://www.w3.org/2000/svg"
   xmlns="http://www.w3.org/2000/svg"
   height="335.44901"
   width="512.00098"
   xml:space="preserve"
   viewBox="0 0 512.001 335.44902"
   y="0px"
   x="0px"
   id="Layer_1"
   version="1.1"><metadata
   id="metadata100"><rdf:RDF><cc:Work
       rdf:about=""><dc:format>image/svg+xml</dc:format><dc:type
         rdf:resource="http://purl.org/dc/dcmitype/StillImage" /><dc:title></dc:title></cc:Work></rdf:RDF></metadata><defs
   id="defs98" />
<g
   transform="translate(0,-88.276)"
   id="g51">
  <rect
   x="0"
   id="rect45"
   height="37.27"
   width="512"
   style="fill:#f5f5f5"
   y="125.551" />
  <rect
   x="0"
   id="rect47"
   height="37.27"
   width="512"
   style="fill:#f5f5f5"
   y="200.091" />
  <rect
   x="0"
   id="rect49"
   height="37.27"
   width="512"
   style="fill:#f5f5f5"
   y="274.64099" />
</g>
<rect
   x="0"
   id="rect53"
   height="37.27"
   width="512"
   style="fill:#41479b"
   y="223.63501" />
<rect
   x="0"
   id="rect55"
   height="37.27"
   width="512"
   style="fill:#f5f5f5"
   y="260.905" />
<g
   transform="translate(0,-88.276)"
   id="g61">
  <path
   id="path57"
   d="m 8.828,423.725 h 494.345 c 4.875,0 8.828,-3.953 8.828,-8.828 V 386.452 H 0 v 28.445 c 0,4.876 3.953,8.828 8.828,8.828 z"
   style="fill:#41479b" />
  <path
   id="path59"
   d="M 512,125.549 V 97.104 c 0,-4.875 -3.953,-8.828 -8.828,-8.828 H 8.828 C 3.953,88.277 0,92.229 0,97.104 v 65.717 37.271 74.545 H 512 V 237.365 H 176.552 V 200.093 H 512 V 162.821 H 176.552 v -37.272 c 0,0 335.448,0 335.448,0 z"
   style="fill:#41479b" />
</g>
<polygon
   transform="translate(0,-88.276)"
   id="polygon63"
   points="106.912,88.277 69.64,88.277 69.64,162.821 0,162.821 0,200.093 69.64,200.093 69.64,274.637 106.912,274.637 106.912,200.093 176.552,200.093 176.552,162.821 106.912,162.821 "
   style="fill:#f5f5f5" />
<g
   transform="translate(0,-88.276)"
   id="g65">
</g>
<g
   transform="translate(0,-88.276)"
   id="g67">
</g>
<g
   transform="translate(0,-88.276)"
   id="g69">
</g>
<g
   transform="translate(0,-88.276)"
   id="g71">
</g>
<g
   transform="translate(0,-88.276)"
   id="g73">
</g>
<g
   transform="translate(0,-88.276)"
   id="g75">
</g>
<g
   transform="translate(0,-88.276)"
   id="g77">
</g>
<g
   transform="translate(0,-88.276)"
   id="g79">
</g>
<g
   transform="translate(0,-88.276)"
   id="g81">
</g>
<g
   transform="translate(0,-88.276)"
   id="g83">
</g>
<g
   transform="translate(0,-88.276)"
   id="g85">
</g>
<g
   transform="translate(0,-88.276)"
   id="g87">
</g>
<g
   transform="translate(0,-88.276)"
   id="g89">
</g>
<g
   transform="translate(0,-88.276)"
   id="g91">
</g>
<g
   transform="translate(0,-88.276)"
   id="g93">
</g>
</svg>
