<?xml version="1.0" encoding="UTF-8" standalone="no"?>
<svg
   xmlns:dc="http://purl.org/dc/elements/1.1/"
   xmlns:cc="http://creativecommons.org/ns#"
   xmlns:rdf="http://www.w3.org/1999/02/22-rdf-syntax-ns#"
   xmlns:svg="http://www.w3.org/2000/svg"
   xmlns="http://www.w3.org/2000/svg"
   height="335.44901"
   width="512.00098"
   xml:space="preserve"
   viewBox="0 0 512.001 335.44902"
   y="0px"
   x="0px"
   id="Layer_1"
   version="1.1"><metadata
   id="metadata231"><rdf:RDF><cc:Work
       rdf:about=""><dc:format>image/svg+xml</dc:format><dc:type
         rdf:resource="http://purl.org/dc/dcmitype/StillImage" /><dc:title></dc:title></cc:Work></rdf:RDF></metadata><defs
   id="defs229" />
<path
   id="path102"
   d="m 8.828,335.449 h 494.345 c 4.875,0 8.828,-3.953 8.828,-8.828 V 8.828 C 512.001,3.953 508.048,0 503.173,0 H 8.828 C 3.953,10e-4 0,3.953 0,8.828 v 317.793 c 0,4.876 3.953,8.828 8.828,8.828 z"
   style="fill:#c8414b" />
<rect
   x="0"
   id="rect104"
   height="194.21001"
   width="512"
   style="fill:#ffd250"
   y="70.625" />
<path
   id="path106"
   d="m 216.276,167.725 7.485,-33.681 C 224.451,130.942 222.09,128 218.912,128 h -5.272 c -3.177,0 -5.537,2.942 -4.849,6.044 z"
   style="fill:#c8414b" />
<rect
   id="rect108"
   height="75.029999"
   width="17.655001"
   style="fill:#f5f5f5"
   y="150.065"
   x="207.45" />
<rect
   id="rect110"
   height="8.8280001"
   width="26.483"
   style="fill:#fab446"
   y="141.245"
   x="203.03" />
<g
   transform="translate(0,-88.276)"
   id="g118">
  <rect
   id="rect112"
   height="8.8280001"
   width="44.139999"
   style="fill:#c8414b"
   y="256.00101"
   x="185.38" />
  <polygon
   id="polygon114"
   points="203.034,273.656 229.517,282.484 229.517,291.311 203.034,282.484 "
   style="fill:#c8414b" />
  <path
   id="path116"
   d="m 83.862,256.001 7.485,-33.681 c 0.69,-3.102 -1.671,-6.044 -4.849,-6.044 h -5.272 c -3.177,0 -5.537,2.942 -4.849,6.044 z"
   style="fill:#c8414b" />
</g>
<path
   id="path120"
   d="m 114.759,141.242 c -4.875,0 -8.828,3.953 -8.828,8.828 v 57.379 c 0,10.725 10.01,30.897 44.138,30.897 34.128,0 44.138,-20.171 44.138,-30.897 V 150.07 c 0,-4.875 -3.953,-8.828 -8.828,-8.828 z"
   style="fill:#f5f5f5" />
<g
   transform="translate(0,-88.276)"
   id="g126">
  <path
   id="path122"
   d="m 150.069,273.656 h -44.138 v -35.31 c 0,-4.875 3.953,-8.828 8.828,-8.828 h 35.31 z"
   style="fill:#c8414b" />
  <path
   id="path124"
   d="m 150.069,273.656 h 44.138 v 22.069 c 0,12.189 -9.88,22.069 -22.069,22.069 v 0 c -12.189,0 -22.069,-9.88 -22.069,-22.069 z"
   style="fill:#c8414b" />
</g>
<path
   id="path128"
   d="m 105.931,185.38 h 44.138 v 22.069 c 0,12.189 -9.88,22.069 -22.069,22.069 v 0 c -12.189,0 -22.069,-9.88 -22.069,-22.069 z"
   style="fill:#fab446" />
<g
   transform="translate(0,-88.276)"
   id="g134">
  <path
   id="path130"
   d="m 141.241,313.281 v -39.625 h -8.828 v 43.693 c 3.284,-0.666 6.251,-2.12 8.828,-4.068 z"
   style="fill:#c8414b" />
  <path
   id="path132"
   d="m 123.586,317.349 v -43.693 h -8.828 v 39.625 c 2.578,1.948 5.545,3.402 8.828,4.068 z"
   style="fill:#c8414b" />
</g>
<rect
   id="rect136"
   height="8.8280001"
   width="26.483"
   style="fill:#ffb441"
   y="167.72501"
   x="114.76" />
<g
   transform="translate(0,-88.276)"
   id="g142">
  <rect
   id="rect138"
   height="8.8280001"
   width="26.483"
   style="fill:#fab446"
   y="238.341"
   x="114.76" />
  <rect
   id="rect140"
   height="15.992"
   width="17.655001"
   style="fill:#fab446"
   y="243.591"
   x="119.17" />
</g>
<rect
   id="rect144"
   height="75.029999"
   width="17.655001"
   style="fill:#f5f5f5"
   y="150.065"
   x="75.029999" />
<g
   transform="translate(0,-88.276)"
   id="g150">
  <rect
   id="rect146"
   height="8.8280001"
   width="26.483"
   style="fill:#fab446"
   y="308.97101"
   x="70.620003" />
  <rect
   id="rect148"
   height="8.8280001"
   width="26.483"
   style="fill:#fab446"
   y="229.521"
   x="70.620003" />
</g>
<rect
   id="rect152"
   height="8.8280001"
   width="35.310001"
   style="fill:#5064aa"
   y="229.51498"
   x="66.209999" />
<rect
   id="rect154"
   height="8.8280001"
   width="26.483"
   style="fill:#fab446"
   y="220.69501"
   x="207.45" />
<rect
   id="rect156"
   height="8.8280001"
   width="35.310001"
   style="fill:#5064aa"
   y="229.51498"
   x="198.62" />
<rect
   id="rect158"
   height="8.8280001"
   width="52.966"
   style="fill:#fab446"
   y="132.41499"
   x="123.59" />
<rect
   id="rect160"
   height="26.483"
   width="8.8280001"
   style="fill:#ffb441"
   y="105.935"
   x="145.66" />
<g
   transform="translate(0,-88.276)"
   id="g170">
  <path
   id="path162"
   d="m 141.241,207.449 c -7.302,0 -13.241,-5.94 -13.241,-13.241 0,-7.302 5.94,-13.241 13.241,-13.241 7.302,0 13.241,5.94 13.241,13.241 0.001,7.301 -5.939,13.241 -13.241,13.241 z m 0,-17.655 c -2.435,0 -4.414,1.978 -4.414,4.414 0,2.435 1.978,4.414 4.414,4.414 2.436,0 4.414,-1.978 4.414,-4.414 0,-2.435 -1.978,-4.414 -4.414,-4.414 z"
   style="fill:#f5f5f5" />
  <path
   id="path164"
   d="m 158.897,207.449 c -7.302,0 -13.241,-5.94 -13.241,-13.241 0,-7.302 5.94,-13.241 13.241,-13.241 7.302,0 13.241,5.94 13.241,13.241 0,7.301 -5.94,13.241 -13.241,13.241 z m 0,-17.655 c -2.435,0 -4.414,1.978 -4.414,4.414 0,2.435 1.978,4.414 4.414,4.414 2.435,0 4.414,-1.978 4.414,-4.414 -0.001,-2.435 -1.979,-4.414 -4.414,-4.414 z"
   style="fill:#f5f5f5" />
  <path
   id="path166"
   d="m 176.552,216.277 c -7.302,0 -13.241,-5.94 -13.241,-13.241 0,-7.302 5.94,-13.241 13.241,-13.241 7.302,0 13.241,5.94 13.241,13.241 0,7.301 -5.94,13.241 -13.241,13.241 z m 0,-17.655 c -2.435,0 -4.414,1.978 -4.414,4.414 0,2.435 1.978,4.414 4.414,4.414 2.435,0 4.414,-1.978 4.414,-4.414 0,-2.436 -1.979,-4.414 -4.414,-4.414 z"
   style="fill:#f5f5f5" />
  <path
   id="path168"
   d="m 123.586,216.277 c -7.302,0 -13.241,-5.94 -13.241,-13.241 0,-7.302 5.94,-13.241 13.241,-13.241 7.302,0 13.241,5.94 13.241,13.241 0.001,7.301 -5.939,13.241 -13.241,13.241 z m 0,-17.655 c -2.435,0 -4.414,1.978 -4.414,4.414 0,2.435 1.978,4.414 4.414,4.414 2.436,0 4.414,-1.979 4.414,-4.415 0,-2.435 -1.978,-4.413 -4.414,-4.413 z"
   style="fill:#f5f5f5" />
</g>
<path
   id="path172"
   d="m 176.552,203.035 v 4.414 c 0,2.434 -1.98,4.414 -4.414,4.414 -2.434,0 -4.414,-1.98 -4.414,-4.414 v -4.414 h 8.828 m 8.827,-8.827 h -26.483 v 13.241 c 0,7.302 5.94,13.241 13.241,13.241 7.302,0 13.241,-5.94 13.241,-13.241 v -13.241 z"
   style="fill:#fab446" />
<path
   id="path174"
   d="m 172.138,176.553 v 0 c -4.875,0 -8.828,-3.953 -8.828,-8.828 v -8.828 c 0,-4.875 3.953,-8.828 8.828,-8.828 v 0 c 4.875,0 8.828,3.953 8.828,8.828 v 8.828 c 0,4.875 -3.953,8.828 -8.828,8.828 z"
   style="fill:#ffa0d2" />
<circle
   id="circle176"
   r="13.241"
   cy="185.375"
   cx="150.07001"
   style="fill:#5064aa" />
<rect
   id="rect178"
   height="26.483"
   width="8.8280001"
   style="fill:#fab446"
   y="88.274994"
   x="145.66" />
<path
   id="path180"
   d="m 123.586,132.415 -8.828,-8.828 5.171,-5.171 c 7.993,-7.993 18.835,-12.484 30.14,-12.484 v 0 c 11.305,0 22.146,4.491 30.14,12.484 l 5.171,5.171 -8.828,8.828 z"
   style="fill:#c8414b" />
<g
   transform="translate(0,-88.276)"
   id="g188">
  <circle
   id="circle182"
   r="4.414"
   cy="211.86099"
   cx="150.07001"
   style="fill:#ffd250" />
  <circle
   id="circle184"
   r="4.414"
   cy="211.86099"
   cx="132.41"
   style="fill:#ffd250" />
  <circle
   id="circle186"
   r="4.414"
   cy="211.86099"
   cx="167.72"
   style="fill:#ffd250" />
</g>
<g
   transform="translate(0,-88.276)"
   id="g194">
  <rect
   id="rect190"
   height="8.8280001"
   width="44.139999"
   style="fill:#c8414b"
   y="256.00101"
   x="70.620003" />
  <polygon
   id="polygon192"
   points="97.103,273.656 70.621,282.484 70.621,291.311 97.103,282.484 "
   style="fill:#c8414b" />
</g>
<g
   transform="translate(0,-88.276)"
   id="g196">
</g>
<g
   transform="translate(0,-88.276)"
   id="g198">
</g>
<g
   transform="translate(0,-88.276)"
   id="g200">
</g>
<g
   transform="translate(0,-88.276)"
   id="g202">
</g>
<g
   transform="translate(0,-88.276)"
   id="g204">
</g>
<g
   transform="translate(0,-88.276)"
   id="g206">
</g>
<g
   transform="translate(0,-88.276)"
   id="g208">
</g>
<g
   transform="translate(0,-88.276)"
   id="g210">
</g>
<g
   transform="translate(0,-88.276)"
   id="g212">
</g>
<g
   transform="translate(0,-88.276)"
   id="g214">
</g>
<g
   transform="translate(0,-88.276)"
   id="g216">
</g>
<g
   transform="translate(0,-88.276)"
   id="g218">
</g>
<g
   transform="translate(0,-88.276)"
   id="g220">
</g>
<g
   transform="translate(0,-88.276)"
   id="g222">
</g>
<g
   transform="translate(0,-88.276)"
   id="g224">
</g>
</svg>
