<?xml version="1.0" encoding="UTF-8" standalone="no"?>
<svg
   xmlns:dc="http://purl.org/dc/elements/1.1/"
   xmlns:cc="http://creativecommons.org/ns#"
   xmlns:rdf="http://www.w3.org/1999/02/22-rdf-syntax-ns#"
   xmlns:svg="http://www.w3.org/2000/svg"
   xmlns="http://www.w3.org/2000/svg"
   height="335.45502"
   width="512"
   xml:space="preserve"
   viewBox="0 0 512 335.45502"
   y="0px"
   x="0px"
   id="Layer_1"
   version="1.1"><metadata
   id="metadata274"><rdf:RDF><cc:Work
       rdf:about=""><dc:format>image/svg+xml</dc:format><dc:type
         rdf:resource="http://purl.org/dc/dcmitype/StillImage" /><dc:title></dc:title></cc:Work></rdf:RDF></metadata><defs
   id="defs272" />
<path
   id="path233"
   d="M 170.667,335.449 H 8.828 C 3.953,335.449 0,331.496 0,326.621 V 8.828 C 0,3.953 3.953,0 8.828,0 h 161.839 z"
   style="fill:#41479b" />
<rect
   id="rect235"
   height="335.45001"
   width="170.67"
   style="fill:#f5f5f5"
   y="0.0050004274"
   x="170.67" />
<path
   id="path237"
   d="M 503.172,335.449 H 341.333 V 0.001 h 161.839 c 4.875,0 8.828,3.953 8.828,8.828 v 317.793 c 0,4.876 -3.953,8.827 -8.828,8.827 z"
   style="fill:#ff4b55" />
<g
   transform="translate(0,-88.272)"
   id="g239">
</g>
<g
   transform="translate(0,-88.272)"
   id="g241">
</g>
<g
   transform="translate(0,-88.272)"
   id="g243">
</g>
<g
   transform="translate(0,-88.272)"
   id="g245">
</g>
<g
   transform="translate(0,-88.272)"
   id="g247">
</g>
<g
   transform="translate(0,-88.272)"
   id="g249">
</g>
<g
   transform="translate(0,-88.272)"
   id="g251">
</g>
<g
   transform="translate(0,-88.272)"
   id="g253">
</g>
<g
   transform="translate(0,-88.272)"
   id="g255">
</g>
<g
   transform="translate(0,-88.272)"
   id="g257">
</g>
<g
   transform="translate(0,-88.272)"
   id="g259">
</g>
<g
   transform="translate(0,-88.272)"
   id="g261">
</g>
<g
   transform="translate(0,-88.272)"
   id="g263">
</g>
<g
   transform="translate(0,-88.272)"
   id="g265">
</g>
<g
   transform="translate(0,-88.272)"
   id="g267">
</g>
</svg>
