<?xml version="1.0" encoding="UTF-8" standalone="no"?>
<svg
   xmlns:dc="http://purl.org/dc/elements/1.1/"
   xmlns:cc="http://creativecommons.org/ns#"
   xmlns:rdf="http://www.w3.org/1999/02/22-rdf-syntax-ns#"
   xmlns:svg="http://www.w3.org/2000/svg"
   xmlns="http://www.w3.org/2000/svg"
   height="335.44901"
   width="512.00098"
   xml:space="preserve"
   viewBox="0 0 512.001 335.44902"
   y="0px"
   x="0px"
   id="Layer_1"
   version="1.1"><metadata
   id="metadata315"><rdf:RDF><cc:Work
       rdf:about=""><dc:format>image/svg+xml</dc:format><dc:type
         rdf:resource="http://purl.org/dc/dcmitype/StillImage" /><dc:title></dc:title></cc:Work></rdf:RDF></metadata><defs
   id="defs313" />
<path
   id="path276"
   d="M 503.172,335.449 H 8.828 C 3.953,335.449 0,331.496 0,326.621 V 8.828 C 0,3.953 3.953,0 8.828,0 h 494.345 c 4.875,0 8.828,3.953 8.828,8.828 v 317.793 c -10e-4,4.876 -3.954,8.828 -8.829,8.828 z"
   style="fill:#f5f5f5" />
<circle
   id="circle278"
   r="97.099998"
   cy="167.72501"
   cx="256"
   style="fill:#ff4b55" />
<g
   transform="translate(0,-88.276)"
   id="g280">
</g>
<g
   transform="translate(0,-88.276)"
   id="g282">
</g>
<g
   transform="translate(0,-88.276)"
   id="g284">
</g>
<g
   transform="translate(0,-88.276)"
   id="g286">
</g>
<g
   transform="translate(0,-88.276)"
   id="g288">
</g>
<g
   transform="translate(0,-88.276)"
   id="g290">
</g>
<g
   transform="translate(0,-88.276)"
   id="g292">
</g>
<g
   transform="translate(0,-88.276)"
   id="g294">
</g>
<g
   transform="translate(0,-88.276)"
   id="g296">
</g>
<g
   transform="translate(0,-88.276)"
   id="g298">
</g>
<g
   transform="translate(0,-88.276)"
   id="g300">
</g>
<g
   transform="translate(0,-88.276)"
   id="g302">
</g>
<g
   transform="translate(0,-88.276)"
   id="g304">
</g>
<g
   transform="translate(0,-88.276)"
   id="g306">
</g>
<g
   transform="translate(0,-88.276)"
   id="g308">
</g>
</svg>
