<?xml version="1.0" encoding="UTF-8" standalone="no"?>
<svg
   xmlns:dc="http://purl.org/dc/elements/1.1/"
   xmlns:cc="http://creativecommons.org/ns#"
   xmlns:rdf="http://www.w3.org/1999/02/22-rdf-syntax-ns#"
   xmlns:svg="http://www.w3.org/2000/svg"
   xmlns="http://www.w3.org/2000/svg"
   height="335.44901"
   width="512.00098"
   xml:space="preserve"
   viewBox="0 0 512.001 335.44902"
   y="0px"
   x="0px"
   id="Layer_1"
   version="1.1"><metadata
   id="metadata396"><rdf:RDF><cc:Work
       rdf:about=""><dc:format>image/svg+xml</dc:format><dc:type
         rdf:resource="http://purl.org/dc/dcmitype/StillImage" /><dc:title></dc:title></cc:Work></rdf:RDF></metadata><defs
   id="defs394" />
<path
   id="path317"
   d="M 503.172,335.449 H 8.828 C 3.953,335.449 0,331.496 0,326.621 V 8.828 C 0,3.953 3.953,0 8.828,0 h 494.345 c 4.875,0 8.828,3.953 8.828,8.828 v 317.793 c -10e-4,4.876 -3.954,8.828 -8.829,8.828 z"
   style="fill:#f5f5f5" />
<path
   id="path319"
   d="m 305.009,94.257 c -40.563,-27.041 -95.35,-15.986 -122.374,24.506 -13.555,20.211 -8.045,47.674 12.235,61.195 20.265,13.521 47.64,8.03 61.161,-12.252 13.521,-20.281 40.914,-25.704 61.178,-12.254 20.298,13.521 25.757,40.984 12.217,61.195 27.042,-40.56 16.111,-95.348 -24.417,-122.39"
   style="fill:#ff4b55" />
<path
   id="path321"
   d="m 182.634,118.764 c -13.555,20.211 -8.045,47.674 12.235,61.195 20.265,13.521 47.64,8.03 61.161,-12.252 13.521,-20.281 40.914,-25.704 61.178,-12.254 20.298,13.521 25.757,40.984 12.217,61.195 -27.006,40.632 -81.775,51.549 -122.338,24.507 -40.526,-27.04 -51.494,-81.828 -24.453,-122.391"
   style="fill:#41479b" />
<g
   transform="translate(0,-88.276)"
   id="g359">
  <path
   id="path323"
   d="m 349.92,149.191 16.035,24.102 c 1.347,2.025 0.802,4.759 -1.219,6.112 l -4.066,2.723 c -2.029,1.358 -4.775,0.812 -6.129,-1.22 l -16.055,-24.096 c -1.351,-2.027 -0.803,-4.766 1.223,-6.119 l 4.086,-2.728 c 2.03,-1.355 4.773,-0.806 6.125,1.226 z"
   style="fill:#464655" />
  <path
   id="path325"
   d="m 374.66,186.352 16.087,24.087 c 1.358,2.034 0.803,4.786 -1.237,6.134 l -4.084,2.699 c -2.026,1.34 -4.754,0.789 -6.103,-1.23 L 363.245,193.98 c -1.354,-2.026 -0.81,-4.767 1.217,-6.122 l 4.074,-2.724 c 2.027,-1.355 4.769,-0.81 6.124,1.218 z"
   style="fill:#464655" />
  <path
   id="path327"
   d="m 367.089,137.733 40.829,61.273 c 1.352,2.028 0.803,4.768 -1.225,6.12 l -4.102,2.734 c -2.028,1.353 -4.769,0.804 -6.121,-1.224 l -40.843,-61.269 c -1.353,-2.029 -0.803,-4.771 1.227,-6.122 l 4.115,-2.739 c 2.029,-1.349 4.768,-0.801 6.12,1.227 z"
   style="fill:#464655" />
  <path
   id="path329"
   d="m 384.211,126.293 16.07,24.149 c 1.354,2.034 0.798,4.78 -1.241,6.127 l -4.086,2.7 c -2.028,1.34 -4.757,0.789 -6.105,-1.234 l -16.082,-24.117 c -1.353,-2.028 -0.804,-4.769 1.224,-6.121 l 4.099,-2.732 c 2.027,-1.353 4.769,-0.804 6.121,1.228 z"
   style="fill:#464655" />
  <path
   id="path331"
   d="m 408.967,163.532 16.045,24.099 c 1.35,2.026 0.803,4.762 -1.22,6.115 l -4.075,2.724 c -2.029,1.357 -4.775,0.809 -6.127,-1.223 l -16.045,-24.099 c -1.349,-2.026 -0.803,-4.762 1.22,-6.115 l 4.075,-2.724 c 2.028,-1.357 4.774,-0.81 6.127,1.223 z"
   style="fill:#464655" />
  <path
   id="path333"
   d="m 132.721,293.983 40.824,61.207 c 1.352,2.027 0.806,4.767 -1.222,6.12 l -4.088,2.73 c -2.028,1.354 -4.769,0.807 -6.123,-1.222 l -40.824,-61.207 c -1.352,-2.027 -0.806,-4.767 1.222,-6.12 l 4.088,-2.73 c 2.028,-1.354 4.77,-0.806 6.123,1.222 z"
   style="fill:#464655" />
  <path
   id="path335"
   d="m 115.582,305.432 16.028,24.041 c 1.351,2.026 0.806,4.761 -1.217,6.116 l -4.066,2.722 c -2.027,1.357 -4.771,0.812 -6.126,-1.217 l -16.047,-24.035 c -1.354,-2.027 -0.808,-4.768 1.22,-6.122 l 4.086,-2.728 c 2.027,-1.353 4.769,-0.806 6.122,1.223 z"
   style="fill:#464655" />
  <path
   id="path337"
   d="m 140.351,342.606 16.046,24.102 c 1.35,2.026 0.803,4.763 -1.222,6.115 l -4.078,2.726 c -2.029,1.356 -4.772,0.809 -6.126,-1.221 l -16.056,-24.097 c -1.351,-2.027 -0.803,-4.766 1.222,-6.119 l 4.088,-2.73 c 2.03,-1.356 4.773,-0.807 6.126,1.224 z"
   style="fill:#464655" />
  <path
   id="path339"
   d="m 98.442,316.877 40.798,61.21 c 1.351,2.026 0.804,4.764 -1.219,6.118 l -4.077,2.726 c -2.028,1.356 -4.771,0.81 -6.125,-1.22 L 86.997,324.509 c -1.353,-2.028 -0.804,-4.769 1.224,-6.122 l 4.102,-2.734 c 2.026,-1.352 4.767,-0.804 6.119,1.224 z"
   style="fill:#464655" />
  <path
   id="path341"
   d="m 121.294,210.443 40.818,-61.257 c 1.353,-2.03 4.095,-2.578 6.124,-1.224 l 4.087,2.729 c 2.027,1.353 2.573,4.093 1.222,6.12 l -40.834,61.223 c -1.35,2.023 -4.081,2.573 -6.108,1.231 l -4.071,-2.695 c -2.038,-1.348 -2.592,-4.095 -1.238,-6.127 z"
   style="fill:#464655" />
  <path
   id="path343"
   d="m 104.147,199.01 40.825,-61.269 c 1.353,-2.03 4.097,-2.578 6.126,-1.222 l 4.077,2.726 c 2.024,1.353 2.57,4.089 1.22,6.116 l -40.814,61.272 c -1.353,2.03 -4.095,2.579 -6.124,1.224 l -4.088,-2.729 c -2.026,-1.352 -2.573,-4.091 -1.222,-6.118 z"
   style="fill:#464655" />
  <path
   id="path345"
   d="m 86.99,187.626 40.829,-61.33 c 1.353,-2.031 4.098,-2.58 6.127,-1.224 l 4.077,2.726 c 2.024,1.353 2.57,4.087 1.222,6.114 l -40.804,61.339 c -1.351,2.031 -4.094,2.581 -6.123,1.228 l -4.102,-2.734 c -2.027,-1.352 -2.575,-4.091 -1.226,-6.119 z"
   style="fill:#464655" />
  <path
   id="path347"
   d="m 338.493,355.19 16.047,-24.035 c 1.355,-2.029 4.099,-2.574 6.126,-1.217 l 4.066,2.723 c 2.023,1.354 2.567,4.09 1.217,6.116 l -16.028,24.04 c -1.353,2.029 -4.095,2.577 -6.123,1.223 l -4.086,-2.728 c -2.027,-1.354 -2.573,-4.094 -1.219,-6.122 z"
   style="fill:#464655" />
  <path
   id="path349"
   d="m 363.243,318.142 16.073,-24.154 c 1.352,-2.03 4.094,-2.58 6.123,-1.227 l 4.096,2.73 c 2.029,1.353 2.577,4.096 1.223,6.124 l -16.107,24.116 c -1.351,2.023 -4.082,2.571 -6.109,1.227 l -4.062,-2.692 c -2.035,-1.349 -2.589,-4.093 -1.237,-6.124 z"
   style="fill:#464655" />
  <path
   id="path351"
   d="m 355.626,366.699 16.057,-24.098 c 1.352,-2.029 4.093,-2.578 6.122,-1.225 l 4.104,2.737 c 2.027,1.352 2.575,4.09 1.225,6.119 l -16.047,24.1 c -1.351,2.029 -4.09,2.579 -6.12,1.228 l -4.115,-2.739 c -2.028,-1.351 -2.578,-4.093 -1.226,-6.122 z"
   style="fill:#464655" />
  <path
   id="path353"
   d="m 380.403,329.464 16.066,-24.042 c 1.354,-2.025 4.092,-2.571 6.119,-1.22 l 4.102,2.734 c 2.029,1.353 2.577,4.096 1.221,6.124 l -16.065,24.042 c -1.353,2.025 -4.092,2.571 -6.118,1.22 l -4.103,-2.734 c -2.031,-1.351 -2.578,-4.095 -1.222,-6.124 z"
   style="fill:#464655" />
  <path
   id="path355"
   d="m 372.771,378.082 16.075,-24.056 c 1.35,-2.019 4.077,-2.569 6.103,-1.23 l 4.086,2.7 c 2.039,1.348 2.595,4.097 1.239,6.131 l -16.063,24.088 c -1.352,2.028 -4.093,2.575 -6.121,1.224 l -4.099,-2.732 c -2.029,-1.354 -2.576,-4.097 -1.22,-6.125 z"
   style="fill:#464655" />
  <path
   id="path357"
   d="m 397.554,340.97 16.035,-24.085 c 1.353,-2.031 4.098,-2.58 6.127,-1.223 l 4.072,2.722 c 2.025,1.354 2.57,4.093 1.218,6.119 l -16.049,24.053 c -1.349,2.024 -4.083,2.573 -6.11,1.229 l -4.06,-2.69 c -2.033,-1.348 -2.586,-4.093 -1.233,-6.125 z"
   style="fill:#464655" />
</g>
<g
   transform="translate(0,-88.276)"
   id="g361">
</g>
<g
   transform="translate(0,-88.276)"
   id="g363">
</g>
<g
   transform="translate(0,-88.276)"
   id="g365">
</g>
<g
   transform="translate(0,-88.276)"
   id="g367">
</g>
<g
   transform="translate(0,-88.276)"
   id="g369">
</g>
<g
   transform="translate(0,-88.276)"
   id="g371">
</g>
<g
   transform="translate(0,-88.276)"
   id="g373">
</g>
<g
   transform="translate(0,-88.276)"
   id="g375">
</g>
<g
   transform="translate(0,-88.276)"
   id="g377">
</g>
<g
   transform="translate(0,-88.276)"
   id="g379">
</g>
<g
   transform="translate(0,-88.276)"
   id="g381">
</g>
<g
   transform="translate(0,-88.276)"
   id="g383">
</g>
<g
   transform="translate(0,-88.276)"
   id="g385">
</g>
<g
   transform="translate(0,-88.276)"
   id="g387">
</g>
<g
   transform="translate(0,-88.276)"
   id="g389">
</g>
</svg>
