<?xml version="1.0" encoding="UTF-8" standalone="no"?>
<svg
   xmlns:dc="http://purl.org/dc/elements/1.1/"
   xmlns:cc="http://creativecommons.org/ns#"
   xmlns:rdf="http://www.w3.org/1999/02/22-rdf-syntax-ns#"
   xmlns:svg="http://www.w3.org/2000/svg"
   xmlns="http://www.w3.org/2000/svg"
   height="335.44901"
   width="512.00098"
   xml:space="preserve"
   viewBox="0 0 512.001 335.44902"
   y="0px"
   x="0px"
   id="Layer_1"
   version="1.1"><metadata
   id="metadata129"><rdf:RDF><cc:Work
       rdf:about=""><dc:format>image/svg+xml</dc:format><dc:type
         rdf:resource="http://purl.org/dc/dcmitype/StillImage" /><dc:title></dc:title></cc:Work></rdf:RDF></metadata><defs
   id="defs127" />
<path
   id="path88"
   d="M 503.172,335.449 H 8.828 C 3.953,335.449 0,331.496 0,326.621 V 8.828 C 0,3.953 3.953,0 8.828,0 h 494.345 c 4.875,0 8.828,3.953 8.828,8.828 v 317.793 c -10e-4,4.876 -3.954,8.828 -8.829,8.828 z"
   style="fill:#ff4b55" />
<polygon
   transform="translate(0,-88.276)"
   id="polygon90"
   points="229.517,88.277 141.241,88.277 141.241,211.863 0,211.863 0,300.139 141.241,300.139 141.241,423.725 229.517,423.725 229.517,300.139 512,300.139 512,211.863 229.517,211.863 "
   style="fill:#f5f5f5" />
<polygon
   transform="translate(0,-88.276)"
   id="polygon92"
   points="211.862,88.277 158.897,88.277 158.897,229.518 0,229.518 0,282.484 158.897,282.484 158.897,423.725 211.862,423.725 211.862,282.484 512,282.484 512,229.518 211.862,229.518 "
   style="fill:#41479b" />
<g
   transform="translate(0,-88.276)"
   id="g94">
</g>
<g
   transform="translate(0,-88.276)"
   id="g96">
</g>
<g
   transform="translate(0,-88.276)"
   id="g98">
</g>
<g
   transform="translate(0,-88.276)"
   id="g100">
</g>
<g
   transform="translate(0,-88.276)"
   id="g102">
</g>
<g
   transform="translate(0,-88.276)"
   id="g104">
</g>
<g
   transform="translate(0,-88.276)"
   id="g106">
</g>
<g
   transform="translate(0,-88.276)"
   id="g108">
</g>
<g
   transform="translate(0,-88.276)"
   id="g110">
</g>
<g
   transform="translate(0,-88.276)"
   id="g112">
</g>
<g
   transform="translate(0,-88.276)"
   id="g114">
</g>
<g
   transform="translate(0,-88.276)"
   id="g116">
</g>
<g
   transform="translate(0,-88.276)"
   id="g118">
</g>
<g
   transform="translate(0,-88.276)"
   id="g120">
</g>
<g
   transform="translate(0,-88.276)"
   id="g122">
</g>
</svg>
