<?xml version="1.0" encoding="UTF-8" standalone="no"?>
<svg
   xmlns:dc="http://purl.org/dc/elements/1.1/"
   xmlns:cc="http://creativecommons.org/ns#"
   xmlns:rdf="http://www.w3.org/1999/02/22-rdf-syntax-ns#"
   xmlns:svg="http://www.w3.org/2000/svg"
   xmlns="http://www.w3.org/2000/svg"
   height="335.45001"
   width="512.00098"
   xml:space="preserve"
   viewBox="0 0 512.001 335.45003"
   y="0px"
   x="0px"
   id="Layer_1"
   version="1.1"><metadata
   id="metadata84"><rdf:RDF><cc:Work
       rdf:about=""><dc:format>image/svg+xml</dc:format><dc:type
         rdf:resource="http://purl.org/dc/dcmitype/StillImage" /><dc:title></dc:title></cc:Work></rdf:RDF></metadata><defs
   id="defs82" />
<path
   id="path45"
   d="m 0,167.725 h 512 v 158.897 c 0,4.875 -3.953,8.828 -8.828,8.828 H 8.828 C 3.953,335.45 0,331.497 0,326.622 Z"
   style="fill:#ff4b55" />
<path
   id="path47"
   d="M 512,167.725 H 0 V 8.828 C 0,3.953 3.953,0 8.828,0 h 494.345 c 4.875,0 8.828,3.953 8.828,8.828 z"
   style="fill:#f5f5f5" />
<g
   transform="translate(0,-88.275)"
   id="g49">
</g>
<g
   transform="translate(0,-88.275)"
   id="g51">
</g>
<g
   transform="translate(0,-88.275)"
   id="g53">
</g>
<g
   transform="translate(0,-88.275)"
   id="g55">
</g>
<g
   transform="translate(0,-88.275)"
   id="g57">
</g>
<g
   transform="translate(0,-88.275)"
   id="g59">
</g>
<g
   transform="translate(0,-88.275)"
   id="g61">
</g>
<g
   transform="translate(0,-88.275)"
   id="g63">
</g>
<g
   transform="translate(0,-88.275)"
   id="g65">
</g>
<g
   transform="translate(0,-88.275)"
   id="g67">
</g>
<g
   transform="translate(0,-88.275)"
   id="g69">
</g>
<g
   transform="translate(0,-88.275)"
   id="g71">
</g>
<g
   transform="translate(0,-88.275)"
   id="g73">
</g>
<g
   transform="translate(0,-88.275)"
   id="g75">
</g>
<g
   transform="translate(0,-88.275)"
   id="g77">
</g>
</svg>
