<?xml version="1.0" encoding="UTF-8" standalone="no"?>
<svg
   xmlns:dc="http://purl.org/dc/elements/1.1/"
   xmlns:cc="http://creativecommons.org/ns#"
   xmlns:rdf="http://www.w3.org/1999/02/22-rdf-syntax-ns#"
   xmlns:svg="http://www.w3.org/2000/svg"
   xmlns="http://www.w3.org/2000/svg"
   height="335.44901"
   width="512.00098"
   xml:space="preserve"
   viewBox="0 0 512.001 335.44902"
   y="0px"
   x="0px"
   id="Layer_1"
   version="1.1"><metadata
   id="metadata465"><rdf:RDF><cc:Work
       rdf:about=""><dc:format>image/svg+xml</dc:format><dc:type
         rdf:resource="http://purl.org/dc/dcmitype/StillImage" /><dc:title></dc:title></cc:Work></rdf:RDF></metadata><defs
   id="defs463" />
<path
   id="path398"
   d="M 503.172,335.449 H 8.828 C 3.953,335.449 0,331.496 0,326.621 V 8.828 C 0,3.953 3.953,0 8.828,0 h 494.345 c 4.875,0 8.828,3.953 8.828,8.828 v 317.793 c -10e-4,4.876 -3.954,8.828 -8.829,8.828 z"
   style="fill:#73af00" />
<path
   id="path400"
   d="M 251.41,46.933 65.354,160.184 c -5.651,3.439 -5.651,11.641 0,15.081 L 251.41,288.517 c 2.819,1.716 6.36,1.716 9.18,0 L 446.647,175.266 c 5.651,-3.439 5.651,-11.641 0,-15.081 L 260.59,46.933 c -2.819,-1.716 -6.361,-1.716 -9.18,0 z"
   style="fill:#ffe15a" />
<circle
   id="circle402"
   r="70.620003"
   cy="167.72501"
   cx="256"
   style="fill:#41479b" />
<g
   transform="translate(0,-88.276)"
   id="g428">
  <path
   id="path404"
   d="m 195.401,219.874 c -3.332,5.578 -5.905,11.64 -7.605,18.077 39.149,-2.946 97.062,8.006 133.922,43.773 2.406,-6.141 3.994,-12.683 4.59,-19.522 -38.061,-32.033 -90.68,-43.424 -130.907,-42.328 z"
   style="fill:#f5f5f5" />
  <path
   id="path406"
   d="m 258.925,280.1 1.88,5.638 5.943,0.046 c 0.769,0.006 1.088,0.988 0.47,1.445 l -4.781,3.531 1.793,5.666 c 0.232,0.734 -0.604,1.341 -1.229,0.893 l -4.835,-3.456 -4.835,3.456 c -0.626,0.448 -1.461,-0.159 -1.229,-0.893 l 1.793,-5.666 -4.781,-3.531 c -0.619,-0.457 -0.3,-1.439 0.469,-1.445 l 5.943,-0.046 1.88,-5.638 c 0.243,-0.73 1.275,-0.73 1.519,0 z"
   style="fill:#f5f5f5" />
  <path
   id="path408"
   d="m 282.024,294.685 0.809,2.426 2.558,0.02 c 0.331,0.002 0.469,0.425 0.202,0.622 l -2.058,1.519 0.771,2.439 c 0.1,0.316 -0.259,0.577 -0.529,0.384 l -2.081,-1.487 -2.081,1.487 c -0.269,0.193 -0.629,-0.068 -0.529,-0.384 l 0.771,-2.439 -2.058,-1.519 c -0.266,-0.196 -0.129,-0.619 0.202,-0.622 l 2.558,-0.02 0.809,-2.426 c 0.106,-0.315 0.551,-0.315 0.656,0 z"
   style="fill:#f5f5f5" />
  <path
   id="path410"
   d="m 248.938,269.39 0.809,2.426 2.558,0.02 c 0.331,0.002 0.469,0.425 0.202,0.622 l -2.058,1.519 0.771,2.439 c 0.1,0.316 -0.259,0.577 -0.529,0.384 l -2.081,-1.487 -2.081,1.487 c -0.269,0.193 -0.629,-0.068 -0.529,-0.384 l 0.771,-2.439 -2.058,-1.519 c -0.266,-0.196 -0.129,-0.619 0.202,-0.622 l 2.558,-0.02 0.809,-2.426 c 0.106,-0.314 0.551,-0.314 0.656,0 z"
   style="fill:#f5f5f5" />
  <path
   id="path412"
   d="m 204.13,266.448 0.809,2.426 2.558,0.02 c 0.331,0.002 0.469,0.425 0.202,0.622 l -2.058,1.519 0.771,2.439 c 0.1,0.316 -0.259,0.577 -0.529,0.384 l -2.081,-1.487 -2.081,1.487 c -0.269,0.193 -0.629,-0.068 -0.529,-0.384 l 0.771,-2.439 -2.058,-1.519 c -0.266,-0.196 -0.129,-0.619 0.202,-0.622 l 2.558,-0.02 0.809,-2.426 c 0.107,-0.314 0.551,-0.314 0.656,0 z"
   style="fill:#f5f5f5" />
  <path
   id="path414"
   d="m 241.614,293.847 0.809,2.426 2.558,0.02 c 0.331,0.002 0.469,0.425 0.202,0.622 l -2.058,1.519 0.771,2.439 c 0.1,0.316 -0.259,0.577 -0.529,0.384 l -2.081,-1.487 -2.081,1.487 c -0.269,0.193 -0.629,-0.068 -0.529,-0.384 l 0.771,-2.439 -2.058,-1.519 c -0.266,-0.196 -0.129,-0.619 0.202,-0.622 l 2.558,-0.02 0.809,-2.426 c 0.107,-0.313 0.552,-0.313 0.656,0 z"
   style="fill:#f5f5f5" />
  <path
   id="path416"
   d="m 220.99,264.755 0.662,1.984 2.092,0.017 c 0.27,0.002 0.383,0.348 0.166,0.509 l -1.683,1.242 0.631,1.994 c 0.082,0.258 -0.212,0.472 -0.433,0.314 l -1.702,-1.216 -1.702,1.216 c -0.221,0.158 -0.514,-0.056 -0.433,-0.314 l 0.631,-1.994 -1.683,-1.242 c -0.217,-0.161 -0.106,-0.507 0.166,-0.509 l 2.092,-0.017 0.662,-1.984 c 0.085,-0.257 0.448,-0.257 0.534,0 z"
   style="fill:#f5f5f5" />
  <path
   id="path418"
   d="m 283.819,223.794 0.828,2.482 2.616,0.02 c 0.339,0.002 0.479,0.435 0.206,0.636 l -2.104,1.554 0.789,2.495 c 0.103,0.323 -0.266,0.59 -0.541,0.393 l -2.129,-1.522 -2.129,1.522 c -0.276,0.198 -0.643,-0.071 -0.541,-0.393 l 0.789,-2.495 -2.104,-1.554 c -0.273,-0.201 -0.132,-0.633 0.206,-0.636 l 2.616,-0.02 0.828,-2.482 c 0.108,-0.322 0.563,-0.322 0.67,0 z"
   style="fill:#f5f5f5" />
  <path
   id="path420"
   d="m 207.012,252.617 0.662,1.984 2.092,0.017 c 0.27,0.002 0.383,0.348 0.166,0.509 l -1.683,1.242 0.631,1.994 c 0.082,0.258 -0.212,0.472 -0.433,0.314 l -1.702,-1.216 -1.702,1.216 c -0.221,0.158 -0.514,-0.056 -0.433,-0.314 l 0.631,-1.994 -1.683,-1.242 c -0.217,-0.161 -0.106,-0.506 0.166,-0.509 l 2.092,-0.017 0.662,-1.984 c 0.085,-0.257 0.448,-0.257 0.534,0 z"
   style="fill:#f5f5f5" />
  <path
   id="path422"
   d="m 217.112,280.581 1.002,3.006 3.168,0.024 c 0.41,0.003 0.58,0.526 0.25,0.77 l -2.549,1.882 0.956,3.02 c 0.124,0.391 -0.321,0.715 -0.655,0.476 l -2.578,-1.842 -2.578,1.842 c -0.333,0.238 -0.779,-0.085 -0.655,-0.476 l 0.956,-3.02 -2.549,-1.882 c -0.33,-0.244 -0.16,-0.767 0.25,-0.77 l 3.168,-0.024 1.002,-3.006 c 0.133,-0.388 0.683,-0.388 0.812,0 z"
   style="fill:#f5f5f5" />
  <path
   id="path424"
   d="m 294.903,295.315 0.63,1.891 1.993,0.015 c 0.258,0.002 0.365,0.331 0.158,0.484 l -1.603,1.184 0.601,1.9 c 0.078,0.246 -0.202,0.449 -0.413,0.299 l -1.621,-1.159 -1.622,1.159 c -0.21,0.15 -0.49,-0.053 -0.413,-0.299 l 0.601,-1.9 -1.603,-1.184 c -0.207,-0.153 -0.1,-0.482 0.158,-0.484 l 1.993,-0.015 0.63,-1.891 c 0.083,-0.245 0.43,-0.245 0.511,0 z"
   style="fill:#f5f5f5" />
  <path
   id="path426"
   d="m 301.877,280.885 0.809,2.426 2.558,0.02 c 0.331,0.002 0.469,0.425 0.202,0.622 l -2.058,1.519 0.771,2.439 c 0.1,0.316 -0.259,0.577 -0.529,0.384 l -2.081,-1.487 -2.081,1.487 c -0.269,0.193 -0.629,-0.068 -0.529,-0.384 l 0.771,-2.439 -2.058,-1.519 c -0.266,-0.196 -0.129,-0.619 0.202,-0.622 l 2.558,-0.02 0.809,-2.426 c 0.106,-0.315 0.551,-0.315 0.656,0 z"
   style="fill:#f5f5f5" />
</g>
<g
   transform="translate(0,-88.276)"
   id="g430">
</g>
<g
   transform="translate(0,-88.276)"
   id="g432">
</g>
<g
   transform="translate(0,-88.276)"
   id="g434">
</g>
<g
   transform="translate(0,-88.276)"
   id="g436">
</g>
<g
   transform="translate(0,-88.276)"
   id="g438">
</g>
<g
   transform="translate(0,-88.276)"
   id="g440">
</g>
<g
   transform="translate(0,-88.276)"
   id="g442">
</g>
<g
   transform="translate(0,-88.276)"
   id="g444">
</g>
<g
   transform="translate(0,-88.276)"
   id="g446">
</g>
<g
   transform="translate(0,-88.276)"
   id="g448">
</g>
<g
   transform="translate(0,-88.276)"
   id="g450">
</g>
<g
   transform="translate(0,-88.276)"
   id="g452">
</g>
<g
   transform="translate(0,-88.276)"
   id="g454">
</g>
<g
   transform="translate(0,-88.276)"
   id="g456">
</g>
<g
   transform="translate(0,-88.276)"
   id="g458">
</g>
</svg>
