<?xml version="1.0" encoding="UTF-8" standalone="no"?>
<svg
   xmlns:dc="http://purl.org/dc/elements/1.1/"
   xmlns:cc="http://creativecommons.org/ns#"
   xmlns:rdf="http://www.w3.org/1999/02/22-rdf-syntax-ns#"
   xmlns:svg="http://www.w3.org/2000/svg"
   xmlns="http://www.w3.org/2000/svg"
   height="335.45502"
   width="512"
   xml:space="preserve"
   viewBox="0 0 512 335.45502"
   y="0px"
   x="0px"
   id="Layer_1"
   version="1.1"><metadata
   id="metadata86"><rdf:RDF><cc:Work
       rdf:about=""><dc:format>image/svg+xml</dc:format><dc:type
         rdf:resource="http://purl.org/dc/dcmitype/StillImage" /><dc:title></dc:title></cc:Work></rdf:RDF></metadata><defs
   id="defs84" />
<path
   id="path45"
   d="M 170.667,335.449 H 8.828 C 3.953,335.449 0,331.496 0,326.621 V 8.828 C 0,3.953 3.953,0 8.828,0 h 161.839 z"
   style="fill:#41479b" />
<rect
   id="rect47"
   height="335.45001"
   width="170.67"
   style="fill:#ffe15a"
   y="0.0050004274"
   x="170.67" />
<path
   id="path49"
   d="M 503.172,335.449 H 341.333 V 0.001 h 161.839 c 4.875,0 8.828,3.953 8.828,8.828 v 317.793 c 0,4.876 -3.953,8.827 -8.828,8.827 z"
   style="fill:#ff4b55" />
<g
   transform="translate(0,-88.272)"
   id="g51">
</g>
<g
   transform="translate(0,-88.272)"
   id="g53">
</g>
<g
   transform="translate(0,-88.272)"
   id="g55">
</g>
<g
   transform="translate(0,-88.272)"
   id="g57">
</g>
<g
   transform="translate(0,-88.272)"
   id="g59">
</g>
<g
   transform="translate(0,-88.272)"
   id="g61">
</g>
<g
   transform="translate(0,-88.272)"
   id="g63">
</g>
<g
   transform="translate(0,-88.272)"
   id="g65">
</g>
<g
   transform="translate(0,-88.272)"
   id="g67">
</g>
<g
   transform="translate(0,-88.272)"
   id="g69">
</g>
<g
   transform="translate(0,-88.272)"
   id="g71">
</g>
<g
   transform="translate(0,-88.272)"
   id="g73">
</g>
<g
   transform="translate(0,-88.272)"
   id="g75">
</g>
<g
   transform="translate(0,-88.272)"
   id="g77">
</g>
<g
   transform="translate(0,-88.272)"
   id="g79">
</g>
</svg>
