<?xml version="1.0" encoding="UTF-8" standalone="no"?>
<svg
   xmlns:dc="http://purl.org/dc/elements/1.1/"
   xmlns:cc="http://creativecommons.org/ns#"
   xmlns:rdf="http://www.w3.org/1999/02/22-rdf-syntax-ns#"
   xmlns:svg="http://www.w3.org/2000/svg"
   xmlns="http://www.w3.org/2000/svg"
   height="335.44901"
   width="512.00098"
   xml:space="preserve"
   viewBox="0 0 512.001 335.44902"
   y="0px"
   x="0px"
   id="Layer_1"
   version="1.1"><metadata
   id="metadata508"><rdf:RDF><cc:Work
       rdf:about=""><dc:format>image/svg+xml</dc:format><dc:type
         rdf:resource="http://purl.org/dc/dcmitype/StillImage" /><dc:title></dc:title></cc:Work></rdf:RDF></metadata><defs
   id="defs506" />
<path
   id="path467"
   d="M 512,111.817 H 0 V 8.828 C 0,3.953 3.953,0 8.828,0 h 494.345 c 4.875,0 8.828,3.953 8.828,8.828 z"
   style="fill:#f5f5f5" />
<path
   id="path469"
   d="M 503.172,335.449 H 8.828 C 3.953,335.449 0,331.496 0,326.621 V 223.633 h 512 v 102.988 c 0,4.876 -3.953,8.828 -8.828,8.828 z"
   style="fill:#ff4b55" />
<rect
   x="0"
   id="rect471"
   height="111.81"
   width="512"
   style="fill:#41479b"
   y="111.815" />
<g
   transform="translate(0,-88.276)"
   id="g473">
</g>
<g
   transform="translate(0,-88.276)"
   id="g475">
</g>
<g
   transform="translate(0,-88.276)"
   id="g477">
</g>
<g
   transform="translate(0,-88.276)"
   id="g479">
</g>
<g
   transform="translate(0,-88.276)"
   id="g481">
</g>
<g
   transform="translate(0,-88.276)"
   id="g483">
</g>
<g
   transform="translate(0,-88.276)"
   id="g485">
</g>
<g
   transform="translate(0,-88.276)"
   id="g487">
</g>
<g
   transform="translate(0,-88.276)"
   id="g489">
</g>
<g
   transform="translate(0,-88.276)"
   id="g491">
</g>
<g
   transform="translate(0,-88.276)"
   id="g493">
</g>
<g
   transform="translate(0,-88.276)"
   id="g495">
</g>
<g
   transform="translate(0,-88.276)"
   id="g497">
</g>
<g
   transform="translate(0,-88.276)"
   id="g499">
</g>
<g
   transform="translate(0,-88.276)"
   id="g501">
</g>
</svg>
