<?xml version="1.0" encoding="UTF-8" standalone="no"?>
<svg
   xmlns:dc="http://purl.org/dc/elements/1.1/"
   xmlns:cc="http://creativecommons.org/ns#"
   xmlns:rdf="http://www.w3.org/1999/02/22-rdf-syntax-ns#"
   xmlns:svg="http://www.w3.org/2000/svg"
   xmlns="http://www.w3.org/2000/svg"
   height="335.44901"
   width="512.00098"
   xml:space="preserve"
   viewBox="0 0 512.001 335.44902"
   y="0px"
   x="0px"
   id="Layer_1"
   version="1.1"><metadata
   id="metadata549"><rdf:RDF><cc:Work
       rdf:about=""><dc:format>image/svg+xml</dc:format><dc:type
         rdf:resource="http://purl.org/dc/dcmitype/StillImage" /><dc:title></dc:title></cc:Work></rdf:RDF></metadata><defs
   id="defs547" />
<path
   id="path510"
   d="M 503.172,335.449 H 8.828 C 3.953,335.449 0,331.496 0,326.621 V 8.828 C 0,3.953 3.953,0 8.828,0 h 494.345 c 4.875,0 8.828,3.953 8.828,8.828 v 317.793 c -10e-4,4.876 -3.954,8.828 -8.829,8.828 z"
   style="fill:#4173cd" />
<polygon
   transform="translate(0,-88.276)"
   id="polygon512"
   points="211.862,88.277 158.897,88.277 158.897,229.518 0,229.518 0,282.484 158.897,282.484 158.897,423.725 211.862,423.725 211.862,282.484 512,282.484 512,229.518 211.862,229.518 "
   style="fill:#ffe15a" />
<g
   transform="translate(0,-88.276)"
   id="g514">
</g>
<g
   transform="translate(0,-88.276)"
   id="g516">
</g>
<g
   transform="translate(0,-88.276)"
   id="g518">
</g>
<g
   transform="translate(0,-88.276)"
   id="g520">
</g>
<g
   transform="translate(0,-88.276)"
   id="g522">
</g>
<g
   transform="translate(0,-88.276)"
   id="g524">
</g>
<g
   transform="translate(0,-88.276)"
   id="g526">
</g>
<g
   transform="translate(0,-88.276)"
   id="g528">
</g>
<g
   transform="translate(0,-88.276)"
   id="g530">
</g>
<g
   transform="translate(0,-88.276)"
   id="g532">
</g>
<g
   transform="translate(0,-88.276)"
   id="g534">
</g>
<g
   transform="translate(0,-88.276)"
   id="g536">
</g>
<g
   transform="translate(0,-88.276)"
   id="g538">
</g>
<g
   transform="translate(0,-88.276)"
   id="g540">
</g>
<g
   transform="translate(0,-88.276)"
   id="g542">
</g>
</svg>
