<?xml version="1.0" encoding="UTF-8" standalone="no"?>
<svg
   xmlns:dc="http://purl.org/dc/elements/1.1/"
   xmlns:cc="http://creativecommons.org/ns#"
   xmlns:rdf="http://www.w3.org/1999/02/22-rdf-syntax-ns#"
   xmlns:svg="http://www.w3.org/2000/svg"
   xmlns="http://www.w3.org/2000/svg"
   height="335.44901"
   width="512.00098"
   xml:space="preserve"
   viewBox="0 0 512.001 335.44902"
   y="0px"
   x="0px"
   id="Layer_1"
   version="1.1"><metadata
   id="metadata600"><rdf:RDF><cc:Work
       rdf:about=""><dc:format>image/svg+xml</dc:format><dc:type
         rdf:resource="http://purl.org/dc/dcmitype/StillImage" /><dc:title></dc:title></cc:Work></rdf:RDF></metadata><defs
   id="defs598" />
<path
   id="path551"
   d="M 512,111.817 H 0 V 8.828 C 0,3.953 3.953,0 8.828,0 h 494.345 c 4.875,0 8.828,3.953 8.828,8.828 z"
   style="fill:#f5f5f5" />
<path
   id="path553"
   d="M 503.172,335.449 H 8.828 C 3.953,335.449 0,331.496 0,326.621 V 223.633 h 512 v 102.988 c 0,4.876 -3.953,8.828 -8.828,8.828 z"
   style="fill:#ff4b55" />
<rect
   x="0"
   id="rect555"
   height="111.81"
   width="512"
   style="fill:#41479b"
   y="111.815" />
<path
   id="path557"
   d="M 130.225,251.01 C 127.612,249.509 66.207,213.794 66.207,158.897 V 83.863 h 132.414 v 75.034 c 0,54.897 -61.405,90.612 -64.018,92.113 l -2.189,1.249 z"
   style="fill:#ff4b55" />
<polygon
   transform="translate(0,-88.276)"
   id="polygon559"
   points="139.35,236.673 139.35,224.255 143.511,224.255 160.157,226.996 157.903,217.319 160.157,207.642 143.511,210.382 139.35,210.382 139.35,206.188 142.09,185.38 132.414,188.199 122.738,185.38 125.478,206.188 125.478,210.382 121.315,210.382 104.67,207.642 106.924,217.319 104.67,226.996 121.315,224.255 125.478,224.255 125.478,236.673 118.542,236.673 97.734,233.932 100.552,243.608 97.734,253.285 118.542,250.544 125.478,250.544 125.478,282.484 139.35,282.484 139.35,250.544 146.285,250.544 167.094,253.285 164.276,243.608 167.094,233.932 146.285,236.673 "
   style="fill:#f5f5f5" />
<path
   id="path561"
   d="m 132.414,180.966 c -9.118,0 -16.938,5.532 -20.302,13.419 -0.594,-0.049 -1.162,-0.178 -1.767,-0.178 -11.751,0 -21.266,9.21 -21.94,20.791 17.875,22.004 40.264,35.116 41.82,36.011 l 2.189,1.25 2.189,-1.25 c 1.556,-0.895 23.945,-14.006 41.82,-36.011 -0.674,-11.581 -10.189,-20.791 -21.94,-20.791 -0.605,0 -1.173,0.129 -1.767,0.178 -3.364,-7.887 -11.184,-13.419 -20.302,-13.419 z"
   style="fill:#41479b" />
<path
   id="path563"
   d="m 194.207,88.277 c 0,0 0,52.966 0,70.621 0,52.966 -61.793,88.276 -61.793,88.276 0,0 -61.793,-35.31 -61.793,-88.276 0,-17.655 0,-70.621 0,-70.621 h 123.586 m 8.827,-8.828 H 194.206 70.621 61.793 v 8.828 70.621 c 0,57.428 63.537,94.394 66.241,95.94 l 4.38,2.503 4.38,-2.503 c 2.705,-1.546 66.241,-38.513 66.241,-95.94 V 88.277 79.449 Z"
   style="fill:#f5f5f5" />
<g
   transform="translate(0,-88.276)"
   id="g565">
</g>
<g
   transform="translate(0,-88.276)"
   id="g567">
</g>
<g
   transform="translate(0,-88.276)"
   id="g569">
</g>
<g
   transform="translate(0,-88.276)"
   id="g571">
</g>
<g
   transform="translate(0,-88.276)"
   id="g573">
</g>
<g
   transform="translate(0,-88.276)"
   id="g575">
</g>
<g
   transform="translate(0,-88.276)"
   id="g577">
</g>
<g
   transform="translate(0,-88.276)"
   id="g579">
</g>
<g
   transform="translate(0,-88.276)"
   id="g581">
</g>
<g
   transform="translate(0,-88.276)"
   id="g583">
</g>
<g
   transform="translate(0,-88.276)"
   id="g585">
</g>
<g
   transform="translate(0,-88.276)"
   id="g587">
</g>
<g
   transform="translate(0,-88.276)"
   id="g589">
</g>
<g
   transform="translate(0,-88.276)"
   id="g591">
</g>
<g
   transform="translate(0,-88.276)"
   id="g593">
</g>
</svg>
