<?xml version="1.0" encoding="UTF-8" standalone="no"?>
<svg
   xmlns:dc="http://purl.org/dc/elements/1.1/"
   xmlns:cc="http://creativecommons.org/ns#"
   xmlns:rdf="http://www.w3.org/1999/02/22-rdf-syntax-ns#"
   xmlns:svg="http://www.w3.org/2000/svg"
   xmlns="http://www.w3.org/2000/svg"
   height="335.44901"
   width="512.00098"
   xml:space="preserve"
   viewBox="0 0 512.001 335.44902"
   y="0px"
   x="0px"
   id="Layer_1"
   version="1.1"><metadata
   id="metadata299"><rdf:RDF><cc:Work
       rdf:about=""><dc:format>image/svg+xml</dc:format><dc:type
         rdf:resource="http://purl.org/dc/dcmitype/StillImage" /><dc:title></dc:title></cc:Work></rdf:RDF></metadata><defs
   id="defs297" />
<path
   id="path256"
   d="M 503.172,335.449 H 8.828 C 3.953,335.449 0,331.496 0,326.621 V 8.828 C 0,3.953 3.953,0 8.828,0 h 494.345 c 4.875,0 8.828,3.953 8.828,8.828 v 317.793 c -10e-4,4.876 -3.954,8.828 -8.829,8.828 z"
   style="fill:#ff4b55" />
<g
   transform="translate(0,-88.276)"
   id="g262">
  <path
   id="path258"
   d="m 253.474,225.753 13.837,18.101 21.606,-7.232 c 1.208,-0.404 2.236,0.962 1.512,2.01 l -12.939,18.753 13.555,18.314 c 0.758,1.024 -0.224,2.423 -1.444,2.059 l -21.834,-6.511 -13.228,18.55 c -0.739,1.037 -2.375,0.536 -2.406,-0.737 l -0.555,-22.777 -21.73,-6.849 c -1.215,-0.383 -1.244,-2.092 -0.042,-2.515 l 21.491,-7.566 -0.202,-22.783 c -0.012,-1.274 1.606,-1.829 2.379,-0.817 z"
   style="fill:#f5f5f5" />
  <path
   id="path260"
   d="m 176.956,326.662 c -38.995,0 -70.627,-31.633 -70.627,-70.663 0,-38.958 31.633,-70.662 70.627,-70.662 14.508,0 27.887,4.462 39.037,12.014 1.707,1.156 3.656,-1.087 2.227,-2.573 -16.664,-17.325 -40.248,-27.894 -66.398,-27.001 -44.926,1.533 -82.118,37.553 -84.989,82.413 -3.287,51.383 37.399,94.086 88.055,94.086 24.953,0 47.379,-10.432 63.393,-27.112 1.415,-1.473 -0.538,-3.683 -2.229,-2.537 -11.162,7.569 -24.563,12.035 -39.096,12.035 z"
   style="fill:#f5f5f5" />
</g>
<g
   transform="translate(0,-88.276)"
   id="g264">
</g>
<g
   transform="translate(0,-88.276)"
   id="g266">
</g>
<g
   transform="translate(0,-88.276)"
   id="g268">
</g>
<g
   transform="translate(0,-88.276)"
   id="g270">
</g>
<g
   transform="translate(0,-88.276)"
   id="g272">
</g>
<g
   transform="translate(0,-88.276)"
   id="g274">
</g>
<g
   transform="translate(0,-88.276)"
   id="g276">
</g>
<g
   transform="translate(0,-88.276)"
   id="g278">
</g>
<g
   transform="translate(0,-88.276)"
   id="g280">
</g>
<g
   transform="translate(0,-88.276)"
   id="g282">
</g>
<g
   transform="translate(0,-88.276)"
   id="g284">
</g>
<g
   transform="translate(0,-88.276)"
   id="g286">
</g>
<g
   transform="translate(0,-88.276)"
   id="g288">
</g>
<g
   transform="translate(0,-88.276)"
   id="g290">
</g>
<g
   transform="translate(0,-88.276)"
   id="g292">
</g>
</svg>
