<?xml version="1.0" encoding="UTF-8" standalone="no"?>
<svg
   xmlns:dc="http://purl.org/dc/elements/1.1/"
   xmlns:cc="http://creativecommons.org/ns#"
   xmlns:rdf="http://www.w3.org/1999/02/22-rdf-syntax-ns#"
   xmlns:svg="http://www.w3.org/2000/svg"
   xmlns="http://www.w3.org/2000/svg"
   height="335.45001"
   width="512.00098"
   xml:space="preserve"
   viewBox="0 0 512.001 335.45003"
   y="0px"
   x="0px"
   id="Layer_1"
   version="1.1"><metadata
   id="metadata170"><rdf:RDF><cc:Work
       rdf:about=""><dc:format>image/svg+xml</dc:format><dc:type
         rdf:resource="http://purl.org/dc/dcmitype/StillImage" /><dc:title></dc:title></cc:Work></rdf:RDF></metadata><defs
   id="defs168" />
<path
   id="path131"
   d="m 0,167.725 h 512 v 158.897 c 0,4.875 -3.953,8.828 -8.828,8.828 H 8.828 C 3.953,335.45 0,331.497 0,326.622 Z"
   style="fill:#ffe15a" />
<path
   id="path133"
   d="M 512,167.725 H 0 V 8.828 C 0,3.953 3.953,0 8.828,0 h 494.345 c 4.875,0 8.828,3.953 8.828,8.828 z"
   style="fill:#4173cd" />
<g
   transform="translate(0,-88.275)"
   id="g135">
</g>
<g
   transform="translate(0,-88.275)"
   id="g137">
</g>
<g
   transform="translate(0,-88.275)"
   id="g139">
</g>
<g
   transform="translate(0,-88.275)"
   id="g141">
</g>
<g
   transform="translate(0,-88.275)"
   id="g143">
</g>
<g
   transform="translate(0,-88.275)"
   id="g145">
</g>
<g
   transform="translate(0,-88.275)"
   id="g147">
</g>
<g
   transform="translate(0,-88.275)"
   id="g149">
</g>
<g
   transform="translate(0,-88.275)"
   id="g151">
</g>
<g
   transform="translate(0,-88.275)"
   id="g153">
</g>
<g
   transform="translate(0,-88.275)"
   id="g155">
</g>
<g
   transform="translate(0,-88.275)"
   id="g157">
</g>
<g
   transform="translate(0,-88.275)"
   id="g159">
</g>
<g
   transform="translate(0,-88.275)"
   id="g161">
</g>
<g
   transform="translate(0,-88.275)"
   id="g163">
</g>
</svg>
