<?xml version="1.0" encoding="utf-8"?>
<svg version="1.1" xmlns="http://www.w3.org/2000/svg" xmlns:xlink="http://www.w3.org/1999/xlink" x="0px" y="0px"
	 viewBox="0 0 290 315" style="enable-background:new 0 0 290 315;" xml:space="preserve">
<style type="text/css">
	.st0{fill:#404853;}
	.st1{fill:#778391;}
	.st2{fill:#606B78;}
	.st3{fill:#E4B22D;}
	.st4{fill:#D4A527;}
	.st5{fill:#AD733B;}
	.st6{fill:#23242C;}
  .st7{opacity:0.38;fill:none;stroke:#444D59;stroke-width:2;stroke-linecap:round;stroke-linejoin:round;stroke-dasharray:4,6;enable-background:new;}
	.st8{opacity:0.388;enable-background:new;}
	.st9{fill:#697584;}
	.st10{fill:#48525E;}
	.st11{fill:#56616F;}
	.st12{fill:#4B5460;}
	.st13{opacity:0.349;fill:#3A414C;enable-background:new;}
</style>
<g >
  <path class="st0" d="M64,296.5c0-4.1,3.4-7.5,7.5-7.5s7.5,3.4,7.5,7.5s-3.4,7.5-7.5,7.5l0,0
    C67.4,304,64,300.6,64,296.5z M251,246.5c0-7.5,6-13.5,13.5-13.5s13.5,6,13.5,13.5s-6,13.5-13.5,13.5l0,0
    C257,260,251,254,251,246.5z M35,63c0-1.1,0.9-2,2-2s2,0.9,2,2s-0.9,2-2,2S35,64.1,35,63z M263,37c0-5,4-9,9-9s9,4,9,9s-4,9-9,9
    S263,42,263,37z"/>
  <path class="st1" d="M242,124v-12c0-9-4.9-15-14-15H110c-8.6,0-17,3.9-17,14v13H242z"/>
  <path class="st2" d="M242,127v-12c0-9-4.9-15-14-15H110c-8.6,0-13,3.9-13,14v13H242z"/>
  <g>
    <circle class="st3" cx="153" cy="115" r="27"/>
    <circle class="st4" cx="152.8" cy="114.8" r="22.5"/>
    <path class="st5" d="M150.8,124.5v-3.1H148l-1.5,3.1h-3.1l8.2-18.6h2.1l8.2,18.6h-3.1l-1.5-3.1h-2.8v3.1
      H150.8z M149.5,118.3h6.2l-3.1-7.7L149.5,118.3z"/>
  </g>
  <g>
    <circle class="st3" cx="185" cy="106" r="27"/>
    <circle class="st4" cx="184.8" cy="105.8" r="22.5"/>
    <path class="st5" d="M182.8,115.5v-3.1H180l-1.5,3.1h-3.1l8.2-18.6h2.1l8.2,18.6h-3.1l-1.5-3.1h-2.8
      v3.1H182.8z M181.5,109.3h6.2l-3.1-7.7L181.5,109.3z"/>
  </g>
  <path class="st6" d="M93,217c0,7.5,3.9,16,17,16h120c8.2,0,16-5.6,16-17v-78c0-6.1-2.4-15-15-15H106
    c-3.6,0-8-3-8-7c0-1.1-5-2.4-5,2V217z"/>
  <path class="st1" d="M93,209c0,7.5,3.9,16,17,16h120c8.2,0,16-5.6,16-17v-78
    c0-6.1-2.4-15-15-15H106c-3.6,0-8-3-8-7c0-1.1-5-2.4-5,2V209z"/>
  <path class="st2" d="M93,209c0,7.5,3.9,16,17,16h120c8.2,0,16-5.6,16-17v-75
    c0-6.1-2.4-15-15-15H106c-7.2,0-12-5-12-9c-0.2-2.9,0-3.5-1-1.2V209z"/>
  <path class="st7" d="M96,207c3.2,7.6,5.9,9,14,9h113c6.5,0,14-4.4,14-11v-67c0-3-2.6-10-9-10H109
    c-5.1,0-13.2-1.6-15-8"/>
  <path class="st8" d="M248,163c0.2-2-1.3-3.8-3.4-4c-0.2,0-0.4,0-0.6,0h-15c-9.1,0.3-16.2,7.9-16,17
    c0,11.5,8.7,17,16,17h15c2.1,0.1,3.9-1.5,4-3.6c0-0.1,0-0.3,0-0.4V163z"/>
  <path class="st1" d="M250,160c0.2-2-1.3-3.8-3.4-4c-0.2,0-0.4,0-0.6,0h-16
    c-9.1,0.3-16.2,7.9-16,17c0,11.5,8.7,17,16,17h16c2.1,0.1,3.9-1.5,4-3.6c0-0.1,0-0.3,0-0.4V160z"/>
  <path class="st9" d="M250,162c0.2-2-1.3-3.8-3.4-4c-0.2,0-0.4,0-0.6,0h-15
    c-9.1,0.3-16.2,7.9-16,17c0,11.5,8.7,15,16,15h15c2.1,0.1,3.9-1.5,4-3.6c0-0.1,0-0.3,0-0.4V162z"/>
  <circle class="st10" cx="225.5" cy="173.5" r="4.5"/>
  <g>
    <circle class="st11" cx="167.7" cy="170.9" r="33.7"/>
    <circle class="st12" cx="167.6" cy="171" r="30.6"/>
    <path class="st11" d="M189.9,191.9h-44.5c-3.5-3.8-6.1-8.3-7.3-13.3l29.4-30.9l29.7,31.5
      C195.8,183.9,193.3,188.3,189.9,191.9L189.9,191.9z M167.4,167.7l-14.3,14.7h28.5L167.4,167.7z"/>
    <path class="st13" d="M190.4,191.4l-0.1,0.1c-11.3,12.5-30.7,13.5-43.2,2.1
      s-13.5-30.7-2.1-43.2c0.8-0.9,1.7-1.8,2.7-2.6l0.2-0.1L190.4,191.4z"/>
  </g>
  <path class="st12" d="M58,175c-4.2,0-8-0.7-8-9V97.9C26,96.5,7.7,76,9.1,52c1-16.5,11.2-31.1,26.5-37.5
    c22.2-9.3,47.7,1.2,56.9,23.4c9.2,22-1.1,47.4-23.1,56.8c-4.6,1.9-9.5,3.1-14.4,3.3V166c0,2.4,0.8,4,3,4h23c2.3,0,3.2,5,0,5H58z
     M37.5,19C17.9,27.3,8.6,49.9,16.9,69.6s30.9,28.9,50.6,20.6s28.9-30.9,20.6-50.6C82.1,25.3,68,16,52.5,16
    C47.4,16,42.3,17,37.5,19z"/>
  <circle class="st3" cx="52" cy="55" r="31"/>
  <circle class="st4" cx="52" cy="55" r="28"/>
  <path class="st5" d="M43.5,68H39L51,41h3.1l6.2,14c-1.5,0.1-3,0.4-4.5,0.8l-3.2-8.1L48,59h2.1
    c-1.4,1.2-2.4,2.8-2.9,4.5h-1.5L43.5,68L43.5,68z"/>
  <path class="st5" d="M61.5,58c-4.8,0-9.3,2.7-11.5,7c3.3,6.4,11.1,8.8,17.4,5.6c2.4-1.2,4.3-3.2,5.6-5.6
    C70.8,60.7,66.3,58,61.5,58z M67.2,61.7c1.3,0.8,2.5,2,3.4,3.3c-3.2,5-9.9,6.4-14.9,3.2c-1.3-0.8-2.3-1.9-3.2-3.2
    c0.9-1.3,2-2.5,3.4-3.3c0.1-0.1,0.2-0.1,0.3-0.2c-0.2,0.6-0.3,1.3-0.3,1.9c0.1,3.2,2.7,5.7,5.9,5.6c3.1-0.1,5.5-2.5,5.6-5.6
    c0-0.7-0.1-1.3-0.3-1.9C67,61.6,67.1,61.7,67.2,61.7z M61,62.5c0,0.8-0.7,1.5-1.5,1.5c-0.8,0-1.5-0.7-1.5-1.5
    c0-0.8,0.7-1.5,1.5-1.5c0,0,0,0,0,0C60.3,61,61,61.7,61,62.5z"/>
</g>
</svg>
