<svg 
 xmlns="http://www.w3.org/2000/svg"
 xmlns:xlink="http://www.w3.org/1999/xlink"
 width="60px" height="60px">
<path fill-rule="evenodd"  fill="rgb(43, 43, 56)"
 d="M10.000,-0.000 L50.000,-0.000 C55.523,-0.000 60.000,4.477 60.000,10.000 L60.000,50.000 C60.000,55.523 55.523,60.000 50.000,60.000 L10.000,60.000 C4.477,60.000 0.000,55.523 0.000,50.000 L0.000,10.000 C0.000,4.477 4.477,-0.000 10.000,-0.000 Z"/>
<path fill-rule="evenodd"  fill="rgb(255, 255, 255)"
 d="M28.539,29.004 C28.092,25.776 25.609,23.903 22.388,23.903 C18.592,23.903 15.732,26.670 15.732,31.367 C15.732,36.057 18.556,38.831 22.388,38.831 C25.843,38.831 28.135,36.596 28.539,33.822 L25.886,33.808 C25.552,35.511 24.162,36.469 22.423,36.469 C20.068,36.469 18.379,34.702 18.379,31.367 C18.379,28.089 20.053,26.266 22.430,26.266 C24.197,26.266 25.581,27.266 25.886,29.004 L28.539,29.004 Z"/>
<path fill-rule="evenodd"  fill="rgb(0, 232, 111)"
 d="M44.043,24.102 L41.425,24.102 L41.425,34.007 L41.297,34.007 L34.457,24.102 L32.101,24.102 L32.101,38.633 L34.734,38.633 L34.734,28.735 L34.854,28.735 L41.701,38.633 L44.043,38.633 L44.043,24.102 Z"/>
</svg>