<svg xmlns="http://www.w3.org/2000/svg" viewBox="0 0 60 60"><path fill-rule="evenodd" fill="#2B2B38" d="M10 0h40c5.523 0 10 4.477 10 10v40c0 5.523-4.477 10-10 10H10C4.477 60 0 55.523 0 50V10C0 4.477 4.477 0 10 0z"/><path fill-rule="evenodd" fill="#FFF" d="M28.539 29.004c-.447-3.228-2.93-5.101-6.151-5.101-3.796 0-6.656 2.767-6.656 7.464 0 4.69 2.824 7.464 6.656 7.464 3.455 0 5.747-2.235 6.151-5.009l-2.653-.014c-.334 1.703-1.724 2.661-3.463 2.661-2.355 0-4.044-1.767-4.044-5.102 0-3.278 1.674-5.101 4.051-5.101 1.767 0 3.151 1 3.456 2.738h2.653z"/><path fill-rule="evenodd" fill="#00E86F" d="M44.043 24.102h-2.618v9.905h-.128l-6.84-9.905h-2.356v14.531h2.633v-9.898h.12l6.847 9.898h2.342V24.102z"/></svg>
