<svg xmlns="http://www.w3.org/2000/svg" width="711" height="161"><path stroke="#DBDEE5" stroke-width="2" fill="none" d="M56 39h69c5.523 0 10 4.477 10 10v74c0 5.523-4.477 10-10 10H56M374 39h169c5.523 0 10 4.477 10 10v74c0 5.523-4.477 10-10 10H374c-5.523 0-10-4.477-10-10V49c0-5.523 4.477-10 10-10zM652 133h-69c-5.523 0-10-4.477-10-10V49c0-5.523 4.477-10 10-10h69"/><path fill-rule="evenodd" fill="#EEF3F5" d="M343 49h1c5.523 0 10 4.477 10 10v74c0 5.523-4.477 10-10 10H175c-5.523 0-10-4.477-10-10v-1h170c4.485 0 8-4.842 8-10V49z"/><path stroke="#212225" stroke-width="2" fill="none" d="M165 39h169c5.523 0 10 4.477 10 10v74c0 5.523-4.477 10-10 10H165c-5.523 0-10-4.477-10-10V49c0-5.523 4.477-10 10-10z"/><path fill-rule="evenodd" stroke="#212225" stroke-width="2" fill="#C9292C" d="M185 62h30c5.523 0 10 4.477 10 10v30c0 5.523-4.477 10-10 10h-30c-5.523 0-10-4.477-10-10V72c0-5.523 4.477-10 10-10zM240.5 80h60a1.5 1.5 0 010 3h-60a1.5 1.5 0 010-3zM240.5 90h30a1.5 1.5 0 010 3h-30a1.5 1.5 0 010-3z"/><path stroke="#DBDEE5" stroke-width="2" fill="none" d="M401 62h30c5.523 0 10 4.477 10 10v30c0 5.523-4.477 10-10 10h-30c-5.523 0-10-4.477-10-10V72c0-5.523 4.477-10 10-10zM456.5 80h60a1.5 1.5 0 010 3h-60a1.5 1.5 0 010-3zM456.5 90h30a1.5 1.5 0 010 3h-30a1.5 1.5 0 010-3zM60.5 80h40a1.5 1.5 0 010 3h-40a1.5 1.5 0 010-3zM60.5 90h10a1.5 1.5 0 010 3h-10a1.5 1.5 0 010-3zM634 112h-30c-5.523 0-10-4.477-10-10V72c0-5.523 4.477-10 10-10h30"/><path fill-rule="evenodd" fill="#DBDEE5" d="M706 139v4h-2v-4h-4v-2h4v-4h2v4h4v2h-4zm-29 21h-2v-21h-7v-2h7v-9h2v9h13v2h-13v21zm-1-122h-2V19h-38v3h-2v-3h-14v-2h14V0h2v17h38V0h2v17h6v2h-6v19zM556 23h-2v-4h-4v-2h4v-4h2v4h4v2h-4v4zm-450 0h-2v-4h-4v-2h4v-4h2v4h4v2h-4v4zm-30-1h-2v-3H36v19h-2V19h-6v-2h6V0h2v17h38V0h2v17h14v2H76v3zM33 128h2v9h7v2h-7v21h-2v-21H20v-2h13v-9zM6 143H4v-4H0v-2h4v-4h2v4h4v2H6v4z"/></svg>