<svg xmlns="http://www.w3.org/2000/svg" width="513" height="243"><path stroke="#DBDEE5" stroke-width="2" fill="none" d="M192.957 177.439C207.998 195.503 230.656 207 256 207c45.287 0 82-36.713 82-82v-1c0-34.242 26.758-62 61-62 34.242 0 62 27.758 62 62 0 34.242-27.758 62-62 62"/><path stroke="#DBDEE5" stroke-width="2" fill="none" d="M190 170a5 5 0 11-.001 10.001A5 5 0 01190 170z"/><path fill-rule="evenodd" fill="#DCDFE6" d="M396.847 185.994l3.326 3.316c.419.555 1.169.659 1.676.231.507-.428.579-1.225.161-1.78l-2.568-2.311 2.282-2.379c.507-.428.579-1.226.161-1.781-.419-.555-1.169-.658-1.676-.231l-3.203 3.154a1.242 1.242 0 00-.426.842c-.029.323.058.661.267.939z"/><path stroke="#DBDEE5" stroke-width="2" fill="none" d="M398 83c23.196 0 42 18.804 42 42s-18.804 42-42 42-42-18.804-42-42 18.804-42 42-42zm-78.957-10.439C304.002 54.497 281.344 43 256 43c-45.287 0-82 36.713-82 82v1c0 34.242-26.758 62-61 62-34.242 0-62-27.758-62-62 0-34.242 27.758-62 62-62"/><path stroke="#DBDEE5" stroke-width="2" fill="none" d="M322 70a5 5 0 11-.001 10.001A5 5 0 01322 70z"/><path fill-rule="evenodd" fill="#DCDFE6" d="M115.153 64.006l-3.326-3.316c-.419-.555-1.169-.659-1.676-.231-.507.427-.579 1.225-.161 1.78l2.568 2.311-2.282 2.379c-.507.428-.579 1.226-.161 1.781.419.555 1.169.658 1.676.231l3.203-3.154c.253-.214.397-.521.426-.842a1.357 1.357 0 00-.267-.939z"/><path stroke="#DBDEE5" stroke-width="2" fill="none" d="M114 83c23.196 0 42 18.804 42 42s-18.804 42-42 42-42-18.804-42-42 18.804-42 42-42z"/><path fill-rule="evenodd" fill="#DCDFE6" d="M404.993 129.596c0-7.18-9.662-5.673-9.662-9.307 0-1.212.957-2.098 2.582-2.098 1.451 0 2.467.532 3.888 1.654.233.178.436.148.61-.088l1.596-1.98c.203-.236.203-.414 0-.62-1.248-1.271-2.757-2.216-4.527-2.571v-2.157c0-.266-.174-.443-.435-.443h-2.118c-.261 0-.435.177-.435.443v2.098c-2.786.502-5.02 2.541-5.02 5.673 0 6.766 9.633 5.643 9.633 9.307 0 1.478-1.364 2.423-3.076 2.423-1.77 0-3.133-.768-4.526-2.009-.232-.207-.464-.177-.638.03l-1.741 1.92c-.174.207-.174.414-.029.621 1.102 1.359 3.075 2.688 5.397 3.102v1.95c0 .266.174.443.435.443h2.118c.261 0 .435-.177.435-.443v-1.979c2.96-.532 5.513-2.63 5.513-5.969z"/><path fill-rule="evenodd" fill="#DBDEE5" d="M122.998 128.52c0 3.586-2.272 5.487-7.063 5.487H115v2.493a1.5 1.5 0 01-3 0v-2.493h-2.581c-.007 0-.011-.007-.019-.007h-1.9a1.5 1.5 0 010-3h1.509v-13H107.5a1.5 1.5 0 010-3h1.899c.008 0 .012-.008.02-.008H112V112.5a1.5 1.5 0 013 0v2.492h.935c3.805 0 5.694 2.228 5.694 4.808 0 1.983-1.04 3.477-2.436 4.021 2.025.516 3.805 2.227 3.805 4.699zm-7.351-10.522h-3.638v3.992h3.638c1.434 0 2.357-.67 2.357-2.112 0-1.365-.948-1.88-2.357-1.88zm.901 7.999h-4.538v5.005h4.538c2.152 0 3.449-.791 3.449-2.529 0-1.66-1.297-2.476-3.449-2.476z"/><path fill-rule="evenodd" fill="#EEF3F5" d="M296.105 170.331c11.206-10.524 27.343-29.872 19.053-61.343 3.739 7.515 5.842 15.989 5.842 24.954 0 30.96-25.078 56.058-56.014 56.058-9.383 0-18.227-2.309-25.996-6.389 16.219 8.519 45.909-2.758 57.115-13.28z"/><path stroke="#212225" stroke-width="2" fill="none" d="M256 63c34.242 0 62 27.758 62 62 0 34.242-27.758 62-62 62-34.242 0-62-27.758-62-62 0-34.242 27.758-62 62-62z"/><path stroke="#212225" stroke-width="2" fill="none" d="M221.22 160.114a49.373 49.373 0 01-14.221-34.763c0-27.256 21.94-49.352 49.004-49.352 27.065 0 49.004 22.096 49.004 49.352a49.38 49.38 0 01-15.112 35.646"/><path fill-rule="evenodd" fill="#C9292C" d="M264.519 141.993l-2.484-7.983h-3.473V142h-5.124v-7.99h-3.479l-2.484 7.983h-6.472l11.553-35.009h6.898l11.537 35.009h-6.472zm-8.383-27.008h-.262l-4.118 13.247h8.498l-4.118-13.247z"/><path fill-rule="evenodd" fill="#E4E7EC" d="M497 182v38h10v2h-10v9h-2v-9h-38v9h-2v-9h-38v10h-2v-10h-8v-2h8v-8h2v8h38v-19h2v19h38v-38h-13v-2h13v-29h2v29h15v2h-15zm-28 4h-2v-4h-4v-2h4v-4h2v4h4v2h-4v4zM414 50v-4h-4v-2h4v-4h2v4h4v2h-4v4h-2zm43-10h-2V22h-38v8h-2v-8h-38v8h-2v-8h-3v-2h3V10h2v10h38V0h2v20h38V10h2v10h9v2h-9v18zM337 242h-2v-20h-21v-2h21v-8h2v8h7v2h-7v20zM214 26h-2v-4h-4v-2h4v-4h2v4h4v2h-4v4zm-37 4h-2v-8h-7v-2h7V0h2v20h21v2h-21v8zm-21 196h-2v-4h-4v-2h4v-4h2v4h4v2h-4v4zm-19 6h-2v-10H97v20h-2v-20H57v10h-2v-10h-9v-2h9v-18h2v18h38v-8h2v8h38v-8h2v8h3v2h-3v10zM55 61v-4h-4v-2h4v-4h2v4h4v2h-4v4h-2zm42-31h-2v-8H57v19h-2V22H17v38h13v2H17v29h-2V62H0v-2h15V22H5v-2h10v-9h2v9h38v-9h2v9h38V10h2v10h8v2h-8v8z"/></svg>