<svg xmlns="http://www.w3.org/2000/svg" width="291" height="372.801" viewBox="0 0 291 372.801">
  <g id="Connectivity_Issue" data-name="Connectivity Issue" transform="translate(-521 -131.199)">
    <path id="Прямоугольник_1_копия_12" data-name="Прямоугольник 1 копия 12" d="M845,491V464H807v27h-2V464h-6v-2h6V424H787v-2h18v-3h2v3h38V384H827v-2h18V359h2v23h20v2H847v38h10v2H847v38h22v2H847v27Zm0-29V424H807v38Zm-40-53v-4h-4v-2h4v-4h2v4h4v2h-4v4Zm40-60v-4h-4v-2h4v-4h2v4h4v2h-4v4Z" transform="translate(-57 13)" fill="#3c4249"/>
    <path id="Прямоугольник_1_копия_12-2" data-name="Прямоугольник 1 копия 12" d="M58,0V27H20V0H18V27H12v2h6V67H0v2H18v3h2V69H58v38H40v2H58v23h2V109H80v-2H60V69H70V67H60V29H82V27H60V0Zm0,29V67H20V29ZM18,82v4H14v2h4v4h2V88h4V86H20V82Zm40,60v4H54v2h4v4h2v-4h4v-2H60v-4Z" transform="translate(603 504) rotate(180)" fill="#3c4249"/>
    <g id="Группа_1" data-name="Группа 1" transform="translate(-14 21)">
      <line id="Фигура_758" data-name="Фигура 758" y1="60" transform="translate(682 360)" fill="none" stroke="#3c4249" stroke-width="2"/>
      <line id="Фигура_758_копия" data-name="Фигура 758 копия" y1="60" transform="translate(682 257)" fill="none" stroke="#3c4249" stroke-width="2"/>
      <g id="Группа_2" data-name="Группа 2">
        <line id="Фигура_3_копия_7" data-name="Фигура 3 копия 7" x2="45.18" transform="translate(741.27 471.34)" fill="none" stroke="#3c4249" stroke-width="2"/>
        <line id="Фигура_3_копия_8" data-name="Фигура 3 копия 8" x2="45.18" transform="translate(574.8 471.34)" fill="none" stroke="#3c4249" stroke-width="2"/>
        <line id="Фигура_3_копия_9" data-name="Фигура 3 копия 9" x2="21.05" transform="translate(741.27 455.26)" fill="none" stroke="#3c4249" stroke-width="2"/>
        <line id="Фигура_3_копия_9-2" data-name="Фигура 3 копия 9" x2="21.05" transform="translate(598.93 455.26)" fill="none" stroke="#3c4249" stroke-width="2"/>
        <path id="Фигура_2_копия" data-name="Фигура 2 копия" d="M734.886,451.88a6.563,6.563,0,0,0,3.424-1.37,27.955,27.955,0,0,0,2.739-2.739v22.6a6.457,6.457,0,0,1-2.054,3.424,16.658,16.658,0,0,1-4.108,2.055ZM621.9,473.792a6.461,6.461,0,0,1-2.055-3.424v-22.6a28.07,28.07,0,0,0,2.739,2.739,6.565,6.565,0,0,0,3.424,1.37v23.967a16.644,16.644,0,0,1-4.108-2.052Z" fill="#3c4249"/>
        <path id="Фигура_1_копия" data-name="Фигура 1 копия" d="M716.928,420.872h4.422c3.361,0,7.185,1.263,8.352,3.439s8.661,15.608,9.826,17.687A12.612,12.612,0,0,1,741,448.385V469.51c0,2.542-2.5,5.9-7.861,5.9H627.513c-5.357,0-7.861-3.353-7.861-5.9V448.385A12.612,12.612,0,0,1,621.126,442c1.165-2.078,8.659-15.511,9.826-17.687s4.992-3.439,8.352-3.439h4.422" fill="none" stroke="#7e8a9c" stroke-width="2"/>
        <line id="Фигура_4" data-name="Фигура 4" x1="28.07" transform="translate(666.41 421.07)" fill="none" stroke="#7e8a9c" stroke-width="2"/>
        <rect id="Прямоугольник_2" data-name="Прямоугольник 2" width="22.6" height="5.48" rx="2" transform="translate(643.81 417.64)" fill="none" stroke="#7e8a9c" stroke-width="2"/>
        <path id="Прямоугольник_3" data-name="Прямоугольник 3" d="M652.029,417.642,639.7,369.024a1.369,1.369,0,0,1,1.37-1.37h1.37a1.37,1.37,0,0,1,1.37,1.37l15.065,48.618" fill="none" stroke="#7e8a9c" stroke-width="2"/>
        <path id="Прямоугольник_3_копия" data-name="Прямоугольник 3 копия" d="M710.213,417.642l12.326-48.618a1.369,1.369,0,0,0-1.37-1.37H719.8a1.37,1.37,0,0,0-1.37,1.37l-15.065,48.618" fill="none" stroke="#7e8a9c" stroke-width="2"/>
        <rect id="Прямоугольник_2_копия" data-name="Прямоугольник 2 копия" width="22.6" height="5.48" rx="2" transform="translate(694.48 417.64)" fill="none" stroke="#7e8a9c" stroke-width="2"/>
        <path id="Фигура_1_копия_2" data-name="Фигура 1 копия 2" d="M741,445.437c0,2.542-2.5,5.9-7.861,5.9H627.513c-5.357,0-7.861-3.354-7.861-5.9" fill="none" stroke="#7e8a9c" stroke-width="2"/>
        <path id="Эллипс_2_копия_5" data-name="Эллипс 2 копия 5" d="M713.59,463.55a4.93,4.93,0,1,1,4.93,4.929,4.93,4.93,0,0,1-4.93-4.929Zm-76.69,0a4.93,4.93,0,1,1,4.929,4.929,4.93,4.93,0,0,1-4.929-4.929Zm61.01.66a2.74,2.74,0,1,1,2.74,2.74,2.74,2.74,0,0,1-2.74-2.74Zm-13.7,0a2.74,2.74,0,1,1,2.74,2.74A2.74,2.74,0,0,1,684.21,464.21Zm-13.69,0a2.74,2.74,0,1,1,2.74,2.74A2.74,2.74,0,0,1,670.52,464.21Zm-13.7,0a2.74,2.74,0,1,1,2.74,2.74A2.74,2.74,0,0,1,656.82,464.21Z" fill="none" stroke="#3c4249" stroke-width="2"/>
        <g id="Группа_3" data-name="Группа 3">
          <line id="Фигура_3" data-name="Фигура 3" x2="17.12" transform="translate(635.59 444.35)" fill="none" stroke="#3c4249" stroke-width="2"/>
          <line id="Фигура_3_копия" data-name="Фигура 3 копия" x2="17.12" transform="translate(660.93 444.35)" fill="none" stroke="#3c4249" stroke-width="2"/>
          <line id="Фигура_3_копия_2" data-name="Фигура 3 копия 2" x2="17.12" transform="translate(686.27 444.35)" fill="none" stroke="#3c4249" stroke-width="2"/>
          <line id="Фигура_3_копия_3" data-name="Фигура 3 копия 3" x2="17.12" transform="translate(711.6 444.35)" fill="none" stroke="#3c4249" stroke-width="2"/>
          <line id="Фигура_3_копия_4" data-name="Фигура 3 копия 4" x2="15.75" transform="translate(638.33 438.87)" fill="none" stroke="#3c4249" stroke-width="2"/>
          <line id="Фигура_3_копия_4-2" data-name="Фигура 3 копия 4" x2="15.75" transform="translate(662.3 438.87)" fill="none" stroke="#3c4249" stroke-width="2"/>
          <line id="Фигура_3_копия_4-3" data-name="Фигура 3 копия 4" x2="15.75" transform="translate(686.27 438.87)" fill="none" stroke="#3c4249" stroke-width="2"/>
          <line id="Фигура_3_копия_4-4" data-name="Фигура 3 копия 4" x2="15.75" transform="translate(710.23 438.87)" fill="none" stroke="#3c4249" stroke-width="2"/>
          <line id="Фигура_3_копия_5" data-name="Фигура 3 копия 5" x2="14.38" transform="translate(641.07 433.39)" fill="none" stroke="#3c4249" stroke-width="2"/>
          <line id="Фигура_3_копия_5-2" data-name="Фигура 3 копия 5" x2="14.38" transform="translate(663.67 433.39)" fill="none" stroke="#3c4249" stroke-width="2"/>
          <line id="Фигура_3_копия_5-3" data-name="Фигура 3 копия 5" x2="14.38" transform="translate(686.27 433.39)" fill="none" stroke="#3c4249" stroke-width="2"/>
          <line id="Фигура_3_копия_5-4" data-name="Фигура 3 копия 5" x2="14.38" transform="translate(708.86 433.39)" fill="none" stroke="#3c4249" stroke-width="2"/>
          <line id="Фигура_3_копия_6" data-name="Фигура 3 копия 6" x2="13.01" transform="translate(643.81 427.91)" fill="none" stroke="#3c4249" stroke-width="2"/>
          <line id="Фигура_3_копия_6-2" data-name="Фигура 3 копия 6" x2="13.01" transform="translate(665.04 427.91)" fill="none" stroke="#3c4249" stroke-width="2"/>
          <line id="Фигура_3_копия_6-3" data-name="Фигура 3 копия 6" x2="13.01" transform="translate(686.27 427.91)" fill="none" stroke="#3c4249" stroke-width="2"/>
          <line id="Фигура_3_копия_6-4" data-name="Фигура 3 копия 6" x2="13.01" transform="translate(707.5 427.91)" fill="none" stroke="#3c4249" stroke-width="2"/>
        </g>
      </g>
      <g id="Группа_134_копия_4" data-name="Группа 134 копия 4">
        <g id="Эллипс_699" data-name="Эллипс 699" transform="translate(608.85 120.2)" fill="none" stroke="#26372b" stroke-linecap="round" stroke-width="10">
          <circle cx="73.82" cy="73.82" r="73.82" stroke="none"/>
          <circle cx="73.82" cy="73.82" r="78.82" fill="none"/>
        </g>
        <circle id="Эллипс_699_копия" data-name="Эллипс 699 копия" cx="73.82" cy="73.82" r="73.82" transform="translate(608.85 120.2)" fill="none" stroke="#007dff" stroke-linecap="round" stroke-width="2"/>
        <path id="Эллипс_699_копия_7" data-name="Эллипс 699 копия 7" d="M682.036,121.482c29.972.413,54.268,33.619,54.268,74.167s-24.3,73.086-54.268,72.673-54.268-33.618-54.268-74.167S652.064,121.069,682.036,121.482Z" fill="none" stroke="#007dff" stroke-linecap="round" stroke-width="2"/>
        <path id="Эллипс_699_копия_8" data-name="Эллипс 699 копия 8" d="M704.162,229.013c-4.278,22.962-12.654,38.561-22.287,38.561-9.561,0-17.883-15.366-22.19-38.045m-3.124-35.348c0-40.534,11.333-73.394,25.314-73.394s25.314,32.86,25.314,73.394" fill="none" stroke="#007dff" stroke-linecap="round" stroke-width="2"/>
        <path id="Фигура_757" data-name="Фигура 757" d="M681.866,120.765v32.679m0,75.883v38.226" fill="none" stroke="#007dff" stroke-linecap="round" stroke-width="2"/>
        <path id="Эллипс_699_копия_10" data-name="Эллипс 699 копия 10" d="M755.419,194.139c-.411,30.044-33.45,54.4-73.8,54.4s-72.72-24.355-72.309-54.4,33.45-54.4,73.8-54.4S755.83,164.1,755.419,194.139Z" fill="none" stroke="#007dff" stroke-linecap="round" stroke-width="2"/>
        <path id="Эллипс_699_копия_10-2" data-name="Эллипс 699 копия 10" d="M644.378,215.5c-20.613-4.485-34.321-12.447-34.321-21.522,0-12.442,25.771-22.793,59.777-24.958m24-.144c35.235,1.806,62.278,12.357,62.278,25.1,0,9.253-14.253,17.349-35.546,21.782" fill="none" stroke="#007dff" stroke-linecap="round" stroke-width="2"/>
        <path id="Фигура_757_копия" data-name="Фигура 757 копия" d="M756.133,193.969H707.506m-50.838,0H610.079" fill="none" stroke="#007dff" stroke-linecap="round" stroke-width="2"/>
      </g>
      <path id="Треугольник_1" data-name="Треугольник 1" d="M677.454,156.119a3.865,3.865,0,0,1,6.74,0l37.958,66.632a3.944,3.944,0,0,1-3.37,5.915H642.865a3.944,3.944,0,0,1-3.37-5.915Z" transform="translate(1.235 -0.21)" fill="none" stroke="#007dff" stroke-width="2"/>
      <path id="Треугольник_1-2" data-name="Треугольник 1" d="M667.989,155.634a2.915,2.915,0,0,1,5.082,0l28.623,50.245a2.974,2.974,0,0,1-2.541,4.461H641.907a2.974,2.974,0,0,1-2.541-4.461Z" transform="translate(11.732 11.79)" fill="none" stroke="#fc9f0f" stroke-linecap="round" stroke-width="2" stroke-dasharray="4 4"/>
      <g id="Прямоугольник_336" data-name="Прямоугольник 336" transform="translate(677.328 180.104)" fill="#5b1b1b" stroke="#fc9f0f" stroke-width="2">
        <rect width="9.461" height="23.653" rx="4.731" stroke="none"/>
        <rect x="1" y="1" width="7.461" height="21.653" rx="3.731" fill="none"/>
      </g>
      <g id="Прямоугольник_337" data-name="Прямоугольник 337" transform="translate(677.328 206.123)" fill="#5b1b1b" stroke="#fc9f0f" stroke-width="2">
        <rect width="9.461" height="9.461" rx="4.731" stroke="none"/>
        <rect x="1" y="1" width="7.461" height="7.461" rx="3.731" fill="none"/>
      </g>
      <path id="Прямоугольник_скругл._углы2086_копия" data-name="Прямоугольник, скругл. углы2086 копия" d="M739.823,1130.253,736,1126.43l-3.823,3.823a2.447,2.447,0,1,1-3.461-3.461l3.823-3.823-3.792-3.792a2.447,2.447,0,1,1,3.461-3.46l3.792,3.792,3.792-3.792a2.447,2.447,0,1,1,3.461,3.46l-3.792,3.792,3.823,3.823a2.448,2.448,0,1,1-3.461,3.461Z" transform="translate(-54 -785.484)" fill="#5b1b1b" stroke="#fc9f0f" stroke-width="2"/>
      <g id="Эллипс_2047_копия_3" data-name="Эллипс 2047 копия 3" transform="translate(659.5 315)" fill="none" stroke="#3c4249" stroke-width="2">
        <circle cx="22.5" cy="22.5" r="22.5" stroke="none"/>
        <circle cx="22.5" cy="22.5" r="21.5" fill="none"/>
      </g>
    </g>
  </g>
</svg>
