<?xml version="1.0" encoding="utf-8"?>
<!-- Generator: Adobe Illustrator 22.0.1, SVG Export Plug-In . SVG Version: 6.00 Build 0)  -->
<svg version="1.1" id="Layer_1" xmlns="http://www.w3.org/2000/svg" xmlns:xlink="http://www.w3.org/1999/xlink" x="0px" y="0px"
	 viewBox="0 0 242 145" style="enable-background:new 0 0 242 145;" xml:space="preserve">
<style type="text/css">
	.st0{fill:none;stroke:#7E8A9C;stroke-width:2;}
	.st1{fill:none;stroke:#3C4249;stroke-width:2;}
	.st2{fill:#7E8A9C;}
	.st3{fill:#C9292C;}
	.st4{fill:none;}
	.st5{fill:#3C4249;}
</style>
<g id="images" transform="translate(-565 -508)">
	<path id="Прямоугольник_скругл._углы_7_копия_5" class="st0" d="M649,615v15c0,0.6,0.4,1,1,1h5
		c0.6,0,1-0.4,1-1v-15c0-0.6,2-0.6,2,0v10c0,0.6,0.4,1,1,1h5c0.6,0,1-0.4,1-1v-10c0-0.6,2-0.6,2,0v5c0,0.6,0.4,1,1,1h5
		c0.6,0,1-0.4,1-1v-5c0-0.6,2-0.6,2,0v10c0,0.6,0.4,1,1,1h5c0.6,0,1-0.4,1-1v-10c0-0.6,2-0.6,2,0v15c0,0.6,0.4,1,1,1h5
		c0.6,0,1-0.4,1-1v-15c0-0.6,2-0.6,2,0v10c0,0.6,0.4,1,1,1h5c0.6,0,1-0.4,1-1v-10c0-0.6,2-0.6,2,0v5c0,0.6,0.4,1,1,1h5
		c0.6,0,1-0.4,1-1v-5c0-0.6,2-0.6,2,0v10c0,0.6,0.4,1,1,1h5c0.6,0,1-0.4,1-1v-10"/>
	<path id="Прямоугольник_скругл._углы_3" class="st1" d="M718.2,556H741c5.5,0,10,4.5,10,10v39
		c0,2.8-2.2,5-5,5H621c-2.8,0-5-2.2-5-5v-39c0-5.5,4.5-10,10-10h23"/>
	<line id="Фигура_1" class="st1" x1="618" y1="574" x2="749" y2="574"/>
	<path id="Фигура_2_копия" class="st2" d="M718,569v-6h7.7c1.6,0,4.6,6,1,6H718z M641.1,569.2c-3.7,0-2.9-5.2-1.1-5.2
		l9.1,0v5.1L641.1,569.2z"/>
	<path id="Прямоугольник_скругл._углы_5" class="st0" d="M718.1,563h7.4c1.9,0,3.5,1.6,3.5,3.5
		s-1.6,3.5-3.5,3.5h-84c-1.9,0-3.5-1.6-3.5-3.5s1.6-3.5,3.5-3.5h7.4"/>
	<g id="Эллипс_1" transform="translate(729 586)">
		<circle class="st3" cx="6" cy="6" r="6"/>
		<circle class="st0" cx="6" cy="6" r="5"/>
	</g>
	<g id="Эллипс_1_копия" transform="translate(709 586)">
		<circle class="st4" cx="6" cy="6" r="6"/>
		<circle class="st1" cx="6" cy="6" r="5"/>
	</g>
	<g id="Эллипс_1_копия_2" transform="translate(689 586)">
		<circle class="st4" cx="6" cy="6" r="6"/>
		<circle class="st1" cx="6" cy="6" r="5"/>
	</g>
	<g id="Прямоугольник_скругл._углы_6" transform="translate(628 586)">
		<path class="st4" d="M4,0h45c2.2,0,4,1.8,4,4v4c0,2.2-1.8,4-4,4H4c-2.2,0-4-1.8-4-4V4C0,1.8,1.8,0,4,0z"/>
		<path class="st1" d="M4,1h45c1.7,0,3,1.3,3,3v4c0,1.7-1.3,3-3,3H4c-1.7,0-3-1.3-3-3V4C1,2.3,2.3,1,4,1z"/>
	</g>
	<path id="Прямоугольник_скругл._углы_4" class="st0" d="M648,568v-43c0-2.2,1.8-4,4-4h63c2.2,0,4,1.8,4,4
		v43"/>
	<path id="File" class="st2" d="M690,548.6c0-3.2,2-5.4,5-5.4c2.9,0,4.9,1.9,4.9,5.3v0.8h-6.8v0.1c-0.1,1.1,0.7,2,1.7,2.1
		c0.1,0,0.2,0,0.3,0c0.8,0.1,1.5-0.4,1.8-1.1l3,0.1c-0.4,2-2.1,3.4-4.8,3.4C692,554,690,552,690,548.6z M693.2,547.5h3.8
		c0-1-0.8-1.8-1.7-1.8c0,0-0.1,0-0.1,0C694.1,545.6,693.3,546.4,693.2,547.5L693.2,547.5z M679.9,553.8v-10.4h3.2v10.4L679.9,553.8z
		 M669,553.8v-13.9h9.2v2.7h-6v2.9h5.4v2.7h-5.4v5.6L669,553.8z M685.2,553.8v-13.9h3.2v13.9L685.2,553.8z M679.8,540.6
		c0-0.9,0.7-1.7,1.6-1.7c0.9,0,1.7,0.7,1.7,1.6c0,0.9-0.7,1.7-1.6,1.7c0,0,0,0-0.1,0C680.6,542.2,679.8,541.5,679.8,540.6
		C679.8,540.6,679.8,540.6,679.8,540.6L679.8,540.6z"/>
	<path id="Прямоугольник_1_копия_5" class="st5" d="M745,653v-12h-7v-2h7v-11h2v11h16v2h-16v12H745z M625,653v-12
		h-16v-2h16v-11h2v11h7v2h-7v12H625z M785,621v-20h-10v-2h10v-3h2v3h5v2h-5v20H785z M585,621v-20h-5v-2h5v-3h2v3h10v2h-10v20H585z
		 M785,573v-12h-10v-2h10v-38h-38v12h-2v-12h-3v-2h3v-11h2v11h38v-11h2v11h10v2h-10v38h20v2h-20v12H785z M585,573v-12h-20v-2h20v-38
		h-10v-2h10v-11h2v11h38v-11h2v11h3v2h-3v12h-2v-12h-38v38h10v2h-10v12H585z"/>
</g>
</svg>
