<svg version="1.1" id="Layer_1" xmlns="http://www.w3.org/2000/svg" x="0" y="0" viewBox="0 0 242 145" xml:space="preserve"><g id="images" transform="translate(-565 -508)"><path id="Прямоугольник_скругл._углы_7_копия_5" fill="none" stroke="#7E8A9C" stroke-width="2" d="M649 615v15c0 .6.4 1 1 1h5c.6 0 1-.4 1-1v-15c0-.6 2-.6 2 0v10c0 .6.4 1 1 1h5c.6 0 1-.4 1-1v-10c0-.6 2-.6 2 0v5c0 .6.4 1 1 1h5c.6 0 1-.4 1-1v-5c0-.6 2-.6 2 0v10c0 .6.4 1 1 1h5c.6 0 1-.4 1-1v-10c0-.6 2-.6 2 0v15c0 .6.4 1 1 1h5c.6 0 1-.4 1-1v-15c0-.6 2-.6 2 0v10c0 .6.4 1 1 1h5c.6 0 1-.4 1-1v-10c0-.6 2-.6 2 0v5c0 .6.4 1 1 1h5c.6 0 1-.4 1-1v-5c0-.6 2-.6 2 0v10c0 .6.4 1 1 1h5c.6 0 1-.4 1-1v-10"/><path id="Прямоугольник_скругл._углы_3" fill="none" stroke="#3C4249" stroke-width="2" d="M718.2 556H741c5.5 0 10 4.5 10 10v39c0 2.8-2.2 5-5 5H621c-2.8 0-5-2.2-5-5v-39c0-5.5 4.5-10 10-10h23"/><path id="Фигура_1" fill="none" stroke="#3C4249" stroke-width="2" d="M618 574h131"/><path id="Фигура_2_копия" fill="#7E8A9C" d="M718 569v-6h7.7c1.6 0 4.6 6 1 6H718zm-76.9.2c-3.7 0-2.9-5.2-1.1-5.2h9.1v5.1l-8 .1z"/><path id="Прямоугольник_скругл._углы_5" fill="none" stroke="#7E8A9C" stroke-width="2" d="M718.1 563h7.4c1.9 0 3.5 1.6 3.5 3.5s-1.6 3.5-3.5 3.5h-84c-1.9 0-3.5-1.6-3.5-3.5s1.6-3.5 3.5-3.5h7.4"/><g id="Эллипс_1" transform="translate(729 586)"><circle fill="#C9292C" cx="6" cy="6" r="6"/><circle fill="none" stroke="#7E8A9C" stroke-width="2" cx="6" cy="6" r="5"/></g><g id="Эллипс_1_копия" transform="translate(709 586)" fill="none"><circle cx="6" cy="6" r="6"/><circle stroke="#3C4249" stroke-width="2" cx="6" cy="6" r="5"/></g><g id="Эллипс_1_копия_2" transform="translate(689 586)" fill="none"><circle cx="6" cy="6" r="6"/><circle stroke="#3C4249" stroke-width="2" cx="6" cy="6" r="5"/></g><g id="Прямоугольник_скругл._углы_6" fill="none"><path d="M632 586h45c2.2 0 4 1.8 4 4v4c0 2.2-1.8 4-4 4h-45c-2.2 0-4-1.8-4-4v-4c0-2.2 1.8-4 4-4z"/><path stroke="#3C4249" stroke-width="2" d="M632 587h45c1.7 0 3 1.3 3 3v4c0 1.7-1.3 3-3 3h-45c-1.7 0-3-1.3-3-3v-4c0-1.7 1.3-3 3-3z"/></g><path id="Прямоугольник_скругл._углы_4" fill="none" stroke="#7E8A9C" stroke-width="2" d="M648 568v-43c0-2.2 1.8-4 4-4h63c2.2 0 4 1.8 4 4v43"/><path id="File" fill="#7E8A9C" d="M690 548.6c0-3.2 2-5.4 5-5.4 2.9 0 4.9 1.9 4.9 5.3v.8h-6.8v.1c-.1 1.1.7 2 1.7 2.1h.3c.8.1 1.5-.4 1.8-1.1l3 .1c-.4 2-2.1 3.4-4.8 3.4-3.1.1-5.1-1.9-5.1-5.3zm3.2-1.1h3.8c0-1-.8-1.8-1.7-1.8h-.1c-1.1-.1-1.9.7-2 1.8zm-13.3 6.3v-10.4h3.2v10.4h-3.2zm-10.9 0v-13.9h9.2v2.7h-6v2.9h5.4v2.7h-5.4v5.6H669zm16.2 0v-13.9h3.2v13.9h-3.2zm-5.4-13.2c0-.9.7-1.7 1.6-1.7.9 0 1.7.7 1.7 1.6 0 .9-.7 1.7-1.6 1.7h-.1c-.8 0-1.6-.7-1.6-1.6z"/><path id="Прямоугольник_1_копия_5" fill="#3C4249" d="M745 653v-12h-7v-2h7v-11h2v11h16v2h-16v12h-2zm-120 0v-12h-16v-2h16v-11h2v11h7v2h-7v12h-2zm160-32v-20h-10v-2h10v-3h2v3h5v2h-5v20h-2zm-200 0v-20h-5v-2h5v-3h2v3h10v2h-10v20h-2zm200-48v-12h-10v-2h10v-38h-38v12h-2v-12h-3v-2h3v-11h2v11h38v-11h2v11h10v2h-10v38h20v2h-20v12h-2zm-200 0v-12h-20v-2h20v-38h-10v-2h10v-11h2v11h38v-11h2v11h3v2h-3v12h-2v-12h-38v38h10v2h-10v12h-2z"/></g></svg>