<svg xmlns="http://www.w3.org/2000/svg" width="279" height="111" viewBox="0 0 279 111">
  <g id="images" transform="translate(-578 -684)">
    <path id="Прямоугольник_538_копия_4" data-name="Прямоугольник 538 копия 4" d="M814,795V781H776v14h-2V781H763v-2h11V768h2v11h38V741H778v-2h36V701H776v10h-2V701H753v-2h21V684h2v15h38V684h2v15h41v2H816v38h21v2H816v38h11v2H816v14Zm-158,0V781H618v14h-2V781h-8v-2h8V742H598v-2h18V701H578v-2h38V684h2v15h38V684h2v15h30v2H658v10h-2V701H618v39h35v2H618v37h38V768h2v11h10v2H658v14Zm185-10v-4h-4v-2h4v-4h2v4h4v2h-4v4ZM656,762v-4h-4v-2h4v-4h2v4h4v2h-4v4Zm-74-16v-4h-4v-2h4v-4h2v4h4v2h-4v4Zm192-15v-4h-4v-2h4v-4h2v4h4v2h-4v4Z" fill="#3c4249"/>
    <g id="Сгруппировать_739" data-name="Сгруппировать 739" transform="translate(476.833 512.976)">
      <path id="Прямоугольник_1_копия" data-name="Прямоугольник 1 копия" d="M204.028,253.865s-4.051,1.675-6.677,2.967c-2.735,1.346-2.828,6.677,2.226,6.677h78.078c3.112,0,3.766-4.244.559-5.935s-4.33-2.244-5.935-2.967a12.746,12.746,0,0,0-6.677-1.484h-55.64c-2.035,0-2.967-.712-2.967-2.967V225.675A29.675,29.675,0,0,1,236.67,196h1.484q1.124,0,2.227.082m27.448,29.592v20.772c0,2.974-5.193,3.295-5.193,0V227.9m-25.082-26.106a23.768,23.768,0,0,0-23.881,23.88v20.772" transform="translate(0 -3.608)" fill="none" stroke="#7e8a9c" stroke-linecap="round" stroke-width="2"/>
      <path id="Фигура_1" data-name="Фигура 1" d="M244,192.392v-2.967c0-1.464.116-7.4,6.112-7.4s5.758,6.169,5.758,7.4" transform="translate(-12.523)" fill="none" stroke="#7e8a9c" stroke-linecap="round" stroke-width="2"/>
      <circle id="Эллипс_1" data-name="Эллипс 1" cx="16.952" cy="16.952" r="16.952" transform="translate(242.086 186.457)" fill="none" stroke="#3c4249" stroke-width="2"/>
      <path id="Контур_665" data-name="Контур 665" d="M6.525,4.664A4.762,4.762,0,0,1,3.513,3.7,5.989,5.989,0,0,1,1.612.89,13.322,13.322,0,0,1,.955-3.566a13.2,13.2,0,0,1,.661-4.44,6.052,6.052,0,0,1,1.909-2.816,4.729,4.729,0,0,1,3-.974,4.729,4.729,0,0,1,3,.974,6.052,6.052,0,0,1,1.909,2.816,13.2,13.2,0,0,1,.661,4.44A13.322,13.322,0,0,1,11.437.89,5.989,5.989,0,0,1,9.536,3.7,4.762,4.762,0,0,1,6.525,4.664Zm0-1.721a3.006,3.006,0,0,0,2.722-1.69,9.791,9.791,0,0,0,.97-4.819,12.37,12.37,0,0,0-.442-3.544,4.909,4.909,0,0,0-1.267-2.23,2.811,2.811,0,0,0-1.983-.767A3.007,3.007,0,0,0,3.81-8.4a9.823,9.823,0,0,0-.978,4.831A12.391,12.391,0,0,0,3.27-.03,4.823,4.823,0,0,0,4.534,2.184,2.837,2.837,0,0,0,6.525,2.943Z" transform="translate(252.513 206.973)" fill="#de5846"/>
      <path id="Эллипс_2" data-name="Эллипс 2" d="M260.772,290A10.386,10.386,0,0,1,240,290C245.807,290.109,260.772,290,260.772,290Z" transform="translate(-11.49 -29.357)" fill="#3c4249"/>
      <path id="Эллипс_2-2" data-name="Эллипс 2" d="M260.772,290A10.386,10.386,0,0,1,240,290" transform="translate(-11.49 -29.357)" fill="none" stroke="#212225" stroke-linecap="round" stroke-width="2"/>
    </g>
  </g>
</svg>
