<svg version="1.1" id="Слой_1" xmlns="http://www.w3.org/2000/svg" x="0" y="0" viewBox="0 0 302.2 161.7" xml:space="preserve"><style type="text/css">.st0{stroke:#df5e4c}.st0,.st1,.st2{fill:none;stroke-width:2}.st1{stroke:#7e8a9c;stroke-linecap:round}.st2{stroke:#3c4249}.st3{fill:#3c4249}.st4{fill:#5b1b1b}</style><g id="Сгруппировать_1" transform="translate(-511.782 -201.695)"><path id="Прямоугольник_скругл._углы_2_копия" class="st0" d="M634 257l52.5-51.4c3.9-3.9 10.2-3.9 14.1 0l60.1 60.1c3.9 3.9 3.9 10.2 0 14.1l-60.1 60.1c-3.9 3.9-10.2 3.9-14.1 0L651 305c-3.9-3.9 1.1-8.9 5-5l30.3 29.4c3.9 3.9 10.2 3.9 14.1 0l49.6-49.6c3.9-3.9 3.9-10.2 0-14.1l-49.6-49.6c-3.9-3.9-10.2-3.9-14.1 0l-50.6 49.6-1.7-8.7z"/><path id="Прямоугольник_скругл._углы_1" class="st1" d="M584.1 326H580c-3.3 0-6 2.7-6 6v5c0 3.3 2.7 6 6 6h78c3.3 0 6-2.7 6-6v-5c0-3.3-2.7-6-6-6h-64c-5 0-5.7-2.9-4.6-7.2s15.3-57 17.6-66.8c3.7-15.6 23-14.6 26 1s16 67 16 67"/><path id="Фигура_1" class="st2" d="M638 309h-38c-1.2 0-2.2-1-2.2-2.2 0-.3.1-.5.2-.8.6-1.9 1.8-6.1 2-7 .4-1.3 1.7-2.1 3-2h33c1.3 0 1.9 1.5 2 2 .3.8 1.7 5.4 2 7s-.2 3-2 3z"/><path id="Фигура_1_копия" class="st2" d="M631 281h-23c-1.2 0-2.2-1-2.2-2.2 0-.3.1-.5.2-.8.6-1.9 1.8-6.1 2-7 .4-1.3 1.7-2.1 3-2h18c1.3 0 1.9 1.5 2 2 .8 2.3 1.5 4.6 2 7 .2 1.6-.2 3-2 3z"/><path id="Прямоугольник_1_копия_13" class="st3" d="M786 363.4v-19h-38v19h-2v-19h-28v-2h28v-16h2v16h38v-39h-4v-2h4v-38h-4v-2h4v-23h2v23h6v2h-6v38h26v2h-26v39h26v2h-26v19h-2zm-19-56v-4h-4v-2h4v-4h2v4h4v2h-4v4h-2zm19-79v-4h-4v-2h4v-4h2v4h4v2h-4v4h-2z"/><path id="Прямоугольник_1_копия_13-2" class="st3" d="M539.8 218.4v19h38v-19h2v19h17v2h-17v39h-2v-39h-38v39h4v2h-4v38h4v2h-4v23h-2v-23h-6v-2h6v-38h-26v-2h26v-39h-26v-2h26v-19h2zm19 56v4h4v2h-4v4h-2v-4h-4v-2h4v-4h2zm-19 79v4h4v2h-4v4h-2v-4h-4v-2h4v-4h2z"/><path id="Контур_643" class="st1" d="M627.9 343h48.3"/><path id="Контур_644" class="st1" d="M552.9 343h48.3"/><g id="Прямоугольник_332"><path class="st4" d="M8 0c4.4 0 8 3.6 8 8v24c0 4.4-3.6 8-8 8s-8-3.6-8-8V8c0-4.4 3.6-8 8-8z" transform="translate(685 240.819)"/><path class="st0" d="M8 1c3.9 0 7 3.1 7 7v24c0 3.9-3.1 7-7 7s-7-3.1-7-7V8c0-3.9 3.1-7 7-7z" transform="translate(685 240.819)"/></g><g id="Прямоугольник_333"><path class="st4" d="M8 0c4.4 0 8 3.6 8 8s-3.6 8-8 8-8-3.6-8-8 3.6-8 8-8z" transform="translate(685 284.819)"/><path class="st0" d="M8 1c3.9 0 7 3.1 7 7s-3.1 7-7 7-7-3.1-7-7 3.1-7 7-7z" transform="translate(685 284.819)"/></g></g></svg>