<?xml version="1.0" encoding="utf-8"?>
<!-- Generator: Adobe Illustrator 22.0.1, SVG Export Plug-In . SVG Version: 6.00 Build 0)  -->
<svg version="1.1" id="Layer_1" xmlns="http://www.w3.org/2000/svg" xmlns:xlink="http://www.w3.org/1999/xlink" x="0px" y="0px"
	 viewBox="0 0 784 175" style="enable-background:new 0 0 784 175;" xml:space="preserve">
<style type="text/css">
	.st0{fill:#3C4249;}
	.st1{fill:none;stroke:#3C4249;stroke-width:2;}
	.st2{fill:none;stroke:#3C4249;stroke-width:2;stroke-linecap:round;}
	.st3{fill:none;}
	.st4{fill:none;stroke:#DE5846;stroke-width:2;stroke-linecap:round;}
	.st5{fill:#DE5846;}
	.st6{fill:none;stroke:#7E8A9C;stroke-width:2;}
	.st7{fill:#7E8A9C;}
</style>
<g id="images" transform="translate(-279 -513)">
	<path id="Прямоугольник_21" class="st0" d="M1049,688v-7h-38v7h-2v-7h-12v-2h12v-6h2v6h38v-38h-12v-2h12v-6h2v6h7v2
		h-7v38h12v2h-12v7H1049z M849,688v-7h-38v7h-2v-7h-38v7h-2v-7h-38v7h-2v-7h-38v7h-2v-7h-5v-2h5v-8h2v8h38v-38h-5v-2h5v-6h2v6h8v2
		h-8v38h38v-18h2v18h38v-28h2v28h38v-8h2v8h10v2h-10v7H849z M529,688v-7h-38v7h-2v-7h-38v7h-2v-7h-38v7h-2v-7h-6v-2h6v-12h2v12h38
		v-38h-10v-2h10v-7h2v7h17v2h-17v38h38v-27h2v27h38v-4h2v4h7v2h-7v7H529z M329,688v-7h-38v7h-2v-7h-10v-2h10v-12h2v12h38v-30h2v30
		h18v2h-18v7H329z M981,685v-4h-4v-2h4v-4h2v4h4v2h-4v4H981z M552,685v-4h-4v-2h4v-4h2v4h4v2h-4v4H552z M689,661v-4h-4v-2h4v-4h2v4
		h4v2h-4v4H689z M289,657v-4h-4v-2h4v-4h2v4h4v2h-4v4H289z M809,641v-4h-4v-2h4v-4h2v4h4v2h-4v4H809z M1049,623v-4h-4v-2h4v-4h2v4h4
		v2h-4v4H1049z M809,572v-11h-10v-2h10v-38h-38v11h-2v-11h-11v-2h11v-6h2v6h38v-6h2v6h38v-6h2v6h8v2h-8v21h-2v-21h-38v38h16v2h-16
		v11H809z M489,572v-11h-14v-2h14v-38h-38v11h-2v-11h-18v-2h18v-6h2v6h38v-6h2v6h11v2h-11v38h9v2h-9v11H489z M689,539v-18h-18v-2h18
		v-6h2v6h16v2h-16v18H689z M874,525v-4h-4v-2h4v-4h2v4h4v2h-4v4H874z M415,525v-4h-4v-2h4v-4h2v4h4v2h-4v4H415z"/>
	<g id="Группа_5">
		<path id="Эллипс_2047" class="st1" d="M428.9,601c-1.9,28.9-26.9,50.8-55.8,48.9c-28.9-1.9-50.8-26.9-48.9-55.8
			c1.9-28.9,26.9-50.8,55.8-48.9c25.8,1.7,46.5,21.9,48.8,47.7"/>
		<line id="Фигура_1011" class="st1" x1="432" y1="596" x2="521" y2="596"/>
		<path id="Эллипс_2047_копия_2" class="st2" d="M628.9,600.9c-1.9,28.9-26.9,50.9-55.8,49c-20.9-1.4-39-15-46-34.7
			 M524.3,591.8c2.4-26.7,24.8-46.8,52.2-46.8c23.7,0,44.5,15.9,50.7,38.8"/>
		<g id="Эллипс_2048" transform="translate(624 591)">
			<circle class="st3" cx="5" cy="5" r="5"/>
			<circle class="st1" cx="5" cy="5" r="4"/>
		</g>
		<g id="Эллипс_2048_копия" transform="translate(519 591)">
			<circle class="st3" cx="5" cy="5" r="5"/>
			<circle class="st1" cx="5" cy="5" r="4"/>
		</g>
		<g id="Эллипс_2048_копия_2" transform="translate(424 591)">
			<circle class="st3" cx="5" cy="5" r="5"/>
			<circle class="st1" cx="5" cy="5" r="4"/>
		</g>
		<g id="Эллипс_2048_копия_3" transform="translate(834 591)">
			<circle class="st3" cx="5" cy="5" r="5"/>
			<circle class="st1" cx="5" cy="5" r="4"/>
		</g>
		<path id="Прямоугольник_скругл._углы_972" class="st2" d="M839.1,591.9c2.4-26.7,25-46.9,52.4-46.9h73
			c29,0,52.5,23.5,52.5,52.5S993.5,650,964.5,650h-73c-27.7,0-50.6-22.1-52.7-49.3"/>
		<line id="Фигура_1012" class="st1" x1="633" y1="596" x2="650" y2="596"/>
		<line id="Фигура_1012_копия" class="st1" x1="713" y1="596" x2="736" y2="596"/>
		<line id="Фигура_1012_копия_2" class="st1" x1="798" y1="596" x2="836" y2="596"/>
	</g>
	<path id="Эллипс_2049" class="st4" d="M638.3,606.7c-5.1,34.2-36.9,57.7-71,52.6c-22.9-3.4-42.1-19.2-49.8-41.1 M515.3,584.8
		c7-33.8,40.1-55.5,73.9-48.5c21.7,4.5,39.5,20.2,46.5,41.3"/>
	<g id="Группа_4">
		<path id="Фигура_1010" class="st5" d="M357,621c0,0,15.5-11,17-12s6.5-3.2,9.2-1.2s15.1,12.4,15.1,12.4s-6.1,8.7-21.3,8.7
			S357,621,357,621z M345,597c0-12.3,9.2-31,31-31c0,0.5-1,21.6-1,24.5s-0.3,6.2-2.1,7.8S351,615,351,615S345,609.3,345,597z"/>
		<g id="Эллипс_2047_копия" transform="translate(344 565)">
			<circle class="st3" cx="32.5" cy="32.5" r="32.5"/>
			<circle class="st6" cx="32.5" cy="32.5" r="31.5"/>
		</g>
		<path id="Фигура_1007" class="st6" d="M350,615c0,0,17-12.6,19-14s6-4.6,6-9v-26"/>
		<path id="Фигура_1008" class="st6" d="M356,621c0,0,15.9-11.4,18-13s7.1-2.1,11,1s13,11,13,11"/>
	</g>
	<g id="icon">
		<g id="Эллипс_542_копия_3" transform="translate(544 565)">
			<circle class="st3" cx="32.5" cy="32.5" r="32.5"/>
			<circle class="st6" cx="32.5" cy="32.5" r="31.5"/>
		</g>
		<g id="icon-2">
			<g id="Эллипс_2046" transform="translate(572 587)">
				<circle class="st3" cx="4.5" cy="4.5" r="4.5"/>
				<circle class="st6" cx="4.5" cy="4.5" r="3.5"/>
			</g>
			<path id="Фигура_1006" class="st6" d="M590,600c0,0-7.1,6.1-7.9,6.7c-0.6,0.4-1.4,0.4-2,0c-0.2-0.3-0.8-1-1-1.3
				c-0.2-0.3-0.8-0.5-1.5,0S574,608,574,608"/>
			<path id="Forma_1" class="st7" d="M567.5,606.9c-0.5-0.2-0.7-0.7-0.5-1.2l0.4-1.1c1.1-2.8,3-6.6,7.4-6.6h3.3
				c1.6,0,3.1,0.5,4.2,1.6c0.7,0.5-0.6,1.7-1.3,1.2c-0.8-0.7-1.9-1-2.9-1h-3.3c-2.6,0-4.3,1.6-5.8,5.5l-0.4,1.1
				c-0.1,0.3-0.4,0.6-0.8,0.6C567.8,607,567.6,607,567.5,606.9z M591.4,604l-1,0c-0.3,0-0.5-0.2-0.5-0.5c0,0,0,0,0,0l0-1.4
				c0-0.1-0.1-0.3-0.3-0.3c-0.1,0-0.1,0-0.2,0.1l-3,1.9c-0.2,0.2-0.6-0.2-0.4-0.4l2-2.9c0.1-0.1,0.1-0.3,0-0.4c0,0-0.1-0.1-0.2-0.1
				l-1.4,0c-0.3,0-0.5-0.2-0.5-0.5c0,0,0,0,0,0l0-1c0-0.1,0-0.3,0.1-0.4c0.1-0.1,0.2-0.1,0.3-0.1l4.9,0.1c0.1,0,0.3,0.1,0.3,0.1
				c0.1,0.1,0.1,0.2,0.1,0.4l-0.1,5c0,0.1,0,0.3-0.1,0.4C591.7,604,591.5,604.1,591.4,604L591.4,604z"/>
		</g>
	</g>
	<g id="icon-3">
		<g id="Эллипс_542_копия_3-2" transform="translate(649 565)">
			<circle class="st3" cx="32.5" cy="32.5" r="32.5"/>
			<circle class="st1" cx="32.5" cy="32.5" r="31.5"/>
		</g>
		<g id="icon_копия">
			<path id="Фигура_612_копия" class="st2" d="M675.7,590.5c0,0,5.3-3,5.7-3.3c0.5-0.2,1-0.2,1.4,0
				c0.4,0.2,8.2,4.5,8.7,4.8c0.3,0.2,0.5,0.6,0.5,1v9.5c-0.1,0.5-0.3,0.9-0.7,1.2c0,0-8.4,4.9-8.5,5c-0.4,0.2-0.8,0.2-1.2,0.1
				c-0.3-0.2-7.7-4.5-9.1-5.3c-0.3-0.3-0.5-0.7-0.5-1.2v-9.1c0-0.3,0.3-0.6,0.6-0.6c0.1,0,0.2,0,0.2,0.1c1.8,1,7.4,4.2,8.8,5
				c0.2,0.1,0.2,0.3,0.2,0.7v5.4"/>
		</g>
	</g>
	<g id="icon-4">
		<g id="Эллипс_542_копия_3-3" transform="translate(734 565)">
			<circle class="st3" cx="32.5" cy="32.5" r="32.5"/>
			<circle class="st1" cx="32.5" cy="32.5" r="31.5"/>
		</g>
		<g id="icon_копия_2">
			<path id="_1_копия_3" class="st0" d="M765.3,596.7L764,599c-0.2,0.3-0.6,0.4-1,0.2c-0.1,0-0.1-0.1-0.2-0.2l-1.7-2.3
				c-0.9,0.4-1.7,1.4-2.3,3l-1.6,3.9c-0.1,0.4-0.5,0.5-0.9,0.4c0,0,0,0,0,0c-0.4-0.2-0.5-0.6-0.4-0.9l1.6-3.9c0.7-1.8,2-4.1,4.8-4.1
				h2.1c0.5,0,1.1,0.1,1.5,0.4C765.8,595.8,765.3,596.7,765.3,596.7z M763.5,593c1.9,0,3.5-1.6,3.5-3.5s-1.6-3.5-3.5-3.5
				c-1.9,0-3.5,1.6-3.5,3.5c0,0,0,0,0,0C760,591.4,761.6,593,763.5,593z M763.5,588c0.8,0,1.5,0.7,1.5,1.5s-0.7,1.5-1.5,1.5
				s-1.5-0.7-1.5-1.5C762,588.7,762.7,588,763.5,588L763.5,588z"/>
			<line id="Фигура_525" class="st2" x1="776.2" y1="585.5" x2="762.1" y2="610"/>
			<g id="Эллипс_2046_копия_3" transform="translate(768 600)">
				<circle class="st3" cx="3.5" cy="3.5" r="3.5"/>
				<circle class="st1" cx="3.5" cy="3.5" r="2.5"/>
			</g>
		</g>
	</g>
	<g id="Группа_4_копия">
		<path id="Фигура_1010-2" class="st5" d="M939,621c0,0,15.5-11,17-12s6.4-3.1,9.1-1.1s15.5,12.2,15.5,12.2s-6.5,8.9-21.6,8.9
			S939,621,939,621z M927,597c0-12.3,9.2-31,31-31c0,0.5-1.5,23.5-1.5,26.4c0,0,0.2-0.5,0.3-0.9c0.2-0.5,0.4-1,0.4-0.9
			c0,2.6-0.4,5.9-2.3,7.4S933,615,933,615S927,609.3,927,597z"/>
		<g id="Эллипс_2047_копия-2" transform="translate(926 565)">
			<circle class="st3" cx="32.5" cy="32.5" r="32.5"/>
			<circle class="st6" cx="32.5" cy="32.5" r="31.5"/>
		</g>
		<path id="Фигура_1007-2" class="st6" d="M932,615c0,0,17-12.6,19-14s6-4.6,6-9v-26"/>
		<path id="Фигура_1008-2" class="st6" d="M938,621c0,0,15.9-11.4,18-13s7.1-2.1,11,1s13,11,13,11"/>
	</g>
	<g id="icon_копия_3">
		<path id="Эллипс_542_копия_3-4" class="st6" d="M923.7,616.7c-10.6,14.5-31,17.6-45.4,7c-14.5-10.6-17.6-31-7-45.4
			c10.6-14.5,31-17.6,45.4-7c2.5,1.9,4.8,4.1,6.7,6.6"/>
		<g id="icon-5">
			<g id="Эллипс_2046-2" transform="translate(893 587)">
				<circle class="st3" cx="4.5" cy="4.5" r="4.5"/>
				<circle class="st6" cx="4.5" cy="4.5" r="3.5"/>
			</g>
			<path id="Фигура_1006-2" class="st6" d="M911,600c0,0-7.1,6.1-7.9,6.7c-0.6,0.4-1.4,0.4-2,0c-0.2-0.3-0.8-1-1-1.3
				c-0.2-0.3-0.8-0.5-1.5,0S895,608,895,608"/>
			<path id="Forma_1-2" class="st7" d="M888.5,606.9c-0.5-0.2-0.7-0.7-0.5-1.2l0.4-1.1c1.1-2.8,3-6.6,7.4-6.6h3.3
				c1.6,0,3.1,0.5,4.2,1.6c0.7,0.5-0.6,1.7-1.3,1.2c-0.8-0.7-1.9-1-2.9-1h-3.3c-2.6,0-4.3,1.6-5.8,5.5l-0.4,1.1
				c-0.1,0.3-0.4,0.6-0.8,0.6C888.8,607,888.6,607,888.5,606.9z M912.4,604l-1,0c-0.3,0-0.5-0.2-0.5-0.5c0,0,0,0,0,0l0-1.4
				c0-0.1-0.1-0.3-0.3-0.3c-0.1,0-0.1,0-0.2,0.1l-3,1.9c-0.2,0.2-0.6-0.2-0.4-0.4l2-2.9c0.1-0.1,0.1-0.3,0-0.4c0,0-0.1-0.1-0.2-0.1
				l-1.4,0c-0.3,0-0.5-0.2-0.5-0.5c0,0,0,0,0,0l0-1c0-0.1,0-0.3,0.1-0.4c0.1-0.1,0.2-0.1,0.3-0.1l4.9,0.1c0.1,0,0.3,0.1,0.3,0.1
				c0.1,0.1,0.1,0.2,0.1,0.4l-0.1,5c0,0.1,0,0.3-0.1,0.4C912.7,604,912.5,604.1,912.4,604L912.4,604z"/>
		</g>
	</g>
</g>
</svg>
