<svg version="1.1" id="Слой_1" xmlns="http://www.w3.org/2000/svg" x="0" y="0" viewBox="0 0 460 141.7" xml:space="preserve"><g id="images" transform="translate(-444 -478.36)"><g id="Группа_4_копия_3" transform="translate(40 130)" fill="none"><path id="Эллипс_2047_копия_4" stroke="#3C4249" stroke-width="2" stroke-linecap="round" d="M454.2 476.9c-28.9-1.8-50.9-26.8-49.1-55.7 1.8-28.9 26.8-50.9 55.7-49.1 25.8 1.6 46.6 21.8 49 47.5.1 1.6 1.5 4.3 7.2 4.3h47c4.1 0 8.1.5 11.9-6.1s21.6-32.1 34.9-53.2 41.1-20.1 53.3 0 28 46.5 28 46.5"/><g id="Эллипс_2050" transform="translate(453 472)"><circle cx="5" cy="5" r="5"/><circle stroke="#3C4249" stroke-width="2" cx="5" cy="5" r="4"/></g><g id="Эллипс_2047_копия" transform="translate(425 392)"><circle cx="32.5" cy="32.5" r="32.5"/><circle stroke="#3C4249" stroke-width="2" cx="32.5" cy="32.5" r="31.5"/></g><path id="Фигура_1007" stroke="#3C4249" stroke-width="2" d="M484 407s-17 12.6-19 14-6 4.6-6 9v26"/><path id="Фигура_1008" stroke="#3C4249" stroke-width="2" d="M478 401s-15.9 11.4-18 13-7.1 2.1-11-1-13-11-13-11"/></g><g id="Группа_4_копия_4" transform="translate(-50 130)" fill="none"><path id="Эллипс_2047_копия_4-2" stroke="#3C4249" stroke-width="2" stroke-linecap="round" d="M903.8 372.1c28.9 1.8 50.9 26.8 49.1 55.7-1.8 28.9-26.8 50.9-55.7 49.1-24.1-1.5-44.1-19.3-48.3-43.1-.2-1.2-.1-8.8-7.8-8.8h-37c-8.3 0-9 7.9-6.9 11.6 1.5 2.5 2.9 5.1 4.1 7.8 10.4 21.4-6.9 44.6-26.5 44.6h-62.1"/><g id="Эллипс_2050-2" transform="translate(895 367)"><circle cx="5" cy="5" r="5"/><circle stroke="#3C4249" stroke-width="2" cx="5" cy="5" r="4"/></g><g id="Эллипс_2047_копия-2" transform="translate(868 392)"><circle cx="32.5" cy="32.5" r="32.5"/><circle stroke="#3C4249" stroke-width="2" cx="32.5" cy="32.5" r="31.5"/></g><path id="Фигура_1007-2" stroke="#3C4249" stroke-width="2" d="M874 442s17-12.6 19-14 6-4.6 6-9v-26"/><path id="Фигура_1008-2" stroke="#3C4249" stroke-width="2" d="M880 448s15.9-11.4 18-13 7.1-2.1 11 1 13 11 13 11"/></g><g id="Сгруппировать_1" transform="translate(1 123)" fill="none" stroke="#FC9F0F" stroke-width="2"><path id="Фигура_1" d="M658 486h62c11.8 0 31.2-15.1 18-37s-36.9-61.1-44-73-25.3-14.5-35 0-30.6 48.2-45 72 6.3 38 16 38h5"/><path id="Фигура_2" d="M658 475h63c7.2 0 14.6-9.7 9-19s-41.9-70-45-75-12.4-8.4-18 1-40.2 62.9-46 73-.2 20 9 20h5"/><path id="Эллипс_1" d="M658.1 486c-3 0-5.5-2.5-5.5-5.5s2.5-5.5 5.5-5.5"/><path id="Эллипс_1_копия" d="M635 475c3 .2 5.3 2.9 5.1 5.9-.2 2.7-2.4 4.8-5.1 5.1"/></g><g id="Прямоугольник_336"><path fill="#5B1B1B" d="M8 0c4.4 0 8 3.6 8 8v24c0 4.4-3.6 8-8 8s-8-3.6-8-8V8c0-4.4 3.6-8 8-8z" transform="translate(669.109 521.277)"/><path fill="none" stroke="#FC9F0F" stroke-width="2" d="M677.109 522.277h0c3.9 0 7 3.1 7 7v24c0 3.9-3.1 7-7 7h0c-3.9 0-7-3.1-7-7v-24c0-3.9 3.1-7 7-7z"/></g><g id="Прямоугольник_337"><path fill="#5B1B1B" d="M8 0c4.4 0 8 3.6 8 8s-3.6 8-8 8-8-3.6-8-8 3.6-8 8-8z" transform="translate(669.109 565.277)"/><path fill="none" stroke="#FC9F0F" stroke-width="2" d="M677.109 566.277h0c3.9 0 7 3.1 7 7h0c0 3.9-3.1 7-7 7h0c-3.9 0-7-3.1-7-7h0c0-3.9 3.1-7 7-7z"/></g><g id="Сгруппировать_711" transform="translate(-6 122)" fill="#3C4249"><path id="Op_component_13" d="M577 357h2v59h-2z"/><path id="Op_component_14" d="M537 357h2v19h-2z"/><path id="Op_component_15" d="M519 363h71v2h-71z"/><path id="Op_component_16" d="M563 403h25v2h-25z"/></g><g id="Сгруппировать_712" transform="translate(760 479)" fill="#3C4249"><path id="Op_component_13-2" d="M11 0h2v59h-2z"/><path id="Op_component_14-2" d="M51 0h2v19h-2z"/><path id="Op_component_15-2" d="M0 6h71v2H0z"/><path id="Op_component_16-2" d="M2 46h25v2H2z"/></g><g id="Сгруппировать_713" transform="translate(-6 122)" fill="#3C4249"><path id="Op_component_17" d="M561 483h36v2h-36z"/><path id="Op_component_18" d="M577 465h2v26h-2z"/><path id="Op_component_22" d="M538 483h10v2h-10z"/><path id="Op_component_23" d="M542 479h2v10h-2z"/></g></g></svg>