<?xml version="1.0" encoding="utf-8"?>
<!-- Generator: Adobe Illustrator 24.3.0, SVG Export Plug-In . SVG Version: 6.00 Build 0)  -->
<svg version="1.1" id="Слой_1" xmlns="http://www.w3.org/2000/svg" xmlns:xlink="http://www.w3.org/1999/xlink" x="0px" y="0px"
	 viewBox="0 0 318 253" style="enable-background:new 0 0 318 253;" xml:space="preserve">
<style type="text/css">
	.st0{fill:#3C4249;}
	.st1{fill:none;}
	.st2{fill:none;stroke:#3C4249;stroke-width:2;}
	.st3{fill:none;stroke:#3C4249;stroke-width:2;stroke-linecap:round;}
	.st4{fill:#DE5A48;}
	.st5{fill:none;stroke:#DE5A48;stroke-width:2;}
	.st6{fill:none;stroke:#DE5A48;stroke-width:2;stroke-linecap:round;}
	.st7{fill:none;stroke:#DE5846;stroke-width:2;}
	.st8{fill:none;stroke:#DE5846;stroke-width:2;stroke-linecap:round;}
	.st9{fill:none;stroke:#7E8A9C;stroke-width:2;}
</style>
<g id="images" transform="translate(-524 -212)">
	<path id="Прямоугольник_1_копия_13" class="st0" d="M814,465v-19h-38v19h-2v-19h-54v-2h54v-39h2v39h38v-39h-4v-2
		h4v-38h-4v-2h4v-23h2v23h6v2h-6v38h26v2h-26v39h26v2h-26v19H814z M795,409v-4h-4v-2h4v-4h2v4h4v2h-4v4H795z M814,330v-4h-4v-2h4v-4
		h2v4h4v2h-4v4H814z"/>
	<path id="Прямоугольник_1_копия_14" class="st0" d="M590,465v-19h-38v9h-2v-9h-26v-2h26v-39h-26v-2h26v-38h-6v-2
		h6v-23h2v23h4v2h-4v38h14v2h-14v39h38v-7h2v7h34v2h-34v19H590z M579,409v-4h-4v-2h4v-4h2v4h4v2h-4v4H579z"/>
	<g id="Группа_1_копия">
		<g id="Эллипс_3693" transform="translate(583 225)">
			<circle class="st1" cx="100" cy="100" r="100"/>
			<circle class="st2" cx="100" cy="100" r="99"/>
		</g>
		<g id="Эллипс_3693_копия" transform="translate(598 240)">
			<circle class="st1" cx="85" cy="85" r="85"/>
			<circle class="st2" cx="85" cy="85" r="84"/>
		</g>
		<g id="Группа_2">
			<path id="Фигура_1141" class="st3" d="M591,301.5l9.7,2.6 M763.9,347.8l9.7,2.6"/>
			<path id="Фигура_1141_копия" class="st3" d="M709.6,229.8l-2.6,9.7 M660.9,411.3l-2.3,8.8"/>
			<path id="Фигура_1141_копия_2" class="st3" d="M634.4,243.7l4.9,8.4 M723.9,398.7l5,8.7"/>
			<path id="Фигура_1141_копия_2-2" class="st3" d="M769,276.8l-8.7,5 M606.2,370.8l-7.9,4.5"/>
			<path id="Фигура_1141_копия_3" class="st3" d="M600.2,278.6l9.6,5.5 M755.2,368.1l8.7,5"/>
			<path id="Фигура_1141_копия_3-2" class="st3" d="M733.3,240l-5,8.7 M639.3,402.8l-4.5,7.9"/>
			<path id="Фигура_1141_копия_3-3" class="st3" d="M657.1,234l2.6,9.7"/>
			<path id="Фигура_1141_копия_3-4" class="st3" d="M778.5,300.8l-9.7,2.6 M596.9,349.5l-8.8,2.3"/>
			<path id="Фигура_1141_копия_4" class="st3" d="M587.9,325.7H599 M767.9,325.7h9.1"/>
			<path id="Фигура_1141_копия_4-2" class="st3" d="M683.9,226.4v9.5 M683.9,413.7v10"/>
			<path id="Фигура_1141_копия_4-3" class="st3" d="M614.9,258.6l7.8,7.8 M742.1,385.8l6.4,6.4"/>
			<path id="Фигура_1141_копия_4-4" class="st3" d="M753.5,255.8l-7.1,7.1 M620.6,388.7l-6.2,6.2"/>
		</g>
		<g id="Фигура_11_копия_11">
			<path class="st1" d="M756,288.2c0.2-2.7-1.2-5.3-3.7-6.6c-2.7-1.7-61.7-35.4-65.1-37.2s-5.6-1.7-8.1-0.2s-62.8,36-64.9,37.2
				s-4.2,2.8-4.2,7.1v74.2c0,2.8,1.5,5.4,3.9,6.8c2.7,1.6,63.4,36.4,65.9,37.7c2.1,1,4.5,1,6.6,0c1.2-0.6,63.8-36.6,65.4-37.5
				s4.2-3,4.2-6.6V288.2z"/>
			<path class="st0" d="M682.7,243c-1.2,0-2.4,0.4-3.6,1.1c-2.5,1.5-62.8,36-64.9,37.2c-2.1,1.2-4.2,2.8-4.2,7.1
				c0,4.2,0,71.9,0,74.2c0,2.4,1.2,5.2,3.9,6.8c2.7,1.6,63.4,36.4,65.9,37.7c1,0.6,2.1,0.8,3.2,0.8c1.4,0,2.7-0.4,3.4-0.8
				c1.2-0.6,63.8-36.6,65.4-37.5c1.6-0.9,4.2-3,4.2-6.6c0-3.6,0-71.9,0-75c0-3.1-1-4.9-3.7-6.6c-2.7-1.7-61.7-35.4-65.1-37.2
				C685.4,243.4,684,243,682.7,243 M682.7,241L682.7,241L682.7,241c1.6,0,3.4,0.5,5.4,1.6c1.8,1,18.2,10.3,32.9,18.7
				c14.6,8.3,30.9,17.7,32.3,18.6c3.3,2,4.6,4.5,4.6,8.3v75c0,2-0.7,3.9-1.9,5.5c-0.8,1.1-1.9,2-3.2,2.8c-0.9,0.5-18,10.4-32.8,18.9
				c-11.9,6.8-31.9,18.3-32.7,18.7c-1.2,0.6-2.8,1-4.4,1c-1.5,0-2.9-0.3-4.1-1c-2.6-1.4-63.3-36.2-65.9-37.8
				c-1.6-0.9-2.9-2.3-3.7-3.9c-0.8-1.5-1.2-3.1-1.2-4.7v-74.2c0-2.4,0.5-4.3,1.7-5.8c1-1.4,2.3-2.3,3.5-3c0.4-0.3,3.4-1.9,7.8-4.5
				c16.5-9.5,55.1-31.6,57.1-32.8C679.7,241.5,681.1,241,682.7,241z"/>
		</g>
		<g id="Фигура_11_копия_12">
			<path class="st1" d="M743.2,295.4c0.2-2.2-1-4.4-3-5.4c-2.2-1.4-50.6-29-53.5-30.5s-4.6-1.4-6.7-0.2s-51.6,29.5-53.3,30.5
				c-2.2,1-3.6,3.3-3.4,5.8v60.9c0,2.3,1.3,4.4,3.2,5.6c2.2,1.3,52.1,29.9,54.1,30.9c1.7,0.8,3.7,0.8,5.5,0c1-0.5,52.4-30,53.7-30.7
				c2-1.1,3.3-3.1,3.4-5.4L743.2,295.4z"/>
			<path class="st4" d="M683,258.3c-1,0-2,0.3-3,0.9c-2.1,1.2-51.6,29.5-53.3,30.5c-1.7,1-3.4,2.3-3.4,5.8c0,3.5,0,58.9,0,60.9
				c0,2,1,4.3,3.2,5.6c2.2,1.3,52.1,29.9,54.1,30.9c0.8,0.5,1.8,0.6,2.6,0.6c1.2,0,2.2-0.3,2.8-0.6c1-0.5,52.4-30,53.7-30.7
				c1.3-0.8,3.4-2.5,3.4-5.4c0-2.9,0-59,0-61.5c0-2.5-0.8-4-3-5.4c-2.2-1.4-50.6-29-53.5-30.5C685.3,258.7,684.1,258.3,683,258.3
				 M683,256.3c1.4,0,2.9,0.4,4.6,1.3c3.3,1.7,51.7,29.4,53.6,30.6c1.4,0.9,2.4,1.8,3,3c0.6,1.1,0.9,2.5,0.9,4.1v61.5
				c0,1.7-0.6,3.3-1.7,4.7c-0.7,0.9-1.6,1.7-2.7,2.4c-0.7,0.4-14.8,8.5-27,15.5c-9.7,5.6-26.2,15-26.8,15.3c-1,0.5-2.4,0.8-3.7,0.8
				c-1.3,0-2.5-0.3-3.6-0.9c-2.2-1.2-52-29.7-54.2-31c-1.3-0.8-2.4-1.9-3.2-3.3c-0.7-1.2-1-2.6-1-4v-60.9c0-4.4,2.2-6.3,4.4-7.5
				c0.4-0.2,2.7-1.5,6.2-3.6c13.6-7.8,45.4-26,47-27C680.4,256.7,681.7,256.3,683,256.3z"/>
		</g>
		<g id="Фигура_11_копия_14">
			<path class="st1" d="M734,299.5c0.1-1.9-0.9-3.7-2.6-4.6c-1.9-1.2-43.1-24.7-45.5-26s-3.9-1.2-5.7-0.2s-43.9,25.1-45.3,26
				c-1.9,0.9-3.1,2.8-2.9,4.9v51.8c0,2,1.1,3.8,2.7,4.8c1.9,1.1,44.3,25.4,46,26.3c1.5,0.7,3.2,0.7,4.6,0
				c0.9-0.4,44.6-25.5,45.7-26.1c1.7-0.9,2.8-2.6,2.9-4.6L734,299.5z"/>
			<path class="st4" d="M682.8,268c-0.9,0-1.7,0.3-2.5,0.8c-1.8,1-43.8,25.1-45.3,26c-1.5,0.8-2.9,2-2.9,4.9c0,3,0,50.1,0,51.8
				c0,1.7,0.9,3.6,2.7,4.8c1.9,1.1,44.3,25.4,46,26.3c0.7,0.4,1.5,0.5,2.2,0.5c1,0,1.9-0.3,2.4-0.5c0.9-0.4,44.6-25.5,45.7-26.1
				c1.1-0.6,2.9-2.1,2.9-4.6c0-2.5,0-50.1,0-52.3c0-2.1-0.7-3.4-2.6-4.6c-1.9-1.2-43.1-24.7-45.5-26
				C684.7,268.3,683.7,268,682.8,268 M682.8,266c1.2,0,2.5,0.4,4.1,1.2c2.8,1.5,44,25,45.6,26c2.4,1.5,3.5,3.4,3.5,6.3v52.3
				c0,1.6-0.5,3-1.5,4.2c-0.6,0.8-1.4,1.5-2.4,2.1c-0.3,0.2-44.7,25.7-45.8,26.2c-0.9,0.5-2.2,0.7-3.3,0.7c-1.2,0-2.2-0.3-3.2-0.8
				c-1.8-1-44.2-25.2-46.1-26.3c-1.2-0.7-2.2-1.7-2.8-2.9c-0.6-1.1-0.9-2.3-0.9-3.5v-51.8c0-1.8,0.4-3.2,1.3-4.4
				c0.8-1.1,1.8-1.7,2.6-2.2c0.3-0.2,2.3-1.3,5.4-3.1c11.5-6.6,38.5-22,39.9-22.9C680.5,266.3,681.6,266,682.8,266z"/>
		</g>
		<line id="Фигура_1150" class="st5" x1="743" y1="293" x2="735" y2="297"/>
		<path id="Фигура_1150_копия" class="st5" d="M631.6,354.8l-8.4,5.5"/>
		<line id="Фигура_1151" class="st5" x1="743" y1="360" x2="735" y2="355"/>
		<line id="Фигура_1151_копия" class="st5" x1="632" y1="297" x2="623" y2="292"/>
		<line id="Фигура_1152" class="st5" x1="683" y1="267" x2="683" y2="257"/>
		<line id="Фигура_1152_копия" class="st6" x1="683" y1="394" x2="683" y2="384"/>
		<path id="Фигура_674" class="st7" d="M649.8,345.7c-0.9,1.4-0.2,2.1,0.6,1.2s31-33.3,31.7-34s1.1-0.8,1.8,0
			s29.1,31.2,29.9,32.2s1.9,1.1,1.2,0s-30.4-49.2-31.1-50.7s-1.6-1.7-2.4,0C679.1,299.2,652.3,341.5,649.8,345.7z"/>
		<path id="Фигура_675_копия" class="st8" d="M685,334.8c0.8,0,7.3,0,8.3,0c0.6,0,1.2,0.2,1.7,0.6
			c0.4,0.4,2.2,2.3,2.6,2.7s1.2,1.9-1,1.9h-29.1c-2.2,0-0.7-1.5-0.3-1.9s2.1-2.3,2.6-2.7c0.5-0.4,1.1-0.6,1.7-0.6h9
			c1.5,0,1.9-0.9,1.9-1.4v-2.9c0-0.7,0.5-1.2,1.1-1.3c0.1,0,0.1,0,0.2,0h3.2c0.4,0.1,0.8-0.2,0.9-0.6c0-0.2,0-0.5-0.2-0.7
			c-0.4-0.4-3.3-4.2-4-5c-0.4-0.5-1.1-0.6-1.6-0.3c-0.1,0.1-0.2,0.2-0.3,0.3l-4.3,5c0,0-0.7,1.3,0.6,1.3h2.2"/>
		<g id="Эллипс_78" transform="translate(570 212)">
			<circle class="st1" cx="113" cy="113" r="113"/>
			<circle class="st9" cx="113" cy="113" r="112"/>
		</g>
		<path id="Контур_515" class="st0" d="M682.5,278.8c-4.1,2.4-26.5,15.2-36.6,21l-4.6,2.6l-0.4,46.7
			c1.5,0.9,36.2,20.7,41.7,23.9c5.2-2.9,37-21.2,41.2-23.6v-47.1C719.3,299.7,687.5,281.6,682.5,278.8 M682.4,272.6
			c1,0.1,2,0.4,2.9,0.9c2.3,1.2,40.4,23,42.2,24.1c1.5,0.8,2.5,2.5,2.4,4.2v48.5c-0.1,1.8-1.1,3.4-2.7,4.2
			c-1,0.6-41.5,23.8-42.3,24.2c-0.7,0.3-1.4,0.5-2.2,0.5c-0.7,0-1.5-0.1-2.1-0.5c-1.6-0.9-40.9-23.4-42.6-24.4
			c-1.5-0.9-2.5-2.6-2.5-4.4v-48c-0.1-1.9,0.9-3.8,2.7-4.6c1.4-0.8,40.4-23.1,42-24.1C680.9,272.8,681.7,272.6,682.4,272.6
			L682.4,272.6z"/>
	</g>
</g>
</svg>
