<svg xmlns="http://www.w3.org/2000/svg" id="Слой_1" x="0" y="0" version="1.1" viewBox="0 0 176 176" xml:space="preserve">
  <defs/>
  <style>
    .st1{fill:none;stroke:#de5846;stroke-width:2.5;stroke-linecap:round}
  </style>
  <g id="images" transform="translate(-80 -243)">
    <g id="Прямоугольник_скругл._углы_967_копия_2" transform="translate(80 243)">
      <path id="Прямоугольник_скругл._углы_967_копия_2-2" fill="#ffe0da" d="M20 0h136c11 0 20 9 20 20v136c0 11-9 20-20 20H20c-11 0-20-9-20-20V20C0 9 9 0 20 0z"/>
      <g id="Сгруппировать_577" transform="translate(-6.673 -6.118)">
        <path id="Прямоугольник_скругл._углы_774" d="M98.1 64.3h37.5c5.6 0 10.2 4.6 10.2 10.2v56.3c0 5.6-4.6 10.2-10.2 10.2H53.8c-5.6 0-10.2-4.6-10.2-10.2V74.5c0-5.6 4.6-10.2 10.2-10.2h5.1" class="st1"/>
        <path id="Прямоугольник_скругл._углы_774_копия" d="M98.1 64.3V53.4c0-3.4 3.1-6.2 6.8-6.2h20.5c3.8 0 6.8 2.8 6.8 6.2v10.8" class="st1"/>
        <path id="Прямоугольник_скругл._углы_774_копия_2" d="M58.9 64.3V54.1c0-3.8 3.1-6.8 6.8-6.8h20.5c3.8 0 6.8 3.1 6.8 6.8v27.2" class="st1"/>
        <path id="Фигура_1002" d="M82.6 81.7h27.6" class="st1"/>
        <g id="Прямоугольник_скругл._углы_775" fill="none">
          <path d="M4 0h19.6c2.2 0 4 1.8 4 4v12.7c0 2.2-1.8 4-4 4H4c-2.2 0-4-1.8-4-4V4c0-2.2 1.8-4 4-4z" transform="translate(82.635 93.242)"/>
          <path stroke="#de5846" stroke-width="2.5" d="M86.635 94.242h19.6c1.7 0 3 1.3 3 3v12.7c0 1.7-1.3 3-3 3h-19.6c-1.7 0-3-1.3-3-3v-12.7c0-1.7 1.3-3 3-3z"/>
        </g>
      </g>
    </g>
  </g>
</svg>
