<?xml version="1.0" encoding="UTF-8" standalone="no"?><!DOCTYPE svg PUBLIC "-//W3C//DTD SVG 1.1//EN" "http://www.w3.org/Graphics/SVG/1.1/DTD/svg11.dtd"><svg width="100%" height="100%" viewBox="0 0 323 278" version="1.1" xmlns="http://www.w3.org/2000/svg" xmlns:xlink="http://www.w3.org/1999/xlink" xml:space="preserve" xmlns:serif="http://www.serif.com/" style="fill-rule:evenodd;clip-rule:evenodd;stroke-linecap:round;stroke-linejoin:round;"><g id="Canvas"><g><ellipse id="Эллипс_542-7" cx="27.75" cy="92.45" rx="26.72" ry="26.73" style="fill:#56616f;"/><path id="Bubbles" d="M61,268c0,-4.97 4.03,-9 9,-9c4.97,0 9,4.03 9,9c0,4.97 -4.03,9 -9,9c-4.97,0 -9,-4.03 -9,-9Zm132,-56c0,-1.1 0.9,-2 2,-2c1.1,0 2,0.9 2,2c0,1.1 -0.9,2 -2,2c-1.1,0 -2,-0.9 -2,-2Zm-119,-153.5c0,-7.46 6.04,-13.5 13.5,-13.5c7.46,0 13.5,6.04 13.5,13.5c0,7.46 -6.04,13.5 -13.5,13.5c-7.46,0 -13.5,-6.04 -13.5,-13.5Zm189,-50c0,-4.14 3.36,-7.5 7.5,-7.5c4.14,0 7.5,3.36 7.5,7.5c0,4.14 -3.36,7.5 -7.5,7.5c-4.14,0 -7.5,-3.36 -7.5,-7.5Z" style="fill:#404853;fill-rule:nonzero;"/></g><path id="Wallet-outer-border" serif:id="Wallet outer border" d="M237,85l0,-12c0,-8.99 -4.93,-15 -14,-15l-118,0c-8.61,0 -17,3.88 -17,14l0,13l149,0Z" style="fill:#778391;fill-rule:nonzero;"/><path id="Wallet-inner-background" serif:id="Wallet inner background" d="M237,88l0,-12c0,-8.99 -4.93,-15 -14,-15l-118,0c-8.61,0 -13,3.88 -13,14l0,13l145,0Z" style="fill:#606b78;fill-rule:nonzero;"/><circle id="Coin" cx="148" cy="74" r="27" style="fill:#e4b22d;"/><circle id="Coin-background" serif:id="Coin background" cx="147.81" cy="73.81" r="22.5" style="fill:#d4a527;"/><path id="Coin-logo" serif:id="Coin logo" d="M145.75,83.46l0,-3.1l-2.79,0l-1.55,3.1l-3.09,0l8.21,-18.57l2.13,0l8.21,18.57l-3.09,0l-1.55,-3.1l-2.8,0l0,3.1l-3.68,0Zm-1.24,-6.2l6.18,0l-3.09,-7.74l-3.09,7.74Z" style="fill:#ad733b;fill-rule:nonzero;"/><circle id="Second-coin" serif:id="Second coin" cx="180" cy="65" r="27" style="fill:#e4b22d;"/><circle id="Second-coin-background" serif:id="Second coin background" cx="179.81" cy="64.81" r="22.5" style="fill:#d4a527;"/><path id="Second-coin-logo" serif:id="Second coin logo" d="M177.75,74.46l0,-3.1l-2.79,0l-1.55,3.1l-3.09,0l8.21,-18.57l2.13,0l8.21,18.57l-3.09,0l-1.54,-3.1l-2.8,0l0,3.1l-3.69,0Zm-1.24,-6.2l6.18,0l-3.09,-7.74l-3.09,7.74Z" style="fill:#ad733b;fill-rule:nonzero;"/><path id="Wallet-shadow-down" serif:id="Wallet shadow down" d="M88,178c0,7.49 3.9,16 17,16l120,0c8.18,0 16,-5.57 16,-17l0,-78c0,-6.13 -2.38,-15 -15,-15l-125,0c-3.64,0 -8,-3.02 -8,-7c0,-1.15 -5,-2.36 -5,2l0,99Z" style="fill-opacity:0.651;fill-rule:nonzero;"/><path id="Wallet-shadow-up" serif:id="Wallet shadow up" d="M88,170c0,7.49 3.9,16 17,16l120,0c8.18,0 16,-5.57 16,-17l0,-78c0,-6.13 -2.38,-15 -15,-15l-125,0c-3.64,0 -8.32,-2.86 -8.32,-6.84c0,-1.15 -4.68,-2.52 -4.68,1.84l0,99Z" style="fill:#778391;fill-rule:nonzero;"/><path id="Wallet-background" serif:id="Wallet background" d="M88,170c0,7.49 3.9,16 17,16l120,0c8.18,0 16,-5.57 16,-17l0,-75c0,-6.13 -2.38,-15 -15,-15c-12.62,0 -122.74,-0.14 -126.38,-0.14c-7.16,0 -11.17,-5.41 -11.17,-9.71c0,-1.15 -0.53,-0.42 -0.53,0.85c0,1.27 0.08,92.51 0.08,100Z" style="fill:#606b78;fill-rule:nonzero;"/><path id="Wallet-dotted-border" serif:id="Wallet dotted border" d="M91,167c2.72,5.99 5.86,10 14,10l113,0c6.46,0 14,-4.43 14,-11l0,-67c0,-3.02 -2.56,-10 -9,-10l-123,0c-3.01,0 -7.61,-1.96 -10.93,-4.84" style="fill:none;stroke:#444d59;stroke-opacity:0.38;stroke-width:2px;stroke-dasharray:4,6;"/><path id="Wallet-border-glass" serif:id="Wallet border glass" d="M243,124c0.17,-2.04 -1.35,-3.83 -3.39,-4c-0.2,-0.02 -0.41,-0.02 -0.61,0l-15,0c-9.1,0.31 -16.24,7.9 -16,17c0,11.46 8.7,17 16,17l15,0c2.1,0.11 3.89,-1.49 4,-3.59c0.01,-0.14 0.01,-0.27 0,-0.41l0,-26Z" style="fill-opacity:0.388;fill-rule:nonzero;"/><path id="Wallet-border-shadow-up" serif:id="Wallet border shadow up" d="M245,121c0.17,-2.04 -1.35,-3.83 -3.39,-4c-0.2,-0.02 -0.41,-0.02 -0.61,0l-16,0c-9.1,0.31 -16.24,7.9 -16,17c0,11.46 8.7,17 16,17l16,0c2.1,0.11 3.89,-1.49 4,-3.59c0.01,-0.14 0.01,-0.27 0,-0.41l0,-26Z" style="fill:#778391;fill-rule:nonzero;"/><path id="Wallet-border-background" serif:id="Wallet border background" d="M245,123c0.17,-2.04 -1.35,-3.83 -3.39,-4c-0.2,-0.02 -0.41,-0.02 -0.61,0l-15,0c-9.1,0.31 -16.24,7.9 -16,17c0,11.46 7.7,15 15,15l16,0c0,0 4,-1.95 4,-4l0,-24Z" style="fill:#697584;fill-rule:nonzero;"/><circle id="Wallet-border-dot" serif:id="Wallet border dot" cx="220.5" cy="134.5" r="4.5" style="fill:#48525e;"/><circle id="Wallet-logo-shadow" serif:id="Wallet logo shadow" cx="165.5" cy="133.5" r="32.5" style="fill:#56616f;"/><circle id="Wallet-logo-shadow-glass" serif:id="Wallet logo shadow glass" cx="165.5" cy="133.5" r="32.5" style="fill:#56616f;"/><path id="Wallet-logo-background" serif:id="Wallet logo background" d="M165.5,163c-8,0.01 -15.66,-3.24 -21.21,-9l42.43,0c-5.56,5.76 -13.22,9.01 -21.22,9Zm28.35,-21.3l-27.85,-30.7l-29.09,29.79c-0.6,-2.38 -0.91,-4.83 -0.91,-7.29c0.02,-16.29 13.24,-29.49 29.53,-29.47c16.29,0.02 29.49,13.24 29.47,29.53c0,2.75 -0.39,5.49 -1.15,8.14Z" style="fill:#4b5460;fill-rule:nonzero;"/><path id="Wallet-logo-triangle" serif:id="Wallet logo triangle" d="M151.01,144l27.99,0l-13.9,-13.99l-14.09,13.99Z" style="fill:#4b5460;fill-rule:nonzero;"/><path id="Wallet-logo-glass" serif:id="Wallet logo glass" d="M187.57,153.08l-0.09,0.1c-10.87,12.14 -29.52,13.16 -41.66,2.29c-12.14,-10.87 -13.16,-29.52 -2.29,-41.66c0.88,-0.98 1.83,-1.9 2.83,-2.76l0.13,-0.11l41.08,42.14Z" style="fill:#22262c;fill-opacity:0.278;fill-rule:nonzero;"/><circle id="Bubble-out" serif:id="Bubble out" cx="300.37" cy="175.69" r="21.84" style="fill:#3e4049;"/></g></svg>