<?xml version="1.0" encoding="UTF-8" standalone="no"?><!DOCTYPE svg PUBLIC "-//W3C//DTD SVG 1.1//EN" "http://www.w3.org/Graphics/SVG/1.1/DTD/svg11.dtd"><svg width="100%" height="100%" viewBox="0 0 317 263" version="1.1" xmlns="http://www.w3.org/2000/svg" xmlns:xlink="http://www.w3.org/1999/xlink" xml:space="preserve" xmlns:serif="http://www.serif.com/" style="fill-rule:evenodd;clip-rule:evenodd;stroke-linecap:round;stroke-linejoin:round;"><g id="Canvas"><path id="Bubbles" d="M43,247c0,-5 4,-9 9,-9c5,0 9,4 9,9c0,5 -4,9 -9,9c-5,0 -9,-4 -9,-9Zm202,-56c0,-1.1 0.9,-2 2,-2c1.1,0 2,0.9 2,2c0,1.1 -0.9,2 -2,2c-1.1,0 -2,-0.9 -2,-2Zm-199,-123.5c0,-7.5 6,-13.5 13.5,-13.5c7.5,0 13.5,6 13.5,13.5c0,7.5 -6,13.5 -13.5,13.5c-7.5,0 -13.5,-6 -13.5,-13.5Zm199,-50c0,-4.1 3.4,-7.5 7.5,-7.5c4.1,0 7.5,3.4 7.5,7.5c0,4.1 -3.4,7.5 -7.5,7.5c-4.1,0 -7.5,-3.4 -7.5,-7.5Z" style="fill:#404853;fill-rule:nonzero;"/><path id="Wallet-outer-shadow" serif:id="Wallet outer shadow" d="M122.3,121.7l0,-9.2c0,-6.9 -3.8,-11.5 -10.7,-11.5l-90.4,0c-6.6,0 -13,3 -13,10.7l0,10l114.1,0Z" style="fill:#778391;fill-rule:nonzero;"/><path id="Wallet-inner-shadow" serif:id="Wallet inner shadow" d="M122.3,124l0,-9.2c0,-6.9 -3.8,-11.5 -10.7,-11.5l-90.4,0c-6.6,0 -10.2,1.1 -10.2,10.4c0,9.3 0.2,10.3 0.2,10.3l111.1,0Z" style="fill:#606b78;fill-rule:nonzero;"/><path id="Input-background" serif:id="Input background" d="M59,86l142,0c2.2,0 4,1.8 4,4l0,32c0,2.2 -1.8,4 -4,4l-142,0c-2.2,0 -4,-1.8 -4,-4l0,-32c0,-2.2 1.8,-4 4,-4Z" style="fill:#4b5460;fill-rule:nonzero;"/><path id="Input-dots" serif:id="Input dots" d="M179,107c0,-2.8 2.2,-5 5,-5c2.8,0 5,2.2 5,5c0,2.8 -2.2,5 -5,5c-2.8,0 -5,-2.2 -5,-5Zm-15,0c0,-2.8 2.2,-5 5,-5c2.8,0 5,2.2 5,5c0,2.8 -2.2,5 -5,5c-2.8,0 -5,-2.2 -5,-5Zm-15,0c0,-2.8 2.2,-5 5,-5c2.8,0 5,2.2 5,5c0,2.8 -2.2,5 -5,5c-2.8,0 -5,-2.2 -5,-5Zm-15,0c0,-2.8 2.2,-5 5,-5c2.8,0 5,2.2 5,5c0,2.8 -2.2,5 -5,5c-2.8,0 -5,-2.2 -5,-5Zm-15,0c0,-2.8 2.2,-5 5,-5c2.8,0 5,2.2 5,5c0,2.8 -2.2,5 -5,5c-2.8,0 -5,-2.2 -5,-5Zm-15,0c0,-2.8 2.2,-5 5,-5c2.8,0 5,2.2 5,5c0,2.8 -2.2,5 -5,5c-2.8,0 -5,-2.2 -5,-5Zm-15,0c0,-2.8 2.2,-5 5,-5c2.8,0 5,2.2 5,5c0,2.8 -2.2,5 -5,5c-2.8,0 -5,-2.2 -5,-5Zm-15,0c0,-2.8 2.2,-5 5,-5c2.8,0 5,2.2 5,5c0,2.8 -2.2,5 -5,5c-2.8,0 -5,-2.2 -5,-5Z" style="fill:#56616f;fill-rule:nonzero;"/><path id="Passphrase-shadow" serif:id="Passphrase shadow" d="M122.2,129.3l182.7,0c2.2,0 4,1.8 4,4l0,54.7c0,2.2 -1.8,4 -4,4l-182.7,0c-2.2,0 -4,-1.8 -4,-4l0,-54.7c0,-2.2 1.8,-4 4,-4Z" style="fill:#191a20;fill-opacity:0.42;fill-rule:nonzero;"/><path id="Passphrase-input" serif:id="Passphrase input" d="M119,123l189,0c2.2,0 4,1.8 4,4l0,54.7c0,2.2 -1.8,4 -4,4l-189,0c-2.2,0 -4,-1.8 -4,-4l0,-54.7c0,-2.2 1.8,-4 4,-4Z" style="fill:#d52f2f;fill-rule:nonzero;"/><path id="Passphrase-dots" serif:id="Passphrase dots" d="M263.5,155.9c0,-4.4 3.5,-7.9 7.8,-8c4.4,0 7.9,3.5 8,7.8c0,4.4 -3.5,7.9 -7.8,8l-0.1,0c-4.3,0.1 -7.9,-3.4 -7.9,-7.8Zm-23.7,0c0,-4.4 3.5,-7.9 7.8,-8c4.3,-0.1 7.9,3.5 8,7.8c0,4.4 -3.5,7.9 -7.8,8l-0.1,0c-4.3,0.1 -7.9,-3.4 -7.9,-7.8Zm-23.7,0c0,-4.4 3.5,-7.9 7.8,-8c4.3,-0.1 7.9,3.5 8,7.8c0,4.4 -3.5,7.9 -7.8,8l-0.1,0c-4.3,0.1 -7.9,-3.4 -7.9,-7.8Zm-23.7,0c0,-4.4 3.5,-7.9 7.8,-8c4.3,-0.1 7.9,3.5 8,7.8c0,4.4 -3.5,7.9 -7.8,8l-0.1,0c-4.3,0.1 -7.9,-3.4 -7.9,-7.8Zm-23.7,0c0,-4.4 3.5,-7.9 7.8,-8c4.3,-0.1 7.9,3.5 8,7.8c0,4.4 -3.5,7.9 -7.8,8l-0.1,0c-4.3,0.1 -7.9,-3.4 -7.9,-7.8Zm-23.7,0c0,-4.4 3.5,-7.9 7.8,-8c4.3,-0.1 7.9,3.5 8,7.8c0,4.4 -3.5,7.9 -7.8,8l-0.1,0c-4.3,0.1 -7.9,-3.4 -7.9,-7.8Z" style="fill:#fff;fill-rule:nonzero;"/><path id="Wallet-shadow-down" serif:id="Wallet shadow down" d="M8.2,192.9c0,5.7 3,12.3 13,12.3l96.9,0c6.3,0 12.3,-4.3 12.3,-13l0,-59.7c0,-4.7 -1.8,-11.5 -11.5,-11.5l-100.7,0c-2.8,0 -6.1,-2.3 -6.1,-5.4c0,-0.9 -3.8,-1.8 -3.8,1.5l-0.1,75.8Z" style="fill:#23242c;fill-opacity:0.522;fill-rule:nonzero;"/><path id="Wallet-shadow-up" serif:id="Wallet shadow up" d="M8,186.8c0,5.7 3,12.2 13,12.2l91.8,0c6.3,0 12.2,-4.2 12.2,-13l0,-59.5c0,-4.7 -1.8,-11.4 -11.5,-11.4c-9.7,0 -93.2,0 -96,0c-2.8,0 -6.2,-2.3 -6.2,-5.4c0,-3.5 -3.4,-1.7 -3.4,1.6l0,75.5l0.1,0Z" style="fill:#778391;fill-rule:nonzero;"/><path id="Wallet-background" serif:id="Wallet background" d="M8,186.7c0,5.7 3,12.3 13,12.3l91.8,0c6.3,0 12.2,-4.3 12.2,-13l0,-57.8c0,-4.7 -1.8,-11.5 -11.5,-11.5l-95.6,0c-5.5,0 -8.9,-3.6 -8.9,-6.7c0,-2.9 -1,-1.2 -1,0.6c0,1.8 0,70.4 0,76.1Z" style="fill:#606b78;fill-rule:nonzero;"/><path id="Wallet-dotted-border" serif:id="Wallet dotted border" d="M11,185c2.3,6.5 4.7,7 11,7l85,0c4.9,0 11,-3 11,-8l0,-51c0,-2.3 -2.1,-8 -7,-8l-91,0c-3.9,0 -11,-2.2 -11,-7" style="fill:none;stroke:#444d59;stroke-opacity:0.38;stroke-width:2px;stroke-dasharray:4,6;"/><path id="Wallet-border-shadow" serif:id="Wallet border shadow" d="M126.9,151.6c0.1,-1.6 -1,-2.9 -2.6,-3.1c-0.2,0 -0.3,0 -0.5,0l-11.5,0c-7,0.2 -12.4,6 -12.3,13c0,8.8 6.7,13 12.3,13l11.5,0c1.6,0.1 3,-1.1 3.1,-2.8c0,-0.1 0,-0.2 0,-0.3l0,-19.8Z" style="fill-opacity:0.388;fill-rule:nonzero;"/><path id="Wallet-border-shadow-up" serif:id="Wallet border shadow up" d="M128,149.1c0.1,-1.6 -1.1,-2.9 -2.6,-3.1c-0.2,0 -0.3,0 -0.5,0l-11.4,0c-7,0.2 -12.6,6 -12.4,13c0,8.8 6.8,13 12.4,13l11.5,0c1.6,0.1 3,-1.1 3.1,-2.7c0,-0.1 0,-0.2 0,-0.3l-0.1,-19.9Z" style="fill:#778391;fill-rule:nonzero;"/><path id="Wallet-border-background" serif:id="Wallet border background" d="M128,151.1c0.1,-1.6 -1.1,-2.9 -2.6,-3.1c-0.2,0 -0.3,0 -0.5,0l-11.6,0c-5.1,0 -12.4,3.2 -12.4,12c0,8.8 6.7,12 12.4,12l11.6,0c1.6,0.1 3,-1.1 3.1,-2.7c0,-0.1 0,-0.2 0,-0.3l0,-17.9Z" style="fill:#697584;fill-rule:nonzero;"/><ellipse id="Wallet-border-dot" serif:id="Wallet border dot" cx="109.7" cy="159.6" rx="3.5" ry="3.4" style="fill:#48525e;"/><circle id="Wallet-logo-outer-border" serif:id="Wallet logo outer border" cx="67.5" cy="158.5" r="25.5" style="fill:#56616f;"/><circle id="Wallet-logo-background" serif:id="Wallet logo background" cx="67.5" cy="158.5" r="23.5" style="fill:#4b5460;"/><path id="Wallet-logo" serif:id="Wallet logo" d="M84.5,174.7l-34.2,0c-2.7,-2.9 -4.6,-6.4 -5.6,-10.2l22.6,-23.6l22.8,24c-1.1,3.7 -3,7 -5.6,9.8Z" style="fill:#56616f;fill-rule:nonzero;"/><path id="Wallet-logo-triangle" serif:id="Wallet logo triangle" d="M56,167l22,0l-10.9,-11l-11.1,11Z" style="fill:#4b5460;fill-rule:nonzero;"/><path id="Wallet-logo-glass" serif:id="Wallet logo glass" d="M85,174.4l-0.1,0.2c-4.5,4.8 -10.7,7.5 -17.3,7.5c-12.9,0.1 -23.5,-10.3 -23.5,-23.2c0,-6.8 3,-13.2 8.1,-17.5c0.1,-0.1 0.3,-0.2 0.3,-0.2l32.5,33.2Z" style="fill-opacity:0.32;fill-rule:nonzero;"/></g></svg>