<?xml version="1.0" encoding="UTF-8" standalone="no"?><!DOCTYPE svg PUBLIC "-//W3C//DTD SVG 1.1//EN" "http://www.w3.org/Graphics/SVG/1.1/DTD/svg11.dtd"><svg width="100%" height="100%" viewBox="0 0 328 280" version="1.1" xmlns="http://www.w3.org/2000/svg" xmlns:xlink="http://www.w3.org/1999/xlink" xml:space="preserve" xmlns:serif="http://www.serif.com/" style="fill-rule:evenodd;clip-rule:evenodd;"><g id="Canvas"><path id="Bubbles" d="M61,269c0,-5 4,-9 9,-9c5,0 9,4 9,9c0,5 -4,9 -9,9c-5,0 -9,-4 -9,-9Zm242,-26c0,-1.1 0.9,-2 2,-2c1.1,0 2,0.9 2,2c0,1.1 -0.9,2 -2,2c-1.1,0 -2,-0.9 -2,-2Zm-239,-183.5c0,-7.5 6,-13.5 13.5,-13.5c7.5,0 13.5,6 13.5,13.5c0,7.5 -6,13.5 -13.5,13.5c-7.5,0 -13.5,-6 -13.5,-13.5Zm199,-50c0,-4.1 3.4,-7.5 7.5,-7.5c4.1,0 7.5,3.4 7.5,7.5c0,4.1 -3.4,7.5 -7.5,7.5c-4.1,0 -7.5,-3.4 -7.5,-7.5Z" style="fill:#404853;fill-rule:nonzero;"/><path id="Wallet-outer-shadow" serif:id="Wallet outer shadow" d="M99.2,112.3l0,-7.9c0,-5.9 -3.2,-9.8 -9.2,-9.8l-77.2,0c-5.6,0 -11.1,1.3 -11.1,8c0,6.7 0,9.7 0,9.7l97.5,0Z" style="fill:#778391;fill-rule:nonzero;"/><path id="Wallet-inner-shadow" serif:id="Wallet inner shadow" d="M99.2,114.3l0,-7.9c0,-5.9 -3.2,-9.8 -9.2,-9.8l-77.2,0c-5.6,0 -8.9,2.2 -8.9,8.8c-0.1,3 0.1,5.9 0.4,8.9l94.9,0Z" style="fill:#606b78;fill-rule:nonzero;"/><path id="Desktop-shadow" serif:id="Desktop shadow" d="M81.6,66.5l224.9,0c5.5,0 10,4.5 10,10l0,149.6c0,5.5 -4.5,10 -10,10l-224.9,0c-5.5,0 -10,-4.5 -10,-10l0,-149.6c0,-5.5 4.5,-10 10,-10Z" style="fill-opacity:0.68;fill-rule:nonzero;"/><path id="Desktop-background" serif:id="Desktop background" d="M72.2,59l243.8,0c5.5,0 10,4.5 10,10l0,149.6c0,5.5 -4.5,10 -10,10l-243.8,0c-5.5,0 -10,-4.5 -10,-10l0,-149.6c0,-5.6 4.4,-10 10,-10Z" style="fill:#606b78;fill-rule:nonzero;"/><path id="Desktop-base" serif:id="Desktop base" d="M161.4,240.8l66.3,0c2.8,0 5,2.2 5,5l0,4.2c0,2.8 -2.2,5 -5,5l-66.3,0c-2.8,0 -5,-2.2 -5,-5l0,-4.2c0,-2.8 2.2,-5 5,-5Z" style="fill:#606b78;fill-rule:nonzero;"/><path id="Desktop-screen" serif:id="Desktop screen" d="M73.8,63.7l241.4,0c3.3,0 6,2.7 6,6l0,128.7l-253.4,0l0,-128.7c0,-3.3 2.7,-6 6,-6Z" style="fill:#505b67;fill-rule:nonzero;"/><circle id="Desktop-circle" serif:id="Desktop circle" cx="194.1" cy="213.5" r="6.6" style="fill:#4c5661;"/><path id="Arrow-line" serif:id="Arrow line" d="M38.6,94.8c0,-72.6 97.4,-93.2 144.1,-35.8" style="fill:none;stroke:#d6e1ee;stroke-width:2px;"/><path id="Arrow" d="M176.3,57.1c0,0 6.6,3.6 7.5,2.8c0.9,-0.8 -0.9,-7.5 -0.9,-7.5" style="fill:none;stroke:#d6e1ee;stroke-width:2px;"/><circle id="Coin-border" serif:id="Coin border" cx="191.9" cy="84.2" r="17.7" style="fill:#e4b22d;"/><circle id="Coin-background" serif:id="Coin background" cx="191.8" cy="84.1" r="14.7" style="fill:#d4a527;"/><path id="Coin-logo" serif:id="Coin logo" d="M190.4,90.4l0,-2l-1.8,0l-1,2l-2,0l5.4,-12.2l1.4,0l5.4,12.2l-2,0l-1,-2l-1.8,0l0,2l-2.6,0Zm-0.8,-4.1l4,0l-2,-5.1l-2,5.1Z" style="fill:#ad733b;fill-rule:nonzero;"/><path id="Balance-shadow" serif:id="Balance shadow" d="M243.3,177.7c-2.2,0 -4,-1.8 -4,-4l0,-53.2c0,-0.4 0.1,-0.9 0.2,-1.3c-0.5,-0.9 -0.1,-2.1 0.8,-2.5c0.3,-0.1 0.6,-0.2 0.9,-0.2l33,0c1,0 1.9,0.8 1.9,1.9c0,0.3 -0.1,0.6 -0.2,0.9c0.1,0.4 0.2,0.8 0.2,1.3l0,53.2c0,2.2 -1.8,4 -4,4l-28.8,0l0,-0.1Zm-88.6,-0.1c-2.2,0 -4,-1.8 -4,-4l0,-74.8c0,-2.2 1.8,-4 4,-4l72.1,0c2.2,0 4,1.8 4,4l0,74.9c0,2.2 -1.8,4 -4,4l-72.1,-0.1Zm-27.3,0c-2.2,0 -4,-1.8 -4,-4l0,-55.1c0,-2.2 1.8,-4 4,-4l6.1,0c2.2,0 4,1.8 4,4l0,55.1c0,2.2 -1.8,4 -4,4l-6.1,0Zm115.9,-65.9c-2.2,0 -4,-1.8 -4,-4l0,-8.9c0,-2.2 1.8,-4 4,-4l28.7,0c2.2,0 4,1.8 4,4l0,8.9c0,2.2 -1.8,4 -4,4l-28.7,0Zm-115.9,0c-2.2,0 -4,-1.8 -4,-4l0,-8.9c0,-2.2 1.8,-4 4,-4l6.1,0c2.2,0 4,1.8 4,4l0,8.9c0,2.2 -1.8,4 -4,4l-6.1,0Z" style="fill:#3f4853;fill-rule:nonzero;"/><path id="Sidebar-background" serif:id="Sidebar background" d="M125.5,111.7l9.9,0c2.2,0 4,1.8 4,4l0,55.1c0,2.2 -1.8,4 -4,4l-9.9,0c-2.2,0 -4,-1.8 -4,-4l0,-55.1c0,-2.2 1.8,-4 4,-4Z" style="fill:#d6e1ee;fill-rule:nonzero;"/><path id="Sidebar-logo-placeholder" serif:id="Sidebar logo placeholder" d="M125.5,91.9l9.9,0c2.2,0 4,1.8 4,4l0,9c0,2.2 -1.8,4 -4,4l-9.9,0c-2.2,0 -4,-1.8 -4,-4l0,-9c0,-2.2 1.8,-4 4,-4Z" style="fill:#cb4f51;fill-rule:nonzero;"/><path id="Sidebar-placeholder" serif:id="Sidebar placeholder" d="M125.3,163.1c0,-2.9 2.3,-5.2 5.2,-5.2c2.9,0 5.2,2.3 5.2,5.2c0,2.9 -2.3,5.2 -5.2,5.2c-2.9,-0.1 -5.2,-2.4 -5.2,-5.2Zm1.9,-12.3c0,-1.8 1.5,-3.3 3.3,-3.3c1.8,0 3.3,1.5 3.3,3.3c0,1.8 -1.5,3.3 -3.3,3.3c-1.9,0 -3.3,-1.4 -3.3,-3.3Zm0,-17.9c0,-1.8 1.5,-3.3 3.3,-3.3c1.8,0 3.3,1.5 3.3,3.3c0,1.8 -1.5,3.3 -3.3,3.3c-1.9,0 -3.3,-1.5 -3.3,-3.3Zm0,-11.3c0,-1.8 1.5,-3.3 3.3,-3.3c1.8,0 3.3,1.5 3.3,3.3c0,1.8 -1.5,3.3 -3.3,3.3c-1.9,0 -3.3,-1.5 -3.3,-3.3Z" style="fill:#becee2;fill-rule:nonzero;"/><path id="Main-content-background" serif:id="Main content background" d="M152.8,91.9l75.8,0c2.2,0 4,1.8 4,4l0,74.9c0,2.2 -1.8,4 -4,4l-75.8,0c-2.2,0 -4,-1.8 -4,-4l0,-74.9c0,-2.2 1.8,-4 4,-4Z" style="fill:#d6e1ee;fill-rule:nonzero;"/><path id="Main-content-placeholder" serif:id="Main content placeholder" d="M224.2,167.3c-0.5,0 -0.9,-0.4 -0.9,-0.9c0,-0.5 0.4,-0.9 0.9,-0.9c0.5,0 0.9,0.4 0.9,0.9c0,0.5 -0.4,0.9 -0.9,0.9Zm-9.4,0c-0.5,0 -0.9,-0.4 -0.9,-0.9c0,-0.5 0.4,-0.9 0.9,-0.9l5.6,0c0.5,0 0.9,0.4 0.9,0.9c0,0.5 -0.4,0.9 -0.9,0.9l-5.6,0Zm-14.1,0c-0.5,0 -0.9,-0.4 -0.9,-0.9c0,-0.5 0.4,-0.9 0.9,-0.9l1.9,0c0.5,0 0.9,0.4 0.9,0.9c0,0.5 -0.4,0.9 -0.9,0.9l-1.9,0Zm-20.8,0c-0.5,0 -0.9,-0.4 -0.9,-0.9c0,-0.5 0.4,-0.9 0.9,-0.9l8.5,0c0.5,0 0.9,0.4 0.9,0.9c0,0.5 -0.4,0.9 -0.9,0.9l-8.5,0Zm-12.2,0c-0.5,0 -0.9,-0.4 -0.9,-0.9c0,-0.5 0.4,-0.9 0.9,-0.9l8.5,0c0.5,0 0.9,0.4 0.9,0.9c0,0.5 -0.4,0.9 -0.9,0.9l-8.5,0Zm-8.5,0c-0.5,0 -0.9,-0.4 -0.9,-0.9c0,-0.5 0.4,-0.9 0.9,-0.9l4.7,0c0.5,0 0.9,0.4 0.9,0.9c0,0.5 -0.4,0.9 -0.9,0.9l-4.7,0Zm65,-9.4c-0.5,0 -0.9,-0.4 -0.9,-0.9c0,-0.5 0.4,-0.9 0.9,-0.9c0.5,0 0.9,0.4 0.9,0.9c0,0.5 -0.4,0.9 -0.9,0.9Zm-9.4,0c-0.5,0 -0.9,-0.4 -0.9,-0.9c0,-0.5 0.4,-0.9 0.9,-0.9l5.7,0c0.5,0 0.9,0.4 0.9,0.9c0,0.5 -0.4,0.9 -0.9,0.9l-5.7,0Zm-14.1,0c-0.5,0 -0.9,-0.4 -0.9,-0.9c0,-0.5 0.4,-0.9 0.9,-0.9l1.9,0c0.5,0 0.9,0.4 0.9,0.9c0,0.5 -0.4,0.9 -0.9,0.9l-1.9,0Zm-20.8,0c-0.5,0 -0.9,-0.4 -0.9,-0.9c0,-0.5 0.4,-0.9 0.9,-0.9l8.5,0c0.5,0 0.9,0.4 0.9,0.9c0,0.5 -0.4,0.9 -0.9,0.9l-8.5,0Zm-12.2,0c-0.5,0 -0.9,-0.4 -0.9,-0.9c0,-0.5 0.4,-0.9 0.9,-0.9l8.5,0c0.5,0 0.9,0.4 0.9,0.9c0,0.5 -0.4,0.9 -0.9,0.9l-8.5,0Zm-8.5,0c-0.5,0 -0.9,-0.4 -0.9,-0.9c0,-0.5 0.4,-0.9 0.9,-0.9l4.7,0c0.5,0 0.9,0.4 0.9,0.9c0,0.5 -0.4,0.9 -0.9,0.9l-4.7,0Zm65,-9.4c-0.5,0 -0.9,-0.4 -0.9,-0.9c0,-0.5 0.4,-0.9 0.9,-0.9c0.5,0 0.9,0.4 0.9,0.9c0,0.5 -0.4,0.9 -0.9,0.9Zm-9.4,0c-0.5,0 -0.9,-0.4 -0.9,-0.9c0,-0.5 0.4,-0.9 0.9,-0.9l5.6,0c0.5,0 0.9,0.4 0.9,0.9c0,0.5 -0.4,0.9 -0.9,0.9l-5.6,0Zm-14.1,0c-0.5,0 -0.9,-0.4 -0.9,-0.9c0,-0.5 0.4,-0.9 0.9,-0.9l1.9,0c0.5,0 0.9,0.4 0.9,0.9c0,0.5 -0.4,0.9 -0.9,0.9l-1.9,0Zm-20.8,0c-0.5,0 -0.9,-0.4 -0.9,-0.9c0,-0.5 0.4,-0.9 0.9,-0.9l8.5,0c0.5,0 0.9,0.4 0.9,0.9c0,0.5 -0.4,0.9 -0.9,0.9l-8.5,0Zm-12.2,0c-0.5,0 -0.9,-0.4 -0.9,-0.9c0,-0.5 0.4,-0.9 0.9,-0.9l8.5,0c0.5,0 0.9,0.4 0.9,0.9c0,0.5 -0.4,0.9 -0.9,0.9l-8.5,0Zm-8.5,0c-0.5,0 -0.9,-0.4 -0.9,-0.9c0,-0.5 0.4,-0.9 0.9,-0.9l4.7,0c0.5,0 0.9,0.4 0.9,0.9c0,0.5 -0.4,0.9 -0.9,0.9l-4.7,0Zm65,-9.5c-0.5,0 -0.9,-0.4 -0.9,-0.9c0,-0.5 0.4,-0.9 0.9,-0.9c0.5,0 0.9,0.4 0.9,0.9c0,0.5 -0.4,0.9 -0.9,0.9Zm-9.4,0c-0.5,0 -0.9,-0.4 -0.9,-0.9c0,-0.5 0.4,-0.9 0.9,-0.9l5.6,0c0.5,0 0.9,0.4 0.9,0.9c0,0.5 -0.4,0.9 -0.9,0.9l-5.6,0Zm-14.1,0c-0.5,0 -0.9,-0.4 -0.9,-0.9c0,-0.5 0.4,-0.9 0.9,-0.9l1.9,0c0.5,0 0.9,0.4 0.9,0.9c0,0.5 -0.4,0.9 -0.9,0.9l-1.9,0Zm-20.8,0c-0.5,0 -0.9,-0.4 -0.9,-0.9c0,-0.5 0.4,-0.9 0.9,-0.9l8.5,0c0.5,0 0.9,0.4 0.9,0.9c0,0.5 -0.4,0.9 -0.9,0.9l-8.5,0Zm-12.2,0c-0.5,0 -0.9,-0.4 -0.9,-0.9c0,-0.5 0.4,-0.9 0.9,-0.9l8.5,0c0.5,0 0.9,0.4 0.9,0.9c0,0.5 -0.4,0.9 -0.9,0.9l-8.5,0Zm-8.5,0c-0.5,0 -0.9,-0.4 -0.9,-0.9c0,-0.5 0.4,-0.9 0.9,-0.9l4.7,0c0.5,0 0.9,0.4 0.9,0.9c0,0.5 -0.4,0.9 -0.9,0.9l-4.7,0Zm65,-9.4c-0.5,0 -0.9,-0.4 -0.9,-0.9c0,-0.5 0.4,-0.9 0.9,-0.9c0.5,0 0.9,0.4 0.9,0.9c0.1,0.5 -0.4,0.9 -0.9,0.9Zm-9.4,0c-0.5,0 -0.9,-0.4 -0.9,-0.9c0,-0.5 0.4,-0.9 0.9,-0.9l5.7,0c0.5,0 0.9,0.4 0.9,0.9c0,0.5 -0.4,0.9 -0.9,0.9l-5.7,0Zm-14.1,0c-0.5,0 -0.9,-0.4 -0.9,-0.9c0,-0.5 0.4,-0.9 0.9,-0.9l1.9,0c0.5,0 0.9,0.4 0.9,0.9c0,0.5 -0.4,0.9 -0.9,0.9l-1.9,0Zm-20.8,0c-0.5,0 -0.9,-0.4 -0.9,-0.9c0,-0.5 0.4,-0.9 0.9,-0.9l8.5,0c0.5,0 0.9,0.4 0.9,0.9c0,0.5 -0.4,0.9 -0.9,0.9l-8.5,0Zm-12.2,0c-0.5,0 -0.9,-0.4 -0.9,-0.9c0,-0.5 0.4,-0.9 0.9,-0.9l8.5,0c0.5,0 0.9,0.4 0.9,0.9c0,0.5 -0.4,0.9 -0.9,0.9l-8.5,0Zm-8.5,0c-0.5,0 -0.9,-0.4 -0.9,-0.9c0,-0.5 0.4,-0.9 0.9,-0.9l4.7,0c0.5,0 0.9,0.4 0.9,0.9c0,0.5 -0.4,0.9 -0.9,0.9l-4.7,0Zm65,-9.4c-0.5,0 -0.9,-0.4 -0.9,-0.9c0,-0.5 0.4,-0.9 0.9,-0.9c0.5,0 0.9,0.4 0.9,0.9c0.1,0.5 -0.4,0.9 -0.9,0.9Zm-9.4,0c-0.5,0 -0.9,-0.4 -0.9,-0.9c0,-0.5 0.4,-0.9 0.9,-0.9l5.7,0c0.5,0 0.9,0.4 0.9,0.9c0,0.5 -0.4,0.9 -0.9,0.9l-5.7,0Zm-14.1,0c-0.5,0 -0.9,-0.4 -0.9,-0.9c0,-0.5 0.4,-0.9 0.9,-0.9l1.9,0c0.5,0 0.9,0.4 0.9,0.9c0,0.5 -0.4,0.9 -0.9,0.9l-1.9,0Zm-20.8,0c-0.5,0 -0.9,-0.4 -0.9,-0.9c0,-0.5 0.4,-0.9 0.9,-0.9l8.5,0c0.5,0 0.9,0.4 0.9,0.9c0,0.5 -0.4,0.9 -0.9,0.9l-8.5,0Zm-12.2,0c-0.5,0 -0.9,-0.4 -0.9,-0.9c0,-0.5 0.4,-0.9 0.9,-0.9l8.5,0c0.5,0 0.9,0.4 0.9,0.9c0,0.5 -0.4,0.9 -0.9,0.9l-8.5,0Zm-8.5,0c-0.5,0 -0.9,-0.4 -0.9,-0.9c0,-0.5 0.4,-0.9 0.9,-0.9l4.7,0c0.5,0 0.9,0.4 0.9,0.9c0,0.5 -0.4,0.9 -0.9,0.9l-4.7,0Zm65,-9.4c-0.5,0 -0.9,-0.4 -0.9,-0.9c0,-0.5 0.4,-0.9 0.9,-0.9c0.5,0 0.9,0.4 0.9,0.9c0,0.5 -0.4,0.9 -0.9,0.9l0,0Zm-9.4,0c-0.5,0 -0.9,-0.4 -0.9,-0.9c0,-0.5 0.4,-0.9 0.9,-0.9l5.6,0c0.5,0 0.9,0.4 0.9,0.9c0,0.5 -0.4,0.9 -0.9,0.9l-5.6,0Zm-14.1,0c-0.5,0 -0.9,-0.4 -0.9,-0.9c0,-0.5 0.4,-0.9 0.9,-0.9l1.9,0c0.5,0 0.9,0.4 0.9,0.9c0,0.5 -0.4,0.9 -0.9,0.9l-1.9,0Zm-20.8,0c-0.5,0 -0.9,-0.4 -0.9,-0.9c0,-0.5 0.4,-0.9 0.9,-0.9l8.5,0c0.5,0 0.9,0.4 0.9,0.9c0,0.5 -0.4,0.9 -0.9,0.9l-8.5,0Zm-12.2,0c-0.5,0 -0.9,-0.4 -0.9,-0.9c0,-0.5 0.4,-0.9 0.9,-0.9l8.5,0c0.5,0 0.9,0.4 0.9,0.9c0,0.5 -0.4,0.9 -0.9,0.9l-8.5,0Zm-8.5,0c-0.5,0 -0.9,-0.4 -0.9,-0.9c0,-0.5 0.4,-0.9 0.9,-0.9l4.7,0c0.5,0 0.9,0.4 0.9,0.9c0,0.5 -0.4,0.9 -0.9,0.9l-4.7,0Zm65,-9.4c-0.5,0 -0.9,-0.4 -0.9,-0.9c0,-0.5 0.4,-0.9 0.9,-0.9c0.5,0 0.9,0.4 0.9,0.9c0.1,0.5 -0.4,0.9 -0.9,0.9Zm-9.4,0c-0.5,0 -0.9,-0.4 -0.9,-0.9c0,-0.5 0.4,-0.9 0.9,-0.9l5.6,0c0.5,0 0.9,0.4 0.9,0.9c0,0.5 -0.4,0.9 -0.9,0.9l-5.6,0Zm-14.1,0c-0.5,0 -0.9,-0.4 -0.9,-0.9c0,-0.5 0.4,-0.9 0.9,-0.9l1.9,0c0.5,0 0.9,0.4 0.9,0.9c0,0.5 -0.4,0.9 -0.9,0.9l-1.9,0Zm-20.8,0c-0.5,0 -0.9,-0.4 -0.9,-0.9c0,-0.5 0.4,-0.9 0.9,-0.9l8.5,0c0.5,0 0.9,0.4 0.9,0.9c0,0.5 -0.4,0.9 -0.9,0.9l-8.5,0Zm-12.2,0c-0.5,0 -0.9,-0.4 -0.9,-0.9c0,-0.5 0.4,-0.9 0.9,-0.9l8.5,0c0.5,0 0.9,0.4 0.9,0.9c0,0.5 -0.4,0.9 -0.9,0.9l-8.5,0Zm-8.5,0c-0.5,0 -0.9,-0.4 -0.9,-0.9c0,-0.5 0.4,-0.9 0.9,-0.9l4.7,0c0.5,0 0.9,0.4 0.9,0.9c0,0.5 -0.4,0.9 -0.9,0.9l-4.7,0Z" style="fill:#becee2;fill-rule:nonzero;"/><path id="Content-background" serif:id="Content background" d="M241.4,113.6l32.5,0c2.2,0 4,1.8 4,4l0,53.2c0,2.2 -1.8,4 -4,4l-32.5,0c-2.2,0 -4,-1.8 -4,-4l0,-53.2c0,-2.2 1.8,-4 4,-4Z" style="fill:#d6e1ee;fill-rule:nonzero;"/><path id="Content-placeholder-3" serif:id="Content placeholder 3" d="M249.6,163.5c0,-1 0.8,-1.9 1.9,-1.9c1.1,0 1.9,0.8 1.9,1.9c0,1.1 -0.8,1.9 -1.9,1.9c-1,0 -1.9,-0.8 -1.9,-1.9Zm-6.6,-3.7c0,-2.6 2.1,-4.7 4.7,-4.7c2.6,0 4.7,2.1 4.7,4.7c0,0.1 0,0.2 0,0.3c-1.6,-0.8 -3.6,-0.1 -4.4,1.6c-0.4,0.9 -0.4,1.9 0,2.8c-0.1,0 -0.2,0 -0.3,0c-2.5,0 -4.7,-2.1 -4.7,-4.7Zm13.2,4.7c-0.5,0 -0.9,-0.4 -0.9,-0.9c0,-0.5 0.4,-0.9 0.9,-0.9l13.2,0c0.5,0 0.9,0.4 0.9,0.9c0,0.5 -0.4,0.9 -0.9,0.9l-13.2,0Zm0,-2.8c-0.5,0 -0.9,-0.4 -0.9,-0.9c0,-0.5 0.4,-0.9 0.9,-0.9l5.6,0c0.5,0 0.9,0.4 0.9,0.9c0,0.5 -0.4,0.9 -0.9,0.9l-5.6,0Zm-6.6,-16.1c0,-1 0.8,-1.9 1.9,-1.9c1.1,0 1.9,0.8 1.9,1.9c0,1.1 -0.8,1.9 -1.9,1.9c-1,0 -1.9,-0.8 -1.9,-1.9Zm6.6,1c-0.5,0 -0.9,-0.4 -0.9,-0.9c0,-0.5 0.4,-0.9 0.9,-0.9l13.2,0c0.5,0 0.9,0.4 0.9,0.9c0,0.5 -0.4,0.9 -0.9,0.9l-13.2,0Zm-13.2,-4.7c0,-2.6 2.1,-4.7 4.7,-4.7c2.6,0 4.7,2.1 4.7,4.7c0,0.1 0,0.2 0,0.3c-0.4,-0.2 -0.9,-0.3 -1.4,-0.3c-1.8,0 -3.3,1.5 -3.3,3.3c0,0.5 0.1,1 0.3,1.4c-0.1,0 -0.2,0 -0.3,0c-2.6,0 -4.7,-2.1 -4.7,-4.7Zm13.2,1.9c-0.5,0 -0.9,-0.4 -0.9,-0.9c0,-0.5 0.4,-0.9 0.9,-0.9l5.6,0c0.5,0 0.9,0.4 0.9,0.9c0,0.5 -0.4,0.9 -0.9,0.9l-5.6,0Z" style="fill:#becee2;fill-rule:nonzero;"/><path id="Content-placeholder-2" serif:id="Content placeholder 2" d="M245.9,121.2l8.5,0c0.5,0 0.9,0.4 0.9,0.9c0,0.5 -0.4,0.9 -0.9,0.9l-8.5,0c-0.5,0 -0.9,-0.4 -0.9,-0.9c-0.1,-0.5 0.4,-0.9 0.9,-0.9Z" style="fill:#becee2;fill-rule:nonzero;"/><path id="Content-placeholder" serif:id="Content placeholder" d="M262.8,121.2l8.5,0c0.5,0 0.9,0.4 0.9,0.9c0,0.5 -0.4,0.9 -0.9,0.9l-8.5,0c-0.5,0 -0.9,-0.4 -0.9,-0.9c0,-0.5 0.4,-0.9 0.9,-0.9Z" style="fill:#becee2;fill-rule:nonzero;"/><path id="Content-border" serif:id="Content border" d="M244,127.7l0,-0.9l30.2,0l0,0.9l-30.2,0Zm14.1,-1.8l0,-7.5l0.9,0l0,7.5l-0.9,0Z" style="fill:#cad9ea;fill-rule:nonzero;"/><path id="Placeholder-shadow" serif:id="Placeholder shadow" d="M241.4,91.9l32.5,0c2.2,0 4,1.8 4,4l0,9c0,2.2 -1.8,4 -4,4l-32.5,0c-2.2,0 -4,-1.8 -4,-4l0,-9c0,-2.2 1.8,-4 4,-4Z" style="fill:#303740;fill-rule:nonzero;"/><path id="Placeholder" d="M245.9,103.2c-0.5,0 -0.9,-0.4 -0.9,-0.9c0,-0.5 0.4,-0.9 0.9,-0.9l17.9,0c0.5,0 0.9,0.4 0.9,0.9c0,0.5 -0.4,0.9 -0.9,0.9l-17.9,0Zm0,-3.7c-0.5,0 -0.9,-0.4 -0.9,-0.9c0,-0.5 0.4,-0.9 0.9,-0.9l8.5,0c0.5,0 0.9,0.4 0.9,0.9c0,0.5 -0.4,0.9 -0.9,0.9l-8.5,0Z" style="fill:#495463;fill-rule:nonzero;"/><circle id="Coin-border1" serif:id="Coin border" cx="40.9" cy="105.1" r="17.7" style="fill:#e4b22d;"/><circle id="Coin-background1" serif:id="Coin background" cx="40.8" cy="105" r="14.7" style="fill:#d4a527;"/><path id="Coin-logo1" serif:id="Coin logo" d="M39.5,111.3l0,-2l-1.8,0l-1,2l-2,0l5.3,-12.1l1.4,0l5.4,12.2l-2,0l-1,-2l-1.8,0l0,2l-2.5,-0.1Zm-0.9,-4l4,0l-2,-5.1l-2,5.1Z" style="fill:#ad733b;fill-rule:nonzero;"/><path id="Wallet-base-shadow-down" serif:id="Wallet base shadow down" d="M1.7,171.2c0,4.9 2.6,10.5 11.1,10.5l78.5,0c5.4,0 10.5,-3.6 10.5,-11.1l0,-49c0,-4 -1.6,-9.8 -9.8,-9.8l-81.8,0c-2.4,0 -5.2,-2 -5.2,-4.6c0,-0.8 -3.3,-1.5 -3.3,1.3l0,62.7Z" style="fill:#23242c;fill-opacity:0.6;fill-rule:nonzero;"/><path id="Wallet-base-shadow-up" serif:id="Wallet base shadow up" d="M1.7,165c0,4.9 2.6,10.5 11.1,10.5l78.5,0c5.4,0 10.5,-3.6 10.5,-11.1l0,-48c0,-4 -1.6,-9.8 -9.8,-9.8l-81.8,0c-2.4,0 -5.8,-1.8 -5.8,-4.4c0.1,-2.1 -2.7,-3 -2.7,-0.1c0,2.9 0,58 0,62.9Z" style="fill:#778391;fill-rule:nonzero;"/><path id="Wallet-background-glass" serif:id="Wallet background glass" d="M1.7,166.9c0,4.9 2.6,10.5 11.1,10.5l78.5,0c5.4,0 10.5,-3.6 10.5,-11.1l0,-48c0,-4 -1.6,-9.8 -9.8,-9.8l-81.8,0c-4.7,0 -7.9,-3.3 -7.9,-5.9c0,-0.3 -0.7,-0.6 -0.7,-0.6c0,0 0.1,60 0.1,64.9Z" style="fill:#606b78;fill-rule:nonzero;"/><path id="Wallet-dotted" serif:id="Wallet dotted" d="M3.1,167.4c1,1.5 2.3,2.8 3.7,3.9c1.4,0.6 -0.5,1.3 6,1.3l73.9,0c4.2,0 9.2,-2.9 9.2,-7.2l0,-43.8c0,-2 -1.7,-6.5 -5.9,-6.5l-80.5,0c-2.1,0 -4,-1.1 -5.2,-2.8c-0.1,-0.1 0.9,0.9 0.6,0.5c-0.3,-0.4 -1.9,-2.4 -2,-3.5" style="fill:none;stroke:#444d59;stroke-opacity:0.66;stroke-width:2px;stroke-linecap:round;stroke-linejoin:round;stroke-dasharray:4,6;"/><path id="Wallet-border-shadow" serif:id="Wallet border shadow" d="M103.1,137.9c0.1,-1.3 -0.9,-2.5 -2.2,-2.6c-0.1,0 -0.3,0 -0.4,0l-9.8,0c-6,0.2 -10.6,5.2 -10.5,11.1c0,7.5 5.7,11.1 10.5,11.1l9.8,0c1.4,0.1 2.5,-1 2.6,-2.3c0,-0.1 0,-0.2 0,-0.3l0,-17Z" style="fill-opacity:0.35;fill-rule:nonzero;"/><path id="Wallet-border-glass" serif:id="Wallet border glass" d="M104.4,135.9c0.1,-1.3 -0.9,-2.5 -2.2,-2.6c-0.1,0 -0.3,0 -0.4,0l-10.5,0c-6,0.2 -10.6,5.2 -10.5,11.1c0,7.5 5.7,11.1 10.5,11.1l10.5,0c1.4,0.1 2.5,-1 2.6,-2.3c0,-0.1 0,-0.2 0,-0.3l0,-17Z" style="fill:#778391;fill-rule:nonzero;"/><path id="Wallet-border" serif:id="Wallet border" d="M104.4,137.1c0.1,-1.3 -0.9,-2.4 -2.2,-2.5c-0.1,0 -0.3,0 -0.4,0l-9.8,0c-6,0.2 -10.6,5 -10.5,10.8c0,7.3 5.7,10.8 10.5,10.8l9.8,0c1.4,0.1 2.5,-1 2.6,-2.3c0,-0.1 0,-0.2 0,-0.3l0,-16.5Z" style="fill:#697584;fill-rule:nonzero;"/><ellipse id="Wallet-circle" serif:id="Wallet circle" cx="88.4" cy="144.7" rx="3" ry="2.9" style="fill:#48525e;"/><circle id="Logo-circle" serif:id="Logo circle" cx="52.4" cy="144.1" r="19.3" style="fill:#4b5460;"/><path id="Logo-A" serif:id="Logo A" d="M66.4,157.3l-28.1,0c-2.2,-2.4 -3.8,-5.3 -4.6,-8.4l18.6,-19.5l18.7,19.8c-0.9,3 -2.4,5.8 -4.6,8.1Z" style="fill:#56616f;fill-rule:nonzero;"/><path id="Triangle-shadow" serif:id="Triangle shadow" d="M43.2,151.3l18,0l-8.9,-9.3l-9.1,9.3Z" style="fill:#4b5460;fill-rule:nonzero;"/><path id="Logo-shadow" serif:id="Logo shadow" d="M66.7,157l-0.1,0.1c-7.2,7.8 -19.4,8.3 -27.3,1.1c-7.8,-7.2 -8.3,-19.4 -1.1,-27.3c0.5,-0.5 1,-1 1.6,-1.5l0.2,-0.2l26.7,27.8Z" style="fill-opacity:0.23;fill-rule:nonzero;"/></g></svg>