<?xml version="1.0" encoding="utf-8"?>
<!-- Generator: Adobe Illustrator 24.1.3, SVG Export Plug-In . SVG Version: 6.00 Build 0)  -->
<svg version="1.1" id="Слой_1" xmlns="http://www.w3.org/2000/svg" xmlns:xlink="http://www.w3.org/1999/xlink" x="0px" y="0px"
	 viewBox="0 0 391 116" style="enable-background:new 0 0 391 116;" xml:space="preserve">
<style type="text/css">
	.st0{clip-path:url(#SVGID_2_);}
	.st1{fill:none;stroke:#DBDEE5;stroke-width:2;}
	.st2{fill:none;}
	.st3{fill:#EEF3F5;}
	.st4{fill:none;stroke:#212225;stroke-width:2;}
	.st5{fill:#C9292C;}
	.st6{fill:none;stroke:#212225;stroke-width:2;stroke-linecap:round;}
	.st7{fill:#DBDEE5;}
</style>
<g>
	<defs>
		<rect id="SVGID_1_" width="391" height="116"/>
	</defs>
	<clipPath id="SVGID_2_">
		<use xlink:href="#SVGID_1_"  style="overflow:visible;"/>
	</clipPath>
	<g id="Canvas" class="st0">
		<g id="images_копия" transform="translate(-496 -489)">
			<g id="Группа_2">
				<path id="Прямоугольник_скругл._углы_1_копия_4" class="st1" d="M513,508h39c5.5,0,10,4.5,10,10v54
					c0,5.5-4.5,10-10,10h-39"/>
				<path id="Прямоугольник_скругл._углы_1_копия_3" class="st1" d="M866,582h-29c-5.5,0-10-4.5-10-10
					v-54c0-5.5,4.5-10,10-10h29"/>
				<g id="Прямоугольник_скругл._углы_2_копия_3" transform="translate(516 539)">
					<path class="st2" d="M1.5,0h20C22.3,0,23,0.7,23,1.5l0,0C23,2.3,22.3,3,21.5,3h-20C0.7,3,0,2.3,0,1.5l0,0C0,0.7,0.7,0,1.5,0z"
						/>
					<path class="st1" d="M1.5,1h20C21.8,1,22,1.2,22,1.5l0,0C22,1.8,21.8,2,21.5,2h-20C1.2,2,1,1.8,1,1.5l0,0C1,1.2,1.2,1,1.5,1z"
						/>
				</g>
				<g id="Прямоугольник_скругл._углы_2_копия_3-2" transform="translate(516 549)">
					<path class="st2" d="M1.5,0h10C12.3,0,13,0.7,13,1.5l0,0C13,2.3,12.3,3,11.5,3h-10C0.7,3,0,2.3,0,1.5l0,0C0,0.7,0.7,0,1.5,0z"
						/>
					<path class="st1" d="M1.5,1h10C11.8,1,12,1.2,12,1.5l0,0C12,1.8,11.8,2,11.5,2h-10C1.2,2,1,1.8,1,1.5l0,0C1,1.2,1.2,1,1.5,1z"
						/>
				</g>
				<path id="Прямоугольник_скругл._углы_1_копия" class="st3" d="M800,518h1c5.5,0,10,4.5,10,10v54
					c0,5.5-4.5,10-10,10H602c-5.5,0-10-4.5-10-10v-1h200c4.5,0,8-4.8,8-10V518z"/>
				<g id="Прямоугольник_скругл._углы_1_копия_5" transform="translate(582 508)">
					<path class="st2" d="M10,0h199c5.5,0,10,4.5,10,10v54c0,5.5-4.5,10-10,10H10C4.5,74,0,69.5,0,64V10C0,4.5,4.5,0,10,0z"/>
					<path class="st4" d="M10,1h199c5,0,9,4,9,9v54c0,5-4,9-9,9H10c-5,0-9-4-9-9V10C1,5,5,1,10,1z"/>
				</g>
				<g id="Прямоугольник_скругл._углы_1_копия_6" transform="translate(631 525)">
					<circle class="st5" cx="20" cy="20" r="20"/>
					<circle class="st4" cx="20" cy="20" r="19"/>
				</g>
				<path id="Прямоугольник_скругл._углы_1_копия_7" class="st6" d="M633.3,559.9
					c-8.2,7.4-20.9,6.7-28.2-1.6s-6.7-20.9,1.6-28.2c7.5-6.7,18.7-6.8,26.3-0.3"/>
				<g id="Прямоугольник_скругл._углы_2" transform="translate(688 549)">
					<path class="st5" d="M1.5,0h60C62.3,0,63,0.7,63,1.5l0,0C63,2.3,62.3,3,61.5,3h-60C0.7,3,0,2.3,0,1.5l0,0C0,0.7,0.7,0,1.5,0z"
						/>
					<path class="st4" d="M1.5,1h60C61.8,1,62,1.2,62,1.5l0,0C62,1.8,61.8,2,61.5,2h-60C1.2,2,1,1.8,1,1.5l0,0C1,1.2,1.2,1,1.5,1z"
						/>
				</g>
				<g id="Прямоугольник_скругл._углы_2_копия_2" transform="translate(688 539)">
					<path class="st5" d="M1.5,0h80C82.3,0,83,0.7,83,1.5l0,0C83,2.3,82.3,3,81.5,3h-80C0.7,3,0,2.3,0,1.5l0,0C0,0.7,0.7,0,1.5,0z"
						/>
					<path class="st4" d="M1.5,1h80C81.8,1,82,1.2,82,1.5l0,0C82,1.8,81.8,2,81.5,2h-80C1.2,2,1,1.8,1,1.5l0,0C1,1.2,1.2,1,1.5,1z"
						/>
				</g>
				<path id="Прямоугольник_скругл._углы_1_копия_8" class="st1" d="M874.3,559.9
					c-8.2,7.4-20.9,6.7-28.2-1.6s-6.7-20.9,1.6-28.2c7.5-6.7,18.7-6.8,26.3-0.3"/>
			</g>
			<path id="Прямоугольник_2_копия_6" class="st7" d="M848,604v-21h-7v-2h7v-9h2v9h13v2h-13v21H848z M530,604v-21
				h-13v-2h13v-9h2v9h7v2h-7v21H530z M877,587v-4h-4v-2h4v-4h2v4h4v2h-4v4H877z M501,587v-4h-4v-2h4v-4h2v4h4v2h-4v4H501z M878,528
				v-19h-24v-2h24v-17h2v17h6v2h-6v19H878z M521,528v-19h-6v-2h6v-17h2v17h24v2h-24v19H521z"/>
		</g>
	</g>
</g>
</svg>
