<?xml version="1.0" encoding="utf-8"?>
<!-- Generator: Adobe Illustrator 22.0.1, SVG Export Plug-In . SVG Version: 6.00 Build 0)  -->
<svg version="1.1" id="Layer_1" xmlns="http://www.w3.org/2000/svg" xmlns:xlink="http://www.w3.org/1999/xlink" x="0px" y="0px"
	 viewBox="0 0 550 191" style="enable-background:new 0 0 550 191;" xml:space="preserve">
<style type="text/css">
	.st0{fill:#DBDEE5;}
	.st1{fill:none;stroke:#212225;stroke-width:2;stroke-linecap:round;}
	.st2{fill:none;}
	.st3{fill:none;stroke:#212225;stroke-width:2;}
	.st4{fill:none;stroke:#DBDEE5;stroke-width:2;}
	.st5{fill:#212225;}
</style>
<g id="images" transform="translate(-381 -431)">
	<path id="Прямоугольник_22_копия_11" class="st0" d="M836,622v-7h-38v7h-2v-7h-38v7h-2v-7h-38v7h-2v-7h-22v-2h22
		v-13h2v13h38v-23h2v23h38v-38h-14v-2h14v-7h2v7h38v-27h2v27h38v-38h-10v-2h10v-38h-20v-2h20v-38h-29v-2h29v-7h2v7h14v2h-14v38h38
		v-24h2v24h13v2h-13v38h13v2h-13v10h-2v-10h-38v38h19v2h-19v7h-2v-7h-38v38h11v2h-11v7H836z M836,613v-38h-38v38H836z M916,533v-38
		h-38v38H916z M436,621v-6h-4v-2h4v-38h-21v-2h21v-38h-38v16h-2v-16h-5v-2h5v-38h-15v-2h15v-8h2v8h38v-38h-15v-2h15v-8h2v8h8v2h-8
		v38h18v2h-18v38h18v2h-18v38h38v-13h2v13h12v2h-12v7h-2v-7h-38v38h12v2h-12v6H436z M436,533v-38h-38v38H436z M678,619v-4h-4v-2h4
		v-4h2v4h4v2h-4v4H678z M876,601v-4h-4v-2h4v-4h2v4h4v2h-4v4H876z M396,579v-4h-4v-2h4v-4h2v4h4v2h-4v4H396z M476,539v-4h-4v-2h4v-4
		h2v4h4v2h-4v4H476z M836,536v-4h-4v-2h4v-4h2v4h4v2h-4v4H836z M556,441v-4h-4v-2h4v-4h2v4h4v2h-4v4H556z"/>
	<path id="Прямоугольник_22_копия_12" class="st0" d="M516,467v-12h-38v12h-2v-12h-6v-2h6v-4h2v4h38v-21h2v21h38
		v-1h2v1h38v-11h2v11h38v-15h2v15h8v2h-8v8h-2v-8h-38v8h-2v-8h-38v8h-2v-8h-38v12H516z"/>
	<g id="ledger">
		<path id="Прямоугольник_скругл._углы_973" class="st1" d="M781.9,483H797c5.5,0,10,4.5,10,10v44
			c0,5.5-4.5,10-10,10h-16.6 M510,547c-5.5,0-10-4.5-10-10v-44c0-5.5,4.5-10,10-10h228.7"/>
		<g id="Эллипс_2050" transform="translate(520 498)">
			<circle class="st2" cx="17" cy="17" r="17"/>
			<circle class="st3" cx="17" cy="17" r="16"/>
		</g>
		<path id="Прямоугольник_скругл._углы_973_копия" class="st4" d="M716.8,494l36.9-9.9
			c17-4.6,34.6,5.5,39.1,22.6s-5.5,34.6-22.6,39.1l0,0L524,611.6c-5.3,1.4-10.8-1.7-12.2-7.1l-11.4-42.4c-1.4-5.3,1.7-10.8,7.1-12.2
			c0,0,0,0,0,0l60.2-16.1"/>
		<g id="Эллипс_2050_копия_2" transform="translate(737 492)">
			<circle class="st2" cx="23" cy="23" r="23"/>
			<circle class="st4" cx="23" cy="23" r="22"/>
		</g>
		<g id="Эллипс_2050_копия" transform="translate(743 498)">
			<circle class="st2" cx="17" cy="17" r="17"/>
			<circle class="st3" cx="17" cy="17" r="16"/>
		</g>
		<path id="Ledger-2" class="st0" d="M524.4,583.2l-0.3-1l3.9-1l1,3.9l-1,0.3C526.5,585.7,524.8,584.8,524.4,583.2
			C524.4,583.2,524.4,583.2,524.4,583.2z M529.9,580.7l3.9-1l1,3.9l-3.9,1L529.9,580.7z M535.7,579.1l3.9-1l0.3,1
			c0.4,1.6-0.5,3.2-2.1,3.7c0,0,0,0,0,0l-1,0.3L535.7,579.1z M522.6,576.4l3.9-1l1,3.9l-3.9,1L522.6,576.4z M544.2,564.4l2.3-0.6
			l3.5,13l6.9-1.9l0.5,1.9l-9.2,2.5L544.2,564.4z M526.8,569.1l6.8-1.8c1.6-0.4,3.2,0.5,3.7,2.1l1.8,6.8l-9.7,2.6L526.8,569.1z
			 M561.8,575.2c-0.9-0.3-1.8-0.8-2.4-1.5c-0.7-0.8-1.2-1.8-1.5-2.9c-0.3-1-0.4-2.1-0.2-3.2c0.2-1,0.6-1.8,1.3-2.5
			c0.7-0.7,1.6-1.2,2.6-1.5c0.9-0.2,1.7-0.3,2.6-0.1c0.9,0.2,1.7,0.6,2.4,1.3c0.8,0.9,1.3,1.9,1.6,3.1l0.2,0.8l-8.1,2.2
			c0.2,0.9,0.8,1.7,1.6,2.2c0.8,0.4,1.7,0.5,2.6,0.3c0.6-0.1,1.1-0.4,1.5-0.8c0.4-0.4,0.6-0.9,0.7-1.5l2.2-0.2c0,1-0.4,1.9-1.1,2.6
			c-0.8,0.8-1.8,1.4-2.9,1.7c-0.6,0.2-1.2,0.2-1.7,0.2C562.7,575.4,562.2,575.3,561.8,575.2L561.8,575.2z M562.1,565.4
			c-0.6,0.1-1.1,0.4-1.5,0.8c-0.4,0.4-0.6,0.9-0.8,1.4c-0.1,0.5-0.2,1.1,0,1.6l6-1.6c-0.2-0.8-0.7-1.5-1.4-1.9
			c-0.4-0.3-0.9-0.4-1.4-0.4C562.7,565.3,562.4,565.3,562.1,565.4L562.1,565.4z M521.8,573.5c-0.4-1.6,0.5-3.2,2.1-3.7l1-0.3l1,3.9
			l-3.9,1L521.8,573.5z M587.9,572.6c-0.8-0.2-1.6-0.7-2.1-1.3l1.7-1.3c0.2,0.2,0.5,0.4,0.7,0.5c0.3,0.2,0.7,0.3,1.1,0.4
			c0.5,0.1,1.1,0,1.6-0.2c0.8-0.2,1.4-0.6,1.9-1.2c0.5-0.6,0.6-1.4,0.3-2.1l-0.6-2.2l-0.1,0c-0.1,0.3-0.2,0.6-0.4,0.9
			c-0.2,0.4-0.5,0.8-0.8,1c-0.5,0.4-1,0.6-1.6,0.8c-0.8,0.2-1.7,0.3-2.6,0c-0.9-0.2-1.6-0.7-2.2-1.4c-0.7-0.8-1.2-1.8-1.4-2.8
			c-0.3-1-0.4-2.2-0.2-3.2c0.2-0.9,0.6-1.7,1.2-2.4c0.6-0.7,1.4-1.1,2.3-1.3c0.6-0.2,1.2-0.2,1.8-0.1c0.4,0.1,0.9,0.3,1.2,0.5
			c0.3,0.2,0.5,0.4,0.8,0.7l0.2,0l-0.5-1.8l2.2-0.6l3.1,11.4c0.3,0.8,0.2,1.7-0.1,2.5c-0.3,0.8-0.8,1.4-1.5,1.9
			c-0.8,0.5-1.6,0.9-2.5,1.1c-0.7,0.2-1.4,0.3-2.1,0.3C588.8,572.8,588.3,572.8,587.9,572.6L587.9,572.6z M587.6,558.6
			c-0.6,0.1-1.1,0.5-1.5,1c-0.4,0.5-0.6,1-0.6,1.6c-0.1,0.7,0,1.4,0.2,2c0.2,1,0.7,1.8,1.5,2.5c1.4,1,3.4,0.6,4.3-0.9
			c0.1-0.1,0.1-0.2,0.2-0.3c0.3-0.9,0.4-2,0-2.9c-0.2-1-0.7-1.9-1.5-2.6c-0.5-0.4-1-0.6-1.6-0.6
			C588.2,558.5,587.9,558.5,587.6,558.6L587.6,558.6z M573.9,571.9c-0.9-0.3-1.7-0.8-2.2-1.5c-1.4-1.8-2-4-1.7-6.2
			c0.2-0.9,0.6-1.8,1.2-2.4c0.6-0.7,1.4-1.1,2.3-1.3c0.6-0.2,1.2-0.2,1.8-0.1c0.4,0.1,0.9,0.3,1.2,0.5c0.3,0.2,0.5,0.4,0.8,0.7
			l0.1,0l-1.5-5.5l2.2-0.6l4,14.9l-2.2,0.6l-0.5-1.7l-0.2,0c-0.1,0.3-0.2,0.7-0.4,1c-0.2,0.4-0.5,0.8-0.8,1.1
			c-0.5,0.4-1,0.7-1.6,0.8c-0.4,0.1-0.9,0.2-1.3,0.2C574.8,572.2,574.3,572.1,573.9,571.9L573.9,571.9z M574.5,562.1
			c-0.6,0.1-1.1,0.5-1.5,1c-0.4,0.5-0.6,1.1-0.6,1.7c-0.1,0.7,0,1.4,0.2,2.1c0.2,0.7,0.5,1.3,0.9,1.9c0.4,0.5,0.8,0.9,1.4,1.1
			c0.6,0.2,1.2,0.3,1.8,0.1c0.9-0.2,1.6-0.8,1.9-1.7c0.3-1,0.3-2.1,0-3.1c-0.2-1-0.8-1.9-1.5-2.6c-0.5-0.4-1-0.6-1.6-0.6
			C575,562,574.7,562.1,574.5,562.1L574.5,562.1z M600.2,564.9c-0.9-0.3-1.8-0.8-2.4-1.5c-0.7-0.8-1.2-1.8-1.5-2.9
			c-0.3-1-0.4-2.1-0.2-3.2c0.2-1,0.6-1.8,1.3-2.5c0.7-0.7,1.6-1.2,2.6-1.5c0.9-0.2,1.7-0.3,2.6-0.1c0.9,0.2,1.7,0.6,2.4,1.3
			c0.8,0.9,1.3,1.9,1.6,3.1l0.2,0.8l-8.1,2.2c0.2,0.9,0.8,1.7,1.6,2.2c0.8,0.4,1.7,0.5,2.6,0.3c0.6-0.1,1.1-0.4,1.5-0.8
			c0.4-0.4,0.6-0.9,0.7-1.5l2.2-0.2c0,1-0.4,1.9-1.1,2.6c-0.8,0.8-1.8,1.4-2.9,1.7c-0.6,0.2-1.2,0.2-1.7,0.2
			C601.1,565.1,600.7,565,600.2,564.9L600.2,564.9z M600.6,555.1c-0.6,0.1-1.1,0.4-1.5,0.8c-0.4,0.4-0.6,0.9-0.8,1.4
			c-0.1,0.5-0.2,1.1,0,1.6l6-1.6c-0.2-0.8-0.7-1.5-1.4-1.9c-0.4-0.3-0.9-0.4-1.4-0.4C601.1,555,600.8,555,600.6,555.1L600.6,555.1z
			 M607.7,551.4l2.2-0.6l0.5,1.8l0.1,0c0-0.6,0.3-1.2,0.7-1.7c0.4-0.5,1-0.8,1.7-1c0.1,0,0.3-0.1,0.5-0.1c0.2,0,0.3-0.1,0.5-0.1
			l0.6,2.1c-0.2,0-0.3,0-0.5,0c-0.2,0-0.5,0.1-0.7,0.1c-0.7,0.2-1.4,0.6-1.8,1.2c-0.4,0.6-0.5,1.3-0.3,2l1.8,6.8l-2.2,0.6
			L607.7,551.4z"/>
		<g id="Прямоугольник_скругл._углы_974" transform="translate(577 498)">
			<path class="st2" d="M6,0h123c3.3,0,6,2.7,6,6v22c0,3.3-2.7,6-6,6H6c-3.3,0-6-2.7-6-6V6C0,2.7,2.7,0,6,0z"/>
			<path class="st1" d="M6,1h123c2.8,0,5,2.2,5,5v22c0,2.8-2.2,5-5,5H6c-2.8,0-5-2.2-5-5V6C1,3.2,3.2,1,6,1z"/>
		</g>
		<g id="Группа_1">
			<g id="Прямоугольник_скругл._углы_541" transform="translate(672 506)">
				<path class="st2" d="M2,0h16c1.1,0,2,0.9,2,2v12c0,1.1-0.9,2-2,2H2c-1.1,0-2-0.9-2-2V2C0,0.9,0.9,0,2,0z"/>
				<path class="st1" d="M2,1h16c0.6,0,1,0.4,1,1v12c0,0.6-0.4,1-1,1H2c-0.6,0-1-0.4-1-1V2C1,1.4,1.4,1,2,1z"/>
			</g>
			<g id="Прямоугольник_скругл._углы_541_копия" transform="translate(667 520)">
				<path class="st2" d="M1,0h28c0.6,0,1,0.4,1,1v4c0,0.6-0.4,1-1,1H1C0.4,6,0,5.6,0,5V1C0,0.4,0.4,0,1,0z"/>
				<rect x="1" y="1" class="st1" width="28" height="4"/>
			</g>
			<g id="Прямоугольник_скругл._углы_541_копия_2" transform="translate(594 508)">
				<path class="st2" d="M6,0h19c0.6,0,1,0.4,1,1v14c0,0.6-0.4,1-1,1H6c-3.3,0-6-2.7-6-6V6C0,2.7,2.7,0,6,0z"/>
				<path class="st1" d="M6,1h19l0,0v14l0,0H6c-2.8,0-5-2.2-5-5V6C1,3.2,3.2,1,6,1z"/>
			</g>
			<g id="Прямоугольник_скругл._углы_541_копия_3" transform="translate(618 511)">
				<path class="st2" d="M1,0h8c0.6,0,1,0.4,1,1v8c0,0.6-0.4,1-1,1H1c-0.6,0-1-0.4-1-1V1C0,0.4,0.4,0,1,0z"/>
				<rect x="1" y="1" class="st1" width="8" height="8"/>
			</g>
			<path id="Forma_1_копия_3" class="st5" d="M651.6,520.8l-0.7-0.7c-0.2-0.2-0.2-0.5,0-0.7c0,0,0,0,0,0l2-2
				c0.1-0.1,0.1-0.3,0-0.4c0,0-0.1-0.1-0.2-0.1h-14.2c-0.3,0-0.5-0.2-0.5-0.4c0,0,0,0,0-0.1v-1c0-0.3,0.2-0.5,0.4-0.5c0,0,0,0,0.1,0
				h14.2c0.2,0,0.3-0.1,0.3-0.3c0-0.1,0-0.1-0.1-0.2l-2-2c-0.2-0.2-0.2-0.5,0-0.7c0,0,0,0,0,0l0.7-0.7c0.1-0.1,0.2-0.2,0.4-0.1
				c0.1,0,0.2,0.1,0.3,0.1l4.5,4.5c0.1,0.1,0.2,0.2,0.2,0.3c0,0.1-0.1,0.3-0.2,0.3l-4.5,4.5C652.1,521,651.8,521.1,651.6,520.8
				C651.6,520.9,651.6,520.9,651.6,520.8L651.6,520.8z M603,520v-2h2v2H603z M606,518l2,0c0.1,1-0.7,1.9-1.7,2c-0.1,0-0.2,0-0.3,0
				l0,0L606,518z M602,520L602,520L602,520L602,520z M600,518l2,0v2c-1,0.1-1.9-0.7-2-1.7C600,518.2,600,518.1,600,518z M600,517v-2
				h2v2H600z M603,517v-5l3,0c1.1,0,2,0.8,2,1.9c0,0,0,0.1,0,0.1l0,3L603,517z M676,516v-2h2v2H676z M600,514c-0.1-1,0.7-1.9,1.7-2
				c0.1,0,0.2,0,0.3,0l0,0v2L600,514z M680,512v-2h2v2H680z M676,512v-2h2v2H676z"/>
		</g>
	</g>
</g>
</svg>
