<?xml version="1.0" encoding="utf-8"?>
<!-- Generator: Adobe Illustrator 22.0.1, SVG Export Plug-In . SVG Version: 6.00 Build 0)  -->
<svg version="1.1" id="Layer_1" xmlns="http://www.w3.org/2000/svg" xmlns:xlink="http://www.w3.org/1999/xlink" x="0px" y="0px"
	 viewBox="0 0 540 203" style="enable-background:new 0 0 540 203;" xml:space="preserve">
<style type="text/css">
	.st0{fill:#EEF3F5;}
	.st1{fill:none;stroke:#212225;stroke-width:2;}
	.st2{fill:none;}
	.st3{fill:#212225;}
	.st4{fill:#DE5846;}
	.st5{fill:none;stroke:#DBDEE5;stroke-width:2;}
	.st6{fill:#339A51;}
	.st7{fill:none;stroke:#FFFFFF;stroke-width:4;stroke-linecap:round;}
	.st8{fill:#FFFFFF;}
	.st9{fill:#DBDEE5;}
</style>
<g id="images" transform="translate(-390 -380)">
	<g id="Группа_3">
		<path id="Прямоугольник_скругл._углы_575" class="st0" d="M711.4,552H790c2.2,0.2,4.4,0.1,6.6-0.4
			c-1.6,6.7-7.7,11.4-14.6,11.4h-92C706.8,557.7,711.4,552,711.4,552z M622.2,552H540c-4.8,0-13-4.4-13-12V415
			c-0.1-2.2-0.1-4.3,0-6.5c-6.5,1.8-11,7.7-11,14.5v125c0,8.3,6.7,15,15,15h112.6C635.7,561.2,628.3,557.4,622.2,552L622.2,552z"/>
		<path id="Прямоугольник_скругл._углы_575_копия" class="st1" d="M622.7,553H541c-8.3,0-15-6.7-15-15
			V413c0-8.3,6.7-15,15-15h251c8.3,0,15,6.7,15,15v125c0,8.3-6.7,15-15,15h-81.1"/>
		<g id="Эллипс_2051_копия_2">
			<path class="st2" d="M562,387c0-1.1,0.9-2,2-2s2,0.9,2,2s-0.9,2-2,2S562,388.1,562,387z M552,387c0-1.1,0.9-2,2-2s2,0.9,2,2
				s-0.9,2-2,2S552,388.1,552,387z M542,387c0-1.1,0.9-2,2-2s2,0.9,2,2s-0.9,2-2,2S542,388.1,542,387z"/>
			<path class="st3" d="M544,385c1.1,0,2,0.9,2,2c0,1.1-0.9,2-2,2c-1.1,0-2-0.9-2-2C542,385.9,542.9,385,544,385z M554,385
				c1.1,0,2,0.9,2,2c0,1.1-0.9,2-2,2c-1.1,0-2-0.9-2-2C552,385.9,552.9,385,554,385z M564,385c1.1,0,2,0.9,2,2c0,1.1-0.9,2-2,2
				c-1.1,0-2-0.9-2-2C562,385.9,562.9,385,564,385z"/>
		</g>
		<g id="Прямоугольник_скругл._углы_976" transform="translate(547 408)">
			<path class="st4" d="M3,0h12c1.7,0,3,1.3,3,3v12c0,1.7-1.3,3-3,3H3c-1.7,0-3-1.3-3-3V3C0,1.3,1.3,0,3,0z"/>
			<path class="st1" d="M3,1h12c1.1,0,2,0.9,2,2v12c0,1.1-0.9,2-2,2H3c-1.1,0-2-0.9-2-2V3C1,1.9,1.9,1,3,1z"/>
		</g>
		<g id="Прямоугольник_скругл._углы_976_копия" transform="translate(770 408)">
			<circle class="st2" cx="9" cy="9" r="9"/>
			<circle class="st1" cx="9" cy="9" r="8"/>
		</g>
		<path id="Прямоугольник_скругл._углы_976_копия_2" class="st1" d="M768.9,423.8
			c-3.7,3.3-9.4,2.9-12.7-0.9c-3.3-3.7-2.9-9.4,0.9-12.7c3.4-3,8.5-2.9,11.9,0.1"/>
		<line id="Фигура_2" class="st1" x1="575" y1="416" x2="589" y2="416"/>
		<line id="Фигура_2_копия" class="st1" x1="595" y1="416" x2="609" y2="416"/>
		<line id="Фигура_2_копия_2" class="st1" x1="615" y1="416" x2="629" y2="416"/>
		<line id="Фигура_2_копия_3" class="st1" x1="635" y1="416" x2="649" y2="416"/>
		<path id="Фигура_1" class="st1" d="M537,431h91.3 M706.9,431H795"/>
		<path id="Фигура_1_копия" class="st1" d="M537,439h77 M720.1,439H795"/>
		<g id="Группа_2">
			<path id="Прямоугольник_скругл._углы_977_копия_2" class="st1" d="M726.3,454H791c2.8,0,5,2.2,5,5
				v25c0,2.8-2.2,5-5,5h-52.7"/>
			<path id="Эллипс_2051_копия_4" class="st1" d="M731.4,460.4c2.8-1.1,6,0.2,7.2,3c1.1,2.8-0.2,6-3,7.2
				c-0.7,0.3-1.4,0.4-2.1,0.4"/>
			<path id="Фигура_3_копия_4" class="st1" d="M736,475h5"/>
			<path id="Фигура_3_копия_4-2" class="st1" d="M736.4,479H751"/>
			<path id="Прямоугольник_скругл._углы_977_копия_5" class="st1" d="M597.2,489H550c-2.8,0-5-2.2-5-5
				v-25c0-2.8,2.2-5,5-5h59.8"/>
			<path id="Эллипс_2051_копия_7" class="st1" d="M560.9,469.9c-2.4,1.9-5.9,1.4-7.7-1c-1.9-2.4-1.4-5.9,1-7.7
				c2-1.5,4.7-1.5,6.7,0"/>
			<g id="Эллипс_2051_копия_7-2" transform="translate(561 460)">
				<circle class="st2" cx="5.5" cy="5.5" r="5.5"/>
				<circle class="st1" cx="5.5" cy="5.5" r="4.5"/>
			</g>
			<line id="Фигура_3_копия_7" class="st1" x1="553" y1="475" x2="574" y2="475"/>
			<line id="Фигура_3_копия_7-2" class="st1" x1="553" y1="479" x2="584" y2="479"/>
			<path id="Прямоугольник_скругл._углы_977_копия_3" class="st5" d="M738.6,497H791c2.8,0,5,2.2,5,5
				v25c0,2.8-2.2,5-5,5h-61.2"/>
			<path id="Эллипс_2051_копия_5" class="st5" d="M737.5,503.9c2.5,1.7,3.3,5.1,1.6,7.6c-0.7,1-1.6,1.8-2.8,2.2"/>
			<path id="Фигура_3_копия_5" class="st5" d="M734.8,518h6.2"/>
			<path id="Фигура_3_копия_5-2" class="st5" d="M732.9,522H751"/>
			<path id="Прямоугольник_скругл._углы_977_копия_4" class="st5" d="M604.9,532H550c-2.8,0-5-2.2-5-5
				v-25c0-2.8,2.2-5,5-5h47.5"/>
			<path id="Эллипс_2051_копия_6" class="st5" d="M560.9,512.9c-2.4,1.9-5.9,1.4-7.7-1c-1.9-2.4-1.4-5.9,1-7.7
				c2-1.5,4.7-1.5,6.7,0"/>
			<g id="Эллипс_2051_копия_6-2" transform="translate(561 503)">
				<circle class="st2" cx="5.5" cy="5.5" r="5.5"/>
				<circle class="st5" cx="5.5" cy="5.5" r="4.5"/>
			</g>
			<line id="Фигура_3_копия_6" class="st5" x1="553" y1="518" x2="574" y2="518"/>
			<line id="Фигура_3_копия_6-2" class="st5" x1="553" y1="522" x2="584" y2="522"/>
		</g>
		<g id="Эллипс_550" transform="translate(600 428)">
			<circle class="st2" cx="67.5" cy="67.5" r="67.5"/>
			<circle class="st5" cx="67.5" cy="67.5" r="66.5"/>
		</g>
		<g id="Эллипс_550_копия" transform="translate(610 438)">
			<circle class="st6" cx="57.5" cy="57.5" r="57.5"/>
			<circle class="st1" cx="57.5" cy="57.5" r="56.5"/>
		</g>
		<line id="Фигура_665" class="st7" x1="667" y1="505" x2="667" y2="475"/>
		<line id="Фигура_665-2" class="st7" x1="655" y1="517" x2="679" y2="517"/>
		<path id="Эллипс_1_копия_6" class="st8" d="M665.6,508.3l-7-7.5c-0.8-0.9-0.8-2.3,0-3.2c0.7-0.8,1.9-0.9,2.7-0.2
			c0.1,0.1,0.1,0.1,0.2,0.2l5.5,5.9l5.5-5.9c0.7-0.8,1.9-0.9,2.7-0.2c0.1,0.1,0.1,0.1,0.2,0.2c0.8,0.9,0.8,2.3,0,3.2l-7,7.5
			c-0.7,0.8-1.9,0.9-2.7,0.2C665.7,508.5,665.6,508.4,665.6,508.3L665.6,508.3z"/>
	</g>
	<path id="Прямоугольник_542_копия_4" class="st9" d="M521,583v-16h-38v16h-2v-16h-38v6h-2v-6h-11v-2h11v-38h-21
		v-2h21v-38h-11v-2h11v-38h-38v6h-2v-6h-11v-2h11v-38h-11v-2h11v-25h2v25h38v-25h2v25h38v-25h2v25h38v-10h2v10h2v2h-42v38h22v2h-22
		v38h2v2h-2v38h22v2h-22v38h62v2h-22v16H521z M481,565v-38h-38v38H481z M481,525v-38h-38v38H481z M481,485v-38h-38v38H481z M481,445
		v-38h-38v38H481z M441,445v-38h-38v38H441z M401,473v-4h-4v-2h4v-4h2v4h4v2h-4v4H401z M521,390v-4h-4v-2h4v-4h2v4h4v2h-4v4H521z"/>
	<path id="Прямоугольник_542_копия_5" class="st9" d="M917,583v-25h-38v25h-2v-25h-38v25h-2v-25h-12v-2h12v-38h-2
		v-2h2v-38h-22v-2h22v-38h-22v-2h22v-38h-2v-2h2v-16h2v16h21v2h-21v38h38v-6h2v6h21v2h-21v38h11v2h-11v38h38v-6h2v6h11v2h-11v38h11
		v2h-11v25H917z M917,556v-38h-38v38H917z M877,556v-38h-38v38H877z M877,516v-38h-38v38H877z M877,476v-38h-38v38H877z M808,562v-4
		h-4v-2h4v-4h2v4h4v2h-4v4H808z M917,500v-4h-4v-2h4v-4h2v4h4v2h-4v4H917z"/>
</g>
</svg>
