<svg version="1.1" id="Layer_1" xmlns="http://www.w3.org/2000/svg" x="0" y="0" viewBox="0 0 882 335" xml:space="preserve"><style>.st0{fill:#eef3f5}.st1{stroke:#dbdee5;stroke-width:2}.st1,.st2,.st3{fill:none}.st3{stroke:#212225;stroke-width:2;stroke-linecap:round}.st4{fill:#dbdee5}.st5{fill:#212225}.st7{fill:#de5846}.st8{fill:none;stroke:#212225;stroke-width:2}.st9{fill:#dcdfe6}</style><g id="images" transform="translate(-243 -169)"><g id="_1"><path id="Прямоугольник_скругл._углы_967" class="st0" d="M408.1 461H345c-13.4 0-23-11.1-23-21V288c0-5.5 4.5-10 10-10v6.8s.4 141.9.4 148.3c0 11.1 12.3 18.5 18.1 18.5s49.5-.6 49.5-.6l8.1 10zm50.3 0H526c5.5 0 8.9-3.9 8.9-9.4H524s-24.1-.6-51-.6c-2.3 0-14 3-14 3s-2.5 3.7-.6 7z"/><path id="Прямоугольник_скругл._углы_968" class="st1" d="M365 452h-13c-11 0-20-9-20-20V222c0-11 9-20 20-20h154c11 0 20 9 20 20v147"/><g id="Эллипс_969" transform="translate(521 368)"><circle class="st2" cx="5" cy="5" r="5"/><circle class="st1" cx="5" cy="5" r="4"/></g><g id="Группа_4"><path id="Фигура_16" class="st3" d="M660 452l-185.4.1"/><path id="Фигура_16_копия" class="st3" d="M402 452h-44"/><g id="Группа_5"><path id="Фигура_33" class="st4" d="M458 454s3.3-17.6 4-20.5 2-8.5 2-8.5c1.6 7.5 2.3 15.3 2 23 2-.4 47.9-8.1 54-10s18.1-3.5 23-2 26.8 2.5 28 4-5 0-5 0-7.8 1.8-11 2.1c-1.5.1-4.6-.4-8-1-3.6-.7-7.3-1.1-10.9-1-6.1.5-74.1 13.9-74.1 13.9h-4zm-21.4-136.6c-1.1-3.4-7.2-3.9-8.6-3.4-17.8 6.4-27.1-.4-27.1-.4l1.6-1.5 2.8-2.8c-.2-.2 21.2-16.2 22.7-10.3s13.1 15 13.1 15-3.6 3.5-4.3 3.5c-.1 0-.1-.1-.2-.1zM461 304c.1-3.2 7-2 7-2l-4 5h-.1c-1.5.1-2.8-1-2.9-2.5v-.5zm4-26c2 0 4.7-4.9 2-8-11.1 7.6-21 5-21 5l17-17c2.1.4 4.1 1 6 2 3 1.5 3 15 3 15s-.3 3.2-5 3.2c-.7 0-1.3-.1-2-.2z"/><path id="Фигура_34" class="st5" d="M384.1 452s-1.1-20.1-3.1-33c-2-12.6-10.1-42.5-9.5-42s5.1 8.9 6.5 13 7.9 17.8 9.7 23.8S402 452 402 452h-17.9zm48.9-18l15-14s3.5-.9 1 1c-11.6 8.8-2 18.3-9 21-.9.3-1.8.5-2.7.6-5.1 0-6.2-6.9-4.3-8.6zm149 4c-2.9-2-5.1-2.2-9-3s-6-5-6-5c2.9 1 5.9 1.6 9 2 3.5.2 5 .4 6 2s9 6 9 6-6.1 0-9-2z"/></g><g id="Группа_2"><path id="Фигура_12" class="st3" d="M547 441.4v3.6c0 .7-1.1 5 8 5h84c1.8 0 2-1.1 2-2 0-2.7.5-2.8-1-5s-3.2-3.8-4-5-2.8-1-6-1-34.3.2-34.3.2"/><path id="Фигура_13" class="st3" d="M641 446h-94"/><path id="Фигура_14" class="st3" d="M641.8 448.2s4.2.2 5.2-3.2c.8-2.8 21.6-73.8 22-75s.2-2.9-2-3c-2.1-.1-6.7 0-8 0s-2.9-.5-4 3-20 67-20 67"/><path id="Фигура_15" class="st3" d="M641.2 445.6L666 367"/></g><path id="Фигура_1" class="st3" d="M396 351c-12.2 2.2-15.8 13.2-17 22-1.8 13.3 3.2 26.2 6 33s9.8 30.9 16 43 14.5 18.8 23 20 15.1-4.2 29-6c4-.5 4.2-3.6 4-6s6-27 6-30 .3-7.3-3-7-11.1.8-11.1.8"/><path id="Фигура_2" class="st3" d="M428 372s7.7 18.1 11 22 9.5 8.2 10 15 1.4 11.1-3 15-7.6 9.6-11 11"/><path id="Фигура_3" class="st3" d="M367.9 451.5c-.4-11.5-2.8-15.5-4.9-42.5s5.8-46.1 9.2-52.7 18.7-35.6 19.9-38 3.4-6.3 7.2-2.8 30.5 19 32.7 19.5 1.6 4.1 2 7 11.8 26.3 17 38 7.8 26.8 7 29-2.3 4.1-8.3 6.6"/><path id="Фигура_4" class="st3" d="M405 351s11 0 16 10"/><path id="Фигура_5" class="st3" d="M380 397c-2.1-10.4-11.8-18.6-8-29"/><path id="Фигура_6" class="st3" d="M434.2 343.9c-7-2.1-13.5-5.4-19.2-9.9"/><path id="Фигура_7" class="st3" d="M462.4 420.9s46.1 3.6 53.6 3.1 18.4-5.7 28-5 27 2.4 31.3 2.4 7-1.2 9.6 3.6c2 3.9 4.8 7.2 8.2 10 2.6 2 3.8 4.9 1.9 6s-3 5.2-8 4-9-2.4-15-4-12.4 1.9-20 1-15.1-2.4-23-1-37 8.2-71.4 14.2"/><path id="Фигура_8" class="st3" d="M456.5 412s15.8 2.3 20.5 4 50.1 4.1 55.1 4.3"/><path id="Фигура_9" class="st3" d="M477.7 416.8l-4.5 4.8"/><path id="Фигура_10" class="st3" d="M547.4 419.2s17.5-1.7 22.6-3.2 7.1-1.6 12 0 11.7.2 13 4 6.2 10.7 2 11-7.4-4.5-8-6-4-1-4-1"/><path id="Фигура_11" class="st3" d="M598.1 427c1 1.9 2.3 3.5 3.9 5 2.1 1.6 1 4-2 4s-5-1.2-7-4-7-4-7-4"/><path id="Фигура_22" class="st3" d="M437.8 392c-4.7-10.8-8.7-33.1-12.8-39"/><path id="Фигура_24" class="st3" d="M446 413s-.3 10-6 17"/><path id="Фигура_25" class="st3" d="M434.2 467.8c7.1-3 12.2-9.3 13.8-16.8"/><path id="Фигура_27" class="st3" d="M401 327c-1.8-1.2-3.4-2.5-5-4-.8-.9-9.6 5.9-12 11"/><path id="Фигура_35" class="st3" d="M571 425c8.1 1.7 12-.1 18 6"/><g id="Группа_3"><path id="Фигура_17" class="st3" d="M472 273c1.9 7.3-2.9 10.8-3 27 0 6.6-5.8 2.2-7.8 11-3.6 10.2-8.3 9.1-17.2 5s-11-8.8-11-8.8"/><path id="Фигура_18" class="st3" d="M442 315s-4.4.7-7 6-3.9 13.1-3.9 13.1"/><path id="Фигура_20" class="st3" d="M408 304s-3.1 7.4-9 11"/><path id="Фигура_19" class="st5" d="M468 278c6.2-9.3-1-16-1-16s-2.9 16-23 14c-1.4.6-13.7 4.6-15 19-.4 5.9 1 11.9 4 17 0 0-25.9 2.8-36-7-9.3-9.1-13.5-25.9-6-38 9.1-14.6 17.1-34.3 40-37s45.6 11.3 48 25c3.4 19.4-7 23.6-11 23z"/></g></g><path id="Фигура_734" class="st5" d="M435 297c-4.8-.5-6-9-6-9l6-10s-6.2 16.6 0 19z"/></g><g id="images-2"><path id="a" d="M683.1 358h-22.6M603 294.6V247c0-11 9-20 20-20h212c11 0 21 11 21 22v3" fill="none" stroke="#dbdee5" stroke-width="2" stroke-linecap="round"/><path id="Прямоугольник_скругл._углы_746" class="st1" d="M622 375h-35c-11 0-20-9-20-20v-40c0-11 9-20 20-20h40c11 0 20 9 20 20v35c0 2.7 1.8 8 8 8h6"/><g id="Эллипс_742" transform="translate(621 370)"><circle class="st2" cx="4.5" cy="4.5" r="4.5"/><circle class="st1" cx="4.5" cy="4.5" r="3.5"/></g><path id="Прямоугольник_скругл._углы_748_копия" class="st4" d="M604 343v-5h-5c-1.7 0-3-1.3-3-3s1.3-3 3-3h5v-5c0-1.7 1.3-3 3-3s3 1.3 3 3v5h5c1.7 0 3 1.3 3 3s-1.3 3-3 3h-5v5c0 1.7-1.3 3-3 3s-3-1.3-3-3z"/><path id="Your_wallet_address_" class="st4" d="M737.2 304.2c-.4-.2-.6-.7-.7-1.1l1.4-.1c0 .2.1.3.3.5.4.2.8.2 1.2 0 .1-.1.2-.2.2-.4s-.2-.4-.6-.5l-.9-.2c-1-.2-1.4-.7-1.4-1.4 0-.4.2-.9.6-1.1.5-.3 1-.4 1.5-.4s1 .1 1.5.4c.4.2.6.6.6 1.1l-1.3.1c0-.2-.1-.3-.3-.4-.2-.1-.4-.2-.6-.2-.2 0-.4 0-.5.1-.1.1-.2.2-.2.4 0 .1 0 .2.1.3.1.1.3.2.5.2l.9.2c1 .2 1.4.6 1.4 1.3 0 .3-.1.6-.3.8-.2.3-.5.4-.8.6-.4.1-.7.2-1.1.2-.5 0-1-.1-1.5-.4zm-5.1 0c-.4-.3-.6-.7-.7-1.1l1.4-.1c0 .2.1.3.3.5.2.1.4.2.6.2.2 0 .4 0 .6-.1.1-.1.2-.2.2-.4s-.2-.4-.6-.5l-.9-.2c-1-.2-1.4-.7-1.4-1.4 0-.4.2-.9.6-1.1.5-.3 1-.4 1.5-.4s1 .1 1.5.4c.4.2.6.6.6 1.1l-1.3.1c0-.2-.1-.3-.3-.4-.2-.1-.4-.2-.6-.2-.2 0-.4 0-.5.1-.1.1-.2.2-.2.4 0 .1 0 .2.1.3.1.1.3.2.5.2l.9.2c1 .2 1.4.6 1.4 1.3 0 .3-.1.6-.3.8-.2.3-.5.4-.8.6-.4.1-.7.2-1.1.2-.5-.1-1-.2-1.5-.5zm-4.9.1c-.4-.2-.7-.5-.8-.9-.4-.8-.4-1.8 0-2.7.2-.4.5-.7.8-.9.4-.2.8-.3 1.3-.3.4 0 .8.1 1.2.3.4.2.6.5.8.8.2.4.3.9.3 1.4v.4h-3.4c0 .3.1.6.3.9.2.2.5.3.8.3.2 0 .4 0 .6-.1.2-.1.3-.2.4-.4l1.3.1c-.1.4-.4.8-.7 1.1-.4.3-1 .4-1.5.4-.6-.1-1-.2-1.4-.4zm.5-3.4c-.2.2-.3.4-.3.7h2.1c0-.5-.4-1-.9-1h-.1c-.3 0-.6.1-.8.3zm-31.9 3.4c-.4-.2-.7-.5-.8-.9-.4-.8-.4-1.8 0-2.7.2-.4.5-.7.8-.9.4-.2.8-.3 1.3-.3.4 0 .8.1 1.2.3.4.2.6.5.8.8.2.4.3.9.3 1.4v.4H696c0 .3.1.6.3.9.2.2.5.3.8.3.2 0 .4 0 .6-.1.2-.1.3-.2.4-.4l1.3.1c-.1.4-.4.8-.7 1.1-.5.3-1 .4-1.5.4-.5-.1-1-.2-1.4-.4zm.6-3.4c-.2.2-.3.4-.3.7h2.1c0-.5-.4-1-.9-1h-.1c-.4 0-.6.1-.8.3zm-35.5 3.4c-.4-.2-.7-.5-.8-.9-.4-.8-.4-1.8 0-2.6.2-.4.5-.7.8-.9.8-.4 1.8-.4 2.6 0 .4.2.7.5.8.9.4.8.4 1.8 0 2.6-.2.4-.5.7-.8.9-.9.4-1.8.4-2.6 0zm.5-3.3c-.4.7-.4 1.5 0 2.1.2.3.5.4.8.4.3 0 .6-.1.8-.4.4-.7.4-1.5 0-2.1-.2-.3-.5-.4-.8-.4-.4 0-.7.1-.8.4zm44.8 3.2c-.5-.5-.6-1.3-.2-1.9.2-.2.4-.4.7-.5.3-.1.6-.2.9-.2.3 0 .6-.1.9-.1.2 0 .3-.1.3-.3 0-.2-.1-.3-.2-.5-.2-.1-.3-.2-.5-.2s-.4 0-.6.2c-.1.1-.2.2-.3.4l-1.3-.1c.1-.4.3-.8.7-1.1.4-.3.9-.4 1.5-.4.4 0 .7.1 1 .2.3.1.6.3.8.5.2.3.3.6.3.9v3.3h-1.3v-.7c-.1.2-.3.4-.5.6-.3.2-.6.2-.9.2-.6.1-1 0-1.3-.3zm2.3-1.9c-.1 0-.2.1-.4.1l-.3.1c-.2 0-.4.1-.6.2-.1.1-.2.3-.2.4 0 .2.1.3.2.4.2.1.3.2.5.1.3 0 .5-.1.7-.3.2-.2.3-.4.3-.6v-.5c0 .1-.1.1-.2.1zm-23.6 1.9c-.5-.5-.6-1.3-.2-1.9.2-.2.4-.4.7-.5.3-.1.6-.2.9-.2.3 0 .6-.1.9-.1.2 0 .3-.1.3-.3 0-.2-.1-.3-.2-.5-.2-.1-.3-.2-.5-.2s-.4 0-.6.2c-.1.1-.2.2-.3.4l-1.3-.1c.1-.4.3-.8.7-1.1.4-.3.9-.4 1.5-.4.4 0 .7.1 1 .2.3.1.6.3.8.5.2.3.3.6.3.9v3.3h-1.3v-.7c-.1.2-.3.4-.5.6-.3.2-.6.2-.9.2-.5.1-1 0-1.3-.3zm2.4-1.9c-.1 0-.2.1-.4.1l-.3.1c-.2 0-.4.1-.6.2-.1.1-.2.3-.2.4 0 .2.1.3.2.4.2.1.3.2.5.1.3 0 .5-.1.7-.3.2-.2.3-.4.3-.6v-.5c-.1.1-.2.1-.2.1zm30.5 2c-.3-.2-.6-.5-.7-.8-.2-.4-.3-.9-.3-1.4 0-.5.1-1 .3-1.4.2-.3.4-.6.7-.8.3-.2.6-.3 1-.3.2 0 .5 0 .7.1.2.1.3.2.5.3.1.1.2.3.3.4V298h1.4v6.5h-1.4v-.8h-.1c-.1.1-.2.3-.3.4-.1.1-.3.3-.5.3-.2.1-.4.1-.7.1-.2.1-.6 0-.9-.2zm.7-3.3c-.2.3-.3.7-.3 1 0 .4.1.7.3 1 .3.4.9.5 1.3.2.1-.1.2-.1.2-.2.2-.3.3-.7.3-1 0-.4-.1-.7-.3-1-.2-.3-.5-.4-.8-.4-.3 0-.6.2-.7.4zm-6.5 3.3c-.3-.2-.6-.5-.7-.8-.2-.4-.3-.9-.3-1.4 0-.5.1-1 .3-1.4.2-.3.4-.6.7-.8.3-.2.6-.3 1-.3.2 0 .5 0 .7.1.2.1.3.2.5.3.1.1.2.3.3.4V298h1.4v6.5h-1.4v-.8h-.1c-.1.1-.2.3-.3.4-.1.1-.3.3-.5.3-.2.1-.4.1-.7.1-.2.1-.6 0-.9-.2zm.7-3.3c-.2.3-.3.7-.3 1 0 .4.1.7.3 1 .3.4.9.5 1.3.2.1-.1.2-.1.2-.2.2-.3.3-.7.3-1 0-.4-.1-.7-.3-1-.2-.3-.5-.4-.8-.4-.2 0-.5.2-.7.4zm-11.6 3.2c-.3-.3-.5-.7-.5-1.1v-2.5h-.6v-1h.7v-1.2h1.4v1.2h.9v1h-1v2.4c0 .1 0 .3.1.4.1.1.2.1.3.1H702.7l.2 1c-.1 0-.2 0-.3.1-.1 0-.3 0-.5.1h-.1c-.2-.1-.6-.2-.9-.5zm-35.1-.1c-.3-.4-.5-.9-.5-1.3v-3.1h1.4v2.9c0 .2.1.5.2.7.2.2.4.3.6.2.2 0 .5-.1.7-.3.2-.2.3-.5.3-.7v-2.8h1.4v4.9h-1.3v-.9h-.1c-.1.3-.3.5-.6.7-.3.2-.6.3-.9.3-.5-.1-.9-.3-1.2-.6zm56.8.4v-4.9h1.3v.9h.1c.1-.3.2-.5.5-.7.2-.2.5-.2.7-.2h.4v1.2c-.1 0-.2 0-.3-.1h-.3c-.3 0-.5.1-.8.3-.2.2-.3.5-.3.7v2.8h-1.3zm-30.4 0V298h1.4v6.5h-1.4zm-2.5 0V298h1.4v6.5h-1.4zm-8.8 0l-.9-3.1h-.1l-.9 3.1h-1.5l-1.3-4.9h1.4l.8 3.3.8-3.3h1.4l.8 3.3.8-3.3h1.4l-1.3 4.9h-1.4zm-10 0v-4.9h1.3v.9h.1c.1-.3.2-.5.5-.7.2-.2.5-.2.7-.2h.4v1.2c-.1 0-.2 0-.3-.1h-.3c-.3 0-.5.1-.8.3-.2.2-.3.5-.3.7v2.8h-1.3zm-14.7 0v-2.3L654 298h1.6l1.5 2.8h.1l1.5-2.8h1.6l-2.4 4.2v2.3h-1.5z"/><path id="_10_000.00" class="st4" d="M672 326c.1-.2.1-.5.2-.9l.3-1.2c.1-.5.1-.9.2-1.4v-.6h1.9l-.1.6c0 .5-.1.9-.3 1.4-.1.5-.3.9-.4 1.3-.1.4-.3.7-.3.9l-1.5-.1zm51.4-3.1c-.7-.5-1.2-1.1-1.5-1.9-.4-1-.6-2-.5-3-.1-1.5.3-2.9 1.2-4.1.8-1 2-1.5 3.3-1.5.8 0 1.7.2 2.4.7.7.5 1.2 1.1 1.5 1.9.4 1 .6 2 .5 3 .1 1.5-.3 2.9-1.2 4.2-.8 1-2 1.5-3.3 1.5-.8-.1-1.7-.3-2.4-.8zm.9-7.7c-.8 1.8-.8 3.8 0 5.6.4.8 1.4 1.2 2.3.8.3-.2.6-.4.8-.8.4-.9.6-1.8.6-2.8.1-1-.1-1.9-.6-2.8-.4-.8-1.4-1.2-2.3-.7-.4.1-.6.4-.8.7zm-11.3 7.7c-.7-.5-1.2-1.1-1.5-1.9-.4-1-.6-2-.5-3-.1-1.5.3-2.9 1.2-4.1.8-1 2-1.5 3.3-1.5.8 0 1.7.2 2.4.7.7.5 1.2 1.1 1.5 1.9.4 1 .6 2 .5 3 .1 1.5-.3 2.9-1.2 4.2-.8 1-2 1.5-3.3 1.5-.9-.1-1.7-.3-2.4-.8zm.9-7.7c-.8 1.8-.8 3.8 0 5.6.4.8 1.4 1.2 2.3.8.3-.2.6-.4.8-.8.4-.9.6-1.8.6-2.8.1-1-.1-1.9-.6-2.8-.4-.8-1.4-1.2-2.3-.7-.4.1-.7.4-.8.7zm-14.9 7.7c-.7-.5-1.2-1.1-1.5-1.9-.4-1-.6-2-.5-3-.1-1.5.3-2.9 1.2-4.1.8-1 2-1.5 3.3-1.5.8 0 1.7.2 2.4.7.7.5 1.2 1.1 1.5 1.9.4 1 .6 2 .5 3 .1 1.5-.3 2.9-1.2 4.2-.8 1-2 1.5-3.3 1.5-.9-.1-1.7-.3-2.4-.8zm.9-7.7c-.8 1.8-.8 3.8 0 5.6.4.8 1.4 1.2 2.3.8.3-.2.6-.4.8-.8.4-.9.6-1.8.6-2.8.1-1-.1-1.9-.6-2.8-.4-.8-1.4-1.2-2.3-.7-.4.1-.7.4-.8.7zm-11.3 7.7c-.7-.5-1.2-1.1-1.5-1.9-.4-1-.6-2-.5-3-.1-1.5.3-2.9 1.2-4.1.8-1 2-1.5 3.3-1.5.8 0 1.7.2 2.4.7.7.5 1.2 1.1 1.5 1.9.4 1 .6 2 .5 3 .1 1.5-.3 2.9-1.2 4.2-.8 1-2 1.5-3.3 1.5-.9-.1-1.7-.3-2.4-.8zm.8-7.7c-.8 1.8-.8 3.8 0 5.6.4.8 1.4 1.2 2.3.8.3-.2.6-.4.8-.8.4-.9.6-1.8.6-2.8.1-1-.1-1.9-.6-2.8-.4-.8-1.4-1.2-2.3-.7-.3.1-.6.4-.8.7zm-11.3 7.7c-.7-.5-1.2-1.1-1.5-1.9-.4-1-.6-2-.5-3-.1-1.5.3-2.9 1.2-4.1.8-1 2-1.5 3.3-1.5.8 0 1.7.2 2.4.7.7.5 1.2 1.1 1.5 1.9.4 1 .6 2 .5 3 .1 1.5-.3 2.9-1.2 4.2-.8 1-2 1.5-3.3 1.5-.8-.1-1.6-.3-2.4-.8zm.9-7.7c-.8 1.8-.8 3.8 0 5.6.4.8 1.4 1.2 2.3.8.3-.2.6-.4.8-.8.4-.9.6-1.8.6-2.8.1-1-.1-1.9-.6-2.8-.4-.8-1.4-1.2-2.3-.7-.4.1-.6.4-.8.7zm-15 7.7c-.7-.5-1.2-1.1-1.5-1.9-.4-1-.6-2-.5-3-.1-1.5.3-2.9 1.2-4.1.8-1 2-1.5 3.3-1.5.8 0 1.7.2 2.4.7.7.5 1.2 1.1 1.5 1.9.4 1 .6 2 .5 3 .1 1.5-.3 2.9-1.2 4.2-.8 1-2 1.5-3.3 1.5-.8-.1-1.6-.3-2.4-.8zm.9-7.7c-.8 1.8-.8 3.8 0 5.6.4.8 1.4 1.2 2.3.8.3-.2.6-.4.8-.8.4-.9.6-1.8.6-2.8.1-1-.1-1.9-.6-2.8-.4-.8-1.4-1.2-2.3-.7-.4.1-.6.4-.8.7zm42.6 7.9c-.5-.5-.5-1.3 0-1.8s1.3-.5 1.8 0 .5 1.2.1 1.7l-.1.1c-.5.5-1.3.5-1.8 0zm-50.3.3v-8.7h-.1l-2.5 1.6v-2l2.7-1.7h2.2v10.8h-2.3z"/><path id="Фигура_732" class="st7" d="M658 283s9.3-9.2 10.5-9.3 8.5 7.3 8.5 7.3c-3.5 2.4-7.7 3.8-12 4-6.6 0-7-2-7-2z"/><path id="Фигура_733" class="st7" d="M652 279l11-9c1.9-1.8 3-4.4 3-7v-16s-19.2.8-20 18c-.5 10.8 6 14 6 14z"/><g id="Эллипс_728_копия" transform="translate(645 246)"><circle class="st2" cx="20" cy="20" r="20"/><circle class="st8" cx="20" cy="20" r="19"/></g><path id="Фигура_730" class="st8" d="M651 279s9.1-7.5 10.5-8.6 3.5-3.2 3.5-6.3V247"/><path id="Фигура_731" class="st3" d="M656.9 282.7s8.4-7.3 9.3-8.1c1.3-1.2 3.2-1.2 4.5 0 1.3 1.2 6.9 5.7 6.9 5.7"/></g><g id="Группа_1"><path id="Эллипс_968_копия_3" class="st1" d="M975 422c34.2 0 62-27.8 62-62s-27.8-62-62-62-61 27.8-61 62v1.1c-.3 46.7-38.4 84.2-85.1 83.9s-84.2-38.4-83.9-85.1c.3-46.4 38-83.9 84.5-83.9h.5c14.3 0 26-11.6 26-25.9v-.1"/><path id="_1_копия_5" class="st9" d="M973.3 422.6l3 3c.3.5 1 .6 1.4.3h.1c.5-.4.5-1.1.1-1.6l-2.3-2.1 2-2.1c.5-.4.5-1.1.1-1.6-.3-.5-1-.6-1.4-.3h-.1l-2.9 2.8c-.2.2-.4.5-.4.8.1.2.2.5.4.8z"/><g id="Эллипс_3_копия_4" transform="translate(934 319)"><circle class="st2" cx="42" cy="42" r="42"/><circle class="st1" cx="42" cy="42" r="41"/></g><path id="_" class="st9" d="M983 365.6c0-7.2-9.7-5.7-9.7-9.3 0-1.2 1-2.1 2.6-2.1 1.5 0 2.8.6 3.9 1.7.1.2.4.2.5 0l.1-.1 1.6-2c.2-.1.2-.4.1-.5l-.1-.1c-1.2-1.3-2.8-2.2-4.5-2.6v-2.2c0-.2-.2-.4-.4-.4H975c-.2 0-.4.2-.4.4v2.1c-2.9.4-5 2.8-5 5.7 0 6.8 9.6 5.6 9.6 9.3 0 1.5-1.4 2.4-3.1 2.4-1.7-.1-3.3-.8-4.5-2-.1-.2-.4-.2-.6-.1l-.1.1-1.7 1.9c-.2.2-.2.4 0 .6 1.4 1.6 3.3 2.7 5.4 3.1v2c0 .2.2.4.4.4h2.1c.2 0 .4-.2.4-.4v-2c2.9-.5 5.5-2.6 5.5-5.9z"/><g id="ARK"><path id="Эллипс_3" class="st0" d="M870.1 406.3c11.2-10.5 27.3-29.9 19.1-61.3 13.8 27.7 2.5 61.4-25.2 75.1-16.1 8-35 7.8-51-.5 16.2 8.5 45.9-2.7 57.1-13.3z"/><g id="Эллипс_3_копия_2" transform="translate(768 299)"><circle class="st2" cx="62" cy="62" r="62"/><circle class="st8" cx="62" cy="62" r="61"/></g><path id="Эллипс_3_копия_13" class="st3" d="M795.2 396.1c-19.1-19.2-18.9-50.2.3-69.3s50.2-18.9 69.3.3c19.1 19.2 18.9 50.2-.3 69.3l-.6.6"/><path id="A-2" class="st7" d="M827.4 378v-8H824l-2.5 8H815l11.6-35h6.9l11.5 35h-6.5l-2.5-8h-3.5v8h-5.1zm-1.6-13.8h8.5l-4.1-13.2h-.3l-4.1 13.2z"/></g></g><path id="Прямоугольник_1_копия_11" class="st4" d="M745 504v-26h-38v26h-2v-26h-22v-2h22v-38h-12v-2h12v-29h2v29h38v-9h2v9h4v2h-4v38h38v-9h2v9h11v2h-11v16h-2v-16h-38v26h-2zm0-28v-38h-38v38h38zm-440 28v-26h-39v26h-2v-26h-19v-2h19v-38h-19v-2h19v-54h2v54h19v2h-19v38h39v-4h2v4h38v-4h2v4h23v2h-23v6h-2v-6h-38v26h-2zm800-1v-24h-38v24h-2v-24h-38v15h-2v-15h-38v15h-2v-15h-38v15h-2v-15h-38v15h-2v-15h-24v-2h24v-39h-9v-2h9v-9h2v9h38v-9h2v9h7v2h-7v39h38v-20h2v20h38v-39h-9v-2h9v-9h2v9h38v-10h2v10h38v-37h-9v-2h9v-39h-9v-2h9v-10h2v10h16v2h-16v39h16v2h-16v37h16v2h-16v39h16v2h-16v24h-2zm0-26v-39h-38v39h38zm-40 0v-39h-38v39h38zm-120 0v-39h-38v39h38zm-400 17v-16h-38v6h-2v-6h-20v-2h20v-4h2v4h38v-4h2v4h38v-9h2v9h13v2h-13v11h-2v-11h-38v16h-2zm321-11v-4h-4v-2h4v-4h2v4h4v2h-4v4h-2zm-482-1v-4h-4v-2h4v-4h2v4h4v2h-4v4h-2zm-79-19v-4h-4v-2h4v-4h2v4h4v2h-4v4h-2zm775-60v-4h-4v-2h4v-4h2v4h4v2h-4v4h-2zm-375-6v-4h-4v-2h4v-4h2v4h4v2h-4v4h-2zm360-70v-9h-15v-2h15v-38h-38v9h-2v-9h-16v-2h16v-38h-38v9h-2v-9h-38v9h-2v-9h-38v38h8v2h-8v9h-2v-9h-19v-2h19v-38h-10v-2h10v-39h-38v21h-2v-21h-23v-2h23v-24h2v24h38v-5h2v5h38v-5h2v5h38v-25h2v25h38v-25h2v25h38v-25h2v25h38v-7h2v7h18v2h-18v39h18v2h-18v38h10v2h-10v7h-2v-7h-38v38h10v2h-10v9h-2zm40-51v-38h-38v38h38zm-40 0v-38h-38v38h38zm40-40v-39h-38v39h38zm-40 0v-39h-38v39h38zm-40 0v-39h-38v39h38zm-40 0v-39h-38v39h38zm-40 0v-39h-38v39h38zm-680 85v-4h-4v-2h4v-4h2v4h4v2h-4v4h-2zm0-20v-23h-20v-2h20v-38h-10v-2h10v-38h-22v-2h22v-27h2v27h38v-27h2v27h6v2h-6v38h18v2h-18v3h-2v-3h-38v38h18v2h-18v23h-2zm40-65v-38h-38v38h38zm624 46v-4h-4v-2h4v-4h2v4h4v2h-4v4h-2zm-344-15v-4h-4v-2h4v-4h2v4h4v2h-4v4h-2zm-280-6v-4h-4v-2h4v-4h2v4h4v2h-4v4h-2zm280-14v-8h-21v-2h21v-39h-38v9h-2v-9h-7v-2h7v-25h2v25h38v-25h2v25h38v-15h2v15h21v2h-21v9h-2v-9h-38v39h5v2h-5v8h-2zm359-66v-4h-4v-2h4v-4h2v4h4v2h-4v4h-2z"/></g></svg>