<svg xmlns="http://www.w3.org/2000/svg" width="49.652" height="41.311" viewBox="0 0 49.652 41.311">
  <g id="illustration" transform="translate(-342.741 -2220.75)">
    <path id="Контур_616" data-name="Контур 616" d="M367.628,2234.569h9.644l-.648-1.713L365.5,2221.84h-1.462v11.016l1.462,1.27Z" fill="#3c4249"/>
    <path id="Shape_1383" data-name="Shape 1383" d="M356.56,2260.206H346.3a2.565,2.565,0,0,1-2.564-2.564v-33.329a2.565,2.565,0,0,1,2.564-2.564H364.47a2.56,2.56,0,0,1,1.813.752l10.033,10.035a2.56,2.56,0,0,1,.752,1.813v7.91" transform="translate(0 0)" fill="none" stroke="#007dff" stroke-linecap="round" stroke-linejoin="round" stroke-width="2"/>
    <path id="Shape_1384" data-name="Shape 1384" d="M368.56,2234.569H358.3a2.565,2.565,0,0,1-2.564-2.564V2221.75" transform="translate(8.51 0)" fill="none" stroke="#007dff" stroke-linecap="round" stroke-linejoin="round" stroke-width="2"/>
    <path id="Shape_1325" data-name="Shape 1325" d="M359.5,2181.25v4.354a15.261,15.261,0,0,0,2.564,8.465,15.261,15.261,0,0,0,2.564-8.465" transform="translate(12.665 66.992)" fill="none" stroke="#eef3f5" stroke-linecap="round" stroke-linejoin="round" stroke-width="2"/>
    <path id="Shape_1325-2" data-name="Shape 1325" d="M364.628,2181.25v4.353a15.259,15.259,0,0,1-2.564,8.465,15.259,15.259,0,0,1-2.564-8.465" transform="translate(17.665 66.992)" fill="none" stroke="#eef3f5" stroke-linecap="round" stroke-linejoin="round" stroke-width="2"/>
    <path id="Shape_1650" data-name="Shape 1650" d="M495.25,2489.568a5.127,5.127,0,0,0,5.127-5.127v-2.564a5.127,5.127,0,0,0-5.127-5.127Z" transform="translate(-132.183 -228.508)" fill="none" stroke="#eef3f5" stroke-linecap="round" stroke-linejoin="round" stroke-width="2"/>
    <path id="Shape_1348" data-name="Shape 1348" d="M604.627,2196.318h-2.564a2.565,2.565,0,0,1-2.564-2.564v-7.691a2.565,2.565,0,0,1,2.564-2.563h2.564" transform="translate(-213.234 64.742)" fill="none" stroke="#eef3f5" stroke-linecap="round" stroke-linejoin="round" stroke-width="2"/>
    <path id="Shape_1349" data-name="Shape 1349" d="M599.5,2188h5.127" transform="translate(-213.235 67.933)" fill="none" stroke="#eef3f5" stroke-linecap="round" stroke-linejoin="round" stroke-width="2"/>
  </g>
</svg>
