<svg xmlns="http://www.w3.org/2000/svg" width="49.034" height="41.311" viewBox="0 0 49.034 41.311"><g id="illustration" transform="translate(-342.741 -2220.75)"><path id="Контур_616" data-name="Контур 616" d="M367.628 2234.569h9.644l-.648-1.713-11.124-11.016h-1.462v11.016l1.462 1.27z" fill="#3c4249"/><path id="Shape_1383" data-name="Shape 1383" d="M350.56 2260.206h-4.26a2.565 2.565 0 01-2.564-2.564v-33.329a2.565 2.565 0 012.564-2.564h18.17a2.56 2.56 0 011.813.752l10.033 10.035a2.56 2.56 0 01.752 1.813v7.91" fill="none" stroke="#007dff" stroke-linecap="round" stroke-linejoin="round" stroke-width="2"/><path id="Shape_1384" data-name="Shape 1384" d="M377.07 2234.569h-10.26a2.565 2.565 0 01-2.564-2.564v-10.255" fill="none" stroke="#007dff" stroke-linecap="round" stroke-linejoin="round" stroke-width="2"/><g id="Group_339" data-name="Group 339" transform="translate(-229.183 -319.258)"><g id="java-1" transform="translate(584.488 2567.5)" fill="none" stroke="#eef3f5" stroke-linecap="round" stroke-linejoin="round" stroke-width="2"><path id="Shape_1795" data-name="Shape 1795" d="M589.615 2567.5v10.255a2.564 2.564 0 01-2.564 2.563h-2.564" transform="translate(-584.488 -2567.5)"/><path id="Shape_1692" data-name="Shape 1692" d="M314.368 2524.75H311.8a2.565 2.565 0 00-2.564 2.564c0 3.845 5.127 3.845 5.127 7.691a2.564 2.564 0 01-2.564 2.563h-2.564" transform="translate(-298.986 -2524.75)"/><path id="Shape_1693" data-name="Shape 1693" d="M317.8 2524.75a2.565 2.565 0 00-2.564 2.564V2535a2.564 2.564 0 005.127 0v-7.691a2.565 2.565 0 00-2.563-2.559z" transform="translate(-294.732 -2524.75)"/><path id="Shape_1389" data-name="Shape 1389" d="M363.241 2249.568v-12.818l5.127 12.818v-12.818" transform="translate(-332.899 -2236.75)"/></g></g></g></svg>