<?xml version="1.0" encoding="utf-8"?>
<!-- Generator: Adobe Illustrator 22.0.1, SVG Export Plug-In . SVG Version: 6.00 Build 0)  -->
<svg version="1.1" id="Layer_1" xmlns="http://www.w3.org/2000/svg" xmlns:xlink="http://www.w3.org/1999/xlink" x="0px" y="0px"
	 viewBox="0 0 788 175" style="enable-background:new 0 0 788 175;" xml:space="preserve">
<style type="text/css">
	.st0{fill:none;}
	.st1{fill:none;stroke:#DBDEE5;stroke-width:2;}
	.st2{fill:#DBDEE5;}
	.st3{fill:#DE5846;}
	.st4{fill:none;stroke:#212225;stroke-width:2;}
	.st5{fill:#FFFFFF;}
	.st6{fill:none;stroke:#DBDEE5;stroke-width:2;stroke-linecap:round;}
</style>
<g id="images" transform="translate(-275 -509)">
	<g id="Группа_1">
		<g id="Эллипс_2047_копия" transform="translate(404 573)">
			<circle class="st0" cx="25" cy="25" r="25"/>
			<circle class="st1" cx="25" cy="25" r="24"/>
		</g>
		<g id="Эллипс_2046" transform="translate(425 588)">
			<circle class="st0" cx="4.5" cy="4.5" r="4.5"/>
			<circle class="st1" cx="4.5" cy="4.5" r="3.5"/>
		</g>
		<path id="Фигура_1011" class="st1" d="M420,607c0,0,2.3-5.4,3-6c1-1.2,2.4-1.9,4-2h5c1.6,0,3,0.8,4,2c1.1,1.9,2.1,3.9,3,6"
			/>
		<path id="Прямоугольник_скругл._углы_4_копия_3" class="st2" d="M464,603h43c0.6,0,1,0.4,1,1l0,0
			c0,0.6-0.4,1-1,1h-43c-0.6,0-1-0.4-1-1l0,0C463,603.4,463.4,603,464,603z"/>
		<path id="Прямоугольник_скругл._углы_4_копия_4" class="st2" d="M464,593h22c0.6,0,1,0.4,1,1l0,0
			c0,0.6-0.4,1-1,1h-22c-0.6,0-1-0.4-1-1l0,0C463,593.4,463.4,593,464,593z"/>
		<path id="Фигура_1010" class="st3" d="M567,616.1c0,0,11.9-8.4,13.1-9.2s4.8-1.6,6.9,0s11.5,8.6,11.5,8.6s-4.5,6.8-16.1,6.8
			S567,616.1,567,616.1z M557.8,597.6c0-9.5,7.1-23.8,23.8-23.8V593c0,2.2-0.1,4.2-1.5,5.4s-17.7,13.1-17.7,13.1
			S557.8,607.1,557.8,597.6L557.8,597.6z"/>
		<g id="Эллипс_2047_копия-2" transform="translate(557 573)">
			<circle class="st0" cx="25" cy="25" r="25"/>
			<circle class="st4" cx="25" cy="25" r="24"/>
		</g>
		<path id="Фигура_1007" class="st4" d="M561.6,611.5c0,0,13.1-9.7,14.6-10.8s4.6-3.5,4.6-6.9v-20"/>
		<path id="Фигура_1008" class="st4" d="M566.2,616.1c0,0,12.3-8.8,13.8-10s5.5-1.6,8.5,0.8s10,8.5,10,8.5"/>
		<path id="Прямоугольник_скругл._углы_4" class="st2" d="M617,603h133c0.6,0,1,0.4,1,1l0,0c0,0.6-0.4,1-1,1
			H617c-0.6,0-1-0.4-1-1l0,0C616,603.4,616.4,603,617,603z"/>
		<path id="Прямоугольник_скругл._углы_4_копия_2" class="st2" d="M617,593h22c0.6,0,1,0.4,1,1l0,0
			c0,0.6-0.4,1-1,1h-22c-0.6,0-1-0.4-1-1l0,0C616,593.4,616.4,593,617,593z"/>
		<g id="Прямоугольник_скругл._углы_2" transform="translate(892 575)">
			<path class="st3" d="M10,0h35c5.5,0,10,4.5,10,10v25c0,5.5-4.5,10-10,10H10C4.5,45,0,40.5,0,35V10C0,4.5,4.5,0,10,0z"/>
			<path class="st4" d="M10,1h35c5,0,9,4,9,9v25c0,5-4,9-9,9H10c-5,0-9-4-9-9V10C1,5,5,1,10,1z"/>
		</g>
		<path id="Эллипс_1_копия_2" class="st5" d="M918,604.5c0-0.8,0.7-1.5,1.5-1.5s1.5,0.7,1.5,1.5s-0.7,1.5-1.5,1.5
			S918,605.3,918,604.5z M918,599.5c0-0.8,0.7-1.5,1.5-1.5s1.5,0.7,1.5,1.5s-0.7,1.5-1.5,1.5S918,600.3,918,599.5z M925,598.6
			l-5.5-5.7l-5.5,5.7c-0.4,0.5-1.2,0.5-1.6,0c0,0,0,0,0,0c-0.5-0.5-0.5-1.2,0-1.7l6.3-6.6c0.4-0.5,1.2-0.5,1.6,0c0,0,0,0,0,0
			l6.3,6.6c0.5,0.5,0.5,1.2,0,1.7C926.2,599.1,925.5,599.1,925,598.6C925,598.7,925,598.7,925,598.6L925,598.6z"/>
		<path id="Прямоугольник_скругл._углы_3" class="st1" d="M877,597v-17c0-11,9-20,20-20h45c11,0,20,9,20,20
			v35c0,11-9,20-20,20"/>
		<g id="Эллипс_2047" transform="translate(872 597)">
			<circle class="st0" cx="5" cy="5" r="5"/>
			<circle class="st1" cx="5" cy="5" r="4"/>
		</g>
		<g id="Эллипс_2047_копия_2" transform="translate(690 555)">
			<circle class="st0" cx="5" cy="5" r="5"/>
			<circle class="st1" cx="5" cy="5" r="4"/>
		</g>
		<path id="Прямоугольник_скругл._углы_3_копия" class="st1" d="M962,580v35c0,11-9,20-20,20H398
			c-11,0-20-9-20-20v-35c0-11,9-20,20-20h294"/>
		<path id="Прямоугольник_скругл._углы_5" class="st6" d="M378,664c0-11,9-20,20-20h543c11,0,20,9,20,20"/>
		<path id="Прямоугольник_скругл._углы_5_копия" class="st6" d="M961,530c0,11-9,20-20,20H398
			c-11,0-20-9-20-20"/>
	</g>
	<path id="Прямоугольник_2_копия_6" class="st2" d="M571,684v-6h-14v-2h14v-14h2v14h38v-7h2v7h14v2h-14v3h-2v-3
		h-38v6H571z M331,684v-6h-16v-2h16v-38h-25v-2h25v-38h-38v11h-2v-11h-16v-2h16v-38h-16v-2h16v-15h2v15h38v-32h2v32h38v-9h2v9h3v2
		h-3v11h-2v-11h-38v38h23v2h-23v38h23v2h-23v38h38v-3h2v3h12v2h-12v5h-2v-5h-38v6H331z M331,596v-38h-38v38H331z M399,682v-4h-4v-2
		h4v-4h2v4h4v2h-4v4H399z M611,662v-4h-4v-2h4v-4h2v4h4v2h-4v4H611z M971,652v-14h-6v-2h6v-6h2v6h38v-38h-18v-2h18v-38h-33v-2h33v-7
		h2v7h38v-38h-20v-2h20v-7h2v7h10v2h-10v38h10v2h-10v38h10v2h-10v10h-2v-10h-38v38h22v2h-22v10h-2v-10h-38v14H971z M1051,596v-38
		h-38v38H1051z M1049,642v-4h-4v-2h4v-4h2v4h4v2h-4v4H1049z M291,629v-4h-4v-2h4v-4h2v4h4v2h-4v4H291z M731,531v-13h-38v8h-2v-8h-27
		v-2h27v-2h2v2h38v-7h2v7h1v2h-1v13H731z M491,531v-13h-38v13h-2v-13h-16v-2h16v-7h2v7h38v-7h2v7h12v2h-12v13H491z M1011,522v-4h-4
		v-2h4v-4h2v4h4v2h-4v4H1011z M747,522v-4h-4v-2h4v-4h2v4h4v2h-4v4H747z"/>
</g>
</svg>
