<?xml version="1.0" encoding="utf-8"?>
<!-- Generator: Adobe Illustrator 24.2.0, SVG Export Plug-In . SVG Version: 6.00 Build 0)  -->
<svg version="1.1" id="Слой_1" xmlns="http://www.w3.org/2000/svg" xmlns:xlink="http://www.w3.org/1999/xlink" x="0px" y="0px"
	 viewBox="0 0 405 335" style="enable-background:new 0 0 405 335;" xml:space="preserve">
<style type="text/css">
	.st0{fill:#DBDEE5;}
	.st1{fill:none;stroke:#DBDEE5;stroke-width:2;}
	.st2{fill:#EEF3F5;}
	.st3{fill:none;}
	.st4{fill:#212225;}
	.st5{fill:#DE5846;}
	.st6{fill:#FFFFFF;}
</style>
<g id="images" transform="translate(-464 -156)">
	<path id="Прямоугольник_1_копия_12" class="st0" d="M845,491v-27h-38v27h-2v-27h-6v-2h6v-38h-18v-2h18v-3h2v3h38
		v-38h-18v-2h18v-23h2v23h20v2h-20v38h10v2h-10v38h22v2h-22v27H845z M845,462v-38h-38v38H845z M565,489v-25h-38v25h-2v-25h-38v15h-2
		v-15h-21v-2h21v-9h2v9h38v-39h-5v-2h5v-8h2v8h21v2h-21v39h38v-9h2v9h7v2h-7v25H565z M805,409v-4h-4v-2h4v-4h2v4h4v2h-4v4H805z
		 M525,403v-4h-4v-2h4v-4h2v4h4v2h-4v4H525z M845,349v-4h-4v-2h4v-4h2v4h4v2h-4v4H845z M846,278v-54h-19v-2h19v-38h-39v4h-2v-4h-38
		v4h-2v-4h-23v-2h23v-6h2v6h38v-26h2v26h39v-26h2v26h19v2h-19v38h19v2h-19v54H846z M805,207v-4h-4v-2h4v-4h2v4h4v2h-4v4H805z
		 M525,193v-9h-13v-2h13v-11h2v11h38v-16h2v16h38v-6h2v6h20v2h-20v4h-2v-4h-38v4h-2v-4h-38v9H525z M726,188v-4h-4v-2h4v-4h2v4h4v2
		h-4v4H726z"/>
	<path id="Прямоугольник_скругл._углы_969" class="st1" d="M601,389V224c0-5.5,4.5-10,10-10h130
		c5.5,0,10,4.5,10,10v21"/>
	<g id="Группа_6">
		<path id="Прямоугольник_скругл._углы_969_копия_4" class="st2" d="M727,454c6.7,1.8,10.7-2.6,12-7
			s47-176.4,47-176.4l-41.2,189.5c-1.4,5.3-6.9,8.5-12.2,7.1L609,423.6C609,423.6,720.3,452.2,727,454z"/>
		<g id="Прямоугольник_скругл._углы_969_копия_5">
			<path class="st3" d="M656.4,218.8L782,252.4c5.3,1.4,8.5,6.9,7.1,12.2l-49.2,183.5c-1.4,5.3-6.9,8.5-12.2,7.1L602,421.6
				c-5.3-1.4-8.5-6.9-7.1-12.2l49.2-183.5C645.6,220.5,651.1,217.3,656.4,218.8C656.4,218.8,656.4,218.8,656.4,218.8z"/>
			<path class="st4" d="M653.8,220.4c-3.6,0-6.8,2.4-7.7,5.9l-49.2,183.5c-1.1,4.3,1.4,8.7,5.7,9.8l125.6,33.6
				c0.7,0.2,1.4,0.3,2.1,0.3c3.6,0,6.8-2.4,7.7-5.9l49.2-183.5c0.6-2.1,0.3-4.2-0.8-6.1c-1.1-1.9-2.8-3.2-4.9-3.7l-125.6-33.6
				C655.2,220.5,654.5,220.4,653.8,220.4 M653.8,218.4c0.9,0,1.7,0.1,2.6,0.3L782,252.4c5.3,1.4,8.5,6.9,7.1,12.2l-49.2,183.5
				c-1.2,4.5-5.2,7.4-9.7,7.4c-0.9,0-1.7-0.1-2.6-0.3L602,421.6c-5.3-1.4-8.5-6.9-7.1-12.2l49.2-183.5
				C645.3,221.4,649.4,218.4,653.8,218.4z"/>
		</g>
		<g id="Прямоугольник_скругл._углы_971_копия_2">
			<path class="st3" d="M727.3,444.8l-4.8-1.3c-1.6-0.4-2.5-2.1-2.1-3.7l1.3-4.8c0.4-1.6,2.1-2.6,3.7-2.1c0,0,0,0,0,0l4.8,1.3
				c1.6,0.4,2.6,2.1,2.1,3.7c0,0,0,0,0,0l-1.3,4.8C730.5,444.3,728.9,445.2,727.3,444.8L727.3,444.8z M612.4,414l-4.8-1.3
				c-1.6-0.4-2.6-2.1-2.1-3.7c0,0,0,0,0,0l1.3-4.8c0.4-1.6,2.1-2.6,3.7-2.1c0,0,0,0,0,0l4.8,1.3c1.6,0.4,2.5,2.1,2.1,3.7l-1.3,4.8
				C615.6,413.5,614,414.4,612.4,414L612.4,414z M773.6,271.9l-4.8-1.3c-1.6-0.4-2.5-2.1-2.1-3.7l1.3-4.8c0.4-1.6,2.1-2.6,3.7-2.1
				c0,0,0,0,0,0l4.8,1.3c1.6,0.4,2.6,2.1,2.1,3.7c0,0,0,0,0,0l-1.3,4.8C776.9,271.4,775.2,272.3,773.6,271.9L773.6,271.9z
				 M658.7,241.1l-4.8-1.3c-1.6-0.4-2.6-2.1-2.1-3.7c0,0,0,0,0,0l1.3-4.8c0.4-1.6,2.1-2.5,3.7-2.1l4.8,1.3c1.6,0.4,2.5,2.1,2.1,3.7
				l-1.3,4.8C661.9,240.6,660.3,241.5,658.7,241.1C658.7,241.1,658.7,241.1,658.7,241.1L658.7,241.1z"/>
			<path class="st0" d="M728.1,442.9c0.5,0,0.8-0.3,1-0.7l1.3-4.8c0.1-0.5-0.2-1.1-0.7-1.2l-4.8-1.3c-0.1,0-0.2,0-0.3,0
				c-0.5,0-0.8,0.3-1,0.7l-1.3,4.8c-0.1,0.3,0,0.6,0.1,0.8c0.1,0.1,0.3,0.4,0.6,0.5l4.8,1.3C727.9,442.9,728,442.9,728.1,442.9
				 M613.1,412.1c0.5,0,0.8-0.3,1-0.7l1.3-4.8c0.1-0.3,0-0.6-0.1-0.8c-0.1-0.1-0.3-0.4-0.6-0.5l-4.8-1.3c-0.1,0-0.2,0-0.3,0
				c-0.5,0-0.8,0.3-1,0.7l-1.3,4.8c-0.1,0.3,0,0.6,0.1,0.8c0.1,0.1,0.3,0.4,0.6,0.5l4.8,1.3C613,412.1,613,412.1,613.1,412.1
				 M774.4,270c0.5,0,0.8-0.3,1-0.7l1.3-4.8c0.1-0.5-0.2-1.1-0.7-1.2l-4.8-1.3c-0.1,0-0.2,0-0.3,0c-0.5,0-0.8,0.3-1,0.7l-1.3,4.8
				c-0.1,0.3,0,0.6,0.1,0.8c0.1,0.1,0.3,0.4,0.6,0.5l4.8,1.3C774.2,270,774.3,270,774.4,270 M659.5,239.2c0.5,0,0.8-0.3,1-0.7
				l1.3-4.8c0.1-0.3,0-0.6-0.1-0.8c-0.1-0.1-0.3-0.4-0.6-0.5l-4.8-1.3c-0.1,0-0.2,0-0.3,0c-0.5,0-0.8,0.3-1,0.7l-1.3,4.8
				c-0.1,0.5,0.2,1.1,0.7,1.2l4.8,1.3C659.3,239.2,659.4,239.2,659.5,239.2 M728.1,444.9c-0.3,0-0.5,0-0.8-0.1l-4.8-1.3
				c-1.6-0.4-2.5-2.1-2.1-3.7l1.3-4.8c0.4-1.3,1.6-2.2,2.9-2.2c0.3,0,0.5,0,0.8,0.1l4.8,1.3c1.6,0.4,2.5,2.1,2.1,3.7l-1.3,4.8
				C730.6,444,729.4,444.9,728.1,444.9z M613.1,414.1c-0.3,0-0.5,0-0.8-0.1l-4.8-1.3c-1.6-0.4-2.6-2.1-2.1-3.7l1.3-4.8
				c0.4-1.3,1.6-2.2,2.9-2.2c0.3,0,0.5,0,0.8,0.1l4.8,1.3c1.6,0.4,2.6,2.1,2.1,3.7l-1.3,4.8C615.7,413.2,614.5,414.1,613.1,414.1z
				 M774.4,272c-0.3,0-0.5,0-0.8-0.1l-4.8-1.3c-1.6-0.4-2.6-2.1-2.1-3.7l1.3-4.8c0.4-1.3,1.6-2.2,2.9-2.2c0.3,0,0.5,0,0.8,0.1
				l4.8,1.3c1.6,0.4,2.6,2.1,2.1,3.7l-1.3,4.8C776.9,271.1,775.7,272,774.4,272z M659.5,241.2c-0.3,0-0.5,0-0.8-0.1l-4.8-1.3
				c-1.6-0.4-2.6-2.1-2.1-3.7l1.3-4.8c0.4-1.3,1.6-2.2,2.9-2.2c0.3,0,0.5,0,0.8,0.1l4.8,1.3c1.6,0.4,2.6,2.1,2.1,3.7l-1.3,4.8
				C662,240.3,660.8,241.2,659.5,241.2z"/>
		</g>
		<path id="Прямоугольник_скругл._углы_970" class="st2" d="M632.4,389.4l84,22.5c1.5,0.4,4.8-2.5,4.4-0.9
			l-1.8,6.8c-0.4,1.6-2.1,2.5-3.7,2.1l-85-22.8c-1.6-0.4-2.5-2.1-2.1-3.7l1.8-6.8C630.5,385.1,631.3,389.1,632.4,389.4z"/>
		<g id="Прямоугольник_скругл._углы_969_копия">
			<path class="st5" d="M730.2,345.2L654.8,325l16.8-62.8c0.4-1.3,1.5-2.2,2.9-2.2c0.3,0,0.5,0,0.8,0.1l69.5,18.6
				c0.8,0.2,1.4,0.7,1.8,1.4c0.4,0.7,0.5,1.5,0.3,2.3L730.2,345.2z"/>
			<path class="st4" d="M674.6,261c-0.9,0-1.7,0.6-1.9,1.5l-16.6,61.8l73.4,19.7l16.6-61.8c0.1-0.5,0.1-1.1-0.2-1.5
				c-0.3-0.5-0.7-0.8-1.2-0.9L675.1,261C674.9,261,674.7,261,674.6,261 M674.6,259c0.3,0,0.7,0,1,0.1l69.5,18.6
				c2.1,0.6,3.4,2.8,2.8,4.9l-17.1,63.8l-77.3-20.7l17.1-63.8C671.2,260.1,672.8,259,674.6,259z"/>
		</g>
		<path id="Прямоугольник_скругл._углы_969_копия_3" class="st4" d="M632.9,376l-2.6,9.7
			c-0.6,2.1,0.7,4.3,2.8,4.9c0,0,0,0,0,0l83.1,22.3c2.1,0.6,4.3-0.7,4.9-2.8c0,0,0,0,0,0l2.6-9.7l-4.6,1.9L636,380L632.9,376z"/>
		<g id="Прямоугольник_скругл._углы_969_копия_2">
			<path class="st3" d="M654.1,323.8l77.3,20.7l-7.7,55.9c-0.6,2.1-2.8,3.4-4.9,2.8c0,0,0,0,0,0l-83.1-22.3
				c-2.1-0.6-3.4-2.8-2.8-4.9c0,0,0,0,0,0L654.1,323.8z"/>
			<path class="st4" d="M655.3,326.1l-20.5,50.5c-0.1,0.5,0,1,0.2,1.4c0.3,0.5,0.7,0.8,1.2,0.9l83.1,22.3c0.2,0,0.3,0.1,0.5,0.1
				c0.9,0,1.6-0.6,1.9-1.4l7.5-54L655.3,326.1 M654.1,323.7l77.3,20.7l-7.7,55.9c-0.5,1.8-2.1,3-3.9,3c-0.3,0-0.7,0-1-0.1
				l-83.1-22.3c-2.1-0.6-3.4-2.8-2.8-4.9L654.1,323.7z"/>
		</g>
		<path id="ON" class="st4" d="M693.9,376.6l-4.1-11.9l-0.1,0l-2.7,10.1l-3.3-0.9l4.3-16l2.9,0.8l4,11.9l0.1,0l2.7-10.1l3.3,0.9
			l-4.3,16L693.9,376.6z M674,371.5c-4.1-1.1-6.5-5-5.1-10.2c1.4-5.2,5.3-7.4,9.5-6.3c4.1,1.1,6.5,4.9,5.1,10.2
			c-1.2,4.3-4.1,6.5-7.4,6.5C675.4,371.8,674.7,371.7,674,371.5L674,371.5z M672.3,362.2c-0.9,3.4,0.2,5.6,2.5,6.3s4.4-0.8,5.3-4.2
			s-0.2-5.6-2.5-6.3c-0.4-0.1-0.7-0.1-1.1-0.1C674.6,357.9,673,359.4,672.3,362.2L672.3,362.2z"/>
		<path id="OFF" class="st6" d="M706.4,311.1l3-11.2l7.4,2l-0.5,2l-5.1-1.4l-0.7,2.7l4.6,1.2l-0.5,2l-4.6-1.2l-1.2,4.6L706.4,311.1z
			 M697.4,308.6l3-11.2l7.4,2l-0.5,2l-5.1-1.4l-0.7,2.7l4.6,1.2l-0.5,2l-4.6-1.2l-1.2,4.6L697.4,308.6z M690.3,306.9
			c-3-0.8-4.7-3.5-3.7-7.2c1-3.7,3.8-5.2,6.8-4.4c3,0.8,4.7,3.5,3.7,7.2c-0.8,3-2.9,4.6-5.3,4.6C691.3,307.1,690.8,307,690.3,306.9
			L690.3,306.9z M689,300.4c-0.6,2.4,0.1,4,1.9,4.4s3.2-0.5,3.8-2.9s-0.1-4-1.9-4.4c-0.3-0.1-0.5-0.1-0.8-0.1
			C690.6,297.4,689.5,298.4,689,300.4L689,300.4z"/>
	</g>
</g>
</svg>
