<svg xmlns="http://www.w3.org/2000/svg" xmlns:xlink="http://www.w3.org/1999/xlink" viewBox="0 0 50 43">
  <defs>
    <style>
      .cls-1 {
        clip-path: url(#clip-Canvas);
      }

      .cls-2 {
        fill: #c9d0df;
      }

      .cls-3 {
        fill: rgba(0,0,0,0);
      }
    </style>
    <clipPath id="clip-Canvas">
      <rect width="50" height="43"/>
    </clipPath>
  </defs>
  <g id="Canvas" class="cls-1">
    <rect class="cls-3" width="50" height="43"/>
    <path id="Forma_1" data-name="Forma 1" class="cls-2" d="M24.651,16.581,2,40,24.651,4,47.138,40Zm-10.2,15.9,3.619-3.757H31.178l3.62,3.757Zm6.2-6.372,4-4.03,3.949,4.03Zm19.869-3.5,1.746-1.035-.815-2.021.452-.408a5.851,5.851,0,0,0,.808-.9l.357-.491,2.1.59.628-1.78-2.011-.854.03-.606a5.814,5.814,0,0,0-.065-1.208l-.1-.6,1.9-1.066-.818-1.7-2.027.814-.409-.451a5.777,5.777,0,0,0-.9-.806l-.492-.356.591-2.1L39.718,7,38.86,9.01l-.608-.031a5.885,5.885,0,0,0-1.21.065l-.6.1-1.069-1.9-1.706.816.815,2.021-.452.407a5.846,5.846,0,0,0-.808.9l-.554.856-1.4-1.475c.074-.086,1.07-1.057,1.147-1.139l-.983-2.434,4.659-2.227,1.288,2.288c.112-.008.226-.014.34-.018l1.031-2.414,4.873,1.71-.712,2.526c.087.074.172.149.255.227L45.61,8.3l2.233,4.646-2.3,1.283c.009.113.014.226.018.339L47.987,15.6,46.273,20.46l-2.534-.709c-.073.086-.149.171-.227.253l.982,2.434-3.161,1.64ZM36.769,18.2a3.605,3.605,0,1,1,1.192.2A3.591,3.591,0,0,1,36.769,18.2Zm-.554-4a1.856,1.856,0,1,0,1.75-1.235A1.85,1.85,0,0,0,36.215,14.2Z"/>
  </g>
</svg>
