<?xml version="1.0" encoding="utf-8"?>
<!-- Generator: Adobe Illustrator 22.1.0, SVG Export Plug-In . SVG Version: 6.00 Build 0)  -->
<svg version="1.1" id="Layer_1" xmlns="http://www.w3.org/2000/svg" xmlns:xlink="http://www.w3.org/1999/xlink" x="0px" y="0px"
	 viewBox="0 0 50 43" style="enable-background:new 0 0 50 43;" xml:space="preserve">
<style type="text/css">
	.st0{fill:none;}
	.st1{fill:#F2F2F2;}
	.st2{fill:#67779B;}
</style>
<rect class="st0" width="50" height="43"/>
<path class="st1" d="M40.5,22.6l1.7-1l-0.8-2l0.5-0.4c0.3-0.3,0.6-0.6,0.8-0.9l0.4-0.5l2.1,0.6l0.6-1.8l-2-0.9v-0.6
	c0-0.4,0-0.8-0.1-1.2l-0.1-0.6l1.9-1.1l-0.8-1.7l-2,0.8l-0.4-0.5c-0.3-0.3-0.6-0.6-0.9-0.8l-0.5-0.4l0.6-2.1L39.7,7l-0.9,2h-0.6
	c-0.4,0-0.8,0-1.2,0l-0.6,0.1l-1.1-1.9L33.6,8l0.8,2L34,10.5c-0.3,0.3-0.6,0.6-0.8,0.9l-0.6,0.9l-1.4-1.5c0.1-0.1,1.1-1.1,1.1-1.1
	l-1-2.4L36.1,5l1.3,2.3c0.1,0,0.2,0,0.3,0l1-2.4l4.9,1.7l-0.7,2.5c0.1,0.1,0.2,0.1,0.3,0.2l2.4-1l2.2,4.6l-2.3,1.3
	c0,0.1,0,0.2,0,0.3l2.4,1l-1.7,4.9l-2.5-0.7c-0.1,0.1-0.1,0.2-0.2,0.3l1,2.4L41.3,24L40.5,22.6z"/>
<path class="st1" d="M39.1,11.4c-1.9-0.7-3.9,0.3-4.6,2.2c-0.7,1.9,0.3,3.9,2.2,4.6c0.4,0.1,0.8,0.2,1.2,0.2c1.5,0,2.9-1,3.4-2.4
	C42,14.1,41,12,39.1,11.4z M39.7,15.4c-0.3,1-1.4,1.5-2.4,1.1c-1-0.3-1.5-1.4-1.1-2.4c0.3-0.7,1-1.2,1.8-1.2c0.2,0,0.4,0,0.6,0.1
	C39.6,13.4,40.1,14.5,39.7,15.4z"/>
<path class="st2" d="M37.6,21.1L37.6,21.1c-0.2-1.1-1.3-1.8-2.3-1.5h-0.1h-0.1l-7.4-8.1c0.2-0.4,0.2-0.8,0.1-1.2v-0.1
	c-0.2-1-1.2-1.7-2.3-1.5h-0.1C24.7,9,24.2,9.5,24,10c-0.2,0.6-0.2,1-0.2,1.2S24,12,24,12c-1.2,1.2-2.5,3-3.6,5.2
	c0.4,0.3,0.9,0.7,1.3,1.1c1.4-2.8,2.9-4.7,4-5.6c0.2,0,0.4,0,0.6,0h0.1h0.1l7.4,8.1c-0.1,0.3-0.2,0.6-0.1,0.9
	c-1.7,1.6-5.8,3.7-11.8,5c-0.9,0.2-1.8,0.4-2.7,0.5c-0.1,0.6-0.3,1.2-0.4,1.7c1.1-0.2,2.3-0.4,3.4-0.6c4.4-1,8.8-2.6,11.4-4.4
	l0.7-0.6c0,0,0,0,0.5,0.2c0.7,0.2,1.3,0,1.3,0C37.2,23.1,37.9,22.1,37.6,21.1z"/>
<path class="st2" d="M19.4,23.8c0.3-0.8,0.6-1.7,0.9-2.4c-0.4-0.4-0.9-0.8-1.3-1.1c-0.4,1-0.8,2-1.1,3c-1.6,4.9-2.3,9.4-1.8,12.3
	l1.6-0.1C17.3,33.2,17.7,29,19.4,23.8z"/>
<path class="st1" d="M33.2,34.8c-0.1-0.4-0.3-0.7-0.6-1l3.1-9.7l-1.6-0.4l-2.9,9.1c-0.4-1.6-1.3-3.6-2.7-5.7c-0.5,0.2-1,0.4-1.6,0.5
	c1.9,2.8,2.8,5,2.8,6.3c-0.2,0.2-0.3,0.5-0.4,0.8l-10.7,2.4c-0.2-0.3-0.4-0.5-0.7-0.6l0,0c-0.2-0.1-0.5-0.1-0.8-0.1
	s-0.6,0.1-0.6,0.1l-7.3-7.8c1.7,0.4,3.8,0.5,6.2,0.4c0.1-0.5,0.2-1.1,0.3-1.6c-3,0.2-5.3,0-6.7-0.5c-0.1-0.3-0.3-0.5-0.5-0.7
	L12,15.8h0.1h0.1c0.2,0,0.4-0.1,0.6-0.2c2.2,0.5,6.1,3,10.3,7.4c0.7,0.7,1.3,1.4,1.8,2c0.6-0.2,1.1-0.3,1.7-0.5
	c-0.7-0.9-1.5-1.7-2.3-2.6C21,18.4,17,15.3,14,14.3l9.7-2.1l-0.3-1.6l-10.1,2.2c-0.4-0.6-1.2-0.9-2-0.7h-0.1c-1,0.2-1.7,1.2-1.5,2.3
	v0.1c0.1,0.4,0.3,0.7,0.6,1L7.1,25.8H7H6.9c-1,0.2-1.7,1.2-1.5,2.3v0.1c0.2,1,1.2,1.7,2.3,1.5h0.1h0.1l7.4,8.1
	c-0.2,0.4-0.2,0.8-0.1,1.2v0.1c0.2,1,1.2,1.7,2.3,1.5h0.1c0.8-0.2,1.3-0.8,1.5-1.5l10.7-2.4c0.4,0.6,1.2,0.9,2,0.7h0.1
	C32.8,37,33.5,36,33.2,34.8L33.2,34.8z"/>
</svg>
