<?xml version="1.0" encoding="utf-8"?>
<!-- Generator: Adobe Illustrator 22.1.0, SVG Export Plug-In . SVG Version: 6.00 Build 0)  -->
<svg version="1.1" id="Layer_1" xmlns="http://www.w3.org/2000/svg" xmlns:xlink="http://www.w3.org/1999/xlink" x="0px" y="0px"
	 viewBox="0 0 50 43" style="enable-background:new 0 0 50 43;" xml:space="preserve">
<style type="text/css">
	.st0{fill:#67779B;}
	.st1{fill:#F2F2F2;}
</style>
<path class="st0" d="M45.6,17v-0.1c-0.3-1.3-1.6-2.1-2.9-1.9h-0.1c-0.1,0-0.1,0-0.2,0L32.9,4.8c0.2-0.5,0.3-1,0.1-1.5V3.2
	c-0.3-1.3-1.6-2.1-2.9-1.9H30c-0.9,0.2-1.6,0.8-1.8,1.5C27.9,3.5,28,4,28,4.3s0.3,1,0.3,1c-1.7,1.6-3.3,4-4.7,6.7
	c0.5,0.4,1.1,0.9,1.6,1.4c1.8-3.5,3.7-6,5.1-7.1c0.3,0,0.5,0,0.8,0h0.1c0.1,0,0.1,0,0.2,0l9.5,10.3c-0.2,0.4-0.2,0.7-0.2,1.1
	c-2.2,2-7.5,4.7-15.1,6.4c-1.2,0.3-2.3,0.5-3.4,0.7c-0.2,0.8-0.4,1.5-0.5,2.2c1.4-0.2,2.9-0.5,4.4-0.8c5.7-1.3,11.2-3.3,14.6-5.7
	l0.9-0.7c0,0,0,0,0.6,0.3c0.9,0.3,1.7,0,1.7,0C45.1,19.6,45.9,18.3,45.6,17z"/>
<path class="st0" d="M22.3,20.4c0.4-1.1,0.7-2.1,1.1-3.1c-0.6-0.5-1.1-1-1.6-1.4c-0.5,1.3-1,2.6-1.5,3.9c-2.1,6.2-2.9,12-2.4,15.8
	l2.1-0.1C19.6,32.5,20.1,27.2,22.3,20.4z"/>
<path class="st1" d="M40,34.6c-0.1-0.5-0.4-1-0.8-1.3l3.9-12.5l-2-0.5L37.4,32c-0.5-2-1.7-4.6-3.5-7.3c-0.7,0.2-1.3,0.5-2,0.7
	c2.4,3.6,3.6,6.5,3.6,8.1c-0.3,0.3-0.4,0.7-0.5,1.1l-13.7,3c-0.2-0.3-0.6-0.6-0.9-0.8l0,0c-0.2-0.1-0.6-0.2-1.1-0.2
	s-0.7,0.1-0.7,0.1l-9.3-10c2.1,0.5,4.9,0.7,7.9,0.5c0.1-0.7,0.3-1.4,0.4-2.1c-3.9,0.3-6.8,0-8.6-0.6c-0.1-0.4-0.4-0.7-0.7-1
	l4.2-13.4c0.1,0,0.1,0,0.2,0h0.1c0.3-0.1,0.5-0.2,0.7-0.3c2.8,0.7,7.9,3.8,13.2,9.5c0.8,0.9,1.6,1.8,2.3,2.6
	c0.7-0.2,1.4-0.4,2.1-0.7c-0.9-1.1-1.9-2.2-2.9-3.3c-4.3-4.5-9.3-8.5-13.2-9.8l12.4-2.7l-0.4-2L14.5,6.3c-0.6-0.8-1.5-1.2-2.5-1
	h-0.1C10.5,5.6,9.7,6.9,10,8.2v0.1c0.1,0.5,0.4,1,0.8,1.3L6.5,23c-0.1,0-0.1,0-0.2,0H6.2c-1.3,0.3-2.1,1.6-1.9,2.9V26
	c0.4,1.4,1.7,2.3,3,2h0.1c0.1,0,0.1,0,0.2,0l9.5,10.3c-0.2,0.5-0.3,1-0.1,1.5v0.1c0.3,1.3,1.6,2.1,2.9,1.9H20c1-0.2,1.7-1,1.9-1.9
	l13.7-3c0.6,0.8,1.5,1.2,2.5,1h0.1c1.3-0.3,2.1-1.6,1.9-2.9L40,34.6z"/>
<path class="st1" d="M42.9,13.3l1.2-0.8L43.5,11l0.3-0.3c0.2-0.2,0.4-0.4,0.5-0.7l0.2-0.4l1.6,0.3l0.4-1.3L45,8.1l0-0.4
	c0-0.3,0-0.6-0.1-0.9l-0.1-0.4l1.3-0.9l-0.7-1.2L44,5l-0.3-0.3c-0.2-0.2-0.4-0.4-0.7-0.5l-0.4-0.2l0.3-1.6L41.6,2l-0.5,1.5l-0.4,0
	c-0.3,0-0.6,0-0.9,0.1l-0.4,0.1l-0.9-1.3L37.3,3L38,4.5l-0.3,0.3c-0.2,0.2-0.4,0.4-0.5,0.7l-0.4,0.6l-1.1-1c0-0.1,0.7-0.8,0.8-0.9
	l-0.8-1.7l3.3-1.8l1,1.6c0.1,0,0.2,0,0.2,0l0.6-1.8l3.6,1L44,3.3c0.1,0,0.1,0.1,0.2,0.2l1.7-0.8l1.8,3.3l-1.6,1c0,0.1,0,0.2,0,0.2
	L48,7.8l-1,3.6L45.1,11c0,0.1-0.1,0.1-0.2,0.2l0.8,1.7l-2.2,1.3L42.9,13.3z"/>
<path class="st1" d="M41.4,5.2C40,4.8,38.6,5.6,38.2,7c-0.4,1.4,0.4,2.8,1.8,3.2c0.3,0.1,0.6,0.1,0.9,0.1c1.1-0.1,2.1-0.8,2.3-1.9
	C43.6,7,42.8,5.6,41.4,5.2z M42,8.1c-0.2,0.7-0.9,1.1-1.7,0.9c-0.7-0.2-1.1-0.9-0.9-1.7c0.2-0.6,0.6-0.9,1.2-1c0.2,0,0.3,0,0.5,0
	C41.8,6.7,42.2,7.4,42,8.1z"/>
</svg>
