<?xml version="1.0" encoding="utf-8"?>
<!-- Generator: Adobe Illustrator 16.0.0, SVG Export Plug-In . SVG Version: 6.00 Build 0)  -->
<!DOCTYPE svg PUBLIC "-//W3C//DTD SVG 1.1//EN" "http://www.w3.org/Graphics/SVG/1.1/DTD/svg11.dtd">
<svg version="1.1" id="Layer_1" xmlns="http://www.w3.org/2000/svg" xmlns:xlink="http://www.w3.org/1999/xlink" x="0px" y="0px"
	 width="120px" height="120px" viewBox="0 0 120 120" enable-background="new 0 0 120 120" xml:space="preserve">
<g>
	<g>
		<path fill="#D8D8D8" d="M119.845,46.285l-0.081-0.363c-0.835-3.814-4.623-6.229-8.433-5.381l-0.359,0.077
			c-0.178,0.041-0.347,0.094-0.516,0.139L83.023,10.758c0.56-1.309,0.735-2.804,0.406-4.3l-0.081-0.361
			c-0.841-3.811-4.619-6.229-8.432-5.387l-0.36,0.082c-2.589,0.566-4.541,2.314-5.308,4.417c-0.763,2.091-0.694,3.541-0.694,4.382
			c0,0.848,0.776,2.851,0.776,2.851c-4.639,4.464-9.242,11.312-13.402,19.377c1.595,1.285,3.171,2.605,4.713,3.961
			c5.23-10.29,10.625-17.354,14.791-20.685c0.735,0.082,1.489,0.047,2.249-0.124l0.356-0.081c0.182-0.03,0.344-0.087,0.52-0.146
			l27.435,30.016c-0.438,1.017-0.632,2.157-0.544,3.308c-6.246,5.93-21.637,13.696-43.812,18.593
			c-3.431,0.764-6.749,1.37-9.939,1.886c-0.554,2.187-1.038,4.275-1.448,6.277c4.194-0.606,8.46-1.392,12.68-2.314
			c16.47-3.634,32.521-9.619,42.251-16.52l2.637-2.138l1.688,0.841c2.53,0.848,4.96,0.03,4.96,0.03
			C118.274,53.882,120.687,50.107,119.845,46.285"/>
		<path fill="#D8D8D8" d="M52.207,56.231c1.045-3.156,2.149-6.147,3.287-8.994c-1.629-1.49-3.218-2.887-4.76-4.189
			c-1.526,3.681-2.94,7.467-4.219,11.289c-6.03,18.113-8.432,34.912-6.818,45.777l5.999-0.395
			C44.301,91.173,45.692,75.794,52.207,56.231"/>
		<path fill="#D8D8D8" d="M103.478,97.378c-0.325-1.498-1.113-2.769-2.173-3.729l11.446-36.174l-5.86-1.328L96.188,89.969
			c-1.316-5.912-4.826-13.218-10.087-21.071c-1.914,0.704-3.862,1.38-5.86,2.023c7.09,10.324,10.424,18.722,10.518,23.558
			c-0.747,0.9-1.267,1.995-1.501,3.162l-39.652,8.735c-0.701-0.957-1.629-1.729-2.693-2.233c-0.006-0.013-0.006-0.021-0.013-0.021
			c-0.694-0.341-1.676-0.517-3.056-0.517c-1.385,0-2.086,0.231-2.086,0.231L14.823,74.693c6.133,1.566,14.162,1.97,23.003,1.433
			c0.344-1.986,0.754-4.025,1.217-6.1c-11.203,0.788-19.863-0.075-24.971-1.808c-0.407-1.085-1.063-2.033-1.886-2.78L24.45,26.681
			c0.181-0.017,0.354-0.041,0.532-0.087l0.356-0.075c0.766-0.17,1.467-0.457,2.105-0.841c8.128,1.992,22.816,11.048,38.367,27.549
			c2.424,2.571,4.65,5.095,6.695,7.55c2.161-0.643,4.207-1.298,6.146-1.964c-2.6-3.213-5.433-6.461-8.479-9.688
			c-12.397-13.158-27.022-24.53-38.307-28.421L67.86,12.77l-1.054-5.902l-37.331,8.238c-1.601-2.221-4.422-3.4-7.269-2.77
			l-0.356,0.077c-3.816,0.848-6.224,4.621-5.386,8.437l0.082,0.356c0.325,1.508,1.116,2.782,2.173,3.734L6.453,63.698
			c-0.175,0.023-0.35,0.047-0.525,0.087l-0.356,0.082c-3.822,0.848-6.233,4.608-5.392,8.43l0.082,0.363
			c0.848,3.822,4.623,6.23,8.438,5.389l0.356-0.084c0.175-0.031,0.344-0.088,0.513-0.138l27.436,30.003
			c-0.557,1.316-0.732,2.799-0.403,4.294l0.075,0.363c0.848,3.821,4.623,6.236,8.441,5.386l0.357-0.082
			c2.84-0.619,4.904-2.871,5.423-5.561l39.652-8.745c1.607,2.215,4.422,3.391,7.262,2.771l0.363-0.081
			c3.821-0.845,6.229-4.626,5.389-8.436L103.478,97.378z"/>
	</g>
</g>
</svg>
