<svg version="1.1" id="Слой_1" xmlns="http://www.w3.org/2000/svg" xmlns:xlink="http://www.w3.org/1999/xlink" x="0" y="0" viewBox="0 0 391 116" xml:space="preserve"><style>.st1{stroke:#dbdee5;stroke-width:2}.st1,.st2,.st4{fill:none}.st4{stroke:#212225;stroke-width:2}.st5{fill:#c9292c}</style><defs><path id="SVGID_1_" d="M0 0h391v116H0z"/></defs><clipPath id="SVGID_2_"><use xlink:href="#SVGID_1_" overflow="visible"/></clipPath><g id="Canvas" clip-path="url(#SVGID_2_)"><g id="images_копия" transform="translate(-496 -489)"><g id="Группа_2"><path id="Прямоугольник_скругл._углы_1_копия_4" class="st1" d="M513 508h39c5.5 0 10 4.5 10 10v54c0 5.5-4.5 10-10 10h-39"/><path id="Прямоугольник_скругл._углы_1_копия_3" class="st1" d="M866 582h-29c-5.5 0-10-4.5-10-10v-54c0-5.5 4.5-10 10-10h29"/><g id="Прямоугольник_скругл._углы_2_копия_3"><path class="st2" d="M1.5 0h20c.8 0 1.5.7 1.5 1.5S22.3 3 21.5 3h-20C.7 3 0 2.3 0 1.5S.7 0 1.5 0z" transform="translate(516 539)"/><path class="st1" d="M1.5 1h20c.3 0 .5.2.5.5s-.2.5-.5.5h-20c-.3 0-.5-.2-.5-.5s.2-.5.5-.5z" transform="translate(516 539)"/></g><g id="Прямоугольник_скругл._углы_2_копия_3-2"><path class="st2" d="M1.5 0h10c.8 0 1.5.7 1.5 1.5S12.3 3 11.5 3h-10C.7 3 0 2.3 0 1.5S.7 0 1.5 0z" transform="translate(516 549)"/><path class="st1" d="M1.5 1h10c.3 0 .5.2.5.5s-.2.5-.5.5h-10c-.3 0-.5-.2-.5-.5s.2-.5.5-.5z" transform="translate(516 549)"/></g><path id="Прямоугольник_скругл._углы_1_копия" d="M800 518h1c5.5 0 10 4.5 10 10v54c0 5.5-4.5 10-10 10H602c-5.5 0-10-4.5-10-10v-1h200c4.5 0 8-4.8 8-10v-53z" fill="#eef3f5"/><g id="Прямоугольник_скругл._углы_1_копия_5"><path class="st2" d="M10 0h199c5.5 0 10 4.5 10 10v54c0 5.5-4.5 10-10 10H10C4.5 74 0 69.5 0 64V10C0 4.5 4.5 0 10 0z" transform="translate(582 508)"/><path class="st4" d="M10 1h199c5 0 9 4 9 9v54c0 5-4 9-9 9H10c-5 0-9-4-9-9V10c0-5 4-9 9-9z" transform="translate(582 508)"/></g><g id="Прямоугольник_скругл._углы_1_копия_6" transform="translate(631 525)"><circle class="st5" cx="20" cy="20" r="20"/><circle class="st4" cx="20" cy="20" r="19"/></g><path id="Прямоугольник_скругл._углы_1_копия_7" d="M633.3 559.9c-8.2 7.4-20.9 6.7-28.2-1.6s-6.7-20.9 1.6-28.2c7.5-6.7 18.7-6.8 26.3-.3" fill="none" stroke="#212225" stroke-width="2" stroke-linecap="round"/><g id="Прямоугольник_скругл._углы_2"><path class="st5" d="M1.5 0h60c.8 0 1.5.7 1.5 1.5S62.3 3 61.5 3h-60C.7 3 0 2.3 0 1.5S.7 0 1.5 0z" transform="translate(688 549)"/><path class="st4" d="M1.5 1h60c.3 0 .5.2.5.5s-.2.5-.5.5h-60c-.3 0-.5-.2-.5-.5s.2-.5.5-.5z" transform="translate(688 549)"/></g><g id="Прямоугольник_скругл._углы_2_копия_2"><path class="st5" d="M1.5 0h80c.8 0 1.5.7 1.5 1.5S82.3 3 81.5 3h-80C.7 3 0 2.3 0 1.5S.7 0 1.5 0z" transform="translate(688 539)"/><path class="st4" d="M1.5 1h80c.3 0 .5.2.5.5s-.2.5-.5.5h-80c-.3 0-.5-.2-.5-.5s.2-.5.5-.5z" transform="translate(688 539)"/></g><path id="Прямоугольник_скругл._углы_1_копия_8" class="st1" d="M874.3 559.9c-8.2 7.4-20.9 6.7-28.2-1.6s-6.7-20.9 1.6-28.2c7.5-6.7 18.7-6.8 26.3-.3"/></g><path id="Прямоугольник_2_копия_6" d="M848 604v-21h-7v-2h7v-9h2v9h13v2h-13v21h-2zm-318 0v-21h-13v-2h13v-9h2v9h7v2h-7v21h-2zm347-17v-4h-4v-2h4v-4h2v4h4v2h-4v4h-2zm-376 0v-4h-4v-2h4v-4h2v4h4v2h-4v4h-2zm377-59v-19h-24v-2h24v-17h2v17h6v2h-6v19h-2zm-357 0v-19h-6v-2h6v-17h2v17h24v2h-24v19h-2z" fill="#dbdee5"/></g></g></svg>