<svg enable-background="new 0 0 391 116" viewBox="0 0 391 116" xmlns="http://www.w3.org/2000/svg" xmlns:xlink="http://www.w3.org/1999/xlink"><clipPath id="a"><path d="m0 0h391v116h-391z"/></clipPath><g clip-path="url(#a)"><g transform="translate(-496 -489)"><g fill="none"><path d="m513 508h39c5.5 0 10 4.5 10 10v54c0 5.5-4.5 10-10 10h-39" stroke="#dbdee5" stroke-width="2"/><path d="m866 582h-29c-5.5 0-10-4.5-10-10v-54c0-5.5 4.5-10 10-10h29" stroke="#dbdee5" stroke-width="2"/><g transform="translate(516 539)"><path d="m1.5 0h20c.8 0 1.5.7 1.5 1.5 0 .8-.7 1.5-1.5 1.5h-20c-.8 0-1.5-.7-1.5-1.5 0-.8.7-1.5 1.5-1.5z"/><path d="m1.5 1h20c.3 0 .5.2.5.5 0 .3-.2.5-.5.5h-20c-.3 0-.5-.2-.5-.5 0-.3.2-.5.5-.5z" stroke="#dbdee5" stroke-width="2"/></g><g transform="translate(516 549)"><path d="m1.5 0h10c.8 0 1.5.7 1.5 1.5 0 .8-.7 1.5-1.5 1.5h-10c-.8 0-1.5-.7-1.5-1.5 0-.8.7-1.5 1.5-1.5z"/><path d="m1.5 1h10c.3 0 .5.2.5.5 0 .3-.2.5-.5.5h-10c-.3 0-.5-.2-.5-.5 0-.3.2-.5.5-.5z" stroke="#dbdee5" stroke-width="2"/></g></g><path d="m800 518h1c5.5 0 10 4.5 10 10v54c0 5.5-4.5 10-10 10h-199c-5.5 0-10-4.5-10-10v-1h200c4.5 0 8-4.8 8-10z" fill="#eef3f5"/><g fill="none" transform="translate(582 508)"><path d="m10 0h199c5.5 0 10 4.5 10 10v54c0 5.5-4.5 10-10 10h-199c-5.5 0-10-4.5-10-10v-54c0-5.5 4.5-10 10-10z"/><path d="m10 1h199c5 0 9 4 9 9v54c0 5-4 9-9 9h-199c-5 0-9-4-9-9v-54c0-5 4-9 9-9z" stroke="#212225" stroke-width="2"/></g><g transform="translate(631 525)"><circle cx="20" cy="20" fill="#c9292c" r="20"/><circle cx="20" cy="20" fill="none" r="19" stroke="#212225" stroke-width="2"/></g><path d="m633.3 559.9c-8.2 7.4-20.9 6.7-28.2-1.6s-6.7-20.9 1.6-28.2c7.5-6.7 18.7-6.8 26.3-.3" fill="none" stroke="#212225" stroke-linecap="round" stroke-width="2"/><g transform="translate(688 549)"><path d="m1.5 0h60c.8 0 1.5.7 1.5 1.5 0 .8-.7 1.5-1.5 1.5h-60c-.8 0-1.5-.7-1.5-1.5 0-.8.7-1.5 1.5-1.5z" fill="#c9292c"/><path d="m1.5 1h60c.3 0 .5.2.5.5 0 .3-.2.5-.5.5h-60c-.3 0-.5-.2-.5-.5 0-.3.2-.5.5-.5z" fill="none" stroke="#212225" stroke-width="2"/></g><g transform="translate(688 539)"><path d="m1.5 0h80c.8 0 1.5.7 1.5 1.5 0 .8-.7 1.5-1.5 1.5h-80c-.8 0-1.5-.7-1.5-1.5 0-.8.7-1.5 1.5-1.5z" fill="#c9292c"/><path d="m1.5 1h80c.3 0 .5.2.5.5 0 .3-.2.5-.5.5h-80c-.3 0-.5-.2-.5-.5 0-.3.2-.5.5-.5z" fill="none" stroke="#212225" stroke-width="2"/></g><path d="m874.3 559.9c-8.2 7.4-20.9 6.7-28.2-1.6s-6.7-20.9 1.6-28.2c7.5-6.7 18.7-6.8 26.3-.3" fill="none" stroke="#dbdee5" stroke-width="2"/><path d="m848 604v-21h-7v-2h7v-9h2v9h13v2h-13v21zm-318 0v-21h-13v-2h13v-9h2v9h7v2h-7v21zm347-17v-4h-4v-2h4v-4h2v4h4v2h-4v4zm-376 0v-4h-4v-2h4v-4h2v4h4v2h-4v4zm377-59v-19h-24v-2h24v-17h2v17h6v2h-6v19zm-357 0v-19h-6v-2h6v-17h2v17h24v2h-24v19z" fill="#dbdee5"/></g></g></svg>