<svg xmlns="http://www.w3.org/2000/svg" xmlns:xlink="http://www.w3.org/1999/xlink" viewBox="0 0 391 116"><defs><path id="a" d="M0 0h391v116H0z"/></defs><clipPath id="b"><use xlink:href="#a" overflow="visible"/></clipPath><g clip-path="url(#b)"><path d="M17 19h39c5.5 0 10 4.5 10 10v54c0 5.5-4.5 10-10 10H17m353 0h-29c-5.5 0-10-4.5-10-10V29c0-5.5 4.5-10 10-10h29" fill="none" stroke="#dbdee5" stroke-width="2"/><g fill="none"><path d="M21.5 50h20c.8 0 1.5.7 1.5 1.5s-.7 1.5-1.5 1.5h-20c-.8 0-1.5-.7-1.5-1.5s.7-1.5 1.5-1.5z"/><path d="M21.5 51h20c.3 0 .5.2.5.5s-.2.5-.5.5h-20c-.3 0-.5-.2-.5-.5s.2-.5.5-.5z" stroke="#dbdee5" stroke-width="2"/></g><g fill="none"><path d="M21.5 60h10c.8 0 1.5.7 1.5 1.5s-.7 1.5-1.5 1.5h-10c-.8 0-1.5-.7-1.5-1.5s.7-1.5 1.5-1.5z"/><path d="M21.5 61h10c.3 0 .5.2.5.5s-.2.5-.5.5h-10c-.3 0-.5-.2-.5-.5s.2-.5.5-.5z" stroke="#dbdee5" stroke-width="2"/></g><path d="M304 29h1c5.5 0 10 4.5 10 10v54c0 5.5-4.5 10-10 10H106c-5.5 0-10-4.5-10-10v-1h200c4.5 0 8-4.8 8-10V29z" fill="#eef3f5"/><g fill="none"><path d="M96 19h199c5.5 0 10 4.5 10 10v54c0 5.5-4.5 10-10 10H96c-5.5 0-10-4.5-10-10V29c0-5.5 4.5-10 10-10z"/><path d="M96 20h199c5 0 9 4 9 9v54c0 5-4 9-9 9H96c-5 0-9-4-9-9V29c0-5 4-9 9-9z" stroke="#212225" stroke-width="2"/></g><g transform="translate(135 36)"><circle cx="20" cy="20" r="20" fill="#c9292c"/><circle cx="20" cy="20" r="19" fill="none" stroke="#212225" stroke-width="2"/></g><path d="M137.3 70.9c-8.2 7.4-20.9 6.7-28.2-1.6s-6.7-20.9 1.6-28.2c7.5-6.7 18.7-6.8 26.3-.3" fill="none" stroke="#212225" stroke-width="2" stroke-linecap="round"/><path d="M193.5 60h60c.8 0 1.5.7 1.5 1.5s-.7 1.5-1.5 1.5h-60c-.8 0-1.5-.7-1.5-1.5s.7-1.5 1.5-1.5z" fill="#c9292c"/><path d="M193.5 61h60c.3 0 .5.2.5.5s-.2.5-.5.5h-60c-.3 0-.5-.2-.5-.5s.2-.5.5-.5z" fill="none" stroke="#212225" stroke-width="2"/><path d="M193.5 50h80c.8 0 1.5.7 1.5 1.5s-.7 1.5-1.5 1.5h-80c-.8 0-1.5-.7-1.5-1.5s.7-1.5 1.5-1.5z" fill="#c9292c"/><path d="M193.5 51h80c.3 0 .5.2.5.5s-.2.5-.5.5h-80c-.3 0-.5-.2-.5-.5s.2-.5.5-.5z" fill="none" stroke="#212225" stroke-width="2"/><path d="M378.3 70.9c-8.2 7.4-20.9 6.7-28.2-1.6s-6.7-20.9 1.6-28.2c7.5-6.7 18.7-6.8 26.3-.3" fill="none" stroke="#dbdee5" stroke-width="2"/><path d="M352 115V94h-7v-2h7v-9h2v9h13v2h-13v21h-2zm-318 0V94H21v-2h13v-9h2v9h7v2h-7v21h-2zm347-17v-4h-4v-2h4v-4h2v4h4v2h-4v4h-2zM5 98v-4H1v-2h4v-4h2v4h4v2H7v4H5zm377-59V20h-24v-2h24V1h2v17h6v2h-6v19h-2zM25 39V20h-6v-2h6V1h2v17h24v2H27v19h-2z" fill="#dbdee5"/></g></svg>