<svg xmlns="http://www.w3.org/2000/svg" width="540" height="203" viewBox="0 0 540 203">
  <defs>
    <style>
      .cls-1 {
        fill: #eef3f5;
      }

      .cls-2, .cls-3, .cls-6, .cls-7, .cls-8, .cls-9 {
        fill: none;
      }

      .cls-2, .cls-5 {
        stroke: #212225;
      }

      .cls-2, .cls-5, .cls-6, .cls-7, .cls-8, .cls-9 {
        stroke-width: 2px;
      }

      .cls-4 {
        fill: #212225;
      }

      .cls-5 {
        fill: #007dff;
      }

      .cls-6 {
        stroke: #dbdee5;
      }

      .cls-7, .cls-8, .cls-9 {
        stroke: #007dff;
      }

      .cls-8 {
        stroke-linecap: round;
      }

      .cls-9 {
        stroke-linejoin: round;
      }

      .cls-10 {
        fill: #dbdee5;
      }

      .cls-11 {
        stroke: none;
      }
    </style>
  </defs>
  <g id="The_update_is_ready_to_install" data-name="The update is ready to install" transform="translate(-390 -380)">
    <g id="Группа_3" data-name="Группа 3">
      <path id="Прямоугольник_скругл._углы_575" data-name="Прямоугольник, скругл. углы 575" class="cls-1" d="M711.39,552H790a21.091,21.091,0,0,0,6.572-.429A15.006,15.006,0,0,1,782,563H690C706.85,557.741,711.39,552,711.39,552Zm-89.229,0H540c-4.77,0-13-4.423-13-12V415a48.684,48.684,0,0,1,0-6.461A15.007,15.007,0,0,0,516,423V548a15,15,0,0,0,15,15H643.611a48.787,48.787,0,0,1-21.449-11Z"/>
      <path id="Прямоугольник_скругл._углы_575_копия" data-name="Прямоугольник, скругл. углы 575 копия" class="cls-2" d="M622.712,553H541a15,15,0,0,1-15-15V413a15,15,0,0,1,15-15H792a15,15,0,0,1,15,15V538a15,15,0,0,1-15,15H710.923"/>
      <g id="Эллипс_2051_копия_2" data-name="Эллипс 2051 копия 2">
        <path id="Контур_11" data-name="Контур 11" class="cls-3" d="M562,387a2,2,0,1,1,2,2A2,2,0,0,1,562,387Zm-10,0a2,2,0,1,1,2,2A2,2,0,0,1,552,387Zm-10,0a2,2,0,1,1,2,2A2,2,0,0,1,542,387Z"/>
        <path id="Контур_12" data-name="Контур 12" class="cls-4" d="M544,385a2,2,0,1,1-2,2A2,2,0,0,1,544,385Zm10,0a2,2,0,1,1-2,2A2,2,0,0,1,554,385Zm10,0a2,2,0,1,1-2,2A2,2,0,0,1,564,385Z"/>
      </g>
      <g id="Прямоугольник_скругл._углы_976" data-name="Прямоугольник, скругл. углы 976" class="cls-5" transform="translate(547 408)">
        <rect class="cls-11" width="18" height="18" rx="3"/>
        <rect class="cls-3" x="1" y="1" width="16" height="16" rx="2"/>
      </g>
      <g id="Прямоугольник_скругл._углы_976_копия" data-name="Прямоугольник, скругл. углы 976 копия" class="cls-2" transform="translate(770 408)">
        <circle class="cls-11" cx="9" cy="9" r="9"/>
        <circle class="cls-3" cx="9" cy="9" r="8"/>
      </g>
      <path id="Прямоугольник_скругл._углы_976_копия_2" data-name="Прямоугольник, скругл. углы 976 копия 2" class="cls-2" d="M768.911,423.787a9,9,0,1,1,.077-13.506"/>
      <line id="Фигура_2" data-name="Фигура 2" class="cls-2" x2="14" transform="translate(575 416)"/>
      <line id="Фигура_2_копия" data-name="Фигура 2 копия" class="cls-2" x2="14" transform="translate(595 416)"/>
      <line id="Фигура_2_копия_2" data-name="Фигура 2 копия 2" class="cls-2" x2="14" transform="translate(615 416)"/>
      <line id="Фигура_2_копия_3" data-name="Фигура 2 копия 3" class="cls-2" x2="14" transform="translate(635 416)"/>
      <path id="Фигура_1" data-name="Фигура 1" class="cls-2" d="M537,431h91.279m78.658,0H795"/>
      <path id="Фигура_1_копия" data-name="Фигура 1 копия" class="cls-2" d="M537,439h77.026m106.032,0H795"/>
      <g id="Группа_2" data-name="Группа 2">
        <path id="Прямоугольник_скругл._углы_977_копия_2" data-name="Прямоугольник, скругл. углы 977 копия 2" class="cls-2" d="M726.338,454H791a5,5,0,0,1,5,5v25a5,5,0,0,1-5,5H738.321"/>
        <path id="Эллипс_2051_копия_4" data-name="Эллипс 2051 копия 4" class="cls-2" d="M731.422,460.406A5.5,5.5,0,1,1,733.5,471"/>
        <path id="Фигура_3_копия_4" data-name="Фигура 3 копия 4" class="cls-2" d="M736.046,475H741"/>
        <path id="Фигура_3_копия_4-2" data-name="Фигура 3 копия 4" class="cls-2" d="M736.361,479H751"/>
        <path id="Прямоугольник_скругл._углы_977_копия_5" data-name="Прямоугольник, скругл. углы 977 копия 5" class="cls-2" d="M597.171,489H550a5,5,0,0,1-5-5V459a5,5,0,0,1,5-5h59.77"/>
        <path id="Эллипс_2051_копия_7" data-name="Эллипс 2051 копия 7" class="cls-2" d="M560.859,469.855a5.5,5.5,0,1,1,.007-8.7"/>
        <g id="Эллипс_2051_копия_7-2" data-name="Эллипс 2051 копия 7" class="cls-2" transform="translate(561 460)">
          <circle class="cls-11" cx="5.5" cy="5.5" r="5.5"/>
          <circle class="cls-3" cx="5.5" cy="5.5" r="4.5"/>
        </g>
        <line id="Фигура_3_копия_7" data-name="Фигура 3 копия 7" class="cls-2" x2="21" transform="translate(553 475)"/>
        <line id="Фигура_3_копия_7-2" data-name="Фигура 3 копия 7" class="cls-2" x2="31" transform="translate(553 479)"/>
        <path id="Прямоугольник_скругл._углы_977_копия_3" data-name="Прямоугольник, скругл. углы 977 копия 3" class="cls-6" d="M738.6,497H791a5,5,0,0,1,5,5v25a5,5,0,0,1-5,5H729.786"/>
        <path id="Эллипс_2051_копия_5" data-name="Эллипс 2051 копия 5" class="cls-6" d="M737.513,503.9a5.5,5.5,0,0,1-1.177,9.789"/>
        <path id="Фигура_3_копия_5" data-name="Фигура 3 копия 5" class="cls-6" d="M734.844,518H741"/>
        <path id="Фигура_3_копия_5-2" data-name="Фигура 3 копия 5" class="cls-6" d="M732.9,522H751"/>
        <path id="Прямоугольник_скругл._углы_977_копия_4" data-name="Прямоугольник, скругл. углы 977 копия 4" class="cls-6" d="M604.906,532H550a5,5,0,0,1-5-5V502a5,5,0,0,1,5-5h47.483"/>
        <path id="Эллипс_2051_копия_6" data-name="Эллипс 2051 копия 6" class="cls-6" d="M560.859,512.855a5.5,5.5,0,1,1,.007-8.706"/>
        <g id="Эллипс_2051_копия_6-2" data-name="Эллипс 2051 копия 6" class="cls-6" transform="translate(561 503)">
          <circle class="cls-11" cx="5.5" cy="5.5" r="5.5"/>
          <circle class="cls-3" cx="5.5" cy="5.5" r="4.5"/>
        </g>
        <line id="Фигура_3_копия_6" data-name="Фигура 3 копия 6" class="cls-6" x2="21" transform="translate(553 518)"/>
        <line id="Фигура_3_копия_6-2" data-name="Фигура 3 копия 6" class="cls-6" x2="31" transform="translate(553 522)"/>
      </g>
      <g id="Эллипс_550" data-name="Эллипс 550" class="cls-6" transform="translate(600 428)">
        <circle class="cls-11" cx="67.5" cy="67.5" r="67.5"/>
        <circle class="cls-3" cx="67.5" cy="67.5" r="66.5"/>
      </g>
      <g id="Сгруппировать_717" data-name="Сгруппировать 717">
        <g id="Эллипс_550_копия" data-name="Эллипс 550 копия" class="cls-7" transform="translate(610 438)">
          <circle class="cls-11" cx="57.5" cy="57.5" r="57.5"/>
          <circle class="cls-3" cx="57.5" cy="57.5" r="56.5"/>
        </g>
        <line id="Фигура_665" data-name="Фигура 665" class="cls-8" y1="30" transform="translate(667 473)"/>
        <line id="Фигура_665-2" data-name="Фигура 665" class="cls-8" x2="24" transform="translate(655 517)"/>
        <path id="Эллипс_1_копия_6" data-name="Эллипс 1 копия 6" class="cls-9" d="M665.557,508.334l-6.969-7.471a2.465,2.465,0,0,1,0-3.217,1.892,1.892,0,0,1,2.883,0L667,503.508l5.527-5.861a1.892,1.892,0,0,1,2.883,0,2.464,2.464,0,0,1,0,3.217l-6.969,7.47a1.891,1.891,0,0,1-2.882,0Z"/>
        <g id="Эллипс_550_копия-2" data-name="Эллипс 550 копия" class="cls-7" transform="translate(614 442)">
          <circle class="cls-11" cx="53.5" cy="53.5" r="53.5"/>
          <circle class="cls-3" cx="53.5" cy="53.5" r="52.5"/>
        </g>
      </g>
    </g>
    <path id="Прямоугольник_542_копия_4" data-name="Прямоугольник 542 копия 4" class="cls-10" d="M521,583V567H483v16h-2V567H443v6h-2v-6H430v-2h11V527H420v-2h21V487H430v-2h11V447H403v6h-2v-6H390v-2h11V407H390v-2h11V380h2v25h38V380h2v25h38V380h2v25h38V395h2v10h2v2H483v38h22v2H483v38h2v2h-2v38h22v2H483v38h62v2H523v16Zm-40-18V527H443v38Zm0-40V487H443v38Zm0-40V447H443v38Zm0-40V407H443v38Zm-40,0V407H403v38Zm-40,28v-4h-4v-2h4v-4h2v4h4v2h-4v4Zm120-83v-4h-4v-2h4v-4h2v4h4v2h-4v4Z"/>
    <path id="Прямоугольник_542_копия_5" data-name="Прямоугольник 542 копия 5" class="cls-10" d="M917,583V558H879v25h-2V558H839v25h-2V558H825v-2h12V518h-2v-2h2V478H815v-2h22V438H815v-2h22V398h-2v-2h2V380h2v16h21v2H839v38h38v-6h2v6h21v2H879v38h11v2H879v38h38v-6h2v6h11v2H919v38h11v2H919v25Zm0-27V518H879v38Zm-40,0V518H839v38Zm0-40V478H839v38Zm0-40V438H839v38Zm-69,86v-4h-4v-2h4v-4h2v4h4v2h-4v4Zm109-62v-4h-4v-2h4v-4h2v4h4v2h-4v4Z"/>
  </g>
</svg>
