<?xml version="1.0" encoding="UTF-8" standalone="no"?><!DOCTYPE svg PUBLIC "-//W3C//DTD SVG 1.1//EN" "http://www.w3.org/Graphics/SVG/1.1/DTD/svg11.dtd"><svg width="100%" height="100%" viewBox="0 0 48 47" version="1.1" xmlns="http://www.w3.org/2000/svg" xmlns:xlink="http://www.w3.org/1999/xlink" xml:space="preserve" xmlns:serif="http://www.serif.com/" style="fill-rule:evenodd;clip-rule:evenodd;stroke-linejoin:round;stroke-miterlimit:1.41421;"><path id="Square" d="M18.15,35.05c-0.2,-0.1 -0.3,-0.2 -0.5,-0.4l-10.2,-10.2c-1.9,-1.9 -1.9,-4.9 0,-6.8l10.2,-10.2c1.9,-1.9 4.9,-1.9 6.8,0l9.6,9.6c0.2,0 0.3,0 0.5,0c2.5,0 4.9,0.6 7,1.6c-0.3,-0.9 -0.8,-1.7 -1.5,-2.4l-14.3,-14.3c-2.6,-2.6 -6.9,-2.6 -9.5,0l-14.3,14.3c-2.6,2.6 -2.6,6.9 0,9.5l14.3,14.3c1.2,1.2 2.6,1.8 4.1,1.9c-1.2,-2 -2,-4.4 -2.2,-6.9Z" style="fill:#c9d0df;fill-rule:nonzero;"/><path id="Circle" d="M30.459,22.963c6.119,-2.534 13.145,0.376 15.679,6.495c2.535,6.119 -0.375,13.144 -6.494,15.679c-6.119,2.535 -13.145,-0.375 -15.679,-6.494c-2.535,-6.119 0.375,-13.145 6.494,-15.68Z" style="fill:#f2f5fa;"/><path id="Add" d="M38.55,33.05l-1.5,0l0,-1.5c0,-0.8 -0.7,-1.5 -1.5,-1.5c-0.8,0 -1.5,0.7 -1.5,1.5l0,1.5l-1.5,0c-0.8,0 -1.5,0.7 -1.5,1.5c0,0.8 0.7,1.5 1.5,1.5l1.5,0l0,1.5c0,0.8 0.7,1.5 1.5,1.5c0.8,0 1.5,-0.7 1.5,-1.5l0,-1.5l1.5,0c0.8,0 1.5,-0.7 1.5,-1.5c0,-0.8 -0.7,-1.5 -1.5,-1.5Z" style="fill:#c9d0df;fill-rule:nonzero;"/></svg>