<?xml version="1.0" encoding="utf-8"?>
<!-- Generator: Adobe Illustrator 22.1.0, SVG Export Plug-In . SVG Version: 6.00 Build 0)  -->
<svg version="1.1" id="Layer_1" xmlns="http://www.w3.org/2000/svg" xmlns:xlink="http://www.w3.org/1999/xlink" x="0px" y="0px"
	 viewBox="0 0 50 43" style="enable-background:new 0 0 50 43;" xml:space="preserve">
<style type="text/css">
	.st0{fill:none;}
	.st1{fill:#67779B;}
	.st2{fill:#F2F2F2;}
</style>
<rect class="st0" width="50" height="43"/>
<path class="st1" d="M43.1,17.7v-0.1c-0.3-1.2-1.4-1.9-2.6-1.6h-0.1c-0.1,0-0.1,0-0.2,0L32,7c0.2-0.4,0.2-0.8,0.1-1.3V5.6
	c-0.3-1.2-1.4-1.9-2.6-1.6h-0.1c-0.8,0.2-1.4,0.7-1.6,1.3s-0.2,1.1-0.2,1.3s0.2,0.9,0.2,0.9c-1.4,1.4-2.8,3.4-4.1,5.9
	c0.5,0.4,1,0.8,1.4,1.2c1.6-3.1,3.2-5.3,4.5-6.3c0.2,0,0.5,0,0.7,0h0.1c0.1,0,0.1,0,0.2,0l8.3,9.1c-0.1,0.3-0.2,0.7-0.2,1
	c-1.9,1.8-6.6,4.2-13.3,5.6c-1,0.2-2,0.4-3,0.6c-0.2,0.7-0.3,1.3-0.4,1.9c1.3-0.2,2.6-0.4,3.8-0.7c5-1.1,9.9-2.9,12.8-5l0.8-0.6
	c0,0,0,0,0.5,0.3c0.8,0.3,1.5,0,1.5,0C42.7,20,43.4,18.9,43.1,17.7z"/>
<path class="st1" d="M22.6,20.8c0.3-1,0.7-1.9,1-2.7c-0.5-0.5-1-0.9-1.4-1.3c-0.5,1.1-0.9,2.3-1.3,3.4c-1.8,5.5-2.6,10.6-2.1,13.9
	l1.8-0.1C20.2,31.3,20.7,26.7,22.6,20.8z"/>
<path class="st2" d="M38.2,33.2c-0.1-0.5-0.3-0.8-0.7-1.1l3.5-11l-1.8-0.4L36,31c-0.4-1.8-1.5-4-3.1-6.4c-0.6,0.2-1.2,0.4-1.8,0.6
	c2.2,3.1,3.2,5.7,3.2,7.1c-0.2,0.3-0.4,0.6-0.5,1l-12,2.7c-0.2-0.3-0.5-0.5-0.8-0.7l0,0c-0.2-0.1-0.5-0.2-0.9-0.2s-0.6,0.1-0.6,0.1
	l-8.2-8.8c1.9,0.5,4.3,0.6,7,0.4c0.1-0.6,0.2-1.2,0.4-1.9c-3.4,0.2-6,0-7.6-0.5c-0.1-0.3-0.3-0.6-0.6-0.8l3.7-11.8
	c0.1,0,0.1,0,0.2,0h0.1c0.2-0.1,0.4-0.1,0.6-0.3c2.5,0.6,6.9,3.4,11.6,8.4c0.7,0.8,1.4,1.5,2,2.3c0.7-0.2,1.3-0.4,1.9-0.6
	c-0.8-1-1.6-2-2.6-2.9c-3.8-4-8.2-7.4-11.6-8.6l10.9-2.4L27,5.9L15.7,8.3c-0.5-0.7-1.3-1-2.2-0.8h-0.1c-1.2,0.3-1.9,1.4-1.6,2.6v0.1
	c0.1,0.5,0.3,0.8,0.7,1.1L8.8,23c-0.1,0-0.1,0-0.2,0H8.5c-1.2,0.3-1.9,1.4-1.6,2.6v0.1c0.3,1.2,1.4,1.9,2.6,1.6h0.1
	c0.1,0,0.1,0,0.2,0l8.3,9.1c-0.2,0.4-0.2,0.8-0.1,1.3v0.1c0.3,1.2,1.4,1.9,2.6,1.6h0.1c0.9-0.2,1.5-0.9,1.6-1.7l12-2.7
	c0.5,0.7,1.3,1,2.2,0.8h0.1C37.8,35.5,38.5,34.4,38.2,33.2L38.2,33.2z"/>
</svg>
