<?xml version="1.0" encoding="utf-8"?>
<!-- Generator: Adobe Illustrator 22.1.0, SVG Export Plug-In . SVG Version: 6.00 Build 0)  -->
<svg version="1.1" id="Layer_1" xmlns="http://www.w3.org/2000/svg" xmlns:xlink="http://www.w3.org/1999/xlink" x="0px" y="0px"
	 viewBox="0 0 40 40" style="enable-background:new 0 0 40 40;" xml:space="preserve">
<style type="text/css">
	.st0{fill:#C9D0DF;}
	.st1{fill:#67779B;}
</style>
<path class="st0" d="M31,40h-7c-2.2,0-4-1.8-4-4v-7c0-1.1,0.5-2.2,1.3-2.9l2.3,2.3c2.2,2.2,5.7,2.2,7.9,0c0,0,0,0,0,0l2.3-2.3
	c0.8,0.8,1.3,1.8,1.3,2.9v7C35,38.2,33.2,40,31,40z M11,40H4c-2.2,0-4-1.8-4-4v-7c0-2.2,1.8-4,4-4h7c2.2,0,4,1.8,4,4v7
	C15,38.2,13.2,40,11,40z M11,20H4c-2.2,0-4-1.8-4-4V9c0-2.2,1.8-4,4-4h7c1.1,0,2.1,0.4,2.9,1.2l-2.3,2.3c-2.2,2.2-2.2,5.7,0,7.9
	l2.3,2.3C13.2,19.6,12.1,20,11,20z"/>
<path class="st1" d="M27.5,25c-1.1,0-2.1-0.4-2.8-1.2l-8.5-8.5c-1.6-1.6-1.6-4.1,0-5.7l8.5-8.5c1.6-1.6,4.1-1.6,5.7,0c0,0,0,0,0,0
	l8.5,8.5c1.6,1.6,1.6,4.1,0,5.7l-8.5,8.5C29.6,24.6,28.5,25,27.5,25z M27.5,5c-0.6,0-1.2,0.2-1.7,0.7l-5.1,5.1
	c-0.9,0.9-0.9,2.5,0,3.4l5.1,5.1c0.9,0.9,2.5,0.9,3.4,0c0,0,0,0,0,0l5.1-5.1c0.9-0.9,0.9-2.5,0-3.4c0,0,0,0,0,0l-5.1-5.1
	C28.7,5.2,28.1,5,27.5,5L27.5,5z"/>
</svg>
