<svg xmlns="http://www.w3.org/2000/svg" xmlns:xlink="http://www.w3.org/1999/xlink" viewBox="0 0 40 40">
  <defs>
    <style>
      .cls-1 {
        clip-path: url(#clip-Canvas);
      }

      .cls-2 {
        fill: #c9d0df;
      }

      .cls-3 {
        fill: #4474ff;
      }

      .cls-4 {
        fill: rgba(0,0,0,0);
      }
    </style>
    <clipPath id="clip-Canvas">
      <rect width="40" height="40"/>
    </clipPath>
  </defs>
  <g id="Canvas">
    <path class="cls-2" d="M31,40H24a4,4,0,0,1-4-4V29a3.961,3.961,0,0,1,1.261-2.915l2.252,2.252a5.607,5.607,0,0,0,7.93,0l2.273-2.273A4.012,4.012,0,0,1,35,29v7A4,4,0,0,1,31,40ZM11,40H4a4,4,0,0,1-4-4V29a4,4,0,0,1,4-4h7a4,4,0,0,1,4,4v7A4,4,0,0,1,11,40Zm0-20H4a4,4,0,0,1-4-4V9A4,4,0,0,1,4,5h7a3.966,3.966,0,0,1,2.894,1.238L11.619,8.513a5.614,5.614,0,0,0,0,7.93l2.3,2.3A3.963,3.963,0,0,1,11,20Z"/>
    <path class="cls-3" d="M27.484,24.985a3.977,3.977,0,0,1-2.832-1.173l-8.5-8.5a4.009,4.009,0,0,1,0-5.664l8.5-8.5a4,4,0,0,1,5.664,0l8.5,8.5a4.009,4.009,0,0,1,0,5.664l-8.5,8.5A3.979,3.979,0,0,1,27.484,24.985Zm.006-20a2.387,2.387,0,0,0-1.7.7l-5.1,5.1a2.407,2.407,0,0,0,0,3.4l5.1,5.1a2.4,2.4,0,0,0,3.4,0l5.1-5.1a2.4,2.4,0,0,0,0-3.4l-5.1-5.1A2.387,2.387,0,0,0,27.491,4.99Z"/>
  </g>
</svg>
