<?xml version="1.0" encoding="utf-8"?>
<!-- Generator: Adobe Illustrator 22.1.0, SVG Export Plug-In . SVG Version: 6.00 Build 0)  -->
<svg version="1.1" id="Layer_1" xmlns="http://www.w3.org/2000/svg" xmlns:xlink="http://www.w3.org/1999/xlink" x="0px" y="0px"
	 viewBox="0 0 50 43" style="enable-background:new 0 0 50 43;" xml:space="preserve">
<style type="text/css">
	.st0{fill:none;}
	.st1{fill:#F2F2F2;}
	.st2{fill:#67779B;}
</style>
<rect class="st0" width="50" height="43"/>
<path class="st1" d="M40.4,21.3l1.7-1l-0.8-2l0.5-0.4c0.3-0.3,0.6-0.6,0.8-0.9l0.4-0.5l2,0.5l0.6-1.8l-2-0.9v-0.6
	c0-0.4,0-0.8-0.1-1.2V12l1.9-1.1l-0.8-1.7l-2,0.8l-0.4-0.5c-0.3-0.3-0.6-0.6-0.9-0.8l-0.5-0.4l0.6-2.1l-1.8-0.6l-0.9,2h-0.6
	c-0.4,0-0.8,0-1.2,0.1l-0.6,0.1l-1.1-1.9l-1.7,0.8l0.8,2l-0.5,0.4C33.5,9.4,33.2,9.7,33,10l-0.6,0.9L31,9.4c0.1-0.1,1.1-1.1,1.1-1.1
	l-1-2.4l4.7-2.2L37.1,6c0.1,0,0.2,0,0.3,0l1-2.4l4.9,1.7l-0.7,2.5c0.2,0,0.3,0.1,0.4,0.2l2.4-1l2.2,4.6l-2.3,1.3c0,0.1,0,0.2,0,0.3
	l2.4,1L46,19.1l-2.5-0.7c-0.1,0.1-0.1,0.2-0.2,0.3l1,2.4l-3.2,1.6L40.4,21.3z"/>
<path class="st1" d="M39,10.1c-1.9-0.7-3.9,0.3-4.6,2.2c-0.7,1.9,0.3,3.9,2.2,4.6c0.4,0.1,0.8,0.2,1.2,0.2c1.5,0,2.9-1,3.4-2.4
	C41.9,12.8,40.9,10.7,39,10.1z M39.6,14.1c-0.3,1-1.4,1.5-2.4,1.1c-1-0.3-1.5-1.4-1.1-2.4c0.3-0.7,1-1.2,1.8-1.2
	c0.2,0,0.4,0,0.6,0.1C39.4,12.1,39.9,13.2,39.6,14.1z"/>
<path class="st2" d="M37.4,20.6v-0.1c-0.3-1.2-1.4-1.9-2.6-1.6h-0.1c-0.1,0-0.1,0-0.2,0l-8.3-9.1c0.2-0.4,0.2-0.8,0.1-1.3V8.4
	c-0.3-1.2-1.4-1.9-2.6-1.6h-0.1C22.8,7,22.2,7.5,22,8.1s-0.2,1.1-0.2,1.3c0,0.3,0.2,0.9,0.2,0.9c-1.4,1.4-2.8,3.4-4.1,5.9
	c0.5,0.4,1,0.8,1.4,1.2c1.6-3.1,3.2-5.3,4.5-6.3c0.2,0,0.5,0,0.7,0h0.1c0.1,0,0.1,0,0.2,0l8.3,9.1c-0.1,0.3-0.2,0.7-0.2,1
	c-1.9,1.8-6.6,4.2-13.3,5.6c-1,0.2-2,0.4-3,0.6c-0.2,0.7-0.3,1.3-0.4,1.9c1.3-0.2,2.6-0.4,3.8-0.7c5-1.1,9.9-2.9,12.8-5l0.8-0.6
	c0,0,0,0,0.5,0.3c0.8,0.3,1.5,0,1.5,0C37,22.9,37.7,21.8,37.4,20.6z"/>
<path class="st2" d="M16.9,23.6c0.3-1,0.7-1.9,1-2.7c-0.5-0.5-1-0.9-1.4-1.3c-0.5,1.1-0.9,2.3-1.3,3.4c-1.8,5.5-2.6,10.6-2.1,13.9
	l1.8-0.1C14.5,34.2,15,29.6,16.9,23.6z"/>
<path class="st1" d="M32.5,36.1c-0.1-0.5-0.3-0.8-0.7-1.1l3.5-11l-1.8-0.4l-3.2,10.3c-0.4-1.8-1.5-4-3.1-6.4
	c-0.6,0.2-1.2,0.4-1.8,0.6c2.2,3.1,3.2,5.7,3.2,7.1c-0.2,0.3-0.4,0.6-0.5,1l-12,2.7c-0.2-0.3-0.5-0.5-0.8-0.7l0,0
	c-0.2-0.1-0.5-0.2-0.9-0.2s-0.6,0.1-0.6,0.1l-8.2-8.8c1.9,0.5,4.3,0.6,7,0.4c0.1-0.6,0.2-1.2,0.4-1.9c-3.4,0.2-6,0-7.6-0.5
	c-0.1-0.3-0.3-0.6-0.6-0.8l3.7-11.8c0.1,0,0.1,0,0.2,0h0.1c0.2-0.1,0.4-0.1,0.6-0.3c2.5,0.6,6.9,3.4,11.6,8.4c0.7,0.8,1.4,1.5,2,2.3
	c0.7-0.2,1.3-0.4,1.9-0.6c-0.8-1-1.6-2-2.6-2.9c-3.8-4-8.2-7.4-11.6-8.6l10.9-2.4l-0.3-1.8L10,11.2c-0.5-0.7-1.3-1-2.2-0.8H7.7
	c-1.2,0.3-1.9,1.4-1.6,2.6v0.1c0.1,0.5,0.3,0.8,0.7,1.1L3.1,25.9c-0.1,0-0.1,0-0.2,0H2.8c-1.2,0.3-1.9,1.4-1.6,2.6v0.1
	c0.3,1.2,1.4,1.9,2.6,1.6h0.1c0.1,0,0.1,0,0.2,0l8.3,9.1c-0.2,0.4-0.2,0.8-0.1,1.3v0.1c0.3,1.2,1.4,1.9,2.6,1.6H15
	c0.9-0.2,1.5-0.9,1.6-1.7l12-2.7c0.5,0.7,1.3,1,2.2,0.8h0.1C32.1,38.4,32.8,37.3,32.5,36.1L32.5,36.1z"/>
</svg>
