<?xml version="1.0" encoding="utf-8"?>
<!-- Generator: Adobe Illustrator 22.1.0, SVG Export Plug-In . SVG Version: 6.00 Build 0)  -->
<svg version="1.1" id="Layer_1" xmlns="http://www.w3.org/2000/svg" xmlns:xlink="http://www.w3.org/1999/xlink" x="0px" y="0px"
	 viewBox="0 0 135 135" style="enable-background:new 0 0 135 135;" xml:space="preserve">
<style type="text/css">
	.st0{fill:none;}
	.st1{fill:#D3D6E2;}
	.st2{fill:#67779B;}
</style>
<rect class="st0" width="135" height="135"/>
<circle class="st1" cx="67.5" cy="67.5" r="67.5"/>
<path class="st2" d="M128.5,54.1l-0.1-0.4c-0.9-3.9-4.7-6.3-8.6-5.5l-0.4,0.1c-0.2,0-0.4,0.1-0.5,0.1L91,18c0.6-1.3,0.8-2.8,0.4-4.4
	l-0.1-0.4c-0.9-3.9-4.7-6.3-8.6-5.5l-0.4,0.1c-2.6,0.6-4.6,2.4-5.4,4.5s-0.7,3.6-0.7,4.5s0.8,2.9,0.8,2.9
	c-4.7,4.5-9.4,11.5-13.6,19.7c1.6,1.3,3.2,2.7,4.8,4c5.3-10.5,10.8-17.7,15-21c0.7,0.1,1.5,0,2.3-0.1l0.4-0.1c0.2,0,0.4-0.1,0.5-0.1
	l27.9,30.5c-0.4,1-0.6,2.2-0.6,3.4c-6.3,6-22,13.9-44.6,18.9c-3.5,0.8-6.9,1.4-10.1,1.9c-0.6,2.2-1.1,4.4-1.5,6.4
	c4.3-0.6,8.6-1.4,12.9-2.4c16.8-3.7,33.1-9.8,43-16.8l2.7-2.2c0,0,0,0,1.7,0.9c2.6,0.9,5,0,5,0C126.9,61.8,129.3,58,128.5,54.1z"/>
<path class="st2" d="M59.7,64.2c1.1-3.2,2.2-6.3,3.3-9.1c-1.7-1.5-3.3-2.9-4.8-4.3c-1.5,3.7-3,7.6-4.3,11.5
	c-6.1,18.4-8.6,35.5-6.9,46.5l6.1-0.4C51.7,99.8,53.1,84.1,59.7,64.2z"/>
<path d="M111.9,106.1c-0.3-1.5-1.1-2.8-2.2-3.8l11.6-36.8l-6-1.3l-10.9,34.4c-1.3-6-4.9-13.4-10.3-21.4c-1.9,0.7-3.9,1.4-6,2.1
	c7.2,10.5,10.6,19,10.7,24c-0.8,0.9-1.3,2-1.5,3.2L57,115.4c-0.7-1-1.7-1.8-2.7-2.3l0,0c-0.7-0.3-1.7-0.5-3.1-0.5s-2.1,0.2-2.1,0.2
	L21.7,83c6.2,1.6,14.4,2,23.4,1.5c0.4-2,0.8-4.1,1.2-6.2c-11.4,0.8-20.2-0.1-25.4-1.8c-0.4-1.1-1.1-2.1-1.9-2.8l12.5-39.4
	c0.2,0,0.4-0.1,0.5-0.1l0.4-0.1c0.8-0.2,1.5-0.5,2.1-0.9c8.3,2,23.2,11.2,39,28c2.5,2.6,4.7,5.2,6.8,7.7c2.2-0.6,4.3-1.3,6.2-2
	C84,63.6,81.1,60.3,78,57C65.4,43.6,50.5,32.1,39,28.1L75.6,20l-1.1-6l-38,8.4c-1.6-2.3-4.5-3.5-7.4-2.8l-0.4,0.1
	c-3.9,0.9-6.3,4.7-5.5,8.6l0.1,0.4c0.3,1.5,1.1,2.8,2.2,3.8L13.2,71.8c-0.2,0-0.4,0.1-0.5,0.1L12.3,72c-3.9,0.9-6.3,4.7-5.5,8.6
	L6.9,81c0.9,3.9,4.7,6.3,8.6,5.5l0.4-0.1c0.2,0,0.4-0.1,0.5-0.1l27.9,30.5c-0.6,1.3-0.8,2.8-0.4,4.4l0.1,0.4
	c0.9,3.9,4.7,6.3,8.6,5.5L53,127c2.9-0.6,5-2.9,5.5-5.7l40.3-8.9c1.6,2.3,4.5,3.5,7.4,2.8l0.4-0.1c3.9-0.9,6.3-4.7,5.5-8.6
	L111.9,106.1z"/>
</svg>
