<svg xmlns="http://www.w3.org/2000/svg" width="33.235" height="30.71" viewBox="0 0 33.235 30.71">
  <g id="ADA" transform="translate(-15.083 -16.223)">
    <g id="images" transform="translate(15.083 16.223)">
      <g id="block" transform="translate(0 0)">
        <path id="cardano-ada-logo" d="M16.214.1a.931.931,0,0,1,1.223,1.222.938.938,0,0,1-1.5.3A.947.947,0,0,1,16.214.1M8.422.936a.723.723,0,0,1,.952.7.722.722,0,0,1-1.038.656A.737.737,0,0,1,8.422.936M24.38,2.308A.729.729,0,0,1,24.245.926c.514-.25.985.219,1.06.706a.8.8,0,0,1-.925.676M10.195,4.251a1.127,1.127,0,1,1-.158,1.861,1.137,1.137,0,0,1,.158-1.861m11.23.494A1.138,1.138,0,0,1,23.457,4.7a1.193,1.193,0,0,1-.743,1.652,1.176,1.176,0,0,1-1.289-1.6M15.275,6.3a1.4,1.4,0,0,1,1.346-1.318,1.478,1.478,0,0,1,1.154.75,1.328,1.328,0,0,1-.621,1.809,1.758,1.758,0,0,1-.99.086A1.44,1.44,0,0,1,15.275,6.3M3.689,7.361a.93.93,0,1,1-.15,1.556.933.933,0,0,1,.15-1.556m24.881,0a.927.927,0,1,1,.1,1.6.927.927,0,0,1-.1-1.6M18.534,8.666a2.247,2.247,0,1,1-1.391,2.917,2.256,2.256,0,0,1,1.391-2.917m-5.52.113a2.246,2.246,0,1,1-1.046,3.038,2.265,2.265,0,0,1,1.046-3.038m-5.528,1.89A1.412,1.412,0,0,1,8.838,9.514a1.49,1.49,0,0,1,1.314,1.316,1.4,1.4,0,0,1-1.31,1.361,1.317,1.317,0,0,1-1.357-1.522M23.812,9.661a1.325,1.325,0,1,1-.1,2.293,1.334,1.334,0,0,1,.1-2.293M10.767,13.2a2.245,2.245,0,1,1-1.446,3.133A2.265,2.265,0,0,1,10.767,13.2m10.471,0a2.248,2.248,0,1,1-1.324,3.221A2.27,2.27,0,0,1,21.237,13.2M4.551,14.316a1.136,1.136,0,0,1,1.422,1.433,1.123,1.123,0,0,1-1.818.477,1.137,1.137,0,0,1,.4-1.91m22.625,1.2a1.278,1.278,0,0,1,1.191-1.343,1.2,1.2,0,0,1,1.082,1.174,1.127,1.127,0,0,1-1.638.994,1.521,1.521,0,0,1-.635-.826m-26.73-.8a.731.731,0,1,1-.293,1.12A.744.744,0,0,1,.447,14.722Zm31.664-.013a.724.724,0,0,1,1.061.342.713.713,0,0,1-.706.993c-.713.065-.944-1.022-.355-1.335M13.494,17.74A2.245,2.245,0,1,1,11.747,19.9a2.271,2.271,0,0,1,1.747-2.164m5.233,0A2.248,2.248,0,1,1,17.084,19.4a2.259,2.259,0,0,1,1.644-1.659m-10.09.838a1.325,1.325,0,1,1-.824,2.185,1.335,1.335,0,0,1,.824-2.185m15.347.043a1.323,1.323,0,1,1-.25,2.361,1.326,1.326,0,0,1,.25-2.361m4.29,4.3a.922.922,0,0,1,.935-1.293,1.14,1.14,0,0,1,.781.479c.044.358.118.784-.18,1.061a.923.923,0,0,1-1.537-.246M3.686,21.8a.936.936,0,0,1,1.388.938A.932.932,0,1,1,3.686,21.8M16.07,23.152a1.321,1.321,0,1,1-.246,2.346,1.336,1.336,0,0,1,.246-2.347M10.333,24.49a1.123,1.123,0,0,1,1.573,1.05,1.109,1.109,0,0,1-1.239,1.095,1.109,1.109,0,0,1-.334-2.144m11.618.011a1.128,1.128,0,1,1-.133,1.89,1.137,1.137,0,0,1,.133-1.89M23.972,29.5a.8.8,0,0,1,.576-1.177c.417.085.859.4.771.883a.742.742,0,0,1-1.347.294m-16.038-.42c.127-.383.436-.764.887-.665A.734.734,0,0,1,9.1,29.756a.787.787,0,0,1-1.164-.679m7.737.44a.921.921,0,0,1,1.344-.542c.319.137.413.5.5.8-.044.158-.083.317-.122.475a1.045,1.045,0,0,1-.782.461.921.921,0,0,1-.935-1.194" transform="translate(-0.004 -0.005)"/>
      </g>
    </g>
  </g>
</svg>
