<svg version="1.1" id="Layer_1" xmlns="http://www.w3.org/2000/svg" x="0" y="0" viewBox="0 0 33.235 30.71" xml:space="preserve"><path id="ada-icon" fill="currentColor" d="M16.21.095a.931.931 0 011.223 1.222.938.938 0 01-1.5.3.947.947 0 01.277-1.522M8.418.931a.723.723 0 01.952.7.722.722 0 01-1.038.656.737.737 0 01.086-1.356m15.958 1.372a.729.729 0 01-.135-1.382c.514-.25.985.219 1.06.706a.8.8 0 01-.925.676M10.191 4.246a1.127 1.127 0 11-.158 1.861 1.137 1.137 0 01.158-1.861m11.23.494a1.138 1.138 0 012.032-.045 1.193 1.193 0 01-.743 1.652 1.176 1.176 0 01-1.289-1.6m-6.15 1.548a1.4 1.4 0 011.346-1.318c.485.045.916.325 1.154.75a1.328 1.328 0 01-.621 1.809 1.758 1.758 0 01-.99.086 1.44 1.44 0 01-.889-1.327M3.685 7.356a.93.93 0 11.853 1.653.93.93 0 01-.853-1.653m24.881 0a.927.927 0 111.03 1.542.927.927 0 01-1.03-1.542M18.53 8.661a2.247 2.247 0 11-1.391 2.917 2.256 2.256 0 011.391-2.917m-5.52.113a2.246 2.246 0 11-1.046 3.038 2.265 2.265 0 011.046-3.038m-5.528 1.89a1.412 1.412 0 011.352-1.155 1.49 1.49 0 011.314 1.316 1.4 1.4 0 01-1.31 1.361 1.317 1.317 0 01-1.357-1.522m16.327-1.008a1.325 1.325 0 11-.1 2.293 1.334 1.334 0 01.1-2.293m-13.045 3.539a2.245 2.245 0 11-1.446 3.133 2.265 2.265 0 011.446-3.133m10.471 0a2.248 2.248 0 11-1.324 3.221 2.27 2.27 0 011.323-3.221M4.547 14.311a1.136 1.136 0 011.422 1.433 1.123 1.123 0 01-1.818.477 1.137 1.137 0 01.4-1.91m22.625 1.2a1.278 1.278 0 011.191-1.343 1.2 1.2 0 011.082 1.174 1.127 1.127 0 01-1.638.994 1.521 1.521 0 01-.635-.826m-26.73-.8a.731.731 0 11-.293 1.12.744.744 0 01.29-1.113l.003-.007zm31.664-.013a.724.724 0 011.061.342.713.713 0 01-.706.993c-.713.065-.944-1.022-.355-1.335m-18.62 3.038a2.245 2.245 0 11-1.747 2.16 2.271 2.271 0 011.747-2.164m5.233 0a2.248 2.248 0 11-1.643 1.664 2.259 2.259 0 011.644-1.659m-10.09.838a1.325 1.325 0 11-.824 2.185 1.335 1.335 0 01.824-2.185m15.347.043a1.323 1.323 0 11-.25 2.361 1.326 1.326 0 01.25-2.361m4.29 4.3a.922.922 0 01.935-1.293c.316.043.6.217.781.479.044.358.118.784-.18 1.061a.923.923 0 01-1.537-.246M3.682 21.795a.936.936 0 011.388.938.932.932 0 11-1.388-.938m12.384 1.352a1.321 1.321 0 11-.246 2.346 1.336 1.336 0 01.246-2.347m-5.737 1.339a1.123 1.123 0 011.573 1.05 1.109 1.109 0 01-1.239 1.095 1.109 1.109 0 01-.334-2.144m11.618.011a1.128 1.128 0 11-.133 1.89 1.137 1.137 0 01.133-1.89m2.021 4.998a.8.8 0 01.576-1.177c.417.085.859.4.771.883a.742.742 0 01-1.347.294m-16.038-.42c.127-.383.436-.764.887-.665a.734.734 0 01.279 1.341.787.787 0 01-1.164-.679m7.737.44a.921.921 0 011.344-.542c.319.137.413.5.5.8-.044.158-.083.317-.122.475a1.045 1.045 0 01-.782.461.921.921 0 01-.935-1.194"/></svg>