<?xml version="1.0" encoding="utf-8"?>
<!-- Generator: Adobe Illustrator 25.2.1, SVG Export Plug-In . SVG Version: 6.00 Build 0)  -->
<svg version="1.1" id="Слой_1" xmlns="http://www.w3.org/2000/svg" xmlns:xlink="http://www.w3.org/1999/xlink" x="0px" y="0px"
	 viewBox="0 0 31.4 33.1" style="enable-background:new 0 0 31.4 33.1;" xml:space="preserve">
<style type="text/css">
	.st0{fill:none;}
</style>
<g id="ATOM" transform="translate(-16.658 -16.432)">
	<g id="images" transform="translate(17.751 17.459)">
		<g id="block" transform="translate(0 0)">
			<g id="Эллипс_77" transform="translate(2.175 2.948)">
				<circle class="st0" cx="12.1" cy="12.1" r="12.1"/>
				<path d="M12.1,24.2C5.4,24.2,0,18.8,0,12.1C0,5.4,5.4,0,12.1,0c6.7,0,12.1,5.4,12.1,12.1C24.2,18.8,18.8,24.2,12.1,24.2z
					 M12.1,3C7.1,3,3,7.1,3,12.1c0,5,4.1,9.1,9.1,9.1c5,0,9.1-4.1,9.1-9.1C21.2,7.1,17.1,3,12.1,3z"/>
			</g>
			<rect x="-6.7" y="14" transform="matrix(0.685 -0.7286 0.7286 0.685 -6.7096 15.5214)" width="42.6" height="3"/>
		</g>
	</g>
</g>
</svg>
