<svg version="1.1" id="Layer_1" xmlns="http://www.w3.org/2000/svg" x="0" y="0" viewBox="0 0 31.4 33.1" xml:space="preserve"><path id="atom-icon" fill="currentColor" d="M31.4 2l-2.2-2L23 6.6C20.9 5 18.2 4 15.4 4 8.7 4 3.3 9.4 3.3 16.1c0 3.1 1.2 6 3.1 8.1L0 31l2.2 2.1 6.5-6.9c1.9 1.3 4.2 2 6.7 2 6.7 0 12.1-5.4 12.1-12.1 0-2.7-.9-5.3-2.4-7.3L31.4 2zM6.3 16.1c0-5 4.1-9.1 9.1-9.1 2.1 0 4 .7 5.5 1.9L8.5 22c-1.4-1.6-2.2-3.7-2.2-5.9zm18.2 0c0 5-4.1 9.1-9.1 9.1-1.7 0-3.2-.5-4.6-1.3L22.9 11c1 1.5 1.6 3.2 1.6 5.1z"/></svg>