<svg xmlns="http://www.w3.org/2000/svg" width="35.639" height="30.72" viewBox="0 0 35.639 30.72">
  <g id="AVAX" transform="translate(-14.076 -16.217)">
    <g id="images" transform="translate(14.076 16.217)">
      <g id="block" transform="translate(0 0)">
        <path id="Объединение_2" data-name="Объединение 2" d="M23.853,30.72a1.9,1.9,0,0,1-1.668-2.844l2.34-4.048,2.592-4.485a1.931,1.931,0,0,1,3.335,0l2.39,4.137,2.542,4.4a1.9,1.9,0,0,1-1.667,2.844Zm-21.929,0A1.9,1.9,0,0,1,.257,27.876L15.832.958a1.929,1.929,0,0,1,3.333,0l4.483,7.733c.732,1.267.643,2.457-.251,4.037s-7.783,13.564-8.843,15.429-1.85,2.563-3.6,2.563Z" transform="translate(0)"/>
      </g>
    </g>
  </g>
</svg>
