<svg version="1.1" id="bind" xmlns="http://www.w3.org/2000/svg" x="0" y="0" viewBox="0 0 200 200" xml:space="preserve"><g fill="none" stroke="currentColor" stroke-width="8"><path id="bind_x5F_2" d="M129.418 114.63c-8.335 16.574-28.454 23.28-45.029 14.946s-23.28-28.455-14.946-45.03 28.455-23.28 45.03-14.945a33.355 33.355 0 0114.753 14.563c1.916-1.725 16.287-15.521 17.724-17.054a57.077 57.077 0 00-37.939-24.047V23.518c19.449 2.396 37.173 12.264 49.628 27.4.862-.957 12.359-12.55 13.508-13.7-34.681-39.95-95.23-44.262-135.182-9.484S-7.2 122.869 27.48 162.82s95.231 44.167 135.183 9.485c3.64-3.162 6.993-6.515 10.06-10.155-1.438-1.342-13.605-13.222-14.18-13.892-26.347 31.903-73.196 37.172-105.961 11.88.383-.384 12.071-12.36 13.508-13.796 25.868 18.394 61.795 12.359 80.19-13.509.383-.575.766-1.15 1.15-1.629-.384-.191-17.246-15.904-18.012-16.574h0z"/><path id="bind_x5F_1" d="M91.766 22.944c-39.184 3.353-68.98 36.597-68.98 76.644 0 17.724 6.131 34.97 17.437 48.67 1.15-1.054 12.167-12.934 13.317-14.084-19.066-25.388-14.084-61.411 11.305-80.477 7.856-5.94 17.149-9.772 27.017-11.113.096-1.15-.192-18.395-.096-19.64z"/></g></svg>