<svg version="1.1" id="Слой_1" xmlns="http://www.w3.org/2000/svg" xmlns:xlink="http://www.w3.org/1999/xlink" x="0" y="0" viewBox="0 0 185 210" xml:space="preserve"><style type="text/css">.st1{fill:none;stroke:#4556e5;stroke-width:4}</style><defs><path id="SVGID_1_" d="M0 0h185v210H0z"/></defs><clipPath id="SVGID_2_"><use xlink:href="#SVGID_1_" overflow="visible"/></clipPath><g id="Canvas" clip-path="url(#SVGID_2_)"><path id="_1" class="st1" d="M135.3 119.7c-8.7 17.3-29.7 24.3-47 15.6s-24.3-29.7-15.6-47 29.7-24.3 47-15.6c6.6 3.3 12 8.6 15.4 15.2 2-1.8 17-16.2 18.5-17.8-9.2-13.4-23.5-22.5-39.6-25.1V24.6c20.3 2.5 38.8 12.8 51.8 28.6.9-1 12.9-13.1 14.1-14.3C143.7-2.8 80.5-7.3 38.8 29s-46.1 99.3-9.9 141 99.4 46.1 141.1 9.9c3.8-3.3 7.3-6.8 10.5-10.6-1.5-1.4-14.2-13.8-14.8-14.5-27.5 33.3-76.4 38.8-110.6 12.4.4-.4 12.6-12.9 14.1-14.4 27 19.2 64.5 12.9 83.7-14.1.4-.6.8-1.2 1.2-1.7-.4-.2-18-16.6-18.8-17.3z"/><path id="_1_копия" class="st1" d="M96 24c-40.9 3.5-72 38.2-72 80 0 18.5 6.4 36.5 18.2 50.8 1.2-1.1 12.7-13.5 13.9-14.7-19.9-26.5-14.7-64.1 11.8-84 8.2-6.2 17.9-10.2 28.2-11.6.1-1.2-.2-19.2-.1-20.5z"/></g></svg>