<?xml version="1.0" encoding="utf-8"?>
<!-- Generator: Adobe Illustrator 24.3.0, SVG Export Plug-In . SVG Version: 6.00 Build 0)  -->
<svg version="1.1" id="Слой_1" xmlns="http://www.w3.org/2000/svg" xmlns:xlink="http://www.w3.org/1999/xlink" x="0px" y="0px"
	 viewBox="0 0 185 210" style="enable-background:new 0 0 185 210;" xml:space="preserve">
<style type="text/css">
	.st0{clip-path:url(#SVGID_2_);}
	.st1{fill:none;stroke:#4556E5;stroke-width:4;}
</style>
<g>
	<g>
		<defs>
			<rect id="SVGID_1_" width="185" height="210"/>
		</defs>
		<clipPath id="SVGID_2_">
			<use xlink:href="#SVGID_1_"  style="overflow:visible;"/>
		</clipPath>
		<g id="Canvas" class="st0">
			<path id="_1" class="st1" d="M135.3,119.7c-8.7,17.3-29.7,24.3-47,15.6s-24.3-29.7-15.6-47s29.7-24.3,47-15.6
				c6.6,3.3,12,8.6,15.4,15.2c2-1.8,17-16.2,18.5-17.8C144.4,56.7,130.1,47.6,114,45c0-1.3,0-19.4,0-20.4
				c20.3,2.5,38.8,12.8,51.8,28.6c0.9-1,12.9-13.1,14.1-14.3C143.7-2.8,80.5-7.3,38.8,29s-46.1,99.3-9.9,141s99.4,46.1,141.1,9.9
				c3.8-3.3,7.3-6.8,10.5-10.6c-1.5-1.4-14.2-13.8-14.8-14.5c-27.5,33.3-76.4,38.8-110.6,12.4c0.4-0.4,12.6-12.9,14.1-14.4
				c27,19.2,64.5,12.9,83.7-14.1c0.4-0.6,0.8-1.2,1.2-1.7C153.7,136.8,136.1,120.4,135.3,119.7z"/>
			<path id="_1_копия" class="st1" d="M96,24c-40.9,3.5-72,38.2-72,80c0,18.5,6.4,36.5,18.2,50.8c1.2-1.1,12.7-13.5,13.9-14.7
				c-19.9-26.5-14.7-64.1,11.8-84c8.2-6.2,17.9-10.2,28.2-11.6C96.2,43.3,95.9,25.3,96,24z"/>
		</g>
	</g>
</g>
</svg>
