<svg version="1.1" id="bos-icon" xmlns="http://www.w3.org/2000/svg" x="0" y="0" viewBox="0 0 241 254" xml:space="preserve"><path fill="currentColor" d="M171 254c-30.8 0-58-20.2-67-49.7 4.1-2 8.1-4.2 11.9-6.7 3.8-2.3 7.2-5.1 10.3-8.3 3.1 24.6 25.5 42.1 50.1 39s42.1-25.5 39-50.1-25.5-42.1-50.1-39c-12.9 1.6-24.4 8.7-31.7 19.4-.7 1-1.2 1.8-1.7 2.5-.9 1.4-1.8 2.7-2.9 4-.6.7-1.4 1.8-2.9 3.8-6.4 8.6-14.7 15.6-24.2 20.4-22.7 11.6-49.9 10-71-4.3-11.3-7.6-20.1-18.3-25.4-30.8-9.2-21.8-6.8-46.8 6.5-66.4 7.6-11.3 18.3-20.1 30.8-25.4 8.6-3.6 17.9-5.5 27.2-5.5 5 0 10 .5 14.9 1.6 4.8 1 9.4 2.6 13.8 4.6.6.4 1.2.6 1.8.8.4 0 .6-.3.7-.9 3.8-38.5 38.1-66.6 76.6-62.8s66.6 38.1 62.8 76.6c-1.3 12.7-6 24.9-13.7 35.1-6.8-5.3-14.3-9.7-22.3-12.9 16.2-18.8 14.1-47.1-4.7-63.3-18.8-16.2-47.1-14.1-63.3 4.7-11.2 12.9-14 31.1-7.3 46.9 4.6 10.8 13.2 19.5 24 24.1 5.5 2.4 11.5 3.6 17.5 3.6h3c13.4.7 26.4 5.1 37.4 12.8 3.6 2.5 6.9 5.3 9.9 8.4 13 12.7 20 29.9 20 47.8 0 13.9-4.1 27.6-12 39.1-7.6 11.3-18.3 20.1-30.8 25.4-8.6 3.6-17.8 5.5-27.2 5.5zM69.8 81.9c-24.7 0-44.7 20.1-44.7 44.8 0 24.7 20.1 44.7 44.8 44.7s44.7-20.1 44.7-44.8c0-18-10.8-34.2-27.3-41.2-5.6-2.3-11.5-3.5-17.5-3.5z"/></svg>