<svg xmlns="http://www.w3.org/2000/svg" viewBox="0 0 13 20"><path fill="currentColor" d="M5 19v-2H1c-.6 0-1-.4-1-1s.4-1 1-1h1V5H1c-.6 0-1-.4-1-1s.4-1 1-1h4V1c0-.6.4-1 1-1s1 .4 1 1v2h.7c1.3-.1 2.5.3 3.5 1 .8.6 1.2 1.6 1.2 2.6 0 .7-.2 1.5-.7 2-.5.5-1.1.9-1.8 1v.1c1.1 0 2.1.7 2.7 1.6.3.5.5 1.2.4 1.8 0 .7-.2 1.4-.6 2-.4.6-1 1.1-1.7 1.4-.8.4-1.7.5-2.6.5H7v2c0 .6-.4 1-1 1s-1-.4-1-1zm0-4.4h2.5c.7.1 1.3-.1 1.8-.5.4-.3.6-.8.6-1.3s-.2-1.1-.6-1.4c-.5-.4-1.1-.6-1.7-.6H5v3.8zm0-5.7h2.2c.6 0 1.1-.1 1.5-.5.4-.3.6-.8.6-1.3s-.2-.9-.5-1.2c-.4-.3-1-.5-1.5-.5H5v3.5z"/></svg>