<svg version="1.1" id="Layer_1" xmlns="http://www.w3.org/2000/svg" x="0" y="0" viewBox="0 0 19.556 30.976" xml:space="preserve"><path id="btc-icon" fill="currentColor" d="M8.524 30.976a1 1 0 01-1-1v-3.635H3v-.011H1a1 1 0 01-1-1v-1.1a1 1 0 011-1h2V7.744H1a1 1 0 01-1-1v-1.1a1 1 0 011-1h2v-.01h4.524V1a1 1 0 011-1h1.01a1 1 0 011 1v3.637h1.06A7.906 7.906 0 0116.932 6.2a5.076 5.076 0 011.786 4 4.365 4.365 0 01-1.1 3.1 5.293 5.293 0 01-2.776 1.563v.212a4.79 4.79 0 012.3.7 4.954 4.954 0 011.744 1.8c.466.846.698 1.8.671 2.766a5.528 5.528 0 01-3.332 5.219 9.426 9.426 0 01-4.054.779h-1.637v3.635a1 1 0 01-1 1l-1.01.002zm-.985-8.386h3.7a4.214 4.214 0 002.771-.743 2.455 2.455 0 00.864-1.96 2.839 2.839 0 00-.948-2.2 3.7 3.7 0 00-2.582-.859h-3.8l-.005 5.762zm0-8.871H10.9a3.6 3.6 0 002.315-.735 2.445 2.445 0 00.922-2.02 2.4 2.4 0 00-.822-1.9 3.427 3.427 0 00-2.331-.721H7.539v5.376z"/></svg>