<svg xmlns="http://www.w3.org/2000/svg" width="19.556" height="30.976" viewBox="0 0 19.556 30.976">
  <g id="BTC" transform="translate(-21.878 -17.09)">
    <g id="images" transform="translate(21.878 17.09)">
      <g id="block" transform="translate(0 0)">
        <path id="Прямоугольник_скругл._углы_6_копия_3" data-name="Прямоугольник, скругл. углы 6 копия 3" d="M8.524,30.976a1,1,0,0,1-1-1V26.341H3V26.33H1a1,1,0,0,1-1-1v-1.1a1,1,0,0,1,1-1H3V7.744H1a1,1,0,0,1-1-1v-1.1a1,1,0,0,1,1-1H3v-.01H7.524V1a1,1,0,0,1,1-1h1.01a1,1,0,0,1,1,1V4.637h1.06A7.906,7.906,0,0,1,16.932,6.2a5.076,5.076,0,0,1,1.786,4,4.365,4.365,0,0,1-1.1,3.1,5.293,5.293,0,0,1-2.776,1.563v.212a4.791,4.791,0,0,1,2.3.7,4.954,4.954,0,0,1,1.744,1.8,5.416,5.416,0,0,1,.671,2.766,5.528,5.528,0,0,1-3.332,5.219,9.426,9.426,0,0,1-4.054.779H10.534v3.635a1,1,0,0,1-1,1ZM7.539,22.59h3.7a4.214,4.214,0,0,0,2.771-.743,2.455,2.455,0,0,0,.864-1.96,2.839,2.839,0,0,0-.948-2.2,3.7,3.7,0,0,0-2.582-.859h-3.8Zm0-8.871H10.9a3.6,3.6,0,0,0,2.315-.735,2.445,2.445,0,0,0,.922-2.02,2.4,2.4,0,0,0-.822-1.9,3.427,3.427,0,0,0-2.331-.721H7.539Z" transform="translate(0 0)"/>
      </g>
    </g>
  </g>
</svg>
