<svg xmlns="http://www.w3.org/2000/svg" width="23.29" height="30.664" viewBox="0 0 23.29 30.664">
  <g id="DOT" transform="translate(-20.507 -16.575)">
    <g id="images" transform="translate(20.507 16.575)">
      <g id="block" transform="translate(0 0)">
        <g id="Polkadot_symbol_black" transform="translate(0 0)">
          <g id="Сгруппировать_700" data-name="Сгруппировать 700" transform="translate(0 0)">
            <path id="Контур_633" data-name="Контур 633" d="M58.845,34.7A11.655,11.655,0,0,0,47.2,46.345a12.2,12.2,0,0,0,.616,3.789A1.627,1.627,0,1,0,50.9,49.087a8.2,8.2,0,0,1-.462-2.988,8.412,8.412,0,1,1,8.9,8.626s-1.633.092-2.434.216c-.4.062-.709.123-.924.154a.123.123,0,0,1-.154-.154l.277-1.356,1.51-6.962a1.607,1.607,0,1,0-3.142-.678S50.835,62.888,50.8,63.073a1.607,1.607,0,1,0,3.142.678c.031-.185.524-2.434.524-2.434a4.092,4.092,0,0,1,3.45-3.2c.37-.062,1.818-.154,1.818-.154A11.647,11.647,0,0,0,58.845,34.7Zm.832,26.8a1.952,1.952,0,1,0,1.51,2.311A1.939,1.939,0,0,0,59.677,61.5Z" transform="translate(-47.2 -34.7)"/>
          </g>
        </g>
      </g>
    </g>
  </g>
</svg>
