<svg version="1.1" id="Layer_1" xmlns="http://www.w3.org/2000/svg" x="0" y="0" viewBox="0 0 23.3 30.7" xml:space="preserve"><path id="dot-icon" fill="currentColor" d="M11.6 0C5.2 0 0 5.2 0 11.6c0 1.3.2 2.6.6 3.8.3.9 1.2 1.3 2.1 1 .9-.3 1.3-1.2 1-2.1-.3-1-.5-2-.5-3 .1-4.6 4-8.3 8.6-8.2 4.6.1 8.3 4 8.2 8.6-.1 4.4-3.6 7.9-7.9 8.2 0 0-1.6.1-2.4.2-.4.1-.7.1-.9.2-.1 0-.1 0-.2-.1v-.1l.3-1.4 1.5-7c.2-.9-.4-1.7-1.2-1.9s-1.7.4-1.9 1.2c0 0-3.6 16.9-3.7 17.1-.2.9.4 1.7 1.2 1.9s1.7-.4 1.9-1.2c0-.2.5-2.4.5-2.4.4-1.7 1.7-3 3.5-3.2.4-.1 1.8-.2 1.8-.2 6.4-.5 11.2-6 10.8-12.5C22.9 4.7 17.8 0 11.6 0zm.9 26.8c-1.1-.2-2.1.5-2.3 1.5s.5 2.1 1.5 2.3c1.1.2 2.1-.5 2.3-1.5.2-1-.5-2.1-1.5-2.3z"/></svg>