<svg version="1.1" id="Layer_1" xmlns="http://www.w3.org/2000/svg" x="0" y="0" viewBox="0 0 127.7 128" xml:space="preserve"><style type="text/css">.st0{fill-rule:evenodd;clip-rule:evenodd;fill:#0d022b}</style><path class="st0" d="M102.3 25.4c-.5-.5-.8-1-.8-1.7s.3-1.2.8-1.7c1-.9 2.6-.9 3.7 0 .5.5.8 1 .8 1.7s-.3 1.2-.8 1.7c-.5.4-1.2.7-1.8.7-.7.1-1.4-.1-1.9-.7zM95.9 32.3c-.4-.5-.7-1-.7-1.7s.3-1.2.7-1.7c.9-.9 2.5-.9 3.4 0 .4.5.7 1 .7 1.7s-.3 1.2-.7 1.7c-.5.4-1 .7-1.7.7s-1.2-.3-1.7-.7zM88.9 38.9c-.4-.4-.7-1-.7-1.7s.3-1.2.7-1.7c.9-.9 2.5-.9 3.4 0 .4.4.7 1 .7 1.7s-.3 1.2-.7 1.7c-.5.5-1 .7-1.7.7s-1.3-.3-1.7-.7zM82.2 45.6c-.5-.4-.8-1-.8-1.7s.3-1.2.8-1.7c1-.9 2.6-.9 3.7 0 .5.4.8 1 .8 1.7s-.3 1.3-.8 1.7c-.5.5-1.2.7-1.8.7-.7 0-1.3-.1-1.9-.7zM75.8 52.3c-.5-.4-.7-1-.7-1.7s.3-1.2.7-1.7c.9-.9 2.5-.9 3.4 0 .5.4.7 1 .7 1.7s-.3 1.3-.7 1.7c-.4.5-1 .7-1.7.7-.6.1-1.3-.1-1.7-.7zM68.1 57.3c0-.7.3-1.2.7-1.7.9-.9 2.5-.9 3.4 0 .5.5.7 1 .7 1.7s-.3 1.2-.7 1.7c-.4.4-1 .7-1.7.7s-1.2-.3-1.7-.7c-.5-.4-.7-1-.7-1.7zM55.6 72.1c-.4-.4-.7-1-.7-1.7s.3-1.2.7-1.7c.9-.9 2.5-.9 3.4 0 .5.5.7 1 .7 1.7s-.3 1.2-.7 1.7c-.4.5-1 .7-1.7.7-.6.1-1.2-.1-1.7-.7zM48.7 78.8c-.5-.4-.8-1-.8-1.7s.3-1.2.8-1.7c1-.9 2.6-.9 3.7 0 .5.5.8 1 .8 1.7s-.3 1.2-.8 1.7-1.2.7-1.8.7c-.8.1-1.4-.2-1.9-.7zM42.2 85.6a2.413 2.413 0 010-3.4c.9-.9 2.5-.9 3.4 0 .4.4.7 1 .7 1.7s-.3 1.2-.7 1.7c-.5.5-1 .7-1.7.7s-1.1-.3-1.7-.7zM35.5 92.3c-.5-.4-.7-1-.7-1.7s.3-1.2.7-1.7c.9-.9 2.5-.9 3.4 0 .4.5.7 1 .7 1.7s-.3 1.3-.7 1.7c-.5.5-1 .7-1.7.7-.6 0-1.3-.2-1.7-.7zM28.6 99c-.5-.4-.8-1-.8-1.7s.3-1.2.8-1.7c1-.9 2.6-.9 3.5 0 .5.5.8 1 .8 1.7s-.3 1.3-.8 1.7c-.5.4-1.2.7-1.8.7-.7 0-1.3-.2-1.7-.7zM22 105.7c-.5-.5-.7-1-.7-1.7s.3-1.2.7-1.7c.9-.9 2.5-.9 3.4 0 .5.5.7 1 .7 1.7s-.3 1.2-.7 1.7c-.4.4-1 .7-1.7.7-.5.1-1.1-.2-1.7-.7zM25.4 25.4c.4-.5.7-1 .7-1.7s-.3-1.2-.7-1.7c-.9-.9-2.5-.9-3.4 0-.5.5-.7 1-.7 1.7s.3 1.2.7 1.7c.4.4 1 .7 1.7.7.7.1 1.3-.1 1.7-.7zM32.1 32.3c.5-.5.8-1 .8-1.7s-.3-1.2-.8-1.7c-1-.9-2.6-.9-3.7 0-.5.5-.8 1-.8 1.7s.3 1.2.8 1.7c.5.4 1.2.7 1.8.7.7-.1 1.4-.3 1.9-.7zM38.9 38.9c.4-.4.7-1 .7-1.7s-.3-1.2-.7-1.7c-.9-.9-2.5-.9-3.4 0-.4.4-.7 1-.7 1.7s.3 1.2.7 1.7c.5.5 1 .7 1.7.7.6 0 1.2-.3 1.7-.7zM45.6 45.6c.4-.4.7-1 .7-1.7s-.3-1.2-.7-1.7c-.9-.9-2.5-.9-3.4 0a2.413 2.413 0 000 3.4c.5.5 1 .7 1.7.7.6 0 1.2-.1 1.7-.7zM52.2 52.3c.5-.4.8-1 .8-1.7s-.3-1.2-.8-1.7c-.9-.9-2.6-.9-3.5 0-.5.4-.8 1-.8 1.7s.3 1.3.8 1.7c.5.5 1.2.7 1.8.7.6.1 1.3-.1 1.7-.7zM59.7 57.3c0-.7-.3-1.2-.7-1.7-.9-.9-2.5-.9-3.4 0-.5.5-.7 1-.7 1.7s.3 1.2.7 1.7c.4.4 1 .7 1.7.7s1.2-.3 1.7-.7c.5-.4.7-1 .7-1.7zM65.7 65.8c.5-.5.7-1 .7-1.7s-.3-1.2-.7-1.7c-.9-.9-2.5-.9-3.4 0-.5.5-.7 1-.7 1.7s.3 1.2.7 1.7a2.413 2.413 0 003.4 0zM72.4 72.1c.5-.4.8-1 .8-1.7s-.3-1.2-.8-1.7c-1-.9-2.6-.9-3.5 0-.5.5-.8 1-.8 1.7s.3 1.2.8 1.7 1.2.7 1.8.7c.5.1 1.2-.1 1.7-.7zM79.2 78.8c.4-.4.7-1 .7-1.7s-.3-1.2-.7-1.7c-.9-.9-2.5-.9-3.4 0-.4.5-.7 1-.7 1.7s.3 1.2.7 1.7c.5.5 1 .7 1.7.7.5.1 1.2-.2 1.7-.7zM85.9 85.6a2.413 2.413 0 000-3.4c-.9-.9-2.5-.9-3.4 0-.4.4-.7 1-.7 1.7s.3 1.2.7 1.7c.5.5 1 .7 1.7.7s1.2-.3 1.7-.7zM92.2 92.3c.5-.4.7-1 .7-1.7s-.3-1.2-.7-1.7c-.9-.9-2.5-.9-3.4 0-.4.5-.7 1-.7 1.7s.3 1.3.7 1.7c.5.5 1 .7 1.7.7.6 0 1.3-.2 1.7-.7zM99.3 99c.5-.4.7-1 .7-1.7s-.3-1.2-.7-1.7c-.9-.9-2.5-.9-3.4 0-.5.5-.7 1-.7 1.7s.3 1.3.7 1.7c.4.4 1 .7 1.7.7s1.3-.2 1.7-.7zM106 105.7c.5-.5.8-1 .8-1.7s-.3-1.2-.8-1.7c-1-.9-2.6-.9-3.5 0-.5.5-.8 1-.8 1.7s.3 1.2.8 1.7c.5.4 1.2.7 1.8.7.5.1 1.1-.2 1.7-.7zM41.3 27.3c6.8-4.5 14.3-6.6 22.6-6.7 8.1 0 15.6 2.2 22.6 6.7l14.4-14.4C89.6 4.3 77.4 0 63.9 0S38 4.3 27 12.9l14.3 14.4zM26.9 86.4c-4.6-7-6.8-14.4-6.8-22.4 0-8.1 2.2-15.6 6.8-22.4L12.6 27.3C4.2 38.3 0 50.5 0 64.1 0 77.5 4.2 89.8 12.7 101l14.2-14.6zM86.4 100.7c-6.8 4.6-14.3 7-22.4 7.1-8.3 0-15.9-2.2-22.7-7l-14.4 14.3c11.1 8.7 23.5 13 37.1 12.9 13.5-.1 25.7-4.5 36.7-12.9l-14.3-14.4zM100.5 41.4c4.6 7 7 14.6 6.8 22.8-.1 8-2.4 15.3-6.8 22l14.4 14.3c8.5-11 12.9-23.2 12.9-36.6.1-13.6-4.2-26-12.9-37.1l-14.4 14.6zM115.5 105.2c5.5 0 10.1 4.5 10.1 10.1 0 5.5-4.5 10.1-10.1 10.1-5.5 0-10.1-4.5-10.1-10.1s4.5-10.1 10.1-10.1zM12.5 105.2c5.5 0 10 4.5 10 10.1 0 5.5-4.5 10.1-10 10.1s-10-4.5-10-10.1 4.5-10.1 10-10.1zM115.7 2.2c5.5 0 10 4.5 10 10.1s-4.5 10.1-10 10.1-10-4.5-10-10.1 4.5-10.1 10-10.1zM12.3 2.2c5.5 0 10.1 4.5 10.1 10s-4.5 10-10.1 10c-5.5 0-10.1-4.5-10.1-10s4.5-10 10.1-10z"/></svg>