<?xml version="1.0" encoding="utf-8"?>
<!-- Generator: Adobe Illustrator 24.0.0, SVG Export Plug-In . SVG Version: 6.00 Build 0)  -->
<svg version="1.1" id="Layer_1" xmlns="http://www.w3.org/2000/svg" xmlns:xlink="http://www.w3.org/1999/xlink" x="0px" y="0px"
	 viewBox="0 0 127.7 128" style="enable-background:new 0 0 127.7 128;" xml:space="preserve">
<style type="text/css">
	.st0{fill-rule:evenodd;clip-rule:evenodd;fill:#0D022B;}
</style>
<path class="st0" d="M102.3,25.4c-0.5-0.5-0.8-1-0.8-1.7c0-0.7,0.3-1.2,0.8-1.7c1-0.9,2.6-0.9,3.7,0c0.5,0.5,0.8,1,0.8,1.7
	c0,0.7-0.3,1.2-0.8,1.7c-0.5,0.4-1.2,0.7-1.8,0.7C103.5,26.2,102.8,26,102.3,25.4z"/>
<path class="st0" d="M95.9,32.3c-0.4-0.5-0.7-1-0.7-1.7c0-0.7,0.3-1.2,0.7-1.7c0.9-0.9,2.5-0.9,3.4,0c0.4,0.5,0.7,1,0.7,1.7
	c0,0.7-0.3,1.2-0.7,1.7c-0.5,0.4-1,0.7-1.7,0.7S96.4,32.7,95.9,32.3z"/>
<path class="st0" d="M88.9,38.9c-0.4-0.4-0.7-1-0.7-1.7s0.3-1.2,0.7-1.7c0.9-0.9,2.5-0.9,3.4,0c0.4,0.4,0.7,1,0.7,1.7
	s-0.3,1.2-0.7,1.7c-0.5,0.5-1,0.7-1.7,0.7S89.3,39.3,88.9,38.9z"/>
<path class="st0" d="M82.2,45.6c-0.5-0.4-0.8-1-0.8-1.7c0-0.7,0.3-1.2,0.8-1.7c1-0.9,2.6-0.9,3.7,0c0.5,0.4,0.8,1,0.8,1.7
	c0,0.7-0.3,1.3-0.8,1.7c-0.5,0.5-1.2,0.7-1.8,0.7C83.4,46.3,82.8,46.2,82.2,45.6z"/>
<path class="st0" d="M75.8,52.3c-0.5-0.4-0.7-1-0.7-1.7c0-0.7,0.3-1.2,0.7-1.7c0.9-0.9,2.5-0.9,3.4,0c0.5,0.4,0.7,1,0.7,1.7
	c0,0.7-0.3,1.3-0.7,1.7c-0.4,0.5-1,0.7-1.7,0.7C76.9,53.1,76.2,52.9,75.8,52.3z"/>
<path class="st0" d="M68.1,57.3c0-0.7,0.3-1.2,0.7-1.7c0.9-0.9,2.5-0.9,3.4,0c0.5,0.5,0.7,1,0.7,1.7c0,0.7-0.3,1.2-0.7,1.7
	c-0.4,0.4-1,0.7-1.7,0.7s-1.2-0.3-1.7-0.7C68.3,58.6,68.1,58,68.1,57.3z"/>
<path class="st0" d="M55.6,72.1c-0.4-0.4-0.7-1-0.7-1.7s0.3-1.2,0.7-1.7c0.9-0.9,2.5-0.9,3.4,0c0.5,0.5,0.7,1,0.7,1.7
	s-0.3,1.2-0.7,1.7c-0.4,0.5-1,0.7-1.7,0.7C56.7,72.9,56.1,72.7,55.6,72.1z"/>
<path class="st0" d="M48.7,78.8c-0.5-0.4-0.8-1-0.8-1.7c0-0.7,0.3-1.2,0.8-1.7c1-0.9,2.6-0.9,3.7,0c0.5,0.5,0.8,1,0.8,1.7
	c0,0.7-0.3,1.2-0.8,1.7c-0.5,0.5-1.2,0.7-1.8,0.7C49.8,79.6,49.2,79.3,48.7,78.8z"/>
<path class="st0" d="M42.2,85.6c-0.4-0.4-0.7-1-0.7-1.7s0.3-1.3,0.7-1.7c0.9-0.9,2.5-0.9,3.4,0c0.4,0.4,0.7,1,0.7,1.7
	s-0.3,1.2-0.7,1.7c-0.5,0.5-1,0.7-1.7,0.7S42.8,86,42.2,85.6z"/>
<path class="st0" d="M35.5,92.3c-0.5-0.4-0.7-1-0.7-1.7s0.3-1.2,0.7-1.7c0.9-0.9,2.5-0.9,3.4,0c0.4,0.5,0.7,1,0.7,1.7
	s-0.3,1.3-0.7,1.7c-0.5,0.5-1,0.7-1.7,0.7C36.6,93,35.9,92.8,35.5,92.3z"/>
<path class="st0" d="M28.6,99c-0.5-0.4-0.8-1-0.8-1.7c0-0.7,0.3-1.2,0.8-1.7c1-0.9,2.6-0.9,3.5,0c0.5,0.5,0.8,1,0.8,1.7
	c0,0.7-0.3,1.3-0.8,1.7c-0.5,0.4-1.2,0.7-1.8,0.7C29.6,99.7,29,99.5,28.6,99z"/>
<path class="st0" d="M22,105.7c-0.5-0.5-0.7-1-0.7-1.7s0.3-1.2,0.7-1.7c0.9-0.9,2.5-0.9,3.4,0c0.5,0.5,0.7,1,0.7,1.7
	s-0.3,1.2-0.7,1.7c-0.4,0.4-1,0.7-1.7,0.7C23.2,106.5,22.6,106.2,22,105.7z"/>
<path class="st0" d="M25.4,25.4c0.4-0.5,0.7-1,0.7-1.7c0-0.7-0.3-1.2-0.7-1.7c-0.9-0.9-2.5-0.9-3.4,0c-0.5,0.5-0.7,1-0.7,1.7
	c0,0.7,0.3,1.2,0.7,1.7c0.4,0.4,1,0.7,1.7,0.7C24.4,26.2,25,26,25.4,25.4z"/>
<path class="st0" d="M32.1,32.3c0.5-0.5,0.8-1,0.8-1.7c0-0.7-0.3-1.2-0.8-1.7c-1-0.9-2.6-0.9-3.7,0c-0.5,0.5-0.8,1-0.8,1.7
	c0,0.7,0.3,1.2,0.8,1.7c0.5,0.4,1.2,0.7,1.8,0.7C30.9,32.9,31.6,32.7,32.1,32.3z"/>
<path class="st0" d="M38.9,38.9c0.4-0.4,0.7-1,0.7-1.7s-0.3-1.2-0.7-1.7c-0.9-0.9-2.5-0.9-3.4,0c-0.4,0.4-0.7,1-0.7,1.7
	s0.3,1.2,0.7,1.7c0.5,0.5,1,0.7,1.7,0.7C37.8,39.6,38.4,39.3,38.9,38.9z"/>
<path class="st0" d="M45.6,45.6c0.4-0.4,0.7-1,0.7-1.7c0-0.7-0.3-1.2-0.7-1.7c-0.9-0.9-2.5-0.9-3.4,0c-0.4,0.4-0.7,1-0.7,1.7
	c0,0.7,0.3,1.3,0.7,1.7c0.5,0.5,1,0.7,1.7,0.7C44.5,46.3,45.1,46.2,45.6,45.6z"/>
<path class="st0" d="M52.2,52.3c0.5-0.4,0.8-1,0.8-1.7c0-0.7-0.3-1.2-0.8-1.7c-0.9-0.9-2.6-0.9-3.5,0c-0.5,0.4-0.8,1-0.8,1.7
	c0,0.7,0.3,1.3,0.8,1.7c0.5,0.5,1.2,0.7,1.8,0.7C51.1,53.1,51.8,52.9,52.2,52.3z"/>
<path class="st0" d="M59.7,57.3c0-0.7-0.3-1.2-0.7-1.7c-0.9-0.9-2.5-0.9-3.4,0c-0.5,0.5-0.7,1-0.7,1.7c0,0.7,0.3,1.2,0.7,1.7
	c0.4,0.4,1,0.7,1.7,0.7c0.7,0,1.2-0.3,1.7-0.7C59.5,58.6,59.7,58,59.7,57.3z"/>
<path class="st0" d="M65.7,65.8c0.5-0.5,0.7-1,0.7-1.7s-0.3-1.2-0.7-1.7c-0.9-0.9-2.5-0.9-3.4,0c-0.5,0.5-0.7,1-0.7,1.7
	s0.3,1.2,0.7,1.7c0.4,0.4,1,0.7,1.7,0.7C64.7,66.5,65.3,66.2,65.7,65.8z"/>
<path class="st0" d="M72.4,72.1c0.5-0.4,0.8-1,0.8-1.7s-0.3-1.2-0.8-1.7c-1-0.9-2.6-0.9-3.5,0c-0.5,0.5-0.8,1-0.8,1.7
	s0.3,1.2,0.8,1.7c0.5,0.5,1.2,0.7,1.8,0.7C71.2,72.9,71.9,72.7,72.4,72.1z"/>
<path class="st0" d="M79.2,78.8c0.4-0.4,0.7-1,0.7-1.7c0-0.7-0.3-1.2-0.7-1.7c-0.9-0.9-2.5-0.9-3.4,0c-0.4,0.5-0.7,1-0.7,1.7
	c0,0.7,0.3,1.2,0.7,1.7c0.5,0.5,1,0.7,1.7,0.7C78,79.6,78.7,79.3,79.2,78.8z"/>
<path class="st0" d="M85.9,85.6c0.4-0.4,0.7-1,0.7-1.7s-0.3-1.3-0.7-1.7c-0.9-0.9-2.5-0.9-3.4,0c-0.4,0.4-0.7,1-0.7,1.7
	s0.3,1.2,0.7,1.7c0.5,0.5,1,0.7,1.7,0.7C84.9,86.3,85.4,86,85.9,85.6z"/>
<path class="st0" d="M92.2,92.3c0.5-0.4,0.7-1,0.7-1.7s-0.3-1.2-0.7-1.7c-0.9-0.9-2.5-0.9-3.4,0c-0.4,0.5-0.7,1-0.7,1.7
	s0.3,1.3,0.7,1.7c0.5,0.5,1,0.7,1.7,0.7C91.1,93,91.8,92.8,92.2,92.3z"/>
<path class="st0" d="M99.3,99c0.5-0.4,0.7-1,0.7-1.7c0-0.7-0.3-1.2-0.7-1.7c-0.9-0.9-2.5-0.9-3.4,0c-0.5,0.5-0.7,1-0.7,1.7
	c0,0.7,0.3,1.3,0.7,1.7c0.4,0.4,1,0.7,1.7,0.7S98.9,99.5,99.3,99z"/>
<path class="st0" d="M106,105.7c0.5-0.5,0.8-1,0.8-1.7s-0.3-1.2-0.8-1.7c-1-0.9-2.6-0.9-3.5,0c-0.5,0.5-0.8,1-0.8,1.7
	s0.3,1.2,0.8,1.7c0.5,0.4,1.2,0.7,1.8,0.7C104.8,106.5,105.4,106.2,106,105.7z"/>
<path class="st0" d="M41.3,27.3c6.8-4.5,14.3-6.6,22.6-6.7c8.1,0,15.6,2.2,22.6,6.7l14.4-14.4C89.6,4.3,77.4,0,63.9,0
	C50.4,0,38,4.3,27,12.9L41.3,27.3z"/>
<path class="st0" d="M26.9,86.4c-4.6-7-6.8-14.4-6.8-22.4c0-8.1,2.2-15.6,6.8-22.4L12.6,27.3C4.2,38.3,0,50.5,0,64.1
	C0,77.5,4.2,89.8,12.7,101L26.9,86.4z"/>
<path class="st0" d="M86.4,100.7c-6.8,4.6-14.3,7-22.4,7.1c-8.3,0-15.9-2.2-22.7-7l-14.4,14.3c11.1,8.7,23.5,13,37.1,12.9
	c13.5-0.1,25.7-4.5,36.7-12.9L86.4,100.7z"/>
<path class="st0" d="M100.5,41.4c4.6,7,7,14.6,6.8,22.8c-0.1,8-2.4,15.3-6.8,22l14.4,14.3c8.5-11,12.9-23.2,12.9-36.6
	c0.1-13.6-4.2-26-12.9-37.1L100.5,41.4z"/>
<path class="st0" d="M115.5,105.2c5.5,0,10.1,4.5,10.1,10.1c0,5.5-4.5,10.1-10.1,10.1c-5.5,0-10.1-4.5-10.1-10.1
	S109.9,105.2,115.5,105.2z"/>
<path class="st0" d="M12.5,105.2c5.5,0,10,4.5,10,10.1c0,5.5-4.5,10.1-10,10.1c-5.5,0-10-4.5-10-10.1S7,105.2,12.5,105.2z"/>
<path class="st0" d="M115.7,2.2c5.5,0,10,4.5,10,10.1c0,5.6-4.5,10.1-10,10.1c-5.5,0-10-4.5-10-10.1C105.7,6.7,110.2,2.2,115.7,2.2z
	"/>
<path class="st0" d="M12.3,2.2c5.5,0,10.1,4.5,10.1,10c0,5.5-4.5,10-10.1,10c-5.5,0-10.1-4.5-10.1-10C2.2,6.7,6.7,2.2,12.3,2.2z"/>
</svg>
