<?xml version="1.0" encoding="utf-8"?>
<!-- Generator: Adobe Illustrator 25.2.1, SVG Export Plug-In . SVG Version: 6.00 Build 0)  -->
<svg version="1.1" id="Слой_1" xmlns="http://www.w3.org/2000/svg" xmlns:xlink="http://www.w3.org/1999/xlink" x="0px" y="0px"
	 viewBox="0 0 19.9 30.6" style="enable-background:new 0 0 19.9 30.6;" xml:space="preserve">
<style type="text/css">
	.st0{fill:none;}
</style>
<g id="EOS" transform="translate(-20.594 -15.488)">
	<g id="images" transform="translate(20.594 15.488)">
		<g id="block" transform="translate(0 0)">
			<g id="Фигура_1301" transform="translate(-815 -270)">
				<path class="st0" d="M824.9,300.6l9.9-5.8l-2.5-14.9l-7.4-9.9l-7.4,9.9l-2.5,14.9L824.9,300.6z"/>
				<path d="M824.9,297.7l7.2-4.2l-2.1-12.6l-5.1-6.8l-5.1,6.8l-2.1,12.6L824.9,297.7 M824.9,300.6l-9.9-5.8l2.5-14.9l7.4-9.9
					l7.4,9.9l2.5,14.9L824.9,300.6z"/>
			</g>
			<polygon points="9.8,29.9 2.7,10.6 5.1,9.7 9.8,22.7 14.7,9.7 17,10.6 			"/>
		</g>
	</g>
</g>
</svg>
