<svg xmlns="http://www.w3.org/2000/svg" xmlns:xlink="http://www.w3.org/1999/xlink" viewBox="0 0 12.2 20.2"><g fill="currentColor"><g opacity=".6"><defs><path id="eth-a" d="M0 7.5h12.2v6.4H0z"/></defs><clipPath id="eth-b"><use xlink:href="#eth-a" overflow="visible"/></clipPath><path d="M6.1 7.5L0 10.3l6.1 3.6 6.1-3.6-6.1-2.8z" clip-path="url(#eth-b)"/></g><g opacity=".45"><defs><path id="eth-c" d="M0 .2h6.1v13.7H0z"/></defs><clipPath id="eth-d"><use xlink:href="#eth-c" overflow="visible"/></clipPath><path d="M0 10.3l6.1 3.6V.2L0 10.3z" clip-path="url(#eth-d)"/></g><g opacity=".8"><defs><path id="eth-e" d="M6.1.2h6.1v13.7H6.1z"/></defs><clipPath id="eth-f"><use xlink:href="#eth-e" overflow="visible"/></clipPath><path d="M6.1.2v13.7l6.1-3.6L6.1.2z" clip-path="url(#eth-f)"/></g><g opacity=".45"><defs><path id="eth-g" d="M0 11.5h6.1v8.6H0z"/></defs><clipPath id="eth-h"><use xlink:href="#eth-g" overflow="visible"/></clipPath><path d="M0 11.5L6.1 20v-5L0 11.5z" clip-path="url(#h)"/></g><g opacity=".8"><defs><path id="eth-i" d="M6.1 11.5h6.1v8.6H6.1z"/></defs><clipPath id="eth-j"><use xlink:href="#eth-i" overflow="visible"/></clipPath><path d="M6.1 15v5l6.1-8.6L6.1 15z" clip-path="url(#eth-j)"/></g></g></svg>