<svg version="1.1" id="Layer_1" xmlns="http://www.w3.org/2000/svg" xmlns:xlink="http://www.w3.org/1999/xlink" x="0" y="0" viewBox="0 0 12.2 20.2" xml:space="preserve"><style>.st0{opacity:.6}.st2{opacity:.45}.st4{opacity:.8}</style><g fill="currentColor"><g class="st0"><defs><path id="SVGID_1_" d="M0 7.5h12.2v6.4H0z"/></defs><clipPath id="SVGID_2_"><use xlink:href="#SVGID_1_" overflow="visible"/></clipPath><path d="M6.1 7.5L0 10.3l6.1 3.6 6.1-3.6-6.1-2.8z" clip-path="url(#SVGID_2_)"/></g><g class="st2"><defs><path id="SVGID_3_" d="M0 .2h6.1v13.7H0z"/></defs><clipPath id="SVGID_4_"><use xlink:href="#SVGID_3_" overflow="visible"/></clipPath><path d="M0 10.3l6.1 3.6V.2L0 10.3z" clip-path="url(#SVGID_4_)"/></g><g class="st4"><defs><path id="SVGID_5_" d="M6.1.2h6.1v13.7H6.1z"/></defs><clipPath id="SVGID_6_"><use xlink:href="#SVGID_5_" overflow="visible"/></clipPath><path d="M6.1.2v13.7l6.1-3.6L6.1.2z" clip-path="url(#SVGID_6_)"/></g><g class="st2"><defs><path id="SVGID_7_" d="M0 11.5h6.1v8.6H0z"/></defs><clipPath id="SVGID_8_"><use xlink:href="#SVGID_7_" overflow="visible"/></clipPath><path d="M0 11.5L6.1 20v-5L0 11.5z" clip-path="url(#SVGID_8_)"/></g><g class="st4"><defs><path id="SVGID_9_" d="M6.1 11.5h6.1v8.6H6.1z"/></defs><clipPath id="SVGID_10_"><use xlink:href="#SVGID_9_" overflow="visible"/></clipPath><path d="M6.1 15v5l6.1-8.6L6.1 15z" clip-path="url(#SVGID_10_)"/></g></g><g class="st0"><defs><path id="SVGID_11_" d="M924 392.7h652v340.9H924z"/></defs><clipPath id="SVGID_12_"><use xlink:href="#SVGID_11_" overflow="visible"/></clipPath><path d="M1250.1 392.7L924 541l326.1 192.6L1576 541l-325.9-148.3z" clip-path="url(#SVGID_12_)"/></g><g class="st2"><defs><path id="SVGID_13_" d="M924 0h326.1v733.7H924z"/></defs><clipPath id="SVGID_14_"><use xlink:href="#SVGID_13_" overflow="visible"/></clipPath><path d="M924 541l326.1 192.6V0L924 541z" clip-path="url(#SVGID_14_)"/></g><g class="st4"><defs><path id="SVGID_15_" d="M1250.1 0h326.1v733.7h-326.1z"/></defs><clipPath id="SVGID_16_"><use xlink:href="#SVGID_15_" overflow="visible"/></clipPath><path d="M1250.1 0v733.7L1576 541 1250.1 0z" clip-path="url(#SVGID_16_)"/></g><g class="st2"><defs><path id="SVGID_17_" d="M924 602.8h326.1v459.4H924z"/></defs><clipPath id="SVGID_18_"><use xlink:href="#SVGID_17_" overflow="visible"/></clipPath><path d="M924 602.8l326.1 459.4V795.5L924 602.8z" clip-path="url(#SVGID_18_)"/></g><g class="st4"><defs><path id="SVGID_19_" d="M1250.1 602.8h326.2v459.4h-326.2z"/></defs><clipPath id="SVGID_20_"><use xlink:href="#SVGID_19_" overflow="visible"/></clipPath><path d="M1250.1 795.5v266.7l326.2-459.4-326.2 192.7z" clip-path="url(#SVGID_20_)"/></g></svg>