<svg version="1.1" id="luna-icon" xmlns="http://www.w3.org/2000/svg" x="0" y="0" viewBox="0 0 40 40" xml:space="preserve"><path d="M14.154 6.47c5.01 2.504 10.564 3.92 15.79 5.771a49.19 49.19 0 019.584 3.92 11.09 11.09 0 00-1.307-4.573C35.825 6.47 31.361 2.658 26.024.916a20.044 20.044 0 00-12.632.218c-.98.435-2.287 1.089-2.178 2.504.327 1.416 1.742 2.178 2.94 2.832zm-.435 13.068C9.907 15.508 7.62 10.39 6.967 4.945c-2.614 2.287-4.574 5.118-5.663 8.276-.545 1.307-.762 2.505-.98 3.92-1.525 10.89 6.098 21.128 16.988 22.652 9.257 1.416 19.276-4.574 21.78-13.721-2.504.544-5.118.98-7.732.98-6.642 0-13.068-2.723-17.641-7.514z" fill="currentColor"/><path opacity=".5" fill="currentColor" d="M31.115 13.483c2.832.762 5.663 1.96 8.277 3.376l.218.109c.326 1.742.326 3.593.109 5.445-1.198-.654-2.396-1.416-3.485-2.396-2.178-1.743-4.356-3.812-5.119-6.534"/></svg>