<svg version="1.1" id="Layer_1" xmlns="http://www.w3.org/2000/svg" x="0" y="0" viewBox="0 0 30.3 30.3" xml:space="preserve"><path d="M28.3 20.4c-1.4.3-2.7.4-4.1.4C11.1 20.8 4.8 8.1 5.8 4c.2-1-1 0-1 0C1.7 6.8-.1 10.8 0 14.9c0 7.2 5.4 15.4 15.2 15.4s13.8-8.4 14-9.3-.3-.8-.9-.6zm.6-11.9C28 6.7 26.8 5 25.3 3.7c-.7-.6-1.5-1.2-2.3-1.6-.8-.5-1.7-.9-2.6-1.2-.9-.3-1.8-.5-2.7-.7C16.8.1 15.9 0 15 0c-1.1 0-2.2.1-3.2.3-.7.1-1.4.4-2 .7-.4.2-.7.5-1 .8-.1.2-.2.4-.2.6 0 .7.4 1.3.9 1.6.8.7 1.7 1.2 2.7 1.6 2.3 1.1 5.5 2.2 10.2 3.7.4 1.1 1 2.1 1.7 3.1.8 1 1.6 1.9 2.5 2.7 1 .9 2.1 1.8 3.3 2.6.1-.2.1-.4.2-.6.1-.6.2-1.3.2-1.9 0-2.3-.5-4.6-1.4-6.7zm-1.9 5c-.5-.5-1-1-1.5-1.6-.5-.6-.9-1.2-1.2-1.9 1.3.6 3.5 1.5 4.1 1.7l.4 3.3c-.6-.4-1.3-1-1.8-1.5z" id="luna-icon" fill="currentColor"/></svg>