<svg version="1.1" id="meetone-icon" xmlns="http://www.w3.org/2000/svg" x="0" y="0" viewBox="0 0 23.2 35.4" xml:space="preserve"><g fill="currentColor"><path opacity=".5" d="M13.379 32.836l10.7 6.7h1.3l10.5-6.7-1.6-1.3-9.6 6.1-9.9-6.1-1.4 1.3zm5.2-15.6l6-9.1 6.2 9.2 1.5-1.3-6.9-10.3c-.4-.4-1-.5-1.4-.1l-.1.1-7.1 10.6 1.8.9z" transform="translate(-13.021 -5.048)"/><path d="M24.779 35.636c.3-1.2.8-2.3 1.1-3.5 1.6-4.8 3.1-9.7 4.7-14.6l.3-.9c.2-.5.4-.8.9-.8s.9.3.9.8c.4 1.7.8 3.5 1.2 5.3.8 3.3 1.5 6.6 2.2 9.9.2.8-.1 1.3-.7 1.5-.6.2-1-.3-1.2-1-.9-3.7-1.7-7.4-2.5-11.2 0-.2-.1-.3-.2-.5-.1.2-.2.5-.3.7l-4.8 15c-.3.9-.6 1.8-.9 2.8-.1.6-.7.9-1.2.8-.4-.1-.8-.4-.8-.8-1.8-6.1-3.7-12-5.5-17.9-.1-.2-.1-.4-.2-.6-.2.8-.3 1.6-.5 2.3-.7 3.1-1.4 6.3-2.1 9.4-.2.9-.9 1.3-1.6.9-.4-.3-.6-.8-.4-1.2.9-4.3 2-8.6 2.9-12.9.2-.7.3-1.4.4-2.1.2-.7.5-1 1-1s.9.3 1 1c2 6.2 4 12.5 5.9 18.7l.4-.1z" transform="translate(-13.021 -5.048)"/></g></svg>