<svg xmlns="http://www.w3.org/2000/svg" width="72.39" height="31.04" viewBox="0 0 72.39 31.04">
  <g id="NANO" transform="translate(0 -8)">
    <circle id="Эллипс_88" data-name="Эллипс 88" cx="5.21" cy="5.21" r="5.21" transform="translate(0 28.621)"/>
    <path id="Контур_690" data-name="Контур 690" d="M303.379,8a5.213,5.213,0,0,0-5.21,5.21c0,4.126-.653,5.21-5.21,5.21h-.435a5.1,5.1,0,0,0-4.666,5.1v.109c0,4.017-.762,4.992-5.21,4.992a.815.815,0,0,0-.544.109,5.167,5.167,0,0,0,.544,10.31,5.112,5.112,0,0,0,5.1-4.774V33.83c0-3.691,1.193-5.1,5.1-5.21h.109a5.127,5.127,0,0,0,5.1-4.883v-.326c0-3.8,1.193-5.21,5.21-5.21a5.213,5.213,0,0,0,5.21-5.21A5.075,5.075,0,0,0,303.379,8Zm-30.6,10.419h-.435c-4.557,0-5.21-1.084-5.21-5.21a5.21,5.21,0,1,0-10.419,0c0,4.126-.653,5.1-5.21,5.1h-.435a5.1,5.1,0,0,0-4.666,5.1,5.213,5.213,0,0,0,5.21,5.21,5.112,5.112,0,0,0,5.1-4.774V23.52c0-3.8,1.193-5.21,5.21-5.21s5.21,1.41,5.21,5.1a5.213,5.213,0,0,0,5.21,5.21,5.145,5.145,0,0,0,5.21-5.21A5.256,5.256,0,0,0,272.774,18.419Z" transform="translate(-236.09 0)"/>
  </g>
</svg>
