<svg version="1.1" id="Layer_1" xmlns="http://www.w3.org/2000/svg" x="0" y="0" viewBox="0 0 72.4 31" xml:space="preserve"><g id="nano-icon" fill="currentColor"><circle transform="rotate(-13.286 5.208 25.825)" cx="5.2" cy="25.8" r="5.2"/><path d="M41.5 15.4c-.1-2.6-2.2-4.8-4.8-5h-.4c-4.6 0-5.2-1.1-5.2-5.2 0-2.9-2.3-5.2-5.1-5.3-2.9 0-5.2 2.3-5.3 5.1v.1c0 4.1-.7 5.1-5.2 5.1H15c-2.6.2-4.7 2.4-4.7 5.1 0 2.9 2.3 5.2 5.2 5.2 2.7 0 4.9-2.1 5.1-4.8v-.3c0-3.8 1.2-5.2 5.2-5.2s5.2 1.4 5.2 5.1c0 2.9 2.3 5.2 5.2 5.2 2.8 0 5.2-2.2 5.2-5.1.1.1.1.1.1 0zM67.3 0c-2.9 0-5.2 2.3-5.2 5.2 0 4.1-.7 5.2-5.2 5.2h-.4c-2.6.2-4.7 2.4-4.7 5.1v.1c0 4-.8 5-5.2 5-.2 0-.4 0-.5.1-2.8.3-4.9 2.8-4.6 5.6.3 2.7 2.5 4.7 5.2 4.7s4.9-2.1 5.1-4.8v-.4c0-3.7 1.2-5.1 5.1-5.2h.1c2.7 0 5-2.2 5.1-4.9v-.3c0-3.8 1.2-5.2 5.2-5.2 2.9 0 5.2-2.3 5.2-5.2-.2-2.8-2.4-5-5.2-5z"/></g></svg>