<svg version="1.1" id="Layer_1" xmlns="http://www.w3.org/2000/svg" x="0" y="0" viewBox="0 0 39.031 31.04" xml:space="preserve"><path id="sol-icon" fill="currentColor" d="M.738 31.036c-.706 0-1.038-.911-.391-1.562s5.138-5.1 5.466-5.466a2.1 2.1 0 011.757-.781h30.65c.723 0 1.188.781.39 1.561s-5.338 5.324-5.661 5.662a1.781 1.781 0 01-1.562.586H.738zm6.906-11.714a1.781 1.781 0 01-1.562-.586c-.323-.338-4.864-4.881-5.661-5.661s-.333-1.562.39-1.562h30.65a2.1 2.1 0 011.757.781c.329.365 4.818 4.815 5.466 5.466s.315 1.561-.39 1.561l-30.65.001zM.738 7.804c-.706 0-1.038-.911-.391-1.562s5.138-5.1 5.466-5.466A2.1 2.1 0 017.57-.005h30.65c.723 0 1.188.781.39 1.562s-5.338 5.323-5.661 5.661a1.781 1.781 0 01-1.562.586H.738z"/></svg>