<svg xmlns="http://www.w3.org/2000/svg" width="39.031" height="31.04" viewBox="0 0 39.031 31.04">
  <g id="SOL" transform="translate(-1469.713 -978.525)">
    <path id="Фигура_2026_копия" data-name="Фигура 2026 копия" d="M1071.961,175.9c-.706,0-1.038-.911-.391-1.562s5.138-5.1,5.466-5.466a2.1,2.1,0,0,1,1.757-.781h30.65c.723,0,1.188.781.39,1.561s-5.338,5.324-5.661,5.662a1.781,1.781,0,0,1-1.562.586Zm6.906-11.714a1.781,1.781,0,0,1-1.562-.586c-.323-.338-4.864-4.881-5.661-5.661s-.333-1.562.39-1.562h30.65a2.1,2.1,0,0,1,1.757.781c.329.365,4.818,4.815,5.466,5.466s.315,1.561-.39,1.561Zm-6.906-11.518c-.706,0-1.038-.911-.391-1.562s5.138-5.1,5.466-5.466a2.1,2.1,0,0,1,1.757-.781h30.65c.723,0,1.188.781.39,1.562s-5.338,5.323-5.661,5.661a1.781,1.781,0,0,1-1.562.586Z" transform="translate(398.49 833.661)"/>
  </g>
</svg>
