<?xml version="1.0" encoding="utf-8"?>
<!-- Generator: Adobe Illustrator 25.2.1, SVG Export Plug-In . SVG Version: 6.00 Build 0)  -->
<svg version="1.1" id="Слой_1" xmlns="http://www.w3.org/2000/svg" xmlns:xlink="http://www.w3.org/1999/xlink" x="0px" y="0px"
	 viewBox="0 0 28.6 30.3" style="enable-background:new 0 0 28.6 30.3;" xml:space="preserve">
<style type="text/css">
	.st0{fill:none;}
</style>
<g id="TRX" transform="translate(-16.054 -17.303)">
	<g id="images" transform="translate(0.155 0)">
		<g id="block">
			<g id="Сгруппировать_647" transform="translate(15.899 17.303)">
				<g id="Фигура_1301" transform="translate(-807.688 -271.932)">
					<path class="st0" d="M819.6,302.3l16.6-20.3l-5.7-6.1l-22.8-3.9L819.6,302.3z"/>
					<path d="M820.4,297.4l12.6-15.3l-3.6-3.9l-17.6-3L820.4,297.4 M819.6,302.3l-11.9-30.3l22.8,3.9l5.7,6.1L819.6,302.3z"/>
				</g>
				<polygon points="13.5,28.2 11.1,27.9 13.2,11.1 21.5,4.2 23.1,6.1 15.6,12.4 				"/>
				<polygon points="14,13.1 1.4,2.7 3,0.7 14.8,10.5 27.1,8.9 27.4,11.4 				"/>
			</g>
		</g>
	</g>
</g>
</svg>
