<svg version="1.1" id="wbi-icon" xmlns="http://www.w3.org/2000/svg" x="0" y="0" viewBox="0 0 61 61" xml:space="preserve"><g fill="currentColor"><path d="M56.5 25.8c-.09 0-.195.013-.297.024-.68-3.735-2.196-7.236-4.427-10.333.079-.064.161-.128.224-.191 1.7-1.7 1.7-4.5 0-6.3s-4.6-1.8-6.4-.1a3.079 3.079 0 00-.234.275 26.131 26.131 0 00-10.518-4.152c.03-.19.052-.369.052-.523 0-2.5-2-4.5-4.5-4.5-1.2 0-2.3.4-3.2 1.3-.8.8-1.3 2-1.3 3.2 0 .179.03.394.071.623-3.714.7-7.192 2.22-10.268 4.382A3.802 3.802 0 0015.3 9c-.8-.8-2-1.3-3.2-1.3S9.8 8.1 8.9 9c-.8.8-1.3 2-1.3 3.2s.4 2.3 1.3 3.2c.14.14.334.285.55.43a25.389 25.389 0 00-4.279 10.251A3.747 3.747 0 004.5 26C2 26 0 28 0 30.5S2 35 4.5 35c.183 0 .403-.03.637-.071.569 3.748 2.026 7.328 4.148 10.452-.148.108-.28.214-.385.319-1.8 1.7-1.8 4.6 0 6.4.9.9 2 1.3 3.2 1.3 1.2 0 2.4-.4 3.3-1.2.063-.063.128-.146.192-.225A25.798 25.798 0 0026.008 56.4c-.001.032-.008.07-.008.1 0 2.5 2 4.5 4.5 4.5s4.5-2 4.7-4.5c0-.057-.01-.128-.015-.191.177-.033.356-.07.515-.109a26.204 26.204 0 009.786-4.234c.038.043.077.097.114.134.9.9 2.1 1.3 3.2 1.3 1.2 0 2.3-.5 3.2-1.4 1.8-1.7 1.9-4.6.1-6.4-.038-.038-.093-.078-.137-.117 2.209-3.134 3.634-6.733 4.276-10.504.088.008.182.021.261.021 2.5 0 4.5-2 4.5-4.7 0-2.5-2-4.5-4.5-4.5zM48.8 9.7c.7 0 1.3.3 1.8.8 1 1 1 2.5 0 3.5-.11.11-.324.246-.58.391L50 14.4c-1.8.8-3.6 1.6-5.5 2.2.7-1.9 1.4-3.7 2.2-5.5l.3-.7c.5-.5 1.2-.8 1.8-.7zm-20.1-7c.5-.4 1.1-.7 1.8-.7C31.9 2 33 3.1 33 4.5c0 .869-1.211 3.692-2.375 6.135A83.61 83.61 0 0128.4 5.5l-.3-.7-.058.007C28.022 4.696 28 4.58 28 4.5c0-.6.2-1.4.7-1.8zm-18.4 7.6c.5-.4 1.1-.7 1.8-.7s1.4.3 1.8.7c.594.594 1.775 3.54 2.672 6.218A60.167 60.167 0 0111.4 14.5l-.699-.3a2.383 2.383 0 01-.401-.3c-.4-.5-.7-1.1-.7-1.8s.2-1.4.7-1.8zM2 30.5C2 29.1 3.1 28 4.5 28c1 0 4 1.3 6.4 2.5C8.4 31.7 5.4 33 4.5 33 3.1 33 2 31.9 2 30.5zm8.3 20.2c-.9-1-.9-2.7 0-3.6.04-.04.115-.087.174-.131l.026.03.7-.299c1.716-.763 3.523-1.52 5.333-2.11-.887 2.555-1.95 5.427-2.633 6.11-1 1-2.6 1-3.6 0zm20.2 8.2a2.465 2.465 0 01-2.477-2.262l.277-.738a48.759 48.759 0 012.346-5.582C31.803 52.832 33 55.536 33 56.4c0 1.4-1.1 2.5-2.5 2.5zm20.2-8.3c-1 1-2.6 1-3.6 0-.13-.111-.28-.326-.438-.584-.8-1.7-1.443-3.4-2.071-5.1-.053-.169-.106-.337-.156-.504 1.987.696 3.876 1.393 5.665 2.288l.473.203c.04.032.097.067.127.097 1 1 1 2.6 0 3.6zm-.333-6.1c-2.456-1.211-6.35-2.394-7.267-2.7l-1.8-.5.5 1.8c.306.918 1.49 4.813 2.7 7.268a25.009 25.009 0 01-9.2 4.032c-.157 0-.367.052-.551.079-.881-2.608-2.791-6.24-3.249-7.079l-.9-1.7-.614 1.16-.386.54c-1.2 2.2-2.2 4.5-3.1 6.9-3.547-.591-6.898-2.059-9.865-4.11 1.162-2.462 2.27-6.106 2.565-6.99l.5-1.8-.138.038.038-.138-1.8.5c-2.4.7-4.7 1.6-7 2.6a24.406 24.406 0 01-4.08-9.9c2.59-.875 6.062-2.628 6.88-3l1.7-.9-.338-.179L15 30.4l-1.6-.9c-2.1-1.1-4.3-2.1-6.6-3 .596-3.477 2.082-6.953 4.16-9.842 2.461 1.154 6.062 2.25 6.94 2.542l1.8.5-.34-.96-.26-.94a80.537 80.537 0 00-1.191-3.49 38.81 38.81 0 00-1.232-3.031c-.027-.06-.05-.12-.077-.179a24.406 24.406 0 019.926-4.085c.937 2.552 2.644 5.797 3.074 6.585l.9 1.7.307-.746.593-1.054c1.1-2.1 2.1-4.3 3-6.5a24.399 24.399 0 019.906 4.038c-1.14 2.458-2.216 5.993-2.506 6.862l-.5 1.8.11-.04-.01.04 1.8-.5c2.4-.7 4.7-1.5 6.9-2.5 2.047 2.827 3.517 6.131 4.146 9.63-2.586.912-6.031 2.726-6.846 3.17l-1.7.9.338.179L46 30.6l1.6.9c2.2 1.2 4.5 2.2 6.8 3.1a24.398 24.398 0 01-4.033 9.9zM56.4 33c-.151 0-.38-.048-.637-.115A55.382 55.382 0 0150.2 30.5a54.285 54.285 0 015.225-2.289c.419-.132.757-.211.975-.211 1.4 0 2.5 1.1 2.5 2.5S57.8 33 56.4 33z"/><path d="M43.2 25.6c-3.5 0-4.5 2.9-5.1 4.7-.6 1.9-.8 2-1.2 2-.4 0-.6-.2-1.3-2.2-.5-1.7-1.6-4.7-4.8-4.7-3.2 0-4.2 2.9-4.8 4.7-.6 2-.9 2.2-1.3 2.2s-.6-.1-1.2-2c-.6-1.7-1.6-4.7-5.1-4.7-1.1 0-2 .9-2 2s.9 2 2 2c.5 0 .7.1 1.3 2 .6 1.7 1.5 4.7 5 4.7s4.5-3.1 5.1-4.9c.5-1.6.7-2 1-2s.5.4 1 2c.6 1.8 1.6 4.9 5.1 4.9 3.4 0 4.4-3 5-4.7.7-1.9.9-2 1.3-2 1.1 0 2-.9 2-2s-.9-2-2-2z"/></g></svg>