<svg version="1.1" id="Layer_1" xmlns="http://www.w3.org/2000/svg" x="0" y="0" viewBox="0 0 36.687 31.04" xml:space="preserve"><path d="M31.509 4.062l-4.417 2.249L5.76 17.178C4.852 10.22 9.757 3.843 16.715 2.935a12.706 12.706 0 017.84 1.506l2.528-1.288.377-.192C20.522-2.074 10.816-.53 5.78 6.408a15.522 15.522 0 00-2.913 10.297 2.823 2.823 0 01-1.534 2.729L0 20.111v3.171l3.925-2 1.275-.647 1.253-.638L28.937 8.539l2.527-1.287 5.223-2.662V1.421l-5.178 2.641zM5.2 23.798L0 26.448v3.168l5.164-2.631 4.417-2.251 21.354-10.88c.072.554.109 1.112.109 1.67-.005 7.018-5.698 12.704-12.717 12.7a12.708 12.708 0 01-6.206-1.624l-.155.082-2.741 1.4c6.938 5.036 16.644 3.494 21.68-3.444a15.522 15.522 0 002.915-10.306 2.825 2.825 0 011.532-2.729l1.335-.68v-3.16L7.727 22.509 5.2 23.798z" id="xlm-icon" fill="currentColor"/></svg>