<svg xmlns="http://www.w3.org/2000/svg" width="36.687" height="31.04" viewBox="0 0 36.687 31.04">
  <g id="XLM" transform="translate(0 0.011)">
    <g id="Layer_1" data-name="Layer 1" transform="translate(0 -0.011)">
      <path id="Контур_691" data-name="Контур 691" d="M31.509,4.051,27.092,6.3,5.76,17.167A12.706,12.706,0,0,1,24.555,4.43l2.528-1.288.377-.192A15.522,15.522,0,0,0,2.822,15.513q0,.593.045,1.181a2.823,2.823,0,0,1-1.534,2.729L0,20.1v3.171l3.925-2h0L5.2,20.624l1.253-.638h0L28.937,8.528l2.527-1.287,5.223-2.662V1.41Z" transform="translate(0 0.011)"/>
      <path id="Контур_692" data-name="Контур 692" d="M36.687,50,7.727,64.746,5.2,66.035,0,68.685v3.168l5.164-2.631,4.417-2.251L30.935,56.091a12.953,12.953,0,0,1,.109,1.67A12.708,12.708,0,0,1,12.121,68.837l-.155.082-2.741,1.4A15.522,15.522,0,0,0,33.865,57.761c0-.4-.016-.8-.045-1.192a2.825,2.825,0,0,1,1.532-2.729l1.335-.68Z" transform="translate(0 -42.237)"/>
    </g>
  </g>
</svg>
