<svg version="1.1" id="Layer_1" xmlns="http://www.w3.org/2000/svg" x="0" y="0" viewBox="0 0 24 20" xml:space="preserve"><path id="xrp-icon" fill="currentColor" d="M20.8 20s-4.8-4.6-5.5-5.3c-.8-1-2-1.5-3.2-1.5-1.3 0-2.5.6-3.3 1.6-.9.7-5.5 5.2-5.5 5.2H0s6.5-6.2 7.6-7.3c1.2-1.1 2.7-1.7 4.3-1.7s3.1.6 4.3 1.6S24 20 24 20h-3.2zM7.8 7.5C6.6 6.4 0 0 0 0h3.2S8 4.6 8.7 5.3c.8 1 2 1.5 3.2 1.5 1.3 0 2.5-.6 3.3-1.6.9-.7 5.5-5.2 5.5-5.2H24s-6.5 6.2-7.6 7.3C15.2 8.4 13.7 9 12.1 9c-1.6.1-3.1-.5-4.3-1.5z"/></svg>