<?xml version="1.0" encoding="utf-8"?>
<!-- Generator: Adobe Illustrator 24.2.1, SVG Export Plug-In . SVG Version: 6.00 Build 0)  -->
<svg fill="currentColor" version="1.1" id="Слой_1" xmlns="http://www.w3.org/2000/svg" xmlns:xlink="http://www.w3.org/1999/xlink" x="0px" y="0px"
	 viewBox="0 0 24 20" style="enable-background:new 0 0 24 20;" xml:space="preserve">
<g id="XPR" transform="translate(0 -1)">
	<path id="Фигура_1_копия" d="M20.8,21c0,0-4.8-4.6-5.5-5.3c-0.8-1-2-1.5-3.2-1.5c-1.3,0-2.5,0.6-3.3,1.6
		C7.9,16.5,3.3,21,3.3,21H0c0,0,6.5-6.2,7.6-7.3c1.2-1.1,2.7-1.7,4.3-1.7c1.6,0,3.1,0.6,4.3,1.6C17.4,14.6,24,21,24,21H20.8z
		 M7.8,8.5C6.6,7.4,0,1,0,1h3.2c0,0,4.8,4.6,5.5,5.3c0.8,1,2,1.5,3.2,1.5c1.3,0,2.5-0.6,3.3-1.6C16.1,5.5,20.7,1,20.7,1H24
		c0,0-6.5,6.2-7.6,7.3c-1.2,1.1-2.7,1.7-4.3,1.7C10.5,10.1,9,9.5,7.8,8.5z"/>
</g>
</svg>
