<?xml version="1.0" encoding="utf-8"?>
<!-- Generator: Adobe Illustrator 25.0.0, SVG Export Plug-In . SVG Version: 6.00 Build 0)  -->
<svg version="1.1" id="Слой_1" xmlns="http://www.w3.org/2000/svg" xmlns:xlink="http://www.w3.org/1999/xlink" x="0px" y="0px"
	 viewBox="0 0 24 24" style="enable-background:new 0 0 24 24;" xml:space="preserve">
<style type="text/css">
	.st0{fill:none;stroke-width:1.5;stroke-linecap:round;stroke-linejoin:round;}
</style>
<g id="hint" transform="translate(-447.005 -4383)" stroke="currentColor">
	<g id="remove-circle">
		<path id="Oval_228" class="st0" d="M459,4406.2c6.2,0,11.2-5,11.2-11.2s-5-11.2-11.2-11.2s-11.2,5-11.2,11.2l0,0
			C447.8,4401.2,452.8,4406.2,459,4406.2z"/>
		<path id="Shape_895" class="st0" d="M459.3,4399.5c0.2,0,0.3,0.1,0.3,0.3s-0.1,0.3-0.3,0.3c-0.2,0-0.3-0.1-0.3-0.3
			C459,4399.7,459.2,4399.5,459.3,4399.5C459.3,4399.5,459.3,4399.5,459.3,4399.5"/>
		<path id="Shape_896" class="st0" d="M456.8,4393.1c0-1.4,1.1-2.6,2.6-2.6s2.6,1.1,2.6,2.6c0,1.1-0.7,2-1.7,2.4
			c-0.5,0.2-0.9,0.7-0.9,1.2v0.5"/>
	</g>
</g>
</svg>
