<svg viewBox="0 0 24 24" fill="none" stroke-width="1.5" stroke-linecap="round" stroke-linejoin="round">
	<g stroke="currentColor" transform="translate(-447.005 -4383)">
		<path d="M459 4406.2c6.2 0 11.2-5 11.2-11.2s-5-11.2-11.2-11.2-11.2 5-11.2 11.2h0c0 6.2 5 11.2 11.2 11.2z" />
		<path d="M459.3 4399.5c.2 0 .3.1.3.3s-.1.3-.3.3c-.2 0-.3-.1-.3-.3 0-.1.2-.3.3-.3 0 0 0 0 0 0" />
		<path d="M456.8 4393.1c0-1.4 1.1-2.6 2.6-2.6s2.6 1.1 2.6 2.6c0 1.1-.7 2-1.7 2.4-.5.2-.9.7-.9 1.2v.5" />
  	</g>
</svg>
