<svg fill="currentColor" xmlns="http://www.w3.org/2000/svg" viewBox="0 0 38 38">
	<path d="M35.528 17.73c-.85 0-1.542.7-1.542 1.542a15.44 15.44 0 01-15.417 15.417c-8.5 0-15.416-6.917-15.416-15.42S10.07 3.854 18.57 3.854a15.31 15.31 0 0110.94 4.554 1.542 1.542 0 102.188-2.172A18.37 18.37 0 0018.57.771C8.368.77.07 9.07.07 19.27s8.3 18.5 18.5 18.5 18.5-8.3 18.5-18.5c0-.85-.7-1.542-1.542-1.542zm-8.93-3.403a1.54 1.54 0 00-2.18 0L17.8 20.944l-2.764-2.763a1.541 1.541 0 10-2.18 2.18l3.854 3.854c.3.3.695.452 1.1.452s.8-.15 1.1-.452l7.708-7.708a1.54 1.54 0 000-2.18z"/>
</svg>
