<svg fill="currentColor" xmlns="http://www.w3.org/2000/svg" viewBox="0 0 38 38"><path d="M35.528 17.17c-.85 0-1.542.69-1.542 1.542 0 8.5-6.916 15.417-15.417 15.417S3.153 27.213 3.153 18.713 10.07 3.296 18.57 3.296A15.31 15.31 0 0129.51 7.85a1.54 1.54 0 102.188-2.172A18.37 18.37 0 0018.57.213c-10.2 0-18.5 8.3-18.5 18.5s8.3 18.5 18.5 18.5 18.5-8.3 18.5-18.5c0-.85-.69-1.542-1.542-1.542z"/><path d="M23.135 17.888c0-1.984-1.254-3.614-3.046-4.237a.671.671 0 01-.466-.622c0-.555-.492-1.04-1.054-1.04s-1.054.486-1.054 1.04a.67.67 0 01-.466.622c-1.792.623-3.046 2.253-3.046 4.237v2.83c0 .632-.253 1.238-.702 1.682l-.557.55a.49.49 0 00.344.838H24.05a.49.49 0 00.344-.838l-.557-.55a2.36 2.36 0 01-.702-1.682v-2.83zm-4.565 7.767h.28c.492-.07.843-.416.983-.833.07-.14.14-.347.14-.555h-2.8a1.4 1.4 0 001.405 1.388z" fill-rule="evenodd"/></svg>