<svg fill="currentColor" xmlns="http://www.w3.org/2000/svg" viewBox="0 0 38 38"><path d="M35.528 17.015c-.85 0-1.542.7-1.542 1.542a15.44 15.44 0 01-15.417 15.417c-8.5 0-15.416-6.916-15.416-15.417A15.44 15.44 0 0118.57 3.14a15.31 15.31 0 0110.94 4.554 1.542 1.542 0 102.188-2.172A18.37 18.37 0 0018.57.057c-10.2 0-18.5 8.3-18.5 18.5s8.3 18.5 18.5 18.5 18.5-8.3 18.5-18.5c0-.85-.7-1.542-1.542-1.542zM17.6 21.457c0 .552.456.816.96.816.48 0 .936-.264.96-.816l.336-11.288c.024-.672-.504-1.104-1.272-1.104-.792 0-1.32.432-1.32 1.104l.336 11.288zm.96 3.28c-.936 0-1.656.648-1.656 1.656s.72 1.656 1.656 1.656c.888 0 1.656-.648 1.656-1.656s-.768-1.656-1.656-1.656z"/></svg>