<svg version="1.1" id="Layer_1" xmlns="http://www.w3.org/2000/svg" x="0" y="0" viewBox="0 0 22 22" xml:space="preserve"><g id="remove-circle" transform="translate(1 1)" fill="none" stroke="currentColor" stroke-width="2" stroke-linecap="round" stroke-linejoin="round"><path id="Oval_228" d="M10 20c5.523 0 10-4.477 10-10S15.523 0 10 0 0 4.477 0 10s4.477 10 10 10c0 0 0 0 0 0z"/><path id="Shape_895" d="M10.289 14.031a.284.284 0 110 .568.284.284 0 010-.568s0 0 0 0"/><path id="Shape_896" d="M8.012 7.37a2.272 2.272 0 113.03 2.142c-.454.16-.758.59-.757 1.071v.053"/></g></svg>