<?xml version="1.0" encoding="utf-8"?>
<!-- Generator: Adobe Illustrator 24.2.0, SVG Export Plug-In . SVG Version: 6.00 Build 0)  -->
<svg version="1.1" id="Слой_1" xmlns="http://www.w3.org/2000/svg" xmlns:xlink="http://www.w3.org/1999/xlink" x="0px" y="0px"
	 viewBox="0 0 14 17" style="enable-background:new 0 0 14 17;" xml:space="preserve">
<style type="text/css">
	.article-st0{fill:#DE5846;}
	.article-st1{fill:none;}
	.article-st2{fill:#212225;}
	.article-st3{fill:none;stroke:#212225;stroke-width:2;}
</style>
<g id="ICON" transform="translate(-80 -738)">
	<path id="Фигура_1008" class="article-st0" d="M93,746h-4c-1,0.1-1.9-0.7-2-1.7c0-0.1,0-0.2,0-0.3v-5h2l4,6V746z"/>
	<g id="Прямоугольник_скругл._углы_977">
		<path class="article-st1" d="M82,738h8l4,6v9c0,1.1-0.9,2-2,2H82c-1.1,0-2-0.9-2-2v-13C80,738.9,80.9,738,82,738z"/>
		<path class="article-st2" d="M82,740L82,740v13l10,0v-8.4l-3.1-4.6H82 M82,738h8l4,6v9c0,1.1-0.9,2-2,2H82c-1.1,0-2-0.9-2-2v-13
			C80,738.9,80.9,738,82,738z"/>
	</g>
	<path id="Фигура_1007" class="article-st3" d="M88,738v6c0,0.7-0.3,1,1,1h4"/>
</g>
</svg>
