<svg version="1.1" id="Слой_1" xmlns="http://www.w3.org/2000/svg" x="0" y="0" viewBox="0 0 30.4 22.7" xml:space="preserve"><g id="waiting_other_signatures" transform="translate(-447.755 -2355.75)" fill="none" stroke="currentColor" stroke-width="1.5" stroke-linecap="round" stroke-linejoin="round"><path id="Oval_136" d="M468.7 2363c-2.2-5.4-8.4-7.9-13.7-5.7-3.9 1.6-6.5 5.5-6.5 9.7 0 1.6.4 3.2 1.1 4.6 1.3 2.6 3.6 4.6 6.4 5.4 1 .3 2 .5 3 .4"/><path id="Shape_1447" d="M467 2377.1l-3.7.5.5-3.7 9.5-9.5c.9-.9 2.3-.9 3.2 0 .9.9.9 2.3 0 3.2l-9.5 9.5z"/><path id="Shape_1448" d="M472.4 2365.5l3.2 3.2"/><path id="Shape_1757" d="M463.3 2363.5l-5.5 7.3c-.2.3-.7.4-1 .1 0 0-.1 0-.1-.1l-1.4-1.4"/></g></svg>