<svg xmlns="http://www.w3.org/2000/svg" width="21.604" height="18.507" viewBox="0 0 21.604 18.507">
  <g id="Path_5" data-name="Path 5" transform="translate(-920.86 -1224.528)" fill="none" stroke-linecap="round" stroke-linejoin="round">
    <path d="M925.838,1241.036h10.279l2.2-8.78h-4.175l-.893,4.021h-3.568l-1.164-5.6h10.767l1.179-4.152h-17.6Z" stroke="none"/>
    <path d="M 936.1163330078125 1241.035766601562 L 938.3172607421875 1232.255615234375 L 934.1425170898438 1232.255615234375 L 933.2499389648438 1236.2763671875 L 929.68212890625 1236.2763671875 L 928.5177612304688 1230.68017578125 L 939.28515625 1230.68017578125 L 940.4644775390625 1226.5283203125 L 931.78955078125 1226.5283203125 L 922.8603515625 1226.5283203125 L 925.8375854492188 1241.035766601562 L 936.1163330078125 1241.035766601562 M 936.1163330078125 1243.035766601562 L 925.8375854492188 1243.035766601562 C 924.8880004882812 1243.035766601562 924.0693359375 1242.368041992188 923.87841796875 1241.437866210938 L 920.9011840820312 1226.930419921875 C 920.7803955078125 1226.341674804688 920.9306640625 1225.729858398438 921.3104858398438 1225.264282226562 C 921.6903076171875 1224.798583984375 922.2593994140625 1224.5283203125 922.8603515625 1224.5283203125 L 931.78955078125 1224.5283203125 L 940.4644775390625 1224.5283203125 C 941.0914916992188 1224.5283203125 941.6822509765625 1224.822387695312 942.0602416992188 1225.32275390625 C 942.438232421875 1225.822998046875 942.5596923828125 1226.4716796875 942.3883666992188 1227.074829101562 L 941.2090454101562 1231.226684570312 C 941.0662231445312 1231.729370117188 940.7385864257812 1232.140991210938 940.3123168945312 1232.396240234375 C 940.30419921875 1232.511962890625 940.285888671875 1232.627563476562 940.2572631835938 1232.741943359375 L 938.0563354492188 1241.522094726562 C 937.8333129882812 1242.411743164062 937.0335693359375 1243.035766601562 936.1163330078125 1243.035766601562 Z M 931.308837890625 1234.2763671875 L 931.6452026367188 1234.2763671875 L 931.9995727539062 1232.68017578125 L 930.9767456054688 1232.68017578125 L 931.308837890625 1234.2763671875 Z" stroke="none" fill="currentColor"/>
  </g>
</svg>
