<svg xmlns="http://www.w3.org/2000/svg" xmlns:xlink="http://www.w3.org/1999/xlink" viewBox="0 0 47 44"><defs><path id="a" d="M0 0h47v44H0z"/></defs><clipPath id="b"><use xlink:href="#a"/></clipPath><g clip-path="url(#b)"><path d="M3 4h-.3c-.1.2-.3.8.2 2.4 1 3.4 5.9 31.8 6.1 33.3 0 .3.1 1 .3 1.2a2.44 2.44 0 00.7.1h26c.3 0 1.3 0 1.7-.2.2-.1.3-.5.4-1.1.2-2.1 1.9-13.7 2.6-18.7h-9.1L30 29.4c-.2.9-1 1.6-2 1.6h-9c-.9 0-1.7-.6-1.9-1.6l-3-13c-.1-.6 0-1.2.4-1.7s1-.8 1.6-.8h26.4c.7-3.2 1.5-7.4 1.6-8.2 0-.2.1-.4.1-.6 0-.3.1-.8.1-1.1H3m0-2h41c2.9 0 2.2 2.6 2 4s-2 10-2 10H16l3 13h9l2-10h13l-3 21c-.4 2.7-1.8 3-4 3H10c-2.5 0-2.8-1.5-3-3S2 10.3 1 7 .8 2 3 2z" fill="currentColor"/></g></svg>