<svg xmlns="http://www.w3.org/2000/svg" width="21.604" height="18.507" viewBox="0 0 21.604 18.507"><g data-name="Path 5" fill="none" stroke-linecap="round" stroke-linejoin="round"><path d="M4.978 16.508h10.279l2.2-8.78h-4.175l-.893 4.021H8.821l-1.164-5.6h10.767l1.179-4.152h-17.6z"/><path d="M15.256 16.508l2.201-8.78h-4.174l-.893 4.02H8.822L7.658 6.152h10.767L19.605 2H2l2.978 14.508h10.278m0 2H4.978a2 2 0 01-1.96-1.598L.041 2.402A2 2 0 012.001 0h17.603a2 2 0 011.924 2.547L20.35 6.699c-.143.502-.47.914-.897 1.17a2 2 0 01-.055.345l-2.2 8.78a2 2 0 01-1.94 1.514zm-4.807-8.76h.336l.355-1.596h-1.023l.332 1.596z" fill="currentColor"/></g></svg>