<svg xmlns="http://www.w3.org/2000/svg" viewBox="0 0 100.5 27"><path fill="currentColor" d="M91.3 15.4c0-3.1 1.8-5.1 4.6-5.1s4.6 2 4.6 5.1c0 3.1-1.8 5.1-4.6 5.1s-4.6-2-4.6-5.1zm1.9 0c0 1.9.8 3.5 2.7 3.5s2.6-1.6 2.6-3.5-.8-3.5-2.6-3.5-2.7 1.6-2.7 3.5zm-25 0c0-3.1 1.8-5.1 4.6-5.1s4.6 2 4.6 5.1c0 3.1-1.8 5.1-4.6 5.1s-4.6-2-4.6-5.1zm1.9 0c0 1.9.8 3.5 2.7 3.5s2.6-1.6 2.6-3.5-.8-3.5-2.6-3.5-2.7 1.6-2.7 3.5zm-31.7 0c0-3 1.8-5.1 4.6-5.1 2-.2 3.8 1.3 4.1 3.3h-1.9c-.2-1-1.1-1.7-2.2-1.7-1.6 0-2.7 1.3-2.7 3.5s1 3.5 2.7 3.5c1 .1 2-.7 2.2-1.7h1.9c-.2 2-2 3.5-4 3.3-3 0-4.7-2.1-4.7-5.1zm-12 0c0-3.1 1.8-5.1 4.6-5.1s4.6 2 4.6 5.1c0 3.1-1.8 5.1-4.6 5.1s-4.6-2-4.6-5.1zm1.9 0c0 1.9.8 3.5 2.7 3.5s2.6-1.6 2.6-3.5-.8-3.5-2.6-3.5-2.7 1.6-2.7 3.5zm52.3 4.9V7.1h1.9v13.2h-1.9zm-59.3 0V7.1h1.9v13.2h-1.9zm64.9 0v-9.9h1.9v9.9h-1.9zm-24.3 0V12h-1.5v-1.5h1.5V9.4c-.1-1.5 1.1-2.7 2.6-2.8h.3c.5 0 1.1.1 1.6.3L66 8.5c-.3-.1-.6-.1-.9-.1-.9 0-1.3.5-1.3 1.4v.9h2.1v1.5h-2.1v8.3h-1.9zm-5.5 0l-3.3-4.5-1 1v3.5h-1.9V7.1h1.9v7.5h.2l3.9-4.2h2.3l-4 4.2 4.3 5.6-2.4.1zm-47.9 0V7.1h4.8c2.8 0 4.1 1.5 4.1 3.5.1 1.4-.9 2.5-2.2 2.8v.1c1.6.2 2.8 1.6 2.7 3.3 0 2-1.4 3.5-4.4 3.5h-5zm2-1.7h2.9c1.9 0 2.7-.8 2.7-1.9 0-1.3-1.1-2.3-2.4-2.3h-3.2v4.2zm0-5.8h2.7c1.2.1 2.2-.7 2.4-1.9v-.2c0-1.1-.8-1.9-2.3-1.9h-2.8v4zm75.4-5.1c0-.7.5-1.2 1.1-1.3s1.2.5 1.3 1.1c0 .7-.5 1.2-1.1 1.3h-.1c-.6.1-1.1-.4-1.2-1.1z"/><path d="M22.5 22.4v1.1c0 1.7-1.3 3-3 3h-16c-1.7 0-3-1.3-3-3v-20c0-1.7 1.3-3 3-3h16c1.7 0 3 1.3 3 3v1" fill="none" stroke="currentColor"/></svg>