<?xml version="1.0" encoding="utf-8"?>
<!-- Generator: Adobe Illustrator 24.2.1, SVG Export Plug-In . SVG Version: 6.00 Build 0)  -->
<svg version="1.1" id="Слой_1" xmlns="http://www.w3.org/2000/svg" xmlns:xlink="http://www.w3.org/1999/xlink" x="0px" y="0px"
	 viewBox="0 0 100.5 27" style="enable-background:new 0 0 100.5 27;" xml:space="preserve">
<style type="text/css">
	.st0{fill:#212225;}
	.st1{fill:none;stroke:#212225;}
</style>
<g id="Blockfolio" transform="translate(-188.5 -266.5)">
	<path id="Blockfolio-2" class="st0" d="M279.8,281.9c0-3.1,1.8-5.1,4.6-5.1s4.6,2,4.6,5.1c0,3.1-1.8,5.1-4.6,5.1
		S279.8,285,279.8,281.9z M281.7,281.9c0,1.9,0.8,3.5,2.7,3.5s2.6-1.6,2.6-3.5s-0.8-3.5-2.6-3.5S281.7,280,281.7,281.9L281.7,281.9z
		 M256.7,281.9c0-3.1,1.8-5.1,4.6-5.1s4.6,2,4.6,5.1c0,3.1-1.8,5.1-4.6,5.1S256.7,285,256.7,281.9z M258.6,281.9
		c0,1.9,0.8,3.5,2.7,3.5s2.6-1.6,2.6-3.5s-0.8-3.5-2.6-3.5S258.6,280,258.6,281.9L258.6,281.9z M226.9,281.9c0-3,1.8-5.1,4.6-5.1
		c2-0.2,3.8,1.3,4.1,3.3h-1.9c-0.2-1-1.1-1.7-2.2-1.7c-1.6,0-2.7,1.3-2.7,3.5c0,2.2,1,3.5,2.7,3.5c1,0.1,2-0.7,2.2-1.7h1.9
		c-0.2,2-2,3.5-4,3.3C228.6,287,226.9,284.9,226.9,281.9L226.9,281.9z M214.9,281.9c0-3.1,1.8-5.1,4.6-5.1s4.6,2,4.6,5.1
		c0,3.1-1.8,5.1-4.6,5.1S214.9,285,214.9,281.9L214.9,281.9z M216.8,281.9c0,1.9,0.8,3.5,2.7,3.5s2.6-1.6,2.6-3.5s-0.8-3.5-2.6-3.5
		S216.8,280,216.8,281.9L216.8,281.9z M269.1,286.8v-13.2h1.9v13.2L269.1,286.8z M209.8,286.8v-13.2h1.9v13.2L209.8,286.8z
		 M274.7,286.8v-9.9h1.9v9.9H274.7z M250.4,286.8v-8.3h-1.5v-1.5h1.5v-1.1c-0.1-1.5,1.1-2.7,2.6-2.8c0.1,0,0.2,0,0.3,0
		c0.5,0,1.1,0.1,1.6,0.3l-0.4,1.6c-0.3-0.1-0.6-0.1-0.9-0.1c-0.9,0-1.3,0.5-1.3,1.4v0.9h2.1v1.5h-2.1v8.3H250.4z M244.9,286.8
		l-3.3-4.5l-1,1v3.5h-1.9v-13.2h1.9v7.5h0.2l3.9-4.2h2.3l-4,4.2l4.3,5.6L244.9,286.8z M197,286.8v-13.2h4.8c2.8,0,4.1,1.5,4.1,3.5
		c0.1,1.4-0.9,2.5-2.2,2.8v0.1c1.6,0.2,2.8,1.6,2.7,3.3c0,2-1.4,3.5-4.4,3.5L197,286.8z M199,285.1h2.9c1.9,0,2.7-0.8,2.7-1.9
		c0-1.3-1.1-2.3-2.4-2.3c-0.1,0-0.1,0-0.2,0H199V285.1z M199,279.3h2.7c1.2,0.1,2.2-0.7,2.4-1.9c0-0.1,0-0.1,0-0.2
		c0-1.1-0.8-1.9-2.3-1.9H199V279.3z M274.4,274.2c0-0.7,0.5-1.2,1.1-1.3s1.2,0.5,1.3,1.1c0,0.7-0.5,1.2-1.1,1.3c0,0,0,0-0.1,0
		C275,275.4,274.5,274.9,274.4,274.2L274.4,274.2z"/>
	<path id="Прямоугольник_скругл._углы_977" class="st1" d="M211,288.9v1.1c0,1.7-1.3,3-3,3h-16
		c-1.7,0-3-1.3-3-3v-20c0-1.7,1.3-3,3-3h16c1.7,0,3,1.3,3,3v1"/>
</g>
</svg>
