<?xml version="1.0" encoding="utf-8"?>
<!-- Generator: Adobe Illustrator 22.0.1, SVG Export Plug-In . SVG Version: 6.00 Build 0)  -->
<svg version="1.1" id="Layer_1" xmlns="http://www.w3.org/2000/svg" xmlns:xlink="http://www.w3.org/1999/xlink" x="0px" y="0px"
	 viewBox="0 0 22 24.1" style="enable-background:new 0 0 22 24.1;" xml:space="preserve">
<style type="text/css">
	.st0{fill:none;stroke:#212225;stroke-width:2;}
</style>
<g id="icon" transform="translate(-91 -1029.967)">
	<path id="Фигура_612_копия" class="st0" d="M95.7,1034.5c0,0,5.3-3,5.7-3.3c0.5-0.2,1-0.2,1.4,0
		c0.4,0.2,8.2,4.5,8.7,4.8c0.3,0.2,0.5,0.6,0.5,1v9.5c-0.1,0.5-0.3,0.9-0.7,1.2c0,0-8.4,4.9-8.5,5c-0.4,0.2-0.8,0.2-1.2,0.1
		c-0.3-0.2-7.7-4.5-9.1-5.3c-0.3-0.3-0.5-0.7-0.5-1.2v-9.1c0-0.3,0.3-0.6,0.6-0.6c0.1,0,0.2,0,0.2,0.1c1.8,1,7.4,4.2,8.8,5
		c0.2,0.1,0.2,0.3,0.2,0.7v5.4"/>
</g>
</svg>
