<svg version="1.1" id="Layer_1" xmlns="http://www.w3.org/2000/svg" x="0" y="0" viewBox="0 0 21.5 23.6" xml:space="preserve"><g id="Blockchain_Registration" transform="translate(.75 .782)"><path id="Фигура_612_копия" d="M3.7 3.5S9 .5 9.4.2c.5-.2 1-.2 1.4 0 .4.2 8.2 4.5 8.7 4.8.3.2.5.6.5 1v9.5c-.1.5-.3.9-.7 1.2 0 0-8.4 4.9-8.5 5-.4.3-.8.3-1.2.2-.3-.2-7.7-4.5-9.1-5.3-.3-.3-.5-.7-.5-1.2v-9c0-.3.3-.6.6-.6.1 0 .2 0 .2.1 1.8 1 7.4 4.2 8.8 5 .2.1.2.3.2.7V17" fill="none" stroke="currentColor" stroke-width="1.5" stroke-linecap="round"/></g></svg>