<svg xmlns="http://www.w3.org/2000/svg" fill-rule="evenodd" stroke-linejoin="round" stroke-miterlimit="2" clip-rule="evenodd" viewBox="0 0 22 25"><path fill="currentColor" d="M10.849 2.133c-.973.612-5.656 3.27-5.656 3.27l-.986-1.74S9.408.727 9.8.433l.106-.079.123-.049c.792-.317 1.584-.283 2.218.034.403.201 8.264 4.534 8.788 4.849l.02.013c.553.369.945 1.094.945 1.832v9.599l-.019.097c-.152.757-.476 1.35-1.081 1.804l-.046.035-.05.029s-5.372 3.133-7.572 4.438c-.363.215-.679.407-.801.481l-.039.039-.145.072c-.63.316-1.259.334-1.89.176l-.168-.042-.144-.096c-.298-.199-7.65-4.469-9.041-5.264l-.116-.066-.095-.095A2.631 2.631 0 010 16.333v-9.1c0-.403.178-.817.48-1.12a1.62 1.62 0 011.12-.48c.361 0 .684.136.869.313l.034.035c1.998 1.115 7.241 4.111 8.592 4.883.454.243.705.633.705 1.569v5.4h-2v-5.405A1730.7 1730.7 0 002 7.991v8.342c0 .165.054.303.139.414 1.576.904 7.667 4.445 8.832 5.142a.622.622 0 00.364-.042c.059-.04.129-.085.21-.134 1.356-.82 7.513-4.413 8.19-4.808.147-.125.219-.289.265-.48V7.033c0-.059-.006-.127-.047-.161-.728-.425-8.21-4.55-8.6-4.745-.146-.072-.323-.055-.504.006z"/></svg>