<?xml version="1.0" encoding="utf-8"?>
<!-- Generator: Adobe Illustrator 22.0.1, SVG Export Plug-In . SVG Version: 6.00 Build 0)  -->
<svg version="1.1" id="Layer_1" xmlns="http://www.w3.org/2000/svg" xmlns:xlink="http://www.w3.org/1999/xlink" x="0px" y="0px"
	 viewBox="0 0 13 20" style="enable-background:new 0 0 13 20;" xml:space="preserve">
<style type="text/css">
	.st0{fill:#E7AC42;}
</style>
<path id="Прямоугольник_скругл._углы_6_копия_3" class="st0" d="M5,19v-2H2v0H1c-0.6,0-1-0.4-1-1
	c0-0.6,0.4-1,1-1h1V5H1C0.4,5,0,4.6,0,4s0.4-1,1-1h1v0h3V1c0-0.6,0.4-1,1-1s1,0.4,1,1v2h0.7c1.3-0.1,2.5,0.3,3.5,1
	c0.8,0.6,1.2,1.6,1.2,2.6c0,0.7-0.2,1.5-0.7,2c-0.5,0.5-1.1,0.9-1.8,1v0.1c1.1,0,2.1,0.7,2.7,1.6c0.3,0.5,0.5,1.2,0.4,1.8
	c0,0.7-0.2,1.4-0.6,2c-0.4,0.6-1,1.1-1.7,1.4C9.9,16.9,9,17,8.1,17H7v2c0,0.6-0.4,1-1,1S5,19.6,5,19z M5,14.6h2.5
	c0.7,0.1,1.3-0.1,1.8-0.5c0.4-0.3,0.6-0.8,0.6-1.3c0-0.5-0.2-1.1-0.6-1.4c-0.5-0.4-1.1-0.6-1.7-0.6H5L5,14.6z M5,8.9h2.2
	c0.6,0,1.1-0.1,1.5-0.5c0.4-0.3,0.6-0.8,0.6-1.3c0-0.5-0.2-0.9-0.5-1.2c-0.4-0.3-1-0.5-1.5-0.5H5V8.9z"/>
</svg>
