<?xml version="1.0" encoding="utf-8"?>
<!-- Generator: Adobe Illustrator 22.0.1, SVG Export Plug-In . SVG Version: 6.00 Build 0)  -->
<svg version="1.1" id="Layer_1" xmlns="http://www.w3.org/2000/svg" xmlns:xlink="http://www.w3.org/1999/xlink" x="0px" y="0px"
	 viewBox="0 0 24 21.8" style="enable-background:new 0 0 24 21.8;" xml:space="preserve">
<style type="text/css">
	.abizst0{fill:none;}
	.abizst1{fill:none;stroke:currentColor;stroke-width:2;}
	.abizst2{fill:none;stroke:currentColor;stroke-width:2;}
	.abizst3{fill:currentColor;}
</style>
<g id="icon" transform="translate(-395.001 -1504)">
	<g id="Эллипс_2046" stroke="currentColor" stroke-width="2" transform="translate(400 1504)">
		<circle class="bizst0" cx="4.5" cy="4.5" r="4.5" fill="none" />
	</g>
	<path id="Forma_1" d="M409,1517.8c-0.8-0.7-1.9-1-2.9-1h-3.3c-2.6,0-4.3,1.6-5.8,5.5l-0.4,1.1c-0.2,0.4-0.6,0.7-1.1,0.5
		c0,0,0,0,0,0c-0.5-0.2-0.7-0.7-0.5-1.2l0.4-1.1c1.1-2.8,3-6.6,7.4-6.6h3.3c1.6,0,3.1,0.5,4.2,1.6
		C411,1517.1,409.7,1518.3,409,1517.8z"/>
	<path id="Фигура_1006" stroke="currentColor" stroke-width="2" d="M418,1517c0,0-7.1,6.1-7.9,6.7c-0.6,0.4-1.4,0.4-2,0c-0.2-0.3-0.8-1-1-1.3
		c-0.2-0.3-0.8-0.5-1.5,0s-3.7,2.7-3.7,2.7"/>
	<path id="Forma_1_копия_3" stroke="currentColor" d="M413.8,1520.4l1.8-2.6c0.1-0.1,0.1-0.3,0-0.4c0,0-0.1-0.1-0.1-0.1l-1.3,0
		c-0.2,0-0.4-0.2-0.4-0.4c0,0,0,0,0,0l0-0.9c0-0.1,0-0.2,0.1-0.3c0.1-0.1,0.2-0.1,0.3-0.1l4.4,0.1c0.1,0,0.2,0.1,0.3,0.1
		c0.1,0.1,0.1,0.2,0.1,0.3l-0.1,4.4c0,0.1,0,0.2-0.1,0.3c-0.1,0.1-0.2,0.1-0.3,0.1l-0.9,0c-0.2,0-0.4-0.2-0.4-0.4c0,0,0,0,0,0l0-1.3
		c0-0.1-0.1-0.2-0.2-0.2c-0.1,0-0.1,0-0.2,0.1l-2.7,1.7C413.9,1521,413.6,1520.6,413.8,1520.4z"/>
</g>
</svg>
