<svg fill="currentColor" xmlns="http://www.w3.org/2000/svg" fill-rule="evenodd" stroke-linejoin="round" stroke-miterlimit="2" clip-rule="evenodd" viewBox="0 0 24 22"><circle cx="9.499" cy="4.5" r="4.5" fill="none"/><path d="M9.499 0a4.502 4.502 0 00-4.5 4.5c0 2.484 2.016 4.5 4.5 4.5s4.5-2.016 4.5-4.5S11.983 0 9.499 0zm0 2a2.5 2.5 0 010 5 2.5 2.5 0 010-5z"/><path fill-rule="nonzero" d="M13.999 13.8c-.8-.7-1.9-1-2.9-1h-3.3c-2.6 0-4.3 1.6-5.8 5.5l-.4 1.1c-.2.4-.6.7-1.1.5-.5-.2-.7-.7-.5-1.2l.4-1.1c1.1-2.8 3-6.6 7.4-6.6h3.3c1.6 0 3.1.5 4.2 1.6.7.5-.6 1.7-1.3 1.2z"/><path d="M14.526 18.879c.914-.701 7.821-6.638 7.821-6.638l1.304 1.518s-7.147 6.137-7.952 6.741l-.045.032a2.825 2.825 0 01-3.11 0l-.166-.111-.111-.166a7.49 7.49 0 00-.352-.464l-.296-.372a10.345 10.345 0 01-.236-.304.877.877 0 00-.203.099c-.698.498-3.69 2.692-3.69 2.692l-1.182-1.612s3.008-2.206 3.71-2.708c1.365-.975 2.523-.326 2.913.259.075.113.206.282.352.464l.296.372c.071.09.139.176.198.254a.81.81 0 00.749-.056z"/><path fill-rule="nonzero" d="M18.799 16.4l1.8-2.6c.1-.1.1-.3 0-.4l-.1-.1h-1.3c-.2 0-.4-.2-.4-.4V12c0-.1 0-.2.1-.3.1-.1.2-.1.3-.1l4.4.1c.1 0 .2.1.3.1.1.1.1.2.1.3l-.1 4.4c0 .1 0 .2-.1.3-.1.1-.2.1-.3.1h-.9c-.2 0-.4-.2-.4-.4v-1.3c0-.1-.1-.2-.2-.2s-.1 0-.2.1l-2.7 1.7c-.2.2-.5-.2-.3-.4z"/></svg>