<svg xmlns="http://www.w3.org/2000/svg" viewBox="0 0 24 21.8"><g transform="translate(4.999)" fill="none"><circle cx="4.5" cy="4.5" r="4.5"/><circle cx="4.5" cy="4.5" r="3.5" stroke="#212225" stroke-width="2"/></g><path d="M13.999 13.8c-.8-.7-1.9-1-2.9-1h-3.3c-2.6 0-4.3 1.6-5.8 5.5l-.4 1.1c-.2.4-.6.7-1.1.5-.5-.2-.7-.7-.5-1.2l.4-1.1c1.1-2.8 3-6.6 7.4-6.6h3.3c1.6 0 3.1.5 4.2 1.6.7.5-.6 1.7-1.3 1.2z"/><path d="M22.999 13s-7.1 6.1-7.9 6.7c-.6.4-1.4.4-2 0-.2-.3-.8-1-1-1.3-.2-.3-.8-.5-1.5 0s-3.7 2.7-3.7 2.7" fill="none" stroke="#222" stroke-width="2"/><path d="M18.799 16.4l1.8-2.6c.1-.1.1-.3 0-.4l-.1-.1h-1.3c-.2 0-.4-.2-.4-.4V12c0-.1 0-.2.1-.3.1-.1.2-.1.3-.1l4.4.1c.1 0 .2.1.3.1.1.1.1.2.1.3l-.1 4.4c0 .1 0 .2-.1.3-.1.1-.2.1-.3.1h-.9c-.2 0-.4-.2-.4-.4v-1.3c0-.1-.1-.2-.2-.2s-.1 0-.2.1l-2.7 1.7c-.2.2-.5-.2-.3-.4z" fill="#26272a"/></svg>