<svg version="1.1" id="Layer_1" xmlns="http://www.w3.org/2000/svg" x="0" y="0" viewBox="0 0 22.8 23.7" xml:space="preserve"><g id="Business_Registration" transform="translate(-406.561 -270.043)"><path id="Фигура_1006_копия" d="M423 273.5s2.6 1.5 4.1 2.4 1.1 2.9-.6 2.9h-16.6c-1.9 0-2.3-1.9-.8-2.9s4-2.4 4-2.4" fill="none" stroke="currentColor" stroke-width="1.5" stroke-linecap="round"/><g id="Forma_1_копия"><path d="M430 275.4v.8c0 .3.2.5.4.6l2.4.9c.2.1.4.1.6 0l2.4-.9c.3-.1.4-.3.4-.6v-4.5c0-.4-.3-.7-.7-.7h-4.8c-.2 0-.5.1-.6.3-.1.1-.2.3-.2.4v3.7h.1z" fill="none" transform="translate(-15.074 -.957)"/><path d="M433.2 276.2l1.7-.7v-3.1h-3.4v3.1l1.7.7m0 1.6c-.1 0-.2 0-.3-.1l-2.4-.9c-.3-.1-.4-.3-.4-.6v-4.5c0-.2.1-.3.2-.4.1-.2.4-.3.6-.3h4.8c.4 0 .7.3.7.7v4.5c0 .3-.2.5-.4.6l-2.4.9c-.2.1-.3.1-.4.1z" fill="currentColor" transform="translate(-15.074 -.957)"/></g><path id="Прямоугольник_скругл._углы_780" d="M409.7 289.4h-.4c-1-.1-1.8.6-1.9 1.6s.6 1.8 1.6 1.9h18c1 0 1.8-.7 1.8-1.7s-.7-1.8-1.7-1.8h-14c-1.1 0-1.2-1.2-.5-1.5" fill="none" stroke="currentColor" stroke-width="1.5" stroke-linecap="round"/><path id="Фигура_1008" fill="none" stroke="currentColor" stroke-width="1.5" stroke-linecap="round" d="M410 279.5v5"/><path id="Фигура_1008_копия_2" fill="none" stroke="currentColor" stroke-width="1.5" stroke-linecap="round" d="M416 279.5v3"/><path id="Фигура_1008_копия_3" fill="none" stroke="currentColor" stroke-width="1.5" stroke-linecap="round" d="M423 279.5v1"/><path id="Фигура_1006" d="M426.1 283.4s-5.9 3.3-6.5 3.6-1.1.4-1.5-.2-.3-.4-.5-.8c-.3-.4-.8-.5-1.2-.2l-3.9 2.1" fill="none" stroke="currentColor" stroke-width="1.5" stroke-linecap="round"/><path id="Фигура_1007" d="M424.3 282.7c.6-.1 1.6-.2 2-.2s.5-.2.3.5l-.9 1.8" fill="none" stroke="currentColor" stroke-width="1.5" stroke-linecap="round"/></g></svg>