<svg version="1.1" id="Layer_1" xmlns="http://www.w3.org/2000/svg" x="0" y="0" viewBox="0 0 20 20" xml:space="preserve"><path d="M2.044 1H6.22c.577 0 1.044.467 1.044 1.044V6.22c0 .577-.467 1.044-1.044 1.044H2.044A1.044 1.044 0 011 6.22V2.044C1 1.467 1.467 1 2.044 1zm13.697 10.312l2.953 2.953a1.044 1.044 0 010 1.476l-2.953 2.953a1.044 1.044 0 01-1.476 0l-2.953-2.953a1.044 1.044 0 010-1.476l2.953-2.953a1.044 1.044 0 011.476 0zM12.915 1h4.176c.577 0 1.044.467 1.044 1.044V6.22c0 .577-.467 1.044-1.044 1.044h-4.176a1.044 1.044 0 01-1.044-1.044V2.044c0-.577.467-1.044 1.044-1.044zM2.044 11.871H6.22c.577 0 1.044.467 1.044 1.044v4.176c0 .577-.467 1.044-1.044 1.044H2.044A1.044 1.044 0 011 17.091v-4.176c0-.577.467-1.044 1.044-1.044z" fill="none" stroke="currentColor" stroke-width="2"/></svg>