<?xml version="1.0" encoding="utf-8"?>
<!-- Generator: Adobe Illustrator 22.0.1, SVG Export Plug-In . SVG Version: 6.00 Build 0)  -->
<svg version="1.1" id="Layer_1" xmlns="http://www.w3.org/2000/svg" xmlns:xlink="http://www.w3.org/1999/xlink" x="0px" y="0px"
	 viewBox="0 0 321 115" style="enable-background:new 0 0 321 115;" xml:space="preserve">
<style type="text/css">
	.st0{fill:#DBDEE5;}
	.st1{fill:none;stroke:#DBDEE5;stroke-width:2;}
	.st2{fill:#289548;}
	.st3{fill:none;stroke:#212225;stroke-width:2;}
	.st4{fill:#FFFFFF;}
	.st5{fill:none;}
	.st6{fill:none;stroke:#DCDFE6;stroke-width:2;}
</style>
<g id="images" transform="translate(-578 -683)">
	<path id="Прямоугольник_538_копия_4" class="st0" d="M856,795v-14h-38v14h-2v-14h-21v-2h21v-11h2v11h38v-38h-36
		v-2h36v-38h-38v10h-2v-10h-31v-2h31v-15h2v15h38v-15h2v15h41v2h-41v38h21v2h-21v38h11v2h-11v14H856z M656,795v-14h-38v14h-2v-14h-8
		v-2h8v-37h-18v-2h18v-39h-38v-2h38v-15h2v15h38v-15h2v15h30v2h-30v10h-2v-10h-38v39h35v2h-35v37h38v-11h2v11h20v2h-20v14H656z
		 M883,785v-4h-4v-2h4v-4h2v4h4v2h-4v4H883z M656,762v-4h-4v-2h4v-4h2v4h4v2h-4v4H656z M582,746v-4h-4v-2h4v-4h2v4h4v2h-4v4H582z
		 M816,731v-4h-4v-2h4v-4h2v4h4v2h-4v4H816z"/>
	<g id="Группа_4">
		<path id="Эллипс_2047_копия_5" class="st1" d="M743.7,792.5c23.7-3.3,42.1-22.2,44.9-45.9c0.2-2,4.1-5.6,7.4-5.6h8"/>
		<path id="Эллипс_2047_копия_6" class="st1" d="M733.4,688.1c-25.4,1.6-46,21-49,46.3c-0.2,2-4.1,5.6-7.4,5.6h-8"/>
		<g id="Эллипс_2047_копия_3" transform="translate(704 708)">
			<circle class="st2" cx="32.5" cy="32.5" r="32.5"/>
			<circle class="st3" cx="32.5" cy="32.5" r="31.5"/>
		</g>
		<path id="check_копия_6" class="st4" d="M746.9,732l-12.2,12l-5.7-5.6l-4.1,4l9.8,9.6l16.2-16L746.9,732z"/>
		<g id="Эллипс_2050_копия" transform="translate(733 683)">
			<circle class="st5" cx="5" cy="5" r="5"/>
			<circle class="st1" cx="5" cy="5" r="4"/>
		</g>
		<g id="Эллипс_2050_копия_2" transform="translate(734 788)">
			<circle class="st5" cx="5" cy="5" r="5"/>
			<circle class="st1" cx="5" cy="5" r="4"/>
		</g>
		<g id="Эллипс_2050_копия_3" transform="translate(660 735)">
			<circle class="st5" cx="5" cy="5" r="5"/>
			<circle class="st1" cx="5" cy="5" r="4"/>
		</g>
		<g id="Эллипс_2050_копия_4" transform="translate(802 736)">
			<circle class="st5" cx="5" cy="5" r="5"/>
			<circle class="st1" cx="5" cy="5" r="4"/>
		</g>
		<path id="Эллипс_2047_копия_4" class="st6" d="M721.8,788.9c-17.4-5.2-30.8-19.2-35.2-36.9 M752.7,690.6
			c17.8,5.9,30.9,21,34.4,39.3"/>
	</g>
</g>
</svg>
