<svg version="1.1" id="Layer_1" xmlns="http://www.w3.org/2000/svg" x="0" y="0" viewBox="0 0 12 15" xml:space="preserve"><g id="common-file-double-2" transform="translate(-2 .25)" fill="none" stroke="currentColor" stroke-width="2" stroke-linecap="round" stroke-linejoin="round"><path id="Path_326" d="M10.5 12.884c0 .478-.373.866-.833.866h0-5.834c-.46 0-.833-.388-.833-.866V5.086c0-.478.373-.866.833-.866h4.238c.222 0 .434.09.59.254l1.595 1.656a.884.884 0 01.244.614v6.14z"/><path id="Path_327" d="M5.5 4.217V1.62c-.001-.479.37-.868.83-.87h4.242a.82.82 0 01.59.254l1.594 1.659a.884.884 0 01.244.614v6.138c0 .478-.373.866-.833.866h0H10.5"/></g></svg>