<svg version="1.1" id="copy-key-1" xmlns="http://www.w3.org/2000/svg" x="0" y="0" viewBox="0 0 17 21" xml:space="preserve"><path d="M14.997 9.983H9.989a2.01 2.01 0 00-2.003 2.003v7.01A2.01 2.01 0 009.989 21h5.008A2.01 2.01 0 0017 18.997v-7.011a2.01 2.01 0 00-2.003-2.003zm0 9.014H9.989v-7.011h5.008v7.01zM9.258 5.105c0-2.553-2.076-4.63-4.629-4.63S0 2.553 0 5.106A4.633 4.633 0 003.628 9.62v3.554h-.813a1.001 1.001 0 100 2.003h.813v1.62H1.909a1.001 1.001 0 100 2.003h2.72c.554 0 1.002-.448 1.002-1.002V9.619a4.632 4.632 0 003.627-4.514zM4.63 7.731a2.628 2.628 0 01-2.626-2.626 2.627 2.627 0 015.253.001A2.63 2.63 0 014.63 7.732z" fill="currentColor"/></svg>