<svg version="1.1" id="Layer_1" xmlns="http://www.w3.org/2000/svg" x="0" y="0" viewBox="0 0 24 24" xml:space="preserve"><path vector-effect="non-scaling-stroke" d="M16.5 21.75a1.5 1.5 0 01-1.5 1.5H4.5a1.5 1.5 0 01-1.5-1.5V8.25a1.5 1.5 0 011.5-1.5h7.629a1.5 1.5 0 011.06.439l2.872 2.872a1.5 1.5 0 01.439 1.06V21.75z" fill="none" stroke="currentColor" stroke-width="1.5" stroke-linecap="round" stroke-linejoin="round"/><path vector-effect="non-scaling-stroke" d="M7.5 6.75v-4.5A1.5 1.5 0 019 .75h7.629a1.5 1.5 0 011.06.439l2.872 2.872A1.5 1.5 0 0121 5.121V15.75a1.5 1.5 0 01-1.5 1.5h0-3" fill="none" stroke="currentColor" stroke-width="1.5" stroke-linecap="round" stroke-linejoin="round"/></svg>