<svg xmlns="http://www.w3.org/2000/svg" viewBox="0 0 21.6 27.2"><path d="M9.3 12.516l-1.3 2.3c-.2.3-.6.4-1 .2-.1 0-.1-.1-.2-.2l-1.7-2.3c-.9.4-1.6 1.4-2.3 3l-1.6 3.9c-.1.3-.4.4-.6.4-.1 0-.2 0-.3-.1-.4-.2-.5-.6-.4-.9l1.6-3.9c.7-1.8 2-4.1 4.8-4.1h2.1c.5 0 1.1.1 1.5.4-.1.4-.6 1.3-.6 1.3zm-1.8-3.7c1.9 0 3.5-1.6 3.5-3.5s-1.6-3.5-3.5-3.5-3.5 1.6-3.5 3.5 1.6 3.5 3.5 3.5zm0-5c.8 0 1.5.7 1.5 1.5s-.7 1.5-1.5 1.5-1.5-.7-1.5-1.5.7-1.5 1.5-1.5z" fill="#212225"/><path fill="none" stroke="#212225" stroke-width="2" stroke-linecap="round" d="M20.2 1.316l-14.1 24.5"/><g transform="translate(12 15.816)" fill="none"><circle cx="3.5" cy="3.5" r="3.5"/><circle cx="3.5" cy="3.5" r="2.5" stroke="#212225" stroke-width="2"/></g></svg>