<svg version="1.1" id="Layer_1" xmlns="http://www.w3.org/2000/svg" x="0" y="0" viewBox="0 0 21 21" xml:space="preserve"><path d="M10.51 9.656c-2.481 0-4.5-2.019-4.5-4.5s2.019-4.5 4.5-4.5c2.482 0 4.5 2.018 4.5 4.5s-2.018 4.5-4.5 4.5zm0-7c-1.378 0-2.5 1.121-2.5 2.5s1.122 2.5 2.5 2.5 2.5-1.122 2.5-2.5-1.121-2.5-2.5-2.5z" fill="currentColor"/><path d="M9.058 13.2h-.2c-2.518 0-4.2 1.63-5.637 5.453L2.8 19.77a.834.834 0 01-1.112.509.953.953 0 01-.471-1.2l.419-1.12c1.063-2.835 2.969-6.606 7.22-6.606h.2c1.749-.004 1.093 1.846 0 1.846zm9.005 6.819l-2.217-2.217-2.216 2.217a1.045 1.045 0 11-1.478-1.478l2.216-2.217-2.216-2.216a1.045 1.045 0 111.478-1.478l2.216 2.217 2.217-2.217a1.045 1.045 0 111.478 1.478l-2.217 2.216 2.217 2.217a1.045 1.045 0 11-1.478 1.478z"/></svg>