<?xml version="1.0" encoding="utf-8"?>
<!-- Generator: Adobe Illustrator 22.0.1, SVG Export Plug-In . SVG Version: 6.00 Build 0)  -->
<svg version="1.1" id="Layer_1" xmlns="http://www.w3.org/2000/svg" xmlns:xlink="http://www.w3.org/1999/xlink" x="0px" y="0px"
	 viewBox="0 0 21.6 27.2" style="enable-background:new 0 0 21.6 27.2;" xml:space="preserve">
<style type="text/css">
	.st0{fill:#212225;}
	.st1{fill:none;stroke:#212225;stroke-width:2;stroke-linecap:round;}
	.st2{fill:none;}
	.st3{fill:none;stroke:#212225;stroke-width:2;}
</style>
<g id="icon" transform="translate(-395 -1330.184)">
	<path id="_1_копия_3" class="st0" d="M404.3,1342.7l-1.3,2.3c-0.2,0.3-0.6,0.4-1,0.2c-0.1,0-0.1-0.1-0.2-0.2l-1.7-2.3
		c-0.9,0.4-1.6,1.4-2.3,3l-1.6,3.9c-0.1,0.3-0.4,0.4-0.6,0.4c-0.1,0-0.2,0-0.3-0.1c-0.4-0.2-0.5-0.6-0.4-0.9l1.6-3.9
		c0.7-1.8,2-4.1,4.8-4.1h2.1c0.5,0,1.1,0.1,1.5,0.4C404.8,1341.8,404.3,1342.7,404.3,1342.7z M402.5,1339c1.9,0,3.5-1.6,3.5-3.5
		c0-1.9-1.6-3.5-3.5-3.5s-3.5,1.6-3.5,3.5c0,0,0,0,0,0C399,1337.4,400.6,1339,402.5,1339z M402.5,1334c0.8,0,1.5,0.7,1.5,1.5
		s-0.7,1.5-1.5,1.5s-1.5-0.7-1.5-1.5C401,1334.7,401.7,1334,402.5,1334L402.5,1334z"/>
	<line id="Фигура_525" class="st1" x1="415.2" y1="1331.5" x2="401.1" y2="1356"/>
	<g id="Эллипс_2046_копия_3" transform="translate(407 1346)">
		<circle class="st2" cx="3.5" cy="3.5" r="3.5"/>
		<circle class="st3" cx="3.5" cy="3.5" r="2.5"/>
	</g>
</g>
</svg>
