<svg xmlns="http://www.w3.org/2000/svg"
	xmlns:xlink="http://www.w3.org/1999/xlink" viewBox="0 0 14 17">
	<defs>
		<path id="a" d="M0 0h14v17H0z"/>
	</defs>
	<clipPath id="b">
		<use xlink:href="#a" overflow="visible"/>
	</clipPath>
	<g clip-path="url(#b)">
		<path d="M1.5 16c-.3 0-.5-.2-.5-.5v-1c0-.3.2-.5.5-.5h11c.3 0 .5.2.5.5v1c0 .3-.2.5-.5.5h-11zm5-4c-.3 0-.5-.2-.5-.5V4L4.2 5.6c-.2.2-.5.1-.6 0L3 4.9c-.2-.2-.1-.5 0-.6l3.6-3.2c.2-.2.4-.2.6 0l3.6 3.2c.2.2.2.5 0 .6l-.6.7c-.2.2-.4.2-.6 0L7.8 4v7.5c0 .3-.2.5-.5.5h-.8z" fill="currentColor"/>
	</g>
</svg>
