<svg xmlns="http://www.w3.org/2000/svg" width="49.652" height="41.311" viewBox="0 0 49.652 41.311"><g id="illustration" transform="translate(-342.741 -2220.75)"><path id="Контур_616" data-name="Контур 616" d="M367.628 2234.569h9.644l-.648-1.713-11.124-11.016h-1.462v11.016l1.462 1.27z" fill="#e4eff8"/><path id="Shape_1383" data-name="Shape 1383" d="M356.56 2260.206H346.3a2.565 2.565 0 01-2.564-2.564v-33.329a2.565 2.565 0 012.564-2.564h18.17a2.56 2.56 0 011.813.752l10.033 10.035a2.56 2.56 0 01.752 1.813v7.91" fill="none" stroke="#007dff" stroke-linecap="round" stroke-linejoin="round" stroke-width="2"/><path id="Shape_1384" data-name="Shape 1384" d="M377.07 2234.569h-10.26a2.565 2.565 0 01-2.564-2.564v-10.255" fill="none" stroke="#007dff" stroke-linecap="round" stroke-linejoin="round" stroke-width="2"/><path id="Shape_1325" data-name="Shape 1325" d="M372.165 2248.242v4.354a15.261 15.261 0 002.564 8.465 15.261 15.261 0 002.564-8.465" fill="none" stroke="currentColor" stroke-linecap="round" stroke-linejoin="round" stroke-width="2"/><path id="Shape_1325-2" data-name="Shape 1325" d="M382.293 2248.242v4.353a15.259 15.259 0 01-2.564 8.465 15.259 15.259 0 01-2.564-8.465" fill="none" stroke="currentColor" stroke-linecap="round" stroke-linejoin="round" stroke-width="2"/><path id="Shape_1650" data-name="Shape 1650" d="M363.067 2261.06a5.127 5.127 0 005.127-5.127v-2.564a5.127 5.127 0 00-5.127-5.127z" fill="none" stroke="currentColor" stroke-linecap="round" stroke-linejoin="round" stroke-width="2"/><path id="Shape_1348" data-name="Shape 1348" d="M391.393 2261.06h-2.564a2.565 2.565 0 01-2.564-2.564v-7.691a2.565 2.565 0 012.564-2.563h2.564" fill="none" stroke="currentColor" stroke-linecap="round" stroke-linejoin="round" stroke-width="2"/><path id="Shape_1349" data-name="Shape 1349" d="M386.265 2255.933h5.127" fill="none" stroke="currentColor" stroke-linecap="round" stroke-linejoin="round" stroke-width="2"/></g></svg>