<svg version="1.1" id="Layer_1" xmlns="http://www.w3.org/2000/svg" x="0" y="0" viewBox="0 0 49.652 41.311" xml:space="preserve"><g id="illustration" transform="translate(-342.741 -2220.75)"><path id="Контур_616" opacity=".2" fill="#121213" d="M367.628 2234.57h9.644l-.648-1.714-11.124-11.016h-1.462v11.016l1.462 1.27 2.128.443z"/><path id="Shape_1383" fill="none" stroke="#007DFF" stroke-width="2" stroke-linecap="round" stroke-linejoin="round" d="M356.56 2260.206H346.3a2.565 2.565 0 01-2.564-2.564v-33.329a2.565 2.565 0 012.564-2.564h18.17c.68 0 1.333.27 1.813.752l10.033 10.035a2.56 2.56 0 01.752 1.813v7.91"/><path id="Shape_1384" fill="none" stroke="#007DFF" stroke-width="2" stroke-linecap="round" stroke-linejoin="round" d="M377.07 2234.57h-10.26a2.565 2.565 0 01-2.564-2.565v-10.255"/><g fill="none" stroke="currentColor" stroke-width="2" stroke-linecap="round" stroke-linejoin="round"><path id="Shape_1325" d="M372.165 2248.242v4.354c0 3.013.892 5.958 2.564 8.465a15.261 15.261 0 002.564-8.465"/><path id="Shape_1325-2" d="M382.293 2248.242v4.353c0 3.013-.892 5.958-2.564 8.465a15.259 15.259 0 01-2.564-8.465"/><path id="Shape_1650" d="M363.067 2261.06a5.127 5.127 0 005.127-5.127v-2.564a5.127 5.127 0 00-5.127-5.127v12.818z"/><path id="Shape_1348" d="M391.393 2261.06h-2.564a2.565 2.565 0 01-2.564-2.564v-7.69a2.565 2.565 0 012.564-2.564h2.564"/><path id="Shape_1349" d="M386.265 2255.933h5.127"/></g></g></svg>