<svg version="1.1" id="Слой_1" xmlns="http://www.w3.org/2000/svg" x="0" y="0" viewBox="0 0 24 26.3" xml:space="preserve"><style>.st1{fill:none;stroke:#212225;stroke-width:2;stroke-linecap:round;stroke-linejoin:round}</style><g id="Users_Geometric-Close-Up-Single-User-Actions-Neutral_single-neutral-actions-mail" transform="translate(-544.662 -2652.544)"><path id="Фигура_612_копия" d="M548.9 2658l7-4.2c.5-.3 1.1-.3 1.6 0 .4.2 9 5 9.6 5.3.4.3.6.7.6 1.2v10.5c-.1.5-.4 1-.8 1.3l-4.8 2.8-4.6 2.7c-.4.2-.9.2-1.3.1-.3-.2-8.5-5-10-5.8-.3-.4-.5-.8-.6-1.3v-10c0-.4.3-.6.7-.6.1 0 .2 0 .2.1 2 1.1 1.7 1.1 3.4 2" fill="none" stroke="#212225" stroke-width="2" stroke-linecap="round"/><g id="Users_Geometric-Close-Up-Single-User-Actions-Neutral_single-neutral-actions" transform="translate(-206 -99.83)"><g id="Group_391" transform="translate(756.25 2758.75)"><g id="Regular_391"><path id="Oval_572" class="st1" d="M6.4 5.9c1.9 0 3.4-1.5 3.4-3.4C9.8.5 8.2-1 6.4-1S2.9.5 2.9 2.4s1.6 3.5 3.5 3.5z"/><path id="Shape_1526" class="st1" d="M0 14.7c0-3.5 2.8-6.4 6.3-6.4s6.4 2.8 6.4 6.3"/></g></g></g></g></svg>