<svg version="1.1" id="Слой_1" xmlns="http://www.w3.org/2000/svg" x="0" y="0" viewBox="0 0 21 21" xml:space="preserve"><path d="M19.36 4.589l-.12-.076c-.25-.124-2.555-1.404-4.408-2.432-2-1.11-3.14-1.742-3.238-1.789a2.047 2.047 0 00-2.108 0L3.872 3.66a.802.802 0 10.826 1.376l5.613-3.369c.148-.088.31-.088.511.03.15.076 1.717.945 3.231 1.786a522.69 522.69 0 004.387 2.422c.087.078.12.159.12.287v8.328a.995.995 0 01-.293.472l-1.953 1.143c-.333-2.919-2.848-5.195-5.894-5.195-2.934 0-5.364 2.202-5.784 5.06-.845-.487-1.567-.9-1.969-1.12a1.602 1.602 0 01-.226-.514v-7.37c.45.257.693.414.93.567.32.207.623.402 1.341.782a.802.802 0 10.75-1.418c-.657-.347-.919-.517-1.222-.712-.292-.188-.62-.4-1.316-.787-.148-.159-.378-.278-.724-.278-.79 0-1.363.54-1.363 1.283v8.02l.015.157c.099.494.298.928.626 1.366l.107.143.157.084c1.169.623 7.613 4.393 7.952 4.61l.116.078.135.034c.2.05.405.075.607.075a2.3 2.3 0 001.035-.242l7.537-4.41.078-.052a2.59 2.59 0 00.946-1.525l.015-8.579c0-.655-.277-1.21-.802-1.603zm-8.536 14.76c-.092.046-.24.057-.388.04a461.872 461.872 0 00-4.269-2.503l.002-.012c0-2.387 1.907-4.33 4.25-4.33 2.388 0 4.331 1.907 4.331 4.25 0 .081.024.155.047.229l-3.973 2.325z" fill="currentColor"/><path d="M14.028 7.09c0-1.99-1.582-3.608-3.528-3.608-1.956 0-3.609 1.616-3.609 3.528 0 1.957 1.653 3.61 3.609 3.61a3.49 3.49 0 003.528-3.53zm-5.533-.08c0-1.025.937-1.924 2.005-1.924 1.061 0 1.924.9 1.924 2.005A1.903 1.903 0 0110.5 9.015c-1.087 0-2.005-.918-2.005-2.005z" fill="currentColor"/></svg>