<svg fill="currentColor" xmlns="http://www.w3.org/2000/svg" viewBox="0 0 25 15"><path d="M19.6 14.9l-.7-.7c-.2-.2-.2-.5 0-.7l2-2c.1-.1.1-.3 0-.4 0 0-.1-.1-.2-.1H10.5c-.3 0-.5-.2-.5-.4V9.5c0-.3.2-.5.4-.5H20.7c.2 0 .3-.1.3-.3 0-.1 0-.1-.1-.2l-2-2c-.2-.2-.2-.5 0-.7l.7-.7c.1-.1.2-.2.4-.1.1 0 .2.1.3.1l4.5 4.5c.1.1.1.2.2.4 0 .1-.1.3-.2.4l-4.5 4.5c-.2.1-.5.2-.7 0zm-14.9-5L.2 5.4C.1 5.3.1 5.2 0 5c0-.1.1-.3.2-.4L4.7.1c.2-.2.5-.2.7 0l.7.7c.2.2.2.5 0 .7l-2 2c-.1.1-.1.3 0 .4 0 0 .1.1.2.1h10.2c.3 0 .5.2.5.4v1.1c0 .3-.2.5-.4.5H4.2c-.2 0-.3.1-.3.3 0 .1 0 .1.1.2l2 2c.2.2.2.5 0 .7l-.7.7c-.1.1-.2.2-.4.1 0 0-.1-.1-.2-.1z"/></svg>