<?xml version="1.0" encoding="utf-8"?>
<!-- Generator: Adobe Illustrator 24.2.0, SVG Export Plug-In . SVG Version: 6.00 Build 0)  -->
<svg fill="currentColor" version="1.1" id="Слой_1" xmlns="http://www.w3.org/2000/svg" xmlns:xlink="http://www.w3.org/1999/xlink" x="0px" y="0px"
	 viewBox="0 0 25 15" style="enable-background:new 0 0 25 15;" xml:space="preserve">
<g id="Exchanges" transform="translate(-1043 -476)">
	<path id="Exchanges-2" d="M1062.6,490.9l-0.7-0.7c-0.2-0.2-0.2-0.5,0-0.7c0,0,0,0,0,0l2-2c0.1-0.1,0.1-0.3,0-0.4
		c0,0-0.1-0.1-0.2-0.1h-10.2c-0.3,0-0.5-0.2-0.5-0.4c0,0,0,0,0-0.1v-1c0-0.3,0.2-0.5,0.4-0.5c0,0,0,0,0.1,0h10.2
		c0.2,0,0.3-0.1,0.3-0.3c0-0.1,0-0.1-0.1-0.2l-2-2c-0.2-0.2-0.2-0.5,0-0.7c0,0,0,0,0,0l0.7-0.7c0.1-0.1,0.2-0.2,0.4-0.1
		c0.1,0,0.2,0.1,0.3,0.1l4.5,4.5c0.1,0.1,0.1,0.2,0.2,0.4c0,0.1-0.1,0.3-0.2,0.4l-4.5,4.5C1063.1,491,1062.8,491.1,1062.6,490.9
		C1062.6,490.9,1062.6,490.9,1062.6,490.9L1062.6,490.9z M1047.7,485.9l-4.5-4.5c-0.1-0.1-0.1-0.2-0.2-0.4c0-0.1,0.1-0.3,0.2-0.4
		l4.5-4.5c0.2-0.2,0.5-0.2,0.7,0c0,0,0,0,0,0l0.7,0.7c0.2,0.2,0.2,0.5,0,0.7c0,0,0,0,0,0l-2,2c-0.1,0.1-0.1,0.3,0,0.4
		c0,0,0.1,0.1,0.2,0.1h10.2c0.3,0,0.5,0.2,0.5,0.4c0,0,0,0,0,0.1v1c0,0.3-0.2,0.5-0.4,0.5c0,0,0,0-0.1,0h-10.3
		c-0.2,0-0.3,0.1-0.3,0.3c0,0.1,0,0.1,0.1,0.2l2,2c0.2,0.2,0.2,0.5,0,0.7c0,0,0,0,0,0l-0.7,0.7c-0.1,0.1-0.2,0.2-0.4,0.1
		C1047.9,486,1047.8,485.9,1047.7,485.9z"/>
</g>
</svg>
