<svg fill="currentColor"
	xmlns="http://www.w3.org/2000/svg" fill-rule="evenodd" stroke-linejoin="round" stroke-miterlimit="2" clip-rule="evenodd" viewBox="0 0 27 20">
	<path fill-rule="nonzero" d="M23.3 6.1l3.5 3.5c.1.1.1.2.2.3 0 .1-.1.3-.2.3l-3.5 3.5c-.2.2-.5.2-.7 0l-.7-.7c-.2-.2-.2-.5 0-.7l1-1c.1-.1.1-.3 0-.4 0 0-.1-.1-.2-.1h-4.2c-.3 0-.5-.2-.5-.4V9.3c0-.3.2-.5.4-.5h4.3c.2 0 .3-.1.3-.3 0-.1 0-.1-.1-.2l-1-1c-.2-.2-.2-.5 0-.7l.7-.7c.1-.1.2-.2.4-.1.1.2.2.3.3.3z"/>
	<path d="M10 0C4.481 0 0 4.481 0 10s4.481 10 10 10 10-4.481 10-10S15.519 0 10 0zm0 2c4.415 0 8 3.585 8 8s-3.585 8-8 8-8-3.585-8-8 3.585-8 8-8z"/>
	<path d="M9.96 0c-.837 0-1.675.462-2.37 1.416C6.416 3.028 5.56 6.261 5.56 10s.856 6.972 2.03 8.584C8.285 19.538 9.123 20 9.96 20c.837 0 1.675-.462 2.37-1.416 1.174-1.612 2.03-4.845 2.03-8.584s-.856-6.972-2.03-8.584C11.635.462 10.797 0 9.96 0zm0 2c.149 0 .279.091.413.209.258.228.49.568.706.986.79 1.534 1.281 4.014 1.281 6.805 0 2.791-.491 5.271-1.281 6.805-.216.418-.448.758-.706.986-.134.118-.264.209-.413.209-.149 0-.279-.091-.413-.209-.258-.228-.49-.568-.706-.986C8.051 15.271 7.56 12.791 7.56 10c0-2.791.491-5.271 1.281-6.805.216-.418.448-.758.706-.986.134-.118.264-.209.413-.209z"/>
	<path d="M19.321 10.018H1v1.964h18.321v-1.964z"/>
</svg>
