<?xml version="1.0" encoding="utf-8"?>
<!-- Generator: Adobe Illustrator 24.2.0, SVG Export Plug-In . SVG Version: 6.00 Build 0)  -->
<svg version="1.1" id="Слой_1" xmlns="http://www.w3.org/2000/svg" xmlns:xlink="http://www.w3.org/1999/xlink" x="0px" y="0px"
	 viewBox="0 0 23 15" style="enable-background:new 0 0 23 15;" xml:space="preserve">
<style type="text/css">
	.st0{fill:#212225;}
	.st1{fill:#DE5846;}
	.st2{fill:none;stroke:#212225;stroke-width:2;}
</style>
<g id="icon_2" transform="translate(-451 -234)">
	<path id="Forma_1" class="st0" d="M473.8,241c-0.2-0.3-5.1-7-11.3-7s-11.1,6.8-11.3,7c-0.2,0.3-0.2,0.6,0,0.9c0.2,0.3,5.1,7,11.3,7
		s11.1-6.8,11.3-7C474,241.7,474,241.3,473.8,241z M462.5,247c-4.5,0-8.4-4.2-9.6-5.5c1.2-1.4,5.1-5.5,9.6-5.5s8.4,4.2,9.6,5.5
		C470.9,242.9,467,247,462.5,247L462.5,247z"/>
	<g id="Эллипс_968" transform="translate(459 238)">
		<circle class="st1" cx="3.5" cy="3.5" r="3.5"/>
		<circle class="st2" cx="3.5" cy="3.5" r="2.5"/>
	</g>
</g>
</svg>
