<svg version="1.1" id="Layer_1" xmlns="http://www.w3.org/2000/svg" x="0" y="0" viewBox="0 0 13 15" xml:space="preserve"><g id="Group_739" transform="translate(-20 -14)"><g id="Path_489"><path fill="none" d="M2 0h6l5 5v8a2 2 0 01-2 2H2a2 2 0 01-2-2V2a2 2 0 012-2z" transform="translate(20 14)"/><path fill="currentColor" d="M2 2v11h9V5.828L7.172 2H2m0-2h6l5 5v8a2 2 0 01-2 2H2a2 2 0 01-2-2V2a2 2 0 012-2z" transform="translate(20 14)"/></g><path id="Path_490" fill="none" stroke="currentColor" stroke-width="2" stroke-linecap="round" d="M31.479 20.353h-3.417a1.137 1.137 0 01-1.3-1.3c.029-1 0-3.43 0-3.43"/></g></svg>