<svg id="Layer_1"
	xmlns="http://www.w3.org/2000/svg" viewBox="0 0 29 40">
	<style>
    .st1{fill:none;stroke:#212225;stroke-width:2}
	</style>
	<g id="icon" transform="translate(-901 -887)">
		<path id="icon-2" d="M904 903v21.1c0 1.6 1.4 2.9 3 2.9h14.9c.5 0 .9-.2 1.3-.5l6.3-6.2c.3-.3.5-.8.5-1.2V890c0-1.6-1.4-3-3-2.9h-11v2h11c.5 0 1 .4 1 .9v28.1h-6c-.6 0-1 .4-1 1v6h-14c-.5 0-1-.5-1-1v-21h-2z" fill="#212225"/>
		<path id="Forma_1" class="st1" d="M908 896l5.3 5.4-2.2 2.3 2.2 2.2 2.2-2.3 1.1 1.1 2.2-2.3-6.8-6.4"/>
		<g id="Эллипс_2046_копия_3" transform="translate(901 888)">
			<circle cx="5" cy="5" r="5" fill="#de5846"/>
			<circle class="st1" cx="5" cy="5" r="4"/>
		</g>
	</g>
</svg>
