<svg xmlns="http://www.w3.org/2000/svg" viewBox="0 0 29 40"><path d="M3 16v21.1C3 38.7 4.4 40 6 40h14.9c.5 0 .9-.2 1.3-.5l6.3-6.2c.3-.3.5-.8.5-1.2V3c0-1.6-1.4-3-3-2.9H15v2h11c.5 0 1 .4 1 .9v28.1h-6c-.6 0-1 .4-1 1v6H6c-.5 0-1-.5-1-1v-21H3V16z" fill="#212225"/><path d="M7 9l5.3 5.4-2.2 2.3 2.2 2.2 2.2-2.3 1.1 1.1 2.2-2.3L11 9" fill="none" stroke="#212225" stroke-width="2"/><g transform="translate(0 1)"><circle cx="5" cy="5" r="5" fill="#de5846"/><circle cx="5" cy="5" r="4" fill="none" stroke="#212225" stroke-width="2"/></g></svg>