<?xml version="1.0" encoding="utf-8"?>
<!-- Generator: Adobe Illustrator 22.0.1, SVG Export Plug-In . SVG Version: 6.00 Build 0)  -->
<svg fill="currentColor" version="1.1" id="Layer_1" xmlns="http://www.w3.org/2000/svg" xmlns:xlink="http://www.w3.org/1999/xlink" x="0px" y="0px"
	 viewBox="0 0 16 20" style="enable-background:new 0 0 16 20;" xml:space="preserve">
<g id="setting_" transform="translate(-944 -211)">
	<path id="Прямоугольник_скругл._углы_6_копия_5" d="M955,230v-1h-1c-1.1,0-2-0.9-2-2v-3
		c0-1.1,0.9-2,2-2h1v-7c0-0.6,0.4-1,1-1s1,0.4,1,1v7h1c1.1,0,2,0.9,2,2v3c0,1.1-0.9,2-2,2h-1v1c0,0.6-0.4,1-1,1S955,230.6,955,230z
		 M954,227h4v-3h-4V227z M947,227v-7h-1c-1.1,0-2-0.9-2-2v-3c0-1.1,0.9-2,2-2h1v-1c0-0.6,0.4-1,1-1s1,0.4,1,1v1h1c1.1,0,2,0.9,2,2v3
		c0,1.1-0.9,2-2,2h-1v7c0,0.6-0.4,1-1,1S947,227.6,947,227z M946,218h4v-3h-4V218z"/>
</g>
</svg>
