<svg xmlns="http://www.w3.org/2000/svg" viewBox="0 0 20 18"><g fill="currentColor"><path class="st0" d="M1 2h3c.6 0 1 .4 1 1s-.4 1-1 1H1c-.6 0-1-.4-1-1s.4-1 1-1z"/><path class="st1" d="M1 3h3z"/></g><g fill="currentColor"><path class="st0" d="M8 2h11c.6 0 1 .4 1 1s-.4 1-1 1H8c-.6 0-1-.4-1-1s.4-1 1-1z"/><path class="st1" d="M8 3h11z"/></g><g transform="translate(3)" fill="none" stroke="currentColor"><circle class="st0" cx="3" cy="3" r="3"/><circle class="st1" cx="3" cy="3" r="2"/></g><g fill="currentColor"><path class="st0" d="M1 8h12c.6 0 1 .4 1 1s-.4 1-1 1H1c-.6 0-1-.4-1-1s.4-1 1-1z"/><path class="st1" d="M1 9h12z"/></g><g fill="currentColor"><path class="st0" d="M17 8h2c.6 0 1 .4 1 1s-.4 1-1 1h-2c-.6 0-1-.4-1-1s.4-1 1-1z"/><path class="st1" d="M17 9h2z"/></g><g transform="translate(12 6)" fill="none" stroke="currentColor"><circle class="st0" cx="3" cy="3" r="3"/><circle class="st1" cx="3" cy="3" r="2"/></g><g fill="currentColor"><path class="st0" d="M1 14h6c.6 0 1 .4 1 1s-.4 1-1 1H1c-.6 0-1-.4-1-1s.4-1 1-1z"/><path class="st1" d="M1 15h6z"/></g><g fill="currentColor"><path class="st0" d="M11 14h8c.6 0 1 .4 1 1s-.4 1-1 1h-8c-.6 0-1-.4-1-1s.4-1 1-1z"/><path class="st1" d="M11 15h8z"/></g><g transform="translate(6 12)" fill="none" stroke="currentColor"><circle class="st0" cx="3" cy="3" r="3"/><circle class="st1" cx="3" cy="3" r="2"/></g></svg>