<?xml version="1.0" encoding="utf-8"?>
<!-- Generator: Adobe Illustrator 22.0.1, SVG Export Plug-In . SVG Version: 6.00 Build 0)  -->
<svg version="1.1" id="Layer_1" xmlns="http://www.w3.org/2000/svg" xmlns:xlink="http://www.w3.org/1999/xlink" x="0px" y="0px"
	 viewBox="0 0 20 18" style="enable-background:new 0 0 20 18;" xml:space="preserve">
<g id="icon" transform="translate(-81 -250)">
	<g id="Прямоугольник_скругл._углы_966" transform="translate(81 252)" fill="currentColor">
		<path class="st0" d="M1,0h3c0.6,0,1,0.4,1,1l0,0c0,0.6-0.4,1-1,1H1C0.4,2,0,1.6,0,1l0,0C0,0.4,0.4,0,1,0z" />
		<polygon class="st1" points="1,1 4,1 4,1"/>
	</g>
	<g id="Прямоугольник_скругл._углы_966_копия" transform="translate(88 252)" fill="currentColor" >
		<path class="st0" d="M1,0h11c0.6,0,1,0.4,1,1l0,0c0,0.6-0.4,1-1,1H1C0.4,2,0,1.6,0,1l0,0C0,0.4,0.4,0,1,0z"/>
		<polygon class="st1" points="1,1 12,1 12,1 		"/>
	</g>
	<g id="Эллипс_969" transform="translate(84 250)" fill="none" stroke="currentColor">
		<circle class="st0" cx="3" cy="3" r="3"/>
		<circle class="st1" cx="3" cy="3" r="2"/>
	</g>
	<g id="Прямоугольник_скругл._углы_966_копия_4" transform="translate(81 258)" fill="currentColor">
		<path class="st0" d="M1,0h12c0.6,0,1,0.4,1,1l0,0c0,0.6-0.4,1-1,1H1C0.4,2,0,1.6,0,1l0,0C0,0.4,0.4,0,1,0z"/>
		<polygon class="st1" points="1,1 13,1 13,1 		"/>
	</g>
	<g id="Прямоугольник_скругл._углы_966_копия_4-2" transform="translate(97 258)"  fill="currentColor">
		<path class="st0" d="M1,0h2c0.6,0,1,0.4,1,1l0,0c0,0.6-0.4,1-1,1H1C0.4,2,0,1.6,0,1l0,0C0,0.4,0.4,0,1,0z"/>
		<polygon class="st1" points="1,1 3,1 3,1 		"/>
	</g>
	<g id="Эллипс_969_копия" transform="translate(93 256)" fill="none" stroke="currentColor">
		<circle class="st0" cx="3" cy="3" r="3"/>
		<circle class="st1" cx="3" cy="3" r="2"/>
	</g>
	<g id="Прямоугольник_скругл._углы_966_копия_5" transform="translate(81 264)" fill="currentColor">
		<path class="st0" d="M1,0h6c0.6,0,1,0.4,1,1l0,0c0,0.6-0.4,1-1,1H1C0.4,2,0,1.6,0,1l0,0C0,0.4,0.4,0,1,0z"/>
		<polygon class="st1" points="1,1 7,1 7,1 		"/>
	</g>
	<g id="Прямоугольник_скругл._углы_966_копия_6" transform="translate(91 264)" fill="currentColor">
		<path class="st0" d="M1,0h8c0.6,0,1,0.4,1,1l0,0c0,0.6-0.4,1-1,1H1C0.4,2,0,1.6,0,1l0,0C0,0.4,0.4,0,1,0z"/>
		<polygon class="st1" points="1,1 9,1 9,1 		"/>
	</g>
	<g id="Эллипс_969_копия_2" transform="translate(87 262)" fill="none" stroke="currentColor">
		<circle class="st0" cx="3" cy="3" r="3"/>
		<circle class="st1" cx="3" cy="3" r="2"/>
	</g>
</g>
</svg>
