<svg xmlns="http://www.w3.org/2000/svg" viewBox="0 0 512 512"><path d="M256 10.7C114.6 10.7 0 123.3 0 262.2c0 111.2 73.3 205.4 175 238.7 12.8 2.4 17.5-5.4 17.5-12.1l-.3-42.8C121 461.2 106 412.3 106 412.3c-11.6-29-28.5-36.8-28.5-36.8-23.2-15.6 1.8-15.3 1.8-15.3 25.7 1.7 39.2 25.9 39.2 25.9 22.8 38.5 59.9 27.3 74.6 20.9 2.3-16.3 8.9-27.3 16.2-33.6-56.9-6.3-116.6-27.9-116.6-124.3 0-27.5 9.9-49.9 26.3-67.5-2.9-6.4-11.5-31.9 2.2-66.6 0 0 21.4-6.7 70.4 25.8 20.5-5.6 42.2-8.4 64-8.5 21.8.1 43.5 2.9 64 8.5 48.6-32.5 70.1-25.8 70.1-25.8 13.8 34.6 5.1 60.2 2.6 66.6 16.3 17.6 26.2 40 26.2 67.5 0 96.6-59.8 117.9-116.8 124.1 9 7.6 17.3 23 17.3 46.5l-.3 68.9c0 6.6 4.5 14.5 17.6 11.9C438.7 467.6 512 373.2 512 262.2c0-138.9-114.6-251.5-256-251.5z"/></svg>