<?xml version="1.0" encoding="utf-8"?>
<!-- Generator: Adobe Illustrator 22.0.1, SVG Export Plug-In . SVG Version: 6.00 Build 0)  -->
<svg version="1.1" id="Layer_1" xmlns="http://www.w3.org/2000/svg" xmlns:xlink="http://www.w3.org/1999/xlink" x="0px" y="0px"
	 viewBox="0 0 13 19" style="enable-background:new 0 0 13 19;" xml:space="preserve">
<style type="text/css">
	.st0{fill:#FFAE12;}
</style>
<path id="grand" class="st0" d="M2.8,19c-0.2,0-0.4-0.1-0.6-0.2c-0.3-0.2-0.5-0.6-0.5-0.9V11c-2.4-2.7-2.2-6.8,0.5-9.2
	c2.7-2.4,6.8-2.2,9.2,0.5c2.4,2.7,2.2,6.8-0.5,9.2c-1.2,1.1-2.7,1.7-4.4,1.7c-0.9,0-1.8-0.2-2.6-0.6v3.6l2-1c0.3-0.1,0.6-0.1,0.9,0
	l2.3,1v-1.6c0-0.6,0.5-1.1,1.1-1.1s1.1,0.5,1.1,1.1v3.3c0,0.4-0.2,0.7-0.5,0.9c-0.3,0.2-0.7,0.2-1,0.1l-3.4-1.5l-3.1,1.5
	C3.1,19,3,19,2.8,19z M6.5,2.2c-2.4,0-4.4,1.9-4.4,4.3c0,2.4,1.9,4.4,4.3,4.4c2.4,0,4.4-1.9,4.4-4.3c0,0,0,0,0,0
	C10.8,4.2,8.9,2.2,6.5,2.2z"/>
</svg>
