<?xml version="1.0" encoding="utf-8"?>
<!-- Generator: Adobe Illustrator 22.0.1, SVG Export Plug-In . SVG Version: 6.00 Build 0)  -->
<svg fill="currentColor" version="1.1" id="Layer_1" xmlns="http://www.w3.org/2000/svg" xmlns:xlink="http://www.w3.org/1999/xlink" x="0px" y="0px"
	 viewBox="0 0 28 14" style="enable-background:new 0 0 28 14;" xml:space="preserve">
<g id="Прямоугольник_скругл._углы_6_копия_10" transform="translate(-824 -214)">
	<g id="Прямоугольник_скругл._углы_6_копия_10-2">
		<path d="M850,226l0-2l-4,0l0,2L850,226L850,226 M840,226l0-2l-4,0l0,2L840,226L840,226 M830,226l0-2l-4,0l0,2H830
			 M850,218l0-2l-4,0l0,2L850,218L850,218 M840,218l0-2l-4,0l0,2L840,218L840,218 M830,218l0-2l-4,0l0,2H830 M850,228h-4
			c-1.1,0-2-0.9-2-2v-2c0-1.1,0.9-2,2-2h4c1.1,0,2,0.9,2,2v2C852,227.1,851.1,228,850,228z M840,228h-4c-1.1,0-2-0.9-2-2v-2
			c0-1.1,0.9-2,2-2h4c1.1,0,2,0.9,2,2v2C842,227.1,841.1,228,840,228z M830,228h-4c-1.1,0-2-0.9-2-2v-2c0-1.1,0.9-2,2-2h4
			c1.1,0,2,0.9,2,2v2C832,227.1,831.1,228,830,228z M850,220h-4c-1.1,0-2-0.9-2-2v-2c0-1.1,0.9-2,2-2h4c1.1,0,2,0.9,2,2v2
			C852,219.1,851.1,220,850,220z M840,220h-4c-1.1,0-2-0.9-2-2v-2c0-1.1,0.9-2,2-2h4c1.1,0,2,0.9,2,2v2C842,219.1,841.1,220,840,220
			z M830,220h-4c-1.1,0-2-0.9-2-2v-2c0-1.1,0.9-2,2-2h4c1.1,0,2,0.9,2,2v2C832,219.1,831.1,220,830,220z"/>
	</g>
	<g id="Stroke_Effect">
		<path d="M846,228c-1.1,0-2-0.9-2-2v-2c0-1.1,0.9-2,2-2h4c1.1,0,2,0.9,2,2v2c0,1.1-0.9,2-2,2H846z M836,228
			c-1.1,0-2-0.9-2-2v-2c0-1.1,0.9-2,2-2h4c1.1,0,2,0.9,2,2v2c0,1.1-0.9,2-2,2H836z M826,228c-1.1,0-2-0.9-2-2v-2c0-1.1,0.9-2,2-2h4
			c1.1,0,2,0.9,2,2v2c0,1.1-0.9,2-2,2H826z M846,220c-1.1,0-2-0.9-2-2v-2c0-1.1,0.9-2,2-2h4c1.1,0,2,0.9,2,2v2c0,1.1-0.9,2-2,2H846z
			 M836,220c-1.1,0-2-0.9-2-2v-2c0-1.1,0.9-2,2-2h4c1.1,0,2,0.9,2,2v2c0,1.1-0.9,2-2,2H836z M826,220c-1.1,0-2-0.9-2-2v-2
			c0-1.1,0.9-2,2-2h4c1.1,0,2,0.9,2,2v2c0,1.1-0.9,2-2,2H826z"/>
		<path d="M850,226l0-2l-4,0l0,2L850,226L850,226 M840,226l0-2l-4,0l0,2L840,226L840,226 M830,226l0-2l-4,0l0,2H830
			 M850,218l0-2l-4,0l0,2L850,218L850,218 M840,218l0-2l-4,0l0,2L840,218L840,218 M830,218 M830,218l0-2l-4,0l0,2 M850,228h-4
			c-1.1,0-2-0.9-2-2v-2c0-1.1,0.9-2,2-2h4c1.1,0,2,0.9,2,2v2C852,227.1,851.1,228,850,228z M840,228h-4c-1.1,0-2-0.9-2-2v-2
			c0-1.1,0.9-2,2-2h4c1.1,0,2,0.9,2,2v2C842,227.1,841.1,228,840,228z M830,228h-4c-1.1,0-2-0.9-2-2v-2c0-1.1,0.9-2,2-2h4
			c1.1,0,2,0.9,2,2v2C832,227.1,831.1,228,830,228z M850,220h-4c-1.1,0-2-0.9-2-2v-2c0-1.1,0.9-2,2-2h4c1.1,0,2,0.9,2,2v2
			C852,219.1,851.1,220,850,220z M840,220h-4c-1.1,0-2-0.9-2-2v-2c0-1.1,0.9-2,2-2h4c1.1,0,2,0.9,2,2v2C842,219.1,841.1,220,840,220
			z M830,220h-4c-1.1,0-2-0.9-2-2v-2c0-1.1,0.9-2,2-2h4c1.1,0,2,0.9,2,2v2C832,219.1,831.1,220,830,220z"/>
	</g>
</g>
</svg>
