<svg xmlns="http://www.w3.org/2000/svg" viewBox="0 0 28 14"><path fill="currentColor" d="M26 12v-2h-4v2h4m-10 0v-2h-4v2h4M6 12v-2H2v2h4m20-8V2h-4v2h4M16 4V2h-4v2h4M6 4V2H2v2h4m20 10h-4c-1.1 0-2-.9-2-2v-2c0-1.1.9-2 2-2h4c1.1 0 2 .9 2 2v2c0 1.1-.9 2-2 2zm-10 0h-4c-1.1 0-2-.9-2-2v-2c0-1.1.9-2 2-2h4c1.1 0 2 .9 2 2v2c0 1.1-.9 2-2 2zM6 14H2c-1.1 0-2-.9-2-2v-2c0-1.1.9-2 2-2h4c1.1 0 2 .9 2 2v2c0 1.1-.9 2-2 2zm20-8h-4c-1.1 0-2-.9-2-2V2c0-1.1.9-2 2-2h4c1.1 0 2 .9 2 2v2c0 1.1-.9 2-2 2zM16 6h-4c-1.1 0-2-.9-2-2V2c0-1.1.9-2 2-2h4c1.1 0 2 .9 2 2v2c0 1.1-.9 2-2 2zM6 6H2C.9 6 0 5.1 0 4V2C0 .9.9 0 2 0h4c1.1 0 2 .9 2 2v2c0 1.1-.9 2-2 2z"/></svg>