<svg version="1.1" id="Layer_1" xmlns="http://www.w3.org/2000/svg" x="0" y="0" viewBox="0 0 20 20" xml:space="preserve"><g id="layout-module-1" transform="translate(.25 .253)" fill="none" stroke="currentColor" stroke-width="2" stroke-linecap="round" stroke-linejoin="round"><path id="Rectangle_322" d="M2.25.747h4a1.5 1.5 0 011.5 1.5v4a1.5 1.5 0 01-1.5 1.5h-4a1.5 1.5 0 01-1.5-1.5v-4a1.5 1.5 0 011.5-1.5z"/><path id="Rectangle_323" d="M2.25 11.547h4.2a1.5 1.5 0 011.5 1.5v4.2a1.5 1.5 0 01-1.5 1.5h-4.2a1.5 1.5 0 01-1.5-1.5v-4.2a1.5 1.5 0 011.5-1.5z"/><path id="Rectangle_324" d="M13.05.747h4.2a1.5 1.5 0 011.5 1.5v4.2a1.5 1.5 0 01-1.5 1.5h-4.2a1.5 1.5 0 01-1.5-1.5v-4.2a1.5 1.5 0 011.5-1.5z"/><path id="Rectangle_325" d="M13.05 11.547h4.2a1.5 1.5 0 011.5 1.5v4.2a1.5 1.5 0 01-1.5 1.5h-4.2a1.5 1.5 0 01-1.5-1.5v-4.2a1.5 1.5 0 011.5-1.5z"/></g></svg>