<svg version="1.1" id="Слой_1" xmlns="http://www.w3.org/2000/svg" x="0" y="0" viewBox="0 0 17.5 13.3" xml:space="preserve"><g id="Interface-Essential_Search_search-bar" transform="translate(-303.005 -3442)"><g id="Group_338" transform="translate(303.755 3442.75)"><g id="search-bar" fill="none" stroke="currentColor" stroke-width="1.5" stroke-linecap="round" stroke-linejoin="round"><path id="Shape_1547" d="M2.4 3.4c-.1 0-.3.1-.3.3 0 .1.1.3.3.3.1 0 .3-.1.3-.3h0c-.1-.2-.2-.3-.3-.3"/><path id="Shape_1548" d="M5 3.4c-.1 0-.3.1-.3.3 0 .1.1.3.3.3.1 0 .3-.1.3-.3h0c-.1-.2-.2-.3-.3-.3"/><path id="Shape_1549" d="M14.7 2.1v-1c0-.6-.5-1-1-1h0H1c-.6 0-1 .5-1 1h0v4.2c0 .6.5 1 1 1h3.7"/><path id="Oval_206" d="M10.5 10c2 0 3.7-1.6 3.7-3.7 0-2-1.6-3.7-3.7-3.7-2 0-3.7 1.6-3.7 3.7 0 2 1.7 3.7 3.7 3.7z"/><path id="Shape_1550" d="M15.7 11.5l-2.6-2.6"/></g></g></g></svg>