<?xml version="1.0" encoding="utf-8"?>
<!-- Generator: Adobe Illustrator 22.0.1, SVG Export Plug-In . SVG Version: 6.00 Build 0)  -->
<svg fill="currentColor" version="1.1" id="Layer_1" xmlns="http://www.w3.org/2000/svg" xmlns:xlink="http://www.w3.org/1999/xlink" x="0px" y="0px"
	 viewBox="0 0 14 15" style="enable-background:new 0 0 14 15;" xml:space="preserve">
<path id="icon" d="M1.5,15C0.7,15,0,14.3,0,13.5S0.7,12,1.5,12h11c0.8,0,1.5,0.7,1.5,1.5S13.3,15,12.5,15H1.5z M6.7,9.8
	L4.1,6.5C4,6.4,4,6.2,4.1,6.1c0.1-0.1,0.2-0.2,0.4-0.2h1.3V4.6C5.8,2,8-0.1,10.6,0c0.2,0,0.4,0.1,0.4,0.3c0,0,0,0.1,0,0.1
	c0,0.2-0.1,0.3-0.2,0.4l-0.2,0.1C9.2,1.5,8.4,2.8,8.4,4.2v1.6h1.3c0.2,0,0.3,0.1,0.4,0.2c0.1,0.1,0.1,0.3,0,0.4L7.4,9.8
	C7.3,10,7,10.1,6.7,9.8C6.8,9.9,6.7,9.9,6.7,9.8L6.7,9.8z"/>
</svg>
