<svg xmlns="http://www.w3.org/2000/svg" viewBox="0 0 511 511"><path d="M510.5 150.2c-1.2-27.2-5.6-45.8-11.9-62a125.59 125.59 0 0 0-29.5-45.3c-12.8-13-28.3-23.1-45.2-29.4-16.3-6.3-34.8-10.7-62-11.9C334.5.3 325.8 0 256.4 0s-78.1.3-105.3 1.5-45.8 5.6-62 11.9C72 19.9 56.6 29.8 43.8 42.9c-13 12.8-23.1 28.3-29.4 45.2-6.3 16.3-10.7 34.8-11.9 62-1.3 27.4-1.6 36-1.6 105.4l1.5 105.3c1.2 27.2 5.6 45.8 11.9 62 6.5 17.2 16.6 32.5 29.5 45.3 12.8 13 28.3 23.1 45.2 29.4 16.3 6.3 34.8 10.7 62 11.9s35.9 1.5 105.3 1.5l105.3-1.5c27.2-1.2 45.8-5.6 62-11.9 34.3-13.3 61.5-40.4 74.8-74.8 6.3-16.3 10.7-34.8 11.9-62 1.2-27.3 1.5-35.9 1.5-105.3l-1.3-105.2zm-46 208.7c-1.1 25-5.3 38.4-8.8 47.4-8.6 22.3-26.3 39.9-48.5 48.5-9 3.5-22.6 7.7-47.4 8.8-27 1.2-35 1.5-103.2 1.5s-76.4-.3-103.2-1.5c-25-1.1-38.4-5.3-47.4-8.8-11.1-4.1-21.2-10.6-29.3-19.1-8.5-8.3-15-18.3-19.1-29.3-3.5-9-7.7-22.6-8.8-47.4-1.2-27-1.5-35-1.5-103.2l1.5-103.2c1.1-25 5.3-38.4 8.8-47.4C61.6 94 68.1 84 76.7 75.8 85 67.3 95 60.8 106 56.7c9-3.5 22.6-7.7 47.4-8.8 27-1.2 35-1.5 103.2-1.5 68.3 0 76.4.3 103.2 1.5 25 1.1 38.4 5.3 47.4 8.8 11.1 4.1 21.2 10.6 29.3 19.1 8.5 8.3 15 18.3 19.1 29.4 3.5 9 7.7 22.6 8.8 47.4 1.2 27 1.5 35 1.5 103.2l-1.4 103.1zM256.4 124.3c-72.5 0-131.3 58.8-131.3 131.3S184 386.8 256.4 386.8c72.5 0 131.3-58.8 131.3-131.3s-58.8-131.2-131.3-131.2zm0 216.4c-47 0-85.2-38.1-85.2-85.2s38.1-85.2 85.2-85.2c47 0 85.2 38.1 85.2 85.2s-38.1 85.2-85.2 85.2zm167.2-221.6c0 16.9-13.7 30.6-30.6 30.6s-30.6-13.7-30.6-30.6 13.7-30.6 30.6-30.6c16.8-.1 30.6 13.7 30.6 30.6z"/></svg>