<svg version="1.1" id="Слой_1" xmlns="http://www.w3.org/2000/svg" x="0" y="0" viewBox="0 0 22.3 24.2" xml:space="preserve"><g id="IPFS_Hash" transform="translate(-393.025 -1108.229)"><g id="Многоугольник_1790"><path d="M934.7 751.2l-9.7-5.3v-10.6l9.7-5.3 9.7 5.3v10.6l-9.7 5.3z" fill="none" transform="translate(-530.491 379.723)"/><path d="M934.7 751.2l9.7-5.3v-10.6l-9.7-5.3-9.7 5.3v10.6l9.7 5.3m0 1.5c-.2 0-.5-.1-.7-.2l-9.7-5.3c-.5-.3-.8-.8-.8-1.3v-10.6c0-.5.3-1.1.8-1.3l9.7-5.3c.2-.1.5-.2.7-.2s.5.1.7.2l9.7 5.3c.5.3.8.8.8 1.3v10.6c0 .5-.3 1.1-.8 1.3l-9.7 5.3c-.2.1-.5.2-.7.2z" fill="currentColor" transform="translate(-530.491 379.723)"/></g><path id="Многоугольник_1790_копия" d="M401.8 1119.4l-7.9-4.5" fill="none" stroke="currentColor" stroke-width="1.5"/><g id="Эллипс_76" transform="translate(401 1117)" fill="none"><circle cx="3" cy="3" r="3"/><circle cx="3" cy="3" r="2.2" stroke="currentColor" stroke-width="1.5"/></g><path id="Многоугольник_1790_копия-2" d="M406.5 1119.4l7.9-4.6" fill="none" stroke="currentColor" stroke-width="1.5"/></g></svg>