<svg version="1.1" id="Layer_1" xmlns="http://www.w3.org/2000/svg" x="0" y="0" viewBox="0 0 49.034 41.311" xml:space="preserve"><g id="illustration" transform="translate(-342.741 -2220.75)"><path id="Контур_616" opacity=".2" fill="#121213" d="M367.628 2234.57h9.644l-.648-1.714-11.124-11.016h-1.462v11.016l1.462 1.27 2.128.443z"/><path id="Shape_1383" fill="none" stroke="#007DFF" stroke-width="2" stroke-linecap="round" stroke-linejoin="round" d="M350.56 2260.206h-4.26a2.565 2.565 0 01-2.564-2.564v-33.329a2.565 2.565 0 012.564-2.564h18.17c.68 0 1.333.27 1.813.752l10.033 10.035a2.56 2.56 0 01.752 1.813v7.91"/><path id="Shape_1384" fill="none" stroke="#007DFF" stroke-width="2" stroke-linecap="round" stroke-linejoin="round" d="M377.07 2234.57h-10.26a2.565 2.565 0 01-2.564-2.565v-10.255"/><g id="Group_339" transform="translate(-229.183 -319.258)"><g id="java-1" transform="translate(584.488 2567.5)" fill="none" stroke="currentColor" stroke-width="2" stroke-linecap="round" stroke-linejoin="round"><path id="Shape_1795" d="M5.127 0v10.255a2.564 2.564 0 01-2.564 2.563H-.001"/><path id="Shape_1692" d="M15.382 0h-2.568a2.565 2.565 0 00-2.564 2.564c0 3.845 5.127 3.845 5.127 7.69a2.564 2.564 0 01-2.564 2.564h-2.564"/><path id="Shape_1693" d="M23.068 0a2.565 2.565 0 00-2.564 2.564v7.686a2.564 2.564 0 005.127 0V2.56A2.565 2.565 0 0023.068 0z"/><path id="Shape_1389" d="M30.342 12.818V0l5.127 12.818V0"/></g></g></g></svg>