<svg xmlns="http://www.w3.org/2000/svg" width="49.034" height="41.311" viewBox="0 0 49.034 41.311">
  <g id="illustration" transform="translate(-342.741 -2220.75)">
    <path id="Контур_616" data-name="Контур 616" d="M367.628,2234.569h9.644l-.648-1.713L365.5,2221.84h-1.462v11.016l1.462,1.27Z" fill="#e4eff8"/>
    <path id="Shape_1383" data-name="Shape 1383" d="M350.56,2260.206H346.3a2.565,2.565,0,0,1-2.564-2.564v-33.329a2.565,2.565,0,0,1,2.564-2.564H364.47a2.56,2.56,0,0,1,1.813.752l10.033,10.035a2.56,2.56,0,0,1,.752,1.813v7.91" transform="translate(0 0)" fill="none" stroke="#007dff" stroke-linecap="round" stroke-linejoin="round" stroke-width="2"/>
    <path id="Shape_1384" data-name="Shape 1384" d="M368.56,2234.569H358.3a2.565,2.565,0,0,1-2.564-2.564V2221.75" transform="translate(8.51 0)" fill="none" stroke="#007dff" stroke-linecap="round" stroke-linejoin="round" stroke-width="2"/>
    <g id="Group_339" data-name="Group 339" transform="translate(-229.183 -319.258)">
      <g id="java-1" transform="translate(584.488 2567.5)">
        <path id="Shape_1795" data-name="Shape 1795" d="M589.615,2567.5v10.255a2.564,2.564,0,0,1-2.564,2.563h-2.564" transform="translate(-584.488 -2567.5)" fill="none" stroke="currentColor" stroke-linecap="round" stroke-linejoin="round" stroke-width="2"/>
        <path id="Shape_1692" data-name="Shape 1692" d="M314.368,2524.75H311.8a2.565,2.565,0,0,0-2.564,2.564c0,3.845,5.127,3.845,5.127,7.691a2.564,2.564,0,0,1-2.564,2.563h-2.564" transform="translate(-298.986 -2524.75)" fill="none" stroke="currentColor" stroke-linecap="round" stroke-linejoin="round" stroke-width="2"/>
        <path id="Shape_1693" data-name="Shape 1693" d="M317.8,2524.75a2.565,2.565,0,0,0-2.564,2.564V2535a2.564,2.564,0,0,0,5.127,0v-7.691A2.565,2.565,0,0,0,317.8,2524.75Z" transform="translate(-294.732 -2524.75)" fill="none" stroke="currentColor" stroke-linecap="round" stroke-linejoin="round" stroke-width="2"/>
        <path id="Shape_1389" data-name="Shape 1389" d="M363.241,2249.568V2236.75l5.127,12.818V2236.75" transform="translate(-332.899 -2236.75)" fill="none" stroke="currentColor" stroke-linecap="round" stroke-linejoin="round" stroke-width="2"/>
      </g>
    </g>
  </g>
</svg>
