<svg xmlns="http://www.w3.org/2000/svg" fill-rule="evenodd" stroke-linejoin="round" stroke-miterlimit="2" clip-rule="evenodd" viewBox="0 0 20 20"><path fill="currentColor" d="M16.381 14.437l-6.066-5.709 1.37-1.456 7.534 7.091-3.603 3.767-1.1-1.1-2.2 2.3-3.615-3.614 2.207-2.307L6.286 8.7l1.428-1.4 5.978 6.091-2.193 2.293.785.786 2.2-2.3 1.1 1.1.797-.833z"/><circle cx="5" cy="5" r="5" fill="none"/><path fill="currentColor" d="M5 0C2.24 0 0 2.24 0 5s2.24 5 5 5 5-2.24 5-5-2.24-5-5-5zm0 2a3.001 3.001 0 010 6 3.001 3.001 0 010-6z"/></svg>