<?xml version="1.0" encoding="utf-8"?>
<!-- Generator: Adobe Illustrator 22.0.1, SVG Export Plug-In . SVG Version: 6.00 Build 0)  -->
<svg fill="currentColor" version="1.1" id="Layer_1" xmlns="http://www.w3.org/2000/svg" xmlns:xlink="http://www.w3.org/1999/xlink" x="0px" y="0px"
	 viewBox="0 0 16 16" style="enable-background:new 0 0 16 16;" xml:space="preserve">
<path id="ledger_копия" d="M12,16v-4h4v1c0,1.7-1.3,3-3,3H12z M6,16v-4h4v4H6z M3,16c-1.7,0-3-1.3-3-3v-1h4v4H3z
	 M6,10V0h7c1.7,0,3,1.3,3,3v7H6z M0,10V6h4v4H0z M0,4V3c0-1.7,1.3-3,3-3h1v4H0z"/>
</svg>
