<svg xmlns="http://www.w3.org/2000/svg" viewBox="0 0 20.2 20.4"><g transform="translate(5.163)" fill="none"><circle cx="4.5" cy="4.5" r="4.5"/><circle cx="4.5" cy="4.5" r="3.5" stroke="currentColor" stroke-width="2"/></g><path d="M19.963 12.8l-3.5-3.5c-.1-.1 0 0 0 0-.4-.4-.8-.1-.9 0l-.5.5c-.2.2-.2.5 0 .7l1 1c.1.1.1.1.1.2 0 .2-.1.3-.3.3h-3.7c-.1 0 .1 0 0 0h-3.6c-2.9-.2-5.8 1.3-7.4 4-.4.9-.8 1.9-1 3-.1.5.2 1.1.8 1.2h.2c.5 0 .9-.3 1-.8.2-.9.5-1.7.8-2.4 1.1-2 3.3-3.2 5.5-3h3.2c.1 0-.1 0 0 0h4.2c.1 0 .2.1.2.1.1.1.1.3 0 .4l-1 1c-.2.2-.2.5 0 .7l.7.7c.2.2.5.2.7 0l3.5-3.5c.1-.1.2-.2.2-.3 0-.1-.1-.2-.2-.3z" fill="currentColor"/></svg>