<?xml version="1.0" encoding="utf-8"?>
<!-- Generator: Adobe Illustrator 22.0.1, SVG Export Plug-In . SVG Version: 6.00 Build 0)  -->
<svg version="1.1" id="Layer_1" xmlns="http://www.w3.org/2000/svg" xmlns:xlink="http://www.w3.org/1999/xlink" x="0px" y="0px"
	 viewBox="0 0 20.2 20.4" style="enable-background:new 0 0 20.2 20.4;" xml:space="preserve">
<style type="text/css">
	.st0{fill:none;}
	.st1{fill:none;stroke:currentColor;stroke-width:2;}
	.st2{fill:currentColor;}
</style>
<g id="link" transform="translate(-977.837 -800)">
	<g id="Эллипс_2046" transform="translate(983 800)">
		<circle class="st0" cx="4.5" cy="4.5" r="4.5"/>
		<circle class="st1" cx="4.5" cy="4.5" r="3.5"/>
	</g>
	<path class="st2" d="M997.8,812.8l-3.5-3.5c-0.1-0.1,0,0,0,0c-0.4-0.4-0.8-0.1-0.9,0l-0.5,0.5c-0.2,0.2-0.2,0.5,0,0.7l1,1
		c0.1,0.1,0.1,0.1,0.1,0.2c0,0.2-0.1,0.3-0.3,0.3l-3.7,0c-0.1,0,0.1,0,0,0l-3.6,0c-2.9-0.2-5.8,1.3-7.4,4c-0.4,0.9-0.8,1.9-1,3
		c-0.1,0.5,0.2,1.1,0.8,1.2c0.1,0,0.1,0,0.2,0c0.5,0,0.9-0.3,1-0.8c0.2-0.9,0.5-1.7,0.8-2.4c1.1-2,3.3-3.2,5.5-3l3.2,0
		c0.1,0-0.1,0,0,0h4.2c0.1,0,0.2,0.1,0.2,0.1c0.1,0.1,0.1,0.3,0,0.4l-1,1c-0.2,0.2-0.2,0.5,0,0.7l0.7,0.7c0.2,0.2,0.5,0.2,0.7,0
		l3.5-3.5c0.1-0.1,0.2-0.2,0.2-0.3C998,813,997.9,812.9,997.8,812.8z"/>
</g>
</svg>
