<svg fill="currentColor" xmlns="http://www.w3.org/2000/svg" viewBox="0 0 22 13"><path d="M6.5 13c-.8 0-1.5-.7-1.5-1.5S5.7 10 6.5 10h14c.8 0 1.5.7 1.5 1.5s-.7 1.5-1.5 1.5h-14zM0 11.5c0-.8.7-1.5 1.5-1.5s1.5.7 1.5 1.5S2.3 13 1.5 13 0 12.3 0 11.5zM6.5 8C5.7 8 5 7.3 5 6.5S5.7 5 6.5 5h14c.8 0 1.5.7 1.5 1.5S21.3 8 20.5 8h-14zM0 6.5C0 5.7.7 5 1.5 5S3 5.7 3 6.5 2.3 8 1.5 8 0 7.3 0 6.5zM6.5 3C5.7 3 5 2.3 5 1.5S5.7 0 6.5 0h14c.8 0 1.5.7 1.5 1.5S21.3 3 20.5 3h-14zM0 1.5C0 .7.7 0 1.5 0S3 .7 3 1.5 2.3 3 1.5 3 0 2.3 0 1.5z"/></svg>