<svg xmlns="http://www.w3.org/2000/svg" viewBox="0 0 24 14"><path fill="currentColor" d="M7.154 14c-.862 0-1.616-.754-1.616-1.615s.754-1.616 1.616-1.616H22.23c.861 0 1.615.754 1.615 1.616 0 .861-.754 1.615-1.615 1.615H7.154zm-7-1.615c0-.862.754-1.616 1.615-1.616s1.616.754 1.616 1.616c0 .861-.754 1.615-1.616 1.615S.154 13.246.154 12.385zm7-3.77c-.862 0-1.616-.753-1.616-1.615s.754-1.615 1.616-1.615H22.23c.861 0 1.615.753 1.615 1.615s-.754 1.615-1.615 1.615H7.154zM.154 7c0-.862.754-1.615 1.615-1.615S3.385 6.138 3.385 7 2.63 8.615 1.769 8.615.154 7.862.154 7zm7-3.77c-.862 0-1.616-.753-1.616-1.615S6.292 0 7.154 0H22.23c.861 0 1.615.754 1.615 1.615s-.754 1.616-1.615 1.616H7.154zm-7-1.615C.154.754.908 0 1.769 0s1.616.754 1.616 1.615-.754 1.616-1.616 1.616S.154 2.477.154 1.615z"/></svg>