<svg version="1.1" id="Layer_1" xmlns="http://www.w3.org/2000/svg" x="0" y="0" viewBox="0 0 20 20" xml:space="preserve"><g id="grid-view" fill="none" stroke="currentColor" stroke-width="2" stroke-linecap="round" stroke-linejoin="round"><path id="Rectangle_316" d="M8.594 1h8.96c.8 0 1.446.672 1.446 1.5v.69c0 .828-.647 1.5-1.445 1.5h-8.96c-.799 0-1.446-.672-1.446-1.5V2.5c0-.828.647-1.5 1.445-1.5z"/><path id="Rectangle_317" d="M8.594 8.155h8.96c.799 0 1.446.672 1.446 1.5v.69c0 .828-.647 1.5-1.445 1.5h-8.96c-.799 0-1.446-.672-1.446-1.5v-.69c0-.828.647-1.5 1.445-1.5z"/><path id="Rectangle_318" d="M8.594 15.31h8.96c.799 0 1.446.672 1.446 1.5v.69c0 .828-.647 1.5-1.445 1.5h-8.96c-.799 0-1.446-.672-1.446-1.5v-.69c0-.828.647-1.5 1.445-1.5z"/><path id="Rectangle_319" d="M2.5 1h.69a1.5 1.5 0 011.5 1.5v.69a1.5 1.5 0 01-1.5 1.5H2.5A1.5 1.5 0 011 3.19V2.5A1.5 1.5 0 012.5 1z"/><path id="Rectangle_320" d="M2.5 8.155h.69a1.5 1.5 0 011.5 1.5v.69a1.5 1.5 0 01-1.5 1.5H2.5a1.5 1.5 0 01-1.5-1.5v-.69a1.5 1.5 0 011.5-1.5z"/><path id="Rectangle_321" d="M2.5 15.31h.69a1.5 1.5 0 011.5 1.5v.69a1.5 1.5 0 01-1.5 1.5H2.5A1.5 1.5 0 011 17.5v-.69a1.5 1.5 0 011.5-1.5z"/></g></svg>