<svg version="1.1" id="Layer_1" xmlns="http://www.w3.org/2000/svg" x="0" y="0" viewBox="0 0 13 18" xml:space="preserve"><g id="lock-2" transform="translate(1 1)" fill="none" stroke="currentColor" stroke-width="2" stroke-linecap="round" stroke-linejoin="round"><path id="Rectangle-path_42" d="M0 7.951c0-.556.448-1.006 1-1.006h9c.552 0 1 .45 1 1.006v7.045c0 .556-.448 1.006-1 1.007H1c-.552 0-1-.45-1-1.007V7.951z"/><path id="Shape_587" d="M2 5.924v-2.52C2.066 1.46 3.685-.063 5.617.003a3.512 3.512 0 013.38 3.403v2.518"/><path id="Shape_588" d="M5.5 10.656a.25.25 0 00-.249.251.25.25 0 10.426-.178.25.25 0 00-.177-.073h0"/></g></svg>