<svg xmlns="http://www.w3.org/2000/svg" viewBox="0 0 19 24"><path fill="currentColor" d="M4.187 24A3.989 3.989 0 01.2 20.015v-7.97a4 4 0 012.657-3.758V6.731a6.643 6.643 0 1113.284 0v1.556a4 4 0 012.657 3.758v7.97A3.989 3.989 0 0114.813 24H4.187zm0-13.284a1.33 1.33 0 00-1.33 1.328v7.97c0 .735.596 1.33 1.33 1.33H14.81a1.33 1.33 0 001.329-1.33v-7.97c0-.733-.595-1.328-1.33-1.328H4.188zm9.299-2.657V6.731a3.985 3.985 0 00-7.97 0v1.328h7.97z"/><path fill="currentColor" d="M9.37 18.022a1.993 1.993 0 111.413-3.4 1.994 1.994 0 01-1.413 3.4z"/></svg>