<?xml version="1.0" encoding="utf-8"?>
<!-- Generator: Adobe Illustrator 24.0.1, SVG Export Plug-In . SVG Version: 6.00 Build 0)  -->
<svg version="1.1" xmlns="http://www.w3.org/2000/svg" xmlns:xlink="http://www.w3.org/1999/xlink" x="0px" y="0px"
	 viewBox="0 0 19 24" style="enable-background:new 0 0 19 24;" xml:space="preserve">
<path fill="currentColor" d="M4.18662,24c-2.20009-0.00196-3.98319-1.78502-3.98512-3.98515v-7.97031
	c0.00414-1.68741,1.06695-3.19068,2.65639-3.75726V6.73062c-0.04858-3.66834,2.88586-6.68149,6.5542-6.73003
	c3.66834-0.04858,6.68145,2.88586,6.73003,6.55416c0.00078,0.05863,0.00078,0.11727,0,0.17586v1.55666
	c1.58944,0.56657,2.65225,2.06985,2.65639,3.75726v7.97031C18.79658,22.21498,17.01348,23.99804,14.81338,24H4.18662z
	 M4.18662,10.71577c-0.73384,0-1.3288,0.59489-1.3288,1.32873c0,0.00004,0,0.00004,0,0.00004v7.97031
	c0,0.73388,0.59489,1.32876,1.3288,1.32876l0,0h10.6232c0.73384,0,1.3288-0.59489,1.3288-1.32873c0-0.00004,0-0.00004,0-0.00004
	v-7.97031c0-0.73388-0.59489-1.32876-1.3288-1.32876l0,0H4.18662z M13.48565,8.05939V6.73062
	c0-2.20095-1.78424-3.98515-3.98519-3.98515c-2.20088,0-3.98512,1.78421-3.98512,3.98515l0,0v1.32877H13.48565z"/>
<path fill="currentColor" d="M9.37012,18.02222c-1.10047-0.00114-1.99167-0.89412-1.99053-1.99459
	c0.00114-1.10047,0.89412-1.99167,1.99459-1.99053c0.5287,0.0005,1.03549,0.21114,1.40883,0.58547
	c0.37591,0.37241,0.58647,0.88028,0.58433,1.4094C11.36542,17.13309,10.47124,18.02414,9.37012,18.02222z"/>
</svg>
