<svg version="1.1" id="Layer_1" xmlns="http://www.w3.org/2000/svg" x="0" y="0" viewBox="0 0 16.093 20.791" xml:space="preserve"><g id="common-file-lock" transform="translate(-20.89 -16.192)" fill="none" stroke="currentColor" stroke-width="2" stroke-linecap="round" stroke-linejoin="round"><path vector-effect="non-scaling-stroke" id="Rectangle_327" d="M22.89 24.239h12.093a1 1 0 011 1v9.744a1 1 0 01-1 1H22.89a1 1 0 01-1-1v-9.744a1 1 0 011-1z"/><path vector-effect="non-scaling-stroke" id="Path_402" d="M28.937 17.192h0a4.7 4.7 0 00-4.7 4.7v2.35h9.4V21.89a4.7 4.7 0 00-4.7-4.698z"/><path vector-effect="non-scaling-stroke" id="Path_403" d="M28.936 29.569a.587.587 0 11-.587.587h0c0-.324.263-.587.587-.587"/></g></svg>