<svg version="1.1" id="magistrate" xmlns="http://www.w3.org/2000/svg" x="0" y="0" viewBox="0 0 22 22" xml:space="preserve"><g fill="none" stroke="currentColor" stroke-width="2" stroke-linecap="round"><path stroke-linejoin="round" d="M3.532 6.064a2.532 2.532 0 100-5.064 2.532 2.532 0 000 5.064zm0 14.936a2.532 2.532 0 100-5.064 2.532 2.532 0 000 5.064zM18.468 6.064a2.532 2.532 0 100-5.064 2.532 2.532 0 000 5.064zm0 14.936a2.532 2.532 0 100-5.064 2.532 2.532 0 000 5.064zm-7.314-7.447a2.532 2.532 0 100-5.063 2.532 2.532 0 000 5.063z"/><path d="M16.234 5.764L14.96 7.039m1.279 9.444l-1.275-1.274m-7.899-.267L5.52 16.49m1.54-9.175L5.513 5.769"/></g></svg>