<svg version="1.1" id="magistrate" xmlns="http://www.w3.org/2000/svg" x="0" y="0" viewBox="0 0 22 22" xml:space="preserve"><g fill="none" stroke="currentColor" stroke-width="2" stroke-linecap="round"><path stroke-linejoin="round" d="M3.532 6.064a2.532 2.532 0 100-5.064 2.532 2.532 0 000 5.064zM3.532 21a2.532 2.532 0 100-5.064 2.532 2.532 0 000 5.064zM18.468 6.064a2.532 2.532 0 100-5.064 2.532 2.532 0 000 5.064zM18.468 21a2.532 2.532 0 100-5.064 2.532 2.532 0 000 5.064zM11.154 13.553a2.532 2.532 0 100-5.063 2.532 2.532 0 000 5.063z"/><path d="M16.234 5.764L14.96 7.039M16.239 16.483l-1.275-1.274M7.065 14.942L5.52 16.49M7.06 7.315L5.513 5.769"/></g></svg>