<svg version="1.1" id="magistrate" xmlns="http://www.w3.org/2000/svg" x="0" y="0" viewBox="0 0 20 20" xml:space="preserve"><g fill="none" stroke="currentColor" stroke-width="2" stroke-linecap="round"><path stroke-linejoin="round" d="M3.279 5.558a2.279 2.279 0 100-4.558 2.279 2.279 0 000 4.558zM3.279 19a2.279 2.279 0 100-4.558 2.279 2.279 0 000 4.558zM16.721 5.558a2.279 2.279 0 100-4.558 2.279 2.279 0 000 4.558zM16.721 19a2.279 2.279 0 100-4.558 2.279 2.279 0 000 4.558zM10.139 12.298a2.279 2.279 0 100-4.557 2.279 2.279 0 000 4.557z"/><path d="M14.71 5.288l-1.146 1.147M14.715 14.935l-1.148-1.147M6.459 13.548L5.068 14.94M6.454 6.683l-1.392-1.39"/></g></svg>