<svg version="1.1" id="magistrate" xmlns="http://www.w3.org/2000/svg" x="0" y="0" viewBox="0 0 20 20" xml:space="preserve"><g fill="none" stroke="currentColor" stroke-width="2" stroke-linecap="round"><path stroke-linejoin="round" d="M3.279 5.558a2.279 2.279 0 100-4.558 2.279 2.279 0 000 4.558zm0 13.442a2.279 2.279 0 100-4.558 2.279 2.279 0 000 4.558zM16.721 5.558a2.279 2.279 0 100-4.558 2.279 2.279 0 000 4.558zm0 13.442a2.279 2.279 0 100-4.558 2.279 2.279 0 000 4.558zm-6.582-6.702a2.279 2.279 0 100-4.557 2.279 2.279 0 000 4.557z"/><path d="M14.71 5.288l-1.146 1.147m1.151 8.5l-1.148-1.147m-7.108-.24L5.068 14.94m1.386-8.257l-1.392-1.39"/></g></svg>