<svg xmlns="http://www.w3.org/2000/svg" xmlns:xlink="http://www.w3.org/1999/xlink" viewBox="0 0 169 159"><defs><path id="a" d="M0 0h169v159H0z"/></defs><clipPath id="b"><use xlink:href="#a"/></clipPath><g clip-path="url(#b)"><path d="M161 159H8c-4.4 0-8-3.6-8-8V8c0-4.4 3.6-8 8-8h153c4.4 0 8 3.6 8 8v143c0 4.4-3.6 8-8 8zM110.8 56.9v61.7l-11.7 11v2.4h52.2v-2.4l-11.1-11V40.4L152 28.8V27h-36.9l-27 64.7L58 27H19.8v1.8L34 46.5v62.9l-16 20.1v2.4h40v-2.4l-16-20.1V56.9L77 132h3.7l30.1-75.1z" fill="currentColor"/></g></svg>