<?xml version="1.0" encoding="utf-8"?>
<!-- Generator: Adobe Illustrator 22.0.1, SVG Export Plug-In . SVG Version: 6.00 Build 0)  -->
<svg version="1.1" id="Layer_1" xmlns="http://www.w3.org/2000/svg" xmlns:xlink="http://www.w3.org/1999/xlink" x="0px" y="0px"
	 viewBox="0 0 321 115" style="enable-background:new 0 0 321 115;" xml:space="preserve">
<style type="text/css">
	.st0{fill:#DBDEE5;}
	.st1{fill:none;stroke:#DBDEE5;stroke-width:2;}
	.st2{fill:#DE5846;}
	.st3{fill:none;stroke:#212225;stroke-width:2;}
	.st4{fill:#FFFFFF;}
	.st5{fill:none;}
	.st6{fill:none;stroke:#DCDFE6;stroke-width:2;}
</style>
<g id="images" transform="translate(-578 -1065)">
	<path id="Прямоугольник_538_копия_4" class="st0" d="M856,1177v-14h-38v14h-2v-14h-21v-2h21v-11h2v11h38v-38h-36
		v-2h36v-38h-38v10h-2v-10h-31v-2h31v-15h2v15h38v-15h2v15h41v2h-41v38h21v2h-21v38h11v2h-11v14H856z M656,1177v-14h-38v14h-2v-14
		h-8v-2h8v-37h-18v-2h18v-39h-38v-2h38v-15h2v15h38v-15h2v15h30v2h-30v10h-2v-10h-38v39h35v2h-35v37h38v-11h2v11h20v2h-20v14H656z
		 M883,1167v-4h-4v-2h4v-4h2v4h4v2h-4v4H883z M656,1144v-4h-4v-2h4v-4h2v4h4v2h-4v4H656z M582,1128v-4h-4v-2h4v-4h2v4h4v2h-4v4H582z
		 M816,1113v-4h-4v-2h4v-4h2v4h4v2h-4v4H816z"/>
	<g id="Группа_4">
		<path id="Эллипс_2047_копия_5" class="st1" d="M743.7,1174.5c23.7-3.3,42.1-22.2,44.9-45.9c0.2-2,4.1-5.6,7.4-5.6h8"/>
		<path id="Эллипс_2047_копия_6" class="st1" d="M733.4,1070.1c-25.4,1.6-46,21-49,46.3c-0.2,2-4.1,5.6-7.4,5.6h-8"/>
		<g id="Эллипс_2047_копия_3" transform="translate(704 1090)">
			<circle class="st2" cx="32.5" cy="32.5" r="32.5"/>
			<circle class="st3" cx="32.5" cy="32.5" r="31.5"/>
		</g>
		<path id="Прямоугольник_скругл._углы2086_копия" class="st4" d="M739.8,1130.3l-3.8-3.8l-3.8,3.8
			c-1,1-2.5,1-3.5,0c-1-1-1-2.5,0-3.5l0,0l3.8-3.8l-3.8-3.8c-0.9-1-0.9-2.5,0-3.5c1-0.9,2.5-0.9,3.4,0l3.8,3.8l3.8-3.8
			c1-0.9,2.5-0.9,3.5,0c0.9,1,0.9,2.5,0,3.4l-3.8,3.8l3.8,3.8c1,0.9,1,2.5,0.1,3.5C742.4,1131.2,740.9,1131.3,739.8,1130.3
			C739.9,1130.3,739.8,1130.3,739.8,1130.3z"/>
		<g id="Эллипс_2050_копия" transform="translate(733 1065)">
			<circle class="st5" cx="5" cy="5" r="5"/>
			<circle class="st1" cx="5" cy="5" r="4"/>
		</g>
		<g id="Эллипс_2050_копия_2" transform="translate(734 1170)">
			<circle class="st5" cx="5" cy="5" r="5"/>
			<circle class="st1" cx="5" cy="5" r="4"/>
		</g>
		<g id="Эллипс_2050_копия_3" transform="translate(660 1117)">
			<circle class="st5" cx="5" cy="5" r="5"/>
			<circle class="st1" cx="5" cy="5" r="4"/>
		</g>
		<g id="Эллипс_2050_копия_4" transform="translate(802 1118)">
			<circle class="st5" cx="5" cy="5" r="5"/>
			<circle class="st1" cx="5" cy="5" r="4"/>
		</g>
		<path id="Эллипс_2047_копия_4" class="st6" d="M721.8,1170.9c-17.4-5.2-30.8-19.2-35.2-36.9 M752.7,1072.6
			c17.8,5.9,30.9,21,34.4,39.3"/>
	</g>
</g>
</svg>
