<svg version="1.1" id="Layer_1" xmlns="http://www.w3.org/2000/svg" x="0" y="0" viewBox="0 0 23.8 23.7" xml:space="preserve"><g id="Module_Registration" transform="translate(-287.274 -459.654)" fill="none" stroke="currentColor" stroke-width="1.5" stroke-linecap="round" stroke-linejoin="round"><path id="Shape_153" d="M303.3 467.8l-3-2.9c.3-.1.7-.3.9-.5.8-.8.7-2.1-.1-2.9-.8-.7-2-.7-2.8 0-.2.2-.4.6-.5.9l-1.6-1.6c-.4-.4-1-.4-1.4 0h0l-1.4 1.4c-.1.1-.2.3-.1.4 0 .2.1.3.2.4.9.6 1.2 1.8.7 2.7-.6.9-1.8 1.2-2.7.7-.2-.1-.3-.2-.4-.3-.1-.1-.2-.2-.2-.3-.1-.1-.2-.2-.4-.2-.1 0-.3 0-.4.1l-1.5 1.4c-.4.4-.4 1 0 1.4l7 7.1"/><path id="Shape_153-2" d="M306.8 473.7c-.8.9-2.2 1-3 .2s-1-2.2-.2-3l.2-.2c.2-.2.5-.4.7-.5s.3-.2.3-.4 0-.4-.1-.5l-1.7-1.7c-.4-.4-1.1-.4-1.5 0h0l-1.8 1.8c-.1-.4-.3-.7-.6-1-.9-.9-2.3-.9-3.1 0-.9.9-.9 2.3 0 3.1.3.3.6.5 1 .6l-1.8 1.8c-.4.4-.4 1.1 0 1.5h0l1.6 1.6c.1.1.3.2.4.2.2 0 .3-.1.4-.2.6-1 2-1.3 3-.6 1 .6 1.3 2 .6 3-.1.1-.2.3-.3.4l-.3.3c-.1.1-.2.2-.2.4s0 .3.2.4l1.6 1.6c.4.4 1.1.4 1.5 0l6.2-6.2c.4-.4.4-1.1 0-1.5l-1.7-1.7c-.1-.1-.3-.2-.5-.1-.2 0-.3.2-.4.3-.1-.1-.2.2-.5.4z"/></g></svg>