<svg version="1.1" id="Layer_1" xmlns="http://www.w3.org/2000/svg" x="0" y="0" viewBox="0 0 24.6 16.1" xml:space="preserve"><style type="text/css">.st0{fill:none;stroke:currentColor;stroke-width:1.5;stroke-linecap:round;stroke-linejoin:round}</style><g id="Multisig_Registration" transform="translate(-417.703 -3498)"><path id="Oval_734" class="st0" d="M421.4 3505.5c1.4 0 2.6-1.2 2.6-2.6s-1.2-2.6-2.6-2.6-2.6 1.2-2.6 2.6 1.1 2.6 2.6 2.6z"/><path id="Shape_2059" class="st0" d="M425.5 3510c-1-2.3-3.6-3.3-5.9-2.4-.3.1-.6.3-.9.5"/><path id="Oval_735" class="st0" d="M438.6 3505.5c1.4 0 2.6-1.2 2.6-2.6s-1.2-2.6-2.6-2.6-2.6 1.2-2.6 2.6 1.2 2.6 2.6 2.6z"/><path id="Shape_2060" class="st0" d="M434.5 3510c1-2.3 3.6-3.3 5.9-2.4.3.1.6.3.9.5"/><path id="Oval_736" class="st0" d="M430 3505.5c1.9 0 3.4-1.5 3.4-3.4s-1.5-3.4-3.4-3.4-3.4 1.5-3.4 3.4 1.5 3.4 3.4 3.4z"/><path id="Shape_2061" class="st0" d="M436 3513.2c-.4-3.3-3.5-5.6-6.8-5.2-2.7.4-4.8 2.5-5.2 5.2"/></g></svg>