<?xml version="1.0" encoding="utf-8"?>
<!-- Generator: Adobe Illustrator 24.0.1, SVG Export Plug-In . SVG Version: 6.00 Build 0)  -->
<svg version="1.1" id="multi-signature" xmlns="http://www.w3.org/2000/svg" xmlns:xlink="http://www.w3.org/1999/xlink" x="0px"
	 y="0px" viewBox="0 0 20 20" enable-background="new 0 0 20 20" xml:space="preserve">
<g transform="translate(29.25 -3392.75)">
	<g>
		<path fill="none" stroke="currentColor" stroke-width="2" stroke-linecap="round" stroke-linejoin="round" d="M-26.15,3402.3999
			c1.1,0,2.1-1,2.1-2.1001s-1-2.1001-2.1-2.1001s-2.1,1-2.1,2.1001S-27.35,3402.3999-26.15,3402.3999L-26.15,3402.3999z"/>
		<path fill="none" stroke="currentColor" stroke-width="2" stroke-linecap="round" stroke-linejoin="round" d="M-22.85,3406
			c-0.8-1.80005-2.9-2.6001-4.7-1.8999c-0.2,0.1001-0.5,0.19995-0.7,0.3999"/>
	</g>
	<g>
		<path fill="none" stroke="currentColor" stroke-width="2" stroke-linecap="round" stroke-linejoin="round" d="M-12.35,3402.3999
			c-1.1,0-2.1-1-2.1-2.1001s1-2.1001,2.1-2.1001s2.1,1,2.1,2.1001S-11.15,3402.3999-12.35,3402.3999L-12.35,3402.3999z"/>
		<path fill="none" stroke="currentColor" stroke-width="2" stroke-linecap="round" stroke-linejoin="round" d="M-15.65,3406
			c0.8-1.80005,2.9-2.6001,4.7-1.8999c0.2,0.1001,0.5,0.19995,0.7,0.3999"/>
	</g>
	<g>
		<path fill="none" stroke="currentColor" stroke-width="2" stroke-linecap="round" stroke-linejoin="round" d="M-14.5,3408.5
			c-0.3-2.6001-2.8-4.5-5.4-4.1001c-2.2,0.30005-3.8,2-4.1,4.1001"/>
		<path fill="none" stroke="currentColor" stroke-width="2" stroke-linecap="round" stroke-linejoin="round" d="M-19.24709,3402.3999
			c1.5,0,2.7-1.19995,2.7-2.69995s-1.2-2.69995-2.7-2.69995s-2.7,1.19995-2.7,2.69995l0,0
			C-22.04709,3401.19995-20.84709,3402.3999-19.24709,3402.3999z"/>
	</g>
</g>
</svg>
