<svg fill="currentColor" xmlns="http://www.w3.org/2000/svg" viewBox="0 0 18 15">
	<path d="M14.3 12.795v-.2c.1-2.1-.9-4.1-2.6-5.4.8-1.4 2.6-2 4.1-1.2.5.3.9.6 1.1 1.1.7 1 1.1 2.3 1.1 3.6 0 .7-.5 1.3-1.2 1.6-.8.3-1.6.5-2.5.5zm-10.6-.1c-.9 0-1.8-.2-2.6-.5-.7-.3-1.1-.9-1.2-1.6 0-1.3.4-2.5 1.1-3.6.8-1.4 2.7-1.9 4.1-1.1.5.3.8.7 1.1 1.1-1.7 1.2-2.7 3.3-2.6 5.4.1.2.1.3.1.3zm10.6-7.9c-.8 0-1.5-.5-1.9-1.2.1-.3.1-.5.1-.8 0-.4-.1-.8-.3-1.2.3-.9 1.1-1.5 2.1-1.6 1.3.1 2.3 1.3 2.2 2.6-.1 1.2-1 2.1-2.2 2.2zm-10.6 0c-1.3-.1-2.3-1.3-2.2-2.6.1-1.1 1-2 2.2-2.2 1 0 1.8.7 2.1 1.6-.2.4-.3.8-.3 1.2 0 .3 0 .5.1.8-.4.7-1.1 1.2-1.9 1.2z" fill-opacity=".471" />
	<path d="M11.2 4.595c-.1-1.2-1.2-2.2-2.4-2.1-1.2.1-2.2 1.2-2.1 2.4.1 1.2 1.1 2.1 2.2 2.1 1.4-.1 2.3-1.1 2.3-2.4zM9 7.795c-1.9 0-3.7 2.3-3.7 5.1s7.4 2.8 7.4 0-1.8-5.1-3.7-5.1z" />
</svg>
