<?xml version="1.0" encoding="utf-8"?>
<!-- Generator: Adobe Illustrator 22.0.1, SVG Export Plug-In . SVG Version: 6.00 Build 0)  -->
<svg fill="currentColor" version="1.1" id="Layer_1" xmlns="http://www.w3.org/2000/svg" xmlns:xlink="http://www.w3.org/1999/xlink" x="0px" y="0px"
	 viewBox="0 0 18 15" style="enable-background:new 0 0 18 15;" xml:space="preserve">
<g id="multisig_копия" transform="translate(-730 -795.005)">
	<path id="Forma_1_копия_2" d="M744.3,807.8L744.3,807.8c0-0.1,0-0.2,0-0.2c0.1-2.1-0.9-4.1-2.6-5.4
		c0.8-1.4,2.6-2,4.1-1.2c0.5,0.3,0.9,0.6,1.1,1.1c0.7,1,1.1,2.3,1.1,3.6c0,0.7-0.5,1.3-1.2,1.6C746,807.6,745.2,807.8,744.3,807.8z
		 M733.7,807.7L733.7,807.7c-0.9,0-1.8-0.2-2.6-0.5c-0.7-0.3-1.1-0.9-1.2-1.6c0-1.3,0.4-2.5,1.1-3.6c0.8-1.4,2.7-1.9,4.1-1.1
		c0.5,0.3,0.8,0.7,1.1,1.1c-1.7,1.2-2.7,3.3-2.6,5.4C733.7,807.6,733.7,807.7,733.7,807.7L733.7,807.7z M744.3,799.8
		c-0.8,0-1.5-0.5-1.9-1.2c0.1-0.3,0.1-0.5,0.1-0.8c0-0.4-0.1-0.8-0.3-1.2c0.3-0.9,1.1-1.5,2.1-1.6c1.3,0.1,2.3,1.3,2.2,2.6
		C746.4,798.8,745.5,799.7,744.3,799.8L744.3,799.8z M733.7,799.8c-1.3-0.1-2.3-1.3-2.2-2.6c0.1-1.1,1-2,2.2-2.2
		c1,0,1.8,0.7,2.1,1.6c-0.2,0.4-0.3,0.8-0.3,1.2c0,0.3,0,0.5,0.1,0.8C735.2,799.3,734.5,799.8,733.7,799.8L733.7,799.8z"/>
	<path id="Forma_1_копия" d="M741.2,799.6c-0.1-1.2-1.2-2.2-2.4-2.1c-1.2,0.1-2.2,1.2-2.1,2.4
		c0.1,1.2,1.1,2.1,2.2,2.1C740.3,801.9,741.2,800.9,741.2,799.6z M739,802.8c-1.9,0-3.7,2.3-3.7,5.1s7.4,2.8,7.4,0
		S740.9,802.8,739,802.8z"/>
</g>
</svg>
