<?xml version="1.0" encoding="utf-8"?>
<!-- Generator: Adobe Illustrator 22.0.1, SVG Export Plug-In . SVG Version: 6.00 Build 0)  -->
<svg version="1.1" id="Layer_1" xmlns="http://www.w3.org/2000/svg" xmlns:xlink="http://www.w3.org/1999/xlink" x="0px" y="0px"
	 viewBox="0 0 16 16" style="enable-background:new 0 0 16 16;" xml:space="preserve">
<style type="text/css">
	.st0{fill:#0A7DF8;}
</style>
<path id="official_ARK_Ecosystem_plugin" class="st0" d="M0,8c0-4.4,3.6-8,8-8s8,3.6,8,8s-3.6,8-8,8C3.6,16,0,12.4,0,8z M2,8
	c0,3.3,2.7,6,6,6c3.3,0,6-2.7,6-6c0-0.8-0.1-1.5-0.4-2.2l-5.6,5.1c-0.1,0.1-0.4,0.1-0.5,0L5.1,8.8C5,8.7,5,8.5,5.1,8.4c0,0,0,0,0,0
	l1-0.9c0.1-0.1,0.4-0.1,0.5,0l1,0.9l4.7-4.3c0,0,0.1-0.1,0.1-0.1c-2.2-2.5-6-2.7-8.5-0.5C2.7,4.7,2,6.3,2,8z"/>
</svg>
