<svg xmlns="http://www.w3.org/2000/svg" viewBox="0 0 21.856 21.97">
	<g fill="none" stroke="currentColor" stroke-linecap="round" stroke-linejoin="round" stroke-width="2">
		<path data-name="Shape 9" d="M12.375 20.772a10.088 10.088 0 01-1.387.1 9.835 9.835 0 119.73-8.438" />
		<path data-name="Shape 10" d="M8.619 20.58C7.289 18.63 6.4 15.086 6.4 11.039s.889-7.59 2.219-9.541" />
		<path data-name="Shape 11" d="M1.18 10.384h9.151" />
		<path data-name="Shape 12" d="M14.919 10.384h5.876" />
		<path data-name="Shape 13" d="M3.125 5.142h15.727" />
		<path data-name="Shape 14" d="M2.292 15.626h7.384" />
		<path data-name="Shape 15" d="M13.355 1.498a16.834 16.834 0 012.184 8.176q.018.356.027.71" />
		<path data-name="Shape 98" d="M13.051 13.694l3.184 6.954a.416.416 0 00.765-.077l.93-2.569 2.569-.93a.416.416 0 00.077-.765l-6.954-3.184a.436.436 0 00-.571.571z" />
	</g>
</svg>
