<?xml version="1.0" encoding="utf-8"?>
<!-- Generator: Adobe Illustrator 24.1.3, SVG Export Plug-In . SVG Version: 6.00 Build 0)  -->
<svg version="1.1" id="Слой_1" xmlns="http://www.w3.org/2000/svg" xmlns:xlink="http://www.w3.org/1999/xlink" x="0px" y="0px"
	 viewBox="0 0 159 47" style="enable-background:new 0 0 159 47;" xml:space="preserve">
<style type="text/css">
	.st0{clip-path:url(#SVGID_2_);}
	.st1{fill:#EEF3F5;}
</style>
<g>
	<defs>
		<rect id="SVGID_1_" width="159" height="47"/>
	</defs>
	<clipPath id="SVGID_2_">
		<use xlink:href="#SVGID_1_"  style="overflow:visible;"/>
	</clipPath>
	<g id="Placeholder" class="st0">
		<path id="line_копия_4" class="st1" d="M7,46c-3.3,0-6-2.7-6-6l0,0V7c0-3.3,2.7-6,6-6l0,0h33c3.3,0,6,2.7,6,6l0,0v33
			c0,3.3-2.7,6-6,6l0,0H7z M95,37c-1.7,0-3-1.3-3-3s1.3-3,3-3l0,0h60c1.7,0,3,1.3,3,3s-1.3,3-3,3H95z M64,37c-1.7,0-3-1.3-3-3
			s1.3-3,3-3h20c1.7,0,3,1.3,3,3s-1.3,3-3,3H64z M64,19c-1.7,0-3-1.3-3-3s1.3-3,3-3h70c1.7,0,3,1.3,3,3s-1.3,3-3,3H64z"/>
	</g>
</g>
</svg>
