<svg xmlns="http://www.w3.org/2000/svg" xmlns:xlink="http://www.w3.org/1999/xlink" viewBox="0 0 159 47"><defs><path id="a" d="M0 0h159v47H0z"/></defs><clipPath id="b"><use xlink:href="#a" overflow="visible"/></clipPath><g clip-path="url(#b)"><path d="M7 46c-3.3 0-6-2.7-6-6V7c0-3.3 2.7-6 6-6h33c3.3 0 6 2.7 6 6v33c0 3.3-2.7 6-6 6H7zm88-9c-1.7 0-3-1.3-3-3s1.3-3 3-3h60c1.7 0 3 1.3 3 3s-1.3 3-3 3H95zm-31 0c-1.7 0-3-1.3-3-3s1.3-3 3-3h20c1.7 0 3 1.3 3 3s-1.3 3-3 3H64zm0-18c-1.7 0-3-1.3-3-3s1.3-3 3-3h70c1.7 0 3 1.3 3 3s-1.3 3-3 3H64z" fill="#eef3f5"/></g></svg>