<svg version="1.1" id="Layer_1" xmlns="http://www.w3.org/2000/svg" x="0" y="0" viewBox="0 0 18 15.8" xml:space="preserve"><style>.st0{stroke-width:2}</style><g id="icon" transform="translate(-83 -357.212)"><path id="Прямоугольник_скругл._углы_973" class="st0" d="M92.8 363H99c.6 0 1 .4 1 1v7c0 .6-.4 1-1 1H85c-.6 0-1-.4-1-1v-7c0-.6.4-1 1-1h2.3" fill="none" stroke="currentColor"/><path id="Прямоугольник_скругл._углы_971_копия" class="st0" d="M93.8 362.5V359c0-.4.2-.8.5-.8h3.6c.3 0 .5.3.5.8v3.5" fill="none" stroke="currentColor"/><path id="Прямоугольник_скругл._углы_971_копия_2" class="st0" d="M86.3 362.7v-3.8c0-.3.2-.6.5-.6h3.7c.3 0 .6.3.5.6v7.2" fill="none" stroke="currentColor"/><g id="Прямоугольник_скругл._углы_974"><path class="st1" d="M1 0h6c.6 0 1 .4 1 1s-.4 1-1 1H1c-.6 0-1-.4-1-1s.4-1 1-1z" fill="none" transform="translate(88 365)"/><path class="st0" fill="none" stroke="currentColor" d="M1 1h6z" transform="translate(88 365)"/></g></g></svg>