<svg fill="currentColor" version="1.1" id="Слой_1" xmlns="http://www.w3.org/2000/svg" x="0" y="0" viewBox="0 0 20 18" xml:space="preserve"><style>.plugins-st0{fill:none;stroke:#212225;stroke-width:2}</style><g fill="currentColor" id="Plugins" transform="translate(-741 -474)"><path id="Прямоугольник_скругл._углы_973" class="plugins-st0" d="M752 480h7c.6 0 1 .4 1 1v9c0 .6-.4 1-1 1h-16c-.6 0-1-.4-1-1v-9c0-.6.4-1 1-1h2.9"/><path id="Прямоугольник_скругл._углы_971_копия" class="plugins-st0" d="M753 479v-3.3c0-.4.2-.7.4-.7h3.7c.2 0 .4.3.4.7v3.3"/><path id="Прямоугольник_скругл._углы_971_копия_2" class="plugins-st0" d="M744.9 479.7v-4c0-.3.2-.6.5-.6h4.2c.3 0 .5.3.5.6v8.4"/><path class="plugins-st0" d="M1 1h6z" transform="translate(747 483)" id="Прямоугольник_скругл._углы_974"/></g></svg>