<?xml version="1.0" encoding="utf-8"?>
<!-- Generator: Adobe Illustrator 22.0.1, SVG Export Plug-In . SVG Version: 6.00 Build 0)  -->
<svg version="1.1" id="Layer_1" xmlns="http://www.w3.org/2000/svg" xmlns:xlink="http://www.w3.org/1999/xlink" x="0px" y="0px"
	 viewBox="0 0 18 15.8" style="enable-background:new 0 0 18 15.8;" xml:space="preserve">
<style type="text/css">
	.st0{stroke-width:2;}
</style>
<g id="icon" transform="translate(-83 -357.212)">
	<path id="Прямоугольник_скругл._углы_973" class="st0" d="M92.8,363H99c0.6,0,1,0.4,1,1v7c0,0.6-0.4,1-1,1
		H85c-0.6,0-1-0.4-1-1v-7c0-0.6,0.4-1,1-1h2.3" fill="none" stroke="currentColor" />
	<path id="Прямоугольник_скругл._углы_971_копия" class="st0" d="M93.8,362.5V359
		c0-0.4,0.2-0.8,0.5-0.8h3.6c0.3,0,0.5,0.3,0.5,0.8v3.5" fill="none" stroke="currentColor" />
	<path id="Прямоугольник_скругл._углы_971_копия_2" class="st0" d="M86.3,362.7v-3.8
		c0-0.3,0.2-0.6,0.5-0.6h3.7c0.3,0,0.6,0.3,0.5,0.6v7.2" fill="none" stroke="currentColor"/>
	<g id="Прямоугольник_скругл._углы_974" transform="translate(88 365)">
		<path class="st1" d="M1,0h6c0.6,0,1,0.4,1,1l0,0c0,0.6-0.4,1-1,1H1C0.4,2,0,1.6,0,1l0,0C0,0.4,0.4,0,1,0z" fill="none"/>
		<polygon class="st0" points="1,1 7,1 7,1" fill="none" stroke="currentColor" />
	</g>
</g>
</svg>
