<svg version="1.1" id="Layer_1" xmlns="http://www.w3.org/2000/svg" x="0" y="0" viewBox="0 0 19.037 17.144" xml:space="preserve"><g id="Plugin_Registration" transform="translate(-361 -366)" fill="none" stroke="currentColor" stroke-width="2" stroke-linecap="round"><path vector-effect="non-scaling-stroke" id="Прямоугольник_скругл._углы_973" d="M372.464 371.733h5.627c.523 0 .947.424.947.947h0v8.519a.946.946 0 01-.946.946h-15.145a.946.946 0 01-.946-.946v-8.519c0-.523.423-.946.946-.947h1.77"/><path vector-effect="non-scaling-stroke" id="Прямоугольник_скругл._углы_971_копия" d="M372.413 371.728v-4.052c0-.373.184-.676.411-.676h3.489c.227 0 .411.3.411.676v3.732"/><path vector-effect="non-scaling-stroke" id="Прямоугольник_скругл._углы_971_копия_2" d="M364.72 371.655v-4.047a.551.551 0 01.462-.608h3.928a.551.551 0 01.462.608v7.91"/><path vector-effect="non-scaling-stroke" id="Path_326" d="M367.143 375.519h7.423"/></g></svg>