<?xml version="1.0" encoding="utf-8"?>
<!-- Generator: Adobe Illustrator 24.2.0, SVG Export Plug-In . SVG Version: 6.00 Build 0)  -->
<svg fill="currentColor" version="1.1" id="Слой_1" xmlns="http://www.w3.org/2000/svg" xmlns:xlink="http://www.w3.org/1999/xlink" x="0px" y="0px"
	 viewBox="0 0 20 18" style="enable-background:new 0 0 20 18;" xml:space="preserve">
<style type="text/css">
	.plugins-st0{fill:none;stroke:#212225;stroke-width:2;}
	.plugins-st1{fill:none;}
</style>
<g fill="currentColor" id="Plugins" transform="translate(-741 -474)">
	<path id="Прямоугольник_скругл._углы_973" class="plugins-st0" d="M752,480h7c0.6,0,1,0.4,1,1v9c0,0.6-0.4,1-1,1
		h-16c-0.6,0-1-0.4-1-1v-9c0-0.6,0.4-1,1-1h2.9"/>
	<path id="Прямоугольник_скругл._углы_971_копия" class="plugins-st0" d="M753,479v-3.3c0-0.4,0.2-0.7,0.4-0.7
		h3.7c0.2,0,0.4,0.3,0.4,0.7v3.3"/>
	<path id="Прямоугольник_скругл._углы_971_копия_2" class="plugins-st0" d="M744.9,479.7L744.9,479.7v-4
		c0-0.3,0.2-0.6,0.5-0.6h4.2c0.3,0,0.5,0.3,0.5,0.6v8.4"/>
	<g id="Прямоугольник_скругл._углы_974" transform="translate(747 483)">
		<path class="st1" d="M1,0h6c0.6,0,1,0.4,1,1l0,0c0,0.6-0.4,1-1,1H1C0.4,2,0,1.6,0,1l0,0C0,0.4,0.4,0,1,0z"/>
		<polygon class="plugins-st0" points="1,1 7,1 7,1 		"/>
	</g>
</g>
</svg>
