<?xml version="1.0" encoding="utf-8"?>
<!-- Generator: Adobe Illustrator 24.2.0, SVG Export Plug-In . SVG Version: 6.00 Build 0)  -->
<svg version="1.1" id="Слой_1" xmlns="http://www.w3.org/2000/svg" xmlns:xlink="http://www.w3.org/1999/xlink" x="0px" y="0px"
	 viewBox="0 0 23 23" style="enable-background:new 0 0 23 23;" xml:space="preserve">
<style type="text/css">
	.portfolio-st0{fill:none;stroke:#212225;stroke-width:2;}
	.portfolio-st1{fill:none;}
	.portfolio-st2{fill:#FFFFFF;}
</style>
<g id="Portfolio" transform="translate(-435 -471)">
	<path id="Прямоугольник_скругл._углы_980" class="portfolio-st0" d="M436,487v-11c0-2.2,1.8-4,4-4h13"/>
	<g id="Прямоугольник_скругл._углы_978" transform="translate(435 475)">
		<path class="portfolio-st1" d="M1,0h19c1.7,0,3,1.3,3,3v13c0,1.7-1.3,3-3,3H1c-0.6,0-1-0.4-1-1V1C0,0.4,0.4,0,1,0z"/>
		<path class="portfolio-st0" d="M1,1h19c1.1,0,2,0.9,2,2v13c0,1.1-0.9,2-2,2H1l0,0V1L1,1z"/>
	</g>
	<g id="Прямоугольник_скругл._углы_979" transform="translate(449 482)">
		<path class="portfolio-st2" d="M1,0h7c0.6,0,1,0.4,1,1v4c0,0.6-0.4,1-1,1H1C0.4,6,0,5.6,0,5V1C0,0.4,0.4,0,1,0z"/>
		<rect x="1" y="1" class="portfolio-st0" width="7" height="4"/>
	</g>
</g>
</svg>
