<svg version="1.1" id="Слой_1" xmlns="http://www.w3.org/2000/svg" x="0" y="0" viewBox="0 0 16 15" xml:space="preserve"><style>.portfolio-tag-st1{fill:none;stroke:#212225;stroke-width:2}</style><g id="icon_3" transform="translate(-330 -234)"><g id="Прямоугольник_скругл._углы_979"><path d="M1 0h6c.6 0 1 .4 1 1v4c0 .6-.4 1-1 1H1c-.6 0-1-.4-1-1V1c0-.6.4-1 1-1z" fill="#de5846" transform="translate(338 238)"/><path class="portfolio-tag-st1" d="M1 1h6v4H1z" transform="translate(338 238)"/></g><g id="Прямоугольник_скругл._углы_978"><path d="M1 0h12c1.7 0 3 1.3 3 3v9c0 1.7-1.3 3-3 3H1c-.6 0-1-.4-1-1V1c0-.6.4-1 1-1z" fill="none" transform="translate(330 234)"/><path class="portfolio-tag-st1" d="M1 1h12c1.1 0 2 .9 2 2v9c0 1.1-.9 2-2 2H1V1z" transform="translate(330 234)"/></g></g></svg>