<svg xmlns="http://www.w3.org/2000/svg" viewBox="0 0 23 23"><path d="M1 16V5c0-2.2 1.8-4 4-4h13" fill="none" stroke="#212225" stroke-width="2"/><g fill="none"><path d="M1 4h19c1.7 0 3 1.3 3 3v13c0 1.7-1.3 3-3 3H1c-.6 0-1-.4-1-1V5c0-.6.4-1 1-1z"/><path d="M1 5h19c1.1 0 2 .9 2 2v13c0 1.1-.9 2-2 2H1V5z" stroke="#212225" stroke-width="2"/></g><path d="M15 11h7c.6 0 1 .4 1 1v4c0 .6-.4 1-1 1h-7c-.6 0-1-.4-1-1v-4c0-.6.4-1 1-1z" fill="#fff"/><path d="M15 12h7v4h-7v-4z" fill="none" stroke="#212225" stroke-width="2"/></svg>