<svg version="1.1" id="Слой_1" xmlns="http://www.w3.org/2000/svg" x="0" y="0" viewBox="0 0 23 23" xml:space="preserve"><style>.portfolio-st0{fill:none;stroke:#212225;stroke-width:2}</style><g id="Portfolio" transform="translate(-435 -471)"><path id="Прямоугольник_скругл._углы_980" class="portfolio-st0" d="M436 487v-11c0-2.2 1.8-4 4-4h13"/><g id="Прямоугольник_скругл._углы_978"><path d="M1 0h19c1.7 0 3 1.3 3 3v13c0 1.7-1.3 3-3 3H1c-.6 0-1-.4-1-1V1c0-.6.4-1 1-1z" fill="none" transform="translate(435 475)"/><path class="portfolio-st0" d="M1 1h19c1.1 0 2 .9 2 2v13c0 1.1-.9 2-2 2H1V1z" transform="translate(435 475)"/></g><g id="Прямоугольник_скругл._углы_979"><path d="M1 0h7c.6 0 1 .4 1 1v4c0 .6-.4 1-1 1H1c-.6 0-1-.4-1-1V1c0-.6.4-1 1-1z" fill="#fff" transform="translate(449 482)"/><path class="portfolio-st0" d="M1 1h7v4H1z" transform="translate(449 482)"/></g></g></svg>