<svg version="1.1" id="Layer_1" xmlns="http://www.w3.org/2000/svg" x="0" y="0" viewBox="0 0 22.08 22.08" xml:space="preserve"><g id="qr-code" transform="translate(.25 .25)" fill="none" stroke="currentColor" stroke-width="2" stroke-linecap="round" stroke-linejoin="round"><path id="Path_329" d="M.75 11.459v1.339h1.339"/><path id="Rectangle_313" d="M.75.75h5v5h-5z"/><path id="Rectangle_314" d="M15.475.75h5.355v5.355h-5.355z"/><path id="Rectangle_315" d="M.75 15.475h5.355v5.355H.75z"/><path id="Line_15" d="M10.79.75h2.008"/><path id="Path_330" d="M8.782.75v2.677h2.008"/><path id="Path_331" d="M12.798 3.427v2.677H8.782"/><path id="Path_332" d="M.75 8.782H6.1v1.339"/><path id="Line_16" d="M4.766 12.798h1.339"/><path id="Path_333" d="M20.829 20.825h-2.677v-2.673h2.677v-2.677h-2.677"/><path id="Path_334" d="M12.798 20.825H8.782v-5.35"/><path id="Line_17" d="M15.475 15.475v5.355"/><path id="Path_335" d="M11.459 15.475h1.339v2.677h-1.339"/><path id="Path_336" d="M8.782 11.459v1.339h1.339"/><path id="Line_18" d="M12.798 12.798h2.677"/><path id="Line_19" d="M14.136 12.797V10.12"/><path id="Path_337" d="M8.782 8.782h2.677v1.339"/><path id="Line_20" d="M20.83 8.782v1.339"/><path id="Line_21" d="M20.83 12.128v.669"/><path id="Path_338" d="M16.814 8.782v1.339h1.339v2.011"/></g></svg>