<svg version="1.1" fill="currentColor" id="Слой_1" xmlns="http://www.w3.org/2000/svg" x="0" y="0" viewBox="0 0 20 20" xml:space="preserve"><g id="Group_2"><path d="M909 732c5.5 0 10 4.5 10 10s-4.5 10-10 10-10-4.5-10-10 4.5-10 10-10z" fill="inherit" transform="translate(-899 -732)"/><path fill="currentColor" d="M907.5 744.1v-.2c0-.4 0-.8.1-1.3.1-.3.2-.5.4-.8.2-.2.4-.4.6-.5.2-.1.4-.2.5-.4l.4-.4c.1-.2.1-.3.1-.5s0-.3-.1-.5c-.1-.1-.2-.3-.4-.3-.2-.1-.3-.1-.5-.1s-.4 0-.5.1c-.2.1-.3.2-.4.4-.1.2-.2.4-.2.6h-2.1c0-.6.1-1.1.5-1.6.3-.4.7-.7 1.2-.9.5-.2 1-.3 1.6-.3.6 0 1.2.1 1.7.3.5.2.9.5 1.2.9.3.4.4.9.4 1.4 0 .3-.1.7-.2 1-.1.3-.3.5-.5.7-.2.2-.5.4-.8.6-.2.1-.4.3-.6.4-.1.1-.3.3-.3.5-.1.2-.1.5-.1.7v.2h-2zm1 3c-.3 0-.6-.1-.9-.4-.2-.2-.4-.5-.3-.8 0-.3.1-.6.3-.8.2-.2.5-.4.9-.3.3 0 .6.1.8.3.2.2.4.5.4.8 0 .2-.1.4-.2.6-.1.2-.3.3-.4.4-.2.2-.4.2-.6.2z" transform="translate(-899 -732)"/></g></svg>