<?xml version="1.0" encoding="utf-8"?>
<!-- Generator: Adobe Illustrator 24.2.3, SVG Export Plug-In . SVG Version: 6.00 Build 0)  -->
<svg version="1.1" fill="currentColor" id="Слой_1" xmlns="http://www.w3.org/2000/svg" xmlns:xlink="http://www.w3.org/1999/xlink" x="0px" y="0px"
	 viewBox="0 0 20 20" style="enable-background:new 0 0 20 20;" xml:space="preserve">
<g id="Group_2" transform="translate(-899 -732)">
	<path style="fill: inherit" d="M909,732c5.5,0,10,4.5,10,10s-4.5,10-10,10s-10-4.5-10-10S903.5,732,909,732z"/>
	<path fill="currentColor" d="M907.5,744.1v-0.2c0-0.4,0-0.8,0.1-1.3c0.1-0.3,0.2-0.5,0.4-0.8c0.2-0.2,0.4-0.4,0.6-0.5
		c0.2-0.1,0.4-0.2,0.5-0.4c0.1-0.1,0.3-0.3,0.4-0.4c0.1-0.2,0.1-0.3,0.1-0.5c0-0.2,0-0.3-0.1-0.5c-0.1-0.1-0.2-0.3-0.4-0.3
		c-0.2-0.1-0.3-0.1-0.5-0.1c-0.2,0-0.4,0-0.5,0.1c-0.2,0.1-0.3,0.2-0.4,0.4c-0.1,0.2-0.2,0.4-0.2,0.6h-2.1c0-0.6,0.1-1.1,0.5-1.6
		c0.3-0.4,0.7-0.7,1.2-0.9c0.5-0.2,1-0.3,1.6-0.3c0.6,0,1.2,0.1,1.7,0.3c0.5,0.2,0.9,0.5,1.2,0.9c0.3,0.4,0.4,0.9,0.4,1.4
		c0,0.3-0.1,0.7-0.2,1c-0.1,0.3-0.3,0.5-0.5,0.7c-0.2,0.2-0.5,0.4-0.8,0.6c-0.2,0.1-0.4,0.3-0.6,0.4c-0.1,0.1-0.3,0.3-0.3,0.5
		c-0.1,0.2-0.1,0.5-0.1,0.7v0.2L907.5,744.1z M908.5,747.1c-0.3,0-0.6-0.1-0.9-0.4c-0.2-0.2-0.4-0.5-0.3-0.8c0-0.3,0.1-0.6,0.3-0.8
		c0.2-0.2,0.5-0.4,0.9-0.3c0.3,0,0.6,0.1,0.8,0.3c0.2,0.2,0.4,0.5,0.4,0.8c0,0.2-0.1,0.4-0.2,0.6c-0.1,0.2-0.3,0.3-0.4,0.4
		C908.9,747.1,908.7,747.1,908.5,747.1z"/>
</g>
</svg>
