<?xml version="1.0" encoding="utf-8"?>
<!-- Generator: Adobe Illustrator 22.0.1, SVG Export Plug-In . SVG Version: 6.00 Build 0)  -->
<svg fill="currentColor" version="1.1" id="Layer_1" xmlns="http://www.w3.org/2000/svg" xmlns:xlink="http://www.w3.org/1999/xlink" x="0px" y="0px"
	 viewBox="0 0 22 22" style="enable-background:new 0 0 22 22;" xml:space="preserve">
<g id="Receive" transform="translate(-1042.997 -38.997)">
	<path id="icon" d="M1063,61v-2h2v2H1063z M1059,61v-2h2v2H1059z M1055,61V51h6v4h2v-4h2v6h-6v-2h-2v6H1055z M1043,61
		V51h10v10H1043z M1045,59h6v-6h-6V59z M1047,57v-2h2v2H1047z M1055,49V39h10v10H1055z M1057,47h6v-6h-6V47z M1043,49V39h10v10H1043
		z M1045,47h6v-6h-6V47z M1059,45v-2h2v2H1059z M1047,45v-2h2v2H1047z"/>
</g>
</svg>
