<?xml version="1.0" encoding="utf-8"?>
<!-- Generator: Adobe Illustrator 22.0.1, SVG Export Plug-In . SVG Version: 6.00 Build 0)  -->
<svg fill="currentColor" version="1.1" id="Layer_1" xmlns="http://www.w3.org/2000/svg" xmlns:xlink="http://www.w3.org/1999/xlink" x="0px" y="0px"
	 viewBox="0 0 40.7 47" style="enable-background:new 0 0 40.7 47;" xml:space="preserve">
<g id="Sent_Received_" transform="translate(-339 -1491)">
	<path id="Эллипс_1_копия_4" d="M358.7,1524.6l-6.3-6.6c-0.5-0.5-0.5-1.2,0-1.7c0.4-0.5,1.2-0.5,1.6,0
		c0,0,0,0,0,0l5.5,5.7l5.5-5.7c0.4-0.5,1.2-0.5,1.6,0c0,0,0,0,0,0c0.5,0.5,0.5,1.2,0,1.7l-6.3,6.6
		C359.9,1525.1,359.2,1525.1,358.7,1524.6C358.7,1524.7,358.7,1524.7,358.7,1524.6L358.7,1524.6z M358,1515.5c0-0.8,0.7-1.5,1.5-1.5
		c0.8,0,1.5,0.7,1.5,1.5c0,0.8-0.7,1.5-1.5,1.5C358.7,1517,358,1516.3,358,1515.5C358,1515.5,358,1515.5,358,1515.5z M358,1510.5
		c0-0.8,0.7-1.5,1.5-1.5c0.8,0,1.5,0.7,1.5,1.5c0,0.8-0.7,1.5-1.5,1.5C358.7,1512,358,1511.3,358,1510.5
		C358,1510.5,358,1510.5,358,1510.5z M358,1505.5c0-0.8,0.7-1.5,1.5-1.5c0.8,0,1.5,0.7,1.5,1.5c0,0.8-0.7,1.5-1.5,1.5
		C358.7,1507,358,1506.3,358,1505.5C358,1505.5,358,1505.5,358,1505.5z"/>
</g>
</svg>
