<svg xmlns="http://www.w3.org/2000/svg" fill-rule="evenodd" stroke-linejoin="round" stroke-miterlimit="2" clip-rule="evenodd" viewBox="0 0 15 21">
  <path fill="currentColor" fill-rule="nonzero" d="M9.005 1.495c0 .797-.702 1.494-1.505 1.494-.803 0-1.505-.697-1.505-1.494S6.697 0 7.5 0c.803 0 1.505.698 1.505 1.495zm0 4.982c0 .797-.702 1.495-1.505 1.495-.803 0-1.505-.698-1.505-1.495 0-.797.702-1.495 1.505-1.495.803 0 1.505.698 1.505 1.495zm0 4.982c0 .797-.702 1.495-1.505 1.495-.803 0-1.505-.698-1.505-1.495 0-.797.702-1.495 1.505-1.495.803 0 1.505.698 1.505 1.495zm-7.023.897l5.518 5.68 5.518-5.68c.402-.498 1.204-.498 1.606 0 .501.498.501 1.196 0 1.694l-6.321 6.576c-.402.499-1.204.499-1.606 0L.376 14.05c-.501-.498-.501-1.196 0-1.694.402-.498 1.104-.498 1.606 0 0-.1 0 0 0 0z"/>
</svg>
