<svg xmlns="http://www.w3.org/2000/svg" viewBox="0 0 23 21"><path d="M1.6 13.1v-.4c-1.3-.8-1.8-2.5-1-3.8C1.1 8.1 2 7.6 3 7.6c.6 0 1.1.2 1.6.5 1.8-1.2 4-1.8 6.1-1.9l1.6-3.8c.1-.3.5-.4.8-.4L17 3c.4-.6 1-1 1.7-1 1.1 0 2.1.9 2.1 2s-.9 2.1-2 2.1-2-.8-2.1-1.9l-3.3-.8-1.1 2.7c2 .1 4 .8 5.7 1.9.5-.4 1.1-.6 1.6-.6 1.5 0 2.8 1.3 2.7 2.8 0 1-.6 1.9-1.5 2.4v.3c0 3.8-4.3 6.9-9.6 6.9s-9.6-2.9-9.6-6.7zM7.9 16c-.2.3-.2.7.2 1 1.9 1.4 4.4 1.4 6.3 0a.78.78 0 00.2-1c-.2-.3-.6-.4-.9-.2a4.06 4.06 0 01-4.7 0c-.1-.1-.3-.1-.4-.1-.4 0-.6.2-.7.3zm5.3-3.6c0 .8.6 1.4 1.4 1.4s1.4-.6 1.4-1.4c0-.7-.6-1.4-1.4-1.4s-1.4.6-1.4 1.4zm-6.8 0c0 .8.6 1.4 1.4 1.4s1.4-.6 1.4-1.4c0-.7-.6-1.4-1.4-1.4s-1.4.6-1.4 1.4zM18 4.1a.68.68 0 00.7.7.68.68 0 00.7-.7.68.68 0 00-.7-.7.68.68 0 00-.7.7z"/></svg>