<svg xmlns="http://www.w3.org/2000/svg" width="17" height="17"><path data-name="link копия" d="M15.826 1.167a.543.543 0 00-.4-.168H10.91a.563.563 0 00-.4.964l1.553 1.556L7.592 8a.278.278 0 000 .406l1.006 1.008a.277.277 0 00.406 0l4.475-4.481 1.553 1.556a.565.565 0 00.962-.4V1.562a.544.544 0 00-.168-.395z" fill="#007dff"/><path data-name="Прямоугольник, скругл. углы 967" d="M16 9.571v1.071A5.357 5.357 0 0110.643 16H6.357A5.357 5.357 0 011 10.643V6.357A5.357 5.357 0 016.357 1h1.071" fill="none" stroke="#007dff" stroke-linecap="round" stroke-width="2"/></svg>