<svg xmlns="http://www.w3.org/2000/svg" fill-rule="evenodd" stroke-linejoin="round" stroke-miterlimit="2" clip-rule="evenodd" viewBox="0 0 17 17">
  <g fill="currentColor">
    <path fill-rule="nonzero" d="M15.8 1.2c-.1-.1-.2-.2-.4-.2h-4.5c-.3 0-.6.2-.6.6 0 .2.1.3.2.4l1.6 1.6-4.5 4.5c-.1.1-.1.3 0 .4l1 1c.1.1.3.1.4 0L13.5 5l1.6 1.6c.2.2.6.2.8 0 .1-.1.2-.2.2-.4V1.7c-.1-.3-.2-.4-.3-.5z"/>
    <path d="M15 9.6v1.1c0 2.444-1.956 4.4-4.4 4.4H6.3a4.382 4.382 0 01-4.4-4.4V6.4C1.9 3.956 3.856 2 6.3 2h1.1a1 1 0 000-2H6.3A6.373 6.373 0 00-.1 6.4v4.3c0 3.556 2.844 6.4 6.4 6.4h4.3c3.556 0 6.4-2.844 6.4-6.4V9.6a1 1 0 00-2 0z"/>
  </g>
</svg>
