<svg xmlns="http://www.w3.org/2000/svg" width="17" height="17" viewBox="0 0 17 17">
  <g id="Website" transform="translate(-715 -651)">
    <g id="link">
      <path id="link_копия" data-name="link копия" d="M873.826,652.167a.543.543,0,0,0-.4-.168H868.91a.563.563,0,0,0-.4.964l1.553,1.556L865.592,659a.278.278,0,0,0,0,.406l1.006,1.008a.277.277,0,0,0,.406,0l4.475-4.481,1.553,1.556a.565.565,0,0,0,.962-.4v-4.527A.544.544,0,0,0,873.826,652.167Z" transform="translate(-143)" fill="#007dff"/>
      <path id="Прямоугольник_скругл._углы_967" data-name="Прямоугольник, скругл. углы 967" d="M874,660.571v1.071A5.357,5.357,0,0,1,868.643,667h-4.286A5.357,5.357,0,0,1,859,661.643v-4.286A5.357,5.357,0,0,1,864.357,652h1.071" transform="translate(-143)" fill="none" stroke="#007dff" stroke-linecap="round" stroke-width="2"/>
    </g>
  </g>
</svg>
