<svg xmlns="http://www.w3.org/2000/svg" width="784" height="175" viewBox="0 0 784 175">
  <g id="images" transform="translate(-279 -513)">
    <path id="Прямоугольник_21" data-name="Прямоугольник 21" d="M1049,688v-7h-38v7h-2v-7H997v-2h12v-6h2v6h38V641h-12v-2h12v-6h2v6h7v2h-7v38h12v2h-12v7Zm-200,0v-7H811v7h-2v-7H771v7h-2v-7H731v7h-2v-7H691v7h-2v-7h-5v-2h5v-8h2v8h38V641h-5v-2h5v-6h2v6h8v2h-8v38h38V661h2v18h38V651h2v28h38v-8h2v8h10v2H851v7Zm-320,0v-7H491v7h-2v-7H451v7h-2v-7H411v7h-2v-7h-6v-2h6V667h2v12h38V641H439v-2h10v-7h2v7h17v2H451v38h38V652h2v27h38v-4h2v4h7v2h-7v7Zm-200,0v-7H291v7h-2v-7H279v-2h10V667h2v12h38V649h2v30h18v2H331v7Zm652-3v-4h-4v-2h4v-4h2v4h4v2h-4v4Zm-429,0v-4h-4v-2h4v-4h2v4h4v2h-4v4Zm137-24v-4h-4v-2h4v-4h2v4h4v2h-4v4Zm-400-4v-4h-4v-2h4v-4h2v4h4v2h-4v4Zm520-16v-4h-4v-2h4v-4h2v4h4v2h-4v4Zm240-18v-4h-4v-2h4v-4h2v4h4v2h-4v4ZM809,572V561H799v-2h10V521H771v11h-2V521H758v-2h11v-6h2v6h38v-6h2v6h38v-6h2v6h8v2h-8v21h-2V521H811v38h16v2H811v11Zm-320,0V561H475v-2h14V521H451v11h-2V521H431v-2h18v-6h2v6h38v-6h2v6h11v2H491v38h9v2h-9v11Zm200-33V521H671v-2h18v-6h2v6h16v2H691v18Zm185-14v-4h-4v-2h4v-4h2v4h4v2h-4v4Zm-459,0v-4h-4v-2h4v-4h2v4h4v2h-4v4Z" fill="#dbdee5"/>
    <g id="Группа_5" data-name="Группа 5">
      <path id="Эллипс_2047" data-name="Эллипс 2047" d="M428.888,600.951a52.491,52.491,0,1,1-.1-8.148" fill="none" stroke="#dbdee5" stroke-width="2"/>
      <line id="Фигура_1011" data-name="Фигура 1011" x2="89" transform="translate(432 596)" fill="none" stroke="#dbdee5" stroke-width="2"/>
      <path id="Эллипс_2047_копия_2" data-name="Эллипс 2047 копия 2" d="M628.89,600.933A52.51,52.51,0,0,1,527.05,615.177m-2.734-23.4C526.737,565.034,549.121,545,576.5,545a52.523,52.523,0,0,1,50.7,38.823" fill="none" stroke="#dbdee5" stroke-linecap="round" stroke-width="2"/>
      <g id="Эллипс_2048" data-name="Эллипс 2048" transform="translate(624 591)" fill="none" stroke="#dbdee5" stroke-width="2">
        <circle cx="5" cy="5" r="5" stroke="none"/>
        <circle cx="5" cy="5" r="4" fill="none"/>
      </g>
      <g id="Эллипс_2048_копия" data-name="Эллипс 2048 копия" transform="translate(519 591)" fill="none" stroke="#dbdee5" stroke-width="2">
        <circle cx="5" cy="5" r="5" stroke="none"/>
        <circle cx="5" cy="5" r="4" fill="none"/>
      </g>
      <g id="Эллипс_2048_копия_2" data-name="Эллипс 2048 копия 2" transform="translate(424 591)" fill="none" stroke="#dbdee5" stroke-width="2">
        <circle cx="5" cy="5" r="5" stroke="none"/>
        <circle cx="5" cy="5" r="4" fill="none"/>
      </g>
      <g id="Эллипс_2048_копия_3" data-name="Эллипс 2048 копия 3" transform="translate(834 591)" fill="none" stroke="#dbdee5" stroke-width="2">
        <circle cx="5" cy="5" r="5" stroke="none"/>
        <circle cx="5" cy="5" r="4" fill="none"/>
      </g>
      <path id="Прямоугольник_скругл._углы_972" data-name="Прямоугольник, скругл. углы 972" d="M839.146,591.915C841.579,565.178,864.129,545,891.5,545h73a52.5,52.5,0,0,1,0,105h-73c-27.669,0-50.646-22.1-52.663-49.251" fill="none" stroke="#dbdee5" stroke-linecap="round" stroke-width="2"/>
      <line id="Фигура_1012" data-name="Фигура 1012" x2="17" transform="translate(633 596)" fill="none" stroke="#dbdee5" stroke-width="2"/>
      <line id="Фигура_1012_копия" data-name="Фигура 1012 копия" x2="23" transform="translate(713 596)" fill="none" stroke="#dbdee5" stroke-width="2"/>
      <line id="Фигура_1012_копия_2" data-name="Фигура 1012 копия 2" x2="38" transform="translate(798 596)" fill="none" stroke="#dbdee5" stroke-width="2"/>
    </g>
    <path id="Эллипс_2049" data-name="Эллипс 2049" d="M638.327,606.7a62.517,62.517,0,0,1-120.8,11.557m-2.242-33.447a62.52,62.52,0,0,1,120.47-7.231" fill="none" stroke="#de5846" stroke-linecap="round" stroke-width="2"/>
    <g id="Группа_4" data-name="Группа 4">
      <path id="Фигура_1010" data-name="Фигура 1010" d="M357,621s15.47-10.966,17-12,6.467-3.2,9.2-1.172,15.064,12.434,15.064,12.434S392.142,629,377,629,357,621,357,621Zm-12-24c0-12.337,9.225-31,31-31,0,.5-.96,21.593-.96,24.514s-.28,6.241-2.128,7.807S351,615,351,615,345,609.338,345,597Z" fill="#de5846"/>
      <g id="Эллипс_2047_копия" data-name="Эллипс 2047 копия" transform="translate(344 565)" fill="none" stroke="#212225" stroke-width="2">
        <circle cx="32.5" cy="32.5" r="32.5" stroke="none"/>
        <circle cx="32.5" cy="32.5" r="31.5" fill="none"/>
      </g>
      <path id="Фигура_1007" data-name="Фигура 1007" d="M350,615s17.041-12.613,19-14,6-4.6,6-9V566" fill="none" stroke="#212225" stroke-width="2"/>
      <path id="Фигура_1008" data-name="Фигура 1008" d="M356,621s15.94-11.4,18-13,7.1-2.131,11,1,13,11,13,11" fill="none" stroke="#212225" stroke-width="2"/>
    </g>
    <g id="icon">
      <g id="Эллипс_542_копия_3" data-name="Эллипс 542 копия 3" transform="translate(544 565)" fill="none" stroke="#212225" stroke-width="2">
        <circle cx="32.5" cy="32.5" r="32.5" stroke="none"/>
        <circle cx="32.5" cy="32.5" r="31.5" fill="none"/>
      </g>
      <g id="icon-2" data-name="icon">
        <g id="Эллипс_2046" data-name="Эллипс 2046" transform="translate(572 587)" fill="none" stroke="#212225" stroke-width="2">
          <circle cx="4.5" cy="4.5" r="4.5" stroke="none"/>
          <circle cx="4.5" cy="4.5" r="3.5" fill="none"/>
        </g>
        <path id="Фигура_1006" data-name="Фигура 1006" d="M590,600s-7.118,6.132-7.91,6.681a1.59,1.59,0,0,1-1.955,0c-.228-.323-.751-1.019-.978-1.333-.2-.274-.773-.459-1.466,0S574,608,574,608" fill="none" stroke="#212225" stroke-width="2"/>
        <path id="Forma_1" data-name="Forma 1" d="M567.546,606.93a.945.945,0,0,1-.481-1.2l.427-1.119c1.085-2.837,3.031-6.608,7.371-6.608h3.271a6.236,6.236,0,0,1,4.246,1.585c.666.543-.646,1.7-1.331,1.232a4.549,4.549,0,0,0-2.915-.967h-3.271c-2.57,0-4.292,1.631-5.755,5.453l-.427,1.119a.873.873,0,0,1-.808.577A.827.827,0,0,1,567.546,606.93Zm23.844-2.885-.982-.017a.482.482,0,0,1-.482-.506l.034-1.426a.266.266,0,0,0-.452-.185l-2.97,1.9c-.215.209-.589-.235-.375-.444l2.006-2.935a.277.277,0,0,0-.167-.464l-1.408-.018a.481.481,0,0,1-.482-.5l.019-.994a.46.46,0,0,1,.147-.353.425.425,0,0,1,.318-.1l4.913.077a.538.538,0,0,1,.347.148.458.458,0,0,1,.134.357l-.1,4.973a.459.459,0,0,1-.147.352.449.449,0,0,1-.343.137Z" fill="#212225"/>
      </g>
    </g>
    <g id="icon-3" data-name="icon">
      <g id="Эллипс_542_копия_3-2" data-name="Эллипс 542 копия 3" transform="translate(649 565)" fill="none" stroke="#dbdee5" stroke-width="2">
        <circle cx="32.5" cy="32.5" r="32.5" stroke="none"/>
        <circle cx="32.5" cy="32.5" r="31.5" fill="none"/>
      </g>
      <g id="icon_копия" data-name="icon копия">
        <path id="Фигура_612_копия" data-name="Фигура 612 копия" d="M675.652,590.468s5.263-3.008,5.69-3.284a1.534,1.534,0,0,1,1.447,0c.4.208,8.2,4.534,8.684,4.839A1.192,1.192,0,0,1,692,593.07v9.536a2.032,2.032,0,0,1-.7,1.214s-8.351,4.929-8.522,5.029a1.83,1.83,0,0,1-1.173.083c-.261-.153-7.742-4.5-9.088-5.285a2.3,2.3,0,0,1-.522-1.171v-9.069a.61.61,0,0,1,.87-.511c1.788,1.018,7.441,4.21,8.839,5.006.187.107.2.341.2.717v5.375" fill="none" stroke="#dbdee5" stroke-linecap="round" stroke-width="2"/>
      </g>
    </g>
    <g id="icon-4" data-name="icon">
      <g id="Эллипс_542_копия_3-3" data-name="Эллипс 542 копия 3" transform="translate(734 565)" fill="none" stroke="#dbdee5" stroke-width="2">
        <circle cx="32.5" cy="32.5" r="32.5" stroke="none"/>
        <circle cx="32.5" cy="32.5" r="31.5" fill="none"/>
      </g>
      <g id="icon_копия_2" data-name="icon копия 2">
        <path id="_1_копия_3" data-name="1 копия 3" d="M765.259,596.662,763.966,599a.682.682,0,0,1-1.116,0l-1.671-2.341c-.93.409-1.65,1.362-2.293,2.983l-1.553,3.913a.684.684,0,0,1-.9.389.712.712,0,0,1-.38-.92l1.553-3.914c.7-1.761,1.954-4.1,4.774-4.1h2.06a2.82,2.82,0,0,1,1.548.437C765.8,595.832,765.259,596.662,765.259,596.662ZM763.506,593a3.5,3.5,0,1,0-3.492-3.5A3.5,3.5,0,0,0,763.506,593Zm0-5a1.5,1.5,0,1,1-1.5,1.5A1.5,1.5,0,0,1,763.5,588Z" fill="#dbdee5"/>
        <line id="Фигура_525" data-name="Фигура 525" x1="14.14" y2="24.49" transform="translate(762.09 585.55)" fill="none" stroke="#dbdee5" stroke-linecap="round" stroke-width="2"/>
        <g id="Эллипс_2046_копия_3" data-name="Эллипс 2046 копия 3" transform="translate(768 600)" fill="none" stroke="#dbdee5" stroke-width="2">
          <circle cx="3.5" cy="3.5" r="3.5" stroke="none"/>
          <circle cx="3.5" cy="3.5" r="2.5" fill="none"/>
        </g>
      </g>
    </g>
    <g id="Группа_4_копия" data-name="Группа 4 копия">
      <path id="Фигура_1010-2" data-name="Фигура 1010" d="M939,621s15.47-10.966,17-12,6.4-3.112,9.136-1.08,15.511,12.2,15.511,12.2S974.142,629,959,629,939,621,939,621Zm-12-24c0-12.337,9.224-31,31-31,0,.5-1.526,23.455-1.526,26.376,0,0,.153-.455.316-.91.185-.516.381-1.032.379-.883,0,2.641-.41,5.87-2.255,7.435S933,615,933,615,927,609.338,927,597Z" fill="#de5846"/>
      <g id="Эллипс_2047_копия-2" data-name="Эллипс 2047 копия" transform="translate(926 565)" fill="none" stroke="#212225" stroke-width="2">
        <circle cx="32.5" cy="32.5" r="32.5" stroke="none"/>
        <circle cx="32.5" cy="32.5" r="31.5" fill="none"/>
      </g>
      <path id="Фигура_1007-2" data-name="Фигура 1007" d="M932,615s17.041-12.613,19-14,6-4.6,6-9V566" fill="none" stroke="#212225" stroke-width="2"/>
      <path id="Фигура_1008-2" data-name="Фигура 1008" d="M938,621s15.94-11.4,18-13,7.1-2.131,11,1,13,11,13,11" fill="none" stroke="#212225" stroke-width="2"/>
    </g>
    <g id="icon_копия_3" data-name="icon копия 3">
      <path id="Эллипс_542_копия_3-4" data-name="Эллипс 542 копия 3" d="M923.695,616.741a32.5,32.5,0,1,1-.236-38.8" fill="none" stroke="#212225" stroke-width="2"/>
      <g id="icon-5" data-name="icon">
        <g id="Эллипс_2046-2" data-name="Эллипс 2046" transform="translate(893 587)" fill="none" stroke="#212225" stroke-width="2">
          <circle cx="4.5" cy="4.5" r="4.5" stroke="none"/>
          <circle cx="4.5" cy="4.5" r="3.5" fill="none"/>
        </g>
        <path id="Фигура_1006-2" data-name="Фигура 1006" d="M911,600s-7.118,6.132-7.91,6.681a1.59,1.59,0,0,1-1.955,0c-.227-.323-.751-1.019-.977-1.333-.2-.274-.773-.459-1.466,0S895,608,895,608" fill="none" stroke="#212225" stroke-width="2"/>
        <path id="Forma_1-2" data-name="Forma 1" d="M888.546,606.93a.943.943,0,0,1-.48-1.2l.427-1.119c1.085-2.837,3.03-6.608,7.371-6.608h3.271a6.232,6.232,0,0,1,4.245,1.585c.667.543-.646,1.7-1.33,1.232a4.552,4.552,0,0,0-2.915-.967h-3.271c-2.571,0-4.292,1.631-5.755,5.453l-.428,1.119a.872.872,0,0,1-.808.577A.829.829,0,0,1,888.546,606.93Zm23.844-2.885-.981-.017a.482.482,0,0,1-.482-.506l.033-1.426a.265.265,0,0,0-.451-.185l-2.971,1.9c-.214.209-.589-.235-.374-.444l2.006-2.935a.277.277,0,0,0-.167-.464l-1.409-.018a.48.48,0,0,1-.481-.5l.019-.994a.46.46,0,0,1,.147-.353.422.422,0,0,1,.318-.1l4.912.077a.538.538,0,0,1,.348.148.457.457,0,0,1,.133.357l-.1,4.973a.46.46,0,0,1-.148.352.449.449,0,0,1-.343.137Z" fill="#212225"/>
      </g>
    </g>
  </g>
</svg>
