<?xml version="1.0" encoding="utf-8"?>
<!-- Generator: Adobe Illustrator 24.1.3, SVG Export Plug-In . SVG Version: 6.00 Build 0)  -->
<svg version="1.1" id="Слой_1" xmlns="http://www.w3.org/2000/svg" xmlns:xlink="http://www.w3.org/1999/xlink" x="0px" y="0px"
	 viewBox="0 0 16.7 14.9" style="enable-background:new 0 0 16.7 14.9;" xml:space="preserve">
<style type="text/css">
	.st0{fill:none;}
	.st1{fill:none;stroke:#DE5846;stroke-width:2;stroke-linecap:round;}
	.st2{fill:#DE5846;}
</style>
<rect class="st0" width="16.7" height="14.9"/>
<path id="Эллипс_542_копия_3" class="st1" d="M13.2,10.4c-0.6,1-1.4,1.9-2.4,2.6c-1,0.6-2.2,1-3.4,1C3.9,13.9,1,11,1,7.5
	C1,3.9,3.9,1,7.5,1c1.9,0,3.7,0.9,4.9,2.3c0.5,0.6,0.9,1.2,1.1,1.9"/>
<path id="Эллипс_1_копия_4" class="st2" d="M14.1,7.3l-3.9-1.2C9.7,5.9,9.4,5.4,9.5,4.8c0.2-0.5,0.7-0.8,1.2-0.7l2.9,0.9
	l0.9-2.9c0.2-0.5,0.7-0.8,1.2-0.7c0.5,0.2,0.8,0.7,0.7,1.2l-1.2,3.9C15.1,7.1,14.6,7.4,14.1,7.3C14.1,7.3,14.1,7.3,14.1,7.3
	L14.1,7.3z"/>
</svg>
