<?xml version="1.0" encoding="utf-8"?>
<!-- Generator: Adobe Illustrator 25.2.3, SVG Export Plug-In . SVG Version: 6.00 Build 0)  -->
<svg version="1.1" id="Слой_1" xmlns="http://www.w3.org/2000/svg" xmlns:xlink="http://www.w3.org/1999/xlink" x="0px" y="0px"
	 viewBox="0 0 20 20" style="enable-background:new 0 0 20 20;" xml:space="preserve">
<style type="text/css">
	.st0{fill:none;stroke-width:2.109;stroke-linecap:round;stroke-linejoin:round;}
</style>
<g id="Regular_143" transform="translate(11.971 12.437) rotate(90)">
	<path id="Shape_580" class="st0" stroke="currentColor" d="M2.6-5.6h-7.5c-3.6,0-6.3,2.8-6.3,6.3S-8.4,7-4.9,7h3h2.6v2.3c0,0.2,0.1,0.3,0.3,0.1l5.2-3.5
		c0,0,0,0,0.1-0.1c0.2-0.3,0.2-0.6-0.1-0.9L1,1.2c-0.2-0.1-0.3,0-0.3,0.2V4h-2.1"/>
	<path id="Shape_580_2_" class="st0" stroke="currentColor" d="M-8.3,0.8C-8.3,2.5-6.8,4-5,4h0.6"/>
</g>
</svg>
