<?xml version="1.0" encoding="utf-8"?>
<!-- Generator: Adobe Illustrator 22.0.1, SVG Export Plug-In . SVG Version: 6.00 Build 0)  -->
<svg version="1.1" id="Layer_1" xmlns="http://www.w3.org/2000/svg" xmlns:xlink="http://www.w3.org/1999/xlink" x="0px" y="0px"
	 viewBox="0 0 17 17" style="enable-background:new 0 0 17 17;" xml:space="preserve">
<style type="text/css">
	.st0{fill:currentColor;}
</style>
<g id="search" transform="translate(-1043 -451)">
	<path id="Прямоугольник_скругл._углы_966" class="st0" d="M1058.2,467.7l-2.4-2.4c-3.5,2.7-8.5,2-11.2-1.5
		c-2.7-3.5-2-8.5,1.5-11.2c3.5-2.7,8.5-2,11.2,1.5c2.2,2.9,2.2,6.9,0,9.8l2.4,2.4c0.4,0.4,0.4,1.1,0,1.5
		C1059.3,468.1,1058.6,468.1,1058.2,467.7L1058.2,467.7z M1045,459c0,3.3,2.7,6,6,6s6-2.7,6-6s-2.7-6-6-6
		C1047.7,453,1045,455.7,1045,459z"/>
</g>
</svg>
