<svg xmlns="http://www.w3.org/2000/svg" fill-rule="evenodd" stroke-linejoin="round" stroke-miterlimit="2" clip-rule="evenodd" viewBox="0 0 15 21">
  <path fill="currentColor" fill-rule="nonzero" d="M5.995 19.505c0-.797.702-1.494 1.505-1.494.803 0 1.505.697 1.505 1.494S8.303 21 7.5 21c-.803 0-1.505-.698-1.505-1.495zm0-4.982c0-.797.702-1.495 1.505-1.495.803 0 1.505.698 1.505 1.495 0 .797-.702 1.495-1.505 1.495-.803 0-1.505-.698-1.505-1.495zm0-4.982c0-.797.702-1.495 1.505-1.495.803 0 1.505.698 1.505 1.495 0 .797-.702 1.495-1.505 1.495-.803 0-1.505-.698-1.505-1.495zm7.023-.897L7.5 2.964l-5.518 5.68c-.402.498-1.204.498-1.606 0-.501-.498-.501-1.196 0-1.694L6.697.374c.402-.499 1.204-.499 1.606 0l6.321 6.576c.501.498.501 1.196 0 1.694-.402.498-1.104.498-1.606 0 0 .1 0 0 0 0z"/>
</svg>
