<?xml version="1.0" encoding="utf-8"?>
<!-- Generator: Adobe Illustrator 22.0.1, SVG Export Plug-In . SVG Version: 6.00 Build 0)  -->
<svg fill="currentColor" version="1.1" id="Layer_1" xmlns="http://www.w3.org/2000/svg" xmlns:xlink="http://www.w3.org/1999/xlink" x="0px" y="0px"
	 viewBox="0 0 40.7 47" style="enable-background:new 0 0 40.7 47;" xml:space="preserve">
<g id="Sent_Received_копия" transform="translate(-339 -1663)">
	<path id="Эллипс_1_копия_4" d="M357.8,1697c0-0.8,0.7-1.5,1.5-1.5s1.5,0.7,1.5,1.5s-0.7,1.5-1.5,1.5
		S357.8,1697.8,357.8,1697z M357.8,1692c0-0.8,0.7-1.5,1.5-1.5s1.5,0.7,1.5,1.5s-0.7,1.5-1.5,1.5S357.8,1692.8,357.8,1692z
		 M357.8,1687c0-0.8,0.7-1.5,1.5-1.5s1.5,0.7,1.5,1.5s-0.7,1.5-1.5,1.5S357.8,1687.8,357.8,1687z M364.8,1686.1l-5.5-5.7l-5.5,5.7
		c-0.4,0.5-1.2,0.5-1.6,0c0,0,0,0,0,0c-0.5-0.5-0.5-1.2,0-1.7l6.3-6.6c0.4-0.5,1.2-0.5,1.6,0c0,0,0,0,0,0l6.3,6.6
		c0.5,0.5,0.5,1.2,0,1.7C366,1686.6,365.3,1686.6,364.8,1686.1C364.8,1686.2,364.8,1686.1,364.8,1686.1L364.8,1686.1z"/>
</g>
</svg>
