<svg xmlns="http://www.w3.org/2000/svg" xmlns:xlink="http://www.w3.org/1999/xlink" viewBox="0 0 26 26" fill="currentColor"><defs><path id="slack_svg__a" d="M.2.4h25v25H.2z"/></defs><clipPath id="slack_svg__b"><use xlink:href="#slack_svg__a" overflow="visible"/></clipPath><g clip-path="url(#slack_svg__b)"><path d="M3 6.9h6.5c1.6 0 2.8 1.2 2.8 2.8 0 1.6-1.2 2.8-2.8 2.8H3C1.4 12.5.2 11.3.2 9.7.2 8.1 1.4 6.9 3 6.9z"/><path d="M3 7.8h6.5c1 0 1.9.8 1.9 1.9 0 1-.8 1.9-1.9 1.9H3c-1 0-1.9-.8-1.9-1.9 0-1.1.9-1.9 1.9-1.9zM9.3.4h.4c1.5 0 2.6 1.1 2.6 2.6v3H9.5C8 6 6.7 4.7 6.7 3.2V3C6.7 1.5 7.8.4 9.3.4z"/><path d="M9.3 1.3h.4c.9 0 1.7.7 1.7 1.7v1.1c0 .6-.4.9-.9.9h-1c-1 0-1.9-.8-1.9-1.9V3c0-.9.8-1.7 1.7-1.7zm6.6-.9c1.6 0 2.8 1.2 2.8 2.8v6.5c0 1.6-1.2 2.8-2.8 2.8-1.6 0-2.8-1.2-2.8-2.8V3.2c.1-1.6 1.3-2.8 2.8-2.8z"/><path d="M15.9 1.3c1 0 1.9.8 1.9 1.9v6.5c0 1-.8 1.9-1.9 1.9S14 10.8 14 9.7V3.2c.1-1 .9-1.9 1.9-1.9zm6.5 5.6h.2c1.5 0 2.6 1.1 2.6 2.6v.4c0 1.5-1.1 2.6-2.6 2.6h-3V9.7c0-1.5 1.3-2.8 2.8-2.8z"/><path d="M22.4 7.8h.2c.9 0 1.7.7 1.7 1.7v.4c0 .9-.7 1.7-1.7 1.7h-1.1c-.6 0-.9-.4-.9-.9v-1c0-1.1.8-1.9 1.8-1.9zm-6.5 5.6h6.5c1.6 0 2.8 1.2 2.8 2.8 0 1.6-1.2 2.8-2.8 2.8h-6.5c-1.6 0-2.8-1.2-2.8-2.8.1-1.6 1.3-2.8 2.8-2.8z"/><path d="M15.9 14.3h6.5c1 0 1.9.8 1.9 1.9s-.9 1.8-1.9 1.8h-6.5c-1 0-1.9-.8-1.9-1.9s.9-1.8 1.9-1.8zm-2.7 5.5H16c1.6 0 2.8 1.3 2.8 2.8v.2c0 1.5-1.1 2.6-2.6 2.6h-.4c-1.5 0-2.6-1.1-2.6-2.6v-3z"/><path d="M15 20.8h.9c1 0 1.9.8 1.9 1.9v.2c0 .9-.7 1.7-1.7 1.7h-.4c-.9 0-1.7-.7-1.7-1.7v-1.1c.1-.7.5-1 1-1zm-5.5-7.4c1.6 0 2.8 1.2 2.8 2.8v6.5c0 1.6-1.2 2.8-2.8 2.8-1.6 0-2.8-1.2-2.8-2.8v-6.5c0-1.6 1.2-2.8 2.8-2.8z"/><path d="M9.5 14.3c1 0 1.9.8 1.9 1.9v6.5c0 1-.8 1.9-1.9 1.9-1 0-1.9-.8-1.9-1.9v-6.5c0-1.1.8-1.9 1.9-1.9zm-6.7-.9h3v2.8C5.8 17.8 4.5 19 3 19h-.2C1.3 19 .2 17.9.2 16.4V16c0-1.5 1.1-2.6 2.6-2.6z"/><path d="M2.8 14.3h1.1c.6 0 .9.4.9.9v.9C4.8 17.2 4 18 3 18h-.2c-.9 0-1.7-.7-1.7-1.7V16c0-1 .8-1.7 1.7-1.7z"/></g></svg>