<?xml version="1.0" encoding="utf-8"?>
<!-- Generator: Adobe Illustrator 22.0.1, SVG Export Plug-In . SVG Version: 6.00 Build 0)  -->
<svg version="1.1" id="Layer_1" xmlns="http://www.w3.org/2000/svg" xmlns:xlink="http://www.w3.org/1999/xlink" x="0px" y="0px"
	 viewBox="0 0 18 22" style="enable-background:new 0 0 18 22;" xml:space="preserve">
<style type="text/css">
	.st0{fill:#212225;}
</style>
<path id="smartbridge" class="st0" fill="currentColor" d="M5,22c-1.6,0-3-1.3-3-2.9V14h2v5c0,0.5,0.4,1,1,1l4,0v-6c0-0.6,0.4-1,1-1h6l0-8.1
	C16,4.4,15.5,4,15,4l-5,0V2h5c1.6,0,3,1.3,3,2.9V14c0,0.5-0.2,0.9-0.5,1.2l-6.3,6.2c-0.3,0.3-0.8,0.5-1.3,0.5L5,22z M0,12V4h1V3
	c0-2.2,0.8-3,3-3s3,0.8,3,3v1h1v8H0z M2,10h4V6H2V10z M3,3v1h2V3c0-1.1,0.1-1-1-1C3.8,2,3.7,2,3.6,2C2.9,2,3,2.1,3,3z"/>
</svg>
