<?xml version="1.0" encoding="utf-8"?>
<!-- Generator: Adobe Illustrator 22.0.1, SVG Export Plug-In . SVG Version: 6.00 Build 0)  -->
<svg fill="currentColor" version="1.1" id="Layer_1" xmlns="http://www.w3.org/2000/svg" xmlns:xlink="http://www.w3.org/1999/xlink" x="0px" y="0px"
	 viewBox="0 0 15 12" style="enable-background:new 0 0 15 12;" xml:space="preserve">
<path fill="currentColor" id="Прямоугольник_скругл._углы_972_копия_3" d="M4.6,11.8L0.1,7.3
	C0,7.1-0.1,6.8,0.1,6.6c0,0,0,0,0,0l0.7-0.7c0.2-0.2,0.5-0.2,0.7,0c0,0,0,0,0,0l2,2C3.7,8,3.8,8,3.9,7.9C4,7.8,4,7.8,4,7.7V0.5
	C4,0.2,4.2,0,4.4,0c0,0,0,0,0.1,0h1C5.8,0,6,0.2,6,0.4c0,0,0,0,0,0.1V11l-0.6,0.8C5.3,11.9,5.1,12,5,12C4.9,12,4.7,11.9,4.6,11.8z
	 M9,11c-0.6,0-1-0.4-1-1s0.4-1,1-1h5c0.6,0,1,0.4,1,1s-0.4,1-1,1H9z M9,7C8.4,7,8,6.5,8,6s0.4-1,1-1h3c0.6,0,1,0.4,1,1s-0.4,1-1,1H9
	z M9,3C8.4,3,8,2.5,8,2s0.4-1,1-1h1c0.6,0,1,0.4,1,1s-0.4,1-1,1H9z"/>
</svg>
