<svg version="1.1" id="Layer_1" xmlns="http://www.w3.org/2000/svg" x="0" y="0" viewBox="0 0 12 12.004" xml:space="preserve"><path id="star_копия_4" fill="currentColor" d="M11.476 4.24L8.17 3.935a.57.57 0 01-.473-.34L6.513.805a.573.573 0 00-1.051 0l-1.175 2.79a.554.554 0 01-.473.34L.509 4.24a.554.554 0 00-.322.966L2.679 7.33a.54.54 0 01.18.543l-.748 2.982a.568.568 0 00.843.608l2.757-1.57a.585.585 0 01.578 0l2.756 1.57a.566.566 0 00.843-.608l-.739-2.982a.54.54 0 01.18-.543l2.493-2.124a.558.558 0 00-.346-.966z"/></svg>