<svg fill="currentColor" xmlns="http://www.w3.org/2000/svg" viewBox="0 0 20 19"><path d="M15.502 17.908l-4.5-2.6c-.3-.2-.6-.3-1-.3s-.7.1-1 .3l-4.5 2.6 1.2-5c.2-.7-.1-1.4-.6-1.9l-4.1-3.6 5.4-.5c.7-.1 1.4-.5 1.6-1.2l1.9-4.7 1.9 4.7c.3.7.9 1.1 1.6 1.2l5.4.5-4.1 3.6c-.5.5-.8 1.2-.6 1.9l1.4 5z"/><path d="M10.002 3.708l-1 2.4c-.4 1-1.4 1.7-2.5 1.8l-3.1.3 2.3 2c.8.7 1.2 1.8.9 2.9l-.7 2.7 2.5-1.4c.5-.3 1-.4 1.5-.4s1 .1 1.5.4l2.5 1.4-.7-2.7c-.2-1.1.1-2.2.9-2.9l2.3-2-3.1-.3c-1.1-.1-2-.8-2.4-1.8l-.9-2.4m0-3.7c.4 0 .7.2.9.6l2 4.8c.1.3.4.6.8.6l5.5.5c.8.1 1.2 1.1.6 1.7l-4.2 3.6c-.3.2-.4.6-.3.9l1.2 5.1c.1.6-.3 1.2-.9 1.2-.2 0-.3 0-.5-.1l-4.6-2.7c-.1-.1-.3-.1-.5-.1s-.3 0-.5.1l-4.6 2.7c-.2.1-.3.1-.5.1-.6 0-1.1-.5-.9-1.2l1.2-5.1c.1-.3 0-.7-.3-.9l-4.2-3.6c-.6-.6-.3-1.6.5-1.7l5.5-.5c.3 0 .7-.3.8-.6l2-4.8c.3-.4.6-.6 1-.6z"/></svg>