<?xml version="1.0" encoding="utf-8"?>
<!-- Generator: Adobe Illustrator 22.0.1, SVG Export Plug-In . SVG Version: 6.00 Build 0)  -->
<svg fill="currentColor" version="1.1" id="Layer_1" xmlns="http://www.w3.org/2000/svg" xmlns:xlink="http://www.w3.org/1999/xlink" x="0px" y="0px"
	 viewBox="0 0 20 19" style="enable-background:new 0 0 20 19;" xml:space="preserve">
<g id="star_копия_5" transform="translate(-698.998 -790.992)">
	<path d="M714.5,808.9l-4.5-2.6c-0.3-0.2-0.6-0.3-1-0.3s-0.7,0.1-1,0.3l-4.5,2.6l1.2-5l0,0l0,0c0.2-0.7-0.1-1.4-0.6-1.9
		l-4.1-3.6l5.4-0.5c0.7-0.1,1.4-0.5,1.6-1.2l1.9-4.7l1.9,4.7l0,0l0,0c0.3,0.7,0.9,1.1,1.6,1.2l5.4,0.5l-4.1,3.6
		c-0.5,0.5-0.8,1.2-0.6,1.9l0,0l0,0L714.5,808.9z"/>
	<path d="M709,794.7l-1,2.4c-0.4,1-1.4,1.7-2.5,1.8l-3.1,0.3l2.3,2c0.8,0.7,1.2,1.8,0.9,2.9c0,0,0,0,0,0l-0.7,2.7
		l2.5-1.4c0,0,0,0,0,0c0.5-0.3,1-0.4,1.5-0.4s1,0.1,1.5,0.4c0,0,0,0,0,0l2.5,1.4l-0.7-2.7c0,0,0,0,0,0c-0.2-1.1,0.1-2.2,0.9-2.9
		l2.3-2l-3.1-0.3c-1.1-0.1-2-0.8-2.4-1.8c0,0,0,0,0,0L709,794.7 M709,791c0.4,0,0.7,0.2,0.9,0.6l2,4.8c0.1,0.3,0.4,0.6,0.8,0.6
		l5.5,0.5c0.8,0.1,1.2,1.1,0.6,1.7l-4.2,3.6c-0.3,0.2-0.4,0.6-0.3,0.9l1.2,5.1c0.1,0.6-0.3,1.2-0.9,1.2c-0.2,0-0.3,0-0.5-0.1
		l-4.6-2.7c-0.1-0.1-0.3-0.1-0.5-0.1s-0.3,0-0.5,0.1l-4.6,2.7c-0.2,0.1-0.3,0.1-0.5,0.1c-0.6,0-1.1-0.5-0.9-1.2l1.2-5.1
		c0.1-0.3,0-0.7-0.3-0.9l-4.2-3.6c-0.6-0.6-0.3-1.6,0.5-1.7l5.5-0.5c0.3,0,0.7-0.3,0.8-0.6l2-4.8C708.3,791.2,708.6,791,709,791z"/>
</g>
</svg>
