<svg xmlns="http://www.w3.org/2000/svg" viewBox="0 0 36.041 21.037"><path fill="currentColor" d="M17.219 13.536l4.177-3.672c.382-.361.6-.85.613-1.374s-.178-1.024-.541-1.405a1.97 1.97 0 00-1.207-.598l-5.484-.492-1.97-4.774a1.932 1.932 0 00-1.04-1.063A1.935 1.935 0 0010.28.142a1.953 1.953 0 00-1.076 1.073l-1.915 4.75-5.517.521A1.954 1.954 0 00.676 9.89l4.14 3.59-1.25 5.125c-.118.507-.031 1.03.245 1.473s.707.751 1.213.87c.479.11.981.038 1.423-.213l4.542-2.7 4.597 2.702a1.937 1.937 0 001.478.2 1.935 1.935 0 001.187-.905 1.94 1.94 0 00.21-1.435l-1.242-5.06zm-1.933.414l1.31 5.06-4.593-2.7a1.952 1.952 0 00-1.977 0l-4.514 2.757 1.248-5.12a1.936 1.936 0 00-.613-1.913l-4.18-3.557 5.498-.52a1.915 1.915 0 001.631-1.202l1.86-4.78 1.972 4.782a1.95 1.95 0 001.62 1.199l5.409.511-4.052 3.561a1.935 1.935 0 00-.619 1.922z"/><path fill="currentColor" d="M36.014 8.486a1.966 1.966 0 00-1.772-2.002l-5.468-.491-1.97-4.773C26.61.738 26.24.36 25.763.156S24.757-.053 24.277.14c-.49.196-.884.59-1.079 1.073L22.033 4.06l1.852.757 1.066-2.843 1.974 4.78a1.942 1.942 0 001.619 1.2l5.51.431-4.144 3.641a1.94 1.94 0 00-.619 1.922l1.31 5.06-4.591-2.7a1.95 1.95 0 00-1.979 0l-2.887 1.7 1.015 1.723 2.836-1.699 4.597 2.702a1.938 1.938 0 001.478.2 1.948 1.948 0 001.397-2.34l-1.242-5.06 4.18-3.674c.38-.361.596-.85.609-1.374z"/></svg>