<svg xmlns="http://www.w3.org/2000/svg" viewBox="0 0 14 15"><path d="M7 15c-3.8 0-7-3.1-7-6.9 0-1.5.5-3 1.4-4.2.9-1.2 2.2-2 3.6-2.4.1-.1.2-.2.2-.3V.6c0-.3.2-.6.5-.6h2.4c.3 0 .6.2.6.5v.7c0 .1.1.3.2.3.7.2 1.3.5 1.9.9h.2c.1 0 .1 0 .2-.1l.3-.3c.2-.2.6-.2.8 0l.8.8c.2.2.2.6 0 .8l-.3.3c-.1.1-.1.2-.1.3.8 1.1 1.2 2.4 1.2 3.8 0 1.9-.8 3.6-2.1 4.9-1.2 1.4-3 2.1-4.8 2.1zM7 3C4.2 3 2 5.2 2 8s2.2 5 5 5 5-2.2 5-5-2.2-5-5-5zm.5 6h-1c-.3 0-.5-.3-.5-.6V5.7c0-.4.2-.6.5-.6h1c.3 0 .5.3.5.6v2.7c0 .3-.2.6-.5.6z" fill="currentColor"/></svg>