<?xml version="1.0" encoding="utf-8"?>
<!-- Generator: Adobe Illustrator 22.0.1, SVG Export Plug-In . SVG Version: 6.00 Build 0)  -->
<svg version="1.1" id="Layer_1" xmlns="http://www.w3.org/2000/svg" xmlns:xlink="http://www.w3.org/1999/xlink" x="0px" y="0px"
	 viewBox="0 0 14 15" style="enable-background:new 0 0 14 15;" xml:space="preserve">
<style type="text/css">
	.st0{fill:currentColor;}
</style>
<g id="Status" transform="translate(-1107 -1426)">
	<path id="icon" class="st0" d="M1114,1441c-3.8,0-7-3.1-7-6.9c0-1.5,0.5-3,1.4-4.2c0.9-1.2,2.2-2,3.6-2.4c0.1-0.1,0.2-0.2,0.2-0.3
		v-0.6c0-0.3,0.2-0.6,0.5-0.6c0,0,0,0,0.1,0h2.3c0.3,0,0.6,0.2,0.6,0.5c0,0,0,0,0,0.1v0.6c0,0.1,0.1,0.3,0.2,0.3
		c0.7,0.2,1.3,0.5,1.9,0.9c0.1,0,0.1,0,0.2,0c0.1,0,0.1,0,0.2-0.1l0.3-0.3c0.2-0.2,0.6-0.2,0.8,0c0,0,0,0,0,0l0.8,0.8
		c0.2,0.2,0.2,0.6,0,0.8c0,0,0,0,0,0l-0.3,0.3c-0.1,0.1-0.1,0.2-0.1,0.3c0.8,1.1,1.2,2.4,1.2,3.8c0,1.9-0.8,3.6-2.1,4.9
		C1117.6,1440.3,1115.8,1441,1114,1441z M1114,1429c-2.8,0-5,2.2-5,5s2.2,5,5,5s5-2.2,5-5c0,0,0,0,0,0
		C1119,1431.2,1116.8,1429,1114,1429L1114,1429z M1114.5,1435h-1c-0.3,0-0.5-0.3-0.5-0.6v-2.7c0-0.4,0.2-0.6,0.5-0.6h1
		c0.3,0,0.5,0.3,0.5,0.6v2.7C1115,1434.7,1114.8,1435,1114.5,1435L1114.5,1435z"/>
</g>
</svg>
