<?xml version="1.0" encoding="utf-8"?>
<!-- Generator: Adobe Illustrator 24.0.1, SVG Export Plug-In . SVG Version: 6.00 Build 0)  -->
<svg version="1.1" id="timelock" xmlns="http://www.w3.org/2000/svg" xmlns:xlink="http://www.w3.org/1999/xlink" x="0px" y="0px"
	 viewBox="0 0 20 20" enable-background="new 0 0 20 20" xml:space="preserve">
<g>
	<path fill="none" stroke="currentColor" stroke-width="2" stroke-linecap="round" stroke-linejoin="round" d="M17.39359,9.26081
		c0.3012-2.20885-0.50202-4.31744-2.00809-5.92377C12.57418,0.32491,7.85516,0.22441,4.84302,3.03578
		s-3.11251,7.53034-0.3012,10.54247c1.00405,1.00404,2.20891,1.80733,3.61454,2.10859"/>
	<path fill="none" stroke="currentColor" stroke-width="2" stroke-linecap="round" stroke-linejoin="round" d="M9.26079,5.14413v3.91568
		l1.40569,1.00405"/>
	<g>
		<path fill="none" stroke="currentColor" stroke-width="2" stroke-linecap="round" stroke-linejoin="round" d="M11.36932,14.98382
			c0-0.60252,0.50202-1.00404,1.00405-1.00404h4.11656c0.6024,0,1.00404,0.50202,1.00404,1.00404v3.01213
			c0,0.60253-0.50202,1.00405-1.00404,1.00405h-4.11656c-0.6024,0-1.00405-0.50202-1.00405-1.00405V14.98382z"/>
		<path fill="none" stroke="currentColor" stroke-width="2" stroke-linecap="round" stroke-linejoin="round" d="M14.38145,10.96764
			L14.38145,10.96764c-1.10442,0-2.00809,0.90354-2.00809,2.00809l0,0v1.00405h4.11656v-1.00405
			C16.38954,11.97169,15.48588,10.96764,14.38145,10.96764L14.38145,10.96764z"/>
	</g>
</g>
</svg>
