<svg version="1.1" id="Слой_1" xmlns="http://www.w3.org/2000/svg" x="0" y="0" viewBox="0 0 23.7 24.2" xml:space="preserve"><g id="Interface-Essential_Time_time-clock-circle" transform="translate(-447.755 -2355.75)"><g id="Group_216" fill="none" stroke="currentColor" stroke-width="1.5" stroke-linecap="round" stroke-linejoin="round"><g id="time-clock-circle"><path id="Oval_136" d="M469.5 2367c0-5.8-4.7-10.5-10.5-10.5s-10.5 4.7-10.5 10.5 4.7 10.5 10.5 10.5"/><path id="Shape_943" d="M459 2367v-3.8"/><path id="Shape_944" d="M459 2367l2.3 2.3"/></g><path id="Rectangle-path_88" d="M463.7 2374.5c0-.6.5-1.2 1.2-1.2h4.7c.6 0 1.2.5 1.2 1.2v3.5c0 .6-.5 1.2-1.2 1.2h-4.7c-.6 0-1.2-.5-1.2-1.2v-3.5z"/><path id="Shape_1325" d="M467.2 2369.9h0c-1.3 0-2.3 1-2.3 2.3v1.2h4.7v-1.2c0-1.3-1.1-2.3-2.4-2.3h0z"/><path id="Shape_1326" d="M467.2 2376c-.2 0-.3.1-.3.3s.1.3.3.3c.2 0 .3-.1.3-.3h0c0-.1-.1-.3-.3-.3h0"/></g></g></svg>