<svg version="1.1" id="timelock" xmlns="http://www.w3.org/2000/svg" x="0" y="0" viewBox="0 0 20 20" xml:space="preserve"><g fill="none" stroke="currentColor" stroke-width="2" stroke-linecap="round" stroke-linejoin="round"><path d="M17.394 9.26c.3-2.208-.502-4.317-2.008-5.923C12.574.325 7.856.224 4.843 3.036s-3.112 7.53-.301 10.542c1.004 1.004 2.209 1.808 3.614 2.109"/><path d="M9.26 5.144V9.06l1.406 1.004M11.37 14.984c0-.603.501-1.004 1.003-1.004h4.117c.602 0 1.004.502 1.004 1.004v3.012c0 .602-.502 1.004-1.004 1.004h-4.117a1.006 1.006 0 01-1.004-1.004v-3.012zM14.381 10.968h0a2.014 2.014 0 00-2.008 2.008h0v1.004h4.117v-1.004c-.1-1.004-1.004-2.008-2.109-2.008h0z"/></g></svg>