<?xml version="1.0" encoding="utf-8"?>
<!-- Generator: Adobe Illustrator 22.0.1, SVG Export Plug-In . SVG Version: 6.00 Build 0)  -->
<svg version="1.1" id="Layer_1" xmlns="http://www.w3.org/2000/svg" xmlns:xlink="http://www.w3.org/1999/xlink" x="0px" y="0px"
	 viewBox="0 0 559 141" style="enable-background:new 0 0 559 141;" xml:space="preserve">
<style type="text/css">
	.st0{fill:none;stroke:#DBDEE5;stroke-width:2;}
	.st1{fill:none;}
	.st2{fill:#289548;}
	.st3{fill:none;stroke:#212225;stroke-width:2;}
	.st4{fill:#FFFFFF;}
	.st5{fill:#DBDEE5;}
</style>
<g id="images" transform="translate(-398 -869)">
	<g id="Группа_4_копия_3">
		<path id="Эллипс_2047_копия_4" class="st0" d="M448.2,1005.9c-28.9-1.8-50.9-26.8-49.1-55.7
			c1.8-28.9,26.8-50.9,55.7-49.1c25.8,1.6,46.6,21.8,49,47.5c0.1,1.6,1.5,4.3,7.2,4.3h97"/>
		<g id="Эллипс_2050" transform="translate(447 1000)">
			<circle class="st1" cx="5" cy="5" r="5"/>
			<circle class="st0" cx="5" cy="5" r="4"/>
		</g>
		<g id="Эллипс_2047_копия" transform="translate(419 921)">
			<circle class="st1" cx="32.5" cy="32.5" r="32.5"/>
			<circle class="st0" cx="32.5" cy="32.5" r="31.5"/>
		</g>
		<path id="Фигура_1007" class="st0" d="M478,936c0,0-17,12.6-19,14s-6,4.6-6,9v26"/>
		<path id="Фигура_1008" class="st0" d="M472,930c0,0-15.9,11.4-18,13s-7.1,2.1-11-1s-13-11-13-11"/>
	</g>
	<g id="Группа_4_копия_4">
		<path id="Эллипс_2047_копия_4-2" class="st0" d="M906.8,901.1c28.9,1.8,50.9,26.8,49.1,55.7s-26.8,50.9-55.7,49.1
			c-25.8-1.6-46.6-21.8-49-47.5c-0.1-1.6-1.5-4.3-7.2-4.3h-98"/>
		<g id="Эллипс_2050-2" transform="translate(898 897)">
			<circle class="st1" cx="5" cy="5" r="5"/>
			<circle class="st0" cx="5" cy="5" r="4"/>
		</g>
		<g id="Эллипс_2047_копия-2" transform="translate(871 921)">
			<circle class="st1" cx="32.5" cy="32.5" r="32.5"/>
			<circle class="st0" cx="32.5" cy="32.5" r="31.5"/>
		</g>
		<path id="Фигура_1007-2" class="st0" d="M877,971c0,0,17-12.6,19-14s6-4.6,6-9v-26"/>
		<path id="Фигура_1008-2" class="st0" d="M883,977c0,0,15.9-11.4,18-13s7.1-2.1,11,1s13,11,13,11"/>
	</g>
	<g id="Группа_4">
		<path id="Эллипс_2047_копия_5" class="st0" d="M629.2,971.5c10,27.2,40.1,41.2,67.4,31.3c18.6-6.8,31.8-23.5,34.1-43.2
			c0.2-2,4.1-5.6,7.4-5.6h8"/>
		<path id="Эллипс_2047_копия_6" class="st0" d="M728.1,935.5c-10.1-27.3-40.3-41.3-67.6-31.2
			c-18.6,6.8-31.7,23.5-34.1,43.1c-0.2,2-4.1,5.6-7.4,5.6h-12"/>
		<g id="Эллипс_2047_копия_3" transform="translate(646 921)">
			<circle class="st2" cx="32.5" cy="32.5" r="32.5"/>
			<circle class="st3" cx="32.5" cy="32.5" r="31.5"/>
		</g>
		<path id="check_копия_6" class="st4" d="M688.9,945l-12.2,12l-5.7-5.6l-4.1,4l9.8,9.6l16.2-16L688.9,945z"/>
		<g id="Эллипс_2050_копия" transform="translate(723 935)">
			<circle class="st1" cx="5" cy="5" r="5"/>
			<circle class="st0" cx="5" cy="5" r="4"/>
		</g>
		<g id="Эллипс_2050_копия_2" transform="translate(624 963)">
			<circle class="st1" cx="5" cy="5" r="5"/>
			<circle class="st0" cx="5" cy="5" r="4"/>
		</g>
	</g>
	<path id="Прямоугольник_21" class="st5" d="M818,1004v-7h-38v7h-2v-7h-15v-2h15v-18h2v18h38v-8h2v8h10v2h-10v7H818z
		 M569,1004v-7h-38v7h-2v-7h-10v-2h10v-12h2v12h38v-10h2v10h18v2h-18v7H569z M529,973v-4h-4v-2h4v-4h2v4h4v2h-4v4H529z M818,928v-11
		h-10v-2h10v-38h-38v11h-2v-11h-11v-2h11v-6h2v6h38v-6h2v6h38v-6h2v6h8v2h-8v21h-2v-21h-38v38h16v2h-16v11H818z M529,928v-11h-14v-2
		h14v-38h-38v11h-2v-11h-18v-2h18v-6h2v6h38v-6h2v6h11v2h-11v38h9v2h-9v11H529z M609,895v-18h-18v-2h18v-6h2v6h16v2h-16v18H609z
		 M883,881v-4h-4v-2h4v-4h2v4h4v2h-4v4H883z M644,881v-4h-4v-2h4v-4h2v4h4v2h-4v4H644z"/>
</g>
</svg>
