<svg xmlns="http://www.w3.org/2000/svg" width="22" height="21.421"><path data-name="Эллипс 835" d="M1 10.907a10.058 10.058 0 0110.2-9.906 10.3 10.3 0 017.907 3.643" fill="none" stroke="#fff" stroke-linecap="round" stroke-width="2"/><path data-name="Эллипс 835 копия" d="M21 10.589a10.023 10.023 0 01-10.2 9.831 10.335 10.335 0 01-7.907-3.616" fill="none" stroke="#fff" stroke-linecap="round" stroke-width="2"/><path data-name="Эллипс 1 копия 4" d="M3 20.208a1.035 1.035 0 01-1-1l.009-4.051a.941.941 0 01.953-.949H7a1.035 1.035 0 011 1 1.022 1.022 0 01-1 1H4v3a1.02 1.02 0 01-.991 1zm16.038-13H15a1.034 1.034 0 01-1-1 1.022 1.022 0 011-1h3v-3a1.02 1.02 0 011-1 1.035 1.035 0 011 1l-.009 4.051a.94.94 0 01-.946.949z" fill="#fff"/></svg>