<svg xmlns="http://www.w3.org/2000/svg" width="22" height="21.421" viewBox="0 0 22 21.421">
  <g id="icon" transform="translate(1 1)">
    <path id="Эллипс_835" data-name="Эллипс 835" d="M1098,287.7a10.058,10.058,0,0,1,10.2-9.906,10.3,10.3,0,0,1,7.907,3.643" transform="translate(-1098 -277.793)" fill="none" stroke="#fff" stroke-linecap="round" stroke-width="2"/>
    <path id="Эллипс_835_копия" data-name="Эллипс 835 копия" d="M1118,287.382a10.023,10.023,0,0,1-10.2,9.831,10.335,10.335,0,0,1-7.907-3.616" transform="translate(-1098 -277.793)" fill="none" stroke="#fff" stroke-linecap="round" stroke-width="2"/>
    <path id="Эллипс_1_копия_4" data-name="Эллипс 1 копия 4" d="M1,19a1.035,1.035,0,0,1-1-1l.009-4.051A.941.941,0,0,1,.962,13L5,13a1.035,1.035,0,0,1,1,1,1.022,1.022,0,0,1-1,1H2v3a1.02,1.02,0,0,1-.991,1ZM17.038,6,13,6a1.034,1.034,0,0,1-1-1,1.022,1.022,0,0,1,1-1h3V1a1.02,1.02,0,0,1,1-1,1.035,1.035,0,0,1,1,1l-.009,4.051A.94.94,0,0,1,17.045,6Z" transform="translate(1 0.208)" fill="#fff"/>
  </g>
</svg>
