<?xml version="1.0" encoding="utf-8"?>
<!-- Generator: Adobe Illustrator 24.1.2, SVG Export Plug-In . SVG Version: 6.00 Build 0)  -->
<svg version="1.1" id="Слой_1" xmlns="http://www.w3.org/2000/svg" xmlns:xlink="http://www.w3.org/1999/xlink" x="0px" y="0px"
	 viewBox="0 0 14 17" style="enable-background:new 0 0 14 17;" xml:space="preserve">
<style type="text/css">
	.st0{clip-path:url(#SVGID_2_);}
	.st1{fill:#007DFF;}
</style>
<g>
	<defs>
		<rect id="SVGID_1_" width="14" height="17"/>
	</defs>
	<clipPath id="SVGID_2_">
		<use xlink:href="#SVGID_1_"  style="overflow:visible;"/>
	</clipPath>
	<g id="Canvas" class="st0">
		<g id="upload" transform="translate(-547 -826)">
			<path id="Forma_1" class="st1" d="M548.5,842c-0.3,0-0.5-0.2-0.5-0.5v-1c0-0.3,0.2-0.5,0.5-0.5h11c0.3,0,0.5,0.2,0.5,0.5v1
				c0,0.3-0.2,0.5-0.5,0.5H548.5z M553.5,838c-0.3,0-0.5-0.2-0.5-0.5l0,0V830l-1.8,1.6c-0.2,0.2-0.5,0.1-0.6,0c0,0,0,0,0,0l-0.6-0.7
				c-0.2-0.2-0.1-0.5,0-0.6l3.6-3.2c0.2-0.2,0.4-0.2,0.6,0l3.6,3.2c0.2,0.2,0.2,0.5,0,0.6l-0.6,0.7c-0.2,0.2-0.4,0.2-0.6,0
				c0,0,0,0,0,0l-1.8-1.6v7.5c0,0.3-0.2,0.5-0.5,0.5l0,0L553.5,838z"/>
		</g>
	</g>
</g>
</svg>
