<?xml version="1.0" encoding="utf-8"?>
<!-- Generator: Adobe Illustrator 22.0.1, SVG Export Plug-In . SVG Version: 6.00 Build 0)  -->
<svg fill="currencyColor" version="1.1" id="Layer_1" xmlns="http://www.w3.org/2000/svg" xmlns:xlink="http://www.w3.org/1999/xlink" x="0px" y="0px"
	 viewBox="0 0 20 21" style="enable-background:new 0 0 20 21;" xml:space="preserve">
<style type="text/css">
	.st0{fill:#99C7EE;}
	.st1{fill:none;}
	.st2{fill:none;stroke:#99C7EE;stroke-width:2;}
</style>
<g id="list" transform="translate(-865.982 -506)">
	<path id="Forma_1" class="st0" d="M885.1,527c-0.4,0-0.7-0.2-0.9-0.6l-0.5-1.1c-1.5-3.8-3.4-5.4-6.1-5.4h-3.4
		c-2.7,0-4.5,1.6-6.1,5.4l-0.5,1.1c-0.2,0.5-0.7,0.7-1.2,0.5c0,0,0,0,0,0c-0.5-0.2-0.7-0.7-0.5-1.2l0.5-1.1c1.1-2.8,3.2-6.6,7.8-6.6
		h3.4c4.6,0,6.6,3.8,7.8,6.6l0.5,1.1c0.2,0.5,0,1-0.5,1.2C885.3,527,885.2,527,885.1,527z"/>
	<g id="Эллипс_968" transform="translate(871 506)">
		<circle class="st1" cx="5" cy="5" r="5"/>
		<circle class="st2" cx="5" cy="5" r="4"/>
	</g>
</g>
</svg>
