<svg version="1.1" id="Слой_1" xmlns="http://www.w3.org/2000/svg" x="0" y="0" viewBox="0 0 23 23" xml:space="preserve"><path d="M11.145 15.75a1.02 1.02 0 01-.315-.05c-.37-.124-.926-.308-1.317-.895l-2.385-3.378a1.001 1.001 0 011.634-1.155l2.4 3.4c.02.02.059.04.105.06l.014-.005 7.678-9.795a.999.999 0 111.572 1.236l-7.7 9.8c-.306.466-.953.782-1.686.782z" fill="currentColor"/><path d="M19.045 23.05h-15c-2.243 0-4-1.757-4-4v-15c0-2.243 1.757-4 4-4h7.8a1 1 0 110 2h-7.8c-1.14 0-2 .86-2 2v15c0 1.14.86 2 2 2h15c1.14 0 2-.86 2-2v-4.8a1 1 0 112 0v4.8c0 2.243-1.757 4-4 4z" fill="currentColor"/></svg>