<?xml version="1.0" encoding="utf-8"?>
<!-- Generator: Adobe Illustrator 22.0.1, SVG Export Plug-In . SVG Version: 6.00 Build 0)  -->
<svg version="1.1" id="Layer_1" xmlns="http://www.w3.org/2000/svg" xmlns:xlink="http://www.w3.org/1999/xlink" x="0px" y="0px"
	 viewBox="0 0 14 13" style="enable-background:new 0 0 14 13;" xml:space="preserve">
<style type="text/css">
	.st0{fill:#212225;}
</style>
<path id="Прямоугольник_скругл._углы_966" class="st0" d="M1,13c-0.6,0-1-0.4-1-1s0.4-1,1-1h12
	c0.6,0,1,0.4,1,1s-0.4,1-1,1H1z M6.3,8.9L3.1,5.8c-0.2-0.2-0.2-0.5,0-0.7c0,0,0,0,0,0l1.4-1.4c0.2-0.2,0.5-0.2,0.7,0l1.4,1.4
	l5.1-4.9c0.2-0.2,0.5-0.2,0.7,0l1.4,1.4C14,1.7,14,2,13.9,2.2c0,0,0,0,0,0L7,8.9C6.8,9.1,6.5,9.1,6.3,8.9L6.3,8.9z"/>
</svg>
