<?xml version="1.0" encoding="utf-8"?>
<!-- Generator: Adobe Illustrator 24.0.1, SVG Export Plug-In . SVG Version: 6.00 Build 0)  -->
<svg version="1.1" id="vote-combination" xmlns="http://www.w3.org/2000/svg" xmlns:xlink="http://www.w3.org/1999/xlink" x="0px"
	 y="0px" viewBox="0 0 20 20" enable-background="new 0 0 20 20" xml:space="preserve">
<g>
	<g transform="translate(29.2 -993.1)">
		<path fill="none" stroke="currentColor" stroke-width="2" stroke-linecap="round" stroke-linejoin="round" d="M-23.55001,1007.34045
			l8.70001-8.69995"/>
		<g transform="translate(8 8.019)">
			<path fill="none" stroke="currentColor" stroke-width="2" stroke-linecap="round" stroke-linejoin="round" d="M-25.05001,999.94049
				l2.60001-2.70001"/>
			<path fill="none" stroke="currentColor" stroke-width="2" stroke-linecap="round" stroke-linejoin="round" d="M-22.34999,999.94049
				l-2.60001-2.70001"/>
		</g>
		<path fill="none" stroke="currentColor" stroke-width="2" stroke-linecap="round" stroke-linejoin="round" d="M-24.05001,1000.24048
			l0.70001,1.09998c0.10001,0.20001,0.20001,0.20001,0.39999,0.10004l0,0l0.10001-0.10004l2.39999-3.09998"/>
	</g>
	<path fill="none" stroke="currentColor" stroke-width="2" stroke-linecap="round" stroke-linejoin="round" d="M19,12.33702v4.07735
		C19,17.80663,17.9,19,16.5,19h-0.1H3.6C2.2,18.90055,1,17.90608,1,16.41436v-0.09945V3.48619C1,2.09392,2.1,1,3.5,1h0.1h6.7"/>
</g>
</svg>
