<?xml version="1.0" encoding="utf-8"?>
<!-- Generator: Adobe Illustrator 24.2.3, SVG Export Plug-In . SVG Version: 6.00 Build 0)  -->
<svg version="1.1" id="Слой_1" xmlns="http://www.w3.org/2000/svg" xmlns:xlink="http://www.w3.org/1999/xlink" x="0px" y="0px"
	 viewBox="0 0 23 23" style="enable-background:new 0 0 23 23;" xml:space="preserve">
<style type="text/css">
	.st0{fill:none;stroke:#000000;stroke-width:2;stroke-linecap:round;stroke-linejoin:round;}
	.st1{fill:none;stroke:#212225;stroke-width:2;stroke-linecap:round;stroke-linejoin:round;}
	.st2{fill:none;stroke:#212225;stroke-width:2;stroke-linecap:round;}
</style>
<g id="Vote_Unvote_" transform="translate(-392.755 -1167.25)">
	<path id="Shape_1764" class="st0" d="M414.8,1181.5v4.8c0,1.7-1.3,3-3,3h-15c-1.7,0-3-1.3-3-3v-15c0-1.7,1.3-3,3-3h7.8"/>
	<g id="Interface-Essential_Form-Validation_close" transform="translate(407.005 1181.569)">
		<g id="Group_395" transform="translate(0 0)">
			<g id="close">
				<path id="Shape_1765" class="st1" d="M0,3.2L3.2,0"/>
				<path id="Shape_1766" class="st1" d="M3.2,3.2L0,0"/>
			</g>
		</g>
	</g>
	<path id="Shape_1754" class="st1" d="M398.4,1175.5l0.9,1.3c0.1,0.2,0.4,0.2,0.5,0.1c0,0,0.1-0.1,0.1-0.1l2.9-3.7"/>
	<path id="Path_309" class="st2" d="M398.4,1185.6l10.6-12.5"/>
</g>
</svg>
