<?xml version="1.0" encoding="utf-8"?>
<!-- Generator: Adobe Illustrator 24.0.0, SVG Export Plug-In . SVG Version: 6.00 Build 0)  -->
<svg version="1.1" id="Слой_1" xmlns="http://www.w3.org/2000/svg" xmlns:xlink="http://www.w3.org/1999/xlink" x="0px" y="0px"
	 viewBox="0 0 25 25" style="enable-background:new 0 0 25 25;" xml:space="preserve">
<style type="text/css">
	.st0{clip-path:url(#SVGID_2_);}
	.st1{fill:#D1F0B0;}
	.st2{fill:#71B924;}
</style>
<g>
	<defs>
		<rect id="SVGID_1_" width="25" height="25"/>
	</defs>
	<clipPath id="SVGID_2_">
		<use xlink:href="#SVGID_1_"  style="overflow:visible;"/>
	</clipPath>
	<g id="Canvas" class="st0">
		<path id="Эллипс_1083_копия_3" class="st1" d="M12.5,25C5.6,25,0,19.4,0,12.5C0,9.2,1.3,6,3.7,3.7
			c4.9-4.9,12.8-4.9,17.7,0s4.9,12.8,0,17.7C19,23.7,15.8,25,12.5,25z M12.5,2C6.7,2,2,6.7,2,12.5S6.7,23,12.5,23S23,18.3,23,12.5
			C23,6.7,18.3,2,12.5,2z"/>
		<path id="Эллипс_1083_копия_3-2" class="st2" d="M11,15.9c0.2,0.2,0.5,0.2,0.6,0l6.2-5.9c0.2-0.2,0.2-0.4,0-0.6
			c0,0,0,0,0,0l-1.3-1.2c-0.2-0.2-0.5-0.2-0.6,0l-4.6,4.4l-1.3-1.2c-0.2-0.2-0.5-0.2-0.6,0l-1.3,1.2c-0.2,0.2-0.2,0.4,0,0.6
			c0,0,0,0,0,0L11,15.9z"/>
	</g>
</g>
</svg>
