<?xml version="1.0" encoding="utf-8"?>
<!-- Generator: Adobe Illustrator 24.0.0, SVG Export Plug-In . SVG Version: 6.00 Build 0)  -->
<svg version="1.1" id="Слой_1" xmlns="http://www.w3.org/2000/svg" xmlns:xlink="http://www.w3.org/1999/xlink" x="0px" y="0px"
	 viewBox="0 0 25 25" style="enable-background:new 0 0 25 25;" xml:space="preserve">
<style type="text/css">
	.st0{clip-path:url(#SVGID_2_);}
	.st1{fill:#F6E0E0;}
	.st2{fill:#C9292C;}
</style>
<g>
	<defs>
		<rect id="SVGID_1_" width="25" height="25"/>
	</defs>
	<clipPath id="SVGID_2_">
		<use xlink:href="#SVGID_1_"  style="overflow:visible;"/>
	</clipPath>
	<g id="Canvas" class="st0">
		<path id="Эллипс_1083_копия" class="st1" d="M12.5,25C5.6,25,0,19.4,0,12.5C0,9.2,1.3,6,3.7,3.7
			c4.9-4.9,12.8-4.9,17.7,0s4.9,12.8,0,17.7C19,23.7,15.8,25,12.5,25z M12.5,2C6.7,2,2,6.7,2,12.5S6.7,23,12.5,23S23,18.3,23,12.5
			C23,6.7,18.3,2,12.5,2z"/>
		<path id="Прямоугольник_скругл._углы1081_копия" class="st2" d="M14.4,15.7l-1.9-1.9l-1.9,1.9
			c-0.4,0.3-1,0.3-1.3-0.1c-0.3-0.4-0.3-0.9,0-1.2l1.9-1.9l-1.9-1.9c-0.3-0.4-0.3-1,0.1-1.3c0.4-0.3,0.9-0.3,1.2,0l1.9,1.9l1.9-1.9
			c0.4-0.3,1-0.3,1.3,0.1c0.3,0.4,0.3,0.9,0,1.2l-1.9,1.9l1.9,1.9c0.3,0.4,0.3,1-0.1,1.3C15.3,16,14.8,16,14.4,15.7z"/>
	</g>
</g>
</svg>
