<svg xmlns="http://www.w3.org/2000/svg" viewBox="0 0 2500 741"><path d="M2407.4 740.9H92.6C40.7 740.9 0 700.1 0 648.3V92.7C0 40.9 40.7.1 92.6.1h2314.8c51.9 0 92.6 40.7 92.6 92.6v555.6c0 51.8-40.7 92.6-92.6 92.6z"/><path d="M2407.4 14.9c42.6 0 77.8 35.2 77.8 77.8v555.6c0 42.6-35.2 77.8-77.8 77.8H92.6c-42.6 0-77.8-35.2-77.8-77.8V92.7c0-42.6 35.2-77.8 77.8-77.8h2314.8m0-14.8H92.6C40.7.1 0 42.7 0 92.7v555.6c0 51.9 40.7 92.6 92.6 92.6h2314.8c51.9 0 92.6-40.7 92.6-92.6V92.7c0-50-40.7-92.6-92.6-92.6z"/><path d="M877.8 189c0 14.8-3.7 27.8-13 37-11.1 11.1-24.1 16.7-40.7 16.7-16.7 0-29.6-5.6-40.7-16.7-11.1-11.1-16.7-24.1-16.7-40.7s5.6-29.6 16.7-40.7c11.1-11.1 24.1-16.7 40.7-16.7 7.4 0 14.8 1.9 22.2 5.6 7.4 3.7 13 7.4 16.7 13l-9.3 9.3c-7.4-9.3-16.7-13-29.6-13-11.1 0-22.2 3.7-29.6 13-9.3 7.4-13 18.5-13 31.5s3.7 24.1 13 31.5c9.3 7.4 18.5 13 29.6 13 13 0 22.2-3.7 31.5-13 5.6-5.6 9.3-13 9.3-22.2h-40.7v-14.8h53.7l-.1 7.2h0zm85.2-46.3h-50v35.2h46.3v13H913v35.2h50v14.8h-64.8V129.8H963v12.9zm61.1 98.2h-14.8v-98.1h-31.5v-13h77.8v13h-31.5v98.1zm85.2 0V129.8h14.8v111.1h-14.8zm77.7 0h-14.8v-98.1h-31.5v-13h75.9v13h-31.5v98.1h1.9zm176-14.8c-11.1 11.1-24.1 16.7-40.7 16.7-16.7 0-29.6-5.6-40.7-16.7-11.1-11.1-16.7-24.1-16.7-40.7s5.6-29.6 16.7-40.7 24.1-16.7 40.7-16.7 29.6 5.6 40.7 16.7c11.1 11.1 16.7 24.1 16.7 40.7s-5.6 29.5-16.7 40.7zm-70.4-9.3c7.4 7.4 18.5 13 29.6 13s22.2-3.7 29.6-13c7.4-7.4 13-18.5 13-31.5s-3.7-24.1-13-31.5c-7.4-7.4-18.5-13-29.6-13s-22.2 3.7-29.6 13c-7.4 7.4-13 18.5-13 31.5s3.7 24.1 13 31.5zm107.4 24.1V129.8h16.7l53.7 87v-87h14.8v111.1h-14.8l-57.4-90.7v90.7h-13 0z" fill="#fff" stroke="#fff" stroke-width="3.704" stroke-miterlimit="185.185"/><path d="M1261.1 403.8c-44.4 0-79.6 33.3-79.6 79.6 0 44.4 35.2 79.6 79.6 79.6s79.6-33.3 79.6-79.6c0-48.1-35.1-79.6-79.6-79.6zm0 126c-24.1 0-44.4-20.4-44.4-48.1s20.4-48.1 44.4-48.1 44.4 18.5 44.4 48.1c.1 27.7-20.3 48.1-44.4 48.1zm-172.2-126c-44.4 0-79.6 33.3-79.6 79.6 0 44.4 35.2 79.6 79.6 79.6 44.4 0 79.6-33.3 79.6-79.6 0-48.1-35.2-79.6-79.6-79.6zm0 126c-24.1 0-44.4-20.4-44.4-48.1s20.4-48.1 44.4-48.1c24.1 0 44.4 18.5 44.4 48.1 0 27.7-20.3 48.1-44.4 48.1zM883.3 427.9v33.3H963c-1.9 18.5-9.3 33.3-18.5 42.6-11.1 11.1-29.6 24.1-61.1 24.1-50 0-87-38.9-87-88.9s38.9-88.9 87-88.9c25.9 0 46.3 11.1 61.1 24.1l24.1-24.1c-20.4-18.5-46.3-33.3-83.3-33.3-66.7 0-124.1 55.6-124.1 122.2s57.4 122.2 124.1 122.2c37 0 63-11.1 85.2-35.2 22.2-22.2 29.6-53.7 29.6-77.8 0-7.4 0-14.8-1.9-20.4l-114.9.1zm840.8 25.9c-7.4-18.5-25.9-50-66.7-50-40.7 0-74.1 31.5-74.1 79.6 0 44.4 33.3 79.6 77.8 79.6 35.2 0 57.4-22.2 64.8-35.2l-25.9-18.5c-9.3 13-20.4 22.2-38.9 22.2s-29.6-7.4-38.9-24.1l105.6-44.4-3.7-9.2zm-107.4 26c0-29.6 24.1-46.3 40.7-46.3 13 0 25.9 7.4 29.6 16.7l-70.3 29.6zm-87.1 75.9h35.2V324.2h-35.2v231.5zm-55.5-135.2c-9.3-9.3-24.1-18.5-42.6-18.5-38.9 0-75.9 35.2-75.9 79.6s35.2 77.8 75.9 77.8c18.5 0 33.3-9.3 40.7-18.5h1.9V552c0 29.6-16.7 46.3-42.6 46.3-20.4 0-35.2-14.8-38.9-27.8l-29.6 13c9.3 20.4 31.5 46.3 70.4 46.3 40.7 0 74.1-24.1 74.1-81.5V407.5h-33.3l-.1 13zm-40.8 109.3c-24.1 0-44.4-20.4-44.4-48.1s20.4-48.1 44.4-48.1 42.6 20.4 42.6 48.1-18.5 48.1-42.6 48.1zm451.9-205.6h-83.3v231.5h35.2v-87h48.1c38.9 0 75.9-27.8 75.9-72.2s-37-72.3-75.9-72.3zm1.8 111.1h-50v-79.6h50c25.9 0 40.7 22.2 40.7 38.9-1.8 20.3-16.6 40.7-40.7 40.7zm213-33.3c-25.9 0-51.9 11.1-61.1 35.2l31.5 13c7.4-13 18.5-16.7 31.5-16.7 18.5 0 35.2 11.1 37 29.6v1.9c-5.6-3.7-20.4-9.3-35.2-9.3-33.3 0-66.7 18.5-66.7 51.9 0 31.5 27.8 51.9 57.4 51.9 24.1 0 35.2-11.1 44.4-22.2h1.9v18.5h33.3v-88.9c-3.6-40.8-35.1-64.9-74-64.9zm-3.7 127.8c-11.1 0-27.8-5.6-27.8-20.4 0-18.5 20.4-24.1 37-24.1 14.8 0 22.2 3.7 31.5 7.4-3.7 22.2-22.2 37.1-40.7 37.1zm194.4-122.3l-38.9 100h-1.9l-40.7-100h-37l61.1 140.7-35.2 77.8h35.2l94.4-218.5h-37zm-311.1 148.2h35.2V324.2h-35.2v231.5z" fill="#fff"/><linearGradient id="a" gradientUnits="userSpaceOnUse" x1="967.795" y1="844.671" x2="951.012" y2="861.453" gradientTransform="translate(-17518.518 -15480.722) scale(18.5185)"><stop offset="0" stop-color="#00a0ff"/><stop offset=".007" stop-color="#00a1ff"/><stop offset=".26" stop-color="#00beff"/><stop offset=".512" stop-color="#00d2ff"/><stop offset=".76" stop-color="#00dfff"/><stop offset="1" stop-color="#00e3ff"/></linearGradient><path d="M192.6 139c-5.6 5.6-7.4 14.8-7.4 25.9v409.3c0 11.1 3.7 20.4 9.3 25.9l1.9 1.9L426 372.4v-3.7L192.6 139z" fill="url(#a)"/><linearGradient id="b" gradientUnits="userSpaceOnUse" x1="979.834" y1="856.016" x2="955.637" y2="856.016" gradientTransform="translate(-17518.518 -15480.722) scale(18.5185)"><stop offset="0" stop-color="#ffe000"/><stop offset=".409" stop-color="#ffbd00"/><stop offset=".775" stop-color="orange"/><stop offset="1" stop-color="#ff9c00"/></linearGradient><path d="M500 450.1l-75.9-75.9v-5.6l75.9-75.9 1.9 1.9 90.7 51.9c25.9 14.8 25.9 38.9 0 53.7L500 450.1z" fill="url(#b)"/><linearGradient id="c" gradientUnits="userSpaceOnUse" x1="970.816" y1="858.25" x2="948.058" y2="881.009" gradientTransform="translate(-17518.518 -15480.722) scale(18.5185)"><stop offset="0" stop-color="#ff3a44"/><stop offset="1" stop-color="#c31162"/></linearGradient><path d="M501.9 448.3l-77.8-77.8L192.6 602c9.3 9.3 22.2 9.3 38.9 1.9l270.4-155.6" fill="url(#c)"/><linearGradient id="d" gradientUnits="userSpaceOnUse" x1="953.261" y1="836.178" x2="963.424" y2="846.341" gradientTransform="translate(-17518.518 -15480.722) scale(18.5185)"><stop offset="0" stop-color="#32a071"/><stop offset=".069" stop-color="#2da771"/><stop offset=".476" stop-color="#15cf74"/><stop offset=".801" stop-color="#06e775"/><stop offset="1" stop-color="#00f076"/></linearGradient><path d="M501.9 292.7L231.5 139c-16.7-9.3-29.6-7.4-38.9 1.9l231.5 229.6 77.8-77.8z" fill="url(#d)"/><path d="M500 446.4L231.5 598.3c-14.8 9.3-27.8 7.4-37 0l-1.9 1.9 1.9 1.9c9.3 7.4 22.2 9.3 37 0L500 446.4z" opacity=".2"/><path d="M192.6 598.3c-5.6-5.6-7.4-14.8-7.4-25.9v1.9c0 11.1 3.7 20.4 9.3 25.9v-1.9h-1.9zm400-203.7L500 446.4l1.9 1.9 90.7-51.9c13-7.4 18.5-16.7 18.5-25.9 0 9.3-7.4 16.7-18.5 24.1z" opacity=".12"/><path d="M231.5 140.9l361.1 205.6c11.1 7.4 18.5 14.8 18.5 24.1 0-9.3-5.6-18.5-18.5-25.9L231.5 139c-25.9-14.8-46.3-3.7-46.3 25.9v1.9c0-27.8 20.4-40.7 46.3-25.9z" opacity=".25" fill="#fff"/></svg>