<?xml version="1.0" encoding="utf-8"?>
<!-- Generator: Adobe Illustrator 24.2.1, SVG Export Plug-In . SVG Version: 6.00 Build 0)  -->
<svg version="1.1" id="Layer_1" xmlns="http://www.w3.org/2000/svg" xmlns:xlink="http://www.w3.org/1999/xlink" x="0px" y="0px"
	 viewBox="0 0 2500 741" style="enable-background:new 0 0 2500 741;" xml:space="preserve">
<style type="text/css">
	.st0{fill:#FFFFFF;stroke:#FFFFFF;stroke-width:3.7037;stroke-miterlimit:185.1852;}
	.st1{fill:#FFFFFF;}
	.st2{fill:url(#SVGID_1_);}
	.st3{fill:url(#SVGID_2_);}
	.st4{fill:url(#SVGID_3_);}
	.st5{fill:url(#SVGID_4_);}
	.st6{opacity:0.2;enable-background:new    ;}
	.st7{opacity:0.12;enable-background:new    ;}
	.st8{opacity:0.25;fill:#FFFFFF;enable-background:new    ;}
</style>
<path d="M2407.4,740.9H92.6C40.7,740.9,0,700.1,0,648.3V92.7C0,40.9,40.7,0.1,92.6,0.1h2314.8c51.9,0,92.6,40.7,92.6,92.6v555.6
	C2500,700.1,2459.3,740.9,2407.4,740.9z"/>
<path d="M2407.4,14.9c42.6,0,77.8,35.2,77.8,77.8v555.6c0,42.6-35.2,77.8-77.8,77.8H92.6c-42.6,0-77.8-35.2-77.8-77.8V92.7
	c0-42.6,35.2-77.8,77.8-77.8H2407.4 M2407.4,0.1H92.6C40.7,0.1,0,42.7,0,92.7v555.6c0,51.9,40.7,92.6,92.6,92.6h2314.8
	c51.9,0,92.6-40.7,92.6-92.6V92.7C2500,42.7,2459.3,0.1,2407.4,0.1z"/>
<path class="st0" d="M877.8,189c0,14.8-3.7,27.8-13,37c-11.1,11.1-24.1,16.7-40.7,16.7c-16.7,0-29.6-5.6-40.7-16.7
	c-11.1-11.1-16.7-24.1-16.7-40.7s5.6-29.6,16.7-40.7c11.1-11.1,24.1-16.7,40.7-16.7c7.4,0,14.8,1.9,22.2,5.6c7.4,3.7,13,7.4,16.7,13
	l-9.3,9.3c-7.4-9.3-16.7-13-29.6-13c-11.1,0-22.2,3.7-29.6,13c-9.3,7.4-13,18.5-13,31.5c0,13,3.7,24.1,13,31.5
	c9.3,7.4,18.5,13,29.6,13c13,0,22.2-3.7,31.5-13c5.6-5.6,9.3-13,9.3-22.2h-40.7v-14.8h53.7L877.8,189L877.8,189z M963,142.7h-50
	v35.2h46.3v13H913v35.2h50v14.8h-64.8V129.8H963V142.7z M1024.1,240.9h-14.8v-98.1h-31.5v-13h77.8v13h-31.5V240.9z M1109.3,240.9
	V129.8h14.8v111.1H1109.3z M1187,240.9h-14.8v-98.1h-31.5v-13h75.9v13h-31.5v98.1H1187z M1363,226.1c-11.1,11.1-24.1,16.7-40.7,16.7
	c-16.7,0-29.6-5.6-40.7-16.7c-11.1-11.1-16.7-24.1-16.7-40.7s5.6-29.6,16.7-40.7s24.1-16.7,40.7-16.7s29.6,5.6,40.7,16.7
	c11.1,11.1,16.7,24.1,16.7,40.7S1374.1,214.9,1363,226.1z M1292.6,216.8c7.4,7.4,18.5,13,29.6,13s22.2-3.7,29.6-13
	c7.4-7.4,13-18.5,13-31.5c0-13-3.7-24.1-13-31.5c-7.4-7.4-18.5-13-29.6-13s-22.2,3.7-29.6,13c-7.4,7.4-13,18.5-13,31.5
	C1279.6,198.3,1283.3,209.4,1292.6,216.8z M1400,240.9V129.8h16.7l53.7,87v-87h14.8v111.1h-14.8l-57.4-90.7v90.7H1400L1400,240.9z"
	/>
<path class="st1" d="M1261.1,403.8c-44.4,0-79.6,33.3-79.6,79.6c0,44.4,35.2,79.6,79.6,79.6s79.6-33.3,79.6-79.6
	C1340.7,435.3,1305.6,403.8,1261.1,403.8z M1261.1,529.8c-24.1,0-44.4-20.4-44.4-48.1s20.4-48.1,44.4-48.1s44.4,18.5,44.4,48.1
	C1305.6,509.4,1285.2,529.8,1261.1,529.8z M1088.9,403.8c-44.4,0-79.6,33.3-79.6,79.6c0,44.4,35.2,79.6,79.6,79.6
	c44.4,0,79.6-33.3,79.6-79.6C1168.5,435.3,1133.3,403.8,1088.9,403.8z M1088.9,529.8c-24.1,0-44.4-20.4-44.4-48.1
	s20.4-48.1,44.4-48.1c24.1,0,44.4,18.5,44.4,48.1C1133.3,509.4,1113,529.8,1088.9,529.8z M883.3,427.9v33.3H963
	c-1.9,18.5-9.3,33.3-18.5,42.6c-11.1,11.1-29.6,24.1-61.1,24.1c-50,0-87-38.9-87-88.9s38.9-88.9,87-88.9c25.9,0,46.3,11.1,61.1,24.1
	l24.1-24.1c-20.4-18.5-46.3-33.3-83.3-33.3c-66.7,0-124.1,55.6-124.1,122.2s57.4,122.2,124.1,122.2c37,0,63-11.1,85.2-35.2
	c22.2-22.2,29.6-53.7,29.6-77.8c0-7.4,0-14.8-1.9-20.4L883.3,427.9L883.3,427.9z M1724.1,453.8c-7.4-18.5-25.9-50-66.7-50
	c-40.7,0-74.1,31.5-74.1,79.6c0,44.4,33.3,79.6,77.8,79.6c35.2,0,57.4-22.2,64.8-35.2l-25.9-18.5c-9.3,13-20.4,22.2-38.9,22.2
	c-18.5,0-29.6-7.4-38.9-24.1l105.6-44.4L1724.1,453.8L1724.1,453.8z M1616.7,479.8c0-29.6,24.1-46.3,40.7-46.3
	c13,0,25.9,7.4,29.6,16.7L1616.7,479.8L1616.7,479.8z M1529.6,555.7h35.2V324.2h-35.2V555.7z M1474.1,420.5
	c-9.3-9.3-24.1-18.5-42.6-18.5c-38.9,0-75.9,35.2-75.9,79.6s35.2,77.8,75.9,77.8c18.5,0,33.3-9.3,40.7-18.5h1.9V552
	c0,29.6-16.7,46.3-42.6,46.3c-20.4,0-35.2-14.8-38.9-27.8l-29.6,13c9.3,20.4,31.5,46.3,70.4,46.3c40.7,0,74.1-24.1,74.1-81.5V407.5
	h-33.3L1474.1,420.5L1474.1,420.5z M1433.3,529.8c-24.1,0-44.4-20.4-44.4-48.1s20.4-48.1,44.4-48.1s42.6,20.4,42.6,48.1
	S1457.4,529.8,1433.3,529.8z M1885.2,324.2h-83.3v231.5h35.2v-87h48.1c38.9,0,75.9-27.8,75.9-72.2S1924.1,324.2,1885.2,324.2z
	 M1887,435.3h-50v-79.6h50c25.9,0,40.7,22.2,40.7,38.9C1925.9,414.9,1911.1,435.3,1887,435.3L1887,435.3z M2100,402
	c-25.9,0-51.9,11.1-61.1,35.2l31.5,13c7.4-13,18.5-16.7,31.5-16.7c18.5,0,35.2,11.1,37,29.6v1.9c-5.6-3.7-20.4-9.3-35.2-9.3
	c-33.3,0-66.7,18.5-66.7,51.9c0,31.5,27.8,51.9,57.4,51.9c24.1,0,35.2-11.1,44.4-22.2h1.9v18.5h33.3v-88.9
	C2170.4,426.1,2138.9,402,2100,402L2100,402z M2096.3,529.8c-11.1,0-27.8-5.6-27.8-20.4c0-18.5,20.4-24.1,37-24.1
	c14.8,0,22.2,3.7,31.5,7.4C2133.3,514.9,2114.8,529.8,2096.3,529.8z M2290.7,407.5l-38.9,100h-1.9l-40.7-100h-37l61.1,140.7
	l-35.2,77.8h35.2l94.4-218.5H2290.7L2290.7,407.5z M1979.6,555.7h35.2V324.2h-35.2V555.7z"/>
<g>
	
		<linearGradient id="SVGID_1_" gradientUnits="userSpaceOnUse" x1="967.7953" y1="844.6713" x2="951.0123" y2="861.4533" gradientTransform="matrix(18.5185 0 0 18.5185 -17518.5176 -15480.7217)">
		<stop  offset="0" style="stop-color:#00A0FF"/>
		<stop  offset="7.000001e-03" style="stop-color:#00A1FF"/>
		<stop  offset="0.26" style="stop-color:#00BEFF"/>
		<stop  offset="0.512" style="stop-color:#00D2FF"/>
		<stop  offset="0.76" style="stop-color:#00DFFF"/>
		<stop  offset="1" style="stop-color:#00E3FF"/>
	</linearGradient>
	<path class="st2" d="M192.6,139c-5.6,5.6-7.4,14.8-7.4,25.9v409.3c0,11.1,3.7,20.4,9.3,25.9l1.9,1.9l229.6-229.6v-3.7L192.6,139z"
		/>
	
		<linearGradient id="SVGID_2_" gradientUnits="userSpaceOnUse" x1="979.834" y1="856.016" x2="955.637" y2="856.016" gradientTransform="matrix(18.5185 0 0 18.5185 -17518.5176 -15480.7217)">
		<stop  offset="0" style="stop-color:#FFE000"/>
		<stop  offset="0.409" style="stop-color:#FFBD00"/>
		<stop  offset="0.775" style="stop-color:#FFA500"/>
		<stop  offset="1" style="stop-color:#FF9C00"/>
	</linearGradient>
	<path class="st3" d="M500,450.1l-75.9-75.9v-5.6l75.9-75.9l1.9,1.9l90.7,51.9c25.9,14.8,25.9,38.9,0,53.7L500,450.1z"/>
	
		<linearGradient id="SVGID_3_" gradientUnits="userSpaceOnUse" x1="970.8155" y1="858.2505" x2="948.0575" y2="881.0085" gradientTransform="matrix(18.5185 0 0 18.5185 -17518.5176 -15480.7217)">
		<stop  offset="0" style="stop-color:#FF3A44"/>
		<stop  offset="1" style="stop-color:#C31162"/>
	</linearGradient>
	<path class="st4" d="M501.9,448.3l-77.8-77.8L192.6,602c9.3,9.3,22.2,9.3,38.9,1.9L501.9,448.3"/>
	
		<linearGradient id="SVGID_4_" gradientUnits="userSpaceOnUse" x1="953.2615" y1="836.1775" x2="963.4245" y2="846.3405" gradientTransform="matrix(18.5185 0 0 18.5185 -17518.5176 -15480.7217)">
		<stop  offset="0" style="stop-color:#32A071"/>
		<stop  offset="6.900000e-02" style="stop-color:#2DA771"/>
		<stop  offset="0.476" style="stop-color:#15CF74"/>
		<stop  offset="0.801" style="stop-color:#06E775"/>
		<stop  offset="1" style="stop-color:#00F076"/>
	</linearGradient>
	<path class="st5" d="M501.9,292.7L231.5,139c-16.7-9.3-29.6-7.4-38.9,1.9l231.5,229.6L501.9,292.7L501.9,292.7z"/>
	<path class="st6" d="M500,446.4L231.5,598.3c-14.8,9.3-27.8,7.4-37,0l-1.9,1.9l1.9,1.9c9.3,7.4,22.2,9.3,37,0L500,446.4z"/>
	<path class="st7" d="M192.6,598.3c-5.6-5.6-7.4-14.8-7.4-25.9v1.9c0,11.1,3.7,20.4,9.3,25.9v-1.9L192.6,598.3L192.6,598.3z
		 M592.6,394.6L500,446.4l1.9,1.9l90.7-51.9c13-7.4,18.5-16.7,18.5-25.9C611.1,379.8,603.7,387.2,592.6,394.6z"/>
	<path class="st8" d="M231.5,140.9l361.1,205.6c11.1,7.4,18.5,14.8,18.5,24.1c0-9.3-5.6-18.5-18.5-25.9L231.5,139
		c-25.9-14.8-46.3-3.7-46.3,25.9v1.9C185.2,139,205.6,126.1,231.5,140.9z"/>
</g>
</svg>
