<svg version="1.1" id="livetype" xmlns="http://www.w3.org/2000/svg" x="0" y="0" viewBox="0 0 119.7 40" xml:space="preserve"><style>.st1{fill:#fff}</style><path d="M110.1 0H7.5c-.7 0-1.3.1-2 .2-.6.1-1.3.3-1.9.6C3 1.1 2.5 1.5 2 2S1.1 3 .8 3.6C.5 4.2.3 4.9.2 5.5c-.1.7-.2 1.4-.2 2v24.9c0 .7.1 1.3.2 2s.3 1.3.6 1.9c.3.7.7 1.2 1.2 1.7s1 .9 1.6 1.2c.6.3 1.2.5 1.9.6.7.1 1.3.2 2 .2h104.6c.7 0 1.3-.1 2-.2s1.3-.3 1.9-.6c.6-.3 1.1-.7 1.6-1.2s.9-1 1.2-1.6c.3-.6.5-1.2.6-1.9.1-.7.2-1.3.2-2v-.9V9.5 8.4v-.9c0-.7-.1-1.3-.2-2s-.3-1.3-.6-1.9c-.6-1.2-1.6-2.2-2.8-2.8-.6-.3-1.2-.5-1.9-.6-.7-.1-1.3-.2-2-.2h-2z" fill="#a6a6a6"/><path d="M8.4 39.1h-.9c-.6 0-1.3-.1-1.9-.2-.6-.1-1.1-.3-1.7-.5-.5-.3-1-.6-1.4-1-.4-.4-.8-.9-1-1.4-.3-.5-.4-1.1-.5-1.7-.1-.6-.2-1.2-.2-1.9v-24-.9c0-.6.1-1.3.2-1.9.1-.5.3-1.1.6-1.6s.6-1 1-1.4c.4-.4.9-.7 1.4-1 .5-.3 1.1-.4 1.7-.5C6.3 1 6.9.9 7.6.9H112.2c.6 0 1.2.1 1.9.2.6.1 1.1.3 1.7.5 1 .5 1.9 1.4 2.4 2.4.3.5.4 1.1.5 1.6.1.6.2 1.3.2 1.9v24.9c0 .6-.1 1.2-.2 1.9-.1.6-.3 1.1-.5 1.7-.3.5-.6 1-1 1.4-.4.4-.9.8-1.4 1-.5.3-1.1.5-1.7.5-.6.1-1.2.2-1.9.2H8.4z"/><g id="_Group_"><g id="_Group_2"><g id="_Group_3"><path id="_Path_" class="st1" d="M24.8 20.3c0-1.7.9-3.3 2.4-4.2-.9-1.3-2.4-2.1-4-2.2-1.7-.2-3.3 1-4.2 1-.9 0-2.2-1-3.6-1-1.9.1-3.6 1.1-4.5 2.7-1.9 3.3-.5 8.3 1.4 11 .9 1.3 2 2.8 3.4 2.8 1.4-.1 1.9-.9 3.6-.9 1.7 0 2.1.9 3.6.9s2.4-1.3 3.3-2.7c.7-.9 1.2-2 1.5-3.1-1.8-.6-2.9-2.4-2.9-4.3z"/><path id="_Path_2" class="st1" d="M22 12.2c.8-1 1.2-2.2 1.1-3.5-1.2.1-2.4.7-3.2 1.7-.8.9-1.2 2.1-1.1 3.4 1.3 0 2.4-.6 3.2-1.6z"/></g></g><path class="st1" d="M42.3 27.1h-4.7l-1.1 3.4h-2L39 18.1h2l4.5 12.4h-2l-1.2-3.4zm-4.2-1.5h3.8L40 20.1h-.1l-1.8 5.5zM55.2 26c0 2.8-1.5 4.6-3.8 4.6-1.2.1-2.3-.6-2.8-1.6v4.5h-1.9v-12h1.8V23c.6-1 1.7-1.6 2.9-1.6 2.2-.1 3.8 1.8 3.8 4.6zm-2 0c0-1.8-.9-3-2.4-3-1.4 0-2.4 1.2-2.4 3s1 3 2.4 3c1.5 0 2.4-1.2 2.4-3zM65.1 26c0 2.8-1.5 4.6-3.8 4.6-1.2.1-2.3-.6-2.8-1.6v4.5h-1.9v-12h1.8V23c.6-1 1.7-1.6 2.9-1.6 2.3-.1 3.8 1.8 3.8 4.6zm-1.9 0c0-1.8-.9-3-2.4-3-1.4 0-2.4 1.2-2.4 3s1 3 2.4 3c1.5 0 2.4-1.2 2.4-3zM71.7 27c.1 1.2 1.3 2 3 2 1.6 0 2.7-.8 2.7-1.9 0-1-.7-1.5-2.3-1.9l-1.6-.4c-2.3-.6-3.3-1.6-3.3-3.3 0-2.1 1.9-3.6 4.5-3.6s4.4 1.5 4.5 3.6h-1.9c-.1-1.2-1.1-2-2.6-2s-2.5.8-2.5 1.9c0 .9.7 1.4 2.3 1.8l1.4.3c2.5.6 3.6 1.6 3.6 3.4 0 2.3-1.9 3.8-4.8 3.8-2.8 0-4.6-1.4-4.7-3.7h1.7zM83.3 19.3v2.1H85v1.5h-1.7v5c0 .8.3 1.1 1.1 1.1h.6v1.5c-.3.1-.7.1-1 .1-1.8 0-2.5-.7-2.5-2.4V23h-1.3v-1.5h1.3v-2.1h1.8zM86.1 26c0-2.8 1.7-4.6 4.3-4.6 2.6 0 4.3 1.8 4.3 4.6 0 2.9-1.7 4.6-4.3 4.6-2.7 0-4.3-1.8-4.3-4.6zm6.7 0c0-2-.9-3.1-2.4-3.1S88 24 88 26s.9 3.1 2.4 3.1 2.4-1.2 2.4-3.1zM96.2 21.4H98V23c.2-1 1.2-1.7 2.2-1.6.2 0 .4 0 .6.1v1.7c-.3-.1-.6-.1-.8-.1-1 0-1.9.8-1.9 1.8v5.7h-1.9v-9.2zM109.4 27.8c-.2 1.6-1.9 2.8-3.9 2.8-2.6 0-4.3-1.8-4.3-4.6s1.6-4.7 4.2-4.7c2.5 0 4.1 1.7 4.1 4.5v.6h-6.4v.1c-.1 1.3.8 2.4 2.1 2.6h.3c.9.1 1.8-.4 2.1-1.3h1.8zm-6.3-2.7h4.5c.1-1.2-.9-2.2-2.1-2.3h-.2c-1.2 0-2.2 1-2.2 2.3z"/></g><g id="_Group_4"><path class="st1" d="M37.8 8.7c1.5-.1 2.7 1 2.8 2.4v.5c0 1.9-1 3-2.8 3h-2.2v-6h2.2zm-1.2 5.2h1.1c1 .1 1.9-.7 2-1.8v-.4c.1-1-.6-2-1.6-2.1h-1.5v4.3zM41.7 12.4c-.1-1.2.7-2.2 1.9-2.3 1.2-.1 2.2.7 2.3 1.9v.4c.1 1.2-.7 2.2-1.9 2.3-1.2.1-2.2-.7-2.3-1.9v-.4zm3.3 0c0-1-.4-1.5-1.2-1.5-.8 0-1.2.6-1.2 1.5 0 1 .4 1.6 1.2 1.6.8 0 1.2-.6 1.2-1.6zM51.6 14.7h-.9l-.9-3.3h-.1l-.9 3.3h-.9l-1.2-4.5h.9l.8 3.4h.1l.9-3.4h.9l.9 3.4h.1l.8-3.4h.9l-1.4 4.5zM53.9 10.2h.9v.7h.1c.2-.5.8-.8 1.3-.8.8-.1 1.5.5 1.6 1.4V14.7h-.9V12c0-.7-.3-1.1-1-1.1-.6 0-1.1.4-1.1 1V14.7h-.9v-4.5zM59.1 8.4h.9v6.3h-.9V8.4zM61.2 12.4c-.1-1.2.7-2.2 1.9-2.3 1.2-.1 2.2.7 2.3 1.9v.4c.1 1.2-.7 2.2-1.9 2.3s-2.2-.7-2.3-1.9v-.4zm3.4 0c0-1-.4-1.5-1.2-1.5-.8 0-1.2.6-1.2 1.5 0 1 .4 1.6 1.2 1.6.7 0 1.2-.6 1.2-1.6zM66.4 13.4c0-.8.6-1.3 1.7-1.3l1.2-.1v-.4c0-.5-.3-.7-.9-.7-.5 0-.8.2-.9.5h-.9c.1-.8.8-1.3 1.8-1.3 1.1 0 1.8.6 1.8 1.5v3.1h-.9v-.6h-.1c-.3.5-.8.7-1.4.7-.7.1-1.4-.5-1.5-1.2.1-.1.1-.1.1-.2zm2.9-.4v-.4l-1.1.1c-.6 0-.9.3-.9.6 0 .4.4.6.8.6.6.2 1.1-.2 1.2-.9 0 .1 0 .1 0 0zM71.3 12.4c0-1.4.7-2.3 1.9-2.3.6 0 1.1.3 1.4.8h.1V8.4h.9v6.3h-.9V14h-.1c-.3.5-.8.8-1.4.8-1.1 0-1.9-.9-1.9-2.4zm1 0c0 1 .5 1.5 1.2 1.5s1.2-.6 1.2-1.5-.5-1.5-1.2-1.5c-.8 0-1.2.6-1.2 1.5zM79.2 12.4c-.1-1.2.7-2.2 1.9-2.3s2.2.7 2.3 1.9v.4c.1 1.2-.7 2.2-1.9 2.3-1.2.1-2.2-.7-2.3-1.9v-.4zm3.4 0c0-1-.4-1.5-1.2-1.5-.8 0-1.2.6-1.2 1.5 0 1 .4 1.6 1.2 1.6.7 0 1.2-.6 1.2-1.6zM84.7 10.2h.9v.7h.1c.2-.5.8-.8 1.3-.8.8-.1 1.5.5 1.6 1.4V14.7h-.9V12c0-.7-.3-1.1-1-1.1-.6 0-1.1.4-1.1 1V14.7h-.9v-4.5zM93.5 9.1v1.1h1v.8h-1v2.3c0 .5.2.7.6.7h.3v.7h-.5c-1 0-1.4-.3-1.4-1.2V11h-.7v-.7h.7V9.1h1zM95.7 8.4h.9v2.5h.1c.2-.5.8-.9 1.4-.8.8 0 1.5.6 1.6 1.4V14.7h-.9V12c0-.7-.3-1.1-1-1.1-.6 0-1.1.4-1.1 1V14.7h-.9l-.1-6.3zM104.8 13.5c-.2.8-1.1 1.4-2 1.3-1.1 0-2.1-.9-2.1-2v-.3c-.2-1.1.6-2.2 1.8-2.3h.3c1.3 0 2 .9 2 2.3v.3h-3.2c-.1.7.4 1.2 1.1 1.3h.1c.4.1.9-.2 1.1-.5l.9-.1zm-3.2-1.5h2.3c0-.6-.4-1.1-1-1.2h-.1c-.6.1-1.2.6-1.2 1.2z"/></g></svg>